<svg width="380" height="156" viewBox="0 0 380 156" fill="none" xmlns="http://www.w3.org/2000/svg">
<path d="M129.338 38H125.963V25.0449L121.99 8.36328H125.488C125.793 10.1914 126.238 12.5176 126.824 15.3418C127.422 18.1543 127.744 19.7305 127.791 20.0703C127.838 19.707 128.172 18.1133 128.793 15.2891C129.414 12.4648 129.883 10.1562 130.199 8.36328H133.451L129.338 25.0449V38ZM134.453 33.2891V13.0918C134.453 11.4395 134.846 10.1855 135.631 9.33008C136.428 8.47461 137.611 8.04688 139.182 8.04688C142.346 8.04688 143.928 9.72852 143.928 13.0918V33.2891C143.928 36.6406 142.346 38.3164 139.182 38.3164C137.611 38.3164 136.428 37.8945 135.631 37.0508C134.846 36.1953 134.453 34.9414 134.453 33.2891ZM140.623 33.2891V13.0918C140.623 11.9668 140.143 11.4043 139.182 11.4043C138.244 11.4043 137.775 11.9668 137.775 13.0918V33.2891C137.775 34.4375 138.244 35.0117 139.182 35.0117C140.143 35.0117 140.623 34.4375 140.623 33.2891ZM152.33 33.2891V8.36328H155.635V33.2891C155.635 36.6406 154.064 38.3164 150.924 38.3164C147.783 38.3164 146.213 36.6406 146.213 33.2891V8.36328H149.518V33.2891C149.518 34.4375 149.986 35.0117 150.924 35.0117C151.861 35.0117 152.33 34.4375 152.33 33.2891ZM158.658 15.0605H158.307V13.707H158.623C158.881 13.707 159.057 13.6484 159.15 13.5312C159.256 13.4141 159.309 13.2207 159.309 12.9512V12.0723H157.902V8.36328H161.014V12.7227C161.014 13.4258 160.82 13.9941 160.434 14.4277C160.047 14.8496 159.455 15.0605 158.658 15.0605ZM170.312 38H165.883L162.508 8.36328H165.953C166.188 11 166.492 14.2051 166.867 17.9785C167.242 21.752 167.547 24.875 167.781 27.3477C168.016 29.8203 168.15 31.4492 168.186 32.2344C168.232 31.4727 168.391 29.8379 168.66 27.3301C168.93 24.8223 169.258 21.7227 169.645 18.0312C170.043 14.3281 170.371 11.1055 170.629 8.36328H173.951L170.312 38ZM183.812 38H175.639V8.36328H183.619V11.7207H178.943V21.2305H182.072V24.5703H178.943V34.6953H183.812V38ZM198.824 38H190.65V8.36328H198.631V11.7207H193.955V21.2305H197.084V24.5703H193.955V34.6953H198.824V38ZM211.182 38H207.824L207.279 33.4297H203.658C203.436 35.0469 203.242 36.5703 203.078 38H199.826L203.693 8.36328H207.543L211.182 38ZM203.975 30.3711H206.928C206.354 25.3555 205.873 20.8672 205.486 16.9062C205.006 21.8281 204.502 26.3164 203.975 30.3711ZM219.303 19.7539V14.3926C219.303 13.4199 219.186 12.7344 218.951 12.3359C218.717 11.9258 218.225 11.7207 217.475 11.7207H216.209V21.6523H217.51C218.143 21.6523 218.6 21.5 218.881 21.1953C219.162 20.8906 219.303 20.4102 219.303 19.7539ZM222.941 38H219.303C218.6 31.8828 218.025 27.4414 217.58 24.6758H216.209V38H212.869V8.36328H217.475C219.244 8.36328 220.557 8.7793 221.412 9.61133C222.268 10.4434 222.695 11.8086 222.695 13.707V19.7188C222.695 20.832 222.537 21.7285 222.221 22.4082C221.904 23.0879 221.412 23.6152 220.744 23.9902C221.342 27.2246 222.074 31.8945 222.941 38ZM235.105 38H231.871C231.25 35.1641 230.459 31.5898 229.498 27.2773C228.537 22.9531 227.875 19.9062 227.512 18.1367C227.559 20.8438 227.582 24.9102 227.582 30.3359V38H224.752V8.36328H228.637C230.09 16.5312 231.326 23.2402 232.346 28.4902C232.299 26.2285 232.275 22.8828 232.275 18.4531V8.36328H235.105V38ZM245.828 38H237.654V8.36328H245.635V11.7207H240.959V21.2305H244.088V24.5703H240.959V34.6953H245.828V38ZM253.896 32.9551V13.4434C253.896 12.2949 253.416 11.7207 252.455 11.7207H251.084V34.6953H252.455C253.416 34.6953 253.896 34.1152 253.896 32.9551ZM252.455 38H247.779V8.36328H252.455C254.014 8.36328 255.191 8.80859 255.988 9.69922C256.797 10.5898 257.201 11.8379 257.201 13.4434V32.9551C257.201 36.3184 255.619 38 252.455 38Z" fill="white"/>
<path d="M14.5663 142H6.0092V78.6956H1.77664V70.1844H3.7549C4.82838 70.1844 5.61048 69.8931 6.10122 69.3103C6.59195 68.7276 6.83731 67.8075 6.83731 66.55V64.4337H14.5663V142ZM21.0072 129.67V76.8093C21.0072 68.0068 25.2551 63.6056 33.7509 63.6056C42.216 63.6056 46.4486 68.0068 46.4486 76.8093V129.67C46.4486 138.442 42.216 142.828 33.7509 142.828C25.2551 142.828 21.0072 138.442 21.0072 129.67ZM37.8914 129.854V76.6253C37.8914 73.6502 36.5113 72.1627 33.7509 72.1627C31.0519 72.1627 29.7024 73.6502 29.7024 76.6253V129.854C29.7024 132.799 31.0519 134.271 33.7509 134.271C36.5113 134.271 37.8914 132.799 37.8914 129.854ZM52.1993 96.1319V69.6324C52.1993 65.2465 54.377 63.0535 58.7322 63.0535C62.9955 63.0535 65.1271 65.2465 65.1271 69.6324V96.1319C65.1271 100.518 62.9955 102.711 58.7322 102.711C54.377 102.711 52.1993 100.518 52.1993 96.1319ZM60.0204 96.2239V69.5404C60.0204 68.5896 59.591 68.1142 58.7322 68.1142C57.7814 68.1142 57.306 68.5896 57.306 69.5404V96.2239C57.306 97.144 57.7814 97.6041 58.7322 97.6041C59.591 97.6041 60.0204 97.144 60.0204 96.2239ZM57.7661 142H51.9233L86.5199 64.4337H92.2707L57.7661 142ZM78.9749 136.801V110.348C78.9749 105.962 81.1372 103.769 85.4618 103.769C89.7557 103.769 91.9026 105.962 91.9026 110.348V136.801C91.9026 141.218 89.7557 143.426 85.4618 143.426C81.1372 143.426 78.9749 141.218 78.9749 136.801ZM86.796 136.893V110.256C86.796 109.305 86.3512 108.83 85.4618 108.83C84.5417 108.83 84.0816 109.305 84.0816 110.256V136.893C84.0816 137.844 84.5417 138.32 85.4618 138.32C86.3512 138.32 86.796 137.844 86.796 136.893ZM110.535 129.67V76.8093C110.535 72.4848 111.563 69.203 113.618 66.964C115.703 64.7251 118.801 63.6056 122.911 63.6056C131.192 63.6056 135.332 68.0068 135.332 76.8093V129.67C135.332 138.442 131.192 142.828 122.911 142.828C118.801 142.828 115.703 141.724 113.618 139.516C111.563 137.277 110.535 133.995 110.535 129.67ZM126.683 129.67V76.8093C126.683 73.8649 125.426 72.3927 122.911 72.3927C120.457 72.3927 119.23 73.8649 119.23 76.8093V129.67C119.23 132.676 120.457 134.179 122.911 134.179C125.426 134.179 126.683 132.676 126.683 129.67ZM150.238 142H141.589V64.4337H162.982V73.2208H150.238V98.4782H158.519V107.219H150.238V142ZM175.818 142H167.169V64.4337H188.561V73.2208H175.818V98.4782H184.099V107.219H175.818V142Z" fill="#D9C786"/>
<path d="M241.791 142H233.786V119.365C233.786 108.109 233.908 98.0028 234.154 89.047C231.485 108.86 229.17 126.511 227.207 142H219.662L212.853 89.047C213.129 104.168 213.267 114.274 213.267 119.365V142H205.262V64.4337H216.809C218.557 80.9959 220.735 100.104 223.342 121.757C226.164 98.4169 228.357 79.309 229.921 64.4337H241.791V142ZM275.651 142H266.864L265.438 130.038H255.96C255.378 134.271 254.872 138.258 254.442 142H245.931L256.052 64.4337H266.128L275.651 142ZM256.789 122.033H264.518C263.015 108.906 261.757 97.1594 260.745 86.7927C259.488 99.6744 258.169 111.421 256.789 122.033ZM296.17 128.796V77.7294C296.17 74.7237 294.912 73.2208 292.397 73.2208H288.809V133.351H292.397C294.912 133.351 296.17 131.833 296.17 128.796ZM292.397 142H280.16V64.4337H292.397C296.477 64.4337 299.559 65.5992 301.645 67.9301C303.761 70.2611 304.819 73.5276 304.819 77.7294V128.796C304.819 137.599 300.678 142 292.397 142ZM327.822 94.2456V80.2138C327.822 77.6681 327.515 75.8739 326.902 74.8311C326.288 73.7576 325 73.2208 323.037 73.2208H319.725V99.2143H323.129C324.786 99.2143 325.982 98.8156 326.718 98.0181C327.454 97.2207 327.822 95.9632 327.822 94.2456ZM337.345 142H327.822C325.982 125.99 324.479 114.366 323.313 107.127H319.725V142H310.984V64.4337H323.037C327.669 64.4337 331.104 65.5225 333.343 67.7001C335.582 69.8777 336.701 73.4509 336.701 78.4195V94.1536C336.701 97.0674 336.287 99.4137 335.459 101.193C334.631 102.971 333.343 104.352 331.595 105.333C333.159 113.798 335.076 126.021 337.345 142ZM351.193 142H342.544V64.4337H351.193V142ZM348.939 60.9832H341.394L351.791 45.8012H361.867L348.939 60.9832Z" fill="white"/>
<path d="M360.98 68.4014L360.98 64.3573L375.643 64.3574L375.643 68.3057L373.982 68.3057L373.982 65.9924L369.277 65.9924L369.277 67.5404L367.624 67.5404L367.624 65.9924L362.615 65.9924L362.615 68.4014L360.98 68.4014ZM360.98 76.7204L360.98 74.9549C361.792 74.8042 362.951 74.5636 364.459 74.2331C365.966 73.9084 366.842 73.7287 367.085 73.6939C366.865 73.6765 366.43 73.5982 365.781 73.4591C365.131 73.3257 364.325 73.1547 363.363 72.946C362.4 72.7373 361.606 72.572 360.98 72.4503L360.98 70.7718L368.816 72.7894L375.643 71.0935L375.643 72.859C375.144 72.9402 374.512 73.0532 373.747 73.1982C372.987 73.3489 372.335 73.4765 371.79 73.5808C371.245 73.6852 370.883 73.7461 370.703 73.7635C370.9 73.7867 371.61 73.92 372.834 74.1635C374.063 74.4128 374.999 74.5897 375.643 74.694L375.643 76.3986L368.868 74.6767L360.98 76.7204ZM363.311 82.1782L366.355 82.1782L366.355 83.674L363.328 83.674C362.47 83.674 361.838 83.5001 361.432 83.1522C361.026 82.8043 360.823 82.2535 360.823 81.4998C360.823 79.917 361.647 79.1256 363.293 79.1256L373.269 79.1256C374.956 79.1256 375.799 79.917 375.799 81.4998C375.799 82.2304 375.594 82.7754 375.182 83.1348C374.776 83.4943 374.15 83.674 373.303 83.674L370.703 83.674L370.703 82.1782L373.303 82.1782C373.593 82.1782 373.805 82.126 373.938 82.0216C374.072 81.9173 374.138 81.7433 374.138 81.4998C374.138 81.036 373.86 80.8041 373.303 80.8041L363.311 80.8041C362.743 80.8041 362.458 81.036 362.458 81.4998C362.458 81.7375 362.528 81.9086 362.667 82.0129C362.806 82.1231 363.021 82.1782 363.311 82.1782ZM360.98 90.7755L360.98 86.7315L375.643 86.7315L375.643 90.6798L373.982 90.6798L373.982 88.3665L369.277 88.3665L369.277 89.9145L367.624 89.9145L367.624 88.3665L362.615 88.3665L362.615 90.7755L360.98 90.7755ZM370.529 96.9551L372.999 96.9551C373.335 96.9551 373.582 96.8826 373.738 96.7377C373.901 96.5927 373.982 96.3579 373.982 96.0332L373.982 95.3549L369.546 95.3549L369.546 96.0506C369.546 96.3637 369.625 96.5927 369.781 96.7377C369.938 96.8826 370.187 96.9551 370.529 96.9551ZM360.98 95.3549L360.98 93.7199L375.643 93.7199L375.643 96.0332C375.643 96.9087 375.425 97.5523 374.991 97.9639C374.562 98.3756 373.892 98.5814 372.982 98.5814L370.581 98.5814C369.665 98.5814 368.996 98.3756 368.572 97.9639C368.155 97.5581 367.946 96.9203 367.946 96.0506L367.946 95.3549L360.98 95.3549ZM363.311 104.413L366.355 104.413L366.355 105.909L363.328 105.909C362.47 105.909 361.838 105.735 361.432 105.387C361.026 105.039 360.823 104.489 360.823 103.735C360.823 102.152 361.647 101.361 363.293 101.361L373.269 101.361C374.956 101.361 375.799 102.152 375.799 103.735C375.799 104.465 375.594 105.01 375.182 105.37C374.776 105.729 374.15 105.909 373.303 105.909L370.703 105.909L370.703 104.413L373.303 104.413C373.593 104.413 373.805 104.361 373.938 104.257C374.072 104.152 374.138 103.978 374.138 103.735C374.138 103.271 373.86 103.039 373.303 103.039L363.311 103.039C362.743 103.039 362.458 103.271 362.458 103.735C362.458 103.972 362.528 104.144 362.667 104.248C362.806 104.358 363.021 104.413 363.311 104.413ZM360.98 110.636L360.98 109.001L375.643 109.001L375.643 110.636L360.98 110.636ZM363.311 113.824L373.303 113.824C374.121 113.824 374.741 114.018 375.165 114.407C375.588 114.801 375.799 115.387 375.799 116.164C375.799 117.729 374.967 118.512 373.303 118.512L363.311 118.512C361.653 118.512 360.823 117.729 360.823 116.164C360.823 115.387 361.032 114.801 361.45 114.407C361.873 114.018 362.493 113.824 363.311 113.824ZM363.311 116.877L373.303 116.877C373.86 116.877 374.138 116.639 374.138 116.164C374.138 115.7 373.86 115.468 373.303 115.468L363.311 115.468C362.743 115.468 362.458 115.7 362.458 116.164C362.458 116.639 362.743 116.877 363.311 116.877ZM360.98 126.744L360.98 125.144C362.383 124.836 364.151 124.445 366.285 123.969C368.424 123.494 369.932 123.166 370.807 122.987C369.468 123.01 367.456 123.021 364.772 123.021L360.98 123.021L360.98 121.621L375.643 121.621L375.643 123.543C371.602 124.262 368.282 124.874 365.685 125.378C366.804 125.355 368.459 125.344 370.651 125.344L375.643 125.344L375.643 126.744L360.98 126.744ZM360.98 135.132L360.98 133.471L363.241 133.202L363.241 131.41C362.441 131.3 361.687 131.204 360.98 131.123L360.98 129.514L375.643 131.427L375.643 133.332L360.98 135.132ZM364.754 131.567L364.754 133.028C367.236 132.744 369.457 132.506 371.416 132.315C368.981 132.077 366.76 131.828 364.754 131.567ZM360.98 142.008L360.98 137.964L375.643 137.964L375.643 139.599L362.615 139.599L362.615 142.008L360.98 142.008Z" fill="#D9C786"/>
</svg>
