<svg width="266" height="331" viewBox="0 0 266 331" fill="none" xmlns="http://www.w3.org/2000/svg">
<path d="M201.149 327.521H199.15C198.766 325.768 198.278 323.559 197.684 320.895C197.09 318.222 196.681 316.34 196.456 315.246C196.485 316.919 196.5 319.432 196.5 322.785V327.521H194.751V309.207H197.152C198.05 314.254 198.813 318.4 199.444 321.644C199.415 320.246 199.4 318.179 199.4 315.442V309.207H201.149V327.521ZM210.247 327.521H205.196V309.207H210.127V311.281H207.238V317.158H209.171V319.222H207.238V325.478H210.247V327.521ZM220.355 327.521H218.28L217.943 324.696H215.705C215.568 325.696 215.448 326.637 215.347 327.521H213.338L215.727 309.207H218.106L220.355 327.521ZM215.901 322.806H217.726C217.371 319.707 217.074 316.933 216.835 314.486C216.538 317.527 216.227 320.301 215.901 322.806ZM227.845 316.245V312.933C227.845 312.331 227.772 311.908 227.627 311.662C227.483 311.408 227.178 311.281 226.715 311.281H225.933V317.419H226.737C227.128 317.419 227.41 317.324 227.584 317.136C227.758 316.948 227.845 316.651 227.845 316.245ZM230.093 327.521H227.845C227.41 323.74 227.055 320.996 226.78 319.287H225.933V327.521H223.869V309.207H226.715C227.808 309.207 228.619 309.464 229.148 309.978C229.677 310.492 229.941 311.336 229.941 312.509V316.224C229.941 316.912 229.843 317.466 229.648 317.886C229.452 318.306 229.148 318.632 228.735 318.863C229.105 320.862 229.557 323.748 230.093 327.521ZM243.151 327.521H241.065V319.515L238.61 309.207H240.772C240.96 310.336 241.235 311.774 241.597 313.519C241.967 315.257 242.166 316.231 242.195 316.441C242.224 316.217 242.43 315.232 242.814 313.486C243.198 311.741 243.487 310.315 243.683 309.207H245.693L243.151 319.515V327.521ZM248.783 324.609V312.129C248.783 311.108 249.026 310.333 249.511 309.804C250.004 309.276 250.735 309.011 251.705 309.011C253.661 309.011 254.638 310.05 254.638 312.129V324.609C254.638 326.68 253.661 327.716 251.705 327.716C250.735 327.716 250.004 327.455 249.511 326.934C249.026 326.405 248.783 325.63 248.783 324.609ZM252.596 324.609V312.129C252.596 311.434 252.299 311.086 251.705 311.086C251.126 311.086 250.836 311.434 250.836 312.129V324.609C250.836 325.319 251.126 325.674 251.705 325.674C252.299 325.674 252.596 325.319 252.596 324.609ZM262.302 324.609V309.207H264.344V324.609C264.344 326.68 263.374 327.716 261.433 327.716C259.492 327.716 258.522 326.68 258.522 324.609V309.207H260.564V324.609C260.564 325.319 260.854 325.674 261.433 325.674C262.012 325.674 262.302 325.319 262.302 324.609Z" fill="#D9C786"/>
<g clip-path="url(#clip0_775_11664)">
<path d="M0.75 98.0708V104.101H5.58741V143.381H11.5535V104.101H16.4071V98.0708H0.75Z" fill="white"/>
<path d="M29.1293 98.0708V117.404H25.5174V98.0708H19.5513V143.381H25.5174V123.322H29.1293V143.381H35.0955V98.0708H29.1293Z" fill="white"/>
<path d="M45.109 137.463V123.322H50.3817V117.308H45.109V104.101H52.5908V98.0708H39.1428V143.381H52.8488V137.463H45.109Z" fill="white"/>
<path d="M92.0159 151.475C91.4194 149.239 90.3159 147.17 88.791 145.428C86.692 142.933 84.4468 140.563 82.067 138.334C79.7803 136.21 77.6666 133.908 75.7461 131.448C75.1556 130.743 74.7017 129.934 74.4078 129.062C74.1337 127.851 74.0198 126.61 74.0692 125.369V112.615C74.0692 109.035 75.472 107.439 78.6324 107.439C79.2918 107.34 79.9656 107.424 80.5801 107.683C81.1945 107.942 81.7257 108.365 82.1154 108.906C82.8389 110.412 83.1716 112.075 83.0828 113.743V129.304H92.4674V112.615C92.4674 107.6 91.4032 103.778 89.2425 101.327C87.0818 98.8765 83.4537 97.4736 78.3583 97.4736C68.8286 97.4736 64.0074 102.585 64.0074 112.663V125.563C63.9801 127.687 64.104 129.81 64.3782 131.916C64.7576 133.962 65.7208 135.855 67.1517 137.366C68.4255 138.898 69.651 140.317 70.812 141.542C71.9729 142.768 73.1178 143.945 74.2304 145.025C75.343 146.106 76.4072 147.17 77.4553 148.25C78.5034 149.331 79.5193 150.475 80.519 151.669C80.9866 152.281 81.3898 152.83 81.7284 153.281C82.0371 153.74 82.2813 154.239 82.454 154.765C82.6538 155.42 82.7783 156.096 82.8249 156.78C82.8249 157.635 82.9216 158.683 82.9216 159.892V172.115C83.0276 173.577 82.6478 175.034 81.8413 176.259C81.3761 176.722 80.8133 177.076 80.1939 177.293C79.5745 177.511 78.9143 177.587 78.2616 177.517C77.5885 177.598 76.9059 177.491 76.2906 177.206C75.6753 176.921 75.1517 176.47 74.7786 175.904C73.998 174.375 73.6259 172.669 73.6983 170.954V152.814H64.1202V172.083C64.1202 176.92 65.2651 180.677 67.5386 183.37C69.8122 186.063 73.4725 187.353 78.4389 187.353C83.4053 187.353 87.243 185.998 89.4844 183.338C91.878 180.117 93.0547 176.152 92.806 172.147V159.812C92.8772 157.033 92.6173 154.257 92.0321 151.54" fill="white"/>
<path d="M123.249 101.457C120.847 98.7807 117.154 97.4263 112.284 97.4263C107.415 97.4263 103.835 98.7807 101.416 101.457C98.9977 104.134 97.8206 108.004 97.8206 113.035V171.664C97.8206 176.711 99.0299 180.597 101.416 183.242C103.803 185.886 107.463 187.354 112.301 187.354C117.138 187.354 120.863 185.983 123.265 183.306C125.668 180.63 126.861 176.776 126.861 171.729V113.035C126.861 108.004 125.652 104.102 123.265 101.457M107.737 113.035C107.737 108.069 110.172 107.44 112.301 107.44C114.429 107.44 116.961 108.069 116.961 113.035V171.664C116.961 176.873 114.3 177.485 112.301 177.485C110.301 177.485 107.737 176.873 107.737 171.664V113.035Z" fill="white"/>
<path d="M151.742 98.3613V171.664C151.742 176.872 149.146 177.485 147.195 177.485C145.243 177.485 142.631 176.872 142.631 171.664V98.3613H132.731V171.664C132.731 182.032 137.568 187.289 147.243 187.289C156.918 187.289 161.755 182.032 161.755 171.664V98.3613H151.742Z" fill="white"/>
<path d="M178.057 176.534V98.3613H168.156V186.338H193.424V176.534H178.057Z" fill="white"/>
<path d="M218.901 132.82C217.275 131.406 215.193 130.628 213.039 130.628C210.885 130.628 208.804 131.406 207.178 132.82C205.785 134.558 205.094 136.756 205.243 138.979V168.52C205.091 170.743 205.782 172.942 207.178 174.679C208.804 176.093 210.885 176.871 213.039 176.871C215.193 176.871 217.275 176.093 218.901 174.679C220.294 172.941 220.984 170.743 220.836 168.52V138.979C220.984 136.756 220.294 134.558 218.901 132.82ZM211.209 138.979C211.209 136.819 212.144 136.641 213.015 136.641C213.886 136.641 214.886 136.819 214.886 138.979V168.52C214.886 170.664 213.983 170.971 213.015 170.971C212.048 170.971 211.209 170.664 211.209 168.52V138.979Z" fill="white"/>
<path d="M238.799 137.109V131.094H225.093V176.405H231.059V156.555H236.38V150.541H231.059V137.109H238.799Z" fill="white"/>
<path d="M235.541 180.388H204.953V186.499H235.541V180.388Z" fill="white"/>
<path d="M93.0476 201.704L84.8885 262.559L76.6488 201.704H64.0876V289.68H73.2626V262.672C73.2626 256.404 73.2626 250.202 73.2626 244.064C73.2626 242.661 73.2626 241.258 73.2626 239.855L80.5348 289.68H89.2583L96.6434 239.694C96.6434 241.145 96.6434 242.596 96.6434 244.048C96.6434 250.175 96.6434 256.378 96.6434 262.655V289.664H105.851V201.704H93.0476Z" fill="white"/>
<path d="M132.811 201.704H121.798L109.721 289.68H119.396L121.282 275.249H132.424L134.295 289.68H144.228L132.811 201.704ZM131.199 265.977H122.443C123.378 258.968 124.292 251.981 125.184 245.015C125.765 240.42 126.361 235.792 126.942 231.116C127.49 235.856 128.054 240.5 128.554 245.015C129.404 251.927 130.264 258.915 131.134 265.977" fill="white"/>
<path d="M173.816 205.961C171.365 203.139 167.689 201.704 162.884 201.704H148.533V279.699H162.884C172.558 279.699 177.396 274.443 177.396 264.091V217.426C177.621 213.287 176.325 209.21 173.752 205.961M158.369 211.718H162.819C163.467 211.661 164.119 211.758 164.721 212.002C165.324 212.246 165.86 212.629 166.286 213.12C167.163 214.414 167.583 215.963 167.479 217.522V264.091C167.479 269.299 164.819 269.895 162.819 269.895H158.369V211.718Z" fill="white"/>
<path d="M214.338 288.536C213.29 281.828 212.177 275.007 211.016 268.251C209.855 261.494 208.662 255.012 207.34 248.45C211.435 246.015 213.515 241.597 213.515 235.292V218.151C213.515 212.25 212.161 207.993 209.5 205.477C206.84 202.962 202.873 201.704 197.632 201.704H183.636V289.68H193.553V250.691H197.923C199.035 256.899 200.083 263.139 201.003 269.25C201.922 275.362 202.905 282.15 203.824 288.826L203.937 289.68H214.515L214.338 288.536ZM203.599 219.199V235.324C203.751 237.005 203.287 238.685 202.292 240.049C201.678 240.577 200.962 240.975 200.188 241.216C199.415 241.457 198.6 241.537 197.794 241.451H193.553V211.718H197.761C200.196 211.718 201.793 212.217 202.502 213.233C203.453 215.07 203.861 217.139 203.679 219.199" fill="white"/>
<path d="M229.382 201.704H219.481V289.68H229.382V201.704Z" fill="white"/>
<path d="M261.712 205.961C259.261 203.139 255.585 201.704 250.779 201.704H236.461V289.68H250.828C260.503 289.68 265.34 284.424 265.34 274.056V217.426C265.562 213.29 264.273 209.216 261.712 205.961ZM246.329 211.718H250.779C251.422 211.672 252.066 211.779 252.66 212.028C253.253 212.277 253.78 212.662 254.198 213.153C255.075 214.446 255.495 215.995 255.391 217.555V274.088C255.391 279.296 252.731 279.909 250.731 279.909H246.281L246.329 211.718Z" fill="white"/>
<path d="M177.654 283.521H148.485V289.632H177.654V283.521Z" fill="white"/>
<path d="M177.783 77.8828H0.814453V80.0113H177.783V77.8828Z" fill="url(#paint0_linear_775_11664)"/>
<path d="M177.783 0.306641H0.814453V2.4351H177.783V0.306641Z" fill="url(#paint1_linear_775_11664)"/>
<path d="M16.7331 63.3066H3.17992V14.1654H16.4125V19.7324H8.65949V35.5007H13.8476V41.0386H8.65949V57.8271H16.7331V63.3066ZM37.981 63.3066H32.0643C31.559 60.5863 30.7527 56.7001 29.6451 51.648C28.5569 46.5959 27.9546 43.6618 27.838 42.8457C27.7797 43.5841 27.5174 45.0414 27.051 47.2177C26.6041 49.394 26.0309 52.0949 25.3314 55.3205C24.6319 58.546 24.0781 61.2081 23.67 63.3066H18.0447L24.8067 37.0455L19.1231 14.1654H25.0399C25.3119 15.8364 25.6909 17.9544 26.1766 20.5193C26.6818 23.0648 27.1093 25.2508 27.4591 27.0773C27.8088 28.9039 28.0129 30.1183 28.0712 30.7207C28.1489 30.06 28.5958 27.6797 29.4119 23.5797C30.2474 19.4604 30.8401 16.3222 31.1899 14.1654H36.9026L31.1316 36.8706L37.981 63.3066ZM51.2136 31.3036V23.026C51.2136 21.899 50.9707 21.0731 50.4849 20.5485C49.9992 20.0044 49.2122 19.7324 48.1241 19.7324H45.8506V34.5972H48.1824C49.2316 34.5972 49.9992 34.3349 50.4849 33.8102C50.9707 33.2856 51.2136 32.45 51.2136 31.3036ZM45.8506 63.3066H40.3711V14.1654H48.1241C51.0582 14.1654 53.215 14.894 54.5946 16.3514C55.9742 17.7893 56.664 20.0336 56.664 23.0843V31.1287C56.664 34.1988 55.9742 36.4431 54.5946 37.8616C53.2344 39.2606 51.097 39.9602 48.1824 39.9602H45.8506V63.3066ZM73.2776 63.3066H59.7244V14.1654H72.957V19.7324H65.204V35.5007H70.3921V41.0386H65.204V57.8271H73.2776V63.3066ZM87.1223 33.0524V24.1627C87.1223 22.5499 86.928 21.4132 86.5394 20.7525C86.1507 20.0724 85.3346 19.7324 84.091 19.7324H81.9925V36.2002H84.1493C85.1986 36.2002 85.9564 35.9476 86.4228 35.4424C86.8891 34.9372 87.1223 34.1406 87.1223 33.0524ZM93.1557 63.3066H87.1223C85.9564 53.1636 85.0043 45.7992 84.2659 41.2135H81.9925V63.3066H76.4546V14.1654H84.091C87.0251 14.1654 89.2014 14.8552 90.6199 16.2348C92.0384 17.6144 92.7476 19.8781 92.7476 23.026V32.9941C92.7476 34.8401 92.4853 36.3266 91.9606 37.4536C91.436 38.5806 90.6199 39.455 89.5123 40.0768C90.5033 45.4397 91.7177 53.183 93.1557 63.3066ZM101.929 63.3066H96.4492V14.1654H101.929V63.3066ZM119.912 63.3066H106.359V14.1654H119.592V19.7324H111.839V35.5007H117.027V41.0386H111.839V57.8271H119.912V63.3066ZM140.14 63.3066H134.777C133.747 58.6043 132.436 52.6778 130.842 45.5272C129.249 38.3571 128.151 33.305 127.549 30.3709C127.626 34.8595 127.665 41.6021 127.665 50.5987V63.3066H122.973V14.1654H129.414C131.824 27.7089 133.874 38.8332 135.564 47.5383C135.486 43.7881 135.447 38.2405 135.447 30.8956V14.1654H140.14V63.3066ZM154.218 55.4953V45.294H159.231V55.437C159.231 58.3128 158.648 60.4308 157.482 61.791C156.316 63.1512 154.471 63.8313 151.944 63.8313C146.64 63.8313 143.987 61.0721 143.987 55.5536V22.1224C143.987 16.468 146.64 13.6407 151.944 13.6407C154.393 13.6407 156.219 14.3305 157.424 15.7101C158.629 17.0703 159.231 19.1689 159.231 22.0058V30.7207H154.218V22.0058C154.218 21.0343 154.043 20.325 153.693 19.8781C153.343 19.4312 152.761 19.2077 151.944 19.2077C150.39 19.2077 149.613 20.1404 149.613 22.0058V55.4953C149.613 57.3996 150.39 58.3517 151.944 58.3517C152.741 58.3517 153.314 58.1185 153.664 57.6522C154.033 57.1858 154.218 56.4669 154.218 55.4953ZM176.398 63.3066H162.845V14.1654H176.078V19.7324H168.325V35.5007H173.513V41.0386H168.325V57.8271H176.398V63.3066Z" fill="white"/>
</g>
<defs>
<linearGradient id="paint0_linear_775_11664" x1="0.814453" y1="78.0763" x2="177.783" y2="78.0763" gradientUnits="userSpaceOnUse">
<stop stop-color="#DDC081"/>
<stop offset="0.25" stop-color="#BF911F"/>
<stop offset="0.5" stop-color="#DDC081"/>
<stop offset="0.75" stop-color="#BF911F"/>
<stop offset="1" stop-color="#DDC081"/>
</linearGradient>
<linearGradient id="paint1_linear_775_11664" x1="0.814453" y1="0.516264" x2="177.783" y2="0.516264" gradientUnits="userSpaceOnUse">
<stop stop-color="#DDC081"/>
<stop offset="0.25" stop-color="#BF911F"/>
<stop offset="0.5" stop-color="#DDC081"/>
<stop offset="0.75" stop-color="#BF911F"/>
<stop offset="1" stop-color="#DDC081"/>
</linearGradient>
<clipPath id="clip0_775_11664">
<rect width="264.59" height="289.374" fill="white" transform="translate(0.75 0.306641)"/>
</clipPath>
</defs>
</svg>
