<svg width="384" height="192" viewBox="0 0 384 192" fill="none" xmlns="http://www.w3.org/2000/svg">
<path d="M173.096 38.1758H172.709L171.619 36.7695C171.291 37.2852 170.805 37.6719 170.16 37.9297C169.527 38.1875 168.824 38.3164 168.051 38.3164C166.668 38.3164 165.572 37.9238 164.764 37.1387C163.955 36.3418 163.551 35.0586 163.551 33.2891V13.127C163.551 11.498 163.949 10.2441 164.746 9.36523C165.555 8.48633 166.744 8.04688 168.314 8.04688C171.361 8.04688 172.885 9.74023 172.885 13.127V18.3477H169.896V13.0918C169.896 11.9668 169.369 11.4043 168.314 11.4043C167.354 11.4043 166.873 11.9668 166.873 13.0918V33.2891C166.873 33.8633 166.996 34.2969 167.242 34.5898C167.5 34.8711 167.846 35.0117 168.279 35.0117C169.287 35.0117 169.826 34.5078 169.896 33.5V27.1367H168.139V23.9551H173.096V38.1758ZM183.625 38H175.451V8.36328H183.432V11.7207H178.756V21.2305H181.885V24.5703H178.756V34.6953H183.625V38ZM191.043 38H187.738V11.7207H184.627V8.36328H194.137V11.7207H191.043V38ZM211.1 38H207.742L207.197 33.4297H203.576C203.354 35.0469 203.16 36.5703 202.996 38H199.744L203.611 8.36328H207.461L211.1 38ZM203.893 30.3711H206.846C206.271 25.3555 205.791 20.8672 205.404 16.9062C204.924 21.8281 204.42 26.3164 203.893 30.3711Z" fill="white"/>
<path d="M379.233 188.375L374.328 192L367.237 181.071L360.36 192L355.455 188.375L363.505 178.458L351.083 175.206L352.896 169.395L364.945 173.98L364.145 161.078H370.383L369.636 173.98L381.632 169.182L383.498 175.1L371.023 178.458L379.233 188.375Z" fill="white"/>
<path d="M15.5391 151H4.52344V52.2109H31.7695V63.4023H15.5391V95.5703H26.0859V106.703H15.5391V151ZM58.4297 90.1797V72.3086C58.4297 69.0664 58.0391 66.7812 57.2578 65.4531C56.4766 64.0859 54.8359 63.4023 52.3359 63.4023H48.1172V96.5078H52.4531C54.5625 96.5078 56.0859 96 57.0234 94.9844C57.9609 93.9688 58.4297 92.3672 58.4297 90.1797ZM70.5586 151H58.4297C56.0859 130.609 54.1719 115.805 52.6875 106.586H48.1172V151H36.9844V52.2109H52.3359C58.2344 52.2109 62.6094 53.5977 65.4609 56.3711C68.3125 59.1445 69.7383 63.6953 69.7383 70.0234V90.0625C69.7383 93.7734 69.2109 96.7617 68.1562 99.0273C67.1016 101.293 65.4609 103.051 63.2344 104.301C65.2266 115.082 67.668 130.648 70.5586 151ZM104.191 151H76.9453V52.2109H103.547V63.4023H87.9609V95.1016H98.3906V106.234H87.9609V139.984H104.191V151ZM137.941 151H110.695V52.2109H137.297V63.4023H121.711V95.1016H132.141V106.234H121.711V139.984H137.941V151Z" fill="#D9C786"/>
<path d="M206.906 151H196.711V122.172C196.711 107.836 196.867 94.9648 197.18 83.5586C193.781 108.793 190.832 131.273 188.332 151H178.723L170.051 83.5586C170.402 102.816 170.578 115.688 170.578 122.172V151H160.383V52.2109H175.09C177.316 73.3047 180.09 97.6406 183.41 125.219C187.004 95.4922 189.797 71.1562 191.789 52.2109H206.906V151ZM250.031 151H238.84L237.023 135.766H224.953C224.211 141.156 223.566 146.234 223.02 151H212.18L225.07 52.2109H237.902L250.031 151ZM226.008 125.57H235.852C233.938 108.852 232.336 93.8906 231.047 80.6875C229.445 97.0938 227.766 112.055 226.008 125.57ZM276.164 134.184V69.1445C276.164 65.3164 274.562 63.4023 271.359 63.4023H266.789V139.984H271.359C274.562 139.984 276.164 138.051 276.164 134.184ZM271.359 151H255.773V52.2109H271.359C276.555 52.2109 280.48 53.6953 283.137 56.6641C285.832 59.6328 287.18 63.793 287.18 69.1445V134.184C287.18 145.395 281.906 151 271.359 151ZM316.477 90.1797V72.3086C316.477 69.0664 316.086 66.7812 315.305 65.4531C314.523 64.0859 312.883 63.4023 310.383 63.4023H306.164V96.5078H310.5C312.609 96.5078 314.133 96 315.07 94.9844C316.008 93.9688 316.477 92.3672 316.477 90.1797ZM328.605 151H316.477C314.133 130.609 312.219 115.805 310.734 106.586H306.164V151H295.031V52.2109H310.383C316.281 52.2109 320.656 53.5977 323.508 56.3711C326.359 59.1445 327.785 63.6953 327.785 70.0234V90.0625C327.785 93.7734 327.258 96.7617 326.203 99.0273C325.148 101.293 323.508 103.051 321.281 104.301C323.273 115.082 325.715 130.648 328.605 151ZM346.242 151H335.227V52.2109H346.242V151ZM343.371 47.8164H333.762L347.004 28.4805H359.836L343.371 47.8164Z" fill="white"/>
<path d="M359 57.0439L359 51.8934L377.675 51.8934L377.675 56.9221L375.559 56.9221L375.559 53.9758L369.567 53.9758L369.567 55.9474L367.462 55.9474L367.462 53.9758L361.082 53.9758L361.082 57.0439L359 57.0439ZM359 67.6391L359 65.3906C360.034 65.1986 361.511 64.8922 363.431 64.4713C365.35 64.0578 366.465 63.8288 366.776 63.7845C366.495 63.7624 365.941 63.6627 365.114 63.4855C364.287 63.3156 363.261 63.0978 362.035 62.832C360.809 62.5661 359.797 62.3557 359 62.2006L359 60.0629L368.98 62.6326L377.675 60.4727L377.675 62.7212C377.04 62.8246 376.235 62.9686 375.26 63.1532C374.293 63.3452 373.462 63.5076 372.768 63.6405C372.074 63.7735 371.612 63.851 371.383 63.8731C371.634 63.9027 372.539 64.0725 374.097 64.3827C375.663 64.7002 376.855 64.9254 377.675 65.0583L377.675 67.2293L369.046 65.0362L359 67.6391ZM361.968 74.5902L365.845 74.5902L365.845 76.4953L361.991 76.4953C360.898 76.4953 360.093 76.2738 359.576 75.8307C359.059 75.3877 358.801 74.6862 358.801 73.7262C358.801 71.7103 359.849 70.7024 361.946 70.7024L374.651 70.7024C376.8 70.7024 377.874 71.7103 377.874 73.7262C377.874 74.6566 377.612 75.3507 377.088 75.8086C376.571 76.2664 375.773 76.4953 374.695 76.4953L371.383 76.4953L371.383 74.5902L374.695 74.5902C375.064 74.5902 375.334 74.5237 375.504 74.3908C375.674 74.2579 375.759 74.0363 375.759 73.7262C375.759 73.1355 375.404 72.8401 374.695 72.8401L361.968 72.8401C361.245 72.8401 360.883 73.1355 360.883 73.7262C360.883 74.029 360.972 74.2468 361.149 74.3797C361.326 74.52 361.599 74.5902 361.968 74.5902ZM359 85.5398L359 80.3893L377.675 80.3893L377.675 85.4179L375.559 85.4179L375.559 82.4716L369.567 82.4716L369.567 84.4432L367.462 84.4432L367.462 82.4716L361.082 82.4716L361.082 85.5398L359 85.5398ZM371.162 93.4102L374.308 93.4102C374.736 93.4102 375.05 93.3179 375.249 93.1333C375.456 92.9486 375.559 92.6496 375.559 92.2361L375.559 91.3721L369.91 91.3721L369.91 92.2582C369.91 92.657 370.01 92.9486 370.209 93.1333C370.409 93.3179 370.726 93.4102 371.162 93.4102ZM359 91.3721L359 89.2897L377.675 89.2897L377.675 92.2361C377.675 93.3511 377.398 94.1707 376.844 94.695C376.298 95.2193 375.445 95.4814 374.285 95.4814L371.228 95.4814C370.062 95.4814 369.209 95.2193 368.67 94.695C368.138 94.1781 367.872 93.3659 367.872 92.2582L367.872 91.3721L359 91.3721ZM361.968 102.909L365.845 102.909L365.845 104.814L361.991 104.814C360.898 104.814 360.093 104.592 359.576 104.149C359.059 103.706 358.801 103.005 358.801 102.045C358.801 100.029 359.849 99.021 361.946 99.021L374.651 99.021C376.8 99.021 377.874 100.029 377.874 102.045C377.874 102.975 377.612 103.669 377.088 104.127C376.571 104.585 375.773 104.814 374.695 104.814L371.383 104.814L371.383 102.909L374.695 102.909C375.064 102.909 375.334 102.842 375.504 102.709C375.674 102.576 375.759 102.355 375.759 102.045C375.759 101.454 375.404 101.159 374.695 101.159L361.968 101.159C361.245 101.159 360.883 101.454 360.883 102.045C360.883 102.348 360.972 102.565 361.149 102.698C361.326 102.839 361.599 102.909 361.968 102.909ZM359 110.835L359 108.752L377.675 108.752L377.675 110.835L359 110.835ZM361.968 114.895L374.695 114.895C375.736 114.895 376.527 115.142 377.066 115.637C377.605 116.139 377.874 116.885 377.874 117.874C377.874 119.868 376.815 120.865 374.695 120.865L361.968 120.865C359.857 120.865 358.801 119.868 358.801 117.874C358.801 116.885 359.066 116.139 359.598 115.637C360.137 115.142 360.927 114.895 361.968 114.895ZM361.968 118.782L374.695 118.782C375.404 118.782 375.759 118.48 375.759 117.874C375.759 117.283 375.404 116.988 374.695 116.988L361.968 116.988C361.245 116.988 360.883 117.283 360.883 117.874C360.883 118.48 361.245 118.782 361.968 118.782ZM359 131.349L359 129.311C360.787 128.92 363.039 128.421 365.757 127.816C368.481 127.21 370.401 126.793 371.516 126.564C369.811 126.594 367.248 126.609 363.829 126.609L359 126.609L359 124.825L377.675 124.825L377.675 127.273C372.528 128.189 368.3 128.968 364.992 129.61C366.417 129.581 368.526 129.566 371.317 129.566L377.675 129.566L377.675 131.349L359 131.349ZM359 142.033L359 139.917L361.88 139.574L361.88 137.292C360.861 137.152 359.901 137.03 359 136.927L359 134.878L377.675 137.314L377.675 139.74L359 142.033ZM363.807 137.492L363.807 139.353C366.968 138.991 369.796 138.688 372.292 138.444C369.19 138.142 366.362 137.824 363.807 137.492ZM359 150.79L359 145.639L377.675 145.639L377.675 147.721L361.082 147.721L361.082 150.79L359 150.79Z" fill="#D9C786"/>
</svg>
