<svg width="294" height="42" viewBox="0 0 294 42" fill="none" xmlns="http://www.w3.org/2000/svg">
<path d="M247.733 40.1793L246.674 41L245.143 38.5259L243.658 41L242.599 40.1793L244.337 37.9345L241.654 37.1983L242.046 35.8828L244.648 36.9207L244.475 34H245.822L245.661 36.9207L248.251 35.8345L248.654 37.1741L245.96 37.9345L247.733 40.1793Z" fill="white"/>
<path d="M59.8828 31.7148H59.625L58.8984 30.7773C58.6797 31.1211 58.3555 31.3789 57.9258 31.5508C57.5039 31.7227 57.0352 31.8086 56.5195 31.8086C55.5977 31.8086 54.8672 31.5469 54.3281 31.0234C53.7891 30.4922 53.5195 29.6367 53.5195 28.457V15.0156C53.5195 13.9297 53.7852 13.0938 54.3164 12.5078C54.8555 11.9219 55.6484 11.6289 56.6953 11.6289C58.7266 11.6289 59.7422 12.7578 59.7422 15.0156V18.4961H57.75V14.9922C57.75 14.2422 57.3984 13.8672 56.6953 13.8672C56.0547 13.8672 55.7344 14.2422 55.7344 14.9922V28.457C55.7344 28.8398 55.8164 29.1289 55.9805 29.3242C56.1523 29.5117 56.3828 29.6055 56.6719 29.6055C57.3438 29.6055 57.7031 29.2695 57.75 28.5977V24.3555H56.5781V22.2344H59.8828V31.7148ZM66.9023 31.5977H61.4531V11.8398H66.7734V14.0781H63.6562V20.418H65.7422V22.6445H63.6562V29.3945H66.9023V31.5977ZM71.8477 31.5977H69.6445V14.0781H67.5703V11.8398H73.9102V14.0781H71.8477V31.5977ZM85.2188 31.5977H82.9805L82.6172 28.5508H80.2031C80.0547 29.6289 79.9258 30.6445 79.8164 31.5977H77.6484L80.2266 11.8398H82.793L85.2188 31.5977ZM80.4141 26.5117H82.3828C82 23.168 81.6797 20.1758 81.4219 17.5352C81.1016 20.8164 80.7656 23.8086 80.4141 26.5117ZM130.102 31.5977H128.062V25.832C128.062 22.9648 128.094 20.3906 128.156 18.1094C127.477 23.1562 126.887 27.6523 126.387 31.5977H124.465L122.73 18.1094C122.801 21.9609 122.836 24.5352 122.836 25.832V31.5977H120.797V11.8398H123.738C124.184 16.0586 124.738 20.9258 125.402 26.4414C126.121 20.4961 126.68 15.6289 127.078 11.8398H130.102V31.5977ZM138.727 31.5977H136.488L136.125 28.5508H133.711C133.562 29.6289 133.434 30.6445 133.324 31.5977H131.156L133.734 11.8398H136.301L138.727 31.5977ZM133.922 26.5117H135.891C135.508 23.168 135.188 20.1758 134.93 17.5352C134.609 20.8164 134.273 23.8086 133.922 26.5117ZM143.953 28.2344V15.2266C143.953 14.4609 143.633 14.0781 142.992 14.0781H142.078V29.3945H142.992C143.633 29.3945 143.953 29.0078 143.953 28.2344ZM142.992 31.5977H139.875V11.8398H142.992C144.031 11.8398 144.816 12.1367 145.348 12.7305C145.887 13.3242 146.156 14.1562 146.156 15.2266V28.2344C146.156 30.4766 145.102 31.5977 142.992 31.5977ZM152.016 19.4336V15.8594C152.016 15.2109 151.938 14.7539 151.781 14.4883C151.625 14.2148 151.297 14.0781 150.797 14.0781H149.953V20.6992H150.82C151.242 20.6992 151.547 20.5977 151.734 20.3945C151.922 20.1914 152.016 19.8711 152.016 19.4336ZM154.441 31.5977H152.016C151.547 27.5195 151.164 24.5586 150.867 22.7148H149.953V31.5977H147.727V11.8398H150.797C151.977 11.8398 152.852 12.1172 153.422 12.6719C153.992 13.2266 154.277 14.1367 154.277 15.4023V19.4102C154.277 20.1523 154.172 20.75 153.961 21.2031C153.75 21.6562 153.422 22.0078 152.977 22.2578C153.375 24.4141 153.863 27.5273 154.441 31.5977ZM157.969 31.5977H155.766V11.8398H157.969V31.5977ZM157.395 10.9609H155.473L158.121 7.09375H160.688L157.395 10.9609ZM168.457 31.5977H163.008V11.8398H168.328V14.0781H165.211V20.418H167.297V22.6445H165.211V29.3945H168.457V31.5977ZM177 31.5977H174.621C174.418 30.5039 174.094 28.9414 173.648 26.9102C173.211 24.8789 172.969 23.6992 172.922 23.3711C172.898 23.668 172.793 24.2539 172.605 25.1289C172.426 26.0039 172.195 27.0898 171.914 28.3867C171.633 29.6836 171.41 30.7539 171.246 31.5977H168.984L171.703 21.0391L169.418 11.8398H171.797C171.906 12.5117 172.059 13.3633 172.254 14.3945C172.457 15.418 172.629 16.2969 172.77 17.0312C172.91 17.7656 172.992 18.2539 173.016 18.4961C173.047 18.2305 173.227 17.2734 173.555 15.625C173.891 13.9688 174.129 12.707 174.27 11.8398H176.566L174.246 20.9688L177 31.5977ZM181.688 28.457V24.3555H183.703V28.4336C183.703 29.5898 183.469 30.4414 183 30.9883C182.531 31.5352 181.789 31.8086 180.773 31.8086C178.641 31.8086 177.574 30.6992 177.574 28.4805V15.0391C177.574 12.7656 178.641 11.6289 180.773 11.6289C181.758 11.6289 182.492 11.9062 182.977 12.4609C183.461 13.0078 183.703 13.8516 183.703 14.9922V18.4961H181.688V14.9922C181.688 14.6016 181.617 14.3164 181.477 14.1367C181.336 13.957 181.102 13.8672 180.773 13.8672C180.148 13.8672 179.836 14.2422 179.836 14.9922V28.457C179.836 29.2227 180.148 29.6055 180.773 29.6055C181.094 29.6055 181.324 29.5117 181.465 29.3242C181.613 29.1367 181.688 28.8477 181.688 28.457ZM190.605 31.5977H185.156V11.8398H190.477V14.0781H187.359V20.418H189.445V22.6445H187.359V29.3945H190.605V31.5977ZM196.266 18.7305V15.4023C196.266 14.9492 196.168 14.6172 195.973 14.4062C195.777 14.1875 195.461 14.0781 195.023 14.0781H194.109V20.0547H195.047C195.469 20.0547 195.777 19.9492 195.973 19.7383C196.168 19.5273 196.266 19.1914 196.266 18.7305ZM194.109 31.5977H191.906V11.8398H195.023C196.203 11.8398 197.07 12.1328 197.625 12.7188C198.18 13.2969 198.457 14.1992 198.457 15.4258V18.6602C198.457 19.8945 198.18 20.7969 197.625 21.3672C197.078 21.9297 196.219 22.2109 195.047 22.2109H194.109V31.5977ZM203.648 28.457V24.3555H205.664V28.4336C205.664 29.5898 205.43 30.4414 204.961 30.9883C204.492 31.5352 203.75 31.8086 202.734 31.8086C200.602 31.8086 199.535 30.6992 199.535 28.4805V15.0391C199.535 12.7656 200.602 11.6289 202.734 11.6289C203.719 11.6289 204.453 11.9062 204.938 12.4609C205.422 13.0078 205.664 13.8516 205.664 14.9922V18.4961H203.648V14.9922C203.648 14.6016 203.578 14.3164 203.438 14.1367C203.297 13.957 203.062 13.8672 202.734 13.8672C202.109 13.8672 201.797 14.2422 201.797 14.9922V28.457C201.797 29.2227 202.109 29.6055 202.734 29.6055C203.055 29.6055 203.285 29.5117 203.426 29.3242C203.574 29.1367 203.648 28.8477 203.648 28.457ZM209.367 31.5977H207.164V11.8398H209.367V31.5977ZM210.996 28.457V14.9922C210.996 13.8906 211.258 13.0547 211.781 12.4844C212.312 11.9141 213.102 11.6289 214.148 11.6289C216.258 11.6289 217.312 12.75 217.312 14.9922V28.457C217.312 30.6914 216.258 31.8086 214.148 31.8086C213.102 31.8086 212.312 31.5273 211.781 30.9648C211.258 30.3945 210.996 29.5586 210.996 28.457ZM215.109 28.457V14.9922C215.109 14.2422 214.789 13.8672 214.148 13.8672C213.523 13.8672 213.211 14.2422 213.211 14.9922V28.457C213.211 29.2227 213.523 29.6055 214.148 29.6055C214.789 29.6055 215.109 29.2227 215.109 28.457ZM225.738 31.5977H223.582C223.168 29.707 222.641 27.3242 222 24.4492C221.359 21.5664 220.918 19.5352 220.676 18.3555C220.707 20.1602 220.723 22.8711 220.723 26.4883V31.5977H218.836V11.8398H221.426C222.395 17.2852 223.219 21.7578 223.898 25.2578C223.867 23.75 223.852 21.5195 223.852 18.5664V11.8398H225.738V31.5977ZM234.375 31.5977H232.137L231.773 28.5508H229.359C229.211 29.6289 229.082 30.6445 228.973 31.5977H226.805L229.383 11.8398H231.949L234.375 31.5977ZM229.57 26.5117H231.539C231.156 23.168 230.836 20.1758 230.578 17.5352C230.258 20.8164 229.922 23.8086 229.57 26.5117ZM240.973 31.5977H235.523V11.8398H237.727V29.3945H240.973V31.5977Z" fill="white"/>
<path d="M91.8281 31.5977H89.625V11.8398H95.0742V14.0781H91.8281V20.5117H93.9375V22.7383H91.8281V31.5977ZM100.406 19.4336V15.8594C100.406 15.2109 100.328 14.7539 100.172 14.4883C100.016 14.2148 99.6875 14.0781 99.1875 14.0781H98.3438V20.6992H99.2109C99.6328 20.6992 99.9375 20.5977 100.125 20.3945C100.312 20.1914 100.406 19.8711 100.406 19.4336ZM102.832 31.5977H100.406C99.9375 27.5195 99.5547 24.5586 99.2578 22.7148H98.3438V31.5977H96.1172V11.8398H99.1875C100.367 11.8398 101.242 12.1172 101.812 12.6719C102.383 13.2266 102.668 14.1367 102.668 15.4023V19.4102C102.668 20.1523 102.562 20.75 102.352 21.2031C102.141 21.6562 101.812 22.0078 101.367 22.2578C101.766 24.4141 102.254 27.5273 102.832 31.5977ZM109.559 31.5977H104.109V11.8398H109.43V14.0781H106.312V20.418H108.398V22.6445H106.312V29.3945H109.559V31.5977ZM116.309 31.5977H110.859V11.8398H116.18V14.0781H113.062V20.418H115.148V22.6445H113.062V29.3945H116.309V31.5977Z" fill="#D9C786"/>
</svg>
