<svg width="95" height="55" viewBox="0 0 95 55" fill="none" xmlns="http://www.w3.org/2000/svg">
<path d="M20.1808 53.1461H15.7583V40.6411C15.7583 34.4225 15.8261 28.8394 15.9616 23.8916C14.4875 34.8377 13.2081 44.5892 12.1237 53.1461H7.95541L4.19374 23.8916C4.34624 32.2452 4.42249 37.8284 4.42249 40.6411V53.1461H0V10.2937H6.37956C7.3454 19.4437 8.54841 30 9.98871 41.9628C11.5476 29.0681 12.7591 18.5117 13.6233 10.2937H20.1808V53.1461ZM38.8874 53.1461H34.0328L33.2449 46.5378H28.0091C27.6871 48.8761 27.4076 51.0789 27.1703 53.1461H22.4683L28.0599 10.2937H33.6262L38.8874 53.1461ZM28.4666 42.1153H32.7366C31.9063 34.8631 31.2116 28.3734 30.6524 22.6462C29.9577 29.7628 29.2291 36.2525 28.4666 42.1153ZM50.2232 45.8515V17.6391C50.2232 15.9786 49.5285 15.1483 48.139 15.1483H46.1565V48.3678H48.139C49.5285 48.3678 50.2232 47.529 50.2232 45.8515ZM48.139 53.1461H41.3782V10.2937H48.139C50.3926 10.2937 52.0955 10.9376 53.2478 12.2254C54.4169 13.5131 55.0015 15.3177 55.0015 17.6391V45.8515C55.0015 50.7146 52.714 53.1461 48.139 53.1461ZM67.7098 26.7637V19.0116C67.7098 17.6052 67.5404 16.614 67.2015 16.0379C66.8626 15.4448 66.1509 15.1483 65.0665 15.1483H63.2365V29.5087H65.1173C66.0323 29.5087 66.6931 29.2884 67.0998 28.8478C67.5065 28.4073 67.7098 27.7126 67.7098 26.7637ZM72.971 53.1461H67.7098C66.6931 44.3011 65.8629 37.8792 65.219 33.8803H63.2365V53.1461H58.4073V10.2937H65.0665C67.6251 10.2937 69.5229 10.8952 70.7598 12.0983C71.9967 13.3013 72.6152 15.2754 72.6152 18.0204V26.7128C72.6152 28.3226 72.3865 29.6188 71.929 30.6016C71.4715 31.5843 70.7598 32.3468 69.794 32.8891C70.6581 37.5657 71.7172 44.3181 72.971 53.1461ZM80.6215 53.1461H75.8431V10.2937H80.6215V53.1461ZM79.376 8.38747H75.2077L80.9519 0H86.5181L79.376 8.38747Z" fill="white"/>
<path d="M86.6295 13.3552V11.1211H94.7302V13.3024H93.8125V12.0243H91.2132V12.8796H90.3003V12.0243H87.5328V13.3552H86.6295ZM86.6295 17.9512V16.9758C87.0779 16.8926 87.7186 16.7596 88.5514 16.577C89.3842 16.3977 89.8678 16.2984 90.0024 16.2792C89.8807 16.2695 89.6404 16.2263 89.2817 16.1494C88.9229 16.0758 88.4777 15.9813 87.946 15.866C87.4143 15.7506 86.9754 15.6594 86.6295 15.5921V14.6648L90.9585 15.7795L94.7302 14.8426V15.8179C94.4547 15.8627 94.1056 15.9252 93.6828 16.0053C93.2631 16.0886 92.9028 16.159 92.6017 16.2167C92.3006 16.2743 92.1004 16.308 92.0011 16.3176C92.11 16.3304 92.5024 16.4041 93.1783 16.5386C93.8573 16.6763 94.3746 16.774 94.7302 16.8317V17.7734L90.9873 16.8221L86.6295 17.9512ZM87.9171 20.9664H89.5988V21.7928H87.9268C87.4527 21.7928 87.1036 21.6967 86.8793 21.5045C86.6551 21.3123 86.543 21.008 86.543 20.5916C86.543 19.7172 86.9979 19.2799 87.9075 19.2799H93.4185C94.3506 19.2799 94.8167 19.7172 94.8167 20.5916C94.8167 20.9952 94.703 21.2963 94.4755 21.4949C94.2513 21.6935 93.9054 21.7928 93.4377 21.7928H92.0011V20.9664H93.4377C93.5979 20.9664 93.7148 20.9376 93.7885 20.8799C93.8621 20.8222 93.899 20.7261 93.899 20.5916C93.899 20.3354 93.7452 20.2072 93.4377 20.2072H87.9171C87.6032 20.2072 87.4463 20.3354 87.4463 20.5916C87.4463 20.7229 87.4847 20.8174 87.5616 20.8751C87.6385 20.936 87.757 20.9664 87.9171 20.9664ZM86.6295 25.7161V23.4819H94.7302V25.6632H93.8125V24.3852H91.2132V25.2404H90.3003V24.3852H87.5328V25.7161H86.6295ZM91.905 29.1301H93.2696C93.4553 29.1301 93.5915 29.09 93.678 29.0099C93.7676 28.9299 93.8125 28.8001 93.8125 28.6208V28.246H91.3621V28.6304C91.3621 28.8033 91.4053 28.9299 91.4918 29.0099C91.5783 29.09 91.716 29.1301 91.905 29.1301ZM86.6295 28.246V27.3427H94.7302V28.6208C94.7302 29.1044 94.6101 29.46 94.3698 29.6874C94.1328 29.9148 93.7628 30.0285 93.2599 30.0285H91.9339C91.4278 30.0285 91.0578 29.9148 90.824 29.6874C90.5934 29.4632 90.478 29.1108 90.478 28.6304V28.246H86.6295ZM87.9171 33.2503H89.5988V34.0767H87.9268C87.4527 34.0767 87.1036 33.9806 86.8793 33.7885C86.6551 33.5963 86.543 33.292 86.543 32.8756C86.543 32.0011 86.9979 31.5639 87.9075 31.5639H93.4185C94.3506 31.5639 94.8167 32.0011 94.8167 32.8756C94.8167 33.2792 94.7029 33.5803 94.4755 33.7789C94.2513 33.9774 93.9054 34.0767 93.4377 34.0767H92.0011V33.2503H93.4377C93.5979 33.2503 93.7148 33.2215 93.7885 33.1639C93.8621 33.1062 93.899 33.0101 93.899 32.8756C93.899 32.6193 93.7452 32.4912 93.4377 32.4912H87.9171C87.6032 32.4912 87.4463 32.6193 87.4463 32.8756C87.4463 33.0069 87.4847 33.1014 87.5616 33.159C87.6385 33.2199 87.757 33.2503 87.9171 33.2503ZM86.6295 36.6883V35.7851H94.7302V36.6883H86.6295ZM87.9171 38.4495H93.4377C93.8894 38.4495 94.2321 38.5568 94.4659 38.7714C94.6997 38.9893 94.8167 39.3128 94.8167 39.742C94.8167 40.6068 94.357 41.0392 93.4377 41.0392H87.9171C87.0011 41.0392 86.543 40.6068 86.543 39.742C86.543 39.3128 86.6583 38.9893 86.8889 38.7714C87.1228 38.5568 87.4655 38.4495 87.9171 38.4495ZM87.9171 40.136H93.4377C93.7452 40.136 93.899 40.0046 93.899 39.742C93.899 39.4857 93.7452 39.3576 93.4377 39.3576H87.9171C87.6032 39.3576 87.4463 39.4857 87.4463 39.742C87.4463 40.0046 87.6032 40.136 87.9171 40.136ZM86.6295 45.5871V44.7031C87.4046 44.5333 88.3816 44.3171 89.5603 44.0544C90.7423 43.7918 91.5751 43.6108 92.0588 43.5115C91.3189 43.5243 90.2074 43.5307 88.7243 43.5307H86.6295V42.7572H94.7302V43.819C92.4976 44.2162 90.6638 44.5541 89.2288 44.8328C89.847 44.82 90.7615 44.8136 91.9723 44.8136H94.7302V45.5871H86.6295ZM86.6295 50.2215V49.3038L87.8787 49.1549V48.1651C87.4367 48.1043 87.0203 48.0514 86.6295 48.0066V47.1177L94.7302 48.1747V49.227L86.6295 50.2215ZM88.7147 48.2516V49.0588C90.0857 48.9018 91.3124 48.7705 92.3951 48.6648C91.0498 48.5335 89.823 48.3957 88.7147 48.2516ZM86.6295 54.0199V51.7857H94.7302V52.689H87.5328V54.0199H86.6295Z" fill="#D9C786"/>
</svg>
