<svg width="603" height="76" viewBox="0 0 603 76" fill="none" xmlns="http://www.w3.org/2000/svg">
<mask id="mask0_1023_1286" style="mask-type:alpha" maskUnits="userSpaceOnUse" x="0" y="0" width="603" height="76">
<rect width="603" height="76" fill="#D9D9D9"/>
</mask>
<g mask="url(#mask0_1023_1286)">
<mask id="path-2-outside-1_1023_1286" maskUnits="userSpaceOnUse" x="-9" y="-27" width="620" height="104" fill="black">
<rect fill="white" x="-9" y="-27" width="620" height="104"/>
<path fill-rule="evenodd" clip-rule="evenodd" d="M610 -26H-8V76H-6.90568C6.38871 59.8526 139.165 47.1699 301 47.1699C462.835 47.1699 595.611 59.8526 608.906 76H610V-26Z"/>
</mask>
<path fill-rule="evenodd" clip-rule="evenodd" d="M610 -26H-8V76H-6.90568C6.38871 59.8526 139.165 47.1699 301 47.1699C462.835 47.1699 595.611 59.8526 608.906 76H610V-26Z" fill="#D70321"/>
<path d="M-8 -26V-27H-9V-26H-8ZM610 -26H611V-27H610V-26ZM-8 76H-9V77H-8V76ZM-6.90568 76V77H-6.43368L-6.13367 76.6356L-6.90568 76ZM608.906 76L608.134 76.6356L608.434 77H608.906V76ZM610 76V77H611V76H610ZM-8 -25H610V-27H-8V-25ZM-7 76V-26H-9V76H-7ZM-6.90568 75H-8V77H-6.90568V75ZM-6.13367 76.6356C-4.65882 74.8443 -1.36396 72.9537 3.84468 71.0653C8.99962 69.1963 15.8565 67.3878 24.2563 65.6627C41.0517 62.2134 63.9121 59.1183 91.4384 56.5253C146.485 51.3399 220.105 48.1699 301 48.1699V46.1699C220.06 46.1699 146.375 49.3413 91.2508 54.5341C63.6918 57.1302 40.7507 60.2334 23.854 63.7036C15.4078 65.4382 8.44608 67.2696 3.163 69.185C-2.06638 71.0809 -5.82895 73.1189 -7.67769 75.3644L-6.13367 76.6356ZM301 48.1699C381.895 48.1699 455.515 51.3399 510.562 56.5253C538.088 59.1183 560.948 62.2134 577.744 65.6627C586.144 67.3878 593 69.1963 598.155 71.0653C603.364 72.9537 606.659 74.8443 608.134 76.6356L609.678 75.3644C607.829 73.1189 604.066 71.0809 598.837 69.185C593.554 67.2696 586.592 65.4382 578.146 63.7036C561.249 60.2334 538.308 57.1302 510.749 54.5341C455.625 49.3413 381.94 46.1699 301 46.1699V48.1699ZM610 75H608.906V77H610V75ZM609 -26V76H611V-26H609Z" fill="#D9C786" mask="url(#path-2-outside-1_1023_1286)"/>
</g>
</svg>
