<svg width="371" height="62" viewBox="0 0 371 62" fill="none" xmlns="http://www.w3.org/2000/svg">
<path d="M22.243 54H17.8205V41.495C17.8205 35.2764 17.8883 29.6933 18.0238 24.7455C16.5497 35.6916 15.2703 45.4431 14.1859 54H10.0176L6.25593 24.7455C6.40843 33.0991 6.48468 38.6823 6.48468 41.495V54H2.06219V11.1476H8.44175C9.40759 20.2976 10.6106 30.8539 12.0509 42.8167C13.6098 29.922 14.8213 19.3656 15.6855 11.1476H22.243V54ZM40.9496 54H36.095L35.3071 47.3917H30.0713C29.7493 49.73 29.4698 51.9328 29.2325 54H24.5305L30.1221 11.1476H35.6884L40.9496 54ZM30.5288 42.9692H34.7988C33.9685 35.717 33.2738 29.2273 32.7146 23.5001C32.0199 30.6167 31.2913 37.1064 30.5288 42.9692ZM52.2854 46.7054V18.493C52.2854 16.8325 51.5907 16.0022 50.2012 16.0022H48.2187V49.2217H50.2012C51.5907 49.2217 52.2854 48.3829 52.2854 46.7054ZM50.2012 54H43.4404V11.1476H50.2012C52.4548 11.1476 54.1577 11.7915 55.31 13.0793C56.4791 14.367 57.0637 16.1716 57.0637 18.493V46.7054C57.0637 51.5685 54.7762 54 50.2012 54ZM69.772 27.6176V19.8655C69.772 18.4591 69.6026 17.4679 69.2637 16.8918C68.9248 16.2987 68.2131 16.0022 67.1287 16.0022H65.2987V30.3626H67.1795C68.0945 30.3626 68.7553 30.1423 69.162 29.7017C69.5687 29.2612 69.772 28.5665 69.772 27.6176ZM75.0332 54H69.772C68.7553 45.155 67.9251 38.7331 67.2812 34.7342H65.2987V54H60.4695V11.1476H67.1287C69.6873 11.1476 71.5851 11.7491 72.822 12.9522C74.0589 14.1552 74.6774 16.1293 74.6774 18.8743V27.5667C74.6774 29.1765 74.4487 30.4727 73.9912 31.4555C73.5337 32.4382 72.822 33.2007 71.8562 33.743C72.7203 38.4196 73.7794 45.172 75.0332 54ZM82.6837 54H77.9053V11.1476H82.6837V54ZM81.4382 9.24136H77.2699L83.0141 0.853886H88.5803L81.4382 9.24136Z" fill="white"/>
<path d="M131.594 54H127.172V41.495C127.172 35.2764 127.24 29.6933 127.375 24.7455C125.901 35.6916 124.622 45.4431 123.537 54H119.369L115.607 24.7455C115.76 33.0991 115.836 38.6823 115.836 41.495V54H111.414V11.1476H117.793C118.759 20.2976 119.962 30.8539 121.402 42.8167C122.961 29.922 124.173 19.3656 125.037 11.1476H131.594V54ZM147.073 54H135.254V11.1476H146.794V16.0022H140.033V29.7526H144.557V34.5817H140.033V49.2217H147.073V54ZM161.713 54H149.894V11.1476H161.434V16.0022H154.673V29.7526H159.197V34.5817H154.673V49.2217H161.713V54ZM172.439 54H167.661V16.0022H163.162V11.1476H176.912V16.0022H172.439V54ZM187.028 47.3917V41.2917C187.028 40.3767 186.918 39.6142 186.698 39.0042C186.494 38.3773 186.105 37.6995 185.528 36.9709C185.223 36.5812 184.351 35.5391 182.911 33.8446C181.47 32.1502 180.343 30.7269 179.53 29.5746C178.666 28.3716 178.234 26.567 178.234 24.1609V17.7813C178.234 13.0539 180.504 10.6901 185.046 10.6901C187.401 10.6901 189.095 11.2662 190.129 12.4184C191.162 13.5537 191.679 15.3413 191.679 17.7813V25.5842H187.181V17.8322C187.181 16.3072 186.511 15.5447 185.173 15.5447C184.478 15.5447 183.961 15.7226 183.622 16.0784C183.3 16.4343 183.139 17.0019 183.139 17.7813V24.1101C183.139 25.364 183.41 26.3383 183.953 27.033C184.478 27.7108 185.444 28.8799 186.85 30.5405C188.257 32.1841 189.307 33.4803 190.002 34.4292C190.696 35.412 191.171 36.4117 191.425 37.4284C191.696 38.445 191.832 39.7159 191.832 41.2409V47.3917C191.832 52.1022 189.57 54.4575 185.046 54.4575C180.504 54.4575 178.234 52.1022 178.234 47.3917V38.2925H182.86V47.3917C182.86 48.1033 183.029 48.6625 183.368 49.0692C183.724 49.4758 184.232 49.6792 184.893 49.6792C186.316 49.6792 187.028 48.9167 187.028 47.3917ZM222.128 54H217.706V41.495C217.706 35.2764 217.774 29.6933 217.909 24.7455C216.435 35.6916 215.156 45.4431 214.071 54H209.903L206.141 24.7455C206.294 33.0991 206.37 38.6823 206.37 41.495V54H201.948V11.1476H208.327C209.293 20.2976 210.496 30.8539 211.936 42.8167C213.495 29.922 214.707 19.3656 215.571 11.1476H222.128V54ZM240.835 54H235.98L235.192 47.3917H229.957C229.635 49.73 229.355 51.9328 229.118 54H224.416L230.008 11.1476H235.574L240.835 54ZM230.414 42.9692H234.684C233.854 35.717 233.159 29.2273 232.6 23.5001C231.905 30.6167 231.177 37.1064 230.414 42.9692ZM258.144 54H253.467C252.569 49.8995 251.425 44.7314 250.036 38.4959C248.646 32.2434 247.689 27.8378 247.164 25.2792C247.231 29.1934 247.265 35.0731 247.265 42.9184V54H243.173V11.1476H248.79C250.891 22.9579 252.679 32.6585 254.153 40.2496C254.085 36.9793 254.052 32.1417 254.052 25.7367V11.1476H258.144V54ZM270.42 47.1884V38.2925H274.792V47.1375C274.792 49.6453 274.283 51.4922 273.267 52.6783C272.25 53.8644 270.64 54.4575 268.437 54.4575C263.812 54.4575 261.499 52.0514 261.499 47.2392V18.0863C261.499 13.1555 263.812 10.6901 268.437 10.6901C270.572 10.6901 272.165 11.2916 273.216 12.4947C274.266 13.6808 274.792 15.5108 274.792 17.9847V25.5842H270.42V17.9847C270.42 17.1375 270.267 16.519 269.962 16.1293C269.657 15.7395 269.149 15.5447 268.437 15.5447C267.082 15.5447 266.404 16.358 266.404 17.9847V47.1884C266.404 48.8489 267.082 49.6792 268.437 49.6792C269.132 49.6792 269.632 49.4758 269.937 49.0692C270.259 48.6625 270.42 48.0356 270.42 47.1884ZM291.567 54H286.788V34.5817H282.722V54H277.943V11.1476H282.722V29.8034H286.788V11.1476H291.567V54ZM307.147 54H295.328V11.1476H306.867V16.0022H300.106V29.7526H304.631V34.5817H300.106V49.2217H307.147V54ZM318.178 47.3917V41.2917C318.178 40.3767 318.068 39.6142 317.847 39.0042C317.644 38.3773 317.254 37.6995 316.678 36.9709C316.373 36.5812 315.5 35.5391 314.06 33.8446C312.62 32.1502 311.493 30.7269 310.68 29.5746C309.816 28.3716 309.384 26.567 309.384 24.1609V17.7813C309.384 13.0539 311.654 10.6901 316.195 10.6901C318.55 10.6901 320.245 11.2662 321.279 12.4184C322.312 13.5537 322.829 15.3413 322.829 17.7813V25.5842H318.33V17.8322C318.33 16.3072 317.661 15.5447 316.322 15.5447C315.628 15.5447 315.111 15.7226 314.772 16.0784C314.45 16.4343 314.289 17.0019 314.289 17.7813V24.1101C314.289 25.364 314.56 26.3383 315.102 27.033C315.628 27.7108 316.593 28.8799 318 30.5405C319.406 32.1841 320.457 33.4803 321.151 34.4292C321.846 35.412 322.321 36.4117 322.575 37.4284C322.846 38.445 322.981 39.7159 322.981 41.2409V47.3917C322.981 52.1022 320.719 54.4575 316.195 54.4575C311.654 54.4575 309.384 52.1022 309.384 47.3917V38.2925H314.009V47.3917C314.009 48.1033 314.179 48.6625 314.518 49.0692C314.874 49.4758 315.382 49.6792 316.043 49.6792C317.466 49.6792 318.178 48.9167 318.178 47.3917ZM333.58 54H328.802V16.0022H324.303V11.1476H338.053V16.0022H333.58V54ZM352.287 54H340.468V11.1476H352.007V16.0022H345.246V29.7526H349.771V34.5817H345.246V49.2217H352.287V54ZM364.36 27.6176V19.8655C364.36 18.4591 364.19 17.4679 363.851 16.8918C363.512 16.2987 362.801 16.0022 361.716 16.0022H359.886V30.3626H361.767C362.682 30.3626 363.343 30.1423 363.75 29.7017C364.156 29.2612 364.36 28.5665 364.36 27.6176ZM369.621 54H364.36C363.343 45.155 362.513 38.7331 361.869 34.7342H359.886V54H355.057V11.1476H361.716C364.275 11.1476 366.173 11.7491 367.41 12.9522C368.647 14.1552 369.265 16.1293 369.265 18.8743V27.5667C369.265 29.1765 369.036 30.4727 368.579 31.4555C368.121 32.4382 367.41 33.2007 366.444 33.743C367.308 38.4196 368.367 45.172 369.621 54Z" fill="white"/>
<path d="M88.6919 14.2108L88.6919 11.9767L96.7926 11.9767L96.7926 14.158L95.8749 14.158L95.8749 12.8799L93.2756 12.8799L93.2756 13.7352L92.3627 13.7352L92.3627 12.8799L89.5952 12.8799L89.5952 14.2108L88.6919 14.2108ZM88.6919 18.8068L88.6919 17.8314C89.1403 17.7482 89.781 17.6152 90.6138 17.4326C91.4466 17.2533 91.9302 17.154 92.0648 17.1348C91.9431 17.1251 91.7028 17.0819 91.3441 17.005C90.9853 16.9314 90.5401 16.8369 90.0084 16.7216C89.4767 16.6062 89.0378 16.515 88.6919 16.4477L88.6919 15.5204L93.0209 16.6351L96.7926 15.6982L96.7926 16.6735C96.5171 16.7183 96.168 16.7808 95.7452 16.8609C95.3255 16.9442 94.9652 17.0146 94.6641 17.0723C94.363 17.1299 94.1628 17.1636 94.0635 17.1732C94.1724 17.186 94.5648 17.2597 95.2407 17.3942C95.9197 17.5319 96.437 17.6296 96.7926 17.6873L96.7926 18.629L93.0497 17.6777L88.6919 18.8068ZM89.9795 21.822L91.6612 21.822L91.6612 22.6484L89.9892 22.6484C89.5151 22.6484 89.166 22.5523 88.9417 22.3601C88.7175 22.1679 88.6054 21.8636 88.6054 21.4472C88.6054 20.5728 89.0603 20.1355 89.9699 20.1355L95.4809 20.1355C96.413 20.1355 96.8791 20.5728 96.8791 21.4472C96.8791 21.8508 96.7654 22.1519 96.5379 22.3505C96.3137 22.5491 95.9678 22.6484 95.5001 22.6484L94.0635 22.6484L94.0635 21.822L95.5001 21.822C95.6603 21.822 95.7772 21.7932 95.8509 21.7355C95.9245 21.6778 95.9614 21.5817 95.9614 21.4472C95.9614 21.191 95.8076 21.0628 95.5001 21.0628L89.9795 21.0628C89.6656 21.0628 89.5087 21.191 89.5087 21.4472C89.5087 21.5785 89.5471 21.673 89.624 21.7307C89.7009 21.7916 89.8194 21.822 89.9795 21.822ZM88.6919 26.5717L88.6919 24.3375L96.7926 24.3375L96.7926 26.5188L95.8749 26.5188L95.8749 25.2408L93.2756 25.2408L93.2756 26.096L92.3627 26.096L92.3627 25.2408L89.5952 25.2408L89.5952 26.5717L88.6919 26.5717ZM93.9674 29.9857L95.332 29.9857C95.5177 29.9857 95.6539 29.9456 95.7404 29.8655C95.83 29.7855 95.8749 29.6557 95.8749 29.4764L95.8749 29.1016L93.4245 29.1016L93.4245 29.486C93.4245 29.6589 93.4677 29.7855 93.5542 29.8655C93.6407 29.9456 93.7784 29.9857 93.9674 29.9857ZM88.6919 29.1016L88.6919 28.1983L96.7926 28.1983L96.7926 29.4764C96.7926 29.96 96.6725 30.3156 96.4322 30.543C96.1952 30.7704 95.8252 30.8841 95.3223 30.8841L93.9963 30.8841C93.4902 30.8841 93.1202 30.7704 92.8864 30.543C92.6558 30.3188 92.5404 29.9664 92.5404 29.486L92.5404 29.1016L88.6919 29.1016ZM89.9795 34.1059L91.6612 34.1059L91.6612 34.9323L89.9892 34.9323C89.5151 34.9323 89.166 34.8362 88.9417 34.6441C88.7175 34.4519 88.6054 34.1476 88.6054 33.7312C88.6054 32.8567 89.0603 32.4195 89.9699 32.4195L95.4809 32.4195C96.413 32.4195 96.8791 32.8567 96.8791 33.7312C96.8791 34.1348 96.7653 34.4359 96.5379 34.6345C96.3137 34.833 95.9678 34.9323 95.5001 34.9323L94.0635 34.9323L94.0635 34.1059L95.5001 34.1059C95.6603 34.1059 95.7772 34.0771 95.8509 34.0195C95.9245 33.9618 95.9614 33.8657 95.9614 33.7312C95.9614 33.4749 95.8076 33.3468 95.5001 33.3468L89.9795 33.3468C89.6656 33.3468 89.5087 33.4749 89.5087 33.7312C89.5087 33.8625 89.5471 33.957 89.624 34.0146C89.7009 34.0755 89.8194 34.1059 89.9795 34.1059ZM88.6919 37.5439L88.6919 36.6407L96.7926 36.6407L96.7926 37.5439L88.6919 37.5439ZM89.9795 39.3051L95.5001 39.3051C95.9518 39.3051 96.2945 39.4124 96.5283 39.627C96.7621 39.8449 96.8791 40.1684 96.8791 40.5976C96.8791 41.4624 96.4194 41.8948 95.5001 41.8948L89.9795 41.8948C89.0635 41.8948 88.6054 41.4624 88.6054 40.5976C88.6054 40.1684 88.7207 39.8449 88.9513 39.627C89.1852 39.4124 89.5279 39.3051 89.9795 39.3051ZM89.9795 40.9916L95.5001 40.9916C95.8076 40.9916 95.9614 40.8602 95.9614 40.5976C95.9614 40.3413 95.8076 40.2132 95.5001 40.2132L89.9795 40.2132C89.6656 40.2132 89.5087 40.3413 89.5087 40.5976C89.5087 40.8602 89.6656 40.9916 89.9795 40.9916ZM88.6919 46.4427L88.6919 45.5587C89.467 45.3889 90.444 45.1727 91.6227 44.91C92.8047 44.6474 93.6375 44.4664 94.1212 44.3671C93.3813 44.3799 92.2698 44.3863 90.7867 44.3863L88.6919 44.3863L88.6919 43.6128L96.7926 43.6128L96.7926 44.6746C94.56 45.0718 92.7262 45.4097 91.2912 45.6884C91.9094 45.6756 92.8239 45.6692 94.0347 45.6692L96.7926 45.6692L96.7926 46.4427L88.6919 46.4427ZM88.6919 51.0771L88.6919 50.1594L89.9411 50.0105L89.9411 49.0207C89.4991 48.9599 89.0827 48.907 88.6919 48.8622L88.6919 47.9733L96.7926 49.0303L96.7926 50.0826L88.6919 51.0771ZM90.7771 49.1072L90.7771 49.9144C92.1481 49.7574 93.3748 49.6261 94.4575 49.5204C93.1122 49.3891 91.8854 49.2513 90.7771 49.1072ZM88.6919 54.8755L88.6919 52.6413L96.7926 52.6413L96.7926 53.5446L89.5952 53.5446L89.5952 54.8755L88.6919 54.8755Z" fill="#D9C786"/>
</svg>
