<svg width="17" height="10" viewBox="0 0 17 10" fill="none" xmlns="http://www.w3.org/2000/svg">
<path fill-rule="evenodd" clip-rule="evenodd" d="M0.928735 0.807396C0.986792 0.749192 1.05576 0.703013 1.13169 0.671505C1.20762 0.639997 1.28903 0.623779 1.37123 0.623779C1.45344 0.623779 1.53485 0.639997 1.61078 0.671505C1.68671 0.703013 1.75568 0.749192 1.81373 0.807396L8.87123 7.86615L15.9287 0.807396C15.9868 0.749286 16.0558 0.703191 16.1318 0.671742C16.2077 0.640293 16.2891 0.624107 16.3712 0.624107C16.4534 0.624107 16.5348 0.640293 16.6107 0.671742C16.6866 0.703191 16.7556 0.749286 16.8137 0.807396C16.8718 0.865506 16.9179 0.934493 16.9494 1.01042C16.9808 1.08634 16.997 1.16772 16.997 1.2499C16.997 1.33208 16.9808 1.41345 16.9494 1.48938C16.9179 1.5653 16.8718 1.63429 16.8137 1.6924L9.31374 9.1924C9.25568 9.2506 9.18671 9.29678 9.11078 9.32829C9.03485 9.3598 8.95344 9.37601 8.87123 9.37601C8.78903 9.37601 8.70762 9.3598 8.63169 9.32829C8.55576 9.29678 8.48679 9.2506 8.42873 9.1924L0.928735 1.6924C0.87053 1.63434 0.824352 1.56537 0.792844 1.48944C0.761336 1.41351 0.745117 1.33211 0.745117 1.2499C0.745117 1.16769 0.761336 1.08629 0.792844 1.01035C0.824352 0.934423 0.87053 0.865453 0.928735 0.807396V0.807396Z" fill="black"/>
</svg>
