<svg width="94" height="96" viewBox="0 0 94 96" fill="none" xmlns="http://www.w3.org/2000/svg">
<g filter="url(#filter0_d_225_12888)">
<circle cx="46.0002" cy="46.1701" r="45.2814" fill="url(#paint0_linear_225_12888)" style=""/>
<path d="M40.2142 29.4819H38.9858L38.7864 27.8098H37.4616C37.3801 28.4015 37.3094 28.9589 37.2494 29.4819H36.0596L37.4744 18.6388H38.8829L40.2142 29.4819ZM37.5773 26.6908H38.6578C38.4477 24.8557 38.2719 23.2136 38.1304 21.7644C37.9546 23.5652 37.7703 25.2073 37.5773 26.6908ZM43.0954 22.8449V20.4846C43.0954 20.2617 43.0568 20.103 42.9796 20.0087C42.9024 19.9144 42.7738 19.8672 42.5937 19.8672H42.0535V23.4108H42.6066C42.7781 23.4108 42.9024 23.3658 42.9796 23.2758C43.0568 23.1857 43.0954 23.0421 43.0954 22.8449ZM43.1211 27.6362V25.1087C43.1211 24.8814 43.0825 24.7207 43.0053 24.6263C42.9281 24.5277 42.7952 24.4784 42.6066 24.4784H42.0535V28.2729H42.5937C42.9453 28.2729 43.1211 28.0606 43.1211 27.6362ZM42.5937 29.4819H40.8444V18.6388H42.5937C43.1725 18.6388 43.5884 18.7911 43.8414 19.0955C44.0986 19.3956 44.2273 19.8715 44.2273 20.5232V22.7227C44.2273 23.0185 44.1758 23.2693 44.0729 23.4751C43.9743 23.6767 43.8328 23.8096 43.6484 23.8739C43.8542 23.921 44.0236 24.0411 44.1565 24.234C44.2937 24.427 44.3623 24.6842 44.3623 25.0058V27.649C44.3623 28.2793 44.2144 28.7423 43.9186 29.0382C43.627 29.334 43.1854 29.4819 42.5937 29.4819ZM45.0698 27.7584V20.3689C45.0698 19.7643 45.2134 19.3056 45.5006 18.9926C45.7922 18.6796 46.2252 18.5231 46.7998 18.5231C47.9574 18.5231 48.5362 19.1383 48.5362 20.3689V27.7584C48.5362 28.9846 47.9574 29.5977 46.7998 29.5977C46.2252 29.5977 45.7922 29.4433 45.5006 29.1346C45.2134 28.8217 45.0698 28.3629 45.0698 27.7584ZM47.3271 27.7584V20.3689C47.3271 19.9573 47.1513 19.7515 46.7998 19.7515C46.4568 19.7515 46.2853 19.9573 46.2853 20.3689V27.7584C46.2853 28.1785 46.4568 28.3886 46.7998 28.3886C47.1513 28.3886 47.3271 28.1785 47.3271 27.7584ZM51.6103 27.7584V18.6388H52.8194V27.7584C52.8194 28.9846 52.2449 29.5977 51.0958 29.5977C49.9468 29.5977 49.3723 28.9846 49.3723 27.7584V18.6388H50.5813V27.7584C50.5813 28.1785 50.7528 28.3886 51.0958 28.3886C51.4388 28.3886 51.6103 28.1785 51.6103 27.7584ZM55.7328 29.4819H54.5237V19.8672H53.3854V18.6388H56.8647V19.8672H55.7328V29.4819Z" fill="white" style="fill:white;fill-opacity:1;"/>
<path d="M12.8388 54.8254H11.0477L10.757 52.3873H8.82529C8.70651 53.25 8.60335 54.0627 8.51583 54.8254H6.78101L8.84404 39.015H10.8977L12.8388 54.8254ZM8.99408 50.7556H10.5695C10.2632 48.0799 10.0068 45.6855 9.80054 43.5725C9.54422 46.1981 9.2754 48.5925 8.99408 50.7556ZM18.1183 54.8254H13.7578V39.015H15.5208V53.0624H18.1183V54.8254ZM23.3509 54.8254H18.9904V39.015H20.7534V53.0624H23.3509V54.8254ZM30.3184 44.529V41.8658C30.3184 41.5032 30.2402 41.2375 30.0839 41.0687C29.9277 40.8936 29.6745 40.8061 29.3244 40.8061H28.5929V45.5886H29.3431C29.6807 45.5886 29.9277 45.5042 30.0839 45.3354C30.2402 45.1666 30.3184 44.8978 30.3184 44.529ZM28.5929 54.8254H26.83V39.015H29.3244C30.2684 39.015 30.9623 39.2495 31.4062 39.7183C31.85 40.181 32.072 40.903 32.072 41.8845V44.4727C32.072 45.4605 31.85 46.1825 31.4062 46.6389C30.9685 47.089 30.2809 47.3141 29.3431 47.3141H28.5929V54.8254ZM32.9347 52.3122V41.5376C32.9347 40.6561 33.1441 39.9872 33.563 39.5308C33.9881 39.0744 34.6195 38.8462 35.4572 38.8462C37.1452 38.8462 37.9891 39.7433 37.9891 41.5376V52.3122C37.9891 54.1002 37.1452 54.9942 35.4572 54.9942C34.6195 54.9942 33.9881 54.7691 33.563 54.319C33.1441 53.8626 32.9347 53.1937 32.9347 52.3122ZM36.2262 52.3122V41.5376C36.2262 40.9374 35.9698 40.6373 35.4572 40.6373C34.9571 40.6373 34.707 40.9374 34.707 41.5376V52.3122C34.707 52.9249 34.9571 53.2312 35.4572 53.2312C35.9698 53.2312 36.2262 52.9249 36.2262 52.3122ZM41.0649 54.8254H39.302V39.015H41.0649V54.8254ZM47.9573 54.8254H46.2319C45.9006 53.3125 45.4786 51.4058 44.9659 49.1052C44.4533 46.7983 44.1001 45.1729 43.9063 44.2289C43.9313 45.673 43.9438 47.8423 43.9438 50.7368V54.8254H42.434V39.015H44.5064C45.2816 43.3724 45.9412 46.9515 46.4851 49.7522C46.4601 48.5456 46.4476 46.7608 46.4476 44.3977V39.015H47.9573V54.8254ZM52.2335 54.8254H50.4705V40.8061H48.8107V39.015H53.8839V40.8061H52.2335V54.8254ZM57.6161 52.3873V50.1367C57.6161 49.7991 57.5755 49.5178 57.4942 49.2927C57.4192 49.0614 57.2754 48.8113 57.0628 48.5425C56.9503 48.3987 56.6283 48.0142 56.097 47.3891C55.5656 46.7639 55.1498 46.2388 54.8498 45.8137C54.5309 45.3698 54.3715 44.704 54.3715 43.8163V41.4625C54.3715 39.7183 55.2092 38.8462 56.8847 38.8462C57.7536 38.8462 58.3788 39.0588 58.7602 39.4839C59.1415 39.9028 59.3322 40.5623 59.3322 41.4625V44.3414H57.6724V41.4813C57.6724 40.9187 57.4254 40.6373 56.9316 40.6373C56.6752 40.6373 56.4846 40.703 56.3595 40.8343C56.2407 40.9655 56.1814 41.175 56.1814 41.4625V43.7975C56.1814 44.2601 56.2814 44.6196 56.4814 44.8759C56.6752 45.126 57.0316 45.5574 57.5505 46.17C58.0693 46.7764 58.4569 47.2547 58.7133 47.6048C58.9696 47.9674 59.1446 48.3362 59.2384 48.7113C59.3384 49.0864 59.3884 49.5553 59.3884 50.1179V52.3873C59.3884 54.1252 58.5538 54.9942 56.8847 54.9942C55.2092 54.9942 54.3715 54.1252 54.3715 52.3873V49.0301H56.0782V52.3873C56.0782 52.6498 56.1407 52.8561 56.2658 53.0062C56.397 53.1562 56.5846 53.2312 56.8284 53.2312C57.3535 53.2312 57.6161 52.9499 57.6161 52.3873ZM67.5374 54.8254H63.1769V39.015H67.4343V40.8061H64.9399V45.8793H66.6091V47.661H64.9399V53.0624H67.5374V54.8254ZM74.1298 54.8254H72.3387L72.048 52.3873H70.1162C69.9974 53.25 69.8943 54.0627 69.8068 54.8254H68.0719L70.135 39.015H72.1886L74.1298 54.8254ZM70.285 50.7556H71.8604C71.5541 48.0799 71.2978 45.6855 71.0915 43.5725C70.8352 46.1981 70.5663 48.5925 70.285 50.7556ZM77.8901 52.3873V50.1367C77.8901 49.7991 77.8495 49.5178 77.7682 49.2927C77.6932 49.0614 77.5494 48.8113 77.3369 48.5425C77.2243 48.3987 76.9024 48.0142 76.371 47.3891C75.8396 46.7639 75.4239 46.2388 75.1238 45.8137C74.8049 45.3698 74.6455 44.704 74.6455 43.8163V41.4625C74.6455 39.7183 75.4832 38.8462 77.1587 38.8462C78.0277 38.8462 78.6528 39.0588 79.0342 39.4839C79.4155 39.9028 79.6062 40.5623 79.6062 41.4625V44.3414H77.9464V41.4813C77.9464 40.9187 77.6995 40.6373 77.2056 40.6373C76.9493 40.6373 76.7586 40.703 76.6335 40.8343C76.5148 40.9655 76.4554 41.175 76.4554 41.4625V43.7975C76.4554 44.2601 76.5554 44.6196 76.7555 44.8759C76.9493 45.126 77.3056 45.5574 77.8245 46.17C78.3434 46.7764 78.731 47.2547 78.9873 47.6048C79.2436 47.9674 79.4186 48.3362 79.5124 48.7113C79.6124 49.0864 79.6625 49.5553 79.6625 50.1179V52.3873C79.6625 54.1252 78.8279 54.9942 77.1587 54.9942C75.4832 54.9942 74.6455 54.1252 74.6455 52.3873V49.0301H76.3522V52.3873C76.3522 52.6498 76.4147 52.8561 76.5398 53.0062C76.6711 53.1562 76.8586 53.2312 77.1024 53.2312C77.6276 53.2312 77.8901 52.9499 77.8901 52.3873ZM83.5729 54.8254H81.8099V40.8061H80.1501V39.015H85.2233V40.8061H83.5729V54.8254Z" fill="white" style="fill:white;fill-opacity:1;"/>
<line x1="6.50684" y1="59.3601" x2="85.4936" y2="59.3601" stroke="white" style="stroke:white;stroke-opacity:1;" stroke-width="0.98"/>
<line x1="6.50684" y1="34.4348" x2="85.4936" y2="34.4348" stroke="white" style="stroke:white;stroke-opacity:1;" stroke-width="0.98"/>
<g clip-path="url(#clip0_225_12888)">
<path d="M43.8521 76.4204C43.464 75.4149 42.4821 74.5917 41.3472 74.4918C40.2124 74.3918 39.0187 75.1327 38.8129 76.1852C38.6013 77.2789 39.5127 78.3902 40.6593 78.6666C41.8059 78.9429 43.0524 78.496 43.8874 77.7081" fill="white" style="fill:white;fill-opacity:1;"/>
<path d="M44.2931 76.2973C43.8991 75.3153 43.1347 74.5392 42.1292 74.1922C41.1238 73.8453 40.0477 74.0629 39.2422 74.7038C38.4601 75.3212 38.1073 76.3678 38.4778 77.3086C38.8541 78.273 39.7537 78.9903 40.7768 79.155C42.0352 79.3549 43.2935 78.8845 44.2166 78.0319C44.6518 77.632 43.9991 76.9852 43.5698 77.3851C42.4644 78.4023 40.4005 78.7786 39.4891 77.2969C38.6542 75.9327 40.2476 74.6979 41.5648 74.986C42.3821 75.1624 43.0994 75.7681 43.4111 76.5442C43.5052 76.7736 43.7168 76.9382 43.9756 76.8676C44.1931 76.8088 44.3872 76.5325 44.299 76.3032L44.2931 76.2973Z" fill="#231F20" style="fill:#231F20;fill:color(display-p3 0.1373 0.1216 0.1255);fill-opacity:1;"/>
<path d="M45.6574 75.797C46.6276 75.1914 47.292 74.033 47.1686 72.8629C47.0451 71.6928 46.0278 70.6344 44.8871 70.6462C43.7052 70.6579 42.7233 71.8163 42.6645 73.0334C42.6057 74.2506 43.3289 75.4266 44.3168 76.1087" fill="white" style="fill:white;fill-opacity:1;"/>
<path d="M45.9041 76.2146C46.8684 75.5972 47.5388 74.5858 47.6505 73.4451C47.7622 72.3632 47.2565 71.3106 46.3922 70.6697C45.5278 70.0288 44.3518 70.0112 43.4757 70.6462C42.5996 71.2812 42.1233 72.3102 42.188 73.3686C42.2703 74.6622 43.0347 75.7912 44.0754 76.5321C44.2871 76.685 44.6105 76.5674 44.734 76.3616C44.8751 76.1205 44.7752 75.8559 44.5635 75.703C43.3228 74.8269 42.5584 72.9276 43.752 71.6811C44.246 71.1636 44.9692 70.9696 45.6219 71.3224C46.2746 71.6752 46.6979 72.3867 46.7097 73.1217C46.7214 74.039 46.1864 74.9033 45.422 75.3914C44.8986 75.7265 45.3867 76.5615 45.91 76.2204L45.9041 76.2146Z" fill="#231F20" style="fill:#231F20;fill:color(display-p3 0.1373 0.1216 0.1255);fill-opacity:1;"/>
<path d="M45.9039 76.1209C46.292 75.1272 47.274 74.3098 48.4088 74.2158C49.5437 74.1217 50.7373 74.8508 50.9431 75.8916C51.1548 76.9735 50.2434 78.0672 49.0968 78.3435C47.9502 78.6199 46.7036 78.173 45.8687 77.3968" fill="white" style="fill:white;fill-opacity:1;"/>
<path d="M46.3449 76.2385C46.8976 74.8802 48.6557 74.1628 49.8905 75.0801C50.4138 75.4682 50.6667 76.1091 50.4079 76.7324C50.1198 77.4145 49.4201 77.8672 48.7027 77.9495C47.7913 78.0554 46.8564 77.6791 46.192 77.0675C45.7569 76.6736 45.1101 77.3145 45.5452 77.7143C46.3507 78.4493 47.4385 78.9256 48.544 78.8727C49.5789 78.8257 50.5726 78.2906 51.1018 77.3792C51.6251 76.4737 51.4899 75.38 50.7549 74.6273C50.0199 73.8747 48.9732 73.616 47.9913 73.81C46.8329 74.0393 45.9039 74.9213 45.4687 75.9915C45.3747 76.2208 45.5687 76.4913 45.7863 76.5501C46.045 76.6207 46.2567 76.4619 46.3449 76.2326V76.2385Z" fill="#231F20" style="fill:#231F20;fill:color(display-p3 0.1373 0.1216 0.1255);fill-opacity:1;"/>
<path d="M45.2869 79.0844C45.2399 80.1487 45.3516 81.6775 46.1866 82.4242C47.0215 83.171 48.4033 83.2709 49.1854 82.5477C49.9968 81.7951 49.9439 80.3721 49.203 79.4842C48.468 78.5963 47.2156 78.2259 46.0925 78.367" fill="white" style="fill:white;fill-opacity:1;"/>
<path d="M44.8339 79.0843C44.7928 80.0662 44.8692 81.1129 45.3161 82.0007C45.7747 82.9239 46.7743 83.4707 47.7916 83.4884C48.8088 83.506 49.7908 82.8945 50.1142 81.8773C50.4258 80.8894 50.1083 79.7605 49.4027 79.0196C48.5736 78.1435 47.2741 77.7671 46.0923 77.9083C45.8512 77.9377 45.6395 78.0964 45.6395 78.361C45.6395 78.5845 45.8453 78.8432 46.0923 78.8138C46.9155 78.7197 47.7916 78.8785 48.4619 79.39C49.0617 79.8428 49.4027 80.6013 49.3145 81.3128C49.2263 82.0243 48.6736 82.5417 47.9621 82.5829C47.2506 82.624 46.498 82.283 46.1452 81.6479C45.7336 80.9012 45.7042 79.9369 45.7336 79.0901C45.7571 78.508 44.8516 78.508 44.8281 79.0901L44.8339 79.0843Z" fill="#231F20" style="fill:#231F20;fill:color(display-p3 0.1373 0.1216 0.1255);fill-opacity:1;"/>
<path d="M45.11 78.9075C45.2453 80.3658 45.2511 81.7123 44.4809 82.5531C43.7106 83.394 42.2935 83.6115 41.3939 82.9177C40.4589 82.1944 40.3355 80.7068 40.9881 79.719C41.6408 78.7311 42.8874 78.249 44.0693 78.3078" fill="white" style="fill:white;fill-opacity:1;"/>
<path d="M44.6339 78.9079C44.7162 79.8075 44.822 80.8189 44.4751 81.6774C44.1987 82.3594 43.5225 82.8122 42.7993 82.8534C42.0761 82.8945 41.4116 82.5182 41.1705 81.8244C40.9353 81.1423 41.0471 80.3544 41.5233 79.784C42.1407 79.049 43.1227 78.7432 44.0635 78.7785C44.675 78.802 44.675 77.8554 44.0635 77.8318C42.9698 77.7848 41.835 78.1435 41.0353 78.9138C40.2356 79.684 39.9534 80.7424 40.1709 81.7832C40.3885 82.8004 41.1941 83.6119 42.2289 83.7648C43.2638 83.9176 44.4104 83.4825 45.0396 82.5946C45.7805 81.5539 45.6805 80.1133 45.5747 78.9079C45.5511 78.655 45.3747 78.4316 45.0984 78.4316C44.8573 78.4316 44.6045 78.6492 44.6221 78.9079H44.6339Z" fill="#231F20" style="fill:#231F20;fill:color(display-p3 0.1373 0.1216 0.1255);fill-opacity:1;"/>
<path d="M44.5103 75.3679L44.8454 72.5808L45.2864 75.3679H44.5103Z" fill="#231F20" style="fill:#231F20;fill:color(display-p3 0.1373 0.1216 0.1255);fill-opacity:1;"/>
<path d="M42.9758 77.3556L40.2827 76.5559L43.1051 76.5912L42.9758 77.3556Z" fill="#231F20" style="fill:#231F20;fill:color(display-p3 0.1373 0.1216 0.1255);fill-opacity:1;"/>
<path d="M46.9038 76.4265L49.6674 75.9209L47.1331 77.1615L46.9038 76.4265Z" fill="#231F20" style="fill:#231F20;fill:color(display-p3 0.1373 0.1216 0.1255);fill-opacity:1;"/>
<path d="M46.5742 79.008L48.2735 81.2424L46.0156 79.543L46.5742 79.008Z" fill="#231F20" style="fill:#231F20;fill:color(display-p3 0.1373 0.1216 0.1255);fill-opacity:1;"/>
<path d="M44.1165 79.4959L42.2349 81.5833L43.4814 79.049L44.1165 79.4959Z" fill="#231F20" style="fill:#231F20;fill:color(display-p3 0.1373 0.1216 0.1255);fill-opacity:1;"/>
<path d="M44.9747 79.8958C46.2152 79.8958 47.2208 78.8322 47.2208 77.5203C47.2208 76.2083 46.2152 75.1448 44.9747 75.1448C43.7342 75.1448 42.7285 76.2083 42.7285 77.5203C42.7285 78.8322 43.7342 79.8958 44.9747 79.8958Z" fill="#FBCD36" style="fill:#FBCD36;fill:color(display-p3 0.9843 0.8039 0.2118);fill-opacity:1;"/>
<path d="M44.9748 80.2132C43.5636 80.2132 42.4111 79.0078 42.4111 77.5201C42.4111 76.0325 43.5636 74.8271 44.9748 74.8271C46.386 74.8271 47.5385 76.0325 47.5385 77.5201C47.5385 79.0078 46.386 80.2132 44.9748 80.2132ZM44.9748 75.4621C43.9105 75.4621 43.0403 76.3853 43.0403 77.5201C43.0403 78.655 43.9047 79.5781 44.9748 79.5781C46.045 79.5781 46.9093 78.655 46.9093 77.5201C46.9093 76.3853 46.045 75.4621 44.9748 75.4621Z" fill="#231F20" style="fill:#231F20;fill:color(display-p3 0.1373 0.1216 0.1255);fill-opacity:1;"/>
</g>
</g>
<defs>
<filter id="filter0_d_225_12888" x="0.71875" y="0.888672" width="92.563" height="94.5629" filterUnits="userSpaceOnUse" color-interpolation-filters="sRGB">
<feFlood flood-opacity="0" result="BackgroundImageFix"/>
<feColorMatrix in="SourceAlpha" type="matrix" values="0 0 0 0 0 0 0 0 0 0 0 0 0 0 0 0 0 0 127 0" result="hardAlpha"/>
<feOffset dx="1" dy="3"/>
<feGaussianBlur stdDeviation="0.5"/>
<feComposite in2="hardAlpha" operator="out"/>
<feColorMatrix type="matrix" values="0 0 0 0 0 0 0 0 0 0 0 0 0 0 0 0 0 0 0.25 0"/>
<feBlend mode="normal" in2="BackgroundImageFix" result="effect1_dropShadow_225_12888"/>
<feBlend mode="normal" in="SourceGraphic" in2="effect1_dropShadow_225_12888" result="shape"/>
</filter>
<linearGradient id="paint0_linear_225_12888" x1="0.718747" y1="46.1748" x2="178.064" y2="158.043" gradientUnits="userSpaceOnUse">
<stop stop-color="#DDC081" style="stop-color:#DDC081;stop-color:color(display-p3 0.8667 0.7529 0.5059);stop-opacity:1;"/>
<stop offset="0.25" stop-color="#BF911F" style="stop-color:#BF911F;stop-color:color(display-p3 0.7490 0.5686 0.1216);stop-opacity:1;"/>
<stop offset="0.5" stop-color="#D9B975" style="stop-color:#D9B975;stop-color:color(display-p3 0.8510 0.7255 0.4588);stop-opacity:1;"/>
<stop offset="0.75" stop-color="#C59831" style="stop-color:#C59831;stop-color:color(display-p3 0.7725 0.5961 0.1922);stop-opacity:1;"/>
<stop offset="1" stop-color="#D7B56D" style="stop-color:#D7B56D;stop-color:color(display-p3 0.8431 0.7098 0.4275);stop-opacity:1;"/>
</linearGradient>
<clipPath id="clip0_225_12888">
<rect width="13.083" height="13.624" fill="white" style="fill:white;fill-opacity:1;" transform="translate(38.3306 70.1761)"/>
</clipPath>
</defs>
</svg>
