<svg width="116" height="105" viewBox="0 0 116 105" fill="none" xmlns="http://www.w3.org/2000/svg">
<g clip-path="url(#clip0_173_115107)">
<path d="M27.5598 32.0421C31.2718 30.7301 35.5278 26.8581 35.7358 22.9381C35.8478 20.9381 35.3678 18.8101 36.2318 17.0021C37.2238 14.9541 39.5598 14.0421 41.5438 12.9221C45.8318 10.5061 49.1278 6.37814 50.5358 1.65814C52.0398 6.89014 50.5358 12.8741 46.7278 16.7621C48.3118 16.3781 50.0878 17.3861 50.6638 18.9221C51.2398 20.4421 50.6638 22.3141 49.3838 23.3221C48.1038 24.3301 46.2318 24.4901 44.7438 23.8181C47.5598 24.8261 48.7918 28.7621 47.0798 31.1941C45.3518 33.6261 41.2238 33.7701 39.3518 31.4501C40.1038 32.7621 39.0158 34.5061 37.5758 34.9541C36.1358 35.4021 34.5838 34.9381 33.2078 34.3461C31.8318 33.7541 27.0958 32.8261 25.5918 32.7621L27.5438 32.0581L27.5598 32.0421Z" fill="#F99D26" style="fill:#F99D26;fill:color(display-p3 0.9765 0.6157 0.1490);fill-opacity:1;"/>
<path d="M27.7679 32.8263C30.7599 31.7063 33.5119 29.6423 35.2079 26.9063C36.0079 25.6103 36.4879 24.1863 36.5519 22.6663C36.6319 20.6023 36.0559 18.2503 37.4959 16.5223C38.5359 15.2583 40.1679 14.5863 41.5759 13.8183C43.1599 12.9543 44.6319 11.8983 45.9279 10.6503C48.4559 8.23428 50.2799 5.19428 51.3039 1.85028H49.7199C51.0799 6.90628 49.7199 12.3463 46.1199 16.1543C45.5279 16.7783 46.1199 17.6583 46.9199 17.5143C49.0639 17.1623 50.5519 19.3223 49.8479 21.2583C49.0959 23.3223 46.7599 23.6903 44.9519 22.9863C43.9599 22.6023 43.5599 24.1703 44.5199 24.5703C46.8239 25.5143 47.9119 28.8743 46.2639 30.8743C44.6639 32.8103 41.5119 32.6343 39.9119 30.8423C39.2399 30.0903 38.2799 31.0503 38.6319 31.8343C39.1279 32.9863 37.9599 33.9943 36.9679 34.2183C36.0879 34.4103 35.1919 34.1863 34.3599 33.8983C33.3999 33.5783 32.5039 33.2103 31.5119 32.9543C29.5919 32.4743 27.5759 32.0263 25.5759 31.9143L25.7999 33.5143L27.7519 32.8103C28.7279 32.4583 28.3119 30.8743 27.3199 31.2263L25.3679 31.9303C24.5039 32.2503 24.6319 33.4823 25.5919 33.5303C28.6959 33.7063 31.4799 34.7783 34.4239 35.6103C36.0399 36.0583 37.9279 36.0903 39.2239 34.8583C40.3439 33.8023 40.6639 32.3783 40.0559 30.9863L38.7759 31.9783C41.0959 34.5863 45.7679 34.5223 47.7839 31.5463C49.8479 28.5223 48.1999 24.2983 44.9679 22.9703L44.5359 24.5543C47.5439 25.7383 51.1279 24.2023 51.6559 20.8263C52.1199 17.7863 49.4319 15.4343 46.5199 15.9303L47.3199 17.2903C51.3199 13.0663 52.8559 7.01828 51.3359 1.38628C51.1279 0.586277 49.9919 0.634277 49.7519 1.38628C48.7119 4.76228 46.7599 7.78628 44.0879 10.1063C41.7519 12.1383 38.3919 12.9863 36.3599 15.3383C34.0879 17.9303 35.5759 21.1143 34.7119 24.0903C33.7679 27.4023 30.4719 30.0423 27.3519 31.2103C26.3759 31.5783 26.7919 33.1623 27.7839 32.7943L27.7679 32.8263Z" fill="#231F20" style="fill:#231F20;fill:color(display-p3 0.1373 0.1216 0.1255);fill-opacity:1;"/>
<path d="M35.5757 28.6822C35.5757 28.6822 37.2397 27.4822 37.7357 24.3142C38.2317 21.1462 37.4317 19.4982 38.1197 17.9942C38.8077 16.4902 40.5997 15.5942 42.7117 14.3142C44.8237 13.0502 46.1357 11.0662 46.5997 11.5302C47.0637 11.9942 46.2797 13.3542 45.0957 14.2502C43.9277 15.1302 41.4797 16.2982 40.3757 17.0982C39.2717 17.8982 39.0797 18.6982 38.8877 20.8102C38.6797 22.9382 39.1277 24.2502 38.1677 26.0262C37.2077 27.8022 35.5757 28.6822 35.5757 28.6822Z" fill="white" style="fill:white;fill-opacity:1;"/>
<path d="M82.5037 80.8102C82.5037 80.8102 79.2716 88.6662 76.2636 89.5942C73.2556 90.5222 65.8636 86.3622 60.0876 83.5782C54.3116 80.8102 49.2236 78.2662 48.5356 76.1862C47.8476 74.1062 49.4636 64.8582 49.4636 64.8582L44.0236 61.3862C44.0236 61.3862 41.3676 77.1142 42.5196 80.1062C43.6716 83.1142 52.6956 87.0342 57.7836 89.8182C62.8716 92.6022 73.0477 97.9142 76.9677 97.9142C80.9037 97.9142 88.6477 84.2822 88.6477 84.2822L82.5196 80.8102H82.5037Z" fill="white" style="fill:white;fill-opacity:1;"/>
<path d="M81.1599 80.4419C81.3679 79.9299 81.0479 80.6979 80.9679 80.8579C80.7119 81.4339 80.4399 82.0099 80.1519 82.5699C79.4319 84.0099 78.6319 85.4659 77.6239 86.7139C76.7279 87.8339 75.9439 88.4739 74.4719 88.2659C72.5199 87.9779 70.6159 87.0979 68.8399 86.2979C64.3279 84.2499 59.8319 82.0419 55.4479 79.7379C53.7199 78.8259 51.6879 77.8659 50.3279 76.4259C49.5279 75.5779 49.7039 74.4899 49.7679 73.3859C49.9119 70.6499 50.3119 67.9139 50.7759 65.2259C50.8879 64.5859 50.6959 64.0099 50.1359 63.6579C48.3279 62.5059 46.5199 61.3539 44.6959 60.1859C43.9919 59.7379 42.7919 60.1379 42.6479 61.0179C41.9439 65.2419 41.3359 69.4979 40.9839 73.7699C40.8079 75.8499 40.4719 78.3299 41.0959 80.3619C41.9119 82.9859 45.1759 84.6659 47.3679 85.9299C50.5679 87.7699 53.9279 89.3379 57.1759 91.0979C60.4239 92.8579 63.4479 94.4419 66.6639 95.9299C69.4959 97.2419 72.5039 98.6819 75.6239 99.1779C77.9599 99.5459 79.6079 98.5059 81.2399 96.9059C84.7119 93.5299 87.4159 89.1619 89.7999 84.9699C90.1679 84.3299 89.9599 83.4339 89.3039 83.0659C87.2559 81.9139 85.2239 80.7619 83.1759 79.5939C81.6079 78.7139 80.2159 81.1139 81.7679 81.9939C83.8159 83.1459 85.8479 84.2979 87.8959 85.4659L87.3999 83.5619C85.5119 86.8739 83.4319 90.1379 80.9839 93.0659C80.0079 94.2339 78.3919 96.3459 76.9199 96.5059C75.9919 96.6179 74.8879 96.1699 74.0079 95.8979C72.3759 95.3859 70.7919 94.7299 69.2399 94.0419C63.2399 91.3699 57.4799 88.1539 51.6719 85.0979C50.1519 84.2979 48.6319 83.4659 47.1599 82.5539C46.1039 81.8819 44.8079 81.1139 44.0559 80.0739C43.1759 78.8579 43.5599 76.6179 43.6399 75.1459C43.9119 70.6499 44.5519 66.1699 45.3039 61.7379L43.2559 62.5699C45.0639 63.7219 46.8719 64.8739 48.6959 66.0419L48.0559 64.4739C47.5599 67.3059 47.1279 70.1859 46.9519 73.0659C46.8719 74.4419 46.7439 76.0259 47.4479 77.2739C48.4079 78.9699 50.4079 80.1059 52.0399 81.0499C56.9999 83.9459 62.3759 86.4419 67.6079 88.7939C70.7759 90.2179 75.2559 92.5059 78.3759 89.8819C80.9359 87.7219 82.5359 84.2179 83.7839 81.1779C84.4719 79.5299 81.7839 78.8099 81.0959 80.4419H81.1599Z" fill="#231F20" style="fill:#231F20;fill:color(display-p3 0.1373 0.1216 0.1255);fill-opacity:1;"/>
<path d="M55.6687 60.3767C55.1133 61.6383 55.6858 63.1114 56.9475 63.6668C58.2092 64.2222 59.6822 63.6496 60.2376 62.388L63.6994 54.5242C64.2548 53.2626 63.6822 51.7895 62.4206 51.2341C61.1589 50.6787 59.6859 51.2513 59.1305 52.5129L55.6687 60.3767Z" fill="white" style="fill:white;fill-opacity:1;"/>
<path d="M57.9438 64.8415C57.4798 64.8415 56.9999 64.7455 56.5519 64.5535C55.7039 64.1855 55.0639 63.4975 54.7279 62.6335C54.3919 61.7695 54.4078 60.8255 54.7758 59.9935L58.2318 52.1215C58.5998 51.2735 59.2878 50.6335 60.1518 50.2975C61.0158 49.9615 61.9439 49.9775 62.7919 50.3455C64.5359 51.1135 65.3359 53.1615 64.5679 54.9055L61.1119 62.7775C60.5359 64.0735 59.2718 64.8415 57.9438 64.8415ZM61.4159 51.9935C61.2239 51.9935 61.0318 52.0255 60.8558 52.1055C60.4718 52.2495 60.1678 52.5375 60.0078 52.9055L56.5519 60.7775C56.3918 61.1455 56.3759 61.5615 56.5359 61.9455C56.6799 62.3295 56.9679 62.6335 57.3359 62.7935C57.7039 62.9535 58.1199 62.9695 58.5039 62.8095C58.8879 62.6655 59.1918 62.3775 59.3519 62.0095L62.8078 54.1375C63.1438 53.3695 62.8079 52.4575 62.0239 52.1215C61.8319 52.0415 61.6239 51.9935 61.4159 51.9935Z" fill="#231F20" style="fill:#231F20;fill:color(display-p3 0.1373 0.1216 0.1255);fill-opacity:1;"/>
<path d="M68.0637 52.2308C69.0285 50.0391 67.5684 47.2753 64.8025 46.0577C62.0365 44.84 59.0121 45.6297 58.0473 47.8214C57.0825 50.0132 58.5425 52.777 61.3085 53.9946C64.0744 55.2122 67.0989 54.4226 68.0637 52.2308Z" fill="#C01327" style="fill:#C01327;fill:color(display-p3 0.7529 0.0745 0.1529);fill-opacity:1;"/>
<path d="M63.928 55.5618C62.936 55.5618 61.8959 55.3538 60.8879 54.9058C59.3359 54.2338 58.088 53.0978 57.368 51.7378C56.6 50.2978 56.52 48.7618 57.112 47.4018C57.704 46.0578 58.9039 45.0818 60.4879 44.6658C61.9919 44.2658 63.656 44.4418 65.208 45.1138C68.472 46.5538 70.168 49.9138 68.984 52.6178C68.168 54.4898 66.168 55.5618 63.928 55.5618ZM62.168 46.4898C61.768 46.4898 61.384 46.5378 61.016 46.6338C60.04 46.8898 59.32 47.4498 58.984 48.2178C58.648 48.9858 58.7119 49.8978 59.1759 50.7938C59.6879 51.7538 60.5839 52.5698 61.7199 53.0658C63.9759 54.0578 66.4079 53.4978 67.1439 51.8178C67.8799 50.1378 66.648 47.9618 64.408 46.9698C63.672 46.6498 62.904 46.4898 62.168 46.4898Z" fill="#231F20" style="fill:#231F20;fill:color(display-p3 0.1373 0.1216 0.1255);fill-opacity:1;"/>
<path d="M69.1316 66.3149C68.5762 67.5766 69.1487 69.0496 70.4104 69.605C71.672 70.1604 73.1451 69.5879 73.7005 68.3262L77.1623 60.4625C77.7177 59.2008 77.1451 57.7278 75.8835 57.1724C74.6218 56.617 73.1488 57.1895 72.5934 58.4512L69.1316 66.3149Z" fill="white" style="fill:white;fill-opacity:1;"/>
<path d="M71.4156 70.7775C70.9516 70.7775 70.4716 70.6815 70.0236 70.4895C68.2796 69.7215 67.4796 67.6735 68.2476 65.9295L71.7036 58.0575C72.0716 57.2095 72.7596 56.5695 73.6236 56.2335C74.4876 55.8975 75.4156 55.9135 76.2636 56.2815C77.1116 56.6495 77.7516 57.3375 78.0876 58.2015C78.4236 59.0655 78.4076 60.0095 78.0396 60.8415L74.5836 68.7135C74.2156 69.5615 73.5276 70.2015 72.6636 70.5375C72.2476 70.6975 71.8316 70.7775 71.3996 70.7775H71.4156ZM74.8876 57.9295C74.6956 57.9295 74.5036 57.9615 74.3276 58.0415C73.9436 58.1855 73.6396 58.4735 73.4796 58.8415L70.0236 66.7135C69.6876 67.4815 70.0236 68.3935 70.8076 68.7295C71.1756 68.8895 71.5916 68.9055 71.9756 68.7455C72.3596 68.6015 72.6636 68.3135 72.8236 67.9455L76.2796 60.0735C76.4396 59.7055 76.4556 59.2895 76.2956 58.9055C76.1356 58.5215 75.8636 58.2175 75.4956 58.0575C75.3036 57.9775 75.0956 57.9295 74.8876 57.9295Z" fill="#231F20" style="fill:#231F20;fill:color(display-p3 0.1373 0.1216 0.1255);fill-opacity:1;"/>
<path d="M81.5324 58.1644C82.4973 55.9727 81.0372 53.2089 78.2712 51.9912C75.5053 50.7736 72.4809 51.5633 71.516 53.755C70.5512 55.9468 72.0113 58.7106 74.7772 59.9282C77.5432 61.1458 80.5676 60.3562 81.5324 58.1644Z" fill="#C01327" style="fill:#C01327;fill:color(display-p3 0.7529 0.0745 0.1529);fill-opacity:1;"/>
<path d="M77.4159 61.498C76.4079 61.498 75.3519 61.274 74.3599 60.842C71.0959 59.402 69.3999 56.042 70.5839 53.338C71.7679 50.634 75.3999 49.61 78.6639 51.05C80.2159 51.722 81.4639 52.858 82.1839 54.218C82.9519 55.658 83.0319 57.194 82.4399 58.554C81.8479 59.898 80.6479 60.874 79.0639 61.29C78.5199 61.434 77.9599 61.498 77.3999 61.498H77.4159ZM72.4399 54.154C71.7039 55.834 72.9359 58.01 75.1759 59.002C76.3119 59.498 77.5119 59.626 78.5679 59.338C79.5439 59.082 80.2639 58.522 80.5999 57.738C80.9359 56.97 80.8719 56.058 80.4079 55.162C79.8959 54.202 78.9999 53.386 77.8639 52.89C75.6079 51.898 73.1759 52.458 72.4399 54.138V54.154Z" fill="#231F20" style="fill:#231F20;fill:color(display-p3 0.1373 0.1216 0.1255);fill-opacity:1;"/>
<path d="M82.616 72.2284C82.0606 73.49 82.6331 74.9631 83.8948 75.5185C85.1564 76.0739 86.6294 75.5014 87.1849 74.2397L90.6466 66.3759C91.202 65.1143 90.6295 63.6413 89.3678 63.0858C88.1062 62.5304 86.6331 63.103 86.0777 64.3646L82.616 72.2284Z" fill="white" style="fill:white;fill-opacity:1;"/>
<path d="M84.8716 76.6976C84.4076 76.6976 83.9276 76.6016 83.4796 76.4096C82.6316 76.0416 81.9916 75.3536 81.6556 74.4896C81.3196 73.6256 81.3356 72.6816 81.7036 71.8496L85.1596 63.9776C85.5276 63.1296 86.2156 62.4896 87.0796 62.1536C87.9436 61.8176 88.8716 61.8336 89.7196 62.2016C90.5676 62.5696 91.2076 63.2576 91.5436 64.1216C91.8796 64.9856 91.8636 65.9296 91.4956 66.7616L88.0396 74.6336C87.6716 75.4816 86.9836 76.1216 86.1196 76.4576C85.7036 76.6176 85.2876 76.6976 84.8556 76.6976H84.8716ZM88.3596 63.8496C88.1676 63.8496 87.9756 63.8816 87.7996 63.9616C87.4156 64.1056 87.1116 64.3936 86.9516 64.7616L83.4956 72.6336C83.3356 73.0016 83.3196 73.4176 83.4796 73.8016C83.6236 74.1856 83.9116 74.4896 84.2796 74.6496C84.6476 74.8096 85.0636 74.8256 85.4476 74.6656C85.8316 74.5216 86.1356 74.2336 86.2956 73.8656L89.7516 65.9936C89.9116 65.6256 89.9276 65.2096 89.7676 64.8256C89.6236 64.4416 89.3356 64.1376 88.9676 63.9776C88.7756 63.8976 88.5676 63.8496 88.3596 63.8496Z" fill="#231F20" style="fill:#231F20;fill:color(display-p3 0.1373 0.1216 0.1255);fill-opacity:1;"/>
<path d="M95.0027 64.075C95.9675 61.8833 94.5074 59.1194 91.7415 57.9018C88.9755 56.6842 85.9511 57.4739 84.9863 59.6656C84.0214 61.8573 85.4815 64.6212 88.2475 65.8388C91.0134 67.0564 94.0378 66.2667 95.0027 64.075Z" fill="#C01327" style="fill:#C01327;fill:color(display-p3 0.7529 0.0745 0.1529);fill-opacity:1;"/>
<path d="M90.8714 67.4177C89.8794 67.4177 88.8394 67.2097 87.8474 66.7617C86.2954 66.0737 85.0474 64.9537 84.3274 63.5937C83.5594 62.1537 83.4794 60.6177 84.0714 59.2577C84.6634 57.9137 85.8634 56.9377 87.4474 56.5217C88.9354 56.1377 90.6154 56.2817 92.1674 56.9697C95.4314 58.4097 97.1274 61.7697 95.9434 64.4737C95.1114 66.3457 93.1274 67.4177 90.8874 67.4177H90.8714ZM89.0954 58.3297C88.6954 58.3297 88.3114 58.3777 87.9434 58.4737C86.9674 58.7297 86.2474 59.2897 85.9114 60.0737C85.5754 60.8417 85.6394 61.7537 86.1034 62.6497C86.6154 63.6097 87.5114 64.4257 88.6474 64.9217C90.9034 65.9137 93.3354 65.3537 94.0714 63.6737C94.8074 61.9937 93.5754 59.8177 91.3354 58.8257C90.5994 58.5057 89.8314 58.3457 89.0954 58.3457V58.3297Z" fill="#231F20" style="fill:#231F20;fill:color(display-p3 0.1373 0.1216 0.1255);fill-opacity:1;"/>
<path d="M113.351 78.5538L99.4795 81.3858L75.6715 69.9458L42.1515 52.9538C42.1515 52.9538 43.0795 48.7938 42.0395 43.0178C40.9995 37.2418 37.7675 31.8658 34.4075 28.5378C31.0475 25.2098 28.8555 24.2978 28.8555 24.2978C28.8555 24.2978 16.4875 30.3138 9.89548 40.6018C3.31948 50.8738 2.16748 64.7458 2.16748 64.7458C2.16748 64.7458 6.90348 69.5938 11.0635 70.6338C15.2235 71.6738 21.5755 72.7138 26.4395 71.4498C31.2875 70.1858 39.8475 58.9698 39.8475 58.9698L51.7515 65.5618L96.1355 89.6098L104.807 102.458C104.807 102.458 109.767 98.5058 112.199 91.9138C114.631 85.3218 113.351 78.5538 113.351 78.5538Z" fill="white" style="fill:white;fill-opacity:1;"/>
<path d="M27.4799 34.4579C27.4799 34.4579 21.1279 38.5059 16.8399 45.5619C12.5519 52.6179 10.7119 61.1619 10.7119 61.1619C10.7119 61.1619 20.1839 53.1939 23.4319 48.2179C26.6799 43.2419 27.4799 34.4579 27.4799 34.4579Z" fill="#D0D2D3" style="fill:#D0D2D3;fill:color(display-p3 0.8157 0.8235 0.8275);fill-opacity:1;"/>
<path d="M112.088 78.6184L108.04 79.0824C108.04 79.0824 108.616 82.5544 107.816 85.5624C107.016 88.5704 106.424 90.5384 105.16 92.2664C103.896 93.9944 100.76 97.3544 100.76 97.3544L104.808 102.458C104.808 102.458 109.304 98.6184 111.512 93.4184C113.704 88.2184 113.48 79.5464 113.48 79.5464L113.368 78.5704L112.104 78.6344L112.088 78.6184Z" fill="#D0D2D3" style="fill:#D0D2D3;fill:color(display-p3 0.8157 0.8235 0.8275);fill-opacity:1;"/>
<path d="M99.2559 82.5384L97.0639 89.8184L90.7119 86.6984L92.6639 81.6104L93.3679 79.3064L99.1439 81.7384L99.2559 82.5384Z" fill="#C01327" style="fill:#C01327;fill:color(display-p3 0.7529 0.0745 0.1529);fill-opacity:1;"/>
<path d="M50.024 56.9702L47.512 63.6422L40.312 59.7382L43.08 53.1462L50.024 56.9702Z" fill="#C01327" style="fill:#C01327;fill:color(display-p3 0.7529 0.0745 0.1529);fill-opacity:1;"/>
<path d="M37.7996 31.5619C37.7996 31.5619 37.0796 45.4659 28.5196 56.7939C19.9596 68.1219 13.8476 71.7859 13.8476 71.7859C13.8476 71.7859 10.6156 70.6339 8.07163 69.0179C5.52763 67.4019 3.22363 65.5459 3.22363 65.5459C3.22363 65.5459 16.4876 59.2099 21.7196 50.5219C27.6396 40.6819 29.3516 29.7219 29.3516 29.7219L30.0236 25.1619L34.4396 28.5379L37.8156 31.5779L37.7996 31.5619Z" fill="#C01327" style="fill:#C01327;fill:color(display-p3 0.7529 0.0745 0.1529);fill-opacity:1;"/>
<path d="M1.12783 65.2582C8.10383 73.4342 20.4878 75.7382 30.1038 71.1462C39.7198 66.5542 45.8158 55.4022 44.7278 44.7942C44.1678 39.2902 42.0238 34.0902 38.6318 29.7222C36.9198 27.5142 34.9198 25.5782 32.6638 23.9142C31.4158 22.9862 30.2958 22.0902 28.7598 22.6342C21.1758 25.3382 14.0398 31.1142 9.70383 37.8342C6.15183 43.3382 3.46383 49.5622 1.87983 55.9142C1.23983 58.5222 0.663826 61.2582 0.583826 63.9462C0.519826 66.3302 4.23183 66.3302 4.29583 63.9462C4.45583 58.7462 6.31183 53.0342 8.43983 48.1382C10.4398 43.5782 12.8878 39.0342 16.3278 35.4022C18.9358 32.6342 21.9918 30.3302 25.2878 28.4422C26.5198 27.7382 27.7838 27.0982 29.0638 26.5222C29.5598 26.2982 29.5918 26.2662 30.2958 26.0262L28.8718 25.8342C37.7038 31.3382 43.0798 42.2982 40.4878 52.6182C37.9598 62.6982 29.0158 70.3142 18.4398 69.7702C12.7918 69.4822 7.43183 66.9382 3.75183 62.6342C2.19983 60.8102 -0.424174 63.4502 1.12783 65.2582Z" fill="#231F20" style="fill:#231F20;fill:color(display-p3 0.1373 0.1216 0.1255);fill-opacity:1;"/>
<path d="M28.0714 26.7139C27.5595 42.3299 17.9275 56.9219 3.89545 63.7219C1.75145 64.7619 3.62345 67.9619 5.76745 66.9219C20.9834 59.5619 31.2235 43.5619 31.7835 26.7139C31.8635 24.3299 28.1514 24.3299 28.0714 26.7139Z" fill="#231F20" style="fill:#231F20;fill:color(display-p3 0.1373 0.1216 0.1255);fill-opacity:1;"/>
<path d="M34.7116 31.3385C33.7836 46.0265 26.2636 60.1385 14.5036 69.0025C12.6156 70.4265 14.4716 73.6425 16.3756 72.2025C29.2556 62.4905 37.4156 47.4345 38.4236 31.3225C38.5676 28.9385 34.8556 28.9385 34.7116 31.3225V31.3385Z" fill="#231F20" style="fill:#231F20;fill:color(display-p3 0.1373 0.1216 0.1255);fill-opacity:1;"/>
<path d="M98.8719 79.9943C80.8079 70.7463 62.7439 61.4983 44.6639 52.2343C42.5359 51.1463 40.6639 54.3463 42.7919 55.4343C60.8559 64.6823 78.9199 73.9303 96.9999 83.1943C99.1279 84.2823 101 81.0823 98.8719 79.9943Z" fill="#231F20" style="fill:#231F20;fill:color(display-p3 0.1373 0.1216 0.1255);fill-opacity:1;"/>
<path d="M96.2479 87.3543C78.4399 77.7223 60.6479 68.0903 42.8399 58.4583C40.7439 57.3223 38.8559 60.5223 40.9679 61.6583C58.7759 71.2903 76.5679 80.9223 94.3759 90.5543C96.4719 91.6903 98.3599 88.4903 96.2479 87.3543Z" fill="#231F20" style="fill:#231F20;fill:color(display-p3 0.1373 0.1216 0.1255);fill-opacity:1;"/>
<path d="M47.8478 57.6418C47.3198 59.1138 46.7758 60.5698 46.2478 62.0418C46.0878 62.4738 46.2158 63.0818 46.4398 63.4658C46.6638 63.8498 47.1118 64.2178 47.5438 64.3138C48.0238 64.4258 48.5518 64.3938 48.9678 64.1218C49.3838 63.8498 49.6558 63.4818 49.8158 63.0178C50.3438 61.5458 50.8878 60.0898 51.4158 58.6178C51.5758 58.1858 51.4478 57.5778 51.2238 57.1938C50.9998 56.8098 50.5518 56.4418 50.1198 56.3458C49.6398 56.2338 49.1118 56.2658 48.6958 56.5378C48.2798 56.8098 48.0078 57.1778 47.8478 57.6418Z" fill="#231F20" style="fill:#231F20;fill:color(display-p3 0.1373 0.1216 0.1255);fill-opacity:1;"/>
<path d="M89.9916 78.8262C89.2876 80.6022 88.5836 82.3622 87.8796 84.1382C87.7196 84.5542 87.8476 85.1942 88.0716 85.5622C88.2956 85.9302 88.7436 86.3142 89.1756 86.4102C89.6556 86.5222 90.1836 86.4902 90.5996 86.2182C91.0156 85.9462 91.2716 85.5782 91.4476 85.1142C92.1516 83.3382 92.8556 81.5782 93.5596 79.8022C93.7196 79.3862 93.5916 78.7462 93.3676 78.3782C93.1436 78.0102 92.6956 77.6262 92.2636 77.5302C91.7836 77.4182 91.2556 77.4502 90.8396 77.7222C90.4236 77.9942 90.1676 78.3622 89.9916 78.8262Z" fill="#231F20" style="fill:#231F20;fill:color(display-p3 0.1373 0.1216 0.1255);fill-opacity:1;"/>
<path d="M106.424 101.514C104.296 98.3779 102.232 95.2099 99.9116 92.2019C99.4636 91.6099 99.0156 91.0179 98.6156 90.3939C98.4076 90.0579 98.2156 89.7059 98.0236 89.3699C97.9596 89.2419 97.8636 88.7299 97.9116 89.2099C97.8316 88.4259 98.1196 87.5619 98.4076 86.6499C98.7276 85.6419 99.1276 84.6499 99.6876 83.7379C99.7996 83.5459 99.9276 83.3699 100.04 83.1939C99.8636 83.4659 100.536 82.7939 100.088 83.1299C99.8476 83.3219 99.8636 83.2099 100.424 83.0819C100.872 82.9859 101.304 82.8899 101.752 82.8099C105.784 81.9779 109.832 81.2099 113.848 80.3459C113.08 79.9139 112.328 79.4819 111.56 79.0499C111.416 77.9619 111.592 79.5939 111.608 79.8819C111.672 80.9379 111.656 81.9939 111.608 83.0499C111.464 86.1219 110.872 89.2739 109.704 92.1379C108.344 95.4659 106.136 98.6979 103.48 101.146C101.72 102.762 104.344 105.386 106.104 103.77C112.984 97.4179 116.392 87.3059 115.128 78.0739C114.984 77.0339 113.72 76.5859 112.84 76.7779C108.376 77.7379 103.88 78.5379 99.4156 79.5139C96.7916 80.0899 95.6556 83.1139 94.9036 85.4179C94.5196 86.5699 94.1676 87.8339 94.1836 89.0499C94.1996 90.5859 95.1436 91.9779 96.0076 93.1779C98.4396 96.5699 100.84 99.9459 103.192 103.386C104.52 105.354 107.736 103.498 106.392 101.514H106.424Z" fill="#231F20" style="fill:#231F20;fill:color(display-p3 0.1373 0.1216 0.1255);fill-opacity:1;"/>
<path d="M102.12 96.9704L101.256 96.0744C101.256 96.0744 104.2 93.2104 105.976 89.0024C107.752 84.7944 107.544 80.6504 107.544 80.6024L108.776 80.5384C108.776 80.7144 109 85.0024 107.112 89.4824C105.24 93.9464 102.248 96.8424 102.12 96.9704Z" fill="#231F20" style="fill:#231F20;fill:color(display-p3 0.1373 0.1216 0.1255);fill-opacity:1;"/>
<path d="M40.0559 47.3063C44.2639 45.8183 49.1119 41.4343 49.3359 36.9703C49.4639 34.6983 48.9199 32.2823 49.8959 30.2343C51.0159 27.9143 53.6719 26.8743 55.9279 25.5943C60.8079 22.8583 64.5359 18.1703 66.1359 12.8103C67.8479 18.7463 66.1359 25.5303 61.8159 29.9463C63.6239 29.5143 65.6239 30.6663 66.2799 32.3943C66.9359 34.1223 66.2799 36.2343 64.8239 37.3863C63.3679 38.5383 61.2559 38.7143 59.5599 37.9623C62.7439 39.0983 64.1679 43.5623 62.1999 46.3303C60.2479 49.0983 55.5599 49.2583 53.4319 46.6183C54.2799 48.1063 53.0479 50.0903 51.4159 50.6023C49.7839 51.1143 48.0239 50.5703 46.4559 49.9143C44.8879 49.2583 39.5119 48.1863 37.8159 48.1223L40.0399 47.3223L40.0559 47.3063Z" fill="#F99D26" style="fill:#F99D26;fill:color(display-p3 0.9765 0.6157 0.1490);fill-opacity:1;"/>
<path d="M40.3121 48.2021C43.8161 46.9061 47.1121 44.3941 48.9841 41.1141C49.9121 39.4821 50.3121 37.7701 50.2961 35.8981C50.2961 33.5781 49.8961 31.1621 51.6721 29.3541C52.9841 28.0101 54.8081 27.3061 56.4081 26.3941C58.0881 25.4341 59.6721 24.2661 61.0481 22.9061C63.8481 20.1701 65.8801 16.7781 67.0321 13.0501H65.2401C66.7921 18.7781 65.2401 24.9861 61.1601 29.2901C60.4881 30.0101 61.1761 30.9861 62.0561 30.8421C64.4881 30.4261 66.1681 32.8581 65.3841 35.0661C64.5521 37.4181 61.8961 37.8821 59.8161 37.0661C58.6961 36.6181 58.2321 38.4101 59.3201 38.8581C61.8801 39.8981 63.1121 43.5941 61.4161 45.8661C59.6721 48.2021 55.9441 48.0581 54.1041 45.9781C53.3521 45.1301 52.2321 46.2021 52.6481 47.0981C53.0641 47.9941 52.4401 49.0021 51.6881 49.4821C50.7281 50.0901 49.4641 49.9301 48.4401 49.6421C47.2241 49.3061 46.1041 48.7621 44.8721 48.4581C42.6001 47.8661 40.2001 47.3381 37.8321 47.2101L38.0721 49.0341L40.2961 48.2341C41.4161 47.8341 40.9361 46.0421 39.8001 46.4421L37.5761 47.2421C36.6001 47.5941 36.7441 49.0021 37.8161 49.0661C41.2561 49.2581 44.4241 50.3941 47.6721 51.3701C49.4801 51.9141 51.6081 51.9941 53.1121 50.7141C54.4881 49.5461 54.9681 47.8181 54.2321 46.1701L52.7761 47.2901C55.4001 50.2661 60.7121 50.1541 63.0161 46.8101C65.3681 43.4021 63.4801 38.5541 59.8161 37.0821L59.3201 38.8741C62.6961 40.2181 66.7281 38.5061 67.3841 34.7621C67.9921 31.2901 64.9361 28.5061 61.5601 29.0821L62.4561 30.6341C67.0001 25.8501 68.7441 18.9541 67.0161 12.5861C66.7761 11.6901 65.4961 11.7221 65.2241 12.5861C64.0721 16.3141 61.9601 19.6581 59.0321 22.2661C56.4081 24.6181 52.7761 25.5941 50.3281 28.0741C49.1921 29.2101 48.5841 30.6501 48.4081 32.2341C48.1841 34.2821 48.7121 36.4101 48.1201 38.4101C47.0161 42.1541 43.3201 45.1301 39.7681 46.4421C38.6641 46.8581 39.1441 48.6501 40.2641 48.2341L40.3121 48.2021Z" fill="#231F20" style="fill:#231F20;fill:color(display-p3 0.1373 0.1216 0.1255);fill-opacity:1;"/>
<path d="M49.1602 43.4823C49.1602 43.4823 51.0482 42.1223 51.6082 38.5223C52.1682 34.9223 51.2562 33.0503 52.0402 31.3383C52.8242 29.6263 54.8562 28.6023 57.2562 27.1623C59.6562 25.7223 61.1442 23.4663 61.6722 23.9943C62.2002 24.5223 61.3042 26.0743 59.9762 27.0823C58.6482 28.0903 55.8642 29.4023 54.6162 30.3143C53.3522 31.2103 53.1442 32.1223 52.9202 34.5383C52.6962 36.9383 53.1922 38.4423 52.1042 40.4583C51.0162 42.4743 49.1602 43.4823 49.1602 43.4823Z" fill="white" style="fill:white;fill-opacity:1;"/>
</g>
<defs>
<clipPath id="clip0_173_115107">
<rect width="114.832" height="103.424" fill="white" style="fill:white;fill-opacity:1;" transform="translate(0.583984 0.842651)"/>
</clipPath>
</defs>
</svg>
