<svg width="271" height="91" viewBox="0 0 271 91" fill="none" xmlns="http://www.w3.org/2000/svg">
<path d="M68.128 72.3784C68.128 72.3784 63.298 73.3724 59.672 73.1064C56.046 72.8404 53.638 72.3224 50.068 71.3704C45.588 70.1804 43.082 68.2204 43.082 68.2204C43.082 68.2204 43.236 64.9724 43.768 62.8724C44.286 60.7724 44.916 59.9324 44.916 59.9324C44.916 59.9324 47.016 59.4564 48.374 59.5124C49.732 59.5684 51.048 59.9324 51.048 59.9324L50.684 65.1824C50.684 65.1824 57.978 66.7084 60.078 66.9184C62.178 67.1284 64.376 66.8204 64.376 66.8204L65.104 61.6264C65.104 61.6264 68.1 61.9904 68.94 62.3124C69.78 62.6344 70.928 63.4604 70.928 63.4604C70.928 63.4604 70.872 66.6104 70.718 68.5984C70.564 70.5864 70.088 71.7484 70.088 71.7484L68.1 72.3784H68.128Z" fill="#F99D26" style="fill:#F99D26;fill:color(display-p3 0.9765 0.6157 0.1490);fill-opacity:1;"/>
<path d="M50.0959 72.0422C49.5079 79.0842 48.7939 87.3582 48.7939 87.3582C48.7939 87.3582 52.6719 88.7162 56.0319 89.2482C59.3919 89.7802 62.8499 89.8782 62.8499 89.4582C62.8499 89.1922 63.3679 80.2602 63.7739 73.4982" fill="#5E401C" style="fill:#5E401C;fill:color(display-p3 0.3686 0.2510 0.1098);fill-opacity:1;"/>
<path d="M64.8101 66.3994C64.8661 65.4474 64.8942 64.8734 64.8942 64.8734C64.8942 64.8734 65.5241 61.3034 66.0421 60.4634C66.5601 59.6234 68.5622 58.5734 69.6122 56.6834C70.6622 54.7934 70.1302 52.5954 70.6622 50.8034C71.1802 49.0254 72.9722 47.6534 74.1202 47.1354C75.2682 46.6174 79.1602 47.6534 80.0982 46.5054C81.0362 45.3574 80.7282 43.2574 79.6782 42.3054C78.6282 41.3534 77.3681 41.2554 75.3801 41.2554C73.7981 41.2554 71.6001 41.8854 71.6001 41.8854C71.6001 41.8854 73.1681 33.2754 73.7001 26.3454C74.2181 19.4154 74.7502 13.7454 72.1322 13.4374C69.5142 13.1294 69.1922 17.5254 68.6742 20.4654C68.1562 23.4054 66.7841 30.8534 66.7841 30.8534C66.7841 30.8534 65.1041 16.6854 64.7961 14.3754C64.4881 12.0654 64.2781 6.67542 61.2261 7.02542C58.4961 7.33342 59.0282 11.5334 59.0282 17.1054C59.0282 22.6774 58.8181 30.0134 58.8181 30.0134C58.8181 30.0134 56.8301 20.9834 55.3601 17.7354C53.8901 14.4874 52.6021 11.8694 50.8521 12.3874C48.3321 13.1154 49.0742 16.4754 50.1242 21.3054C51.1742 26.1354 52.6442 33.5414 52.6442 33.2194C52.6442 32.8974 48.2342 24.6654 46.9742 23.1954C45.7142 21.7254 44.3562 20.5774 43.1942 21.3054C42.0322 22.0334 42.4661 25.0854 43.9221 28.0254C45.3921 30.9654 45.7001 32.6454 46.3301 34.6334C46.9601 36.6214 46.9602 43.3414 47.1702 48.3814C47.3802 53.4214 47.8981 54.6814 49.4801 56.6694C51.0621 58.6574 51.6781 59.4974 51.5801 61.1774C51.5521 61.5274 51.4541 62.8714 51.3001 64.7474" fill="#5E401C" style="fill:#5E401C;fill:color(display-p3 0.3686 0.2510 0.1098);fill-opacity:1;"/>
<path d="M65.748 66.1337C65.776 65.6997 65.818 65.2657 65.818 64.8457C65.818 64.3557 65.762 65.0417 65.818 64.8177C65.902 64.3697 65.986 63.9357 66.084 63.4877C66.28 62.5357 66.406 61.2057 67.064 60.5337C68.226 59.3437 69.598 58.4897 70.41 56.9917C71.39 55.1997 71.096 53.2957 71.446 51.3637C71.712 49.9497 72.958 48.4097 74.358 47.9197C75.38 47.5557 76.808 47.9477 77.886 47.9337C79.3 47.9197 80.616 47.6117 81.26 46.2257C81.96 44.7417 81.652 42.8097 80.616 41.5637C79.44 40.1497 77.564 39.9117 75.828 39.8697C74.246 39.8417 72.664 40.1077 71.138 40.5417L72.524 41.9277C73.056 39.0017 73.504 36.0477 73.896 33.1077C74.54 28.3197 75.086 23.4337 75.086 18.6037C75.086 16.1677 74.652 11.0017 70.83 12.1777C69.15 12.6957 68.464 14.5857 68.086 16.1257C67.708 17.6657 67.498 19.4157 67.204 21.0537C66.644 24.1477 66.084 27.2277 65.524 30.3217L67.736 30.6157C67.092 25.1837 66.476 19.7517 65.762 14.3337C65.706 13.9137 65.72 14.0117 65.664 13.5497C65.608 13.0877 65.566 12.6817 65.51 12.2477C65.384 11.2817 65.258 10.3017 64.992 9.3497C64.516 7.6417 63.522 5.8077 61.548 5.6537C56.69 5.3037 57.684 12.8777 57.712 15.7617C57.754 20.4377 57.642 25.1137 57.502 29.7757L59.714 29.4817C58.524 24.1057 57.334 18.3657 54.478 13.5777C53.652 12.1917 52.336 10.6237 50.53 11.0157C49.186 11.3097 48.262 12.3597 47.968 13.6757C47.59 15.3977 47.996 17.2877 48.332 18.9817C48.724 20.9417 49.172 22.8877 49.578 24.8477C49.984 26.8077 50.404 28.8517 50.824 30.8397C51.006 31.7077 51.048 33.3877 51.874 33.9477C52.658 34.4797 53.47 33.7517 53.568 32.9817C53.624 32.5757 53.302 32.0997 53.134 31.7497C52.826 31.1057 52.49 30.4757 52.154 29.8317C51.258 28.1377 50.334 26.4717 49.354 24.8197C48.374 23.1677 47.464 21.7257 45.994 20.5917C44.972 19.8077 43.628 19.3457 42.438 20.0737C41.556 20.6057 41.262 21.6697 41.22 22.6357C41.094 25.6037 42.858 28.1377 43.852 30.7977C44.51 32.5757 45.182 34.4937 45.364 36.3977C45.896 41.6477 45.392 47.0097 46.218 52.2317C46.554 54.3597 47.506 55.9277 48.808 57.6077C49.536 58.5457 50.306 59.4837 50.278 60.7157C50.25 61.9477 50.082 63.2497 49.984 64.5097C49.858 65.9517 52.112 65.9377 52.238 64.5097C52.392 62.5777 52.91 60.3377 52.07 58.5037C51.314 56.8237 49.802 55.6337 49.018 53.9677C48.192 52.2037 48.178 50.0477 48.108 48.1297C47.996 45.5957 47.954 43.0617 47.856 40.5137C47.786 38.5257 47.772 36.4397 47.338 34.4937C46.904 32.5477 46.19 30.5037 45.392 28.6557C44.804 27.3117 44.104 26.0517 43.74 24.6237C43.614 24.1337 43.11 22.4677 43.586 22.0197C44.174 21.4737 45.7 23.3777 46.022 23.7557C45.98 23.7137 45.994 23.7137 46.106 23.8537C46.19 23.9657 46.26 24.0777 46.344 24.1897C46.54 24.4697 46.722 24.7637 46.89 25.0437C47.912 26.7097 48.864 28.4177 49.788 30.1257C50.18 30.8537 50.572 31.5817 50.936 32.3237C51.062 32.5757 51.188 32.8417 51.328 33.1077C51.482 33.4297 51.314 33.1637 51.328 32.9537L53.022 31.9877C53.19 32.2117 53.372 32.4357 53.54 32.6597C53.288 32.0297 53.218 31.2597 53.092 30.6017C52.77 29.0897 52.462 27.5637 52.154 26.0517C51.818 24.3997 51.468 22.7477 51.104 21.0957C50.74 19.3877 50.278 17.6517 50.138 15.9017C50.068 15.1177 49.9 13.6757 50.796 13.2697C51.846 12.8077 52.77 15.0197 53.106 15.6917C54.436 18.2677 55.276 20.9697 56.032 23.7557C56.592 25.8417 57.11 27.9417 57.572 30.0557C57.852 31.3297 59.742 30.9937 59.784 29.7617C59.882 26.2897 59.952 22.8317 59.98 19.3597C60.008 16.7977 59.91 14.2357 59.966 11.6737C59.994 10.6937 59.896 8.2577 61.002 7.9357C62.346 7.5437 62.794 9.5877 62.99 10.5117C63.172 11.3237 63.284 12.1357 63.368 12.9617C63.41 13.3117 63.438 13.6477 63.494 13.9977C63.508 14.1377 63.578 14.6417 63.536 14.2637C63.536 14.3477 63.564 14.4457 63.578 14.5297C63.942 17.3997 64.292 20.2697 64.628 23.1397C64.922 25.6317 65.23 28.1237 65.524 30.6157C65.664 31.7497 67.484 32.2817 67.736 30.9097C68.17 28.5577 68.59 26.2057 69.024 23.8677C69.276 22.4677 69.542 21.0677 69.766 19.6677C70.018 18.1417 70.116 16.3217 70.914 14.9637C71.124 14.5997 71.362 14.2777 71.824 14.2917C72.132 14.2917 72.244 14.4597 72.426 14.8657C73 16.1257 72.902 17.7777 72.874 19.1217C72.804 23.6017 72.342 28.1097 71.768 32.5477C71.376 35.4877 70.928 38.4277 70.396 41.3397C70.242 42.1517 70.9 42.9777 71.782 42.7257C72.916 42.4037 74.092 42.1517 75.268 42.1377C76.444 42.1237 78.222 42.0257 79.02 43.1317C79.384 43.6217 79.51 44.3637 79.384 44.9517C79.258 45.5397 79.076 45.6097 78.53 45.6797C77.298 45.8197 76.066 45.5537 74.834 45.6097C71.852 45.7777 69.514 48.8437 69.206 51.6157C69.01 53.3937 69.192 55.1717 67.988 56.6557C67.12 57.7197 65.79 58.3917 65.02 59.5397C64.348 60.5477 64.152 61.9337 63.914 63.0957C63.704 64.1317 63.606 65.0977 63.55 66.1617C63.466 67.6037 65.706 67.6037 65.804 66.1617L65.748 66.1337Z" fill="#231F20" style="fill:#231F20;fill:color(display-p3 0.1373 0.1216 0.1255);fill-opacity:1;"/>
<path d="M49.144 71.8597C48.71 76.9697 48.276 82.0657 47.842 87.1757C47.8 87.6937 48.22 88.0997 48.668 88.2537C50.432 88.8697 52.238 89.3877 54.072 89.7937C56.676 90.3677 59.574 90.8437 62.248 90.6337C63.172 90.5637 64.026 90.3257 64.166 89.2757C64.208 88.9397 64.194 88.5757 64.222 88.2397C64.334 86.2797 64.446 84.3337 64.558 82.3737C64.74 79.3497 64.908 76.3397 65.09 73.3157C65.174 71.8737 62.92 71.8737 62.836 73.3157C62.57 77.8377 62.304 82.3597 62.038 86.8817C61.996 87.4977 61.968 88.1137 61.94 88.7157C61.94 88.8137 61.884 89.0517 61.912 89.1637C61.982 89.3317 61.366 90.0317 62.234 88.7857C62.836 87.9317 62.542 88.3937 62.402 88.3657C62.024 88.2957 61.52 88.4077 61.128 88.3937C60.498 88.3937 59.854 88.3377 59.224 88.2957C57.838 88.1837 56.452 88.0017 55.094 87.7077C53.12 87.3017 51.174 86.7417 49.27 86.0837L50.096 87.1617C50.53 82.0517 50.964 76.9557 51.398 71.8457C51.524 70.4037 49.27 70.4177 49.144 71.8457V71.8597Z" fill="#231F20" style="fill:#231F20;fill:color(display-p3 0.1373 0.1216 0.1255);fill-opacity:1;"/>
<path d="M48.864 60.9535C48.01 60.9535 46.792 60.9535 46.232 61.7235C45.728 62.4235 46.12 63.3335 46.666 63.8655C47.954 65.1255 50.208 65.6154 51.888 66.0914C56.69 67.4494 62.234 68.4294 67.148 67.1134C68.268 66.8194 69.29 66.2315 69.22 64.9155C69.164 63.6975 67.988 63.3754 67.008 63.0674C66.322 62.8574 66.014 63.9355 66.714 64.1455C67.106 64.2715 67.89 64.3835 68.086 64.8035C68.436 65.5875 67.358 65.8954 66.854 66.0214C65.748 66.3154 64.614 66.4694 63.466 66.5254C60.96 66.6514 58.454 66.3854 56.004 65.9094C53.988 65.5174 51.986 64.9995 50.04 64.3275C49.298 64.0755 48.514 63.8095 47.856 63.3615C47.562 63.1655 46.932 62.7035 47.198 62.3115C47.436 61.9615 48.528 62.0594 48.864 62.0594C49.592 62.0594 49.592 60.9255 48.864 60.9395V60.9535Z" fill="#231F20" style="fill:#231F20;fill:color(display-p3 0.1373 0.1216 0.1255);fill-opacity:1;"/>
<path d="M50.866 59.0644C50.026 58.8964 49.1579 58.8544 48.3039 58.8404C47.0859 58.8124 45.6579 58.7844 44.4959 59.2464C43.8799 59.4844 43.7679 59.8904 43.5719 60.4784C43.1099 61.8224 42.844 63.2364 42.648 64.6224C42.494 65.7844 42.06 67.9964 43.012 68.9904C43.614 69.6204 44.6639 70.0404 45.4339 70.4044C50.6559 72.9384 56.8019 74.1844 62.5839 73.8344C64.7959 73.7084 67.0219 73.3584 69.1219 72.6864C69.5139 72.5604 69.9059 72.4344 70.2839 72.2664C70.9139 71.9724 70.9559 71.4824 71.0679 70.8524C71.2919 69.5504 71.502 68.2204 71.6 66.9044C71.656 66.0924 71.628 65.2664 71.628 64.4544C71.628 64.0204 71.74 63.3904 71.558 62.9704C71.194 62.1024 69.71 61.6684 68.912 61.4584C67.848 61.1784 66.742 60.9684 65.636 60.8284C64.53 60.6884 64.572 62.3824 65.636 62.5084C65.174 62.4524 66.028 62.5784 66.154 62.5924C66.714 62.6904 67.274 62.8024 67.82 62.9284C68.59 63.0964 69.612 63.2924 70.186 63.8804L69.9339 63.2784C69.9339 65.9664 69.7939 68.5424 69.2759 71.1884L69.6679 70.6844C69.8079 70.6284 69.7659 70.6424 69.5559 70.7264C69.2619 70.8384 68.9539 70.9364 68.6599 71.0344C67.6239 71.3564 66.5599 71.6084 65.4959 71.7904C61.8139 72.4204 58.0339 72.2384 54.3799 71.5244C51.5239 70.9644 48.6819 70.1244 46.0639 68.8224C45.4759 68.5284 44.888 68.2064 44.328 67.8564C44.272 67.8144 44.09 67.6464 44.02 67.6464C43.866 67.6464 44.44 67.9824 44.286 67.9124C44.286 67.9684 44.174 67.8564 44.286 67.9124C44.258 67.5204 44.146 67.1564 44.132 66.7364C44.132 65.8404 44.244 64.9584 44.398 64.0764C44.566 63.1244 44.7619 62.1864 45.0419 61.2624C45.1119 61.0524 45.196 60.8284 45.266 60.6184C45.336 60.3524 45.2659 60.5904 45.3079 60.5064L44.8039 60.8984C46.4699 60.2824 48.654 60.3524 50.39 60.6884C51.454 60.8984 51.9019 59.2744 50.8379 59.0644H50.866Z" fill="#231F20" style="fill:#231F20;fill:color(display-p3 0.1373 0.1216 0.1255);fill-opacity:1;"/>
<path d="M46.918 62.7742C46.918 62.7742 47.646 62.6061 48.864 62.5641C50.39 62.5081 51.062 62.6202 51.062 62.6202L50.698 65.1961C50.698 65.1961 49.648 65.0981 48.388 64.3001C47.128 63.5021 46.918 62.7742 46.918 62.7742Z" fill="#231F20" style="fill:#231F20;fill:color(display-p3 0.1373 0.1216 0.1255);fill-opacity:1;"/>
<path d="M65.2862 64.2861C65.2862 64.2861 66.0282 64.4401 66.9662 64.7061C67.7082 64.9161 68.6461 65.3361 68.6461 65.3361C68.6461 65.3361 68.6461 66.0221 67.7501 66.3301C66.8541 66.6381 66.5461 66.8061 65.9021 66.8061C65.2581 66.8061 64.7542 66.9041 64.7542 66.9041L65.2721 64.2861H65.2862Z" fill="#231F20" style="fill:#231F20;fill:color(display-p3 0.1373 0.1216 0.1255);fill-opacity:1;"/>
<path d="M51.804 61.7654C51.804 61.7654 54.324 63.1234 56.844 64.1734C59.364 65.2234 64.628 66.1194 64.628 66.1194L64.768 66.9034C64.768 66.9034 62.094 67.4214 57.684 66.6934C53.274 65.9654 51.104 64.4814 51.104 64.4814L51.804 61.7513V61.7654Z" fill="#231F20" style="fill:#231F20;fill:color(display-p3 0.1373 0.1216 0.1255);fill-opacity:1;"/>
<path d="M50.852 36.4677C50.852 36.4677 50.264 33.3177 52.252 32.7997C54.24 32.2817 55.01 34.2697 54.912 35.3197C54.814 36.3697 53.904 37.6297 53.904 37.6297L54.044 44.6577L52.854 37.2097C52.854 37.2097 53.582 36.3137 53.33 35.1657C53.078 34.0177 52.182 34.0597 51.706 34.6897C51.37 35.1377 50.866 36.4677 50.866 36.4677H50.852Z" fill="#231F20" style="fill:#231F20;fill:color(display-p3 0.1373 0.1216 0.1255);fill-opacity:1;"/>
<path d="M56.872 33.5282C56.872 33.5282 56.284 30.3782 58.272 29.8602C60.26 29.3422 61.03 31.3302 60.932 32.3802C60.834 33.4302 59.924 34.6902 59.924 34.6902L60.064 41.7182L58.874 34.2702C58.874 34.2702 59.602 33.3742 59.35 32.2262C59.098 31.0782 58.202 31.1202 57.726 31.7502C57.39 32.1982 56.886 33.5282 56.886 33.5282H56.872Z" fill="#231F20" style="fill:#231F20;fill:color(display-p3 0.1373 0.1216 0.1255);fill-opacity:1;"/>
<path d="M64.376 33.8919C64.376 33.8919 64.348 30.6859 66.406 30.5179C68.464 30.3499 68.87 32.4499 68.576 33.4719C68.282 34.4939 67.176 35.5719 67.176 35.5719L66.07 42.5159L66.21 34.9699C66.21 34.9699 67.092 34.2279 67.036 33.0379C66.98 31.8479 66.098 31.7499 65.524 32.2819C65.118 32.6599 64.376 33.8919 64.376 33.8919Z" fill="#231F20" style="fill:#231F20;fill:color(display-p3 0.1373 0.1216 0.1255);fill-opacity:1;"/>
<path d="M49.0182 26.9334C49.0182 26.9334 48.3322 26.6814 47.5202 27.1854C46.7082 27.6894 46.2742 28.5574 46.2742 28.5574C46.2742 28.5574 47.1142 28.0254 47.5762 27.8714C48.0382 27.7174 48.9762 27.6894 48.9762 27.6894C48.9762 27.6894 48.1922 28.0674 47.8002 28.3054C47.4082 28.5434 46.3022 29.5234 46.3022 29.5234C46.3022 29.5234 47.2962 29.2154 47.8282 29.0194C48.3602 28.8234 49.0462 28.3614 49.0462 28.3614C49.0462 28.3614 48.7662 28.9494 48.4302 29.2014C48.0942 29.4534 47.1282 29.9154 47.1282 29.9154C47.1282 29.9154 47.9122 30.0974 48.5842 29.7334C49.2562 29.3694 49.7602 28.8374 49.7602 28.8374L49.0182 26.9334Z" fill="#231F20" style="fill:#231F20;fill:color(display-p3 0.1373 0.1216 0.1255);fill-opacity:1;"/>
<path d="M56.0459 21.7401C56.0459 21.7401 55.3039 21.3061 54.2539 21.6981C53.2039 22.0901 52.5179 23.0141 52.5179 23.0141C52.5179 23.0141 53.6099 22.5801 54.1839 22.5101C54.7579 22.4401 55.8499 22.5941 55.8499 22.5941C55.8499 22.5941 54.8699 22.8601 54.3379 23.0561C53.8059 23.2521 52.3359 24.1341 52.3359 24.1341C52.3359 24.1341 53.5539 23.9941 54.2119 23.8821C54.8699 23.7701 55.7659 23.3921 55.7659 23.3921C55.7659 23.3921 55.3179 24.0221 54.8559 24.2321C54.3939 24.4421 53.1899 24.7781 53.1899 24.7781C53.1899 24.7781 54.0579 25.1701 54.9259 24.8761C55.7939 24.5821 56.4939 24.0921 56.4939 24.0921L56.0459 21.7261V21.7401Z" fill="#231F20" style="fill:#231F20;fill:color(display-p3 0.1373 0.1216 0.1255);fill-opacity:1;"/>
<path d="M64.8521 19.2476C64.8521 19.2476 64.0541 18.6176 62.7801 18.9256C61.5061 19.2336 60.5401 20.1856 60.5401 20.1856C60.5401 20.1856 61.8841 19.8496 62.5561 19.8496C63.2281 19.8496 64.4881 20.2136 64.4881 20.2136C64.4881 20.2136 63.2981 20.3676 62.6541 20.5216C62.0101 20.6756 60.1621 21.4736 60.1621 21.4736C60.1621 21.4736 61.6041 21.5016 62.3881 21.4736C63.1721 21.4456 64.2781 21.1376 64.2781 21.1376C64.2781 21.1376 63.6481 21.7956 63.0881 21.9776C62.5281 22.1596 61.0581 22.3556 61.0581 22.3556C61.0581 22.3556 61.9961 22.9436 63.0741 22.7476C64.1521 22.5516 65.0201 22.0756 65.0201 22.0756L64.8661 19.2476H64.8521Z" fill="#231F20" style="fill:#231F20;fill:color(display-p3 0.1373 0.1216 0.1255);fill-opacity:1;"/>
<path d="M73.1962 25.6181C73.1962 25.6181 72.6082 24.9181 71.4182 24.9461C70.2282 24.9741 69.2062 25.6461 69.2062 25.6461C69.2062 25.6461 70.4522 25.6041 71.0542 25.7301C71.6562 25.8561 72.6922 26.4161 72.6922 26.4161C72.6922 26.4161 71.6142 26.3321 71.0122 26.3461C70.4102 26.3601 68.6182 26.7241 68.6182 26.7241C68.6182 26.7241 69.8922 27.0181 70.5922 27.1441C71.2922 27.2701 72.3282 27.2001 72.3282 27.2001C72.3282 27.2001 71.6562 27.6621 71.1242 27.7181C70.5922 27.7741 69.2482 27.6761 69.2482 27.6761C69.2482 27.6761 69.9762 28.3761 70.9562 28.3901C71.9362 28.4041 72.8042 28.1521 72.8042 28.1521L73.1822 25.6181H73.1962Z" fill="#231F20" style="fill:#231F20;fill:color(display-p3 0.1373 0.1216 0.1255);fill-opacity:1;"/>
<path d="M35.13 52.0081C35.13 52.0081 31.518 54.0381 28.564 54.7521C25.61 55.4661 23.538 55.6621 20.444 55.8301C16.552 56.0261 14.06 55.1021 14.06 55.1021C14.06 55.1021 13.36 52.4561 13.234 50.6501C13.122 48.8301 13.402 48.0041 13.402 48.0041C13.402 48.0041 14.956 47.0941 16.062 46.7861C17.168 46.4781 18.316 46.4361 18.316 46.4361L19.366 50.7341C19.366 50.7341 25.596 50.0901 27.332 49.7121C29.068 49.3341 30.748 48.5221 30.748 48.5221L30.006 44.1821C30.006 44.1821 32.498 43.7061 33.24 43.7481C33.982 43.7901 35.13 44.1681 35.13 44.1681C35.13 44.1681 35.9 46.7021 36.278 48.3401C36.656 49.9781 36.586 51.0141 36.586 51.0141L35.158 52.0221L35.13 52.0081Z" fill="#C01327" style="fill:#C01327;fill:color(display-p3 0.7529 0.0745 0.1529);fill-opacity:1;"/>
<path d="M20.6118 56.3484C21.9418 62.1304 23.4818 68.9344 23.4818 68.9344C23.4818 68.9344 26.9398 69.0324 29.7538 68.5984C32.5818 68.1644 35.3678 67.3524 35.2698 67.0164C35.1998 66.8064 33.3378 59.5264 31.9238 54.0104" fill="#DEA88E" style="fill:#DEA88E;fill:color(display-p3 0.8706 0.6588 0.5569);fill-opacity:1;"/>
<path d="M30.9578 48.0591C30.7618 47.2751 30.6358 46.8131 30.6358 46.8131C30.6358 46.8131 30.2298 43.8031 30.4258 42.9911C30.6218 42.1791 31.9518 40.8351 32.3158 39.0571C32.6658 37.2791 31.6858 35.6411 31.6578 34.0871C31.6298 32.5331 32.6938 30.9791 33.4918 30.2651C34.2898 29.5511 37.6638 29.3971 38.1118 28.2351C38.5598 27.0731 37.7898 25.4771 36.6978 24.9871C35.6058 24.4971 34.5838 24.7351 32.9878 25.2531C31.7278 25.6591 30.1318 26.7231 30.1318 26.7231C30.1318 26.7231 29.1938 19.4291 27.8358 13.7591C26.4778 8.08912 25.4558 3.41311 23.2718 3.83311C21.0878 4.25311 21.9698 7.86511 22.3058 10.3431C22.6418 12.8211 23.4538 19.1351 23.4538 19.1351C23.4538 19.1351 18.4838 8.22912 17.6438 6.46512C16.8038 4.70112 15.2638 0.431115 12.9118 1.49511C10.8118 2.44711 12.3098 5.66712 13.7238 10.1191C15.1518 14.5711 16.8598 20.5071 16.8598 20.5071C16.8598 20.5071 12.9538 13.8011 10.9518 11.5611C8.94982 9.32112 7.24182 7.57111 5.96782 8.43911C4.13382 9.67111 5.58983 12.1771 7.66183 15.7611C9.73383 19.3451 12.7998 24.9031 12.7298 24.6511C12.6598 24.3991 7.01783 18.9391 5.63183 18.0851C4.24583 17.2311 2.85983 16.6571 2.13183 17.5391C1.40383 18.4211 2.50983 20.7451 4.44183 22.7191C6.37383 24.6931 7.04582 25.9531 8.06782 27.3951C9.08982 28.8371 10.7978 34.1991 12.2538 38.1751C13.7098 42.1511 14.4518 43.0191 16.2158 44.2231C17.9798 45.4271 18.7078 45.9311 19.0438 47.3031C19.1138 47.5971 19.3658 48.6891 19.7298 50.2291" fill="#DEA88E" style="fill:#DEA88E;fill:color(display-p3 0.8706 0.6588 0.5569);fill-opacity:1;"/>
<path d="M31.6439 47.6539C31.5599 47.3179 31.4899 46.9819 31.3919 46.6599C31.2799 46.2959 31.3639 46.6179 31.3499 46.6179C31.2939 46.2679 31.2659 45.8899 31.2239 45.5399C31.1399 44.7559 30.9019 43.5659 31.1959 42.9079C31.7419 41.6619 32.6659 40.6819 32.9739 39.3099C33.3519 37.6299 32.7079 36.1599 32.4419 34.5359C32.2319 33.2899 32.8619 31.4279 33.9959 30.7699C34.8499 30.2799 35.9979 30.2239 36.9219 29.8879C37.8879 29.5239 38.7279 29.0059 38.9239 27.9139C39.1619 26.6119 38.5459 25.1979 37.5239 24.3859C35.1999 22.5379 31.5459 24.3579 29.4319 25.7579L30.8459 26.5699C30.0059 20.0599 28.9279 13.3959 26.9119 7.13793C26.2819 5.17793 24.6859 1.34194 21.9559 3.11994C20.7519 3.90394 20.6259 5.51394 20.6959 6.81594C20.7799 8.27194 21.0739 9.72794 21.2699 11.1699C21.6199 13.7739 21.9559 16.3779 22.2919 18.9959L24.0559 18.5199C22.1659 14.3759 20.3039 10.2179 18.3579 6.10193C17.3919 4.04393 15.9639 -0.296069 12.9399 0.291931C8.71194 1.11793 11.6099 7.23593 12.3799 9.58793C13.5699 13.2419 14.6619 16.9239 15.7259 20.6199L17.4479 19.8919C15.1659 15.9719 12.7999 11.8559 9.45393 8.73393C8.50193 7.85193 7.19993 6.81593 5.79993 7.23593C4.60993 7.58593 3.92394 8.81793 3.96594 10.0079C4.02194 11.4499 4.80594 12.8499 5.47794 14.0819C6.33194 15.6499 7.25593 17.2039 8.13793 18.7579C8.97793 20.2419 9.81794 21.7259 10.6579 23.2239C11.0359 23.8819 11.3999 24.8759 12.0299 25.3519C12.7719 25.8979 13.5279 24.9879 13.4159 24.2879C13.3039 23.5879 12.0719 22.6919 11.6099 22.2439C10.4479 21.0959 9.25793 19.9759 8.02593 18.8839C6.89193 17.8759 5.77194 16.9239 4.34394 16.3639C3.33594 15.9579 2.14594 15.8459 1.31994 16.6719C0.731938 17.2599 0.647937 18.0719 0.815937 18.8419C1.27794 21.1379 3.19592 22.7759 4.65192 24.4699C5.77192 25.7859 6.91994 27.3119 7.64794 28.8939C9.53794 32.9959 10.4339 37.5179 12.4779 41.5499C13.2619 43.1039 14.3819 44.1399 15.8099 45.1059C16.6919 45.7079 17.6019 46.2539 17.9099 47.3319C18.2039 48.3259 18.3859 49.3619 18.6239 50.3699C18.9039 51.5599 20.7239 51.0559 20.4439 49.8659C20.0939 48.3819 19.9399 46.5199 18.9459 45.2739C17.9519 44.0279 16.4259 43.4679 15.3339 42.3759C14.1999 41.2419 13.6259 39.6039 13.0799 38.1339C12.3099 36.0479 11.5959 33.9479 10.8399 31.8619C10.2659 30.2799 9.73393 28.5859 8.87993 27.1299C8.01193 25.6459 6.93393 24.2039 5.81393 22.9159C5.04393 22.0339 4.18993 21.2499 3.54593 20.2699C3.29393 19.8919 2.36993 18.5899 2.66393 18.0859C3.13993 17.2599 5.44994 19.1219 6.02394 19.6119C7.28394 20.6759 8.48793 21.8239 9.66393 22.9579C10.1679 23.4479 10.6719 23.9379 11.1759 24.4419C11.3299 24.5959 11.4699 24.7499 11.6239 24.9039C11.9179 25.1979 11.6799 25.0439 11.6379 24.8059L13.0239 23.7419C13.5839 24.1479 13.3039 24.0079 13.0939 23.6439C12.8839 23.2799 12.7019 22.9579 12.5059 22.6219C11.9039 21.5579 11.3159 20.5079 10.7139 19.4439C9.25793 16.8679 7.56394 14.3479 6.37394 11.6459C6.10794 11.0439 5.44994 9.64393 6.26194 9.15393C7.12994 8.63593 8.66992 10.5819 9.15992 11.1139C10.7419 12.7939 12.0159 14.6699 13.2619 16.6159C14.1579 18.0299 15.0259 19.4439 15.8659 20.8859C16.3979 21.7959 17.8959 21.1939 17.5879 20.1579C16.7899 17.3999 15.9779 14.6559 15.1239 11.9119C14.4939 9.86794 13.7799 7.86594 13.1499 5.82194C12.9119 5.03794 12.0299 2.86793 13.0519 2.29393C14.7179 1.35593 16.4119 6.33993 16.9019 7.38993C17.9239 9.58793 18.9319 11.8139 19.9539 14.0259C20.7939 15.8599 21.6339 17.6939 22.4599 19.5279C22.8379 20.3539 24.3359 19.9759 24.2239 19.0519C23.9719 17.1199 23.7199 15.2019 23.4679 13.2699C23.3139 12.0379 23.1599 10.8059 22.9779 9.57394C22.7959 8.34194 22.4459 6.89994 22.6559 5.61194C22.7819 4.79994 23.3139 4.33793 23.9019 5.00993C24.6999 5.91993 25.0499 7.33394 25.3719 8.46794C26.4219 12.0239 27.2059 15.6919 27.8639 19.3459C28.1719 21.0679 28.4519 22.8039 28.7179 24.5399C28.8019 25.0719 28.8719 25.6039 28.9419 26.1359C28.9419 26.2059 29.0119 26.6959 28.9839 26.4439C28.9839 26.5139 28.9979 26.5699 29.0119 26.6399C29.0959 27.2839 29.7679 27.8999 30.4259 27.4519C31.2519 26.9059 32.1339 26.4019 33.0579 26.0799C34.1639 25.7019 35.8299 25.1139 36.6979 26.2479C36.9499 26.5839 37.3139 27.3259 37.0759 27.7459C36.9219 28.0259 36.4599 28.1379 36.1799 28.2359C35.2559 28.5439 34.2759 28.6839 33.3939 29.0759C32.3999 29.5099 31.6859 30.5039 31.2099 31.4419C30.5379 32.7719 30.4259 34.0879 30.7619 35.5299C31.1259 37.0839 31.5599 38.4279 30.8319 39.9539C30.3839 40.8919 29.5579 41.7459 29.3339 42.7819C29.1239 43.7339 29.3059 44.8399 29.4179 45.7919C29.5019 46.6319 29.6699 47.4159 29.8799 48.2419C30.1739 49.4179 32.0079 48.9139 31.6999 47.7379L31.6439 47.6539Z" fill="#231F20" style="fill:#231F20;fill:color(display-p3 0.1373 0.1216 0.1255);fill-opacity:1;"/>
<path d="M19.8 56.4178C20.766 60.6178 21.7181 64.8038 22.6701 69.0038C22.7681 69.4098 23.174 69.6898 23.58 69.7038C25.106 69.7458 26.646 69.7038 28.172 69.5638C30.454 69.3678 32.876 68.9898 35.018 68.1638C35.676 67.9118 36.39 67.5478 36.306 66.7218C36.278 66.4138 36.1661 66.1058 36.0821 65.8118C35.6761 64.2298 35.256 62.6338 34.85 61.0518C34.206 58.5738 33.576 56.0818 32.946 53.6038C32.638 52.4278 30.818 52.9318 31.126 54.1078C32.078 57.8178 33.0161 61.5138 33.9821 65.2238C34.1081 65.7138 34.234 66.1898 34.36 66.6798C34.374 66.7498 34.4021 66.9738 34.4581 67.0298C34.5421 67.1138 34.2761 67.8838 34.5701 66.6938C34.6961 66.1758 34.836 66.2318 34.542 66.3438C32.596 67.0438 30.496 67.4638 28.438 67.6598C26.842 67.8138 25.2181 67.8698 23.6081 67.8278L24.518 68.5278C23.566 64.3278 22.6001 60.1418 21.6481 55.9418C21.3821 54.7518 19.5621 55.2558 19.8281 56.4458L19.8 56.4178Z" fill="#231F20" style="fill:#231F20;fill:color(display-p3 0.1373 0.1216 0.1255);fill-opacity:1;"/>
<path d="M16.8179 47.7796C16.1319 48.0176 15.0819 48.3257 14.8719 49.1377C14.6899 49.8657 15.2919 50.4537 15.8939 50.7197C17.2659 51.3357 19.1139 51.1676 20.5699 51.1256C24.6999 50.9856 29.2639 50.3557 32.8339 48.1437C33.7019 47.5977 34.5279 46.8837 34.1079 45.7497C33.7579 44.7977 32.7499 44.8256 31.8819 44.8256C31.2799 44.8256 31.2799 45.7776 31.8819 45.7636C32.2739 45.7636 32.9459 45.6376 33.1979 46.0016C33.6319 46.6316 32.5959 47.1777 32.1619 47.4437C31.3359 47.9337 30.4399 48.3257 29.5299 48.6477C27.6679 49.3057 25.7219 49.6976 23.7759 49.9216C22.1379 50.1176 20.4719 50.2157 18.8199 50.1877C18.2319 50.1877 17.6159 50.1736 17.0279 50.0756C16.7059 50.0196 15.9079 49.8936 15.8099 49.5016C15.6979 49.0536 16.7899 48.7736 17.0559 48.6756C17.6299 48.4796 17.3779 47.5697 16.8039 47.7657L16.8179 47.7796Z" fill="#231F20" style="fill:#231F20;fill:color(display-p3 0.1373 0.1216 0.1255);fill-opacity:1;"/>
<path d="M17.9518 45.7773C16.2858 45.9733 14.1998 46.4773 12.8698 47.5413C12.4498 47.8773 12.4498 48.2553 12.4358 48.7453C12.4218 49.9353 12.5618 51.1393 12.7578 52.3153C12.9258 53.2953 13.1638 55.1013 14.1438 55.6893C14.8578 56.1093 15.9918 56.1513 16.7758 56.2633C21.7038 56.9213 27.0378 56.2633 31.6298 54.3593C33.1838 53.7153 34.6818 52.9453 36.0398 51.9653C36.7818 51.4333 37.2578 51.1813 37.1178 50.2153C36.9638 49.0673 36.7958 47.9193 36.5298 46.7993C36.3758 46.1693 36.1658 45.5673 35.9698 44.9653C35.8438 44.5873 35.7738 44.0553 35.5498 43.7053C35.1158 43.0193 33.7438 43.0473 33.0578 43.0613C32.1198 43.1033 31.1538 43.2153 30.2158 43.3833C29.2778 43.5513 29.6978 44.9093 30.5938 44.7553C31.7278 44.5453 33.5758 44.1393 34.5838 44.6713L34.2618 44.2513C34.9478 46.4073 35.5078 48.4933 35.7738 50.7473L35.9838 50.2433C33.2678 52.6653 29.1378 54.0233 25.5678 54.6253C22.7678 55.1013 19.8558 55.2553 17.0418 54.8913C16.3838 54.8073 15.7258 54.6953 15.0958 54.5273C15.0118 54.4993 14.8018 54.4013 14.7178 54.4153C14.6198 54.4433 14.8998 54.5273 14.9138 54.5273C14.9558 54.5273 14.9418 54.5273 14.9418 54.5553C14.8998 54.2753 14.6058 53.9113 14.5078 53.6313C14.2418 52.8193 14.1018 51.9793 14.0038 51.1393C13.8918 50.1873 13.7658 49.1653 13.8778 48.2133L13.6678 48.7173C13.4438 48.8853 13.6958 48.6893 13.7378 48.6753C13.8918 48.6193 14.0318 48.4933 14.1718 48.4093C14.7598 48.0873 15.3898 47.8633 16.0338 47.6813C16.5098 47.5413 16.9858 47.4153 17.4758 47.3033C17.5878 47.2753 18.1198 47.1913 17.9518 47.2053C18.8478 47.0933 18.8618 45.6793 17.9518 45.7913V45.7773Z" fill="#231F20" style="fill:#231F20;fill:color(display-p3 0.1373 0.1216 0.1255);fill-opacity:1;"/>
<path d="M15.7119 49.7395C15.7119 49.7395 16.2579 49.4175 17.2099 49.0815C18.4139 48.6475 18.9879 48.5635 18.9879 48.5635L19.3519 50.7195C19.3519 50.7195 18.4839 50.9015 17.2799 50.5935C16.0759 50.2855 15.7119 49.7535 15.7119 49.7535V49.7395Z" fill="#231F20" style="fill:#231F20;fill:color(display-p3 0.1373 0.1216 0.1255);fill-opacity:1;"/>
<path d="M30.7899 46.2671C30.7899 46.2671 31.4199 46.1971 32.2459 46.1691C32.8899 46.1411 33.7439 46.2391 33.7439 46.2391C33.7439 46.2391 33.9119 46.7851 33.2819 47.2611C32.6519 47.7371 32.4419 47.9471 31.9239 48.1151C31.4059 48.2831 31.0279 48.4931 31.0279 48.4931L30.7759 46.2531L30.7899 46.2671Z" fill="#231F20" style="fill:#231F20;fill:color(display-p3 0.1373 0.1216 0.1255);fill-opacity:1;"/>
<path d="M19.3658 47.6956C19.3658 47.6956 21.7318 48.1436 24.0138 48.3396C26.2958 48.5356 30.7338 47.9056 30.7338 47.9056L31.0558 48.4936C31.0558 48.4936 29.0538 49.5996 25.3298 50.1316C21.6058 50.6636 19.4918 50.0476 19.4918 50.0476L19.3518 47.6816L19.3658 47.6956Z" fill="#231F20" style="fill:#231F20;fill:color(display-p3 0.1373 0.1216 0.1255);fill-opacity:1;"/>
<path d="M12.1281 27.7033C12.1281 27.7033 10.8401 25.3373 12.3101 24.3993C13.7801 23.4613 14.9001 24.8613 15.0821 25.7293C15.2641 26.5973 14.8581 27.8433 14.8581 27.8433L16.7761 33.4293L13.9201 27.7733C13.9201 27.7733 14.2841 26.8773 13.7801 26.0093C13.2761 25.1413 12.5761 25.4213 12.3521 26.0513C12.1981 26.4993 12.1421 27.6893 12.1421 27.6893L12.1281 27.7033Z" fill="#231F20" style="fill:#231F20;fill:color(display-p3 0.1373 0.1216 0.1255);fill-opacity:1;"/>
<path d="M16.1879 23.8123C16.1879 23.8123 14.8999 21.4463 16.3699 20.5083C17.8399 19.5703 18.9599 20.9703 19.1419 21.8383C19.3239 22.7063 18.9179 23.9523 18.9179 23.9523L20.8359 29.5383L17.9799 23.8823C17.9799 23.8823 18.3439 22.9863 17.8399 22.1183C17.3359 21.2503 16.6359 21.5303 16.4119 22.1603C16.2579 22.6083 16.2019 23.7983 16.2019 23.7983L16.1879 23.8123Z" fill="#231F20" style="fill:#231F20;fill:color(display-p3 0.1373 0.1216 0.1255);fill-opacity:1;"/>
<path d="M22.2919 22.1881C22.2919 22.1881 21.452 19.6261 23.048 18.9681C24.644 18.3101 25.512 19.8921 25.54 20.7741C25.568 21.6561 24.9519 22.8041 24.9519 22.8041L25.848 28.6421L24.028 22.5661C24.028 22.5661 24.5459 21.7401 24.1959 20.8161C23.8459 19.8921 23.1179 20.0321 22.7959 20.6061C22.5719 21.0121 22.2919 22.1881 22.2919 22.1881Z" fill="#231F20" style="fill:#231F20;fill:color(display-p3 0.1373 0.1216 0.1255);fill-opacity:1;"/>
<path d="M8.22183 20.5363C8.22183 20.5363 7.60584 20.5083 7.08784 21.1243C6.56984 21.7403 6.44385 22.5383 6.44385 22.5383C6.44385 22.5383 6.97584 21.8943 7.31184 21.6563C7.64784 21.4183 8.38985 21.1523 8.38985 21.1523C8.38985 21.1523 7.85783 21.6563 7.60583 21.9503C7.35383 22.2443 6.72384 23.3083 6.72384 23.3083C6.72384 23.3083 7.43784 22.8043 7.81584 22.5243C8.19384 22.2443 8.61383 21.6843 8.61383 21.6843C8.61383 21.6843 8.54383 22.2303 8.33383 22.5103C8.12383 22.7903 7.46584 23.4203 7.46584 23.4203C7.46584 23.4203 8.13785 23.3643 8.58585 22.9023C9.03385 22.4403 9.29984 21.8803 9.29984 21.8803L8.22183 20.5503V20.5363Z" fill="#231F20" style="fill:#231F20;fill:color(display-p3 0.1373 0.1216 0.1255);fill-opacity:1;"/>
<path d="M12.5059 14.6002C12.5059 14.6002 11.8059 14.4462 11.0639 15.0342C10.3219 15.6222 10.0139 16.5322 10.0139 16.5322C10.0139 16.5322 10.7699 15.9022 11.2179 15.6922C11.6659 15.4822 12.5759 15.3422 12.5759 15.3422C12.5759 15.3422 11.8619 15.8042 11.4839 16.0982C11.1059 16.3922 10.1679 17.4702 10.1679 17.4702C10.1679 17.4702 11.1059 17.0362 11.6099 16.7982C12.1139 16.5602 12.7299 16.0002 12.7299 16.0002C12.7299 16.0002 12.5339 16.6162 12.2259 16.9102C11.9179 17.2042 11.0219 17.7782 11.0219 17.7782C11.0219 17.7782 11.8059 17.8622 12.4359 17.4142C13.0659 16.9662 13.4859 16.3782 13.4859 16.3782L12.5199 14.6002H12.5059Z" fill="#231F20" style="fill:#231F20;fill:color(display-p3 0.1373 0.1216 0.1255);fill-opacity:1;"/>
<path d="M18.9177 10.3438C18.9177 10.3438 18.1197 10.0498 17.1677 10.6238C16.2157 11.1978 15.6978 12.2058 15.6978 12.2058C15.6978 12.2058 16.6777 11.6038 17.2237 11.4218C17.7697 11.2398 18.8617 11.2118 18.8617 11.2118C18.8617 11.2118 17.9517 11.6458 17.4757 11.9258C16.9997 12.2058 15.7257 13.3258 15.7257 13.3258C15.7257 13.3258 16.8877 12.9758 17.5037 12.7658C18.1197 12.5558 18.9318 12.0098 18.9318 12.0098C18.9318 12.0098 18.5957 12.6958 18.2037 12.9898C17.8117 13.2838 16.6777 13.8158 16.6777 13.8158C16.6777 13.8158 17.5878 14.0398 18.3858 13.6198C19.1838 13.1998 19.7717 12.5838 19.7717 12.5838L18.9177 10.3578V10.3438Z" fill="#231F20" style="fill:#231F20;fill:color(display-p3 0.1373 0.1216 0.1255);fill-opacity:1;"/>
<path d="M27.22 13.2973C27.22 13.2973 26.576 12.8913 25.624 13.2133C24.672 13.5353 24.028 14.3473 24.028 14.3473C24.028 14.3473 25.008 13.9973 25.526 13.9413C26.044 13.8853 27.01 14.0673 27.01 14.0673C27.01 14.0673 26.128 14.2773 25.652 14.4453C25.176 14.6133 23.832 15.3553 23.832 15.3553C23.832 15.3553 24.924 15.2573 25.512 15.1873C26.1 15.1173 26.912 14.7813 26.912 14.7813C26.912 14.7813 26.492 15.3273 26.086 15.5093C25.68 15.6913 24.574 15.9573 24.574 15.9573C24.574 15.9573 25.33 16.3213 26.128 16.0973C26.926 15.8733 27.556 15.4393 27.556 15.4393L27.22 13.3113V13.2973Z" fill="#231F20" style="fill:#231F20;fill:color(display-p3 0.1373 0.1216 0.1255);fill-opacity:1;"/>
<path d="M118.29 70.1806C118.29 70.1806 113.754 72.1126 110.156 72.5746C106.558 73.0366 104.08 72.9946 100.398 72.7846C95.778 72.5046 92.936 71.0766 92.936 71.0766C92.936 71.0766 92.446 67.8566 92.544 65.7006C92.642 63.5446 93.09 62.5926 93.09 62.5926C93.09 62.5926 95.05 61.7106 96.408 61.5006C97.766 61.2906 99.1099 61.3746 99.1099 61.3746L99.796 66.5966C99.796 66.5966 107.244 66.6386 109.344 66.4286C111.444 66.2186 113.544 65.4766 113.544 65.4766L113.236 60.2406C113.236 60.2406 116.246 60.0026 117.128 60.1426C118.01 60.2826 119.312 60.8846 119.312 60.8846C119.312 60.8846 119.886 63.9786 120.124 65.9666C120.362 67.9546 120.124 69.1726 120.124 69.1726L118.29 70.1806Z" fill="#C01327" style="fill:#C01327;fill:color(display-p3 0.7529 0.0745 0.1529);fill-opacity:1;"/>
<path d="M100.552 73.4283C101.364 80.4423 102.316 88.7023 102.316 88.7023C102.316 88.7023 106.39 89.2763 109.792 89.1223C113.194 88.9683 116.61 88.3803 116.526 87.9743C116.47 87.7223 115.21 78.8463 114.272 72.1543" fill="#B7763A" style="fill:#B7763A;fill:color(display-p3 0.7176 0.4627 0.2275);fill-opacity:1;"/>
<path d="M89.436 37.5185C89.898 39.6465 91.788 45.9325 92.992 50.8325C94.196 55.7325 94.966 56.8665 96.898 58.5045C98.844 60.1425 99.614 60.8425 99.852 62.5085C99.894 62.8585 100.062 64.1884 100.286 66.0644L113.866 64.9725C113.726 64.0205 113.656 63.4604 113.656 63.4604C113.656 63.4604 113.572 59.8344 113.908 58.9104C114.258 57.9864 116.008 56.5585 116.652 54.5005C117.31 52.4425 116.358 50.3845 116.512 48.5365C116.666 46.6885 118.15 44.9944 119.172 44.2524C120.194 43.5104 124.212 43.7625 124.912 42.4465C125.612 41.1305 124.884 39.1285 123.666 38.4145C122.448 37.7005 121.188 37.8405 119.242 38.2325C117.702 38.5405 115.658 39.6045 115.658 39.6045C115.658 39.6045 115.49 30.8545 114.636 23.9665C113.782 17.0785 113.166 11.4085 110.534 11.6185C107.902 11.8285 108.462 16.2105 108.532 19.1925C108.602 22.1745 108.742 29.7485 108.742 29.7485C108.742 29.7485 104.29 16.1965 103.52 13.9845C102.75 11.7865 101.49 6.53646 98.564 7.48846C95.946 8.34246 97.304 12.3465 98.396 17.8065C99.502 23.2665 100.748 30.5045 100.748 30.5045C100.748 30.5045 98.48 28.3905 96.52 29.2445C94.56 30.0985 95.246 34.7605 95.246 34.7605C95.246 34.7605 92.544 31.7925 90.864 32.5625C88.022 33.8645 89.422 37.5185 89.422 37.5185" fill="#B7763A" style="fill:#B7763A;fill:color(display-p3 0.7176 0.4627 0.2275);fill-opacity:1;"/>
<path d="M114.706 64.4542C114.65 64.0202 114.58 63.6002 114.524 63.1662C114.454 62.6902 114.51 63.4042 114.524 63.1382C114.566 62.7042 114.524 62.2282 114.524 61.7942C114.524 60.8282 114.44 59.4982 114.888 58.7982C115.756 57.4542 116.848 56.3902 117.408 54.8362C118.178 52.7082 117.282 50.7342 117.38 48.5922C117.436 47.2622 118.486 45.4422 119.69 44.8682C120.684 44.4062 122.126 44.4762 123.218 44.2242C124.534 43.9162 125.682 43.3002 125.976 41.8722C126.298 40.3322 125.682 38.5822 124.492 37.5602C122.98 36.2862 120.992 36.4822 119.186 36.8182C117.674 37.0982 116.232 37.6862 114.86 38.3862L116.554 39.3522C116.4 31.6522 115.924 23.7982 114.468 16.2242C113.992 13.7882 112.536 8.58018 108.938 10.6242C107.468 11.4502 107.174 13.3402 107.104 14.8662C107.006 16.6022 107.174 18.3522 107.202 20.0882C107.272 23.2242 107.328 26.3602 107.384 29.4962L109.596 29.2022C107.902 24.0502 106.236 18.8842 104.472 13.7462C103.576 11.1142 102.442 5.64018 98.6758 6.04618C93.6498 6.59218 96.3238 14.2082 96.9258 17.0782C97.8638 21.5582 98.6618 26.0662 99.4458 30.5602L101.322 29.4682C99.6978 28.0262 96.9538 26.9902 95.2318 28.8522C93.9998 30.1682 93.7898 32.3942 93.8878 34.1162L95.8058 33.3182C94.0978 31.5822 91.1158 30.2942 89.1278 32.3522C87.4478 34.1022 87.8818 36.6782 88.4418 38.7922C89.4078 42.4322 90.4578 46.0582 91.3818 49.6982C92.1098 52.5402 92.6698 55.6902 94.7138 57.9442C95.7358 59.0642 97.1918 59.8482 98.0458 61.1222C98.2558 61.4302 98.3678 61.7522 98.4518 62.1162C98.4798 62.2562 98.5078 62.4102 98.5218 62.5502C98.4658 62.2422 98.5218 62.6342 98.5358 62.6902C98.6618 63.7262 98.7878 64.7622 98.9138 65.7982C99.0818 67.2122 101.336 67.2402 101.168 65.7982C101 64.3562 100.93 62.9842 100.65 61.6262C100.37 60.2682 99.5158 59.2602 98.5078 58.3502C97.6678 57.5942 96.7018 56.9082 96.0018 55.9982C95.3018 55.0882 94.9378 54.0942 94.6158 53.0722C93.5098 49.6002 92.7398 45.9742 91.7738 42.4602C91.3678 41.0042 90.9618 39.5482 90.5838 38.0922C90.3738 37.2942 90.2058 36.6922 90.1778 36.0062C90.1498 34.9702 90.4578 33.3602 91.8298 33.5142C92.7258 33.6122 93.6078 34.2842 94.2098 34.9002C94.8678 35.5722 96.1838 35.0962 96.1278 34.1022C96.0718 33.0242 96.1278 31.7642 96.6038 30.7842C97.2898 29.3982 99.0398 30.4202 99.7258 31.0502C100.594 31.8342 101.798 31.0502 101.602 29.9582C101.014 26.5842 100.412 23.2242 99.7538 19.8642C99.2638 17.3582 98.6758 14.8662 98.2138 12.3602C98.0318 11.3802 97.4018 8.91618 98.5358 8.37018C100.608 7.36218 101.952 13.3122 102.372 14.5442C103.296 17.2742 104.192 20.0182 105.102 22.7482C105.872 25.1002 106.656 27.4522 107.426 29.8042C107.804 30.9662 109.652 30.8262 109.638 29.5102C109.596 27.1162 109.554 24.7362 109.498 22.3422C109.47 20.8862 109.456 19.4302 109.386 17.9602C109.33 16.4482 109.064 14.6142 109.638 13.1582C109.792 12.7522 109.988 12.5142 110.422 12.4722C110.59 12.4582 110.758 12.5422 110.996 12.8502C111.92 14.0262 112.13 15.9162 112.396 17.3302C113.166 21.6142 113.6 25.9962 113.894 30.3502C114.104 33.3462 114.244 36.3422 114.3 39.3522C114.314 40.2342 115.238 40.7102 115.994 40.3182C117.002 39.8002 118.08 39.3382 119.186 39.0862C120.418 38.8062 122.364 38.3302 123.302 39.5202C123.652 39.9682 123.876 40.6122 123.82 41.1862C123.764 41.6762 123.638 41.7462 123.162 41.9002C122.014 42.2782 120.782 42.2922 119.606 42.5582C116.722 43.2022 114.902 46.7302 115.154 49.4882C115.336 51.3922 115.868 53.1702 114.874 54.9482C114.23 56.0962 113.11 57.0202 112.62 58.2382C112.172 59.3582 112.256 60.7722 112.256 61.9622C112.256 63.0122 112.368 63.9922 112.522 65.0282C112.606 65.6302 113.376 65.9522 113.908 65.8122C114.552 65.6442 114.776 65.0282 114.692 64.4262L114.706 64.4542Z" fill="#231F20" style="fill:#231F20;fill:color(display-p3 0.1373 0.1216 0.1255);fill-opacity:1;"/>
<path d="M99.5718 73.2181C100.16 78.3141 100.748 83.3961 101.336 88.4921C101.392 88.9401 101.644 89.5001 102.162 89.5701C104.038 89.8221 105.928 89.9901 107.832 90.0461C110.576 90.1161 113.586 89.9901 116.246 89.2341C117.142 88.9821 117.898 88.5201 117.758 87.4701C117.716 87.1481 117.66 86.8121 117.618 86.4901C117.338 84.5441 117.058 82.5981 116.778 80.6661C116.344 77.6561 115.924 74.6601 115.504 71.6501C115.42 71.0481 114.65 70.7261 114.118 70.8661C113.474 71.0341 113.25 71.6501 113.334 72.2521C113.964 76.7181 114.594 81.1841 115.238 85.6361C115.322 86.2381 115.406 86.8541 115.504 87.4561C115.518 87.5821 115.504 87.8061 115.574 87.9181C115.574 87.9461 115.574 88.0161 115.588 88.0441C115.826 88.3101 115.742 86.7281 115.98 86.9661C115.966 86.9521 115.896 87.0081 115.882 87.0081C115.518 87.0081 115.042 87.2321 114.678 87.2881C114.062 87.4001 113.446 87.4981 112.83 87.5681C111.416 87.7221 109.974 87.8341 108.546 87.8201C107.23 87.8201 105.914 87.7361 104.598 87.6101C104.108 87.5681 103.618 87.5121 103.128 87.4561C102.96 87.4421 102.274 87.3441 102.778 87.4141L103.604 88.4921C103.016 83.3961 102.428 78.3141 101.84 73.2181C101.77 72.6161 101.378 72.0981 100.72 72.0981C100.16 72.0981 99.5298 72.6161 99.5998 73.2181H99.5718Z" fill="#231F20" style="fill:#231F20;fill:color(display-p3 0.1373 0.1216 0.1255);fill-opacity:1;"/>
<path d="M97.1078 62.802C96.2538 62.984 94.9238 63.25 94.6438 64.258C94.4058 65.154 95.1618 65.91 95.8758 66.274C97.4718 67.072 99.5578 67.128 101.294 67.254C106.194 67.618 111.64 67.436 116.134 65.294C117.24 64.762 118.29 63.936 117.856 62.55C117.506 61.43 116.274 61.374 115.308 61.276C114.594 61.206 114.594 62.326 115.308 62.396C115.7 62.438 116.414 62.396 116.708 62.718C117.324 63.362 116.26 63.978 115.784 64.216C114.734 64.734 113.628 65.112 112.494 65.392C110.1 65.994 107.622 66.218 105.158 66.246C103.114 66.274 101.056 66.162 99.0258 65.896C98.2698 65.798 97.4858 65.7 96.7718 65.434C96.4918 65.322 95.6098 64.986 95.7218 64.552C95.8338 64.118 97.0378 63.964 97.3878 63.88C98.0878 63.726 97.7938 62.648 97.0938 62.802H97.1078Z" fill="#231F20" style="fill:#231F20;fill:color(display-p3 0.1373 0.1216 0.1255);fill-opacity:1;"/>
<path d="M98.6897 60.5618C97.7937 60.5618 96.8697 60.7298 95.9877 60.8838C94.8397 61.0938 93.4817 61.3598 92.4877 62.0178C91.9277 62.3958 91.9277 62.8857 91.8577 63.5017C91.6897 64.9157 91.6897 66.3718 91.8017 67.7998C91.8857 68.9338 91.9417 70.9918 92.9777 71.7898C93.7197 72.3638 94.9937 72.5738 95.8617 72.7838C101.518 74.2118 107.818 74.1558 113.432 72.6298C115.462 72.0698 117.45 71.3138 119.298 70.3057C119.676 70.0957 120.082 69.8858 120.432 69.6338C120.908 69.2698 120.922 68.8918 120.908 68.3458C120.88 66.9878 120.824 65.6298 120.656 64.2858C120.558 63.5298 120.404 62.8018 120.25 62.0598C120.152 61.5418 120.124 60.8978 119.9 60.4218C119.494 59.5678 117.968 59.4138 117.17 59.3438C116.05 59.2318 114.888 59.2598 113.768 59.3438C112.648 59.4278 112.69 61.1078 113.768 61.0238C114.524 60.9678 115.294 60.9818 116.064 60.9958C116.904 60.9958 117.968 60.9958 118.71 61.4858L118.318 60.9818C118.85 63.6278 119.214 66.1618 119.228 68.8638L119.648 68.1358C118.57 68.9058 117.324 69.4798 116.106 69.9698C112.858 71.2858 109.386 71.9438 105.9 72.0698C102.694 72.1818 99.4317 71.9718 96.3097 71.1738C95.5677 70.9918 94.8397 70.7538 94.1117 70.4878C94.0417 70.4598 93.9577 70.4038 93.8737 70.3898C94.1817 70.4458 93.9577 70.4598 93.9297 70.4038C94.0277 70.5578 94.0837 70.5998 94.0557 70.4738C93.7057 69.2978 93.4677 68.0238 93.4397 66.6938C93.4117 65.5038 93.3557 64.1878 93.6357 63.0118L93.2437 63.5158C94.7697 62.5778 96.9257 62.2418 98.6897 62.2278C99.7677 62.2278 99.7817 60.5338 98.6897 60.5478V60.5618Z" fill="#231F20" style="fill:#231F20;fill:color(display-p3 0.1373 0.1216 0.1255);fill-opacity:1;"/>
<path d="M95.6099 64.9722C95.6099 64.9722 96.2959 64.6642 97.4719 64.3842C98.9559 64.0342 99.6419 63.9922 99.6419 63.9922L99.7959 66.5822C99.7959 66.5822 98.7459 66.6942 97.3599 66.1622C95.9739 65.6302 95.6239 64.9582 95.6239 64.9582L95.6099 64.9722Z" fill="#231F20" style="fill:#231F20;fill:color(display-p3 0.1373 0.1216 0.1255);fill-opacity:1;"/>
<path d="M113.908 62.8164C113.908 62.8164 114.664 62.8164 115.644 62.9004C116.414 62.9564 117.422 63.1804 117.422 63.1804C117.422 63.1804 117.562 63.8524 116.75 64.3284C115.938 64.8044 115.658 65.0284 115.028 65.1544C114.398 65.2804 113.922 65.4904 113.922 65.4904V62.8164H113.908Z" fill="#231F20" style="fill:#231F20;fill:color(display-p3 0.1373 0.1216 0.1255);fill-opacity:1;"/>
<path d="M100.188 63.0256C100.188 63.0256 102.932 63.8657 105.606 64.3977C108.28 64.9297 113.614 64.7616 113.614 64.7616L113.908 65.5036C113.908 65.5036 111.388 66.5536 106.922 66.7076C102.456 66.8616 100.034 65.8536 100.034 65.8536L100.188 63.0396V63.0256Z" fill="#231F20" style="fill:#231F20;fill:color(display-p3 0.1373 0.1216 0.1255);fill-opacity:1;"/>
<path d="M94.2519 38.4137C94.2519 38.4137 93.0479 35.4457 94.8959 34.5357C96.7439 33.6257 97.8919 35.4317 98.0039 36.4817C98.1159 37.5317 97.4719 38.9457 97.4719 38.9457L98.9979 45.8057L96.3519 38.7357C96.3519 38.7357 96.8979 37.7137 96.4079 36.6357C95.9179 35.5577 95.0639 35.7817 94.7139 36.4957C94.4759 36.9997 94.2379 38.4137 94.2379 38.4137H94.2519Z" fill="#231F20" style="fill:#231F20;fill:color(display-p3 0.1373 0.1216 0.1255);fill-opacity:1;"/>
<path d="M99.5578 34.3409C99.5578 34.3409 98.3538 31.3729 100.202 30.4629C102.05 29.5529 103.198 31.3589 103.31 32.4089C103.422 33.4589 102.778 34.8728 102.778 34.8728L104.304 41.7329L101.658 34.6629C101.658 34.6629 102.204 33.6409 101.714 32.5629C101.224 31.4849 100.37 31.7088 100.02 32.4228C99.7818 32.9268 99.5438 34.3409 99.5438 34.3409H99.5578Z" fill="#231F20" style="fill:#231F20;fill:color(display-p3 0.1373 0.1216 0.1255);fill-opacity:1;"/>
<path d="M106.992 33.2062C106.992 33.2062 106.32 30.0702 108.308 29.4962C110.296 28.9222 111.108 30.9102 111.024 31.9602C110.94 33.0102 110.058 34.2982 110.058 34.2982L110.352 41.3262L108.994 33.9062C108.994 33.9062 109.708 32.9962 109.414 31.8482C109.12 30.7002 108.238 30.7702 107.776 31.4142C107.454 31.8622 106.978 33.2202 106.978 33.2202L106.992 33.2062Z" fill="#231F20" style="fill:#231F20;fill:color(display-p3 0.1373 0.1216 0.1255);fill-opacity:1;"/>
<path d="M104.556 18.7588C104.556 18.7588 103.66 18.2968 102.456 18.8568C101.252 19.4168 100.51 20.5368 100.51 20.5368C100.51 20.5368 101.756 19.9488 102.428 19.8088C103.1 19.6688 104.388 19.7808 104.388 19.7808C104.388 19.7808 103.254 20.1728 102.652 20.4388C102.05 20.7048 100.398 21.8668 100.398 21.8668C100.398 21.8668 101.826 21.6008 102.582 21.4328C103.338 21.2648 104.36 20.7328 104.36 20.7328C104.36 20.7328 103.87 21.5028 103.366 21.7828C102.862 22.0628 101.448 22.5528 101.448 22.5528C101.448 22.5528 102.484 22.9448 103.492 22.5388C104.5 22.1328 105.27 21.4888 105.27 21.4888L104.556 18.7448V18.7588Z" fill="#231F20" style="fill:#231F20;fill:color(display-p3 0.1373 0.1216 0.1255);fill-opacity:1;"/>
<path d="M113.992 23.3509C113.992 23.3509 113.278 22.7769 112.116 23.0429C110.954 23.3089 110.086 24.1769 110.086 24.1769C110.086 24.1769 111.304 23.8829 111.92 23.8829C112.536 23.8829 113.656 24.2189 113.656 24.2189C113.656 24.2189 112.578 24.3449 112.004 24.4849C111.43 24.6249 109.736 25.3249 109.736 25.3249C109.736 25.3249 111.052 25.3529 111.752 25.3389C112.452 25.3249 113.46 25.0449 113.46 25.0449C113.46 25.0449 112.886 25.6329 112.382 25.8009C111.878 25.9689 110.534 26.1229 110.534 26.1229C110.534 26.1229 111.388 26.6549 112.354 26.4869C113.32 26.3189 114.118 25.8849 114.118 25.8849L113.992 23.3229V23.3509Z" fill="#231F20" style="fill:#231F20;fill:color(display-p3 0.1373 0.1216 0.1255);fill-opacity:1;"/>
<path d="M200.008 72.1813C204.432 74.2253 221.778 71.6073 225.04 68.0373C225.334 68.1633 224.032 59.9033 223.206 59.7493C223.052 59.3853 217.368 59.2453 217.06 59.7493L217.424 64.9993C216.528 65.2793 205.468 67.4913 203.718 66.6233L202.99 61.4293C202.262 61.3593 197.768 62.2973 197.166 63.2633C197.068 63.2213 197.446 71.2433 198.006 71.5513L199.994 72.1813H200.008Z" fill="#C01327" style="fill:#C01327;fill:color(display-p3 0.7529 0.0745 0.1529);fill-opacity:1;"/>
<path d="M218.04 71.8453C218.628 78.8873 219.342 87.1613 219.342 87.1613C219.244 87.6653 205.65 90.5493 205.272 89.2613C205.272 88.9953 204.754 80.0633 204.348 73.3013" fill="#5E401C" style="fill:#5E401C;fill:color(display-p3 0.3686 0.2510 0.1098);fill-opacity:1;"/>
<path d="M203.312 66.204C203.2 64.188 203.004 62.676 202.066 60.268C201.534 59.428 199.546 58.378 198.496 56.488C197.194 52.918 198.244 48.452 193.988 46.94C192.84 46.408 188.948 47.458 188.01 46.31C185.084 40.626 193.554 40.444 196.508 41.69C196.606 41.214 191.104 13.522 195.976 13.242C198.594 12.934 198.916 17.33 199.434 20.27C199.952 23.21 201.324 30.658 201.324 30.658C201.324 30.658 203.004 16.49 203.312 14.18C203.62 11.87 203.83 6.47999 206.882 6.82999C209.612 7.13799 209.08 11.338 209.08 16.91C209.08 22.468 209.29 29.818 209.29 29.818C209.29 29.818 211.278 20.788 212.748 17.54C216.276 8.22999 220.952 12.108 217.998 21.11C216.948 25.94 215.478 33.346 215.478 33.024C216.444 31.736 221.008 19.584 224.928 21.11C227.42 23.224 221.946 31.75 221.778 34.438C220.448 37.742 222.38 53.1 218.628 56.488C215.758 59.974 216.556 60.142 216.808 64.566" fill="#5E401C" style="fill:#5E401C;fill:color(display-p3 0.3686 0.2510 0.1098);fill-opacity:1;"/>
<path d="M204.628 65.9377C204.516 64.0197 204.222 62.1577 203.578 60.3377C203.326 59.6377 203.06 59.1337 202.528 58.6297C201.912 58.0557 201.226 57.5517 200.638 56.9497C198.482 54.7377 199.308 51.0697 197.894 48.4097C197.18 47.0657 195.92 46.0717 194.478 45.5957C193.274 45.2037 191.916 45.4697 190.67 45.4977C190.306 45.4977 189.368 45.6237 189.074 45.3437C188.85 45.1337 188.71 44.3217 188.71 43.9717C188.71 43.2437 189.144 42.7957 189.886 42.4597C191.776 41.5917 194.492 41.7457 196.396 42.5157C197.152 42.8237 197.74 42.0677 197.824 41.4377C197.88 40.9057 197.656 40.1777 197.558 39.6597C197.348 38.3997 197.138 37.1397 196.942 35.8797C196.382 32.2957 195.878 28.7117 195.556 25.0997C195.402 23.3077 195.276 21.5157 195.276 19.7097C195.276 18.3097 195.304 16.8677 195.57 15.6497C195.626 15.3837 195.696 15.1317 195.78 14.8797C195.808 14.8097 195.934 14.4877 195.822 14.7397C195.864 14.6417 195.92 14.5437 195.962 14.4457C196.004 14.3617 196.06 14.2777 196.116 14.1937C195.934 14.4597 196.102 14.2217 196.158 14.1657C196.256 14.0817 196.158 14.1517 196.172 14.1377C196.172 14.1377 196.27 14.1097 196.284 14.1097C195.948 14.1377 196.088 14.1377 196.172 14.1237C196.354 14.1237 196.536 14.0817 196.704 14.1517C197.012 14.2917 197.208 14.6557 197.348 14.9357C197.852 15.9297 198.02 17.1337 198.216 18.2257C198.93 22.3977 199.686 26.5557 200.456 30.7137C200.708 32.0717 202.528 31.5677 202.668 30.4197C203.27 25.2817 203.872 20.1577 204.516 15.0337C204.544 14.8097 204.572 14.5997 204.6 14.3757C204.6 14.2917 204.614 14.2217 204.628 14.1377C204.628 14.0957 204.656 13.9697 204.628 14.1517C204.6 14.3897 204.67 13.8577 204.67 13.8017C204.754 13.1017 204.824 12.3877 204.922 11.6877C205.076 10.6237 205.272 8.29966 206.448 7.78166C207.736 7.19366 208.044 9.08366 208.128 9.99366C208.352 12.3877 208.17 14.8237 208.17 17.2317C208.17 21.3617 208.268 25.4777 208.38 29.5937C208.408 30.8117 210.298 31.1757 210.592 29.8877C211.012 27.9977 211.474 26.1077 211.964 24.2317C212.706 21.4037 213.49 18.5057 214.82 15.8737C215.296 14.9357 216.122 13.3817 217.088 13.0877C217.242 13.0457 217.312 13.0597 217.368 13.1157C217.62 13.3957 217.76 13.6897 217.886 14.1657C218.236 15.5657 218.026 17.1197 217.718 18.4917C217.312 20.3537 216.794 22.1877 216.402 24.0497C216.01 25.9117 215.632 27.7877 215.24 29.6497C215.058 30.5597 214.974 31.6237 214.624 32.4917L215.142 31.8197C215.702 32.1417 216.276 32.4637 216.836 32.7857C216.892 33.2757 216.584 33.4577 216.822 33.1217C216.878 33.0377 216.92 32.9397 216.976 32.8417C217.144 32.5337 217.298 32.2117 217.452 31.9037C217.844 31.1057 218.222 30.2937 218.614 29.4957C219.58 27.5357 220.602 25.5337 221.96 23.7977C222.464 23.1537 223.038 22.4817 223.738 22.0897C223.808 22.0477 224.13 21.8937 224.032 21.9357C224.074 21.9217 224.494 21.8097 224.284 21.8517C224.466 21.8097 224.62 21.8517 224.592 21.8517C224.984 21.6557 224.41 22.5097 224.452 21.7257C224.452 21.8657 224.536 21.7257 224.522 21.8097C224.508 21.9637 224.676 22.2437 224.69 22.5097C224.69 22.9437 224.648 23.3637 224.55 23.7837C224.312 24.8897 223.92 25.9677 223.5 27.0177C222.716 29.0197 221.652 30.9797 221.092 33.0657C220.868 33.8777 220.826 34.0317 220.686 34.8577C220.518 35.7397 220.462 36.6497 220.406 37.5457C220.168 42.1377 220.518 46.8277 219.706 51.3637C219.524 52.3577 219.314 53.3797 218.88 54.2897C218.404 55.2977 217.606 55.9697 216.92 56.9357C216.234 57.9017 215.716 58.9937 215.646 60.2117C215.562 61.5697 215.856 62.9697 215.94 64.3137C216.024 65.7557 218.278 65.7557 218.194 64.3137C218.11 62.9977 217.858 61.6677 217.9 60.3517C217.928 59.4137 218.502 58.5457 219.09 57.7757C219.706 56.9637 220.434 56.2777 220.868 55.3537C221.302 54.4297 221.624 53.3517 221.82 52.3017C222.772 47.4437 222.422 42.4457 222.674 37.5177C222.758 35.8657 222.968 34.5217 223.444 33.0937C224.214 30.7977 225.348 28.6417 226.16 26.3457C226.776 24.5677 227.63 21.9217 226.216 20.2977C224.816 18.6877 222.464 20.0317 221.288 21.1937C219.454 22.9997 218.18 25.4217 217.018 27.7037C216.5 28.7117 216.024 29.7337 215.52 30.7557C215.282 31.2457 214.54 32.2257 214.61 32.7717C214.708 33.5417 215.52 34.2697 216.304 33.7377C217.088 33.2057 217.102 31.8057 217.27 31.0077C217.634 29.2297 217.998 27.4517 218.376 25.6737C218.824 23.5457 219.342 21.4597 219.846 19.3597C220.266 17.5817 220.49 15.7057 220.154 13.8857C219.93 12.6817 219.3 11.3517 218.054 10.9317C216.808 10.5117 215.702 11.1277 214.848 11.9397C213.42 13.2977 212.65 15.2017 211.922 16.9797C211.348 18.3797 210.886 19.8077 210.48 21.2637C209.724 23.9097 209.066 26.5837 208.464 29.2717L210.676 29.5657C210.564 25.6317 210.48 21.6837 210.466 17.7497C210.466 15.1317 210.676 12.4577 210.41 9.85366C210.242 8.14566 209.738 6.15766 207.876 5.58366C203.466 4.23966 202.85 10.5117 202.514 13.3397C202.458 13.8297 202.416 14.0957 202.332 14.7397C202.248 15.3837 202.164 16.0557 202.094 16.6997C201.884 18.4217 201.674 20.1437 201.464 21.8517C201.128 24.6937 200.778 27.5497 200.442 30.3917L202.654 30.0977C201.94 26.2057 201.184 22.3137 200.554 18.4077C200.218 16.3217 199.91 13.1857 197.754 12.1357C196.41 11.4777 194.87 11.9397 194.114 13.1997C193.442 14.3197 193.274 15.7197 193.162 16.9797C193.008 18.6877 193.05 20.4097 193.148 22.1317C193.358 26.1637 193.89 30.1817 194.478 34.1857C194.73 35.9217 195.01 37.6577 195.304 39.3937C195.388 39.9257 195.486 40.4577 195.57 40.9897C195.598 41.1577 195.626 41.3257 195.64 41.4937C195.612 41.2417 195.64 41.2557 195.626 41.4377L197.054 40.3597C193.498 38.9177 185.112 39.5337 186.708 45.2457C186.904 45.9177 187.184 46.7017 187.758 47.1357C188.374 47.5977 189.144 47.7097 189.886 47.7517C191.16 47.8217 192.644 47.4017 193.862 47.7517C197.026 48.6897 196.69 52.9457 197.334 55.4937C197.852 57.5657 199.322 58.7557 200.834 60.1137C201.562 60.7717 201.744 61.7237 201.968 62.6617C202.234 63.7537 202.346 64.8457 202.416 65.9517C202.5 67.3937 204.74 67.3937 204.67 65.9517L204.628 65.9377Z" fill="#231F20" style="fill:#231F20;fill:color(display-p3 0.1373 0.1216 0.1255);fill-opacity:1;"/>
<path d="M216.738 71.6634C217.116 76.1154 217.494 80.5675 217.872 85.0195C217.914 85.5515 217.956 86.0835 218.012 86.6155C218.012 86.6715 218.012 86.8954 218.04 86.9374C218.096 86.9934 218.502 86.1395 218.544 86.0695C218.544 86.0835 218.432 86.1255 218.432 86.1395C218.432 86.1395 218.684 86.0415 218.488 86.1115C218.418 86.1395 218.348 86.1675 218.292 86.1815C218.11 86.2375 217.914 86.2934 217.718 86.3494C217.214 86.4894 216.71 86.6154 216.206 86.7414C213.56 87.3714 210.844 87.9174 208.142 88.1834C207.61 88.2394 207.064 88.2815 206.532 88.2815C206.336 88.2815 206.14 88.2814 205.944 88.2674C205.706 88.2674 205.972 88.2674 205.93 88.2674C205.874 88.2674 205.748 88.2535 205.706 88.2115C205.636 88.1415 206.49 88.8554 206.238 89.0374C206.266 89.0234 206.224 88.7294 206.224 88.6874C206.196 88.1834 206.168 87.6795 206.14 87.1895C205.874 82.4995 205.594 77.8095 205.314 73.1195C205.23 71.6775 202.976 71.6775 203.06 73.1195C203.326 77.6975 203.606 82.2754 203.858 86.8674C203.9 87.6794 203.732 89.1354 204.25 89.8214C204.838 90.6054 206.056 90.5634 206.938 90.5214C209.934 90.3954 212.944 89.7654 215.856 89.1214C216.92 88.8834 217.998 88.6594 219.02 88.2954C219.902 87.9734 220.322 87.4835 220.252 86.5315C219.832 81.5755 219.412 76.6195 218.992 71.6775C218.866 70.2495 216.626 70.2355 216.738 71.6775V71.6634Z" fill="#231F20" style="fill:#231F20;fill:color(display-p3 0.1373 0.1216 0.1255);fill-opacity:1;"/>
<path d="M219.272 61.8774C219.748 61.8634 221.288 61.7234 220.84 62.5634C220.49 63.2214 219.776 63.5434 219.118 63.7674C217.102 64.4674 215.1 65.0974 213.014 65.5454C210.368 66.1054 207.638 66.4554 204.922 66.3574C203.62 66.3014 202.29 66.1614 201.044 65.7834C200.61 65.6574 199.952 65.4194 200.008 64.8454C200.064 64.2294 200.946 64.0474 201.422 63.9634C202.136 63.8374 201.828 62.7594 201.128 62.8854C200.19 63.0534 199.154 63.5434 198.93 64.5514C198.72 65.4894 199.392 66.3434 200.218 66.6934C201.366 67.1974 202.766 67.3234 204.012 67.4214C205.482 67.5474 206.966 67.5054 208.436 67.3794C211.11 67.1414 213.77 66.6094 216.36 65.8814C217.984 65.4194 220.154 64.9994 221.358 63.7254C221.848 63.2074 222.296 62.4514 221.974 61.7234C221.54 60.7434 220.168 60.7294 219.272 60.7574C218.544 60.7854 218.544 61.9054 219.272 61.8774Z" fill="#231F20" style="fill:#231F20;fill:color(display-p3 0.1373 0.1216 0.1255);fill-opacity:1;"/>
<path d="M217.914 58.9656L218.194 59.2456V60.0996L217.746 60.4496H217.788C217.788 60.4496 217.872 60.4776 217.746 60.4496C217.844 60.4776 218.012 60.4216 218.124 60.4216C218.53 60.3936 218.95 60.3936 219.356 60.3936C220.224 60.3936 221.106 60.3936 221.974 60.4636C222.254 60.4776 222.66 60.5196 222.87 60.5476C222.898 60.5476 223.164 60.6176 223.164 60.6176C223.01 60.7716 222.772 59.6796 222.716 59.7076C222.562 59.7496 222.786 60.3096 222.8 60.3516C222.814 60.3936 222.87 60.5196 222.786 60.3096C222.828 60.4076 222.87 60.5196 222.898 60.6316C223.066 61.1356 223.22 61.6396 223.332 62.1576C223.696 63.6556 224.004 65.2236 223.962 66.7776C223.962 67.0716 223.92 67.3516 223.85 67.6316C223.794 67.8976 223.892 67.7016 223.794 67.7856C223.892 67.6876 223.388 68.0376 223.276 68.1216C222.898 68.3736 222.506 68.5836 222.114 68.7936C221.288 69.2136 220.42 69.5496 219.538 69.8436C215.044 71.3416 210.158 71.9996 205.426 71.9296C203.48 71.9016 201.478 71.7476 199.63 71.1036C199.336 71.0056 199 70.7536 198.706 70.6976C198.524 70.6556 198.496 70.4316 198.664 70.7956C198.93 71.3556 198.762 70.9356 198.762 70.9076C198.79 70.8376 198.706 70.6416 198.692 70.5576C198.538 69.7456 198.468 68.9196 198.398 68.0936C198.286 66.9596 198.188 65.8116 198.146 64.6776C198.132 64.2856 198.118 63.8936 198.146 63.5016C198.16 63.1936 198.23 63.5716 198.188 63.1376C198.188 63.0676 198.16 62.7176 198.076 62.7176L197.88 63.6836C197.88 63.6836 197.936 63.6416 197.978 63.6276C198.16 63.6696 198.79 63.3056 198.972 63.2356C199.448 63.0816 199.924 62.9416 200.4 62.8156C200.848 62.6896 201.296 62.5776 201.758 62.4796C201.94 62.4376 202.15 62.4236 202.318 62.3676C202.36 62.3536 202.444 62.3676 202.486 62.3396C202.374 62.4096 202.052 62.2696 201.898 62.1156L201.772 61.0936C201.352 62.0876 202.808 62.9556 203.228 61.9616C203.382 61.5976 203.382 61.2196 203.102 60.9256C202.696 60.5056 202.066 60.7016 201.562 60.7996C200.806 60.9536 200.05 61.1636 199.308 61.3876C198.566 61.6116 195.766 62.2276 196.634 63.5856L196.55 62.9416C196.298 64.1876 196.522 65.6156 196.634 66.8756C196.746 68.3036 196.802 69.8156 197.138 71.2156C197.404 72.3356 198.874 72.6996 199.868 72.9656C201.408 73.3996 203.046 73.5536 204.642 73.6236C208.562 73.7916 212.538 73.3436 216.36 72.5036C218.096 72.1256 219.832 71.6356 221.484 70.9636C222.716 70.4596 224.088 69.8856 225.054 68.9336C225.908 68.1076 225.726 66.4556 225.628 65.4056C225.446 63.4596 225.124 61.3316 224.284 59.5396L224.368 60.1836C224.942 58.4896 220.98 58.7696 220.196 58.7556C219.412 58.7416 218.572 58.7276 217.774 58.8116C216.92 58.8956 216.094 59.8196 217.088 60.4776C217.998 61.0656 218.852 59.6096 217.942 59.0216L217.914 58.9656Z" fill="#231F20" style="fill:#231F20;fill:color(display-p3 0.1373 0.1216 0.1255);fill-opacity:1;"/>
<path d="M221.204 62.5782C221.428 62.4242 216.598 62.2842 217.06 62.4242L217.424 65.0002C217.69 65.3222 221.456 63.2502 221.204 62.5922V62.5782Z" fill="#231F20" style="fill:#231F20;fill:color(display-p3 0.1373 0.1216 0.1255);fill-opacity:1;"/>
<path d="M202.836 64.1039C202.836 64.0199 199.504 65.0139 199.476 65.1539C199.392 66.3999 202.696 66.7079 203.354 66.7219L202.836 64.1039Z" fill="#231F20" style="fill:#231F20;fill:color(display-p3 0.1373 0.1216 0.1255);fill-opacity:1;"/>
<path d="M216.332 61.5836C215.156 62.8296 204.67 66.2036 203.508 65.9376L203.368 66.7216C204.166 67.6736 216.542 65.6856 217.032 64.2996L216.332 61.5696V61.5836Z" fill="#231F20" style="fill:#231F20;fill:color(display-p3 0.1373 0.1216 0.1255);fill-opacity:1;"/>
<path d="M217.27 36.2717C218.348 30.0137 210.424 32.6037 214.232 37.4197L214.092 44.4477L215.282 36.9997C213.616 34.3957 216.29 32.3937 217.27 36.2717Z" fill="#231F20" style="fill:#231F20;fill:color(display-p3 0.1373 0.1216 0.1255);fill-opacity:1;"/>
<path d="M211.264 33.3459C212.342 27.0879 204.418 29.6779 208.226 34.4939L208.086 41.5219L209.276 34.0739C207.61 31.4699 210.284 29.4679 211.264 33.3459Z" fill="#231F20" style="fill:#231F20;fill:color(display-p3 0.1373 0.1216 0.1255);fill-opacity:1;"/>
<path d="M203.76 33.7096C203.718 27.3676 196.382 31.3016 200.974 35.3896L202.08 42.3336L201.94 34.7876C199.84 32.5196 202.122 30.0836 203.774 33.7096H203.76Z" fill="#231F20" style="fill:#231F20;fill:color(display-p3 0.1373 0.1216 0.1255);fill-opacity:1;"/>
<path d="M219.118 26.7382C219.846 26.1922 221.834 27.8302 221.862 28.3622C221.708 28.0682 219.468 27.3122 219.16 27.4942C219.58 27.5502 221.666 29.0622 221.834 29.3282C221.652 29.3282 219.216 28.4322 219.09 28.1802C219.034 28.6282 220.77 29.7202 221.022 29.7342C220.602 30.1542 218.46 29.0202 218.376 28.6422L219.118 26.7382Z" fill="#231F20" style="fill:#231F20;fill:color(display-p3 0.1373 0.1216 0.1255);fill-opacity:1;"/>
<path d="M212.09 21.5582C212.818 20.7742 215.464 22.2302 215.618 22.8462C215.366 22.5382 212.622 22.1462 212.286 22.4262C212.776 22.3982 215.534 23.7002 215.786 23.9802C215.576 24.0222 212.552 23.5042 212.356 23.2382C212.384 23.7702 214.652 24.6662 214.932 24.6242C214.47 25.1982 211.866 24.3722 211.628 23.9382L212.076 21.5722L212.09 21.5582Z" fill="#231F20" style="fill:#231F20;fill:color(display-p3 0.1373 0.1216 0.1255);fill-opacity:1;"/>
<path d="M203.27 19.0519C204.082 18.0299 207.246 19.2899 207.582 19.9899C207.134 19.6539 204.082 19.6259 203.634 20.0179C204.208 19.9059 207.624 20.9979 207.96 21.2779C207.708 21.3619 204.11 21.2359 203.844 20.9559C204.012 21.5999 206.7 22.2439 207.064 22.1739C206.532 22.9159 203.508 22.3559 203.102 21.8939L203.256 19.0659L203.27 19.0519Z" fill="#231F20" style="fill:#231F20;fill:color(display-p3 0.1373 0.1216 0.1255);fill-opacity:1;"/>
<path d="M194.94 25.4216C195.388 24.3716 198.58 24.9036 198.93 25.4496C198.538 25.2256 195.696 25.7996 195.444 26.2056C195.934 26.0096 199.154 26.3316 199.504 26.5136C199.308 26.6396 196.088 27.1856 195.808 26.9896C196.032 27.5216 198.622 27.6056 198.888 27.4656C198.622 28.2076 195.724 28.2916 195.332 27.9416L194.954 25.4076L194.94 25.4216Z" fill="#231F20" style="fill:#231F20;fill:color(display-p3 0.1373 0.1216 0.1255);fill-opacity:1;"/>
<path d="M235.806 54.8224C238.886 57.6504 253.712 60.0304 257.31 57.9724C257.506 58.1544 258.612 51.0704 257.968 50.7344C257.94 50.3984 253.334 48.8024 252.956 49.1384L251.892 53.5204C251.094 53.5204 241.49 52.4424 240.286 51.2804L241.042 46.8564C240.468 46.6044 236.562 46.1984 235.806 46.8284C235.736 46.7724 233.958 53.4084 234.322 53.8144L235.778 54.8504L235.806 54.8224Z" fill="#F99D26" style="fill:#F99D26;fill:color(display-p3 0.9765 0.6157 0.1490);fill-opacity:1;"/>
<path d="M250.604 59.26C249.246 65.154 247.678 72.098 247.678 72.098C247.468 72.49 235.624 71.3 235.652 70.138C235.722 69.928 237.626 62.494 239.068 56.88" fill="#DEA88E" style="fill:#DEA88E;fill:color(display-p3 0.8706 0.6588 0.5569);fill-opacity:1;"/>
<path d="M240.062 50.8034C240.496 49.1374 240.734 47.8494 240.594 45.6374C240.384 44.8114 239.026 43.4394 238.662 41.6194C238.536 38.3714 240.552 34.9974 237.472 32.6454C236.674 31.9174 233.23 31.7634 232.754 30.5734C231.844 25.1834 238.802 27.2274 240.888 29.0194C241.084 28.6554 243.828 4.63141 247.874 5.68141C250.1 6.11541 249.204 9.78342 248.868 12.3174C248.532 14.8514 247.692 21.2914 247.692 21.2914C247.692 21.2914 252.76 10.1754 253.614 8.36942C254.468 6.56342 256.05 2.22342 258.444 3.30142C260.586 4.26742 259.06 7.55741 257.618 12.0934C256.162 16.6294 254.426 22.6774 254.426 22.6774C254.426 22.6774 258.402 15.8314 260.46 13.5634C265.766 6.88542 268.566 11.2674 263.806 17.8474C261.692 21.5154 258.556 27.1714 258.64 26.9054C259.76 26.1074 266.662 17.3854 269.448 19.6534C270.932 22.0194 264.24 27.5494 263.4 29.7054C261.454 32.0434 259.032 45.0914 255.084 46.8694C251.836 48.9694 252.438 49.3054 251.5 52.9874" fill="#DEA88E" style="fill:#DEA88E;fill:color(display-p3 0.8706 0.6588 0.5569);fill-opacity:1;"/>
<path d="M241.21 50.9019C241.588 49.4459 241.826 47.9759 241.812 46.4639C241.812 45.7779 241.784 45.1899 241.462 44.5739C241.14 43.9579 240.734 43.4119 240.412 42.8099C239.642 41.3819 239.88 40.0659 240.118 38.5259C240.328 37.1679 240.538 35.7539 240.146 34.4099C239.796 33.2339 238.956 32.0719 237.864 31.4839C236.926 30.9799 235.792 30.8539 234.77 30.5179C234.518 30.4339 233.986 30.3079 233.846 30.0559C233.706 29.8039 233.846 29.0199 233.958 28.7539C234.196 28.1939 234.728 27.9979 235.302 27.9419C236.982 27.7599 239.138 28.5159 240.412 29.5659C240.832 29.9159 241.658 29.9859 241.924 29.3699C242.12 28.9079 242.148 28.3899 242.232 27.8999C242.386 26.8499 242.54 25.7999 242.708 24.7499C243.184 21.6699 243.702 18.5899 244.374 15.5519C244.948 12.9339 245.536 10.0919 246.824 7.71192C247.062 7.27792 247.258 6.98392 247.482 6.73192C247.538 6.67592 247.594 6.61992 247.65 6.57792C247.65 6.57792 247.552 6.63392 247.706 6.53592C247.776 6.47992 247.888 6.43792 247.734 6.47992C247.804 6.46592 247.972 6.52192 247.846 6.47992C247.678 6.40992 248.07 6.53592 248.098 6.56392C248.364 6.75992 248.462 7.01192 248.518 7.34792C248.7 8.28592 248.518 9.32192 248.392 10.2599C247.874 13.8999 247.412 17.5399 246.936 21.1799C246.81 22.1179 248.35 22.5099 248.728 21.6699C250.52 17.7219 252.312 13.7739 254.146 9.85392C254.538 9.01392 254.916 8.15992 255.308 7.31992C255.756 6.35392 256.512 4.30992 257.702 4.02992C259.116 3.69392 258.724 5.75192 258.556 6.45192C258.08 8.50992 257.282 10.5119 256.638 12.5279C255.616 15.7759 254.636 19.0519 253.684 22.3279C253.376 23.3779 254.888 24.0079 255.448 23.0699C257.45 19.6399 259.494 16.0559 262.196 13.1299C262.868 12.4019 263.904 11.2119 264.968 11.1139C265.262 11.0859 265.248 11.1139 265.318 11.2259C265.486 11.5059 265.472 11.9259 265.444 12.2619C265.332 13.6619 264.604 15.0059 263.89 16.1679C263.078 17.4839 262.28 18.7859 261.51 20.1439C260.74 21.5019 259.97 22.8739 259.2 24.2319C258.92 24.7219 258.64 25.2119 258.36 25.7159C258.276 25.8559 258.178 25.9959 258.108 26.1499C257.996 26.4019 257.786 26.3739 258.332 25.9959L259.746 27.0879C259.592 27.2699 259.452 27.4659 259.298 27.6619C260.334 26.8919 261.16 25.8139 262.056 24.9039C263.358 23.5599 264.702 22.2019 266.256 21.1519C266.844 20.7599 267.488 20.3399 268.202 20.1999C268.412 20.1579 268.65 20.1579 268.79 20.1999C268.916 20.2419 268.874 20.2559 269.014 20.3119C268.832 20.2419 268.93 20.1159 268.888 20.2279C268.804 20.4099 268.846 20.7739 268.762 20.9979C268.636 21.3759 268.426 21.7399 268.216 22.0759C267.698 22.9299 267.054 23.7279 266.41 24.4979C265.248 25.8699 263.834 27.1999 262.952 28.7819C262.854 28.9499 262.784 29.1179 262.7 29.2999C262.854 28.9219 262.812 29.0759 262.63 29.3279C262.462 29.5659 262.336 29.8039 262.21 30.0559C261.86 30.7559 261.58 31.4979 261.3 32.2399C259.914 35.9779 258.962 39.9539 257.002 43.4539C256.596 44.1959 256.134 44.9379 255.504 45.5119C254.776 46.1559 253.852 46.5759 253.096 47.2059C251.402 48.6199 251.276 50.6639 250.758 52.6799C250.45 53.8839 252.312 54.3879 252.62 53.1979C252.886 52.1619 253.026 51.0699 253.362 50.0479C253.6 49.3059 254.132 48.8159 254.748 48.3539C255.476 47.8079 256.316 47.4299 256.974 46.7859C257.59 46.1979 258.08 45.4699 258.514 44.7419C260.712 41.0179 261.72 36.7059 263.204 32.6879C263.456 32.0299 263.708 31.3579 264.044 30.7419C264.38 30.1259 264.52 29.8739 264.982 29.2019C266.186 27.5079 267.698 26.0519 268.958 24.3999C269.938 23.1119 271.282 21.2639 270.68 19.5559C270.05 17.7639 267.712 18.2259 266.41 18.8559C264.422 19.8219 262.742 21.5019 261.216 23.0559C260.53 23.7419 259.872 24.4559 259.2 25.1699C258.962 25.4219 258.724 25.6739 258.472 25.9119C258.402 25.9819 258.318 26.0519 258.234 26.1219C258.458 25.9259 257.94 26.4159 257.898 26.6119C257.786 27.3539 258.542 28.2359 259.312 27.7039C259.9 27.2839 260.236 26.3739 260.586 25.7719C261.37 24.3999 262.14 23.0139 262.924 21.6419C263.82 20.0459 264.786 18.5059 265.724 16.9379C266.536 15.5659 267.236 14.0259 267.376 12.4019C267.46 11.4079 267.25 10.2879 266.424 9.65792C265.542 8.98592 264.408 9.20992 263.484 9.65792C261.972 10.3999 260.838 11.7719 259.788 13.0459C258.948 14.0539 258.206 15.1179 257.478 16.2099C256.19 18.1419 254.972 20.1299 253.796 22.1319L255.56 22.8739C256.484 19.6819 257.436 16.5039 258.43 13.3399C259.116 11.1699 259.998 8.99993 260.488 6.77393C260.81 5.28993 260.894 3.48392 259.438 2.55992C256.19 0.487922 254.16 5.33192 253.138 7.54392C252.116 9.75592 251.066 12.0099 250.044 14.2499C249.022 16.4899 248.07 18.5759 247.076 20.7459L248.868 21.2359C249.302 17.8759 249.694 14.5299 250.198 11.1839C250.464 9.36392 251.052 6.64792 249.456 5.24792C248.504 4.42192 247.216 4.46392 246.292 5.26192C245.466 5.98992 244.976 7.06792 244.556 8.06192C243.996 9.39192 243.576 10.7779 243.212 12.1779C242.33 15.4959 241.714 18.8979 241.154 22.2859C240.916 23.7559 240.692 25.2259 240.468 26.7099C240.398 27.1719 240.342 27.6339 240.258 28.0819C240.23 28.2499 240.034 28.9359 240.244 28.4739L241.756 28.2779C239.432 26.3459 232.824 24.2179 231.97 28.7539C231.76 29.8879 231.858 31.1479 232.88 31.8339C233.902 32.5199 235.134 32.6599 236.254 32.9959C239.446 33.9479 238.144 37.8259 237.92 40.2479C237.738 42.2359 238.592 43.6219 239.572 45.2739C239.992 45.9739 239.866 46.8839 239.81 47.6819C239.754 48.6339 239.544 49.5439 239.306 50.4539C238.998 51.6579 240.846 52.1619 241.168 50.9719L241.21 50.9019Z" fill="#231F20" style="fill:#231F20;fill:color(display-p3 0.1373 0.1216 0.1255);fill-opacity:1;"/>
<path d="M249.568 58.8116C248.714 62.5496 247.86 66.2876 247.006 70.0256C246.908 70.4596 246.81 70.8936 246.712 71.3276C246.53 72.1256 247.02 70.8936 247.37 70.9916C247.174 70.9356 246.866 71.0056 246.656 70.9916C246.208 70.9916 245.746 70.9496 245.298 70.9216C242.96 70.7536 240.594 70.4736 238.298 69.9976C237.85 69.8996 237.402 69.8016 236.968 69.6756C236.8 69.6196 236.632 69.5776 236.464 69.5076C236.688 69.6056 236.324 69.4096 236.268 69.3956C236.128 69.3676 236.352 69.5356 236.31 69.4236C236.366 69.5496 236.772 70.0536 236.478 70.1656C236.506 70.1656 236.534 69.9696 236.534 69.9416C236.674 69.5356 236.758 69.0876 236.87 68.6676C237.878 64.7476 238.886 60.8276 239.88 56.9076C240.188 55.7036 238.326 55.1996 238.018 56.3896C237.038 60.2116 236.058 64.0476 235.078 67.8696C234.91 68.5136 234.42 69.5776 234.63 70.2496C234.896 71.1036 235.988 71.3836 236.744 71.5796C239.222 72.2516 241.84 72.5176 244.388 72.7416C245.298 72.8256 246.236 72.9376 247.16 72.8816C247.972 72.8396 248.392 72.5036 248.574 71.7196C249.526 67.5756 250.464 63.4316 251.416 59.2736C251.696 58.0696 249.834 57.5516 249.554 58.7556L249.568 58.8116Z" fill="#231F20" style="fill:#231F20;fill:color(display-p3 0.1373 0.1216 0.1255);fill-opacity:1;"/>
<path d="M254.216 51.4478C254.454 51.5178 255.49 51.7278 255.49 52.1338C255.49 52.3578 255.07 52.5818 254.93 52.6658C254.328 52.9878 253.67 52.9598 252.998 52.9878C251.234 53.0578 249.456 52.9738 247.692 52.7778C245.578 52.5398 243.464 52.1338 241.462 51.4198C240.482 51.0698 239.53 50.6498 238.648 50.1038C238.27 49.8658 237.528 49.4878 237.682 48.9278C237.836 48.3678 238.676 48.4378 239.11 48.4938C239.726 48.5778 239.712 47.6118 239.11 47.5278C238.284 47.4158 237.262 47.5698 236.856 48.4098C236.506 49.1518 236.87 49.9638 237.458 50.4538C239.152 51.8398 241.574 52.5538 243.674 53.0578C245.774 53.5618 248.042 53.8278 250.254 53.9258C251.136 53.9678 252.032 53.9818 252.928 53.9398C253.698 53.9118 254.426 53.9398 255.14 53.6178C255.742 53.3658 256.428 52.8758 256.442 52.1478C256.456 51.1398 255.238 50.7338 254.468 50.5238C253.866 50.3558 253.614 51.2798 254.216 51.4478Z" fill="#231F20" style="fill:#231F20;fill:color(display-p3 0.1373 0.1216 0.1255);fill-opacity:1;"/>
<path d="M235.134 53.2253C235.134 53.2253 235.176 52.9733 235.19 52.9173C235.288 52.2733 235.428 51.6294 235.568 50.9854C235.722 50.2434 235.904 49.5153 236.086 48.7873C236.142 48.5913 236.618 47.2473 236.548 47.1913C236.52 47.1493 236.31 47.2893 236.394 47.3173C236.352 47.3033 236.576 47.2614 236.66 47.2474C237.178 47.1214 237.71 47.1354 238.242 47.1774C238.97 47.2334 239.698 47.3033 240.412 47.4293C241.322 47.5973 241.714 46.1974 240.79 46.0434C239.95 45.8894 239.082 45.7914 238.228 45.7354C237.458 45.6794 236.31 45.6373 235.624 46.0993C235.176 46.3933 235.064 47.0793 234.924 47.5553C234.672 48.4093 234.476 49.2913 234.28 50.1593C234.098 50.9713 233.916 51.7973 233.79 52.6233C233.706 53.1413 233.58 53.6173 233.916 54.0653C234.84 55.3113 236.59 56.0813 237.976 56.6693C241.896 58.3353 246.264 59.1893 250.52 59.4133C252.298 59.4973 254.146 59.4833 255.882 59.0633C257.142 58.7553 257.688 58.3633 258.136 57.1453C258.626 55.8153 258.794 54.3453 258.906 52.9453C258.962 52.3153 259.116 51.4053 258.906 50.7753C258.64 49.9773 257.142 49.5154 256.456 49.2774C255.462 48.9134 254.398 48.6334 253.334 48.4934C252.41 48.3814 252.424 49.8234 253.334 49.9354C253.152 49.9074 253.698 50.0053 253.81 50.0333C254.356 50.1453 254.902 50.2993 255.434 50.4533C256.008 50.6353 256.568 50.8313 257.086 51.1113C257.24 51.1953 257.394 51.2934 257.534 51.3774C257.576 51.4054 257.94 51.6713 257.688 51.4753L257.478 50.9713C257.66 52.3853 257.408 53.9534 257.128 55.3394C257.002 55.9694 256.848 56.6133 256.554 57.2013C256.526 57.2573 256.302 57.5513 256.428 57.4113C256.316 57.5373 256.666 57.3693 256.302 57.4533C253.558 58.1253 250.856 58.1113 248.042 57.7753C244.822 57.3973 241.518 56.6553 238.536 55.3673C237.402 54.8773 236.212 54.2894 235.316 53.4354" fill="#231F20" style="fill:#231F20;fill:color(display-p3 0.1373 0.1216 0.1255);fill-opacity:1;"/>
<path d="M255.602 52.5254C255.826 52.4554 251.92 51.0834 252.256 51.3214L251.878 53.5194C252.018 53.8554 255.63 53.1414 255.588 52.5394L255.602 52.5254Z" fill="#231F20" style="fill:#231F20;fill:color(display-p3 0.1373 0.1216 0.1255);fill-opacity:1;"/>
<path d="M240.23 48.9697C240.23 48.9697 237.276 48.8437 237.22 48.9557C236.828 49.9497 239.446 51.0697 239.978 51.2517L240.23 48.9697Z" fill="#231F20" style="fill:#231F20;fill:color(display-p3 0.1373 0.1216 0.1255);fill-opacity:1;"/>
<path d="M251.878 50.4255C250.59 51.1255 241.154 51.1535 240.286 50.6355L239.964 51.2375C239.964 51.2375 242.008 52.3575 245.802 52.9175C249.596 53.4635 251.752 52.8335 251.752 52.8335L251.892 50.4255H251.878Z" fill="#231F20" style="fill:#231F20;fill:color(display-p3 0.1373 0.1216 0.1255);fill-opacity:1;"/>
<path d="M259.256 30.0413C261.776 25.2253 254.636 25.2533 256.47 30.1953L254.524 35.8933L257.436 30.1253C256.75 27.5633 259.452 26.6393 259.256 30.0413Z" fill="#231F20" style="fill:#231F20;fill:color(display-p3 0.1373 0.1216 0.1255);fill-opacity:1;"/>
<path d="M255.112 26.0791C257.632 21.2631 250.492 21.2912 252.326 26.2332L250.38 31.9312L253.292 26.1632C252.606 23.6012 255.308 22.6771 255.112 26.0791Z" fill="#231F20" style="fill:#231F20;fill:color(display-p3 0.1373 0.1216 0.1255);fill-opacity:1;"/>
<path d="M248.896 24.414C250.52 19.234 243.506 20.522 246.18 25.044L245.27 30.994L247.118 24.806C245.998 22.398 248.49 21.012 248.896 24.414Z" fill="#231F20" style="fill:#231F20;fill:color(display-p3 0.1373 0.1216 0.1255);fill-opacity:1;"/>
<path d="M263.246 22.7333C263.974 22.4813 265.178 24.3293 265.052 24.7633C265.01 24.4833 263.372 23.2793 263.064 23.3493C263.386 23.5033 264.702 25.2813 264.772 25.5473C264.618 25.5053 262.868 24.1333 262.84 23.8953C262.672 24.2453 263.806 25.5893 264.002 25.6733C263.554 25.8973 262.098 24.4273 262.126 24.0913L263.232 22.7333H263.246Z" fill="#231F20" style="fill:#231F20;fill:color(display-p3 0.1373 0.1216 0.1255);fill-opacity:1;"/>
<path d="M258.864 16.6712C259.662 16.2232 261.44 18.0992 261.412 18.6312C261.3 18.3092 259.144 17.2732 258.808 17.4132C259.214 17.5252 261.118 19.3032 261.258 19.5972C261.076 19.5832 258.738 18.3652 258.654 18.0992C258.542 18.5472 260.152 19.8632 260.39 19.9052C259.858 20.2552 257.954 18.8972 257.87 18.4772L258.864 16.6712Z" fill="#231F20" style="fill:#231F20;fill:color(display-p3 0.1373 0.1216 0.1255);fill-opacity:1;"/>
<path d="M252.326 12.3462C253.264 11.7162 255.504 13.5782 255.602 14.2362C255.322 13.8442 252.844 13.0322 252.368 13.2282C252.858 13.2842 255.364 15.0622 255.574 15.3842C255.35 15.3842 252.452 14.3482 252.312 14.0402C252.284 14.6142 254.314 15.8322 254.622 15.8742C253.992 16.3502 251.682 15.1042 251.472 14.6142L252.34 12.3462H252.326Z" fill="#231F20" style="fill:#231F20;fill:color(display-p3 0.1373 0.1216 0.1255);fill-opacity:1;"/>
<path d="M243.87 15.3554C244.514 14.6134 246.964 15.8734 247.118 16.4194C246.852 16.1394 244.388 15.8594 244.066 16.1254C244.514 16.0834 247.062 17.1894 247.3 17.4414C247.104 17.4834 244.332 17.1054 244.15 16.8674C244.192 17.3574 246.278 18.0994 246.53 18.0574C246.124 18.5894 243.73 17.9034 243.492 17.5254L243.842 15.3554H243.87Z" fill="#231F20" style="fill:#231F20;fill:color(display-p3 0.1373 0.1216 0.1255);fill-opacity:1;"/>
</svg>
