<svg width="152" height="163" viewBox="0 0 152 163" fill="none" xmlns="http://www.w3.org/2000/svg">
<path d="M100.024 121.568C100.248 120.156 99.7107 118.633 98.6467 117.681C97.5827 116.729 96.0259 116.348 94.6371 116.707C95.3987 114.523 94.8611 111.936 93.2931 110.244C91.7251 108.553 89.1715 107.825 86.9427 108.419C87.5363 105.876 86.3043 103.02 84.0531 101.688C81.8019 100.355 78.7107 100.68 76.7731 102.427C76.7843 98.8764 74.2979 95.4492 70.9043 94.374C67.5107 93.2988 63.5011 94.654 61.4627 97.5548C59.3571 95.5276 56.0307 94.9004 53.3203 95.998C50.6099 97.0956 48.6835 99.8844 48.5939 102.808C46.1859 101.945 43.3075 102.606 41.5155 104.432C39.7235 106.257 39.1187 109.147 40.0259 111.544C37.6515 110.838 34.9523 113.19 35.3219 115.632C34.2019 114.96 32.6675 115.083 31.6595 115.912C30.6515 116.74 30.2595 118.23 30.7075 119.462C29.4867 118.913 27.9299 119.272 27.0787 120.302C26.2275 121.332 26.1603 122.934 26.9219 124.032H99.3299L100.035 121.579L100.024 121.568Z" fill="white" style="fill:white;fill-opacity:1;"/>
<path d="M100.786 121.78C101.021 120.078 100.517 118.297 99.2066 117.121C97.8962 115.945 96.1042 115.531 94.4242 115.945L95.3986 116.919C96.2274 114.444 95.6226 111.599 93.8418 109.684C92.061 107.769 89.2386 107.019 86.7186 107.657L87.693 108.631C88.3202 105.753 87.0546 102.595 84.5122 101.049C81.9138 99.4698 78.453 99.8954 76.213 101.878L77.5682 102.438C77.5458 99.3466 75.8994 96.4234 73.3458 94.6986C70.8146 92.985 67.533 92.8282 64.7442 94.0042C63.1426 94.6762 61.7874 95.7626 60.7794 97.1738L62.0226 97.017C59.637 94.777 56.0082 94.049 52.973 95.3146C49.9714 96.569 47.9442 99.5818 47.7986 102.819L48.7954 102.057C46.1186 101.139 42.9378 101.844 40.9442 103.883C38.9506 105.91 38.2674 109.091 39.2418 111.756L40.2162 110.782C37.349 109.998 34.1234 112.63 34.5042 115.631L35.6914 114.948C34.2354 114.131 32.3538 114.254 31.077 115.351C29.8674 116.382 29.4082 118.174 29.9234 119.663L30.8978 118.689C29.5762 118.14 28.0082 118.42 26.9218 119.316C25.8018 120.235 25.3762 121.78 25.6898 123.169C25.8354 123.819 26.1826 124.759 26.9442 124.793C27.045 124.793 27.1346 124.793 27.2354 124.793H95.9922C97.045 124.793 98.109 124.815 99.1618 124.793C99.2066 124.793 99.2514 124.793 99.2962 124.793C99.6434 124.793 99.957 124.547 100.058 124.211C100.293 123.393 100.528 122.575 100.763 121.758C101.043 120.783 99.5202 120.358 99.2402 121.332C99.005 122.15 98.7698 122.967 98.5346 123.785L99.2962 123.203H29.8338C28.9042 123.203 27.941 123.135 27.0114 123.203C26.9666 123.203 26.933 123.203 26.8882 123.203L27.5714 123.595C27.0002 122.721 26.989 121.523 27.7058 120.716C28.4226 119.91 29.5314 119.798 30.4722 120.19C31.0322 120.425 31.6258 119.742 31.4466 119.215C31.133 118.286 31.3346 117.211 32.085 116.539C32.8354 115.867 34.0226 115.788 34.8962 116.281C35.3666 116.55 36.1618 116.225 36.0834 115.598C35.837 113.627 37.8194 111.734 39.7906 112.271C40.3394 112.417 40.9778 111.879 40.765 111.297C39.981 109.147 40.429 106.615 42.053 104.958C43.677 103.3 46.197 102.796 48.3586 103.547C48.8626 103.726 49.3442 103.267 49.3554 102.785C49.4674 100.209 51.125 97.7562 53.5106 96.7482C55.8962 95.7402 58.9538 96.289 60.8802 98.1034C61.2834 98.473 61.821 98.361 62.1234 97.9466C63.5682 95.9306 66.0658 94.7658 68.5298 94.7882C71.0834 94.8106 73.4018 96.2218 74.757 98.3722C75.5298 99.593 75.9554 100.982 75.9666 102.427C75.9666 103.143 76.8178 103.435 77.3218 102.987C79.0466 101.475 81.7458 101.217 83.7058 102.404C85.6658 103.591 86.6402 106.011 86.1586 108.195C86.0354 108.777 86.5282 109.326 87.133 109.169C89.1154 108.665 91.3106 109.281 92.7106 110.782C94.1106 112.283 94.5026 114.545 93.853 116.483C93.6514 117.076 94.2674 117.591 94.8274 117.457C97.2018 116.875 99.5874 118.857 99.2402 121.343C99.1842 121.769 99.341 122.183 99.789 122.318C100.159 122.419 100.707 122.183 100.763 121.769L100.786 121.78Z" fill="#231F20" style="fill:#231F20;fill:color(display-p3 0.1373 0.1216 0.1255);fill-opacity:1;"/>
<path d="M45.8385 111.263C45.8049 110.513 46.1745 109.773 46.8801 109.449C47.5857 109.124 48.4033 109.348 48.9185 109.863C49.4001 110.345 50.0721 109.829 49.9713 109.247C49.6913 107.466 51.5954 106.044 53.2306 106.783C53.5442 106.929 53.9026 106.873 54.093 106.559C54.2498 106.29 54.1714 105.831 53.869 105.697C52.637 105.137 51.1922 105.226 50.1058 106.055C49.0194 106.884 48.5489 108.25 48.7617 109.594L49.8146 108.978C48.9298 108.093 47.5522 107.791 46.3874 108.295C45.2226 108.799 44.5058 110.02 44.573 111.263C44.6178 112.069 45.8833 112.081 45.8385 111.263Z" fill="#231F20" style="fill:#231F20;fill:color(display-p3 0.1373 0.1216 0.1255);fill-opacity:1;"/>
<path d="M37.8306 117.065C37.8306 117.065 30.7074 88.5159 27.437 73.6983C21.4114 46.4487 16.3826 15.7047 16.3826 15.7047C16.3826 15.7047 17.3234 14.4391 18.7458 14.1255C20.1682 13.8119 21.4226 14.9095 21.4226 14.9095C21.4226 14.9095 26.2274 45.6647 30.9874 68.5015C34.493 85.3463 42.6802 115.239 42.6802 115.239L42.4898 116.975C42.4898 116.975 41.269 116.046 39.8914 116.046C38.8386 116.046 37.8418 117.065 37.8418 117.065H37.8306Z" fill="#BBBDBF" style="fill:#BBBDBF;fill:color(display-p3 0.7333 0.7412 0.7490);fill-opacity:1;"/>
<path d="M38.4354 116.897C37.5058 113.179 36.5874 109.46 35.6802 105.742C33.8546 98.2938 32.0402 90.8346 30.293 83.3642C28.2546 74.6954 26.373 65.993 24.6258 57.257C22.7778 48.0506 21.053 38.8106 19.4066 29.5594C18.8466 26.4458 18.309 23.321 17.7714 20.1962C17.5138 18.7066 17.3234 17.2058 17.021 15.7274C17.0098 15.6602 16.9986 15.593 16.9874 15.5258L16.9202 16.0186C16.7298 16.2762 16.9538 15.985 16.9986 15.929C17.133 15.7834 17.2674 15.649 17.4242 15.5146C17.8386 15.145 18.3538 14.8314 18.9026 14.7306C19.4178 14.6298 19.9442 14.7642 20.3922 14.9994C20.549 15.0778 20.6946 15.1674 20.8402 15.2682C20.941 15.3354 20.9634 15.313 20.9186 15.3242C20.9298 15.3354 20.9522 15.3466 20.9634 15.3578C20.8402 15.0666 20.7954 14.977 20.8066 15.089C20.7842 15.1338 20.8402 15.3242 20.8514 15.369C20.885 15.6154 20.9298 15.8618 20.9746 16.1194C21.3442 18.4714 21.725 20.8346 22.117 23.1866C23.573 32.0682 25.0962 40.9498 26.7202 49.809C28.4114 59.0826 30.2034 68.345 32.3538 77.5178C34.3362 85.9738 36.4978 94.3962 38.7042 102.807C39.4994 105.843 40.3058 108.878 41.1234 111.902C41.3586 112.775 41.5938 113.649 41.829 114.523C41.885 114.747 41.9522 114.971 42.0082 115.195C42.0194 115.251 42.0306 115.307 42.053 115.363C42.109 115.497 42.0418 115.284 42.053 115.284C41.9522 115.531 41.9858 115.9 41.9522 116.169L41.8626 116.987L42.8146 116.438C42.0418 115.855 41.0338 115.475 40.0706 115.43C39.1074 115.385 38.0882 115.934 37.405 116.639C36.8338 117.222 37.7298 118.118 38.301 117.535C38.8162 117.02 39.4994 116.617 40.2386 116.718C40.9218 116.807 41.6274 117.121 42.1762 117.535C42.6018 117.86 43.0834 117.401 43.1282 116.987C43.1954 116.326 43.4194 115.575 43.2514 114.926C43.117 114.388 42.9602 113.862 42.8146 113.335C42.1538 110.883 41.493 108.441 40.8434 105.988C38.7602 98.1146 36.7218 90.2298 34.7954 82.3114C32.7346 73.8442 30.9314 65.321 29.2962 56.7642C27.5266 47.4682 25.8914 38.1498 24.3234 28.8202C23.7858 25.5834 23.2482 22.3466 22.7218 19.1098C22.565 18.1354 22.4082 17.161 22.2514 16.1978C22.1842 15.7498 22.1394 15.2794 22.0386 14.8426C21.9602 14.5066 21.6914 14.3386 21.4114 14.1594C20.5266 13.5882 19.4514 13.3082 18.4098 13.5882C17.4914 13.8346 16.6402 14.4506 16.0242 15.1786C15.8114 15.425 15.733 15.6602 15.7778 15.985C16.0018 17.4634 16.2706 18.9306 16.517 20.409C17.8722 28.3834 19.3058 36.3466 20.8066 44.2986C22.789 54.7818 24.8722 65.2538 27.213 75.6586C28.9938 83.5882 30.8978 91.4842 32.8242 99.3802C34.2018 105.047 35.5906 110.715 37.0018 116.371C37.0802 116.673 37.1474 116.964 37.2258 117.267C37.4274 118.062 38.6482 117.726 38.4466 116.931L38.4354 116.897Z" fill="#231F20" style="fill:#231F20;fill:color(display-p3 0.1373 0.1216 0.1255);fill-opacity:1;"/>
<path d="M20.8962 25.3477C20.4258 26.3109 19.9554 27.2741 19.4962 28.2485C19.429 28.3829 19.4626 28.5509 19.597 28.6293C19.7202 28.6965 19.9106 28.6629 19.9778 28.5285L21.3778 25.6277C21.445 25.4933 21.4114 25.3253 21.277 25.2469C21.1538 25.1797 20.9634 25.2133 20.8962 25.3477Z" fill="white" style="fill:white;fill-opacity:1;"/>
<path d="M21.1091 26.6358L19.8659 28.9878C19.7987 29.1222 19.8323 29.2902 19.9667 29.3686C20.0899 29.447 20.2803 29.4022 20.3475 29.2678L21.5907 26.9158C21.6579 26.7814 21.6243 26.6134 21.4899 26.535C21.3667 26.4566 21.1763 26.5014 21.1091 26.6358Z" fill="white" style="fill:white;fill-opacity:1;"/>
<path d="M21.5235 27.8679C21.0307 28.7751 20.5491 29.6823 20.0563 30.5895C19.8883 30.9031 20.3699 31.1943 20.5379 30.8695C21.0307 29.9623 21.5123 29.0551 22.0051 28.1479C22.1731 27.8343 21.6915 27.5431 21.5235 27.8679Z" fill="white" style="fill:white;fill-opacity:1;"/>
<path d="M21.7252 29.3909L20.2356 32.4261C20.0788 32.7509 20.5604 33.0309 20.7172 32.7061C21.21 31.6981 21.714 30.6789 22.2068 29.6709C22.3636 29.3461 21.882 29.0661 21.7252 29.3909Z" fill="white" style="fill:white;fill-opacity:1;"/>
<path d="M22.0273 30.7461L20.5265 33.8597C20.4593 33.9941 20.4929 34.1621 20.6273 34.2405C20.7505 34.3077 20.9409 34.2741 21.0081 34.1397L22.5089 31.0261C22.5761 30.8917 22.5425 30.7237 22.4081 30.6453C22.2849 30.5781 22.0945 30.6117 22.0273 30.7461Z" fill="white" style="fill:white;fill-opacity:1;"/>
<path d="M21.9939 32.7176L20.9411 34.924C20.8739 35.0584 20.9075 35.2264 21.0419 35.3048C21.1651 35.372 21.3555 35.3384 21.4227 35.204L22.4755 32.9976C22.5427 32.8632 22.5091 32.6952 22.3747 32.6168C22.2515 32.5496 22.0611 32.5832 21.9939 32.7176Z" fill="white" style="fill:white;fill-opacity:1;"/>
<path d="M22.3971 33.8601C22.0051 34.6217 21.6131 35.372 21.2211 36.1336C21.1539 36.268 21.1875 36.436 21.3219 36.5144C21.4451 36.5928 21.6355 36.548 21.7027 36.4136C22.0947 35.652 22.4867 34.9017 22.8787 34.1401C22.9459 34.0057 22.9123 33.8377 22.7779 33.7593C22.6547 33.6809 22.4643 33.7257 22.3971 33.8601Z" fill="white" style="fill:white;fill-opacity:1;"/>
<path d="M22.6321 34.9234L21.3441 37.4882C21.2769 37.6226 21.3105 37.7906 21.4449 37.869C21.5681 37.9362 21.7585 37.9026 21.8257 37.7682L23.1137 35.2034C23.1809 35.069 23.1473 34.901 23.0129 34.8226C22.8897 34.7554 22.6993 34.789 22.6321 34.9234Z" fill="white" style="fill:white;fill-opacity:1;"/>
<path d="M22.9122 36.1335L21.557 38.7767C21.4898 38.9111 21.5234 39.0791 21.6578 39.1575C21.781 39.2359 21.9714 39.1911 22.0386 39.0567L23.3938 36.4135C23.461 36.2791 23.4274 36.1111 23.293 36.0327C23.1698 35.9543 22.9794 35.9991 22.9122 36.1335Z" fill="white" style="fill:white;fill-opacity:1;"/>
<path d="M22.8451 37.623L21.7699 39.8966C21.7027 40.031 21.7363 40.199 21.8707 40.2774C21.9939 40.3446 22.1843 40.311 22.2515 40.1766L23.3267 37.903C23.3939 37.7686 23.3603 37.6006 23.2259 37.5222C23.1027 37.455 22.9123 37.4886 22.8451 37.623Z" fill="white" style="fill:white;fill-opacity:1;"/>
<path d="M23.1588 38.5637L21.938 41.3861C21.882 41.5205 21.8932 41.6885 22.0388 41.7669C22.162 41.8341 22.3636 41.8005 22.4196 41.6661L23.6404 38.8437C23.6964 38.7093 23.6852 38.5413 23.5396 38.4629C23.4164 38.3957 23.2148 38.4293 23.1588 38.5637Z" fill="white" style="fill:white;fill-opacity:1;"/>
<path d="M23.2817 40.2437L22.0609 42.9093C21.9937 43.0437 22.0273 43.2117 22.1617 43.2901C22.2849 43.3573 22.4865 43.3237 22.5425 43.1893C22.9457 42.3045 23.3601 41.4197 23.7633 40.5237C23.8305 40.3893 23.7969 40.2213 23.6625 40.1429C23.5393 40.0757 23.3377 40.1093 23.2817 40.2437Z" fill="white" style="fill:white;fill-opacity:1;"/>
<path d="M34.0561 96.7593C34.1793 96.4009 27.4369 67.8073 26.4961 63.0809C25.5553 58.3545 24.4913 56.2265 25.9025 55.2857C27.3137 54.3449 30.1585 75.3785 31.2225 79.9817C32.2865 84.5849 34.0561 96.7593 34.0561 96.7593Z" fill="white" style="fill:white;fill-opacity:1;"/>
<path d="M22.3411 17.5978C22.3411 17.5978 30.5059 13.353 42.6243 12.5466C54.7315 11.7402 62.5043 14.361 75.7875 13.0506C89.0707 11.7402 95.7795 8.24582 103.407 5.66982C111.034 3.09382 117.787 1.49222 121.92 1.14502C126.053 0.797821 135.226 0.775421 135.226 0.775421C135.226 0.775421 136.525 26.513 139.403 33.9946C142.271 41.4762 150.559 67.0234 150.559 67.0234C150.559 67.0234 138.608 66.8554 129.895 70.2266C123.959 72.5226 117.563 78.7946 104.616 81.5162C91.6691 84.2378 83.0339 82.1098 71.2067 82.6698C59.3795 83.2298 50.6211 87.2618 47.6979 88.5162C44.7747 89.7706 37.0131 94.609 37.0131 94.609C37.0131 94.609 36.0051 63.249 32.6451 47.0874C29.4419 31.6538 22.3635 17.5866 22.3635 17.5866L22.3411 17.5978Z" fill="#EC1C24" style="fill:#EC1C24;fill:color(display-p3 0.9255 0.1098 0.1412);fill-opacity:1;"/>
<path d="M70.6466 73.0044L69.885 68.614L71.0498 68.4124L71.117 68.8268L70.3554 68.9612L70.6242 70.5068L71.1618 70.4172L71.229 70.8204L70.6914 70.91L70.9714 72.5452L71.7554 72.4108L71.8226 72.814L70.6354 73.0268L70.6466 73.0044Z" fill="white" style="fill:white;fill-opacity:1;"/>
<path d="M72.8304 72.6235L72.0688 68.2331L72.472 68.1659L73.1664 72.1531L73.9504 72.0187L74.0176 72.4219L72.8304 72.6347V72.6235Z" fill="white" style="fill:white;fill-opacity:1;"/>
<path d="M77.4898 71.8172L77.2658 71.1004L76.605 71.2124L76.6386 71.9628L76.2466 72.03L76.0898 67.5388L76.5602 67.4604L77.893 71.75L77.4898 71.8172ZM77.1538 70.7308C76.9298 69.9916 76.7058 69.2748 76.493 68.5244C76.5378 69.3084 76.5714 70.0588 76.5938 70.8204L77.1538 70.7196V70.7308Z" fill="white" style="fill:white;fill-opacity:1;"/>
<path d="M78.8673 71.5708L78.1057 67.1804L78.5089 67.1132L79.2033 71.1004L79.9873 70.966L80.0545 71.3692L78.8673 71.582V71.5708Z" fill="white" style="fill:white;fill-opacity:1;"/>
<path d="M82.6419 70.9213L82.4067 69.5885C82.2947 68.9501 82.1939 68.3341 82.0819 67.6845L82.1715 70.9997L81.8131 71.0669L80.7827 67.9197C80.8947 68.5581 81.0179 69.1741 81.1299 69.8125L81.3651 71.1453L80.9955 71.2125L80.2339 66.8221L80.7827 66.7325L81.8467 70.0813L81.7123 66.5757L82.2723 66.4749L83.0339 70.8653L82.6531 70.9325L82.6419 70.9213Z" fill="white" style="fill:white;fill-opacity:1;"/>
<path d="M85.2066 70.4731L84.9826 69.7563L84.3218 69.8683L84.3554 70.6187L83.9634 70.6859L83.8066 66.1947L84.277 66.1163L85.6098 70.4059L85.2066 70.4731ZM84.8706 69.3867C84.6466 68.6475 84.4226 67.9307 84.2098 67.1803C84.2546 67.9643 84.2882 68.7147 84.3106 69.4763L84.8706 69.3755V69.3867Z" fill="white" style="fill:white;fill-opacity:1;"/>
<path d="M87.9955 69.9803L87.2339 65.5899L87.9171 65.4667C88.3763 65.3883 88.6563 65.6235 88.7459 66.0939L89.2499 68.9835C89.3395 69.4763 89.1491 69.7675 88.6899 69.8459L88.0067 69.9691L87.9955 69.9803ZM88.3315 66.1835C88.2979 65.9595 88.1747 65.8587 87.9843 65.8923L87.7043 65.9371L88.3315 69.5211L88.6115 69.4763C88.8019 69.4427 88.8803 69.3083 88.8355 69.0843L88.3315 66.1947V66.1835Z" fill="white" style="fill:white;fill-opacity:1;"/>
<path d="M90.4259 69.5548L89.6643 65.1644L90.8291 64.9628L90.8963 65.3772L90.1347 65.5116L90.4035 67.0572L90.9411 66.9676L91.0083 67.3708L90.4707 67.4604L90.7507 69.0956L91.5347 68.9612L91.6019 69.3644L90.4147 69.5772L90.4259 69.5548Z" fill="white" style="fill:white;fill-opacity:1;"/>
<path d="M95.6785 68.6475L95.4433 67.3146C95.3313 66.6762 95.2305 66.0602 95.1185 65.4106L95.2081 68.7259L94.8497 68.793L93.8193 65.6459C93.9313 66.2843 94.0545 66.9002 94.1665 67.5386L94.4017 68.8714L94.0321 68.9386L93.2705 64.5482L93.8193 64.4586L94.8833 67.8075L94.7489 64.3018L95.3089 64.201L96.0705 68.5914L95.6897 68.6586L95.6785 68.6475Z" fill="white" style="fill:white;fill-opacity:1;"/>
<path d="M98.2433 68.1996L98.0192 67.4828L97.3585 67.5948L97.3921 68.3452L97.0001 68.4124L96.8433 63.9212L97.3137 63.8428L98.6465 68.1324L98.2433 68.1996ZM97.9073 67.1132C97.6833 66.374 97.4593 65.6572 97.2465 64.9068C97.2913 65.6908 97.3249 66.4412 97.3473 67.2028L97.9073 67.102V67.1132Z" fill="white" style="fill:white;fill-opacity:1;"/>
<path d="M99.6098 67.9533L98.8481 63.5629L99.5313 63.4397C99.9905 63.3613 100.271 63.5965 100.36 64.0669L100.864 66.9565C100.954 67.4493 100.763 67.7405 100.304 67.8189L99.6209 67.9421L99.6098 67.9533ZM99.957 64.1565C99.9234 63.9325 99.8002 63.8317 99.6098 63.8653L99.3298 63.9101L99.957 67.4941L100.237 67.4493C100.427 67.4157 100.506 67.2813 100.461 67.0573L99.957 64.1677V64.1565Z" fill="white" style="fill:white;fill-opacity:1;"/>
<path d="M103.071 67.3594C102.858 66.6986 102.656 66.0602 102.41 65.4218C102.376 65.433 102.354 65.433 102.32 65.4442L102.096 65.4778L102.444 67.4714L102.04 67.5386L101.279 63.1482L101.951 63.0362C102.466 62.9466 102.746 63.1146 102.847 63.697L103.004 64.5706C103.06 64.8954 102.992 65.1194 102.791 65.2762C103.06 65.9482 103.295 66.6314 103.519 67.2922L103.071 67.3706V67.3594ZM102.444 63.809C102.388 63.4954 102.298 63.3946 102.018 63.4394L101.76 63.4842L102.04 65.1082L102.309 65.0634C102.556 65.0186 102.634 64.8954 102.589 64.6378L102.444 63.809Z" fill="white" style="fill:white;fill-opacity:1;"/>
<path d="M104.515 67.102L103.754 62.7116L104.157 62.6444L104.919 67.0348L104.515 67.102Z" fill="white" style="fill:white;fill-opacity:1;"/>
<path d="M106.016 66.8443L105.255 62.4539L105.938 62.3307C106.397 62.2523 106.677 62.4875 106.767 62.9579L107.271 65.8475C107.36 66.3403 107.17 66.6315 106.711 66.7099L106.027 66.8331L106.016 66.8443ZM106.363 63.0363C106.33 62.8123 106.207 62.7115 106.016 62.7451L105.736 62.7899L106.363 66.3739L106.643 66.3291C106.834 66.2955 106.912 66.1611 106.867 65.9371L106.363 63.0475V63.0363Z" fill="white" style="fill:white;fill-opacity:1;"/>
<path d="M106.31 59.7312L69.3252 66.1794L69.4733 67.0289L106.458 60.5808L106.31 59.7312Z" fill="url(#paint0_linear_2002_6028)" style=""/>
<path d="M107.77 68.1683L70.7854 74.6165L70.9335 75.466L107.918 69.0179L107.77 68.1683Z" fill="url(#paint1_linear_2002_6028)" style=""/>
<path d="M111.941 13.0617L111.762 12.0537C111.683 11.6841 111.28 11.5721 110.989 11.7849L108.357 14.0921C108.155 14.2489 108.066 14.5513 108.223 14.7753C108.346 14.9545 108.615 14.9993 108.827 14.9321L111.527 13.9353C111.93 13.8009 112.031 13.4425 111.952 13.0617H111.941Z" fill="white" style="fill:white;fill-opacity:1;"/>
<path d="M116.018 39.3593L112.624 19.9161C112.311 18.1129 112.445 17.5305 112.96 16.9145C113.184 16.6345 112.96 16.1753 112.635 16.2313L108.592 16.9369C108.256 16.9929 108.211 17.5081 108.514 17.6985C109.208 18.1129 109.533 18.6057 109.847 20.4089L113.24 39.8521C113.576 42.0137 113.531 42.6185 112.971 43.2905C112.747 43.5705 112.971 44.0297 113.296 43.9737L117.339 43.2681C117.675 43.2121 117.72 42.6969 117.418 42.5065C116.667 42.0585 116.41 41.5097 116.007 39.3593H116.018Z" fill="white" style="fill:white;fill-opacity:1;"/>
<path d="M110.72 43.6823C109.948 43.2231 109.701 42.6519 109.264 40.2999L107.988 33.1767C107.741 31.7879 107.136 30.7687 105.916 30.2983C106.744 29.3463 107.271 27.8567 106.991 26.2663L106.24 21.9879C105.736 19.0647 103.53 17.8103 100.708 18.2919L94.6932 19.3447C94.3572 19.4007 94.3124 19.9159 94.6148 20.1063C95.3092 20.5207 95.634 21.0135 96.0148 23.1527L99.3636 42.3607C99.6884 44.3767 99.6548 45.0039 99.0836 45.6983C98.8596 45.9783 99.0836 46.4375 99.4084 46.3815L103.452 45.6759C103.788 45.6199 103.844 45.1047 103.53 44.9143C102.757 44.4551 102.511 43.8727 102.074 41.5319L100.696 33.6359L103.071 32.4935C104.191 32.2471 105.087 32.9079 105.266 33.9383L106.476 40.7479C106.856 43.1111 106.823 43.7383 106.252 44.4327C106.028 44.7127 106.252 45.1719 106.576 45.1159L110.62 44.4103C110.956 44.3543 111 43.8391 110.698 43.6487L110.72 43.6823ZM103.037 29.4583C102.04 29.9287 100.215 30.8135 100.215 30.8135L98.602 21.5399L101.021 21.1143C102.589 20.8455 103.306 21.4951 103.552 22.8839L104.28 27.0615C104.437 27.9575 103.922 29.0439 103.037 29.4583Z" fill="white" style="fill:white;fill-opacity:1;"/>
<path d="M84.109 48.3529C83.5378 48.0057 83.269 47.5689 82.8546 46.4713L76.5154 25.2473C76.2466 24.2729 76.2242 23.7913 76.661 23.2873C76.9186 22.9961 76.6946 22.4921 76.3474 22.5481L69.5714 23.7241C69.2242 23.7913 69.1906 24.3289 69.5266 24.5193C70.0978 24.8441 70.2434 25.3033 70.3218 26.3113C70.3218 26.3113 71.4866 47.3561 71.5426 48.4313C71.5986 49.4505 71.4194 50.1001 71.005 50.6153C70.7922 50.8729 70.949 51.3321 71.3522 51.2649L75.4178 50.5593C75.8098 50.4921 75.7874 49.9657 75.485 49.8425C74.6338 49.5065 74.2978 48.9353 74.2418 48.0729C74.2082 47.5129 74.1074 45.5081 74.0402 44.1641L74.0066 43.4809L78.5426 41.2969L80.2226 47.0313C80.469 47.8601 80.3346 48.5097 79.6514 49.1145C79.405 49.3385 79.5618 49.8425 79.9538 49.7753L84.0194 49.0697C84.333 49.0137 84.4114 48.5209 84.1202 48.3417L84.109 48.3529ZM73.6146 36.5257L73.021 25.9977L73.861 25.8521L77.5682 38.1273L77.7138 38.6313L73.8274 40.5017L73.6146 36.5257Z" fill="white" style="fill:white;fill-opacity:1;"/>
<path d="M86.9202 20.7114L81.1859 21.7082C80.8499 21.7642 80.8051 22.2794 81.1075 22.4698C81.8019 22.8842 82.1266 23.377 82.4402 25.1802L84.8818 39.2026C85.2178 41.3642 85.173 41.969 84.613 42.641C84.389 42.921 84.613 43.3802 84.9378 43.3242L90.6722 42.3274C93.4946 41.8346 95.1298 39.897 94.6146 36.985L92.4307 24.4074C91.9267 21.4842 89.7202 20.2298 86.8978 20.7114H86.9202ZM91.8146 37.1194C92.0498 38.497 91.6019 39.3594 90.0339 39.6394L87.8834 40.0202L85.0723 23.9034L87.2227 23.5226C88.7907 23.2538 89.5075 23.9034 89.7539 25.2922L91.8146 37.1194Z" fill="white" style="fill:white;fill-opacity:1;"/>
<path d="M94.7158 44.4143L87.2681 45.7127C86.9147 45.7744 86.6781 46.1108 86.7397 46.4643L86.9898 47.8986C87.0514 48.2521 87.3879 48.4886 87.7413 48.427L95.189 47.1285C95.5424 47.0669 95.779 46.7304 95.7174 46.377L95.4673 44.9426C95.4057 44.5892 95.0692 44.3526 94.7158 44.4143Z" fill="white" style="fill:white;fill-opacity:1;"/>
<path d="M67.6899 47.5351L64.4643 28.9991C64.0835 26.6471 64.1171 26.0199 64.6883 25.3255C64.9123 25.0455 64.6883 24.5863 64.3635 24.6423L60.2083 25.3703C59.8723 25.4263 59.8275 25.9415 60.1299 26.1319C60.6003 26.4119 60.7011 26.9159 60.6227 27.7671L59.2003 40.0535L58.8643 40.1095L53.3875 29.0327C53.0291 28.2599 52.9507 27.7447 53.2979 27.3191C53.5219 27.0391 53.2979 26.5799 52.9731 26.6359L48.8179 27.3639C48.4819 27.4199 48.4259 27.9351 48.7395 28.1255C49.5123 28.5847 49.7587 29.1671 50.1955 31.5191L53.4211 50.0439C53.8019 52.3959 53.7683 53.0231 53.1971 53.7175C52.9731 53.9975 53.1971 54.4567 53.5219 54.4007L57.5651 53.6951C57.9011 53.6391 57.9571 53.1239 57.6435 52.9335C56.8707 52.4743 56.6243 51.8919 56.1875 49.5511L53.7571 35.5959L58.6179 45.4519L58.9875 46.2023L61.2051 45.1383L61.3171 44.1639L62.5043 34.0839L64.9347 48.0391C65.3155 50.3911 65.2819 51.0183 64.7107 51.7127C64.4867 51.9927 64.7107 52.4519 65.0355 52.3959L69.0787 51.6903C69.4147 51.6343 69.4707 51.1191 69.1571 50.9287C68.3843 50.4695 68.1379 49.8871 67.7011 47.5463L67.6899 47.5351Z" fill="white" style="fill:white;fill-opacity:1;"/>
<path d="M61.3619 65.0074L59.7827 55.9242L62.1907 55.5098L62.3363 56.361L60.7683 56.6298L61.3283 59.8218L62.4371 59.6314L62.5827 60.4714L61.4739 60.6618L62.0675 64.0442L63.6915 63.7642L63.8371 64.593L61.3731 65.0186L61.3619 65.0074Z" fill="white" style="fill:white;fill-opacity:1;"/>
<path d="M68.317 63.7977C67.7458 62.6105 66.8722 60.5049 66.693 60.0233C66.693 60.5497 66.581 62.8009 66.4578 64.1225L65.5954 64.2681L66.077 59.1945L64.2178 55.1513L65.1138 54.9945C65.5506 55.9353 66.2338 57.6153 66.413 58.1193C66.413 57.5817 66.4914 55.7673 66.581 54.7369L67.4546 54.5801L67.0402 58.9929L69.2354 63.6297L68.3282 63.7865L68.317 63.7977Z" fill="white" style="fill:white;fill-opacity:1;"/>
<path d="M76.2355 62.4203L74.6562 53.3371L77.0643 52.9227L77.2098 53.7739L75.6418 54.0427L76.2018 57.2347L77.3107 57.0443L77.4562 57.8843L76.3475 58.0747L76.9411 61.4571L78.565 61.1771L78.7107 62.0059L76.2466 62.4315L76.2355 62.4203Z" fill="white" style="fill:white;fill-opacity:1;"/>
<path d="M80.9059 61.6026L79.3267 52.5194L80.7379 52.273C81.8019 52.0938 82.3843 52.5082 82.5859 53.6506L82.8435 55.1402C83.0451 56.2826 82.6419 56.8538 81.5779 57.0442L80.9955 57.145L81.7459 61.457L80.9059 61.6026ZM81.7571 53.785C81.6675 53.2474 81.4211 53.0234 80.8947 53.113L80.3235 53.2138L80.8611 56.3162L81.4435 56.2154C81.9251 56.1258 82.1155 55.857 82.0259 55.297L81.7571 53.785Z" fill="white" style="fill:white;fill-opacity:1;"/>
<path d="M87.4018 57.2118L88.1298 56.8646L88.4658 58.7798C88.645 59.8438 88.3426 60.4038 87.413 60.5718C86.4834 60.7398 85.8786 60.3142 85.6994 59.295L84.6242 53.1126C84.445 52.0598 84.837 51.4662 85.8002 51.2982C86.685 51.1414 87.2114 51.5894 87.3906 52.6086L87.6594 54.1766L86.9314 54.5238L86.6178 52.7542C86.5282 52.2726 86.3602 52.071 85.9346 52.1494C85.5426 52.2166 85.3746 52.4854 85.4642 52.9558L86.5394 59.1382C86.6178 59.6086 86.8642 59.8214 87.2562 59.7542C87.6482 59.687 87.7826 59.4294 87.693 58.9366L87.3906 57.223L87.4018 57.2118Z" fill="white" style="fill:white;fill-opacity:1;"/>
<path d="M72.5395 59.8106L73.2675 59.4634L73.6035 61.3786C73.7827 62.4426 73.4803 63.0026 72.5507 63.1706C71.6211 63.3386 71.0163 62.913 70.8371 61.8938L69.7619 55.7114C69.5827 54.6586 69.9747 54.065 70.9379 53.897C71.8227 53.7402 72.3491 54.1882 72.5283 55.2074L72.7971 56.7754L72.0691 57.1226L71.7555 55.353C71.6659 54.8714 71.4979 54.6698 71.0723 54.7482C70.6803 54.8154 70.5123 55.0842 70.6019 55.5546L71.6771 61.737C71.7555 62.2074 72.0019 62.4202 72.3939 62.353C72.7859 62.2858 72.9203 62.0282 72.8307 61.5354L72.5283 59.8218L72.5395 59.8106Z" fill="white" style="fill:white;fill-opacity:1;"/>
<path d="M91.2323 59.7992L89.6531 50.716L90.4931 50.5704L92.0723 59.6536L91.2323 59.7992Z" fill="white" style="fill:white;fill-opacity:1;"/>
<path d="M93.3042 51.5672C93.125 50.548 93.4946 49.9432 94.4578 49.7752C95.421 49.6072 95.981 50.0552 96.1602 51.0744L97.2354 57.268C97.4146 58.2872 97.045 58.892 96.0706 59.06C95.0962 59.228 94.5586 58.78 94.3794 57.7608L93.3042 51.5672ZM95.3202 51.22C95.2418 50.7608 94.9954 50.5592 94.6034 50.6264C94.2114 50.6936 94.0546 50.9624 94.1442 51.4216L95.2194 57.6152C95.2978 58.0856 95.5442 58.2984 95.925 58.2312C96.3058 58.164 96.4738 57.884 96.3954 57.4136L95.3202 51.22Z" fill="white" style="fill:white;fill-opacity:1;"/>
<path d="M102.298 57.8726L99.5763 51.511C99.8227 52.8662 100.058 54.1766 100.293 55.543L100.752 58.1526L100.024 58.2758L98.4451 49.1926L99.4531 49.0134L102.007 55.431C101.783 54.1878 101.57 52.9782 101.357 51.7574L100.842 48.7782L101.581 48.6438L103.16 57.727L102.32 57.8726H102.298Z" fill="white" style="fill:white;fill-opacity:1;"/>
<path d="M107.853 56.8982L107.349 55.207L106.05 55.8342L106.106 57.2118L105.288 57.3574L104.952 48.0614L105.938 47.8934L108.704 56.775L107.864 56.9206L107.853 56.8982ZM107.125 54.479L105.781 50.0998L106.005 55.0054L107.114 54.4678L107.125 54.479Z" fill="white" style="fill:white;fill-opacity:1;"/>
<path d="M110.944 56.3609L109.365 47.2777L110.205 47.1321L111.639 55.3865L113.263 55.1065L113.408 55.9353L110.944 56.3609Z" fill="white" style="fill:white;fill-opacity:1;"/>
<path d="M112.064 48.2634C111.93 47.4906 112.445 46.7402 113.229 46.6058C114.013 46.4714 114.741 46.9978 114.875 47.7594C115.01 48.5322 114.495 49.2826 113.711 49.417C112.927 49.5514 112.199 49.025 112.064 48.2634ZM114.719 47.793C114.595 47.0986 113.968 46.6394 113.263 46.7626C112.557 46.8858 112.109 47.5466 112.232 48.2298C112.355 48.9242 112.983 49.3834 113.688 49.2602C114.394 49.137 114.842 48.4762 114.719 47.793ZM112.759 47.3226L113.419 47.2106C113.621 47.177 113.789 47.2106 113.912 47.289C114.013 47.3562 114.069 47.457 114.091 47.5914C114.136 47.8378 114.024 48.017 113.845 48.1178L114.304 48.5882L113.923 48.6554L113.52 48.2298L113.263 48.2746L113.341 48.7562L113.016 48.8122L112.759 47.3114V47.3226ZM113.543 47.9386C113.711 47.905 113.778 47.8042 113.767 47.681C113.744 47.5242 113.632 47.4682 113.464 47.5018L113.139 47.5578L113.218 47.9946L113.543 47.9386Z" fill="white" style="fill:white;fill-opacity:1;"/>
<path d="M22.7441 18.0232C22.7441 18.0232 30.9089 13.7784 43.0273 12.972C55.1457 12.1656 62.9073 14.7864 76.1905 13.476C89.4737 12.1656 96.1825 8.67121 103.81 6.09521C111.437 3.51921 118.191 1.91761 122.323 1.57041C126.456 1.22321 135.629 1.20081 135.629 1.20081C135.629 1.20081 136.928 26.9384 139.807 34.42C142.685 41.9016 150.962 67.4488 150.962 67.4488C150.962 67.4488 139.011 67.2808 130.298 70.652C124.362 72.948 117.967 79.22 105.019 81.9416C92.0721 84.6632 83.4369 82.5352 71.6097 83.0952C59.7825 83.6552 51.0241 87.6872 48.1009 88.9416C45.1777 90.2072 37.4161 95.0344 37.4161 95.0344C37.4161 95.0344 36.4081 63.6744 33.0481 47.5128C29.8449 32.0792 22.7665 18.012 22.7665 18.012L22.7441 18.0232Z" stroke="#231F20" style="stroke:#231F20;stroke:color(display-p3 0.1373 0.1216 0.1255);stroke-opacity:1;" stroke-width="1.344" stroke-miterlimit="10"/>
<path d="M37.8529 118.745C38.2785 116.83 40.6081 116.191 41.9409 117.636C42.2433 117.961 42.9153 117.826 42.9937 117.356C43.1505 116.494 43.2961 115.508 43.8785 114.802C44.3041 114.287 45.0881 113.929 45.7041 114.298C46.3985 114.724 47.0369 113.626 46.3425 113.201C45.3233 112.585 44.0801 112.898 43.2289 113.649C42.2769 114.478 41.9969 115.822 41.7729 117.009L42.8257 116.729C41.9185 115.754 40.4961 115.318 39.2081 115.665C37.9201 116.012 36.9121 117.11 36.6209 118.398C36.4417 119.193 37.6625 119.529 37.8417 118.734L37.8529 118.745Z" fill="#231F20" style="fill:#231F20;fill:color(display-p3 0.1373 0.1216 0.1255);fill-opacity:1;"/>
<g clip-path="url(#clip0_2002_6028)">
<path d="M44.206 159.653C44.374 158.603 43.982 157.483 43.184 156.769C42.386 156.055 41.238 155.775 40.216 156.055C40.79 154.431 40.384 152.513 39.222 151.267C38.06 150.021 36.17 149.475 34.518 149.923C34.952 148.033 34.042 145.919 32.376 144.939C30.71 143.959 28.414 144.197 26.972 145.485C26.972 142.853 25.138 140.319 22.618 139.521C20.098 138.723 17.13 139.731 15.618 141.887C14.05 140.389 11.586 139.913 9.58396 140.739C7.58195 141.565 6.13996 143.623 6.06995 145.779C4.29195 145.135 2.14995 145.625 0.819954 146.983C-0.510046 148.341 -0.958046 150.483 -0.286046 152.247C-2.05005 151.729 -4.05205 153.465 -3.77205 155.285C-4.59805 154.795 -5.74605 154.879 -6.48805 155.495C-7.23005 156.111 -7.52405 157.217 -7.18805 158.127C-8.08405 157.721 -9.24605 157.987 -9.87605 158.743C-10.506 159.499 -10.562 160.689 -9.98805 161.501H43.688L44.22 159.681L44.206 159.653Z" fill="white" style="fill:white;fill-opacity:1;"/>
<path d="M44.7801 159.808C44.9621 158.548 44.5841 157.232 43.6041 156.35C42.6241 155.468 41.3081 155.174 40.0621 155.482L40.7901 156.21C41.4061 154.376 40.9581 152.262 39.6421 150.848C38.3261 149.42 36.2261 148.874 34.3641 149.35L35.0921 150.078C35.5541 147.936 34.6161 145.598 32.7261 144.464C30.8081 143.302 28.2321 143.61 26.5661 145.08L27.5601 145.5C27.5461 143.204 26.3281 141.034 24.4381 139.76C22.5621 138.486 20.1261 138.374 18.0681 139.242C16.8781 139.746 15.8841 140.544 15.1281 141.594L16.0521 141.482C14.2881 139.83 11.5861 139.284 9.34606 140.222C7.10606 141.16 5.62206 143.386 5.51006 145.794L6.25206 145.234C4.26406 144.548 1.91206 145.08 0.428062 146.592C-1.05594 148.104 -1.54594 150.456 -0.831938 152.43L-0.103937 151.702C-2.23194 151.128 -4.61194 153.074 -4.33194 155.3L-3.44994 154.796C-4.52794 154.194 -5.92794 154.278 -6.87994 155.09C-7.77594 155.86 -8.11194 157.176 -7.73394 158.296L-7.00594 157.568C-7.98594 157.162 -9.14794 157.372 -9.95994 158.03C-10.7719 158.688 -11.1219 159.822 -10.8979 160.858C-10.7859 161.334 -10.5339 162.034 -9.95994 162.062C-9.88994 162.062 -9.81994 162.062 -9.74994 162.062H41.2241C42.0081 162.062 42.7921 162.076 43.5761 162.062C43.6041 162.062 43.6461 162.062 43.6741 162.062C43.9401 162.062 44.1641 161.88 44.2341 161.628L44.7661 159.808C44.9761 159.08 43.8421 158.772 43.6321 159.5L43.1001 161.32L43.6601 160.886H-7.81794C-8.50394 160.886 -9.21794 160.83 -9.90394 160.886C-9.93194 160.886 -9.95994 160.886 -9.98794 160.886L-9.48394 161.18C-9.90394 160.536 -9.91794 159.64 -9.38594 159.052C-8.85394 158.464 -8.02794 158.366 -7.34194 158.66C-6.93594 158.828 -6.48794 158.324 -6.61394 157.932C-6.85194 157.246 -6.69794 156.448 -6.13794 155.944C-5.57794 155.44 -4.69594 155.384 -4.05194 155.748C-3.70194 155.944 -3.11394 155.706 -3.16994 155.244C-3.35194 153.788 -1.88194 152.374 -0.425938 152.78C-0.0199375 152.892 0.456062 152.486 0.302062 152.052C-0.285937 150.456 0.0500612 148.58 1.25406 147.348C2.45806 146.116 4.32006 145.738 5.93006 146.298C6.30806 146.424 6.65806 146.088 6.67206 145.738C6.75606 143.834 7.98806 142.014 9.75206 141.258C11.5161 140.502 13.7841 140.922 15.2121 142.266C15.5061 142.546 15.9121 142.462 16.1361 142.154C17.2141 140.656 19.0621 139.802 20.8821 139.816C22.7021 139.83 24.4941 140.88 25.4881 142.462C26.0621 143.372 26.3841 144.394 26.3841 145.472C26.3841 146.004 27.0141 146.214 27.3781 145.892C28.6521 144.772 30.6541 144.576 32.1101 145.458C33.5661 146.34 34.2801 148.132 33.9301 149.756C33.8321 150.19 34.1961 150.596 34.6581 150.484C36.1281 150.106 37.7521 150.568 38.8021 151.688C39.8521 152.808 40.1321 154.474 39.6561 155.916C39.5021 156.35 39.9641 156.742 40.3841 156.644C42.1481 156.21 43.9121 157.68 43.6601 159.528C43.6181 159.85 43.7301 160.158 44.0661 160.256C44.3461 160.34 44.7381 160.158 44.7941 159.85L44.7801 159.808Z" fill="#231F20" style="fill:#231F20;fill:color(display-p3 0.1373 0.1216 0.1255);fill-opacity:1;"/>
<path d="M4.04008 152.024C4.01208 151.464 4.29208 150.918 4.81008 150.68C5.32808 150.442 5.93008 150.596 6.32208 150.988C6.68608 151.352 7.17608 150.96 7.10608 150.526C6.89608 149.21 8.31008 148.146 9.51408 148.692C9.75208 148.804 10.0181 148.762 10.1581 148.524C10.2841 148.328 10.2141 147.992 9.99008 147.88C9.08008 147.474 8.00208 147.53 7.19008 148.146C6.37808 148.762 6.04208 149.77 6.19608 150.764L6.98008 150.302C6.32208 149.644 5.30008 149.42 4.44608 149.798C3.59208 150.176 3.04608 151.072 3.10208 151.996C3.13008 152.598 4.06808 152.598 4.04008 151.996V152.024Z" fill="#231F20" style="fill:#231F20;fill:color(display-p3 0.1373 0.1216 0.1255);fill-opacity:1;"/>
</g>
<defs>
<linearGradient id="paint0_linear_2002_6028" x1="69.3964" y1="66.5876" x2="106.381" y2="60.1394" gradientUnits="userSpaceOnUse">
<stop stop-color="#DDC081" style="stop-color:#DDC081;stop-color:color(display-p3 0.8667 0.7529 0.5059);stop-opacity:1;"/>
<stop offset="0.25" stop-color="#BF911F" style="stop-color:#BF911F;stop-color:color(display-p3 0.7490 0.5686 0.1216);stop-opacity:1;"/>
<stop offset="0.5" stop-color="#DDC081" style="stop-color:#DDC081;stop-color:color(display-p3 0.8667 0.7529 0.5059);stop-opacity:1;"/>
<stop offset="0.75" stop-color="#BF911F" style="stop-color:#BF911F;stop-color:color(display-p3 0.7490 0.5686 0.1216);stop-opacity:1;"/>
<stop offset="1" stop-color="#DDC081" style="stop-color:#DDC081;stop-color:color(display-p3 0.8667 0.7529 0.5059);stop-opacity:1;"/>
</linearGradient>
<linearGradient id="paint1_linear_2002_6028" x1="70.8604" y1="75.0468" x2="107.845" y2="68.5986" gradientUnits="userSpaceOnUse">
<stop stop-color="#DDC081" style="stop-color:#DDC081;stop-color:color(display-p3 0.8667 0.7529 0.5059);stop-opacity:1;"/>
<stop offset="0.25" stop-color="#BF911F" style="stop-color:#BF911F;stop-color:color(display-p3 0.7490 0.5686 0.1216);stop-opacity:1;"/>
<stop offset="0.5" stop-color="#DDC081" style="stop-color:#DDC081;stop-color:color(display-p3 0.8667 0.7529 0.5059);stop-opacity:1;"/>
<stop offset="0.75" stop-color="#BF911F" style="stop-color:#BF911F;stop-color:color(display-p3 0.7490 0.5686 0.1216);stop-opacity:1;"/>
<stop offset="1" stop-color="#DDC081" style="stop-color:#DDC081;stop-color:color(display-p3 0.8667 0.7529 0.5059);stop-opacity:1;"/>
</linearGradient>
<clipPath id="clip0_2002_6028">
<rect width="55.776" height="23.422" fill="white" style="fill:white;fill-opacity:1;" transform="translate(-10.968 138.654)"/>
</clipPath>
</defs>
</svg>
