<svg width="241" height="163" viewBox="0 0 241 163" fill="none" xmlns="http://www.w3.org/2000/svg">
<g clip-path="url(#clip0_166_96784)">
<path d="M136.511 29.6361L115.259 21.0555C115.146 21.0093 115.016 21.0261 114.915 21.0933C114.814 21.1605 114.755 21.2781 114.755 21.3999V25.3059C114.755 25.4571 114.848 25.5915 114.986 25.6503L130.61 31.9587C130.648 31.9713 130.652 32.0049 130.652 32.0217C130.652 32.0385 130.648 32.0679 130.61 32.0847L114.986 38.3931C114.848 38.4477 114.755 38.5863 114.755 38.7375V42.6435C114.755 42.7653 114.814 42.8829 114.915 42.9501C114.978 42.9921 115.049 43.0131 115.121 43.0131C115.167 43.0131 115.213 43.0047 115.255 42.9879L136.507 34.4073C136.646 34.3527 136.738 34.2141 136.738 34.0629V29.9805C136.738 29.8293 136.646 29.6949 136.507 29.6361H136.511Z" fill="white" style="fill:white;fill-opacity:1;"/>
<path d="M160.556 38.3763H143.643C143.605 38.3763 143.576 38.3469 143.576 38.3091V21.3957C143.576 21.1941 143.412 21.0303 143.21 21.0303H139.304C139.103 21.0303 138.939 21.1941 138.939 21.3957V42.6477C138.939 42.8493 139.103 43.0131 139.304 43.0131H160.556C160.758 43.0131 160.922 42.8493 160.922 42.6477V38.7417C160.922 38.5401 160.758 38.3763 160.556 38.3763Z" fill="white" style="fill:white;fill-opacity:1;"/>
<path d="M184.74 38.3763H167.827C167.789 38.3763 167.759 38.3469 167.759 38.3091V21.3957C167.759 21.1941 167.596 21.0303 167.394 21.0303H163.488C163.286 21.0303 163.123 21.1941 163.123 21.3957V42.6477C163.123 42.8493 163.286 43.0131 163.488 43.0131H184.74C184.942 43.0131 185.105 42.8493 185.105 42.6477V38.7417C185.105 38.5401 184.942 38.3763 184.74 38.3763Z" fill="white" style="fill:white;fill-opacity:1;"/>
<path d="M222.771 60.6951C222.88 60.6951 222.972 60.7707 222.989 60.8757C223.111 61.6233 223.64 62.2827 224.526 62.7867C226.811 64.0845 231.108 64.2063 233.199 63.0345C233.682 62.7657 234.258 62.2911 234.254 61.5687C234.241 59.7123 232.128 59.4645 228.911 59.2965L228.609 59.2797C221.334 58.8933 217.647 56.1465 217.647 52.4085C217.647 49.7121 219.486 48.1245 221.028 47.2677C225.039 45.0459 231.65 45.1425 235.761 47.4903C237.408 48.4311 239.378 50.1447 239.562 53.0217C239.571 53.1477 239.47 53.2527 239.344 53.2527L234.144 53.2779C234.035 53.2779 233.943 53.2023 233.926 53.0931C233.813 52.2993 233.271 51.6021 232.351 51.0771C230.201 49.8465 226.32 49.7247 224.367 50.8293C223.863 51.1149 223.262 51.6189 223.275 52.4085C223.304 54.2523 225.06 54.5295 227.945 54.7647C228.164 54.7815 228.386 54.8025 228.609 54.8193C234.464 55.3359 239.882 56.9361 239.882 61.5687C239.882 64.1391 238.067 65.6889 236.543 66.5289C234.522 67.6503 231.809 68.2089 229.071 68.2089C226.177 68.2089 223.25 67.5873 221.082 66.3483C219.47 65.4285 217.533 63.7527 217.349 60.9555C217.34 60.8295 217.441 60.7245 217.567 60.7245L222.771 60.6951Z" fill="white" style="fill:white;fill-opacity:1;"/>
<path d="M215.522 45.9447H194.27C194.068 45.9447 193.904 46.1085 193.904 46.3101V50.2161C193.904 50.4177 194.068 50.5815 194.27 50.5815H202.51C202.548 50.5815 202.577 50.6109 202.577 50.6487V67.5621C202.577 67.7637 202.741 67.9275 202.943 67.9275H206.849C207.05 67.9275 207.214 67.7637 207.214 67.5621V50.6487C207.214 50.6109 207.243 50.5815 207.281 50.5815H215.522C215.723 50.5815 215.887 50.4177 215.887 50.2161V46.3101C215.887 46.1085 215.723 45.9447 215.522 45.9447Z" fill="white" style="fill:white;fill-opacity:1;"/>
<path d="M191.338 45.9447H187.432C187.231 45.9447 187.067 46.1085 187.067 46.3101V60.0105C187.067 60.0483 187.042 60.0651 187.025 60.0735C187.008 60.0777 186.979 60.0861 186.953 60.0567L174.387 46.0707C174.316 45.9909 174.219 45.9489 174.114 45.9489H170.09C169.889 45.9489 169.725 46.1127 169.725 46.3143V67.5663C169.725 67.7679 169.889 67.9317 170.09 67.9317H173.996C174.198 67.9317 174.362 67.7679 174.362 67.5663V54.0171C174.362 53.9793 174.387 53.9625 174.404 53.9541C174.421 53.9499 174.45 53.9415 174.475 53.9709L187.042 67.8057C187.113 67.8855 187.21 67.9275 187.315 67.9275H191.338C191.54 67.9275 191.704 67.7637 191.704 67.5621V46.3101C191.704 46.1085 191.54 45.9447 191.338 45.9447Z" fill="white" style="fill:white;fill-opacity:1;"/>
<path d="M167.171 45.9447H163.471C163.278 45.9447 163.123 46.1085 163.123 46.3101V67.5621C163.123 67.7637 163.278 67.9275 163.471 67.9275H167.171C167.365 67.9275 167.52 67.7637 167.52 67.5621V46.3101C167.52 46.1085 167.365 45.9447 167.171 45.9447Z" fill="white" style="fill:white;fill-opacity:1;"/>
<path d="M128.872 45.9447H114.97C114.852 45.9447 114.755 46.0413 114.755 46.1589V67.7175C114.755 67.8351 114.852 67.9317 114.97 67.9317H119.178C119.296 67.9317 119.392 67.8351 119.392 67.7175V61.6401C119.392 61.5225 119.489 61.4259 119.606 61.4259H129.002C133.319 61.4259 136.822 57.8727 136.742 53.5341C136.663 49.2963 133.114 45.9447 128.876 45.9447H128.872ZM132.101 53.8029C132.038 55.4829 130.606 56.7849 128.926 56.7849H119.606C119.489 56.7849 119.392 56.6883 119.392 56.5707V50.7957C119.392 50.6781 119.489 50.5815 119.606 50.5815H129.002C130.753 50.5815 132.169 52.0389 132.101 53.8029Z" fill="white" style="fill:white;fill-opacity:1;"/>
<path d="M149.792 45.6297C143.479 45.6297 138.343 50.7033 138.343 56.9361C138.343 63.1689 143.479 68.2425 149.792 68.2425C156.105 68.2425 161.241 63.1689 161.241 56.9361C161.241 50.7033 156.105 45.6297 149.792 45.6297ZM156.411 56.9361C156.411 60.5397 153.442 63.4713 149.792 63.4713C146.142 63.4713 143.173 60.5397 143.173 56.9361C143.173 53.3325 146.142 50.4009 149.792 50.4009C153.442 50.4009 156.411 53.3325 156.411 56.9361Z" fill="white" style="fill:white;fill-opacity:1;"/>
<path d="M168.473 85.6011C168.578 85.6011 168.671 85.6767 168.688 85.7817C168.809 86.5293 169.33 87.1845 170.204 87.6843C172.459 88.9779 176.697 89.0997 178.763 87.9321C179.242 87.6633 179.809 87.1887 179.801 86.4705C179.788 84.6183 177.705 84.3705 174.53 84.2025L174.232 84.1857C167.054 83.7993 163.412 81.0567 163.412 77.3313C163.412 74.6391 165.227 73.0557 166.751 72.2031C170.712 69.9855 177.235 70.0863 181.292 72.4257C182.917 73.3623 184.862 75.0717 185.042 77.9403C185.051 78.0663 184.95 78.1713 184.824 78.1713L179.692 78.1965C179.582 78.1965 179.49 78.1209 179.473 78.0117C179.36 77.2179 178.826 76.5249 177.919 75.9999C175.798 74.7735 171.968 74.6517 170.04 75.7521C169.54 76.0377 168.952 76.5375 168.961 77.3271C168.99 79.1667 170.72 79.4439 173.568 79.6749C173.782 79.6917 174.001 79.7127 174.223 79.7295C180.002 80.2419 185.349 81.8421 185.349 86.4621C185.349 89.0283 183.56 90.5697 182.056 91.4139C180.061 92.5311 177.386 93.0897 174.685 93.0897C171.829 93.0897 168.944 92.4681 166.802 91.2333C165.21 90.3135 163.299 88.6419 163.114 85.8531C163.106 85.7271 163.207 85.6221 163.333 85.6221L168.469 85.5927L168.473 85.6011Z" fill="white" style="fill:white;fill-opacity:1;"/>
<path d="M160.695 79.4649L139.443 70.8843C139.329 70.8381 139.203 70.8507 139.102 70.9221C139.002 70.9893 138.943 71.1069 138.943 71.2287V75.1347C138.943 75.2859 139.035 75.4203 139.174 75.4791L154.798 81.7875C154.836 81.8001 154.84 81.8337 154.84 81.8505C154.84 81.8673 154.836 81.8967 154.798 81.9135L139.174 88.2219C139.035 88.2807 138.943 88.4151 138.943 88.5663V92.4723C138.943 92.5941 139.002 92.7117 139.102 92.7789C139.165 92.8209 139.237 92.8419 139.308 92.8419C139.354 92.8419 139.401 92.8335 139.443 92.8167L160.695 84.2361C160.833 84.1815 160.926 84.0429 160.926 83.8917V79.8093C160.926 79.6581 160.833 79.5237 160.695 79.4649Z" fill="white" style="fill:white;fill-opacity:1;"/>
<path d="M208.924 70.8591H187.672C187.47 70.8591 187.306 71.0229 187.306 71.2245V75.1305C187.306 75.3321 187.47 75.4959 187.672 75.4959H195.912C195.95 75.4959 195.979 75.5253 195.979 75.5631V92.4765C195.979 92.6781 196.143 92.8419 196.345 92.8419H200.251C200.452 92.8419 200.616 92.6781 200.616 92.4765V75.5631C200.616 75.5253 200.645 75.4959 200.683 75.4959H208.924C209.125 75.4959 209.289 75.3321 209.289 75.1305V71.2245C209.289 71.0229 209.125 70.8591 208.924 70.8591Z" fill="white" style="fill:white;fill-opacity:1;"/>
<path d="M119.459 75.4959H136.373C136.574 75.4959 136.738 75.3321 136.738 75.1305V71.2245C136.738 71.0229 136.574 70.8591 136.373 70.8591H115.121C114.919 70.8591 114.755 71.0229 114.755 71.2245V92.4765C114.755 92.6781 114.919 92.8419 115.121 92.8419H136.373C136.574 92.8419 136.738 92.6781 136.738 92.4765V88.5705C136.738 88.3689 136.574 88.2051 136.373 88.2051H119.459C119.422 88.2051 119.392 88.1757 119.392 88.1379V84.2319C119.392 84.1941 119.422 84.1647 119.459 84.1647H132.038C132.24 84.1647 132.404 84.0009 132.404 83.7993V79.8933C132.404 79.6917 132.24 79.5279 132.038 79.5279H119.459C119.422 79.5279 119.392 79.4985 119.392 79.4607V75.5547C119.392 75.5169 119.422 75.4875 119.459 75.4875V75.4959Z" fill="white" style="fill:white;fill-opacity:1;"/>
</g>
<path d="M37.8062 93.101H28.1475C25.2023 61.8293 23.7008 44.9808 23.643 42.5553C23.6142 43.1905 21.925 60.0391 18.5755 93.101H8.83016L1.29378 20.0761H9.78303C10.3028 27.4103 10.938 35.3509 11.6888 43.8979C12.4395 52.4449 13.0459 59.3605 13.5079 64.6446C13.9988 69.9288 14.2731 73.1194 14.3308 74.2167C14.3308 74.1878 16.251 56.1409 20.0914 20.0761H27.7144C28.3497 27.0927 29.0715 35.0189 29.88 43.8546C30.7174 52.6615 31.3671 59.6204 31.8291 64.7313C32.32 69.8421 32.6087 73.0039 32.6953 74.2167C32.7531 73.0328 33.0418 69.8566 33.5616 64.6879C34.0813 59.5193 34.7743 52.5749 35.6406 43.8546C36.5068 35.1344 37.2576 27.2082 37.8928 20.0761H46.512L37.8062 93.101ZM59.0293 93.101H50.8866V20.0761H59.0293V93.101ZM90.864 93.101H82.8945C81.3642 86.1132 79.4151 77.3063 77.0473 66.6803C74.6796 56.0254 73.0482 48.5179 72.153 44.1578C72.2685 50.8279 72.3263 60.8476 72.3263 74.2167V93.101H65.353V20.0761H74.925C78.5055 40.2019 81.5518 56.7329 84.064 69.6689C83.9485 64.096 83.8907 55.8522 83.8907 44.9374V20.0761H90.864V93.101Z" fill="url(#paint0_linear_166_96784)" style=""/>
<line x1="103.354" y1="20.9055" x2="103.354" y2="92.8415" stroke="white" style="stroke:white;stroke-opacity:1;" stroke-width="0.84"/>
<path d="M12.299 151.15H7.36402V106.893H19.5703V111.907H12.299V126.318H17.024V131.305H12.299V151.15ZM34.1653 151.15H21.959V106.893H33.8765V111.907H26.894V126.108H31.5665V131.095H26.894V146.215H34.1653V151.15ZM45.5578 144.325V138.025C45.5578 137.08 45.444 136.293 45.2165 135.663C45.0065 135.015 44.604 134.315 44.009 133.563C43.694 133.16 42.7928 132.084 41.3053 130.334C39.8178 128.584 38.654 127.114 37.814 125.924C36.9215 124.682 36.4753 122.818 36.4753 120.333V113.744C36.4753 108.862 38.8203 106.42 43.5103 106.42C45.9428 106.42 47.6928 107.015 48.7603 108.205C49.8278 109.378 50.3615 111.224 50.3615 113.744V121.803H45.7153V113.797C45.7153 112.222 45.024 111.434 43.6415 111.434C42.924 111.434 42.3903 111.618 42.0403 111.985C41.7078 112.353 41.5415 112.939 41.5415 113.744V120.28C41.5415 121.575 41.8215 122.582 42.3815 123.299C42.924 123.999 43.9215 125.207 45.374 126.922C46.8265 128.619 47.9115 129.958 48.629 130.938C49.3465 131.953 49.8365 132.985 50.099 134.035C50.379 135.085 50.519 136.398 50.519 137.973V144.325C50.519 149.19 48.1828 151.623 43.5103 151.623C38.8203 151.623 36.4753 149.19 36.4753 144.325V134.928H41.2528V144.325C41.2528 145.06 41.4278 145.638 41.7778 146.058C42.1453 146.478 42.6703 146.688 43.3528 146.688C44.8228 146.688 45.5578 145.9 45.5578 144.325ZM61.4653 151.15H56.5303V111.907H51.884V106.893H66.0853V111.907H61.4653V151.15ZM73.619 151.15H68.684V106.893H73.619V151.15ZM87.9253 151.15H81.3103L76.2703 106.893H81.4153C81.7653 110.83 82.2203 115.617 82.7803 121.252C83.3403 126.887 83.7953 131.55 84.1453 135.243C84.4953 138.935 84.6965 141.368 84.749 142.54C84.819 141.403 85.0553 138.962 85.4578 135.217C85.8603 131.472 86.3503 126.843 86.9278 121.33C87.5228 115.8 88.0128 110.988 88.3978 106.893H93.359L87.9253 151.15ZM109.897 151.15H104.883L104.069 144.325H98.6615C98.329 146.74 98.0403 149.015 97.7953 151.15H92.939L98.714 106.893H104.463L109.897 151.15ZM99.134 139.758H103.544C102.687 132.268 101.969 125.565 101.392 119.65C100.674 127 99.9215 133.703 99.134 139.758ZM124.675 151.15H112.469V106.893H117.404V146.215H124.675V151.15ZM142.578 151.15H137.643V111.907H132.997V106.893H147.198V111.907H142.578V151.15ZM154.732 151.15H149.797V106.893H154.732V151.15ZM167.594 144.115V134.928H172.109V144.063C172.109 146.653 171.584 148.56 170.534 149.785C169.484 151.01 167.822 151.623 165.547 151.623C160.769 151.623 158.38 149.138 158.38 144.168V114.059C158.38 108.967 160.769 106.42 165.547 106.42C167.752 106.42 169.397 107.042 170.482 108.284C171.567 109.509 172.109 111.399 172.109 113.954V121.803H167.594V113.954C167.594 113.079 167.437 112.44 167.122 112.038C166.807 111.635 166.282 111.434 165.547 111.434C164.147 111.434 163.447 112.274 163.447 113.954V144.115C163.447 145.83 164.147 146.688 165.547 146.688C166.264 146.688 166.78 146.478 167.095 146.058C167.428 145.638 167.594 144.99 167.594 144.115ZM192.138 151.15H186.442C186.127 150.1 184.044 142.969 180.194 129.757C180.264 132.119 180.299 136.153 180.299 141.858V151.15H175.312V106.893H180.299V116.054C180.299 120.709 180.264 123.929 180.194 125.714C182.679 117.787 184.7 111.513 186.258 106.893H191.587L184.499 126.843L192.138 151.15ZM206.418 151.15H194.212V106.893H206.129V111.907H199.147V126.108H203.819V131.095H199.147V146.215H206.418V151.15ZM217.495 151.15H212.56V111.907H207.914V106.893H222.115V111.907H217.495V151.15ZM232.563 144.325V138.025C232.563 137.08 232.449 136.293 232.222 135.663C232.012 135.015 231.609 134.315 231.014 133.563C230.699 133.16 229.798 132.084 228.31 130.334C226.823 128.584 225.659 127.114 224.819 125.924C223.927 124.682 223.48 122.818 223.48 120.333V113.744C223.48 108.862 225.825 106.42 230.515 106.42C232.948 106.42 234.698 107.015 235.765 108.205C236.833 109.378 237.367 111.224 237.367 113.744V121.803H232.72V113.797C232.72 112.222 232.029 111.434 230.647 111.434C229.929 111.434 229.395 111.618 229.045 111.985C228.713 112.353 228.547 112.939 228.547 113.744V120.28C228.547 121.575 228.827 122.582 229.387 123.299C229.929 123.999 230.927 125.207 232.379 126.922C233.832 128.619 234.917 129.958 235.634 130.938C236.352 131.953 236.842 132.985 237.104 134.035C237.384 135.085 237.524 136.398 237.524 137.973V144.325C237.524 149.19 235.188 151.623 230.515 151.623C225.825 151.623 223.48 149.19 223.48 144.325V134.928H228.258V144.325C228.258 145.06 228.433 145.638 228.783 146.058C229.15 146.478 229.675 146.688 230.358 146.688C231.828 146.688 232.563 145.9 232.563 144.325Z" fill="white" style="fill:white;fill-opacity:1;"/>
<defs>
<linearGradient id="paint0_linear_166_96784" x1="-32.5465" y1="46.9318" x2="109.391" y2="46.9318" gradientUnits="userSpaceOnUse">
<stop stop-color="#E5C888" style="stop-color:#E5C888;stop-color:color(display-p3 0.8980 0.7843 0.5333);stop-opacity:1;"/>
<stop offset="0.203125" stop-color="#C79807" style="stop-color:#C79807;stop-color:color(display-p3 0.7804 0.5961 0.0275);stop-opacity:1;"/>
<stop offset="0.532825" stop-color="#E5C888" style="stop-color:#E5C888;stop-color:color(display-p3 0.8980 0.7843 0.5333);stop-opacity:1;"/>
<stop offset="0.793894" stop-color="#C79807" style="stop-color:#C79807;stop-color:color(display-p3 0.7804 0.5961 0.0275);stop-opacity:1;"/>
<stop offset="1" stop-color="#E5C888" style="stop-color:#E5C888;stop-color:color(display-p3 0.8980 0.7843 0.5333);stop-opacity:1;"/>
</linearGradient>
<clipPath id="clip0_166_96784">
<rect width="125.126" height="72.0678" fill="white" style="fill:white;fill-opacity:1;" transform="translate(114.755 21.0303)"/>
</clipPath>
</defs>
</svg>
