<svg width="108" height="99" viewBox="0 0 108 99" fill="none" xmlns="http://www.w3.org/2000/svg">
<g clip-path="url(#clip0_225_12817)">
<path d="M82.0597 85.7228C82.1668 85.0535 81.9169 84.3395 81.4082 83.8844C80.8995 83.4292 80.1677 83.2507 79.5162 83.4292C79.8821 82.3939 79.6233 81.1713 78.8825 80.377C78.1418 79.5827 76.937 79.2346 75.8839 79.5202C76.1605 78.3154 75.5804 76.9677 74.5184 76.343C73.4563 75.7183 71.9927 75.87 71.0735 76.6911C71.0735 75.0132 69.9043 73.3979 68.2979 72.8892C66.6914 72.3805 64.7994 73.023 63.8355 74.3974C62.836 73.4425 61.2652 73.1391 59.989 73.6656C58.7128 74.1922 57.7935 75.5041 57.7489 76.8785C56.6155 76.468 55.25 76.7803 54.4022 77.646C53.5543 78.5117 53.2687 79.8772 53.6971 81.0017C52.5726 80.6715 51.2964 81.7781 51.4749 82.9383C50.9483 82.626 50.2165 82.6795 49.7435 83.0722C49.2705 83.4649 49.0831 84.17 49.2972 84.7501C48.7261 84.4912 47.9853 84.6608 47.5837 85.1427C47.1821 85.6247 47.1464 86.3833 47.5123 86.9009H81.7295L82.0686 85.7407L82.0597 85.7228Z" fill="white" style="fill:white;fill-opacity:1;"/>
<path d="M82.4259 85.8213C82.5419 85.018 82.301 84.1791 81.6762 83.6169C81.0515 83.0546 80.2126 82.8672 79.4183 83.0635L79.8824 83.5276C80.2751 82.3585 79.9895 81.0109 79.1506 80.1095C78.3116 79.1992 76.9729 78.8511 75.7859 79.1545L76.25 79.6186C76.5445 78.2531 75.9466 76.7627 74.7418 76.0398C73.5191 75.2991 71.8769 75.4954 70.8149 76.4325L71.4486 76.7002C71.4396 75.2366 70.6632 73.8533 69.4584 73.0411C68.2624 72.229 66.7096 72.1576 65.3976 72.7109C64.639 73.0322 64.0054 73.5409 63.5234 74.2103L64.1125 74.1389C62.988 73.0857 61.2655 72.7377 59.8376 73.3356C58.4096 73.9336 57.4636 75.3526 57.3922 76.8877L57.8652 76.5307C56.5979 76.0934 55.0986 76.4325 54.1525 77.3964C53.2065 78.3602 52.8942 79.8596 53.3493 81.118L53.8134 80.6539C52.4569 80.288 50.9397 81.5285 51.1181 82.9475L51.6804 82.6262C50.9932 82.2425 50.1007 82.296 49.4939 82.8136C48.9227 83.3045 48.7085 84.1434 48.9495 84.8574L49.4135 84.3933C48.7888 84.1345 48.0481 84.2684 47.5304 84.6878C47.0128 85.1073 46.7897 85.8302 46.9325 86.4906C47.0039 86.794 47.1645 87.2403 47.5304 87.2581C47.5751 87.2581 47.6197 87.2581 47.6643 87.2581H80.159C80.6588 87.2581 81.1586 87.2671 81.6584 87.2581C81.6762 87.2581 81.703 87.2581 81.7209 87.2581C81.8904 87.2581 82.0332 87.1421 82.0778 86.9815L82.417 85.8213C82.5509 85.3572 81.828 85.1608 81.6941 85.6249L81.3549 86.7851L81.7119 86.5085H48.8959C48.4586 86.5085 48.0034 86.4728 47.5661 86.5085C47.5483 86.5085 47.5304 86.5085 47.5126 86.5085L47.8339 86.6959C47.5661 86.2853 47.5572 85.7142 47.8963 85.3393C48.2355 84.9645 48.762 84.902 49.1993 85.0894C49.4582 85.1965 49.7437 84.8752 49.6634 84.6254C49.5117 84.188 49.6099 83.6793 49.9669 83.3581C50.3239 83.0368 50.8861 83.0011 51.2966 83.2331C51.5198 83.358 51.8946 83.2063 51.8589 82.9118C51.7429 81.9837 52.68 81.0823 53.6081 81.3411C53.8669 81.4125 54.1704 81.1537 54.0722 80.877C53.6974 79.8596 53.9116 78.6637 54.6791 77.8783C55.4466 77.0929 56.6336 76.852 57.6599 77.2089C57.9009 77.2893 58.124 77.0751 58.1329 76.852C58.1865 75.6382 58.9719 74.478 60.0964 73.9961C61.2209 73.5141 62.6667 73.7819 63.577 74.6386C63.7644 74.8171 64.0232 74.7636 64.166 74.5672C64.8532 73.6123 66.0313 73.0679 67.1915 73.0768C68.3517 73.0857 69.4941 73.7551 70.1277 74.7636C70.4936 75.3437 70.6989 75.9952 70.6989 76.6824C70.6989 77.0215 71.1005 77.1554 71.3325 76.9501C72.1447 76.2362 73.4209 76.1112 74.3491 76.6735C75.2772 77.2357 75.7324 78.3781 75.5093 79.4133C75.4468 79.69 75.6789 79.9488 75.9734 79.8774C76.9105 79.6365 77.9457 79.931 78.6151 80.6449C79.2844 81.3589 79.4629 82.421 79.1595 83.3402C79.0613 83.6169 79.3558 83.8668 79.6236 83.8043C80.7481 83.5276 81.8726 84.4647 81.7119 85.6428C81.6852 85.848 81.7566 86.0444 81.9707 86.1068C82.1492 86.1604 82.3991 86.0444 82.4348 85.848L82.4259 85.8213Z" fill="#231F20" style="fill:#231F20;fill:color(display-p3 0.1373 0.1216 0.1255);fill-opacity:1;"/>
<path d="M56.4554 80.8593C56.4376 80.5023 56.6161 80.1543 56.9463 80.0026C57.2765 79.8508 57.6603 79.949 57.9102 80.1989C58.1422 80.4309 58.4546 80.1811 58.4099 79.9044C58.2761 79.0655 59.1775 78.3872 59.945 78.7353C60.0967 78.8067 60.2663 78.7799 60.3555 78.6282C60.4358 78.5032 60.3912 78.289 60.2484 78.2176C59.6683 77.9588 58.9811 77.9945 58.4635 78.3872C57.9459 78.7799 57.7317 79.4225 57.8298 80.0561L58.3296 79.7616C57.9102 79.3421 57.2587 79.1993 56.7143 79.4403C56.1699 79.6813 55.8218 80.2524 55.8575 80.8415C55.8753 81.2252 56.4733 81.2252 56.4554 80.8415V80.8593Z" fill="#231F20" style="fill:#231F20;fill:color(display-p3 0.1373 0.1216 0.1255);fill-opacity:1;"/>
</g>
<path d="M66.8638 96.1634C67.0415 95.0439 66.615 93.8355 65.7709 93.0803C64.9268 92.325 63.6918 92.0229 62.59 92.3073C63.1942 90.5746 62.7677 88.5222 61.5238 87.1805C60.2798 85.8388 58.254 85.2613 56.4859 85.7322C56.9568 83.7153 55.9794 81.4496 54.1935 80.3922C52.4076 79.3349 49.9552 79.5925 48.4181 80.9786C48.427 78.162 46.4545 75.4432 43.7623 74.5902C41.0701 73.7372 37.8892 74.8123 36.2721 77.1136C34.6016 75.5054 31.9627 75.0078 29.8125 75.8785C27.6623 76.7493 26.134 78.9617 26.063 81.2807C24.1526 80.5966 21.8692 81.1208 20.4475 82.5691C19.0259 84.0174 18.5461 86.3098 19.2658 88.2112C17.3821 87.6514 15.2408 89.5173 15.534 91.4543C14.6455 90.9212 13.4282 91.0189 12.6286 91.6764C11.8289 92.3339 11.5179 93.5156 11.8733 94.493C10.9048 94.0576 9.66978 94.342 8.9945 95.1594C8.31923 95.9768 8.26592 97.2474 8.87011 98.1182H66.3129L66.8727 96.1723L66.8638 96.1634Z" fill="white" style="fill:white;fill-opacity:1;"/>
<path d="M67.4682 96.332C67.6548 94.9815 67.255 93.5688 66.2154 92.6358C65.1758 91.7029 63.7542 91.3741 62.4214 91.7029L63.1944 92.4759C63.8519 90.5122 63.3721 88.2554 61.9594 86.736C60.5466 85.2167 58.3076 84.6214 56.3084 85.1278L57.0814 85.9008C57.579 83.6173 56.575 81.1117 54.558 79.8856C52.4967 78.6327 49.7511 78.9704 47.9741 80.5431L49.0492 80.9873C49.0314 78.535 47.7253 76.216 45.6995 74.8476C43.6914 73.4882 41.0881 73.3638 38.8757 74.2968C37.6051 74.8299 36.53 75.6917 35.7303 76.8113L36.7166 76.6869C34.824 74.9099 31.9452 74.3323 29.5373 75.3363C27.1561 76.3315 25.5479 78.7216 25.4324 81.2894L26.2231 80.6852C24.0996 79.9566 21.5762 80.5164 19.9946 82.1335C18.4131 83.7417 17.871 86.2651 18.6441 88.3798L19.4171 87.6068C17.1425 86.9848 14.5835 89.0728 14.8856 91.4541L15.8275 90.9121C14.6724 90.2635 13.1797 90.3612 12.1668 91.2319C11.2072 92.0494 10.8429 93.471 11.2516 94.6527L12.0246 93.8797C10.9761 93.4444 9.73221 93.6665 8.87035 94.3773C7.98183 95.1059 7.64419 96.3321 7.89298 97.4338C8.00849 97.9492 8.28393 98.6955 8.88812 98.7222C8.96809 98.7222 9.03917 98.7222 9.11914 98.7222H63.6653C64.5005 98.7222 65.3446 98.7399 66.1799 98.7222C66.2154 98.7222 66.2509 98.7222 66.2865 98.7222C66.5619 98.7222 66.8107 98.5267 66.8907 98.2601C67.0773 97.6115 67.2639 96.9629 67.4504 96.3143C67.6726 95.5413 66.4642 95.2036 66.2421 95.9766C66.0555 96.6253 65.8689 97.2739 65.6823 97.9225L66.2865 97.4605H11.1805C10.443 97.4605 9.6789 97.4072 8.94143 97.4605C8.90589 97.4605 8.87923 97.4605 8.84369 97.4605L9.38569 97.7715C8.93255 97.0784 8.92366 96.1277 9.49232 95.488C10.061 94.8482 10.9406 94.7594 11.687 95.0704C12.1312 95.2569 12.6021 94.7149 12.46 94.2973C12.2112 93.5599 12.3711 92.7069 12.9664 92.1738C13.5617 91.6407 14.5036 91.5785 15.1966 91.9694C15.5698 92.1827 16.2006 91.925 16.1384 91.4274C15.943 89.8636 17.5156 88.362 19.0794 88.7885C19.5148 88.904 20.0213 88.4775 19.8524 88.0155C19.2305 86.3096 19.5859 84.3015 20.8742 82.9865C22.1626 81.6715 24.1618 81.2716 25.8766 81.867C26.2764 82.0091 26.6585 81.6448 26.6674 81.2628C26.7563 79.2192 28.0713 77.2733 29.9638 76.4736C31.8564 75.674 34.282 76.1093 35.8103 77.5487C36.1301 77.842 36.5566 77.7531 36.7965 77.4244C37.9427 75.825 39.9241 74.901 41.8788 74.9187C43.9047 74.9365 45.7439 76.056 46.819 77.762C47.4321 78.7305 47.7697 79.8322 47.7786 80.9784C47.7786 81.5471 48.4539 81.7781 48.8537 81.4227C50.222 80.2232 52.3634 80.0188 53.9183 80.9607C55.4732 81.9025 56.2462 83.8217 55.8641 85.5543C55.7664 86.0163 56.1574 86.4517 56.6372 86.3273C58.2098 85.9275 59.9513 86.4162 61.062 87.6068C62.1726 88.7974 62.4836 90.5922 61.9683 92.1294C61.8083 92.6003 62.297 93.009 62.7413 92.9024C64.6249 92.4403 66.5175 94.013 66.2421 95.9855C66.1976 96.3232 66.322 96.6519 66.6774 96.7585C66.9706 96.8385 67.406 96.6519 67.4504 96.3232L67.4682 96.332Z" fill="#231F20" style="fill:#231F20;fill:color(display-p3 0.1373 0.1216 0.1255);fill-opacity:1;"/>
<path d="M23.8771 87.9883C23.8504 87.393 24.1437 86.8066 24.7034 86.5489C25.2632 86.2912 25.9118 86.4689 26.3205 86.8777C26.7026 87.2597 27.2357 86.851 27.1557 86.389C26.9336 84.9762 28.4441 83.8478 29.7413 84.4342C29.9901 84.5497 30.2744 84.5053 30.4255 84.2565C30.5499 84.0433 30.4877 83.679 30.2478 83.5724C29.2704 83.1281 28.1242 83.1992 27.2624 83.8567C26.4005 84.5142 26.0273 85.5982 26.1961 86.6644L27.0313 86.1757C26.3294 85.4738 25.2365 85.2339 24.3125 85.6337C23.3884 86.0336 22.8198 87.0021 22.8731 87.9883C22.9086 88.628 23.9126 88.6369 23.8771 87.9883Z" fill="#231F20" style="fill:#231F20;fill:color(display-p3 0.1373 0.1216 0.1255);fill-opacity:1;"/>
<path d="M17.5244 92.5915C17.5244 92.5915 11.8734 69.9431 9.27897 58.188C4.49873 36.5704 0.509277 12.1805 0.509277 12.1805C0.509277 12.1805 1.25563 11.1765 2.38405 10.9277C3.51247 10.6789 4.50761 11.5497 4.50761 11.5497C4.50761 11.5497 8.31936 35.9484 12.0956 54.0653C14.8766 67.4286 21.3717 91.1432 21.3717 91.1432L21.2207 92.5204C21.2207 92.5204 20.2522 91.783 19.1593 91.783C18.3241 91.783 17.5333 92.5915 17.5333 92.5915H17.5244Z" fill="#BBBDBF" style="fill:#BBBDBF;fill:color(display-p3 0.7333 0.7412 0.7490);fill-opacity:1;"/>
<path d="M18.0039 92.4581C17.2664 89.5082 16.5379 86.5583 15.8182 83.6085C14.3699 77.6998 12.9305 71.7823 11.5444 65.8558C9.92728 58.9787 8.43457 52.0749 7.04848 45.1445C5.58242 37.8408 4.2141 30.5105 2.90797 23.1714C2.46371 20.7013 2.03722 18.2223 1.61073 15.7434C1.40638 14.5616 1.25533 13.371 1.01543 12.1982C1.00654 12.1449 0.997659 12.0915 0.988774 12.0382L0.935461 12.4292C0.784413 12.6335 0.962117 12.4025 0.997658 12.3581C1.10428 12.2426 1.2109 12.136 1.3353 12.0293C1.66405 11.7361 2.07277 11.4874 2.50814 11.4074C2.91686 11.3274 3.33447 11.434 3.68987 11.6206C3.81427 11.6828 3.92977 11.7539 4.04528 11.8339C4.12524 11.8872 4.14301 11.8694 4.10747 11.8783C4.11636 11.8872 4.13413 11.8961 4.14301 11.905C4.04528 11.6739 4.00974 11.6029 4.01862 11.6917C4.00085 11.7273 4.04528 11.8783 4.05416 11.9138C4.08082 12.1093 4.11636 12.3048 4.1519 12.5091C4.44511 14.375 4.74721 16.2498 5.05819 18.1157C6.21327 25.1617 7.42165 32.2076 8.71 39.2358C10.0517 46.5927 11.4733 53.9408 13.1793 61.2178C14.7519 67.9261 16.4668 74.6078 18.2172 81.2805C18.848 83.6884 19.4877 86.0963 20.1364 88.4953C20.323 89.1884 20.5095 89.8814 20.6961 90.5745C20.7406 90.7522 20.7939 90.9299 20.8383 91.1076C20.8472 91.152 20.8561 91.1964 20.8738 91.2408C20.9183 91.3475 20.8649 91.1786 20.8738 91.1786C20.7939 91.3741 20.8205 91.6673 20.7939 91.8806L20.7228 92.5292L21.478 92.0938C20.8649 91.6318 20.0653 91.3297 19.3012 91.2942C18.537 91.2586 17.7285 91.694 17.1865 92.2538C16.7333 92.7158 17.4442 93.4266 17.8973 92.9646C18.306 92.5559 18.848 92.236 19.4344 92.3159C19.9764 92.387 20.5362 92.6358 20.9716 92.9646C21.3092 93.2222 21.6913 92.8579 21.7268 92.5292C21.7801 92.005 21.9578 91.4097 21.8245 90.8943C21.7179 90.4678 21.5935 90.0502 21.478 89.6326C20.9538 87.6868 20.4296 85.7498 19.9142 83.8039C18.2616 77.5576 16.6445 71.3025 15.1162 65.0206C13.4814 58.3034 12.0508 51.5418 10.7536 44.7535C9.34974 37.3788 8.0525 29.9863 6.80857 22.585C6.38208 20.0171 5.95559 17.4493 5.53799 14.8815C5.4136 14.1085 5.2892 13.3355 5.16481 12.5713C5.1115 12.2159 5.07596 11.8428 4.99599 11.4962C4.93379 11.2297 4.72055 11.0964 4.49842 10.9542C3.79649 10.5011 2.94351 10.279 2.11719 10.5011C1.3886 10.6966 0.713332 11.1853 0.224647 11.7628C0.055828 11.9583 -0.00636943 12.1449 0.0291713 12.4025C0.206875 13.5754 0.42012 14.7393 0.615594 15.9122C1.6907 22.2384 2.82801 28.5558 4.01862 34.8643C5.5913 43.1808 7.24395 51.4885 9.10095 59.7428C10.5137 66.0335 12.0242 72.2976 13.5524 78.5617C14.6453 83.0576 15.7471 87.5535 16.8666 92.0405C16.9288 92.2804 16.9821 92.5114 17.0443 92.7513C17.2043 93.3822 18.1727 93.1156 18.0128 92.4848L18.0039 92.4581Z" fill="#231F20" style="fill:#231F20;fill:color(display-p3 0.1373 0.1216 0.1255);fill-opacity:1;"/>
<path d="M4.08945 19.8307C3.71627 20.5949 3.3431 21.359 2.9788 22.132C2.92549 22.2386 2.95215 22.3719 3.05877 22.4341C3.15651 22.4874 3.30756 22.4608 3.36087 22.3541L4.47152 20.0529C4.52483 19.9463 4.49817 19.813 4.39155 19.7508C4.29382 19.6975 4.14276 19.7241 4.08945 19.8307Z" fill="white" style="fill:white;fill-opacity:1;"/>
<path d="M4.25852 20.8526L3.27226 22.7185C3.21895 22.8252 3.2456 22.9584 3.35223 23.0206C3.44996 23.0828 3.60101 23.0473 3.65433 22.9407L4.64058 21.0748C4.69389 20.9681 4.66723 20.8349 4.56061 20.7727C4.46288 20.7105 4.31183 20.746 4.25852 20.8526Z" fill="white" style="fill:white;fill-opacity:1;"/>
<path d="M4.58727 21.8294C4.19632 22.5492 3.81426 23.2689 3.42331 23.9886C3.29003 24.2373 3.67209 24.4684 3.80537 24.2107C4.19632 23.491 4.57838 22.7713 4.96933 22.0516C5.10261 21.8028 4.72054 21.5718 4.58727 21.8294Z" fill="white" style="fill:white;fill-opacity:1;"/>
<path d="M4.74731 23.0381L3.56559 25.446C3.4412 25.7036 3.82326 25.9258 3.94765 25.6681C4.3386 24.8684 4.73843 24.0599 5.12938 23.2602C5.25377 23.0025 4.87171 22.7804 4.74731 23.0381Z" fill="white" style="fill:white;fill-opacity:1;"/>
<path d="M4.98729 24.1132L3.79667 26.5833C3.74336 26.6899 3.77002 26.8232 3.87664 26.8854C3.97438 26.9387 4.12543 26.9121 4.17874 26.8054L5.36936 24.3353C5.42267 24.2287 5.39601 24.0954 5.28939 24.0332C5.19165 23.9799 5.0406 24.0066 4.98729 24.1132Z" fill="white" style="fill:white;fill-opacity:1;"/>
<path d="M4.96001 25.6769L4.1248 27.4273C4.07149 27.5339 4.09814 27.6672 4.20476 27.7294C4.3025 27.7827 4.45355 27.7561 4.50686 27.6494L5.34207 25.8991C5.39539 25.7924 5.36873 25.6592 5.2621 25.597C5.16437 25.5437 5.01332 25.5703 4.96001 25.6769Z" fill="white" style="fill:white;fill-opacity:1;"/>
<path d="M5.27992 26.5833C4.96894 27.1875 4.65795 27.7828 4.34697 28.387C4.29366 28.4936 4.32031 28.6269 4.42693 28.6891C4.52467 28.7513 4.67572 28.7157 4.72903 28.6091C5.04001 28.0049 5.35099 27.4096 5.66197 26.8054C5.71528 26.6988 5.68863 26.5655 5.58201 26.5033C5.48427 26.4411 5.33323 26.4767 5.27992 26.5833Z" fill="white" style="fill:white;fill-opacity:1;"/>
<path d="M5.46642 27.427L4.44463 29.4617C4.39131 29.5683 4.41797 29.7016 4.52459 29.7638C4.62233 29.8171 4.77338 29.7905 4.82669 29.6838L5.84849 27.6491C5.9018 27.5425 5.87514 27.4092 5.76852 27.347C5.67078 27.2937 5.51973 27.3204 5.46642 27.427Z" fill="white" style="fill:white;fill-opacity:1;"/>
<path d="M5.68917 28.3875L4.61406 30.4844C4.56075 30.591 4.5874 30.7243 4.69402 30.7865C4.79176 30.8487 4.9428 30.8131 4.99612 30.7065L6.07123 28.6096C6.12454 28.503 6.09788 28.3697 5.99126 28.3075C5.89352 28.2453 5.74248 28.2809 5.68917 28.3875Z" fill="white" style="fill:white;fill-opacity:1;"/>
<path d="M5.63549 29.5686L4.78251 31.3723C4.7292 31.4789 4.75586 31.6122 4.86248 31.6744C4.96022 31.7277 5.11127 31.701 5.16458 31.5944L6.01756 29.7907C6.07087 29.6841 6.04421 29.5508 5.93759 29.4886C5.83985 29.4353 5.6888 29.462 5.63549 29.5686Z" fill="white" style="fill:white;fill-opacity:1;"/>
<path d="M5.88437 30.3147L4.91589 32.5538C4.87146 32.6604 4.88034 32.7937 4.99585 32.8559C5.09359 32.9092 5.25353 32.8825 5.29795 32.7759L6.26643 30.5368C6.31086 30.4302 6.30198 30.2969 6.18647 30.2347C6.08873 30.1814 5.9288 30.2081 5.88437 30.3147Z" fill="white" style="fill:white;fill-opacity:1;"/>
<path d="M5.98244 31.6475L5.01396 33.7622C4.96065 33.8688 4.9873 34.0021 5.09392 34.0643C5.19166 34.1176 5.3516 34.0909 5.39602 33.9843C5.71589 33.2824 6.04464 32.5805 6.36451 31.8696C6.41782 31.763 6.39117 31.6297 6.28454 31.5675C6.18681 31.5142 6.02687 31.5409 5.98244 31.6475Z" fill="white" style="fill:white;fill-opacity:1;"/>
<path d="M14.5297 76.4824C14.6275 76.1981 9.27858 53.5142 8.53222 49.7646C7.78586 46.0151 6.94177 44.3269 8.06131 43.5805C9.18084 42.8342 11.4377 59.5206 12.2818 63.1724C13.1259 66.8242 14.5297 76.4824 14.5297 76.4824Z" fill="white" style="fill:white;fill-opacity:1;"/>
<path d="M5.23584 13.682C5.23584 13.682 11.7131 10.3145 21.3269 9.67476C30.9318 9.03503 37.0981 11.1142 47.636 10.0746C58.1738 9.03503 63.4961 6.26285 69.5469 4.21926C75.5977 2.17566 80.9555 0.905078 84.2341 0.629637C87.5127 0.354196 94.7897 0.336426 94.7897 0.336426C94.7897 0.336426 95.8204 20.7546 98.1039 26.6899C100.378 32.6252 106.954 52.8923 106.954 52.8923C106.954 52.8923 97.473 52.7591 90.5603 55.4335C85.8512 57.255 80.7778 62.2307 70.5065 64.3898C60.2352 66.5489 53.3847 64.8607 44.0019 65.305C34.6192 65.7492 27.671 68.9479 25.3519 69.943C23.0329 70.9382 16.8754 74.7766 16.8754 74.7766C16.8754 74.7766 16.0758 49.898 13.4102 37.0767C10.8691 24.8329 5.25361 13.6731 5.25361 13.6731L5.23584 13.682Z" fill="#EC1C24" style="fill:#EC1C24;fill:color(display-p3 0.9255 0.1098 0.1412);fill-opacity:1;"/>
<path d="M43.5578 57.6374L42.9536 54.1544L43.8777 53.9945L43.931 54.3233L43.3268 54.4299L43.54 55.656L43.9665 55.585L44.0198 55.9048L43.5933 55.9759L43.8155 57.2731L44.4374 57.1665L44.4908 57.4864L43.5489 57.6552L43.5578 57.6374Z" fill="white" style="fill:white;fill-opacity:1;"/>
<path d="M45.2897 57.3348L44.6855 53.8518L45.0054 53.7985L45.5563 56.9617L46.1783 56.855L46.2316 57.1749L45.2897 57.3437V57.3348Z" fill="white" style="fill:white;fill-opacity:1;"/>
<path d="M48.9861 56.6955L48.8084 56.1268L48.2842 56.2157L48.3109 56.811L47.9999 56.8643L47.8755 53.3013L48.2487 53.2391L49.306 56.6422L48.9861 56.6955ZM48.7196 55.8336C48.5419 55.2472 48.3642 54.6785 48.1954 54.0832C48.2309 54.7052 48.2576 55.3005 48.2753 55.9047L48.7196 55.8247V55.8336Z" fill="white" style="fill:white;fill-opacity:1;"/>
<path d="M50.0788 56.4999L49.4746 53.0169L49.7945 52.9636L50.3454 56.1268L50.9673 56.0201L51.0206 56.34L50.0788 56.5088V56.4999Z" fill="white" style="fill:white;fill-opacity:1;"/>
<path d="M53.0734 55.9846L52.8868 54.9273C52.798 54.4208 52.718 53.9322 52.6291 53.4168L52.7002 56.0468L52.4159 56.1001L51.5985 53.6034C51.6873 54.1099 51.785 54.5985 51.8739 55.105L52.0605 56.1623L51.7673 56.2157L51.1631 52.7327L51.5985 52.6616L52.4425 55.3182L52.3359 52.5372L52.7802 52.4572L53.3844 55.9402L53.0823 55.9935L53.0734 55.9846Z" fill="white" style="fill:white;fill-opacity:1;"/>
<path d="M55.1082 55.6291L54.9305 55.0605L54.4063 55.1493L54.4329 55.7446L54.122 55.798L53.9976 52.235L54.3707 52.1728L55.4281 55.5758L55.1082 55.6291ZM54.8417 54.7673C54.664 54.1808 54.4862 53.6122 54.3174 53.0169C54.353 53.6388 54.3796 54.2342 54.3974 54.8383L54.8417 54.7584V54.7673Z" fill="white" style="fill:white;fill-opacity:1;"/>
<path d="M57.3205 55.2385L56.7163 51.7555L57.2583 51.6577C57.6226 51.5955 57.8447 51.7821 57.9158 52.1553L58.3156 54.4477C58.3867 54.8386 58.2357 55.0696 57.8714 55.1318L57.3294 55.2296L57.3205 55.2385ZM57.5871 52.2264C57.5604 52.0487 57.4627 51.9687 57.3116 51.9954L57.0895 52.0309L57.5871 54.8742L57.8092 54.8386C57.9602 54.812 58.0224 54.7053 57.9869 54.5276L57.5871 52.2353V52.2264Z" fill="white" style="fill:white;fill-opacity:1;"/>
<path d="M59.2487 54.9004L58.6445 51.4174L59.5686 51.2574L59.6219 51.5862L59.0177 51.6928L59.231 52.919L59.6574 52.8479L59.7108 53.1678L59.2843 53.2388L59.5064 54.5361L60.1284 54.4295L60.1817 54.7493L59.2398 54.9181L59.2487 54.9004Z" fill="white" style="fill:white;fill-opacity:1;"/>
<path d="M63.4157 54.1812L63.2291 53.1239C63.1402 52.6174 63.0603 52.1287 62.9714 51.6134L63.0425 54.2434L62.7582 54.2967L61.9407 51.8C62.0296 52.3065 62.1273 52.7951 62.2162 53.3016L62.4028 54.3589L62.1096 54.4122L61.5054 50.9292L61.9407 50.8582L62.7848 53.5148L62.6782 50.7338L63.1225 50.6538L63.7267 54.1368L63.4246 54.1901L63.4157 54.1812Z" fill="white" style="fill:white;fill-opacity:1;"/>
<path d="M65.45 53.8255L65.2723 53.2569L64.7481 53.3457L64.7747 53.9411L64.4637 53.9944L64.3394 50.4314L64.7125 50.3692L65.7699 53.7722L65.45 53.8255ZM65.1834 52.9637C65.0057 52.3773 64.828 51.8086 64.6592 51.2133C64.6948 51.8353 64.7214 52.4306 64.7392 53.0348L65.1834 52.9548V52.9637Z" fill="white" style="fill:white;fill-opacity:1;"/>
<path d="M66.5349 53.6305L65.9307 50.1475L66.4727 50.0498C66.837 49.9876 67.0591 50.1741 67.1302 50.5473L67.53 52.8397C67.6011 53.2306 67.45 53.4617 67.0857 53.5239L66.5437 53.6216L66.5349 53.6305ZM66.8103 50.6184C66.7836 50.4407 66.6859 50.3607 66.5349 50.3874L66.3127 50.4229L66.8103 53.2662L67.0324 53.2306C67.1835 53.204 67.2457 53.0974 67.2101 52.9197L66.8103 50.6273V50.6184Z" fill="white" style="fill:white;fill-opacity:1;"/>
<path d="M69.2805 53.1587C69.1117 52.6345 68.9518 52.128 68.7563 51.6215C68.7296 51.6304 68.7119 51.6304 68.6852 51.6393L68.5075 51.666L68.783 53.2475L68.4631 53.3008L67.8589 49.8178L68.392 49.729C68.8007 49.6579 69.0229 49.7912 69.1028 50.2532L69.2272 50.9463C69.2716 51.2039 69.2183 51.3816 69.0584 51.506C69.2716 52.0391 69.4582 52.5811 69.6359 53.1054L69.2805 53.1676V53.1587ZM68.783 50.3421C68.7385 50.0933 68.6674 50.0133 68.4453 50.0489L68.241 50.0844L68.4631 51.3728L68.6763 51.3372C68.8718 51.3017 68.934 51.2039 68.8985 50.9996L68.783 50.3421Z" fill="white" style="fill:white;fill-opacity:1;"/>
<path d="M70.4265 52.9543L69.8223 49.4713L70.1421 49.418L70.7463 52.901L70.4265 52.9543Z" fill="white" style="fill:white;fill-opacity:1;"/>
<path d="M71.6164 52.7501L71.0122 49.2671L71.5542 49.1694C71.9185 49.1072 72.1406 49.2938 72.2117 49.667L72.6115 51.9593C72.6826 52.3503 72.5316 52.5813 72.1673 52.6435L71.6253 52.7412L71.6164 52.7501ZM71.8918 49.7291C71.8652 49.5514 71.7675 49.4715 71.6164 49.4981L71.3943 49.5337L71.8918 52.3769L72.114 52.3414C72.265 52.3147 72.3272 52.2081 72.2917 52.0304L71.8918 49.738V49.7291Z" fill="white" style="fill:white;fill-opacity:1;"/>
<path d="M71.8498 47.1079L42.5093 52.2234L42.6268 52.8974L71.9673 47.7819L71.8498 47.1079Z" fill="url(#paint0_linear_225_12817)" style=""/>
<path d="M73.009 53.8008L43.6685 58.9163L43.786 59.5903L73.1265 54.4748L73.009 53.8008Z" fill="url(#paint1_linear_225_12817)" style=""/>
<path d="M76.3179 10.0836L76.1758 9.28395C76.1136 8.99074 75.7937 8.90189 75.5627 9.07071L73.4747 10.9011C73.3147 11.0255 73.2436 11.2654 73.368 11.4431C73.4658 11.5852 73.679 11.6208 73.8478 11.5674L75.9892 10.7767C76.309 10.67 76.389 10.3857 76.3268 10.0836H76.3179Z" fill="white" style="fill:white;fill-opacity:1;"/>
<path d="M79.5526 30.9464L76.8604 15.5217C76.6116 14.0912 76.7183 13.6291 77.127 13.1404C77.3047 12.9183 77.127 12.554 76.8693 12.5984L73.6617 13.1582C73.3952 13.2026 73.3597 13.6114 73.5996 13.7624C74.1504 14.0912 74.4081 14.4821 74.6569 15.9126L77.3491 31.3373C77.6157 33.0522 77.5801 33.532 77.1359 34.0651C76.9582 34.2872 77.1359 34.6515 77.3935 34.6071L80.6011 34.0473C80.8676 34.0029 80.9032 33.5942 80.6633 33.4431C80.068 33.0877 79.8636 32.6523 79.5438 30.9464H79.5526Z" fill="white" style="fill:white;fill-opacity:1;"/>
<path d="M75.3501 34.3755C74.737 34.0112 74.5415 33.5581 74.195 31.6922L73.1821 26.0412C72.9866 24.9394 72.5068 24.1309 71.5383 23.7577C72.1958 23.0025 72.6135 21.8207 72.3913 20.559L71.796 17.1649C71.3962 14.8459 69.6458 13.8507 67.4067 14.2328L62.6354 15.068C62.3688 15.1124 62.3333 15.5211 62.5732 15.6722C63.1241 16.0009 63.3817 16.3919 63.6838 18.0889L66.3405 33.3271C66.5982 34.9264 66.5715 35.424 66.1184 35.9748C65.9407 36.197 66.1184 36.5613 66.376 36.5168L69.5836 35.9571C69.8502 35.9126 69.8946 35.5039 69.6458 35.3529C69.0327 34.9886 68.8372 34.5266 68.4907 32.6695L67.3978 26.4055L69.2815 25.4992C70.17 25.3037 70.8808 25.828 71.023 26.6454L71.9826 32.0476C72.2847 33.9224 72.258 34.4199 71.8049 34.9708C71.6272 35.1929 71.8049 35.5572 72.0626 35.5128L75.2701 34.953C75.5367 34.9086 75.5722 34.4999 75.3323 34.3489L75.3501 34.3755ZM69.2548 23.0913C68.4641 23.4645 67.0158 24.1664 67.0158 24.1664L65.7363 16.8095L67.6555 16.4718C68.8994 16.2586 69.4681 16.7739 69.6636 17.8757L70.2411 21.1899C70.3655 21.9007 69.9568 22.7626 69.2548 23.0913Z" fill="white" style="fill:white;fill-opacity:1;"/>
<path d="M54.2386 38.0809C53.7854 37.8055 53.5722 37.459 53.2434 36.5882L48.2144 19.7508C48.0012 18.9778 47.9834 18.5957 48.3299 18.1959C48.5343 17.9648 48.3566 17.565 48.0811 17.6094L42.7056 18.5424C42.4301 18.5957 42.4035 19.0222 42.67 19.1732C43.1232 19.4309 43.2387 19.7952 43.3009 20.5949C43.3009 20.5949 44.2249 37.2901 44.2694 38.1431C44.3138 38.9517 44.1716 39.467 43.8429 39.8757C43.6741 40.0801 43.7985 40.4444 44.1183 40.3911L47.3436 39.8313C47.6546 39.778 47.6369 39.3604 47.397 39.2626C46.7217 38.9961 46.4551 38.5429 46.4107 37.8588C46.384 37.4145 46.3041 35.8241 46.2508 34.7579L46.2241 34.2159L49.8226 32.4832L51.1554 37.0325C51.3509 37.69 51.2442 38.2053 50.7022 38.6851C50.5068 38.8628 50.6312 39.2626 50.9422 39.2093L54.1675 38.6496C54.4163 38.6051 54.4785 38.2142 54.2474 38.072L54.2386 38.0809ZM45.9131 28.6982L45.4422 20.3461L46.1086 20.2306L49.0496 29.9687L49.1651 30.3686L46.082 31.8524L45.9131 28.6982Z" fill="white" style="fill:white;fill-opacity:1;"/>
<path d="M56.4693 16.1525L51.92 16.9433C51.6535 16.9877 51.618 17.3964 51.8579 17.5475C52.4087 17.8762 52.6664 18.2672 52.9152 19.6977L54.8522 30.822C55.1187 32.5368 55.0832 33.0166 54.6389 33.5497C54.4612 33.7719 54.6389 34.1361 54.8966 34.0917L59.4458 33.3009C61.6849 32.91 62.9821 31.3729 62.5734 29.0627L60.8408 19.0846C60.4409 16.7656 58.6906 15.7704 56.4515 16.1525H56.4693ZM60.3521 29.1693C60.5387 30.2622 60.1833 30.9464 58.9394 31.1685L57.2334 31.4706L55.0032 18.6848L56.7092 18.3827C57.9531 18.1695 58.5217 18.6848 58.7172 19.7866L60.3521 29.1693Z" fill="white" style="fill:white;fill-opacity:1;"/>
<path d="M62.6534 34.9554L56.745 35.9855C56.4646 36.0344 56.2769 36.3013 56.3258 36.5817L56.5242 37.7196C56.5731 38 56.84 38.1877 57.1204 38.1388L63.0288 37.1087C63.3092 37.0598 63.4968 36.7929 63.448 36.5125L63.2496 35.3746C63.2007 35.0942 62.9338 34.9065 62.6534 34.9554Z" fill="white" style="fill:white;fill-opacity:1;"/>
<path d="M41.2131 37.4324L38.6542 22.7274C38.3521 20.8615 38.3787 20.3639 38.8319 19.813C39.0096 19.5909 38.8319 19.2266 38.5742 19.271L35.2778 19.8486C35.0112 19.893 34.9757 20.3017 35.2156 20.4528C35.5888 20.6749 35.6687 21.0747 35.6065 21.75L34.4781 31.4971L34.2116 31.5415L29.8667 22.754C29.5824 22.141 29.5202 21.7322 29.7956 21.3946C29.9733 21.1725 29.7956 20.8082 29.538 20.8526L26.2415 21.4302C25.975 21.4746 25.9306 21.8833 26.1793 22.0343C26.7924 22.3986 26.9879 22.8607 27.3344 24.7266L29.8934 39.4227C30.1955 41.2886 30.1688 41.7861 29.7157 42.337C29.538 42.5591 29.7157 42.9234 29.9733 42.879L33.1809 42.3192C33.4474 42.2748 33.4919 41.8661 33.2431 41.715C32.63 41.3508 32.4345 40.8887 32.088 39.0317L30.1599 27.9608L34.0161 35.7797L34.3093 36.375L36.0686 35.531L36.1574 34.7579L37.0993 26.7613L39.0273 37.8322C39.3294 39.6981 39.3028 40.1957 38.8496 40.7466C38.6719 40.9687 38.8496 41.333 39.1073 41.2886L42.3149 40.7288C42.5814 40.6844 42.6258 40.2756 42.3771 40.1246C41.764 39.7603 41.5685 39.2983 41.222 37.4413L41.2131 37.4324Z" fill="white" style="fill:white;fill-opacity:1;"/>
<path d="M36.1928 51.2936L34.9399 44.0877L36.8503 43.759L36.9658 44.4342L35.7218 44.6475L36.1661 47.1798L37.0457 47.0287L37.1612 47.6951L36.2816 47.8462L36.7525 50.5295L38.0409 50.3074L38.1564 50.9649L36.2016 51.3025L36.1928 51.2936Z" fill="white" style="fill:white;fill-opacity:1;"/>
<path d="M41.7095 50.3332C41.2564 49.3914 40.5633 47.721 40.4211 47.3389C40.4211 47.7565 40.3323 49.5424 40.2346 50.5909L39.5504 50.7064L39.9325 46.6814L38.4575 43.4738L39.1683 43.3494C39.5149 44.0958 40.0569 45.4286 40.199 45.8284C40.199 45.4019 40.2612 43.9625 40.3323 43.1451L41.0253 43.0207L40.6966 46.5215L42.4381 50.1999L41.7184 50.3243L41.7095 50.3332Z" fill="white" style="fill:white;fill-opacity:1;"/>
<path d="M47.9921 49.2414L46.7393 42.0355L48.6496 41.7068L48.7651 42.3821L47.5212 42.5953L47.9654 45.1276L48.8451 44.9765L48.9606 45.6429L48.0809 45.794L48.5518 48.4773L49.8402 48.2552L49.9557 48.9127L48.001 49.2503L47.9921 49.2414Z" fill="white" style="fill:white;fill-opacity:1;"/>
<path d="M51.6972 48.5918L50.4443 41.3859L51.5639 41.1905C52.408 41.0483 52.87 41.377 53.0299 42.2833L53.2343 43.4651C53.3942 44.3714 53.0744 44.8245 52.2303 44.9756L51.7682 45.0555L52.3635 48.4763L51.6972 48.5918ZM52.3724 42.39C52.3013 41.9635 52.1059 41.7858 51.6883 41.8569L51.2351 41.9368L51.6616 44.398L52.1236 44.318C52.5057 44.247 52.6568 44.0337 52.5857 43.5895L52.3724 42.39Z" fill="white" style="fill:white;fill-opacity:1;"/>
<path d="M56.8507 45.1091L57.4283 44.8336L57.6948 46.353C57.837 47.1971 57.5971 47.6413 56.8596 47.7746C56.1222 47.9079 55.6424 47.5703 55.5002 46.7617L54.6472 41.8571C54.5051 41.0219 54.816 40.551 55.5802 40.4177C56.2821 40.2933 56.6997 40.6487 56.8419 41.4572L57.0551 42.7012L56.4776 42.9766L56.2288 41.5728C56.1577 41.1907 56.0244 41.0308 55.6868 41.093C55.3758 41.1463 55.2425 41.3595 55.3136 41.7327L56.1666 46.6373C56.2288 47.0105 56.4243 47.1793 56.7352 47.126C57.0462 47.0727 57.1528 46.8683 57.0818 46.4774L56.8419 45.1179L56.8507 45.1091Z" fill="white" style="fill:white;fill-opacity:1;"/>
<path d="M45.0597 47.1705L45.6373 46.895L45.9038 48.4144C46.046 49.2585 45.8061 49.7027 45.0686 49.836C44.3312 49.9693 43.8514 49.6317 43.7092 48.8231L42.8562 43.9185C42.714 43.0833 43.025 42.6124 43.7892 42.4791C44.4911 42.3547 44.9087 42.7101 45.0508 43.5186L45.2641 44.7626L44.6866 45.038L44.4378 43.6342C44.3667 43.2521 44.2334 43.0922 43.8958 43.1544C43.5848 43.2077 43.4515 43.4209 43.5226 43.7941L44.3756 48.6987C44.4378 49.0719 44.6332 49.2407 44.9442 49.1874C45.2552 49.1341 45.3618 48.9297 45.2908 48.5388L45.0508 47.1793L45.0597 47.1705Z" fill="white" style="fill:white;fill-opacity:1;"/>
<path d="M59.889 47.1614L58.6362 39.9555L59.3026 39.84L60.5554 47.0459L59.889 47.1614Z" fill="white" style="fill:white;fill-opacity:1;"/>
<path d="M61.5327 40.6308C61.3905 39.8223 61.6838 39.3425 62.4479 39.2092C63.212 39.0759 63.6563 39.4313 63.7984 40.2399L64.6514 45.1534C64.7936 45.9619 64.5004 46.4417 63.7274 46.575C62.9543 46.7083 62.5278 46.3529 62.3857 45.5443L61.5327 40.6308ZM63.132 40.3554C63.0699 39.9911 62.8744 39.8311 62.5634 39.8845C62.2524 39.9378 62.128 40.151 62.1991 40.5153L63.0521 45.4288C63.1143 45.802 63.3097 45.9708 63.6118 45.9175C63.9139 45.8642 64.0472 45.6421 63.985 45.2689L63.132 40.3554Z" fill="white" style="fill:white;fill-opacity:1;"/>
<path d="M68.6683 45.6331L66.5092 40.5863C66.7047 41.6614 66.8913 42.701 67.0779 43.785L67.4422 45.8552L66.8646 45.953L65.6118 38.7471L66.4115 38.6049L68.4373 43.6961C68.2596 42.7099 68.0908 41.7503 67.922 40.7818L67.5132 38.4183L68.0997 38.3117L69.3525 45.5176L68.6861 45.6331H68.6683Z" fill="white" style="fill:white;fill-opacity:1;"/>
<path d="M73.0747 44.8606L72.6749 43.519L71.6442 44.0165L71.6886 45.1094L71.04 45.2249L70.7734 37.8502L71.5553 37.7169L73.75 44.7629L73.0836 44.8784L73.0747 44.8606ZM72.4972 42.9414L71.4309 39.4673L71.6086 43.359L72.4883 42.9325L72.4972 42.9414Z" fill="white" style="fill:white;fill-opacity:1;"/>
<path d="M75.5267 44.4339L74.2739 37.228L74.9403 37.1125L76.0776 43.6609L77.366 43.4387L77.4815 44.0963L75.5267 44.4339Z" fill="white" style="fill:white;fill-opacity:1;"/>
<path d="M76.4153 38.0096C76.3087 37.3965 76.7174 36.8012 77.3394 36.6946C77.9614 36.5879 78.5389 37.0055 78.6455 37.6097C78.7521 38.2228 78.3434 38.8181 77.7215 38.9247C77.0995 39.0314 76.522 38.6138 76.4153 38.0096ZM78.5211 37.6364C78.4234 37.0855 77.9258 36.7212 77.366 36.8189C76.8063 36.9167 76.4509 37.4409 76.5486 37.9829C76.6463 38.5338 77.1439 38.8981 77.7037 38.8003C78.2635 38.7026 78.6189 38.1784 78.5211 37.6364ZM76.9662 37.2632L77.4904 37.1744C77.6504 37.1477 77.7836 37.1744 77.8814 37.2365C77.9614 37.2899 78.0058 37.3698 78.0236 37.4765C78.0591 37.6719 77.9702 37.8141 77.8281 37.8941L78.1924 38.2672L77.8903 38.3205L77.5704 37.9829L77.366 38.0184L77.4282 38.4005L77.1706 38.4449L76.9662 37.2543V37.2632ZM77.5882 37.7519C77.7214 37.7252 77.7748 37.6453 77.7659 37.5475C77.7481 37.4231 77.6593 37.3787 77.526 37.4054L77.2683 37.4498L77.3305 37.7963L77.5882 37.7519Z" fill="white" style="fill:white;fill-opacity:1;"/>
<path d="M5.55566 14.0191C5.55566 14.0191 12.033 10.6516 21.6467 10.0119C31.2605 9.37213 37.418 11.4513 47.9558 10.4117C58.4936 9.37213 63.8159 6.59995 69.8667 4.55635C75.9175 2.51276 81.2753 1.24218 84.5539 0.966734C87.8326 0.691293 95.1095 0.673523 95.1095 0.673523C95.1095 0.673523 96.1402 21.0917 98.4237 27.027C100.707 32.9623 107.273 53.2294 107.273 53.2294C107.273 53.2294 97.7929 53.0962 90.8802 55.7706C86.171 57.5921 81.0976 62.5678 70.8263 64.7269C60.555 66.886 53.7045 65.1978 44.3218 65.6421C34.939 66.0863 27.9908 69.285 25.6717 70.2801C23.3527 71.2842 17.1953 75.1137 17.1953 75.1137C17.1953 75.1137 16.3956 50.2351 13.73 37.4138C11.1889 25.17 5.57343 14.0102 5.57343 14.0102L5.55566 14.0191Z" stroke="#231F20" style="stroke:#231F20;stroke:color(display-p3 0.1373 0.1216 0.1255);stroke-opacity:1;" stroke-width="0.682589" stroke-miterlimit="10"/>
<path d="M17.5419 93.9245C17.8795 92.4051 19.7276 91.8986 20.785 93.0448C21.0249 93.3025 21.558 93.1959 21.6202 92.8227C21.7446 92.1385 21.8601 91.3566 22.3221 90.7969C22.6597 90.3882 23.2817 90.1038 23.7704 90.397C24.3213 90.7347 24.8277 89.8639 24.2768 89.5263C23.4683 89.0376 22.482 89.2864 21.8068 89.8817C21.0515 90.5392 20.8294 91.6054 20.6517 92.5473L21.4869 92.3251C20.7672 91.5521 19.6388 91.2056 18.617 91.481C17.5952 91.7565 16.7955 92.6272 16.5645 93.649C16.4223 94.2799 17.3908 94.5464 17.533 93.9156L17.5419 93.9245Z" fill="#231F20" style="fill:#231F20;fill:color(display-p3 0.1373 0.1216 0.1255);fill-opacity:1;"/>
<defs>
<linearGradient id="paint0_linear_225_12817" x1="42.5657" y1="52.5473" x2="71.9063" y2="47.4318" gradientUnits="userSpaceOnUse">
<stop stop-color="#DDC081" style="stop-color:#DDC081;stop-color:color(display-p3 0.8667 0.7529 0.5059);stop-opacity:1;"/>
<stop offset="0.25" stop-color="#BF911F" style="stop-color:#BF911F;stop-color:color(display-p3 0.7490 0.5686 0.1216);stop-opacity:1;"/>
<stop offset="0.5" stop-color="#DDC081" style="stop-color:#DDC081;stop-color:color(display-p3 0.8667 0.7529 0.5059);stop-opacity:1;"/>
<stop offset="0.75" stop-color="#BF911F" style="stop-color:#BF911F;stop-color:color(display-p3 0.7490 0.5686 0.1216);stop-opacity:1;"/>
<stop offset="1" stop-color="#DDC081" style="stop-color:#DDC081;stop-color:color(display-p3 0.8667 0.7529 0.5059);stop-opacity:1;"/>
</linearGradient>
<linearGradient id="paint1_linear_225_12817" x1="43.728" y1="59.2577" x2="73.0685" y2="54.1422" gradientUnits="userSpaceOnUse">
<stop stop-color="#DDC081" style="stop-color:#DDC081;stop-color:color(display-p3 0.8667 0.7529 0.5059);stop-opacity:1;"/>
<stop offset="0.25" stop-color="#BF911F" style="stop-color:#BF911F;stop-color:color(display-p3 0.7490 0.5686 0.1216);stop-opacity:1;"/>
<stop offset="0.5" stop-color="#DDC081" style="stop-color:#DDC081;stop-color:color(display-p3 0.8667 0.7529 0.5059);stop-opacity:1;"/>
<stop offset="0.75" stop-color="#BF911F" style="stop-color:#BF911F;stop-color:color(display-p3 0.7490 0.5686 0.1216);stop-opacity:1;"/>
<stop offset="1" stop-color="#DDC081" style="stop-color:#DDC081;stop-color:color(display-p3 0.8667 0.7529 0.5059);stop-opacity:1;"/>
</linearGradient>
<clipPath id="clip0_225_12817">
<rect width="35.5559" height="14.931" fill="white" style="fill:white;fill-opacity:1;" transform="translate(46.8882 72.3362)"/>
</clipPath>
</defs>
</svg>
