<svg width="80" height="99" viewBox="0 0 80 99" fill="none" xmlns="http://www.w3.org/2000/svg">
<path d="M6.72269 0.110073C3.22689 -0.331633 0.784314 0.662206 0 1.21434V99H80V5.63216C75.07 2.31936 72.2628 -0.00112557 67.2269 2.32068C62.5 4.5 61.4248 4.28495 60 4C57.5187 3.50374 56.515 3.00747 55.1568 2.33588L55.1261 2.32068C54.0056 1.58381 51.2269 0.662621 49.0756 2.87281C46.9244 5.08301 43.4734 4.16182 42.0168 3.42495C40.5602 2.50473 37.1092 0.885137 34.958 1.76855C32.2689 2.87281 31.9328 3.97708 24.5378 1.21434C17.1429 -1.5484 16.4706 2.87281 14.1176 2.87281C11.7647 2.87281 11.0924 0.662206 6.72269 0.110073Z" fill="#D9C786"/>
</svg>
