<svg width="65" height="103" viewBox="0 0 65 103" fill="none" xmlns="http://www.w3.org/2000/svg">
<path d="M56.7085 86.0444C56.7085 86.0444 56.7085 86.0419 56.7085 86.0407C56.7085 86.0322 56.7115 86.0225 56.713 86.014C56.7159 85.997 56.7189 85.9787 56.7219 85.9617C56.7234 85.952 56.7249 85.9411 56.7263 85.9313C56.7308 85.9022 56.7352 85.8718 56.7382 85.8426C56.7382 85.8365 56.7382 85.8305 56.7397 85.8232C56.7427 85.7928 56.7441 85.7636 56.7441 85.7332C56.7441 85.7284 56.7441 85.7223 56.7441 85.7174C56.7441 85.6882 56.7412 85.6591 56.7367 85.6311C56.7367 85.6275 56.7352 85.6226 56.7338 85.619C56.7278 85.591 56.7204 85.563 56.7085 85.5375C56.7085 85.5351 56.7056 85.5326 56.7041 85.5302C56.6907 85.5035 56.6744 85.4792 56.6536 85.4573C56.6536 83.1503 56.6521 80.8433 56.6507 78.5362C56.6507 75.7138 56.6477 72.8902 56.6477 70.0678C56.6477 67.2455 56.6477 64.3526 56.6447 61.4949C56.6432 58.5656 56.6432 55.6362 56.6418 52.7069C56.6418 49.9076 56.6403 47.1083 56.6388 44.309C56.6388 41.8792 56.6373 39.4494 56.6358 37.0196C56.6358 36.5723 56.6358 36.125 56.6358 35.6777C56.6358 32.803 56.6343 29.9296 56.6329 27.0549C56.6329 25.0737 56.6314 23.0924 56.6299 21.1111C56.6299 21.1087 56.6299 21.1063 56.6299 21.1038C56.6299 21.071 56.6299 21.0382 56.6299 21.0042C56.6299 21.0042 56.6299 21.0042 56.6299 21.003C56.6299 20.9787 56.6254 20.9543 56.618 20.9312C56.618 20.9288 56.618 20.9252 56.618 20.9227C56.618 20.8924 56.6165 20.8632 56.6165 20.8328C56.6165 20.8036 56.6165 20.7744 56.6151 20.7465C56.6136 20.7076 56.6091 20.6675 56.6061 20.6286C56.6032 20.5994 56.6017 20.5715 56.5987 20.5435C56.5943 20.5034 56.5883 20.4645 56.5824 20.4256C56.578 20.3976 56.575 20.3697 56.5705 20.3417C56.5631 20.3016 56.5557 20.2627 56.5483 20.2226C56.5423 20.1947 56.5379 20.1679 56.532 20.14C56.5231 20.0998 56.5127 20.0597 56.5023 20.0208C56.4949 19.9941 56.4889 19.9674 56.4815 19.9406C56.4696 19.9005 56.4578 19.8604 56.4459 19.8203C56.4385 19.7948 56.4311 19.768 56.4222 19.7425C56.4088 19.7012 56.394 19.661 56.3791 19.6209C56.3702 19.5966 56.3613 19.5711 56.3524 19.5468C56.3361 19.5055 56.3198 19.4641 56.3035 19.4228C56.2946 19.3997 56.2842 19.3754 56.2753 19.3523C56.2575 19.3098 56.2382 19.2672 56.2189 19.2247C56.2085 19.2028 56.1996 19.1809 56.1907 19.159C56.1699 19.1141 56.1491 19.0703 56.1269 19.0253C56.118 19.0059 56.1091 18.9864 56.0987 18.9682C56.075 18.9208 56.0512 18.8746 56.026 18.8272C56.0171 18.8114 56.0097 18.7944 56.0008 18.7786C55.9726 18.7263 55.9444 18.6753 55.9162 18.6242C55.9103 18.6133 55.9043 18.6023 55.8984 18.5914C55.8984 18.589 55.8969 18.5878 55.8954 18.5853C55.8628 18.527 55.8287 18.4699 55.796 18.4127C55.796 18.4103 55.793 18.4091 55.793 18.4067C55.7559 18.3434 55.7189 18.2815 55.6803 18.2195C55.6803 18.2195 55.6803 18.2195 55.6803 18.2183C55.6061 18.0967 55.5289 17.9776 55.4518 17.8597C55.388 17.7807 55.3257 17.7004 55.2633 17.6202C55.2307 17.5777 55.1995 17.5364 55.1669 17.4938C55.1253 17.4391 55.0853 17.3844 55.0452 17.3285C55.0141 17.2872 54.9844 17.2446 54.9547 17.2021C54.9146 17.145 54.8731 17.0878 54.833 17.0307C54.8048 16.9894 54.7752 16.9481 54.747 16.9079C54.7054 16.8472 54.6639 16.7864 54.6223 16.7256C54.5956 16.6867 54.5689 16.6478 54.5422 16.6077C54.4888 16.5299 54.4369 16.4521 54.3849 16.3743C54.3508 16.3233 54.3167 16.2734 54.2826 16.2224C54.238 16.158 54.195 16.0923 54.1505 16.0279C54.1416 16.0145 54.1327 16.0024 54.1238 15.989C54.1164 15.9781 54.109 15.9671 54.1015 15.9562C54.0793 15.9246 54.0585 15.893 54.0362 15.8614C54.0066 15.8176 53.9769 15.7739 53.9457 15.7301C53.8849 15.6426 53.8241 15.5551 53.7618 15.4688C53.7543 15.4591 53.7469 15.4481 53.7395 15.4384C53.738 15.436 53.735 15.4335 53.7336 15.4311C53.6579 15.3375 53.5822 15.2427 53.508 15.1479C53.5051 15.143 53.5006 15.1394 53.4976 15.1345C53.4784 15.1102 53.4591 15.0847 53.4398 15.0604C53.4353 15.0555 53.4324 15.0507 53.4279 15.0458C53.376 14.9777 53.324 14.9109 53.2736 14.8428C53.2558 14.8197 53.2395 14.7954 53.2217 14.7723C53.2053 14.7492 53.1875 14.7261 53.1712 14.703C53.1252 14.6386 53.0777 14.5742 53.0332 14.5098C53.0273 14.5013 53.0214 14.494 53.0154 14.4854C52.9887 14.4466 52.9635 14.4089 52.9368 14.37C52.8923 14.3031 52.8477 14.2351 52.8032 14.1682C52.7736 14.1208 52.7439 14.0734 52.7142 14.0248C52.689 13.9847 52.6638 13.9446 52.64 13.9032C52.6014 13.8376 52.5643 13.772 52.5287 13.7051C52.5124 13.6759 52.4961 13.6468 52.4798 13.6164C52.4679 13.5933 52.456 13.5702 52.4442 13.5471C52.4041 13.4693 52.364 13.3903 52.3269 13.3113C52.3269 13.3088 52.3269 13.3052 52.3255 13.3028C52.3225 13.2845 52.3195 13.2663 52.3136 13.2469C52.3121 13.2408 52.3106 13.2347 52.3091 13.2286C52.3032 13.208 52.2973 13.1885 52.2898 13.1678C52.2824 13.1435 52.2735 13.1204 52.2646 13.0973C52.2646 13.0949 52.2631 13.0925 52.2617 13.0901C52.2528 13.0657 52.2453 13.0414 52.2394 13.0183C52.2231 12.9612 52.2053 12.9041 52.1875 12.847C52.2795 12.7752 52.3715 12.7011 52.4605 12.6269L52.4813 12.6051L52.5065 12.5771L52.5302 12.5504L52.5525 12.5236L52.5747 12.4981L52.6163 12.4495L52.637 12.4264L52.6563 12.4033L52.6949 12.3595L52.7127 12.3389L52.7305 12.3194L52.7335 12.3158L52.7483 12.3L52.8018 12.2416L52.8092 12.2331L52.8196 12.2222L52.8374 12.204L52.9145 12.1262L52.9175 12.1237L52.9279 12.114L52.9338 12.1079L52.9368 12.1043L52.9546 12.0885L52.9679 12.0751L52.9739 12.069L52.9932 12.0508L52.9961 12.0484L53.0184 12.0277L53.0213 12.0253L53.0421 12.007L53.1371 11.9195L53.1564 11.9013L53.1593 11.8976L53.1831 11.8758L53.1875 11.8721L53.2068 11.8539L53.2231 11.8381L53.238 11.8235L53.2706 11.7919L53.278 11.7858L53.3315 11.7311L53.37 11.6922L53.376 11.6862L53.3834 11.6789L53.4027 11.6594L53.4131 11.6485L53.4249 11.6351V11.6339L53.4279 11.6302L53.4561 11.5999L53.465 11.5901L53.4695 11.5865L53.4858 11.5682L53.4962 11.5573L53.5169 11.5342L53.5243 11.5257C53.5243 11.5233 53.5243 11.5221 53.5243 11.5196C53.508 11.4503 53.4932 11.3811 53.4813 11.3118C53.4769 11.2899 53.4739 11.268 53.4709 11.2449C53.4665 11.2158 53.465 11.1866 53.462 11.1574C53.462 11.1538 53.462 11.1501 53.462 11.1453C53.465 11.11 53.4665 11.0735 53.4665 11.0383C53.4665 11.0249 53.468 11.0128 53.468 10.9994C53.468 10.9957 53.468 10.9909 53.468 10.9872C53.468 10.935 53.4635 10.8827 53.4576 10.8317C53.4576 10.8304 53.4576 10.8292 53.4576 10.8268C53.4605 10.8231 53.4635 10.8195 53.4665 10.8159C53.4665 10.7964 53.4635 10.777 53.462 10.7575C53.4561 10.7368 53.4502 10.7162 53.4442 10.6955C53.4383 10.6785 53.4324 10.6627 53.4249 10.6469C53.419 10.6202 53.4116 10.5934 53.4042 10.5667C53.4042 10.5606 53.4027 10.5557 53.4027 10.5497C53.4027 10.5339 53.4012 10.5181 53.3982 10.5035C53.3967 10.495 53.3923 10.4877 53.3893 10.4804C53.3849 10.4694 53.3819 10.4585 53.3775 10.4488C53.373 10.4415 53.3686 10.4342 53.3626 10.4281C53.3567 10.4196 53.3507 10.4099 53.3448 10.4026C53.3389 10.3953 53.3315 10.3904 53.3255 10.3844C53.3181 10.3771 53.3107 10.3698 53.3033 10.3637C53.3018 10.3625 53.3003 10.3613 53.2988 10.36C53.2988 10.36 53.2988 10.36 53.2988 10.3588C53.2899 10.3418 53.2825 10.3248 53.2736 10.3078C53.2691 10.2993 53.2647 10.2908 53.2602 10.2822C53.2261 10.219 53.189 10.1583 53.1504 10.0975C53.1504 10.0963 53.149 10.0938 53.1475 10.0926C53.1089 10.0416 53.0688 9.99174 53.0258 9.94312C52.9902 9.90909 52.9546 9.87627 52.9175 9.84345C52.9145 9.83981 52.9116 9.83738 52.9086 9.83373C52.9056 9.83008 52.9026 9.82765 52.8997 9.82401C52.8878 9.81063 52.8745 9.79605 52.8611 9.78268C52.8611 9.78268 52.8611 9.78268 52.8596 9.78268C52.8374 9.75958 52.8166 9.73649 52.7928 9.71461C52.7884 9.71096 52.7854 9.7061 52.781 9.70246C52.775 9.69759 52.7661 9.6903 52.7587 9.68544C52.7305 9.66234 52.6994 9.63803 52.6667 9.61251C52.6593 9.60765 52.6534 9.60278 52.6474 9.59671C52.6044 9.56267 52.5584 9.52864 52.5109 9.49704C52.5109 9.49704 52.5094 9.49582 52.508 9.4946C52.508 9.48731 52.5035 9.4788 52.5035 9.47151C52.5035 9.47151 52.5035 9.47151 52.5035 9.47029C52.1786 9.28068 51.8417 9.10443 51.4975 8.93912C50.9544 8.679 50.3906 8.45049 49.8149 8.24264C49.8149 8.24264 49.8149 8.24264 49.8134 8.24264C49.7867 8.23292 49.7615 8.22441 49.7348 8.21468C49.5834 8.1612 49.4321 8.10772 49.2808 8.05667C49.2644 8.05059 49.2481 8.04451 49.2318 8.03965C49.1235 8.00319 49.0137 7.97037 48.9054 7.93512C48.9054 7.93512 48.9054 7.93512 48.9054 7.9339C48.8564 7.9181 48.8059 7.90351 48.757 7.88893C48.6843 7.86583 48.6101 7.84396 48.5374 7.82208C48.4246 7.78804 48.3118 7.75522 48.1976 7.72241C48.1264 7.70174 48.0552 7.68108 47.9839 7.66163C47.8608 7.6276 47.7391 7.59478 47.616 7.56074C47.5536 7.54373 47.4928 7.52671 47.4305 7.51091C47.2569 7.46593 47.0833 7.42096 46.9097 7.3772C46.8993 7.37477 46.8889 7.37234 46.88 7.36991C46.472 7.26781 46.0595 7.17908 45.6455 7.09278C45.6425 7.09278 45.6396 7.09278 45.6381 7.09156C45.512 7.06482 45.3873 7.03929 45.2612 7.01498C45.2582 7.01498 45.2553 7.01498 45.2523 7.01498C45.0817 6.98095 44.9095 6.94813 44.7374 6.91653C44.7374 6.91653 44.7374 6.91653 44.7374 6.91531C44.6469 6.8983 44.5549 6.88249 44.4644 6.86669C44.4629 6.86669 44.4614 6.86669 44.4585 6.86669C42.8397 6.58348 41.2046 6.37198 39.5576 6.2395C37.8898 6.08999 36.2161 6.01706 34.5424 6.00977C34.4207 6.00977 34.2991 6.00977 34.1774 6.00977C34.1774 6.00977 34.1774 6.01098 34.1774 6.0122C33.4667 6.0122 32.7559 6.02314 32.0467 6.04623C32.0467 6.04623 32.0452 6.04623 32.0437 6.04623C31.7158 6.05717 31.3894 6.07176 31.0615 6.08756C30.971 6.09242 30.8805 6.09485 30.7899 6.0985C30.373 6.12038 29.9546 6.1459 29.5391 6.17507C28.7201 6.2322 27.901 6.30513 27.0864 6.39629C26.6814 6.44248 26.2763 6.48989 25.8712 6.54337C25.6531 6.57254 25.4335 6.60171 25.2154 6.63332C25.1041 6.64912 24.9943 6.66492 24.883 6.68194C24.84 6.68801 24.797 6.69531 24.7539 6.70139C24.751 6.70139 24.7495 6.70139 24.7465 6.70139C24.7302 6.70382 24.7124 6.70625 24.6961 6.70868C24.6768 6.71111 24.6575 6.71476 24.6382 6.71719C24.6367 6.71719 24.6352 6.71719 24.6338 6.71719C24.5922 6.72326 24.5507 6.72934 24.5076 6.73663C23.6812 6.86669 22.8592 7.01498 22.0446 7.18515C21.3071 7.33952 20.5756 7.51334 19.853 7.70782C19.853 7.70782 19.853 7.70782 19.8516 7.70782C19.8145 7.71754 19.7774 7.72727 19.7403 7.73821C19.5177 7.79898 19.2951 7.86219 19.0726 7.92661C19.0058 7.94606 18.9405 7.96551 18.8752 7.98617C18.7105 8.03479 18.5473 8.08584 18.3841 8.13811C18.3426 8.15148 18.301 8.16242 18.2609 8.17579C18.2609 8.17579 18.2609 8.17579 18.2609 8.177C18.0057 8.25966 17.752 8.34353 17.5013 8.43347C17.298 8.5064 17.0962 8.58176 16.8959 8.65956C16.8528 8.67657 16.8083 8.69359 16.7653 8.71061C16.5665 8.7884 16.3691 8.86862 16.1733 8.95249C16.1495 8.96222 16.1273 8.97316 16.1035 8.98288C15.9952 9.03028 15.8854 9.07647 15.7786 9.12631C15.7548 9.12631 15.7311 9.12995 15.7089 9.1336C15.7059 9.1336 15.7029 9.1336 15.7014 9.1336C15.6688 9.13968 15.6376 9.14819 15.6065 9.15913C15.5976 9.16156 15.5902 9.1652 15.5812 9.16885C15.556 9.17857 15.5323 9.18951 15.5085 9.20167C15.5041 9.2041 15.4982 9.20653 15.4937 9.20896C15.4655 9.22476 15.4373 9.24178 15.4106 9.2588C15.4032 9.26366 15.3973 9.26731 15.3913 9.27217C15.3691 9.28797 15.3468 9.30256 15.3246 9.31836C15.3171 9.32322 15.3097 9.3293 15.3023 9.33416C15.2875 9.3451 15.2726 9.35604 15.2578 9.36698C15.2504 9.37305 15.2429 9.37792 15.2355 9.38399C15.1109 9.44598 14.9877 9.50919 14.8661 9.57361C14.8394 9.59428 14.8141 9.61372 14.7874 9.63439C14.7681 9.64897 14.7489 9.66477 14.7296 9.67936C14.7296 9.67936 14.7281 9.68179 14.7266 9.68301C14.7236 9.68665 14.7192 9.6903 14.7162 9.69395C14.7014 9.70853 14.6865 9.72433 14.6717 9.73892C14.6672 9.74378 14.6628 9.74864 14.6569 9.75351C14.642 9.76931 14.6287 9.78511 14.6138 9.80213C14.5975 9.82644 14.5812 9.85075 14.5649 9.87384C14.5604 9.87992 14.5574 9.886 14.553 9.89086C14.553 9.89329 14.55 9.89572 14.5485 9.89815C14.5426 9.90666 14.5382 9.91395 14.5322 9.92246C14.5278 9.92975 14.5218 9.93826 14.5174 9.94677C14.5174 9.9492 14.5144 9.95042 14.5144 9.95285C14.51 9.96014 14.5055 9.96622 14.5011 9.97351C14.4966 9.9808 14.4907 9.98931 14.4862 9.99661C14.4773 10.0112 14.4684 10.0258 14.4595 10.0404C14.4536 10.0489 14.4491 10.0574 14.4432 10.0659C14.4402 10.0695 14.4387 10.0732 14.4373 10.0756C14.4343 10.0805 14.4313 10.0866 14.4269 10.0914C14.4165 10.1096 14.4046 10.1291 14.3942 10.1473C14.3942 10.1473 14.3942 10.1473 14.3942 10.1485C14.3942 10.1485 14.3942 10.151 14.3927 10.151C14.3913 10.1534 14.3898 10.1558 14.3883 10.1583C14.3883 10.1595 14.3868 10.1607 14.3853 10.1619C14.3853 10.168 14.3824 10.1741 14.3809 10.1801C14.3779 10.1947 14.3749 10.2093 14.3705 10.2227C14.3705 10.2239 14.3705 10.2263 14.3705 10.2276C14.3675 10.2373 14.366 10.247 14.3631 10.2567C14.3631 10.2592 14.3631 10.2616 14.3631 10.2628C14.3542 10.3041 14.3482 10.3467 14.3438 10.388C14.3438 10.3904 14.3438 10.3929 14.3438 10.3953C14.3438 10.4014 14.3438 10.4074 14.3438 10.4135C14.3393 10.4561 14.3364 10.4974 14.3334 10.5399C14.326 10.6518 14.3215 10.7624 14.3215 10.8754C14.3215 10.8876 14.3215 10.8985 14.3215 10.9107C14.3215 10.9192 14.3215 10.9265 14.3215 10.935C14.3215 10.9423 14.3215 10.9483 14.323 10.9556C14.326 11.0103 14.3304 11.0662 14.3378 11.1209C14.3378 11.1282 14.3378 11.1355 14.3393 11.144C14.3393 11.144 14.3393 11.144 14.3393 11.1453C14.3393 11.1489 14.3423 11.1525 14.3423 11.1562C14.3467 11.1708 14.3527 11.1841 14.3571 11.1987C14.3616 11.2133 14.3675 11.2267 14.372 11.2413C14.3868 11.2838 14.4031 11.3264 14.418 11.3689C14.4209 11.3762 14.4224 11.3823 14.4254 11.3896C14.4298 11.4029 14.4358 11.4163 14.4402 11.4297C14.4476 11.4503 14.4565 11.4698 14.464 11.4905C14.464 11.4917 14.464 11.4941 14.4654 11.4953C14.4654 11.4965 14.4654 11.499 14.4669 11.5002C14.4714 11.5123 14.4773 11.5245 14.4818 11.5379C14.4877 11.5524 14.4936 11.5658 14.4981 11.5804C14.5025 11.5938 14.5085 11.6059 14.5144 11.6193C14.5144 11.6193 14.5144 11.6217 14.5144 11.6229C14.5352 11.674 14.5574 11.7263 14.5797 11.7773C14.5797 11.7785 14.5812 11.781 14.5812 11.7822C14.5886 11.7992 14.596 11.815 14.6034 11.832C14.6079 11.8417 14.6123 11.8502 14.6168 11.86C14.6183 11.8636 14.6198 11.866 14.6212 11.8697C14.6301 11.8879 14.6405 11.9062 14.6494 11.9244C14.6494 11.9244 14.6494 11.9256 14.6494 11.9268C14.6524 11.9317 14.6554 11.9378 14.6583 11.9426C14.685 11.9657 14.7073 11.9912 14.7251 12.018C14.7251 12.018 14.7251 12.0192 14.7266 12.0204C14.7429 12.0314 14.7607 12.0411 14.7785 12.0484C14.783 12.0508 14.7889 12.052 14.7934 12.0544C14.8023 12.0581 14.8112 12.0617 14.8201 12.0654C14.823 12.0678 14.8245 12.0702 14.8275 12.0727C14.8275 12.0727 14.829 12.0751 14.8305 12.0763C14.8364 12.0848 14.8438 12.0946 14.8497 12.1031C14.8779 12.1432 14.9061 12.1845 14.9358 12.2246C14.9358 12.2246 14.9358 12.2258 14.9373 12.227C14.9536 12.2453 14.967 12.2647 14.9818 12.283C14.9774 12.3048 14.9744 12.3279 14.9699 12.3498L15.007 12.3778L15.0515 12.4118L15.0961 12.4446L15.102 12.4495C15.102 12.4495 15.1079 12.4592 15.1109 12.4629C15.1168 12.4726 15.1213 12.4823 15.1272 12.492C15.1421 12.52 15.1569 12.5467 15.1702 12.5747C15.1762 12.5868 15.1821 12.599 15.1866 12.6111C15.197 12.6367 15.2073 12.661 15.2162 12.6853C15.2207 12.6974 15.2251 12.7096 15.2296 12.7205C15.2385 12.7473 15.2474 12.7752 15.2548 12.802C15.2563 12.8105 15.2593 12.8178 15.2622 12.8263C15.2711 12.8603 15.2786 12.8944 15.286 12.9272C15.2875 12.9357 15.2889 12.9442 15.2904 12.9539C15.2934 12.9673 15.2949 12.9807 15.2978 12.994C15.3082 13.0548 15.3157 13.1144 15.3231 13.1691C15.3201 13.1727 15.3186 13.1776 15.3157 13.1812C15.1851 13.5155 15.0204 13.8376 14.8349 14.1512C14.8319 14.156 14.829 14.1609 14.826 14.1658C14.6613 14.4405 14.4788 14.7079 14.2859 14.9704C14.1153 15.2014 13.9387 15.4299 13.7562 15.6548C13.5262 15.9757 13.3066 16.3026 13.0855 16.6284C12.9772 16.79 12.8674 16.9505 12.7561 17.1109C12.7205 17.162 12.6849 17.2118 12.6493 17.2629C12.4564 17.5376 12.2561 17.8098 12.0424 18.0748C11.9534 18.2097 11.8674 18.3483 11.7828 18.4869C11.7783 18.493 11.7754 18.499 11.7709 18.5051C11.7679 18.51 11.765 18.5148 11.762 18.5197C11.7412 18.5537 11.7205 18.5878 11.7012 18.6218C11.6997 18.6254 11.6982 18.6279 11.6952 18.6315C11.6774 18.6607 11.6611 18.6911 11.6433 18.7203C11.627 18.7494 11.6092 18.7774 11.5929 18.8066C11.5854 18.8187 11.5795 18.8309 11.5721 18.843C11.5691 18.8491 11.5647 18.8564 11.5617 18.8625C11.538 18.9062 11.5127 18.95 11.4905 18.9937C11.4816 19.0095 11.4742 19.0266 11.4653 19.0424C11.4415 19.0885 11.4163 19.136 11.3926 19.1834C11.3822 19.2028 11.3733 19.2223 11.3644 19.2417C11.3436 19.2855 11.3213 19.3304 11.3006 19.3742C11.2902 19.3961 11.2813 19.4179 11.2709 19.4398C11.2516 19.4824 11.2323 19.5249 11.2145 19.5675C11.2041 19.5905 11.1967 19.6136 11.1863 19.6367C11.17 19.6781 11.1522 19.7206 11.1373 19.7619C11.1284 19.7862 11.1195 19.8118 11.1106 19.8361C11.0958 19.8774 11.081 19.9175 11.0676 19.9588C11.0587 19.9844 11.0513 20.0099 11.0439 20.0354C11.032 20.0755 11.0186 20.1169 11.0068 20.157C10.9993 20.1837 10.9934 20.2092 10.986 20.236C10.9756 20.2761 10.9652 20.3162 10.9563 20.3563C10.9504 20.3831 10.9459 20.4098 10.94 20.4365C10.9326 20.4766 10.9237 20.5168 10.9163 20.5569C10.9118 20.5836 10.9088 20.6116 10.9044 20.6383C10.8985 20.6784 10.8925 20.7185 10.8881 20.7586C10.8851 20.7866 10.8836 20.8146 10.8806 20.8425C10.8777 20.8826 10.8732 20.9227 10.8717 20.9628C10.8717 20.9908 10.8717 21.02 10.8703 21.0479C10.8703 21.0783 10.8673 21.1087 10.8688 21.1391C10.8688 21.1415 10.8688 21.1452 10.8688 21.1476C10.8614 21.1707 10.8569 21.1938 10.8569 21.2193C10.8569 21.2193 10.8569 21.2205 10.8569 21.2218C10.8569 21.2546 10.8569 21.2874 10.8569 21.3214C10.8569 21.3239 10.8569 21.3263 10.8569 21.3287C10.8569 23.31 10.8554 25.2912 10.8539 27.2725C10.8539 29.3607 10.8525 31.449 10.851 33.5372C10.851 33.6976 10.851 33.8569 10.851 34.0173C10.851 34.6433 10.851 35.2693 10.851 35.8953C10.851 38.7724 10.8495 41.6494 10.848 44.5265C10.848 47.3258 10.8465 50.1251 10.845 52.9244C10.845 55.8538 10.845 58.7831 10.8421 61.7125C10.8406 64.5701 10.8391 67.4278 10.8391 70.2854C10.8391 73.1431 10.8376 75.9314 10.8361 78.7538C10.8361 80.3887 10.8361 82.0247 10.8347 83.6596C10.8347 84.2357 10.8347 84.8119 10.8347 85.388C10.8347 85.484 10.8347 85.5801 10.8347 85.6761C10.8139 85.698 10.7976 85.7223 10.7842 85.749C10.7842 85.7514 10.7812 85.7551 10.7798 85.7575C10.7679 85.783 10.7605 85.8098 10.7545 85.8377C10.7545 85.8426 10.753 85.8463 10.7516 85.8511C10.7471 85.8791 10.7441 85.907 10.7441 85.9362C10.7441 85.9423 10.7441 85.9471 10.7441 85.9532C10.7441 85.9824 10.7456 86.0116 10.7486 86.0407C10.7486 86.048 10.7486 86.0553 10.7501 86.0626C10.753 86.0906 10.756 86.1185 10.7605 86.1477C10.7619 86.1623 10.7649 86.1769 10.7679 86.1915C10.7679 86.1939 10.7679 86.1951 10.7679 86.1975C10.7827 86.2899 10.799 86.3799 10.799 86.4564C10.8599 87.2538 10.8243 88.0512 10.8183 88.8485C10.7961 89.3299 10.8851 89.8076 10.8762 90.2889C10.8762 90.2926 10.8762 90.2974 10.8762 90.3011C10.8717 90.3472 10.8703 90.3934 10.8673 90.4396C10.8673 90.4554 10.8673 90.4724 10.8673 90.4882C10.8673 90.5271 10.8673 90.566 10.8673 90.6037C10.8673 90.6171 10.8673 90.6317 10.8673 90.645C10.8688 90.6949 10.8732 90.7447 10.8777 90.7946C10.8777 90.8079 10.8806 90.8201 10.8821 90.8334C10.8866 90.8723 10.8925 90.9112 10.8999 90.9501C10.9029 90.9659 10.9059 90.9817 10.9088 90.9963C10.9177 91.0425 10.9296 91.0899 10.9415 91.1361C10.9415 91.1398 10.943 91.1434 10.9445 91.147C10.9578 91.1957 10.9756 91.2431 10.9934 91.2905C10.9993 91.3051 11.0053 91.3197 11.0112 91.333C11.0261 91.3695 11.0424 91.4047 11.0602 91.44C11.0661 91.4521 11.0721 91.4643 11.078 91.4765C11.1017 91.5214 11.1284 91.5652 11.1581 91.6089C11.1596 91.6114 11.1611 91.615 11.164 91.6174C11.1655 91.6235 11.17 91.6296 11.173 91.6357C11.1759 91.6418 11.1774 91.6466 11.1804 91.6527C11.1922 91.6734 11.2056 91.694 11.2234 91.7123C11.2397 91.7281 11.256 91.7439 11.2724 91.7584C11.2768 91.7633 11.2813 91.767 11.2857 91.7718C11.3273 91.8192 11.3733 91.8642 11.4222 91.908C11.4311 91.9152 11.44 91.9225 11.4475 91.9298C11.4964 91.9712 11.5483 92.0113 11.6047 92.0489C11.6092 92.0526 11.6136 92.0562 11.6196 92.0599C11.6225 92.0623 11.624 92.0635 11.627 92.066C11.7605 92.1741 11.897 92.2787 12.0335 92.3844C12.0365 92.3869 12.041 92.3893 12.0439 92.3929C12.0513 92.3978 12.0588 92.4039 12.0647 92.4087C12.1597 92.478 12.2517 92.5473 12.3437 92.619C12.3793 92.647 12.4149 92.6761 12.4505 92.7041C12.5128 92.7539 12.5751 92.8038 12.6374 92.8536C12.6775 92.8864 12.7176 92.9205 12.7576 92.9545C12.8125 93.0019 12.8689 93.0481 12.9238 93.0955C12.9654 93.1307 13.0054 93.1672 13.0455 93.2037C13.0974 93.2499 13.1493 93.2973 13.2013 93.3447C13.5336 93.651 13.8467 93.9694 14.145 94.2964C14.1924 94.3584 14.2355 94.4216 14.2785 94.4848C14.2874 94.4982 14.2948 94.5103 14.3037 94.5237C14.3438 94.5869 14.3838 94.6513 14.4195 94.717C14.4195 94.7194 14.4209 94.7206 14.4224 94.723C14.4595 94.7899 14.4951 94.8568 14.5293 94.9236C14.5352 94.9345 14.5396 94.9443 14.5456 94.9552C14.5797 95.0233 14.6138 95.0926 14.6465 95.1618C14.6301 95.1691 14.6138 95.1776 14.599 95.1874C14.6569 95.2688 14.7147 95.349 14.7741 95.428C14.78 95.4366 14.7859 95.4438 14.7919 95.4523C14.8141 95.4815 14.8364 95.5107 14.8586 95.5399C14.8854 95.5715 14.9121 95.6031 14.9403 95.6347C14.9462 95.642 14.9536 95.6505 14.9595 95.6578C14.9892 95.6918 15.0189 95.7258 15.0486 95.7611C15.0515 95.7647 15.0545 95.7684 15.0575 95.772C15.3943 95.8899 15.7356 95.9969 16.0798 96.0954C16.8439 96.3141 17.6185 96.5001 18.4019 96.6654C18.4524 96.6764 18.5043 96.6873 18.5547 96.697C18.5547 96.697 18.5547 96.697 18.5547 96.6958C18.9034 96.7675 19.2536 96.8344 19.6052 96.8976C19.9777 96.9656 20.3531 97.0301 20.727 97.0872C21.043 97.1358 21.3576 97.182 21.6736 97.227C21.7211 97.2343 21.7686 97.2404 21.8161 97.2476C22.1202 97.2902 22.4259 97.3303 22.7316 97.368C22.7612 97.3716 22.7909 97.3765 22.8221 97.3801C22.9259 97.3923 23.0313 97.4057 23.1351 97.4178C23.5358 97.464 23.9364 97.5102 24.3385 97.5503C24.7777 97.5928 25.2154 97.6342 25.6546 97.6731C26.4529 97.7436 27.2556 97.7971 28.0568 97.8445C28.867 97.8919 29.6771 97.932 30.4873 97.9551C31.6238 97.9879 32.7604 98.0098 33.897 98.0098C34.4074 98.0098 34.9178 98.0049 35.4267 97.9952C36.2784 97.9794 37.1301 97.9551 37.9818 97.9198C38.7623 97.8882 39.5427 97.8469 40.3217 97.791C40.7446 97.7606 41.1675 97.7326 41.5889 97.6949C41.6497 97.6889 41.712 97.6828 41.7728 97.6779C42.1334 97.6451 42.4954 97.6135 42.856 97.5783C42.9792 97.5661 43.1023 97.5527 43.2255 97.5394C43.408 97.5199 43.592 97.4993 43.7745 97.4786C44.2893 97.419 44.8027 97.3534 45.3146 97.2829C45.3235 97.2829 45.3324 97.2805 45.3398 97.2792C45.739 97.2246 46.1351 97.1613 46.5328 97.0981C46.9052 97.0386 47.2791 96.9729 47.6486 96.9024C48.0522 96.8247 48.4558 96.7469 48.8549 96.6545C49.2437 96.5645 49.6324 96.4746 50.0152 96.3701C50.0731 96.3543 50.1695 96.3275 50.2675 96.3008C50.6265 96.2023 50.9797 96.0917 51.3284 95.9738C51.3476 95.958 51.3655 95.9422 51.3847 95.9252C51.4011 95.9106 51.4174 95.8972 51.4337 95.8826C51.45 95.8693 51.4649 95.8547 51.4812 95.8401C51.4812 95.8401 51.4842 95.8377 51.4856 95.8364C51.5168 95.8085 51.548 95.7805 51.5776 95.7526C51.5821 95.7489 51.5851 95.7453 51.5895 95.7416C51.5925 95.738 51.5969 95.7356 51.5999 95.7319C51.6177 95.7161 51.6355 95.6991 51.6518 95.6821C51.6681 95.6663 51.6845 95.6505 51.7008 95.6347C51.7141 95.6225 51.726 95.6091 51.7394 95.597C51.7483 95.5885 51.7572 95.58 51.7661 95.5703C51.775 95.5605 51.7839 95.552 51.7928 95.5423C51.7987 95.5362 51.8047 95.5301 51.8106 95.5228C51.8225 95.5119 51.8328 95.501 51.8432 95.4888C51.8952 95.4305 51.9471 95.3709 51.9975 95.3114C52.0139 95.2919 52.0317 95.2712 52.048 95.2518C52.0554 95.2421 52.0628 95.2336 52.0702 95.2238C52.0851 95.2044 52.0999 95.1862 52.1148 95.1667C52.1207 95.1594 52.1266 95.1509 52.1311 95.1436C52.143 95.1278 52.1548 95.112 52.1652 95.0962C52.1771 95.0804 52.1889 95.0646 52.2008 95.0476C52.2068 95.0391 52.2142 95.0294 52.2201 95.0208C52.2275 95.0099 52.2349 94.9978 52.2439 94.9868C52.3952 94.6817 52.4545 94.373 52.5836 94.0825C52.5836 94.0788 52.5866 94.0764 52.5881 94.0728C52.6 94.0472 52.6133 94.0217 52.6252 93.9962C52.6281 93.9889 52.6311 93.9828 52.6356 93.9755C52.6474 93.9524 52.6608 93.9293 52.6741 93.9062C52.6801 93.8977 52.6845 93.888 52.689 93.8795C52.7023 93.8576 52.7172 93.8357 52.732 93.8139C52.7379 93.8041 52.7439 93.7944 52.7513 93.7847C52.7661 93.764 52.7825 93.7434 52.8003 93.7227C52.8077 93.713 52.8151 93.702 52.824 93.6923C52.8403 93.6729 52.8596 93.6534 52.8789 93.634C52.8893 93.6242 52.8982 93.6133 52.9086 93.6024C52.9279 93.5829 52.9486 93.5647 52.9709 93.5464C52.9828 93.5367 52.9932 93.5258 53.005 93.5161C53.0273 93.4978 53.0525 93.4796 53.0762 93.4614C53.0881 93.4528 53.0985 93.4431 53.1119 93.4346C53.1282 93.4298 53.143 93.4237 53.1549 93.4152C53.1579 93.4127 53.1593 93.4103 53.1623 93.4067C53.1697 93.3994 53.1771 93.3921 53.1816 93.3824C53.1816 93.3824 53.1816 93.3811 53.1831 93.3799C53.186 93.3775 53.189 93.3751 53.192 93.3726C53.2276 93.3471 53.2662 93.3216 53.3062 93.2973C53.3329 93.2815 53.3582 93.2657 53.3849 93.2486C53.4042 93.2365 53.4249 93.2243 53.4442 93.2122C53.4828 93.1879 53.5184 93.1636 53.554 93.138C53.5585 93.1344 53.5614 93.132 53.5659 93.1283C53.5956 93.1052 53.6208 93.0809 53.6445 93.0554C53.649 93.0517 53.6534 93.0481 53.6579 93.0432C53.6623 93.0408 53.6653 93.0384 53.6698 93.0359C53.7336 92.9995 53.7988 92.963 53.8656 92.9278C53.8923 92.9132 53.919 92.8998 53.9457 92.8852C53.9903 92.8621 54.0333 92.839 54.0778 92.8159C54.1401 92.7843 54.2009 92.7515 54.2633 92.7199C54.287 92.7078 54.3107 92.6956 54.3345 92.6822C54.4057 92.6458 54.4754 92.6081 54.5467 92.5704C54.5571 92.5655 54.5645 92.5582 54.5719 92.5509C54.5734 92.5485 54.5763 92.5461 54.5778 92.5437C54.5823 92.5376 54.5852 92.5315 54.5882 92.5254C54.5882 92.523 54.5912 92.5193 54.5912 92.5169C54.5927 92.5096 54.5941 92.5036 54.5927 92.4963C54.5927 92.4938 54.5927 92.4914 54.5927 92.489C54.5927 92.489 54.5927 92.4877 54.5927 92.4865C54.6045 92.4817 54.6164 92.4756 54.6298 92.4695C54.7307 92.4258 54.8286 92.3808 54.928 92.3346C54.9814 92.3103 55.0348 92.286 55.0882 92.2605C55.2262 92.1936 55.3613 92.1243 55.4963 92.0514C55.5052 92.0465 55.5141 92.0417 55.5245 92.0368C55.5245 92.0368 55.5245 92.0368 55.523 92.0368C55.526 92.0356 55.5274 92.0344 55.5304 92.0331C55.5304 92.0331 55.5334 92.0319 55.5349 92.0307C55.5349 92.0307 55.5363 92.0307 55.5378 92.0295C55.5378 92.0295 55.5378 92.0295 55.5378 92.0283C55.5601 92.0161 55.5779 92.0003 55.5957 91.9833C55.5972 91.9821 55.6002 91.9809 55.6016 91.9785C55.6016 91.9785 55.6031 91.9785 55.6046 91.9785L55.6402 91.9979C55.655 91.9857 55.6714 91.9736 55.6862 91.9614C55.6951 91.959 55.7025 91.9541 55.7099 91.9505C55.7174 91.9481 55.7233 91.9444 55.7307 91.9408C55.753 91.9298 55.7738 91.9177 55.7916 91.9019C55.8108 91.8861 55.8272 91.8691 55.842 91.8508C55.8465 91.846 55.8509 91.8399 55.8539 91.835C55.8583 91.8277 55.8643 91.8217 55.8687 91.8156C55.8687 91.8156 55.8687 91.8156 55.8687 91.8144C55.8732 91.8119 55.8761 91.8083 55.8806 91.8058C55.9385 91.767 55.9919 91.7268 56.0408 91.6843C56.0497 91.677 56.0586 91.6709 56.0661 91.6636C56.115 91.6199 56.161 91.5737 56.2026 91.5263C56.207 91.5214 56.2115 91.5178 56.2159 91.5129C56.2322 91.4971 56.2486 91.4825 56.2649 91.4667C56.2842 91.4485 56.2975 91.4278 56.3079 91.4084C56.3109 91.4023 56.3138 91.3974 56.3168 91.3914C56.3198 91.3853 56.3227 91.3792 56.3257 91.3731C56.3272 91.3707 56.3287 91.3683 56.3302 91.3658C56.3598 91.3221 56.3865 91.2771 56.4103 91.2321C56.4162 91.2212 56.4222 91.209 56.4281 91.1981C56.4459 91.1616 56.4637 91.1252 56.4785 91.0887C56.4845 91.0741 56.4904 91.0607 56.4964 91.0462C56.5142 91 56.5305 90.9526 56.5453 90.9039C56.5453 90.8991 56.5483 90.8942 56.5498 90.8894C56.5616 90.8444 56.572 90.7994 56.5824 90.7544C56.5854 90.7374 56.5883 90.7216 56.5913 90.7046C56.5972 90.6669 56.6032 90.6305 56.6076 90.5928C56.6091 90.5782 56.6121 90.5648 56.6136 90.5502C56.618 90.5016 56.6225 90.4518 56.624 90.4032C56.624 90.3874 56.624 90.3716 56.624 90.357C56.624 90.3205 56.624 90.284 56.624 90.2476C56.624 90.2293 56.624 90.2123 56.624 90.1941C56.6225 90.1491 56.6195 90.1054 56.6151 90.0604C56.6151 90.0555 56.6151 90.0495 56.6151 90.0446C56.6151 90.0033 56.6151 89.9619 56.6151 89.9206C56.6151 89.8939 56.6151 89.8671 56.6151 89.8416C56.6151 89.8076 56.618 89.7747 56.6195 89.7407C56.6195 89.7152 56.621 89.6884 56.624 89.6629C56.6254 89.6277 56.6284 89.5924 56.6314 89.5572C56.6329 89.5329 56.6343 89.5073 56.6358 89.4818C56.6403 89.4283 56.6432 89.3748 56.6477 89.3214C56.6507 89.2922 56.6521 89.263 56.6536 89.2326C56.6566 89.1998 56.6581 89.1682 56.661 89.1354C56.6625 89.1026 56.664 89.071 56.667 89.0382C56.667 89.0114 56.67 88.9847 56.6714 88.9567C56.6729 88.9202 56.6729 88.8826 56.6744 88.8461C56.6744 88.8254 56.6744 88.8036 56.6759 88.7829V88.7805C56.6759 88.7258 56.6759 88.6699 56.6729 88.6139C56.6729 88.6103 56.6729 88.6067 56.6729 88.603C56.67 88.2043 56.6596 87.8056 56.6581 87.407C56.6566 87.0083 56.6625 86.6096 56.6922 86.2109C56.6922 86.1829 56.6952 86.1526 56.6981 86.121C56.6981 86.1185 56.6981 86.1173 56.6981 86.1149C56.7026 86.0833 56.707 86.0505 56.713 86.0164L56.7085 86.0444Z" fill="#D9C786"/>
<circle cx="34.2051" cy="49.2441" r="15.627" fill="white"/>
<path d="M44.7441 32.0098L28.5734 62.0098L22.7441 51.2005" stroke="#D70321" stroke-width="4.60942" stroke-miterlimit="10"/>
</svg>
