<svg width="47" height="103" viewBox="0 0 47 103" fill="none" xmlns="http://www.w3.org/2000/svg">
<mask id="mask0_395_1446" style="mask-type:alpha" maskUnits="userSpaceOnUse" x="0" y="0" width="47" height="103">
<rect width="47" height="103" fill="#D9D9D9"/>
</mask>
<g mask="url(#mask0_395_1446)">
<path d="M32.1871 70.8866C40.1535 65.8705 44.7106 57.0084 46.3245 47.9422C48.1475 37.7028 45.3411 28.0123 44.1097 17.9004C43.2956 11.2112 43.2579 5.33714 43.2579 3.82526C43.2579 3.56614 43.2426 3.3111 43.1538 3.06524C42.048 -0.0156459 25.3908 0.00781779 24.4563 0.00781779H22.468C21.5335 0.00781779 4.87633 -0.0156461 3.76946 3.06422C3.6807 3.3111 3.6654 3.56512 3.6654 3.82424C3.6654 5.33612 3.62765 11.2112 2.81356 17.8994C1.58223 28.0113 -1.22424 37.7018 0.598792 47.9412C2.21269 57.0073 6.76975 65.8705 14.7362 70.8856C17.8773 72.8627 18.8658 75.2478 19.1566 77.4575C19.4473 79.6682 21.0755 90.6574 15.0269 95.3103C15.0269 95.3103 4.61619 96.0663 3.45219 98.4514C2.2892 100.837 6.18622 101.476 6.18622 101.476C6.18622 101.476 10.7229 102.988 21.7743 102.988H25.148C36.1994 102.988 40.7361 101.476 40.7361 101.476C40.7361 101.476 44.6331 100.837 43.4701 98.4514C42.3071 96.0663 31.8953 95.3103 31.8953 95.3103C25.8468 90.6574 27.475 79.6682 27.7657 77.4575C28.0565 75.2478 29.045 72.8627 32.1861 70.8856L32.1871 70.8866Z" fill="#D9C786"/>
<circle cx="23.4629" cy="37.2441" r="15.627" fill="white"/>
<path d="M34 20.0078L17.8293 50.0078L12 39.1986" stroke="#D70321" stroke-width="4.60942" stroke-miterlimit="10"/>
</g>
</svg>
