<svg width="468" height="1018" viewBox="0 0 468 1018" fill="none" xmlns="http://www.w3.org/2000/svg">
<g clip-path="url(#clip0_1_130)">
<path d="M451.81 255.17C463.44 326.23 475.48 399.71 462.1 474.82C453.8 521.44 437.75 565.93 415.67 603.49C391.05 645.38 359.44 678.66 321.71 702.42C296.87 718.06 283.69 737.62 280.22 763.98L279.99 765.68C266.22 868.96 292.94 914.51 318.24 934.56C323.68 935 346.37 936.97 369.88 941.14C407.48 947.81 428.39 956.42 433.78 967.49C436.98 974.04 437.17 980.15 434.33 985.64C427.86 998.16 407.29 1002.25 404.36 1002.78C399.96 1004.19 354.95 1017.71 250.6 1017.71H217.52C113.16 1017.71 68.15 1004.18 63.76 1002.78C60.83 1002.25 40.26 998.16 33.79 985.64C30.95 980.15 31.14 974.04 34.34 967.49C39.73 956.42 60.63 947.81 98.24 941.14C121.75 936.97 144.44 935 149.88 934.56C175.18 914.51 201.9 868.96 188.13 765.68L187.9 763.98C184.43 737.62 171.25 718.06 146.41 702.42C108.68 678.66 77.07 645.38 52.45 603.49C30.37 565.93 14.32 521.44 6.02002 474.82C-7.35998 399.71 4.68 326.23 16.31 255.17C20.38 230.35 24.58 204.69 27.69 179.16C35.2 117.48 36.01 62.46 36.01 41.67C36.01 39.04 36.16 35.94 37.26 32.86C40.25 24.55 51.5 18.06 71.64 13C86.79 9.2 107.13 6.17 132.09 4C172.18 0.51 212.68 0.27 224.11 0.25H244.01C244.04 0.25 244.08 0.25 244.12 0.25C255.71 0.25 296.06 0.53 336.03 4C360.99 6.17 381.32 9.2 396.48 13C416.62 18.06 427.87 24.55 430.86 32.86C431.96 35.94 432.11 39.04 432.11 41.67C432.11 62.46 432.92 117.48 440.43 179.16C443.54 204.69 447.74 230.35 451.81 255.17ZM460.08 405.84C460 405.95 459.92 406.06 459.84 406.17L459.15 404.22C459.46 404.11 459.77 404 460.08 403.89C460.02 354.9 452.13 306.63 443.91 256.47C440.33 234.61 436.65 212.1 433.68 189.54C433.02 188.65 432.36 187.75 431.72 186.85C426.58 179.66 420.58 173.28 413.47 168.06C404.2 161.25 394.99 154.34 385.33 148.13C373.33 140.42 360.23 134.93 346.16 132.37C339.37 131.13 332.32 130.34 325.46 130.68C309.38 131.49 294.55 136.62 281.68 146.43C273.76 152.46 269.07 160.84 266.81 170.5C264.67 179.66 263.32 188.96 263.95 198.36C264.73 210.01 267.14 221.4 270.11 232.69C275.3 252.46 282.76 271.41 290.75 290.16C298.16 307.54 305.58 324.9 313.01 342.27C313.55 343.55 314.19 344.78 314.78 346.04C314.56 346.16 314.35 346.28 314.13 346.41C312.66 344.09 310.99 341.87 309.75 339.44C298.33 317.12 286.91 294.81 275.68 272.4C273.51 268.07 269.68 266.02 265.92 263.86C255.1 257.69 243.33 255.07 230.95 256.06C222.21 256.76 215.73 261.57 211.54 269.18C207.21 277.04 204.94 285.54 204.4 294.51C204.2 297.74 203.76 300.96 203.3 304.16C203.17 305.03 202.64 306.47 202.16 306.53C201.24 306.65 199.94 306.22 199.29 305.55C197.43 303.61 195.61 301.57 194.13 299.34C186.83 288.31 177.93 278.7 167.99 270.08C157.24 260.75 145.96 252.08 132.99 245.94C124.48 241.92 115.62 239.12 106.18 237.89C94.55 236.37 84.11 239 74.65 245.66C68.81 249.77 64.96 255.58 62.66 262.29C61.12 266.81 60.03 271.49 58.82 276.13C58.68 276.68 58.9 277.55 59.28 277.97C66.4 285.6 69.76 295 71.22 305.02C72.2 311.77 72.67 318.71 72.29 325.51C71.57 338.33 68.12 350.51 61.45 361.63C60.62 363.02 59.85 364.44 59.15 365.68C64.47 364.72 69.91 363.58 75.39 362.8C82.41 361.81 89.39 361.02 96.59 361.63C103.98 362.25 111.1 363.35 117.98 366.17C132.16 371.97 142.97 381.51 150.4 394.92C154.77 402.8 158.23 411.04 159.48 420C160.61 428.04 161.14 436.17 159.73 444.24C158.25 452.72 156.48 461.16 154.87 469.44L156.48 471.3C156.21 471.51 155.94 471.71 155.66 471.9C152.55 474.09 151.82 477.62 150.43 480.8C149.31 483.36 148.05 485.85 146.86 488.38C146.54 488.25 146.22 488.12 145.9 487.99C146.69 484.3 147.18 480.51 148.32 476.92C151.19 467.92 153.03 458.79 153.77 449.34C155.05 433.09 152.18 417.66 144.89 403.2C136.14 385.87 121.7 375.47 102.83 371.83C95.29 370.37 87.34 370.31 79.63 370.69C71.27 371.1 62.79 371.59 54.74 374.39C53.57 374.79 52.42 375.56 51.55 376.44C46.6 381.47 41.76 386.6 36.81 391.64C36.13 392.33 35.08 392.65 34.2 393.15C33.93 392.9 33.65 392.66 33.38 392.41C35.57 388.94 37.67 385.42 39.96 382.01C48.25 369.69 56.33 357.2 60.54 342.83C62.51 336.1 63.41 329.01 64.19 322.01C65.55 309.77 63.36 297.88 57.55 287.14C52.26 277.36 44.57 269.62 33.25 266.65C30.9 266.03 26.67 264.89 22.85 264.74C11.33 335.33 1.25002 402.42 13.89 473.42C20.08 508.19 30.68 541.73 44.9 571.97C51.12 574.45 57.36 576.9 63.48 579.6C76.72 585.46 89.92 591.44 103.1 597.43C115.32 602.98 127.49 608.62 139.7 614.19C153.22 620.36 166.75 626.47 180.27 632.63C193.71 638.75 207.15 644.86 220.57 651.02C236.19 658.19 251.78 665.4 267.35 672.58C275.17 665.73 282.92 658.9 290.73 652.15C299.42 644.64 308.13 637.16 316.89 629.72C325.01 622.83 333.15 615.96 341.35 609.17C349.49 602.44 357.71 595.82 365.9 589.16C374.18 582.45 382.45 575.72 390.74 569.04C399.38 562.07 408.05 555.14 416.72 548.21C423.48 542.8 430.23 537.37 437.07 532.06C437.79 531.5 438.56 530.42 439.75 530.52C445.87 512.11 450.75 492.96 454.23 473.42C458.3 450.57 460.01 428.12 460.08 405.84ZM432.94 183.67C432.79 182.49 432.63 181.31 432.49 180.12C424.93 118.01 424.11 62.61 424.11 41.67C424.11 39.63 424.02 37.48 423.33 35.57C421.69 31 411.25 20.28 351.6 13.58C345.9 19.24 340.08 24.78 334.2 30.26C329.96 34.21 325.57 38 321.21 41.82C314.54 47.66 307.82 53.45 301.14 59.28C295 64.63 288.89 70.02 282.75 75.38C275.93 81.33 269.1 87.26 262.28 93.22C256.08 98.64 249.93 104.13 243.7 109.51C236.72 115.53 229.69 121.5 222.66 127.45C216.73 132.46 210.75 137.42 204.81 142.42C198.73 147.53 192.65 152.65 186.6 157.8C179.29 164.02 171.99 170.26 164.71 176.52C160.32 180.31 156.03 184.22 151.58 187.96C149.62 189.61 149.11 191.12 150.02 193.72C157.59 215.33 164.98 237 172.42 258.66C172.83 259.84 173.31 261.04 173.46 262.27C174.19 268.23 179.27 271.12 182.57 275.24C187.11 280.91 191.95 286.35 196.57 291.8C196.8 289.61 197.08 287 197.33 284.38C198.23 274.98 200.15 265.83 206.1 258.23C211.8 250.95 219.42 246.66 228.73 245.61C239.3 244.42 249.22 246.82 258.68 251.25C262.17 252.88 265.3 255.29 268.16 257.07C264.76 246.98 261.08 236.58 257.77 226.07C253.32 211.93 251.09 197.4 251.96 182.59C252.67 170.57 254.3 158.64 261.01 148.12C266.76 139.1 275.28 133.47 284.58 128.81C293.35 124.41 302.66 121.57 312.35 120.26C320.05 119.23 327.79 119.56 335.55 120.6C345.38 121.92 354.88 124.26 364.02 127.99C375.94 132.86 387.02 139.3 397.02 147.35C404.98 153.75 412.74 160.46 419.97 167.66C424.81 172.48 428.82 178.16 432.94 183.67ZM427.23 981.96C428.86 978.8 428.65 975.21 426.59 970.99C419.02 955.48 355.01 945.25 316.44 942.44L315.24 942.35L314.29 941.62C312.14 939.96 310.06 938.2 308.05 936.36C307.93 936.43 307.82 936.49 307.7 936.56C299.87 941.08 291.96 945.47 284.02 949.79C273.09 955.74 262.12 961.58 251.26 967.85C255.07 967.2 258.87 966.52 262.68 965.91C269.03 964.88 275.36 963.54 281.75 962.98C288.68 962.38 295.71 961.99 302.63 962.48C311.87 963.14 321.11 964.45 329.53 968.92C335.09 971.87 336.9 976.66 334.21 982.44C333.01 985.02 331.37 987.39 329.98 989.78C335.73 990.44 341.72 990.89 347.63 991.85C356.97 993.37 365.82 996.24 373.81 1001.23C392.98 998.04 401.93 995.16 402.13 995.09L402.74 994.94C408.15 994.04 423.1 989.96 427.23 981.96ZM408.77 599.44C420.47 579.55 430.41 557.65 438.39 534.5C412.03 558.31 385.38 581.57 358.46 604.51C330.48 628.36 302.23 651.89 274 675.64C278.07 677.55 282.49 679.66 286.93 681.69C296.69 686.16 306.45 690.6 316.23 695.02C316.65 695.22 317.07 695.42 317.48 695.63C354.1 672.56 384.81 640.2 408.77 599.44ZM369.77 1001.88C364.8 999.63 359.46 998.37 354.14 997.44C344.89 995.83 335.43 995.27 326.03 994.64C323.48 994.47 320.79 995.5 318.25 996.28C314.93 997.3 311.71 998.66 308.42 999.79C307.7 1000.04 306.85 999.93 306.06 999.98C305.93 999.73 305.8 999.49 305.67 999.24C307.42 998.21 309.19 997.2 310.92 996.13C316.64 992.59 322.61 989.35 326.43 983.48C326.92 982.73 327.38 981.94 327.73 981.12C328.93 978.32 328.48 976.99 325.86 975.59C319.93 972.43 313.46 971.01 306.93 970.05C300.18 969.05 293.36 968.23 286.55 968C280.99 967.82 275.38 968.48 269.82 969.02C264.54 969.53 259.3 970.31 254.06 971.09C246.89 972.16 239.82 973.2 233.19 976.75C212.96 987.58 192.55 998.1 172.16 1008.63C172.08 1008.67 171.99 1008.71 171.91 1008.75C185.64 1009.35 200.82 1009.71 217.52 1009.71H250.6C306.47 1009.71 345.38 1005.7 369.77 1001.88ZM337.8 19.63C340.47 17.39 343.15 15.16 345.86 12.97C342.5 12.62 338.99 12.29 335.33 11.97C320.07 10.64 304.76 9.78999 291.02 9.23999C293.26 16.16 294.09 23.2 291.09 30.21C289.02 35.03 283.2 37.49 278.05 36.65C271.06 35.51 265.8 31.54 260.56 27.21C254.63 22.32 249.88 16.51 245.73 10.13C245.34 9.53 244.73 8.90001 244.7 8.26001V8.25C244.51 8.25 244.3 8.25 244.12 8.25C244.08 8.25 244.04 8.25 244.01 8.25H224.11C224.08 8.25 224.04 8.25 224 8.25C223.97 8.25 223.93 8.25 223.9 8.25C228.56 15.5 231.53 23.52 233.75 31.82C236.42 41.83 237.94 52.09 237.63 62.48C237.36 71.75 235.4 80.68 229.65 88.28C224.31 95.33 217.41 98.96 208.26 97.92C190.96 95.96 176.55 87.6 162.86 77.71C154.55 71.7 146.53 65.28 138.99 59.52C140.36 64.42 142.21 70.08 143.51 75.86C145.58 85.1 146.22 94.49 142.64 103.46C139.96 110.18 135.35 115.45 127.79 117.18C126.67 117.43 125.5 117.48 124.15 117.66C131.96 140.51 139.72 163.24 147.59 186.28C152.09 182.44 156.35 178.87 160.54 175.21C167.78 168.9 175.01 162.58 182.19 156.2C188.09 150.97 193.9 145.64 199.77 140.37C208.39 132.62 217.03 124.89 225.66 117.15C231.06 112.32 236.41 107.44 241.86 102.67C248.24 97.07 254.74 91.59 261.14 86.01C267.42 80.55 273.62 75 279.89 69.53C286.37 63.88 292.9 58.31 299.37 52.66C305.58 47.26 311.71 41.76 317.95 36.39C324.51 30.75 331.17 25.2 337.8 19.63ZM310.94 700.01C290.26 690.35 269.58 680.68 248.91 671C230.01 662.15 211.12 653.3 192.23 644.42C180.89 639.09 169.58 633.71 158.23 628.38C139.36 619.52 120.45 610.75 101.61 601.82C83.22 593.1 64.89 584.23 46.55 575.4C50.55 583.68 54.81 591.72 59.35 599.44C83.31 640.21 114.04 672.58 150.67 695.65C169.6 707.57 182.31 721.64 189.53 738.95C197.01 729.23 205.83 721.01 218.46 718.85C229.55 716.95 241.44 720.31 247.97 732.4C251.58 739.08 252.56 746.18 252.53 753.67C252.48 768.93 247.94 783.15 242.68 797.17C236.16 814.55 227.65 830.93 216.35 846.15C226.59 842.97 236.19 844.3 245.24 848.94C255.88 854.4 261.47 863.37 261.06 875.39C260.75 884.19 257.03 892.03 252.02 899.15C242.03 913.34 228.52 922.9 211.91 928.91C217.82 931.98 221.69 936.67 224.72 942.22C229.41 950.81 227.6 957.01 222.28 963.84C216.42 971.35 208.88 976.51 199.41 977.79C193.22 978.62 186.84 978.33 180.55 978.12C172.12 977.84 164.09 975.36 156.54 971.83C148.71 968.18 141.27 963.67 133.66 959.53C133.2 959.28 132.73 959.04 131.71 958.51C131.97 960.35 132.22 961.78 132.35 963.22C132.76 967.89 133.16 972.57 133.51 977.26C134.24 986.9 134.99 996.55 135.61 1006.2C135.61 1006.26 135.61 1006.31 135.61 1006.37C143.67 1007.09 152.48 1007.73 162.06 1008.26C166.26 1005.73 170.49 1003.25 174.81 1000.96C203.23 985.91 231.68 970.92 260.18 956.02C274.94 948.3 289.82 940.8 304.68 933.29C304.72 933.27 304.77 933.25 304.81 933.23C285.08 913.29 273.2 883.65 269.44 844.89C266.04 809.81 270.41 776.98 272.06 764.62L272.29 762.93C275.77 736.45 288.12 716.29 310.94 700.01ZM288.42 17.97C288.55 17.96 288.67 17.94 288.8 17.92C288.34 14.98 287.79 12.05 287.48 9.09998C271.51 8.50998 257.99 8.32002 249.68 8.27002C252.13 11.09 254.49 13.98 257.03 16.71C262.17 22.24 267.23 27.94 274.55 30.75C275.94 31.29 277.46 31.7 278.94 31.76C284.98 32 287.26 28.81 288.39 22.06C288.61 20.73 288.42 19.34 288.42 17.97ZM254.19 883.35C258.26 871.1 252.59 859.7 241.69 854.34C235.64 851.37 229.21 849.68 222.49 850.09C218.98 850.3 215.46 851.36 212.12 852.53C210.7 853.02 209.77 854.83 208.53 855.95C207.11 857.24 205.6 858.42 204.09 859.67C202.61 857.4 203.16 854.61 205.09 852.31C215.84 839.53 224.19 825.28 231.23 810.19C236.86 798.15 241.38 785.75 244.46 772.83C246.87 762.76 248.43 752.55 245.26 742.46C241.34 730.03 234.74 724.99 222.16 725.18C214.47 725.3 207.79 728.85 202.01 733.83C198.33 736.99 194.94 740.49 191.37 743.77C193.46 749.77 194.94 756.14 195.83 762.93L196.06 764.62C197.71 776.98 202.08 809.81 198.68 844.89C194.35 889.51 179.26 922.06 153.83 941.62L152.88 942.35L151.68 942.44C142.45 943.11 131.76 944.21 120.74 945.7C135.22 958.48 151.91 967.29 170.92 971.43C182.03 973.86 193.27 973.69 203.8 968.34C209.9 965.24 214.5 960.41 218.01 954.66C220.79 950.09 218.83 945.54 216.73 941.34C214.45 936.75 210.94 933.28 205.79 932C204.53 931.69 203.06 931.81 201.76 932.08C197.68 932.93 193.63 933.95 189.57 934.9C189.33 934.56 189.1 934.22 188.86 933.88C189.59 933.03 190.15 931.81 191.07 931.41C195.9 929.29 200.71 927.04 205.72 925.48C215.83 922.34 225.31 918.06 233.61 911.43C242.98 903.94 250.32 894.98 254.19 883.35ZM226.09 79.78C229.9 71.17 230.89 62.14 230.21 52.69C229.36 41.03 226.95 29.83 222.4 19.1C220.82 15.39 218.89 11.82 216.94 8.28003C200.41 8.41003 166.45 9.03997 132.79 11.97C115.08 13.51 100.93 15.38 89.59 17.4C101.58 48.53 111.23 80.48 122.2 111.85C123.85 111.7 125.28 111.6 126.7 111.43C131.44 110.86 134.23 107.51 136.11 103.74C137.66 100.63 138.46 97 138.9 93.51C140.66 79.61 136.1 67 130.48 54.65C130 53.6 129.69 52.45 129.13 51.45C128.01 49.47 128.67 48.02 130.29 46.78C132.02 45.46 133.4 46.13 134.77 47.49C146.77 59.41 159.86 70.01 174.1 79.11C183.79 85.29 194.26 90.14 205.75 91.66C215.28 92.93 221.71 89.69 226.09 79.78ZM161.67 256.03C163.8 257.81 166.02 259.5 168.71 261.03C154.9 220.54 140.96 180.1 127.31 139.56C113.68 99.07 98.84 58.98 86.04 18.1C86.16 18.06 86.26 18.03 86.37 17.99C53.06 24.31 46.1 31.92 44.79 35.57C44.1 37.49 44.01 39.63 44.01 41.67C44.01 62.61 43.19 118.02 35.63 180.12C32.5 205.82 28.29 231.56 24.21 256.46C23.87 258.53 23.53 260.59 23.2 262.65C31.85 262.22 42.96 264.59 49.73 269.57C50.88 270.42 52.03 271.28 53.32 272.24C53.49 263.7 54.65 255.56 59.01 248.22C64.12 239.6 72.05 234.48 81.13 230.95C87.64 228.41 94.43 227.05 101.42 227.67C111.93 228.59 121.93 231.53 131.42 236.15C142.35 241.47 152.35 248.23 161.67 256.03ZM131.89 1006.02C131.91 1004.31 131.98 1002.77 131.86 1001.26C131 990.37 130.05 979.48 129.21 968.59C129.03 966.24 129.16 963.86 129.15 961.5C129.13 958.05 128.18 955.36 125.15 953.01C122.2 950.73 119.44 948.56 116.74 946.26C98.27 948.9 79.24 952.64 64.85 957.33C87.31 974.22 107.22 988.48 130.23 1005.86C130.78 1005.92 131.33 1005.97 131.89 1006.02ZM122.3 1005.04C109.12 995.21 96.06 985.23 82.94 975.33C75.09 969.4 68.77 964.27 61.28 958.55C51.11 962.18 43.79 966.35 41.53 970.99C39.47 975.21 39.26 978.8 40.89 981.96C45.02 989.96 59.97 994.04 65.38 994.94L65.99 995.09C66.26 995.18 83.7 1000.8 122.3 1005.04Z" fill="black"/>
<path d="M459.84 406.17C459.92 406.06 460 405.95 460.08 405.84C460.01 428.12 458.3 450.57 454.23 473.42C450.75 492.96 445.87 512.11 439.75 530.52C438.56 530.42 437.79 531.5 437.07 532.06C430.23 537.37 423.48 542.8 416.72 548.21C408.05 555.14 399.38 562.07 390.74 569.04C382.45 575.72 374.18 582.45 365.9 589.16C357.71 595.82 349.49 602.44 341.35 609.17C333.15 615.96 325.01 622.83 316.89 629.72C308.13 637.16 299.42 644.64 290.73 652.15C282.92 658.9 275.17 665.73 267.35 672.58C251.78 665.4 236.19 658.19 220.57 651.02C207.15 644.86 193.71 638.75 180.27 632.63C166.75 626.47 153.22 620.36 139.7 614.19C127.49 608.62 115.32 602.98 103.1 597.43C89.9199 591.44 76.7199 585.46 63.4799 579.6C57.3599 576.9 51.12 574.45 44.9 571.97C30.68 541.73 20.08 508.19 13.89 473.42C1.24997 402.42 11.3299 335.33 22.8499 264.74C26.6699 264.89 30.9 266.03 33.25 266.65C44.57 269.62 52.2599 277.36 57.5499 287.14C63.3599 297.88 65.55 309.77 64.19 322.01C63.41 329.01 62.5099 336.1 60.5399 342.83C56.3299 357.2 48.25 369.69 39.96 382.01C37.67 385.42 35.57 388.94 33.38 392.41C33.65 392.66 33.93 392.9 34.2 393.15C35.08 392.65 36.13 392.33 36.81 391.64C41.76 386.6 46.5999 381.47 51.5499 376.44C52.4199 375.56 53.5699 374.79 54.7399 374.39C62.7899 371.59 71.27 371.1 79.63 370.69C87.34 370.31 95.29 370.37 102.83 371.83C121.7 375.47 136.14 385.87 144.89 403.2C152.18 417.66 155.05 433.09 153.77 449.34C153.03 458.79 151.19 467.92 148.32 476.92C147.18 480.51 146.69 484.3 145.9 487.99C146.22 488.12 146.54 488.25 146.86 488.38C148.05 485.85 149.31 483.36 150.43 480.8C151.82 477.62 152.55 474.09 155.66 471.9C155.94 471.71 156.21 471.51 156.48 471.3C158.38 469.89 160.17 468.34 162.1 466.99C176.85 456.75 192.81 449.62 210.92 447.93C219.4 447.14 227.85 446.82 236.17 448.89C248.43 451.94 259.19 457.78 269.06 465.77C279.83 474.47 287.85 484.9 293.51 497.49C303.73 520.18 306.93 544.33 309.17 568.74C309.47 571.98 310.07 575.2 310.62 579.14C311.59 577.76 312.5 577 312.71 576.08C313.8 571.31 315.31 566.52 315.56 561.69C315.92 554.66 315.47 547.57 315.09 540.52C314.89 536.88 314.04 533.27 313.58 529.64C313.48 528.78 313.54 527.79 313.87 527C316.23 521.43 318.39 515.74 321.19 510.38C325.77 501.57 332.14 494.11 339.92 487.92C354.58 476.29 371.75 472.19 390 471.45C393.17 471.32 396.35 471.18 399.53 471.27C405.4 471.43 411.27 471.7 417.14 472.04C418.4 472.11 418.95 472.85 419.47 474.32C421.53 480.2 423.95 485.96 426.51 491.63C427.19 493.14 428.37 494.89 430.66 494.77C427.33 484.98 425.33 475.09 425.42 464.93C425.47 459.48 426.21 454.01 427 448.61C429.39 432.25 438.38 420.13 451.73 410.97C454 409.41 456.66 408.44 459 406.98C459.32 406.78 459.59 406.49 459.84 406.17Z" fill="white"/>
<path d="M460.08 403.89C459.77 404 459.46 404.11 459.15 404.22C429.55 414.69 415.06 435.23 418.2 466.8C410.24 465.43 402.39 463.42 394.44 462.89C385.1 462.26 375.71 462.46 366.36 464.24C346.95 467.94 331.81 478.1 320.57 494.01C316.4 499.92 313.44 506.69 310.35 512.29C308.2 506.68 305.87 500.02 303.11 493.55C298.94 483.79 293.3 474.92 285.57 467.56C278.37 460.7 270.21 455.13 261.45 450.49C250.67 444.77 239.11 441.65 226.91 441.55C221.55 441.5 216.17 442.41 210.82 443.08C198.71 444.6 187.3 448.47 176.51 454.07C168.5 458.24 160.74 462.85 154.87 469.44C156.48 461.16 158.25 452.72 159.73 444.24C161.14 436.17 160.61 428.04 159.48 420C158.23 411.04 154.77 402.8 150.4 394.92C142.97 381.51 132.16 371.97 117.98 366.17C111.1 363.35 103.98 362.25 96.5898 361.63C89.3898 361.02 82.4098 361.81 75.3898 362.8C69.9098 363.58 64.4698 364.72 59.1498 365.68C59.8498 364.44 60.6198 363.02 61.4498 361.63C68.1198 350.51 71.5697 338.33 72.2897 325.51C72.6697 318.71 72.1997 311.77 71.2197 305.02C69.7597 295 66.3998 285.6 59.2798 277.97C58.8998 277.55 58.6798 276.68 58.8198 276.13C60.0298 271.49 61.1197 266.81 62.6597 262.29C64.9597 255.58 68.8098 249.77 74.6498 245.66C84.1098 239 94.5498 236.37 106.18 237.89C115.62 239.12 124.48 241.92 132.99 245.94C145.96 252.08 157.24 260.75 167.99 270.08C177.93 278.7 186.83 288.31 194.13 299.34C195.61 301.57 197.43 303.61 199.29 305.55C199.94 306.22 201.24 306.65 202.16 306.53C202.64 306.47 203.17 305.03 203.3 304.16C203.76 300.96 204.2 297.74 204.4 294.51C204.94 285.54 207.21 277.04 211.54 269.18C215.73 261.57 222.21 256.76 230.95 256.06C243.33 255.07 255.1 257.69 265.92 263.86C269.68 266.02 273.51 268.07 275.68 272.4C286.91 294.81 298.33 317.12 309.75 339.44C310.99 341.87 312.66 344.09 314.13 346.41C314.35 346.28 314.56 346.16 314.78 346.04C314.19 344.78 313.55 343.55 313.01 342.27C305.58 324.9 298.16 307.54 290.75 290.16C282.76 271.41 275.3 252.46 270.11 232.69C267.14 221.4 264.73 210.01 263.95 198.36C263.32 188.96 264.67 179.66 266.81 170.5C269.07 160.84 273.76 152.46 281.68 146.43C294.55 136.62 309.38 131.49 325.46 130.68C332.32 130.34 339.37 131.13 346.16 132.37C360.23 134.93 373.33 140.42 385.33 148.13C394.99 154.34 404.2 161.25 413.47 168.06C420.58 173.28 426.58 179.66 431.72 186.85C432.36 187.75 433.02 188.65 433.68 189.54C436.65 212.1 440.33 234.61 443.91 256.47C452.13 306.63 460.02 354.9 460.08 403.89Z" fill="white"/>
<path d="M459.15 404.22L459.84 406.17C459.59 406.49 459.32 406.78 459 406.98C456.66 408.44 454 409.41 451.73 410.97C438.38 420.13 429.39 432.25 427 448.61C426.21 454.01 425.47 459.48 425.42 464.93C425.33 475.09 427.33 484.98 430.66 494.77C428.37 494.89 427.19 493.14 426.51 491.63C423.95 485.96 421.53 480.2 419.47 474.32C418.95 472.85 418.4 472.11 417.14 472.04C411.27 471.7 405.4 471.43 399.53 471.27C396.35 471.18 393.17 471.32 390 471.45C371.75 472.19 354.58 476.29 339.92 487.92C332.14 494.11 325.77 501.57 321.19 510.38C318.39 515.74 316.23 521.43 313.87 527C313.54 527.79 313.48 528.78 313.58 529.64C314.04 533.27 314.89 536.88 315.09 540.52C315.47 547.57 315.92 554.66 315.56 561.69C315.31 566.52 313.8 571.31 312.71 576.08C312.5 577 311.59 577.76 310.62 579.14C310.07 575.2 309.47 571.98 309.17 568.74C306.93 544.33 303.73 520.18 293.51 497.49C287.85 484.9 279.83 474.47 269.06 465.77C259.19 457.78 248.43 451.94 236.17 448.89C227.85 446.82 219.4 447.14 210.92 447.93C192.81 449.62 176.85 456.75 162.1 466.99C160.17 468.34 158.38 469.89 156.48 471.3L154.87 469.44C160.74 462.85 168.5 458.24 176.51 454.07C187.3 448.47 198.71 444.6 210.82 443.08C216.17 442.41 221.55 441.5 226.91 441.55C239.11 441.65 250.67 444.77 261.45 450.49C270.21 455.13 278.37 460.7 285.57 467.56C293.3 474.92 298.94 483.79 303.11 493.55C305.87 500.02 308.2 506.68 310.35 512.29C313.44 506.69 316.4 499.92 320.57 494.01C331.81 478.1 346.95 467.94 366.36 464.24C375.71 462.46 385.1 462.26 394.44 462.89C402.39 463.42 410.24 465.43 418.2 466.8C415.06 435.23 429.55 414.69 459.15 404.22Z" fill="black"/>
<path d="M432.49 180.12C432.63 181.31 432.79 182.49 432.94 183.67C428.82 178.16 424.81 172.48 419.97 167.66C412.74 160.46 404.98 153.75 397.02 147.35C387.02 139.3 375.94 132.86 364.02 127.99C354.88 124.26 345.38 121.92 335.55 120.6C327.79 119.56 320.05 119.23 312.35 120.26C302.66 121.57 293.35 124.41 284.58 128.81C275.28 133.47 266.76 139.1 261.01 148.12C254.3 158.64 252.67 170.57 251.96 182.59C251.09 197.4 253.32 211.93 257.77 226.07C261.08 236.58 264.76 246.98 268.16 257.07C265.3 255.29 262.17 252.88 258.68 251.25C249.22 246.82 239.3 244.42 228.73 245.61C219.42 246.66 211.8 250.95 206.1 258.23C200.15 265.83 198.23 274.98 197.33 284.38C197.08 287 196.8 289.61 196.57 291.8C191.95 286.35 187.11 280.91 182.57 275.24C179.27 271.12 174.19 268.23 173.46 262.27C173.31 261.04 172.83 259.84 172.42 258.66C164.98 237 157.59 215.33 150.02 193.72C149.11 191.12 149.62 189.61 151.58 187.96C156.03 184.22 160.32 180.31 164.71 176.52C171.99 170.26 179.29 164.02 186.6 157.8C192.65 152.65 198.73 147.53 204.81 142.42C210.75 137.42 216.73 132.46 222.66 127.45C229.69 121.5 236.72 115.53 243.7 109.51C249.93 104.13 256.08 98.64 262.28 93.22C269.1 87.26 275.93 81.3301 282.75 75.3801C288.89 70.0201 295 64.6301 301.14 59.2801C307.82 53.4501 314.54 47.6601 321.21 41.8201C325.57 38.0001 329.96 34.2101 334.2 30.2601C340.08 24.7801 345.9 19.2401 351.6 13.5801C411.25 20.2801 421.69 31.0001 423.33 35.5701C424.02 37.4801 424.11 39.63 424.11 41.67C424.11 62.61 424.93 118.01 432.49 180.12Z" fill="white"/>
<path d="M426.59 970.99C428.65 975.21 428.86 978.8 427.23 981.96C423.1 989.96 408.15 994.04 402.74 994.94L402.13 995.09C401.93 995.16 392.98 998.04 373.81 1001.23C365.82 996.24 356.97 993.37 347.63 991.85C341.72 990.89 335.73 990.44 329.98 989.78C331.37 987.39 333.01 985.02 334.21 982.44C336.9 976.66 335.09 971.87 329.53 968.92C321.11 964.45 311.87 963.14 302.63 962.48C295.71 961.99 288.68 962.38 281.75 962.98C275.36 963.54 269.03 964.88 262.68 965.91C258.87 966.52 255.07 967.2 251.26 967.85C262.12 961.58 273.09 955.74 284.02 949.79C291.96 945.47 299.87 941.08 307.7 936.56C307.82 936.49 307.93 936.43 308.05 936.36C310.06 938.2 312.14 939.96 314.29 941.62L315.24 942.35L316.44 942.44C355.01 945.25 419.02 955.48 426.59 970.99Z" fill="white"/>
<path d="M438.39 534.5C430.41 557.65 420.47 579.55 408.77 599.44C384.81 640.2 354.1 672.56 317.48 695.63C317.07 695.42 316.65 695.22 316.23 695.02C306.45 690.6 296.69 686.16 286.93 681.69C282.49 679.66 278.07 677.55 274 675.64C302.23 651.89 330.48 628.36 358.46 604.51C385.38 581.57 412.03 558.31 438.39 534.5Z" fill="white"/>
<path d="M354.14 997.44C359.46 998.37 364.8 999.63 369.77 1001.88C345.38 1005.7 306.47 1009.71 250.6 1009.71H217.52C200.82 1009.71 185.64 1009.35 171.91 1008.75C171.99 1008.71 172.08 1008.67 172.16 1008.63C192.55 998.1 212.96 987.58 233.19 976.75C239.82 973.2 246.89 972.16 254.06 971.09C259.3 970.31 264.54 969.53 269.82 969.02C275.38 968.48 280.99 967.82 286.55 968C293.36 968.23 300.18 969.05 306.93 970.05C313.46 971.01 319.93 972.43 325.86 975.59C328.48 976.99 328.93 978.32 327.73 981.12C327.38 981.94 326.92 982.73 326.43 983.48C322.61 989.35 316.64 992.59 310.92 996.13C309.19 997.2 307.42 998.21 305.67 999.24C305.8 999.49 305.93 999.73 306.06 999.98C306.85 999.93 307.7 1000.04 308.42 999.79C311.71 998.66 314.93 997.3 318.25 996.28C320.79 995.5 323.48 994.47 326.03 994.64C335.43 995.27 344.89 995.83 354.14 997.44Z" fill="white"/>
<path d="M345.86 12.97C343.15 15.16 340.47 17.39 337.8 19.63C331.17 25.2 324.51 30.75 317.95 36.39C311.71 41.76 305.58 47.26 299.37 52.66C292.9 58.31 286.37 63.88 279.89 69.53C273.62 75 267.42 80.55 261.14 86.01C254.74 91.59 248.24 97.07 241.86 102.67C236.41 107.44 231.06 112.32 225.66 117.15C217.03 124.89 208.39 132.62 199.77 140.37C193.9 145.64 188.09 150.97 182.19 156.2C175.01 162.58 167.78 168.9 160.54 175.21C156.35 178.87 152.09 182.44 147.59 186.28C139.72 163.24 131.96 140.51 124.15 117.66C125.5 117.48 126.67 117.43 127.79 117.18C135.35 115.45 139.96 110.18 142.64 103.46C146.22 94.49 145.58 85.1 143.51 75.86C142.21 70.08 140.36 64.42 138.99 59.52C146.53 65.28 154.55 71.7 162.86 77.71C176.55 87.6 190.96 95.96 208.26 97.92C217.41 98.96 224.31 95.33 229.65 88.28C235.4 80.68 237.36 71.75 237.63 62.48C237.94 52.09 236.42 41.83 233.75 31.82C231.53 23.52 228.56 15.5 223.9 8.25C223.93 8.25 223.97 8.25 224 8.25C224.04 8.25 224.08 8.25 224.11 8.25H244.01C244.04 8.25 244.08 8.25 244.12 8.25C244.3 8.25 244.51 8.25 244.7 8.25V8.26001C244.73 8.90001 245.34 9.53 245.73 10.13C249.88 16.51 254.63 22.32 260.56 27.21C265.8 31.54 271.06 35.51 278.05 36.65C283.2 37.49 289.02 35.03 291.09 30.21C294.09 23.2 293.26 16.16 291.02 9.23999C304.76 9.78999 320.07 10.64 335.33 11.97C338.99 12.29 342.5 12.62 345.86 12.97Z" fill="white"/>
<path d="M248.91 671C269.58 680.68 290.26 690.35 310.94 700.01C288.12 716.29 275.77 736.45 272.29 762.93L272.06 764.62C270.41 776.98 266.04 809.81 269.44 844.89C273.2 883.65 285.08 913.29 304.81 933.23C304.77 933.25 304.72 933.27 304.68 933.29C289.82 940.8 274.94 948.3 260.18 956.02C231.68 970.92 203.23 985.91 174.81 1000.96C170.49 1003.25 166.26 1005.73 162.06 1008.26C152.48 1007.73 143.67 1007.09 135.61 1006.37C135.61 1006.31 135.61 1006.26 135.61 1006.2C134.99 996.55 134.24 986.9 133.51 977.26C133.16 972.57 132.76 967.89 132.35 963.22C132.22 961.78 131.97 960.35 131.71 958.51C132.73 959.04 133.2 959.28 133.66 959.53C141.27 963.67 148.71 968.18 156.54 971.83C164.09 975.36 172.12 977.84 180.55 978.12C186.84 978.33 193.22 978.62 199.41 977.79C208.88 976.51 216.42 971.35 222.28 963.84C227.6 957.01 229.41 950.81 224.72 942.22C221.69 936.67 217.82 931.98 211.91 928.91C228.52 922.9 242.03 913.34 252.02 899.15C257.03 892.03 260.75 884.19 261.06 875.39C261.47 863.37 255.88 854.4 245.24 848.94C236.19 844.3 226.59 842.97 216.35 846.15C227.65 830.93 236.16 814.55 242.68 797.17C247.94 783.15 252.48 768.93 252.53 753.67C252.56 746.18 251.58 739.08 247.97 732.4C241.44 720.31 229.55 716.95 218.46 718.85C205.83 721.01 197.01 729.23 189.53 738.95C182.31 721.64 169.6 707.57 150.67 695.65C114.04 672.58 83.3098 640.21 59.3498 599.44C54.8098 591.72 50.5498 583.68 46.5498 575.4C64.8898 584.23 83.2198 593.1 101.61 601.82C120.45 610.75 139.36 619.52 158.23 628.38C169.58 633.71 180.89 639.09 192.23 644.42C211.12 653.3 230.01 662.15 248.91 671Z" fill="white"/>
<path d="M288.8 17.92C288.67 17.94 288.55 17.96 288.42 17.97C288.42 19.34 288.61 20.73 288.39 22.06C287.26 28.81 284.98 32 278.94 31.76C277.46 31.7 275.94 31.29 274.55 30.75C267.23 27.94 262.17 22.24 257.03 16.71C254.49 13.98 252.13 11.09 249.68 8.27002C257.99 8.32002 271.51 8.50998 287.48 9.09998C287.79 12.05 288.34 14.98 288.8 17.92Z" fill="white"/>
<path d="M241.69 854.34C252.59 859.7 258.26 871.1 254.19 883.35C250.32 894.98 242.98 903.94 233.61 911.43C225.31 918.06 215.83 922.34 205.72 925.48C200.71 927.04 195.9 929.29 191.07 931.41C190.15 931.81 189.59 933.03 188.86 933.88C189.1 934.22 189.33 934.56 189.57 934.9C193.63 933.95 197.68 932.93 201.76 932.08C203.06 931.81 204.53 931.69 205.79 932C210.94 933.28 214.45 936.75 216.73 941.34C218.83 945.54 220.79 950.09 218.01 954.66C214.5 960.41 209.9 965.24 203.8 968.34C193.27 973.69 182.03 973.86 170.92 971.43C151.91 967.29 135.22 958.48 120.74 945.7C131.76 944.21 142.45 943.11 151.68 942.44L152.88 942.35L153.83 941.62C179.26 922.06 194.35 889.51 198.68 844.89C202.08 809.81 197.71 776.98 196.06 764.62L195.83 762.93C194.94 756.14 193.46 749.77 191.37 743.77C194.94 740.49 198.33 736.99 202.01 733.83C207.79 728.85 214.47 725.3 222.16 725.18C234.74 724.99 241.34 730.03 245.26 742.46C248.43 752.55 246.87 762.76 244.46 772.83C241.38 785.75 236.86 798.15 231.23 810.19C224.19 825.28 215.84 839.53 205.09 852.31C203.16 854.61 202.61 857.4 204.09 859.67C205.6 858.42 207.11 857.24 208.53 855.95C209.77 854.83 210.7 853.02 212.12 852.53C215.46 851.36 218.98 850.3 222.49 850.09C229.21 849.68 235.64 851.37 241.69 854.34Z" fill="white"/>
<path d="M230.21 52.69C230.89 62.14 229.9 71.17 226.09 79.78C221.71 89.69 215.28 92.93 205.75 91.66C194.26 90.14 183.79 85.29 174.1 79.11C159.86 70.01 146.77 59.41 134.77 47.49C133.4 46.13 132.02 45.46 130.29 46.78C128.67 48.02 128.01 49.47 129.13 51.45C129.69 52.45 130 53.6 130.48 54.65C136.1 67 140.66 79.61 138.9 93.51C138.46 97 137.66 100.63 136.11 103.74C134.23 107.51 131.44 110.86 126.7 111.43C125.28 111.6 123.85 111.7 122.2 111.85C111.23 80.48 101.58 48.53 89.5898 17.4C100.93 15.38 115.08 13.51 132.79 11.97C166.45 9.03997 200.41 8.41003 216.94 8.28003C218.89 11.82 220.82 15.39 222.4 19.1C226.95 29.83 229.36 41.03 230.21 52.69Z" fill="white"/>
<path d="M168.71 261.03C166.02 259.5 163.8 257.81 161.67 256.03C152.35 248.23 142.35 241.47 131.42 236.15C121.93 231.53 111.93 228.59 101.42 227.67C94.4302 227.05 87.6402 228.41 81.1302 230.95C72.0502 234.48 64.1202 239.6 59.0102 248.22C54.6502 255.56 53.4902 263.7 53.3202 272.24C52.0302 271.28 50.8802 270.42 49.7302 269.57C42.9602 264.59 31.8502 262.22 23.2002 262.65C23.5302 260.59 23.8702 258.53 24.2102 256.46C28.2902 231.56 32.5002 205.82 35.6302 180.12C43.1902 118.02 44.0102 62.61 44.0102 41.67C44.0102 39.63 44.1002 37.49 44.7902 35.57C46.1002 31.92 53.0602 24.31 86.3702 17.99C86.2602 18.03 86.1602 18.06 86.0402 18.1C98.8402 58.98 113.68 99.07 127.31 139.56C140.96 180.1 154.9 220.54 168.71 261.03Z" fill="white"/>
<path d="M131.86 1001.26C131.98 1002.77 131.91 1004.31 131.89 1006.02C131.33 1005.97 130.78 1005.92 130.23 1005.86C107.22 988.48 87.3101 974.22 64.8501 957.33C79.2401 952.64 98.2701 948.9 116.74 946.26C119.44 948.56 122.2 950.73 125.15 953.01C128.18 955.36 129.13 958.05 129.15 961.5C129.16 963.86 129.03 966.24 129.21 968.59C130.05 979.48 131 990.37 131.86 1001.26Z" fill="white"/>
<path d="M82.9402 975.33C96.0602 985.23 109.12 995.21 122.3 1005.04C83.7002 1000.8 66.2602 995.18 65.9902 995.09L65.3802 994.94C59.9702 994.04 45.0202 989.96 40.8902 981.96C39.2602 978.8 39.4702 975.21 41.5302 970.99C43.7902 966.35 51.1102 962.18 61.2802 958.55C68.7702 964.27 75.0902 969.4 82.9402 975.33Z" fill="white"/>
<path d="M59.5801 579.23C57.5301 578.47 55.6401 577.92 53.9101 577.05C53.3001 576.74 52.8301 575.69 52.7401 574.92C52.5501 573.31 52.6301 571.66 52.6201 570.02C52.4501 503.6 52.2101 437.19 52.1501 370.77C52.1201 339.52 52.4501 308.26 52.6201 277.01C52.6201 276.23 52.7101 275.44 52.7601 274.71C53.0401 274.66 53.1401 274.61 53.2201 274.63C57.1201 275.8 58.7601 278.04 58.5501 282.47C58.1201 291.54 58.3501 300.64 58.4301 309.72C58.7101 340.33 59.1401 370.94 59.3301 401.56C59.5301 433.73 59.5301 465.89 59.5801 498.06C59.6201 523.96 59.5901 549.86 59.5901 575.75C59.5801 576.84 59.5801 577.93 59.5801 579.23Z" fill="black"/>
<path d="M32.9401 552.59C32.3301 549.7 31.0801 546.78 31.2501 543.94C31.5301 539.12 28.6401 539.25 28.1501 534.73C27.8301 531.71 26.9601 528.71 26.9501 525.69C26.7101 471.79 26.4601 422.89 26.4301 369C26.4101 334.01 26.7301 299.01 26.9001 264.02C26.9001 263.57 27.0101 264.65 27.0601 263.71C29.7601 266.34 32.8501 261.13 32.8501 265.71C32.8301 296.34 33.1901 331.92 33.3001 362.54C33.5401 427.81 33.7001 484.08 33.8901 549.34C33.8901 550.38 33.8901 551.41 33.8901 552.45C33.5801 552.5 33.2601 552.54 32.9401 552.59Z" fill="black"/>
<path d="M106.96 368.6C109.52 369.43 111.65 370.13 114.14 370.94C114.14 449.33 114.14 527.83 114.14 606.5C112.64 605.89 110.89 605.39 109.4 604.47C108.7 604.04 108.12 602.81 108.1 601.94C107.83 586.13 107.54 570.32 107.5 554.52C107.37 506.62 107.35 458.73 107.25 410.83C107.22 398.02 107.06 385.22 106.96 372.41C106.95 371.09 106.96 369.76 106.96 368.6Z" fill="black"/>
<path d="M87.2998 592.8C83.0198 591.65 80.7099 589.57 80.9499 584.45C81.3399 576.12 80.6898 567.74 80.6698 559.38C80.5698 514.39 80.5198 469.4 80.4698 424.41C80.4498 405.15 80.4698 385.89 80.4698 366.51C82.4298 367.41 84.5598 368.38 87.2998 369.64C87.2998 443.5 87.2998 518.09 87.2998 592.8Z" fill="black"/>
<path d="M135.3 379.79C137.89 383.04 140.15 385.79 142.28 388.64C142.64 389.13 142.47 390.05 142.47 390.77C142.48 466.03 142.48 541.3 142.47 616.56C142.47 617.26 142.38 617.96 142.3 618.99C140.38 618.09 138.57 617.48 137.07 616.43C136.42 615.98 136.16 614.62 136.16 613.67C136.11 596.13 136.19 578.58 136.11 561.04C135.82 501.15 135.48 441.25 135.15 381.36C135.15 381.1 135.2 380.83 135.3 379.79Z" fill="black"/>
<path d="M242.26 446.52C244.72 447.69 246.67 448.57 248.56 449.55C248.92 449.74 249.21 450.33 249.28 450.77C249.4 451.48 249.32 452.22 249.32 452.95C249.32 525.03 249.32 597.11 249.32 669.2C249.32 670.1 249.32 667 249.32 667.91C244.86 667.7 242.95 669.85 242.94 665.66C242.9 654.03 242.94 642.39 242.9 630.76C242.69 570.41 242.47 510.06 242.26 449.71C242.25 448.81 242.26 447.93 242.26 446.52Z" fill="black"/>
<path d="M267.35 460.23C269.25 461.16 271.36 462.19 273.84 463.41C273.84 464.06 273.84 465.22 273.84 466.39C273.84 532.99 273.76 599.59 274 666.19C274.02 671.32 271.36 673.23 267.35 675.81C267.35 603.54 267.35 531.77 267.35 460.23Z" fill="black"/>
<path d="M427.9 180.62C423.92 176.94 421.36 174.73 417.91 171.39C417.11 170.61 416.52 169.49 416.14 168.41C397.87 116.69 379.63 67.9699 361.4 16.2399C361.14 15.4899 360.95 14.7099 360.7 13.8699C361.23 13.7999 361.59 13.7299 361.94 13.7099C368.39 13.4799 368.7 13.6899 370.8 19.6599C389.85 73.6899 407.9 123.72 426.94 177.75C427.21 178.51 427.45 179.28 427.9 180.62Z" fill="black"/>
<path d="M218.4 444.54C220.85 444.83 222.89 445.08 225.16 445.35C225.16 516.56 225.16 587.85 225.16 659.46C223.56 658.58 221.88 657.9 220.55 656.81C219.91 656.28 219.66 654.97 219.65 654.02C219.6 636.39 219.71 618.76 219.59 601.13C219.24 550.25 218.8 499.37 218.4 448.48C218.39 447.31 218.4 446.14 218.4 444.54Z" fill="black"/>
<path d="M191.52 449.27C193.87 448.3 196.09 447.39 198.4 446.44C198.4 513.18 198.4 579.74 198.4 646.63C196.66 645.77 194.99 645.23 193.73 644.2C193.03 643.62 192.73 642.22 192.73 641.19C192.62 627.38 192.63 613.56 192.53 599.75C192.43 584.58 192.2 569.4 192.1 554.23C191.88 520.33 191.7 486.44 191.51 452.54C191.51 451.45 191.52 450.37 191.52 449.27Z" fill="black"/>
<path d="M291.84 481.38C293.47 483.05 295.46 484.78 297.06 486.82C297.86 487.85 298.32 489.43 298.32 490.77C298.38 545.1 298.36 597.44 298.41 651.77C298.41 653.4 298.08 654.5 296.55 655.24C295.12 655.93 293.81 658.85 291.85 660.03C291.84 600.02 291.84 540.52 291.84 481.38Z" fill="black"/>
<path d="M171.53 633.13C171.29 633.2 171.19 633.26 171.13 633.24C165.84 631.18 165.88 631.18 165.84 625.56C165.62 597.03 165.36 568.5 165.16 539.97C164.98 514.62 164.84 489.27 164.76 463.92C164.76 463.21 165.5 462.34 166.13 461.83C167.76 460.49 169.51 459.3 171.54 457.82C171.53 516.51 171.53 574.78 171.53 633.13Z" fill="black"/>
<path d="M277.43 270.88C274.48 269.75 270.74 264.83 268.15 263.62C267.53 263.33 267.3 262.1 267.01 261.26C257.63 234.7 249.34 212.11 239.88 185.58C233.01 166.33 225.97 147.14 218.83 127.99C217.79 125.2 218.83 125.25 221.26 123.44C222.33 122.64 223.22 122.61 224.63 121.26C242.64 172.4 259.52 220.11 277.43 270.88Z" fill="black"/>
<path d="M387.09 147.09C383.7 145.05 380.69 143.3 377.77 141.42C377.1 140.99 376.51 140.17 376.24 139.4C362.7 101.12 349.21 62.8199 335.66 24.5499C335.11 23.0099 335.4 22.0699 336.53 20.9999C337.95 19.6499 340.18 20.0899 341.92 18.1399C357.5 62.2999 371.76 103.58 387.09 147.09Z" fill="black"/>
<path d="M89.4402 127.97C83.1202 130.17 76.7902 132.55 70.3402 134.53C67.4602 135.41 64.3502 135.64 61.3202 135.88C58.6702 136.09 55.1701 132.75 55.1001 130.11C55.0401 127.84 56.7802 127.06 58.5902 126.66C62.3402 125.84 66.2201 125.52 69.8501 124.36C75.1101 122.67 80.1902 120.43 85.3302 118.39C86.5802 117.89 86.8901 117.14 86.4201 115.66C83.5401 106.46 80.7801 97.2201 78.1001 87.9601C77.6901 86.5401 76.4801 84.6401 79.1001 83.7301C81.2301 82.9901 83.2001 83.6401 84.1601 85.9201C86.0201 90.3601 87.8102 94.8401 89.4002 99.3901C90.9302 103.76 92.1602 108.22 93.5702 112.79C99.5402 108.36 103.2 102.14 106.28 95.4901C106.96 94.0301 107.47 92.4901 108.02 90.9801C108.84 88.7101 110.59 87.8301 112.71 88.5401C114.72 89.2201 113.8 90.9401 113.48 92.4201C111.19 103.09 106.73 112.69 98.6701 120.17C96.4301 122.25 96.5202 123.74 97.2402 126.23C98.4702 130.49 99.2402 134.88 100.19 139.21C100.25 139.47 100.33 139.79 100.24 140.01C99.7002 141.36 99.1102 142.69 98.5302 144.03C97.4102 143.13 95.8102 142.45 95.2402 141.28C93.0802 136.82 91.2502 132.19 89.4402 127.97Z" fill="black"/>
<path d="M325.2 492.23C325.2 493.62 325.2 494.71 325.2 495.8C325.2 538.86 325.17 581.92 325.25 624.99C325.26 628.17 325.06 630.84 321.88 632.55C320.96 633.05 320.48 634.36 319.79 635.29C319.52 635.11 319.26 634.94 318.99 634.76C318.94 634.18 318.84 633.6 318.83 633.02C318.62 589.05 318.46 545.09 318.12 501.12C318.1 498.37 319.89 497.46 321.26 495.98C322.41 494.75 323.69 493.66 325.2 492.23Z" fill="black"/>
<path d="M344.08 613.19C344.08 566.88 344.08 521.19 344.08 475.29C346.3 474.88 348.44 474.49 350.9 474.03C350.9 475.12 350.9 476.18 350.9 477.25C350.9 519.14 350.77 561.04 351.06 602.93C351.1 608.44 348 610.41 344.08 613.19Z" fill="black"/>
<path d="M238.76 253.92C236.08 253.61 233.74 253.34 230.94 253.02C218.28 217.95 205.44 182.37 192.6 146.83C194.83 144.94 196.81 143.26 199.06 141.35C212.33 178.95 225.54 216.41 238.76 253.92Z" fill="black"/>
<path d="M372.04 468.76C374.24 468.92 376.42 469.07 378.98 469.25C378.98 469.71 378.98 470.75 378.98 471.79C378.98 508.04 378.93 544.3 379.06 580.55C379.07 583.95 378.22 586.27 375.23 587.86C374.16 588.43 373.26 589.3 372.04 590.2C372.04 549.37 372.04 508.89 372.04 468.76Z" fill="black"/>
<path d="M105.52 201.99C106.79 197.59 107.77 193.52 109.13 189.58C111.82 181.76 115.44 174.43 121.73 168.81C126.68 164.39 132.18 161.19 139.4 162.24C139.89 164.03 139.73 165.74 137.7 166.29C129.3 168.56 124.23 174.78 120.08 181.67C114.85 190.34 112.42 200.07 111.24 210.09C110.48 216.59 109.79 223.1 109.04 229.6C108.96 230.3 108.81 231.04 108.48 231.65C108.1 232.35 107.4 233.48 106.98 233.42C106.15 233.3 104.93 232.64 104.72 231.95C103.97 229.48 103.16 226.91 103.14 224.37C103.08 218.12 102.9 211.9 100.34 206.1C97.2001 198.99 92.4501 193.22 85.2501 189.86C83.9201 189.24 82.3501 188.96 80.8701 188.88C78.5501 188.76 74.47 184.71 74.86 182.46C74.98 181.76 75.9201 180.75 76.5701 180.69C78.6501 180.47 80.9601 180.07 82.8301 180.74C93.2401 184.41 100.68 191.5 105.52 201.99Z" fill="black"/>
<path d="M176.06 163.06C188.18 197.42 198.93 229.76 210.71 263.19C205.69 263.12 202.36 260.87 200.87 256.73C190.76 228.63 180.7 200.52 170.46 172.47C169.44 169.66 169.49 167.8 171.93 165.96C173.04 165.13 174.74 164.75 176.06 163.06Z" fill="black"/>
<path d="M426.84 542.76C426.84 541.64 426.84 540.74 426.84 539.85C426.78 503.05 426.69 466.25 426.76 429.45C426.76 427.8 427.89 425.9 429.01 424.56C430.37 422.94 432.28 421.79 433.8 420.56C433.8 420.78 433.8 421.8 433.8 422.82C433.8 459.99 433.8 497.15 433.8 534.32C433.79 540.94 433.79 540.94 426.84 542.76Z" fill="black"/>
<path d="M430.83 124.2C418.52 89.2998 406.22 54.3998 393.68 18.8398C396.83 19.5998 399.42 20.1398 401.95 20.8898C402.46 21.0398 402.88 21.9198 403.11 22.5398C412.59 49.3398 422.15 76.1098 431.35 103.01C432.53 106.46 431.96 110.55 431.92 114.34C431.88 117.58 431.44 120.82 431.18 124.06C431.07 124.11 430.95 124.16 430.83 124.2Z" fill="black"/>
<path d="M353.86 134.01C351.09 133.26 348.56 132.82 346.26 131.84C345.23 131.41 344.33 130.02 343.92 128.88C336.7 108.61 329.57 88.2999 322.41 68.0099C319.63 60.1299 316.93 52.23 314.03 44.39C313.32 42.48 313.74 41.38 315.28 40.27C316.67 39.27 317.9 38.0699 319.54 36.6599C331.01 69.1899 342.41 101.54 353.86 134.01Z" fill="black"/>
<path d="M398.9 566.42C398.9 532.58 398.9 499.39 398.9 466.19C401.1 466.43 403.28 466.67 405.8 466.94C405.8 467.33 405.8 468.28 405.8 469.24C405.8 498.76 405.78 528.27 405.85 557.79C405.86 560.03 405.27 561.51 403.33 562.7C401.84 563.6 400.63 564.94 398.9 566.42Z" fill="black"/>
<path d="M221.21 883.34C228.3 878.51 233.77 872.03 234.46 862.56C234.78 858.11 234.52 853.61 235.13 848.6C235.79 849.12 236.87 849.53 237.06 850.19C240.34 861.91 239.39 873.01 231.01 882.42C228.08 885.71 224.07 888.03 220.69 890.96C219.77 891.75 219.18 893.06 218.74 894.25C217.5 897.59 216.51 901.03 215.19 904.33C214.89 905.09 213.46 906.11 212.92 905.93C211.98 905.61 210.82 904.53 210.67 903.62C210.44 902.2 210.85 900.62 211.24 899.17C211.62 897.75 212.31 896.41 212.81 895.16C208.9 895.54 205.21 896.24 201.54 896.2C195.29 896.13 191.05 892.51 188.14 887.28C186.96 885.16 187.63 884.08 189.96 884.36C191.43 884.54 193.2 885.21 194.12 886.28C197.74 890.47 202.03 891.28 207.14 889.82C215.42 887.46 215.65 887.51 215.35 879.09C215.19 874.65 214.07 870.24 213.54 865.8C213.44 864.93 213.78 863.42 214.35 863.17C215.51 862.65 216.76 862.89 217.13 864.69C218.4 870.84 219.81 876.99 221.21 883.34Z" fill="black"/>
<path d="M324.21 129.15C321.85 129.79 319.8 130.34 317.57 130.94C317.32 130.42 317.05 129.98 316.87 129.49C308.93 107.62 301.05 85.73 292.99 63.9C291.93 61.04 291.96 59.21 294.84 57.78C295.94 57.23 296.84 56.28 298.16 55.26C306.86 79.94 315.48 104.39 324.21 129.15Z" fill="black"/>
<path d="M230.78 724.44C232.76 723.38 234.5 723.83 236.24 725.31C239.87 728.4 240.99 732.75 241.47 737.04C242.55 746.55 240.4 755.26 233.44 762.33C233.31 762.46 233.18 762.59 233.05 762.71C231.07 764.6 228.3 765.49 227.85 769.03C227.05 775.31 228.02 780.98 231.98 785.9C233.69 788.02 235.9 789.77 238.02 791.53C239.64 792.87 239.97 794.38 238.89 796.02C237.77 797.71 236.15 797.23 234.85 796.25C228.99 791.81 224.88 786.12 223.66 778.77C223.11 775.49 223.26 772.09 223.1 768.75C221.38 769.09 219.48 769.52 217.57 769.85C212.27 770.76 207.69 769.26 203.9 765.49C203.4 764.99 203.28 764.11 202.98 763.41C203.8 763.15 204.62 762.67 205.43 762.69C206.67 762.71 207.91 763.01 209.13 763.3C221.28 766.18 234.89 757.47 236.52 745.2C237.09 740.9 236.43 736.27 235.44 731.99C234.85 729.4 232.56 727.2 230.78 724.44Z" fill="black"/>
<path d="M35.6802 142.99C37.9302 140.41 40.1102 140.48 42.5602 141.64C49.4802 144.91 53.6302 150.49 56.1702 157.53C59.5202 166.85 61.2902 176.46 60.3902 186.31C59.9502 191.13 58.4302 195.88 57.0402 200.56C56.0002 204.06 54.4702 207.42 52.9802 210.76C52.6102 211.6 51.5302 212.64 50.7802 212.64C49.9902 212.64 49.0402 211.61 48.4402 210.82C46.7002 208.52 46.7802 206.16 48.1902 203.61C52.3502 196.06 54.6402 187.94 53.9002 179.33C53.1302 170.32 51.8502 161.26 46.4002 153.64C44.5102 151 41.5902 149.11 39.2102 146.81C37.9602 145.6 36.8502 144.26 35.6802 142.99Z" fill="black"/>
<path d="M243.77 102.44C246.08 100.54 248.04 98.9299 250.21 97.1499C250.65 98.3199 251.04 99.2999 251.39 100.3C257.67 118.11 263.93 135.93 270.27 153.72C270.97 155.69 271.19 157.14 269.38 158.73C268.08 159.86 267.35 161.64 266.2 163.37C258.7 143 251.25 122.77 243.77 102.44Z" fill="black"/>
<path d="M289.5 140.77C286.49 132.3 283.61 124 280.59 115.75C276.76 105.27 272.88 94.8099 268.86 84.4099C268.01 82.1999 268.2 80.7699 270.05 79.2899C271.3 78.2899 272.25 76.8999 273.83 75.1199C281.32 96.3399 288.56 116.87 295.87 137.59C293.77 138.64 291.8 139.62 289.5 140.77Z" fill="black"/>
<path d="M168.49 951.46C165.87 953.3 162.99 955.33 160.12 957.35C158.18 958.71 156.43 958.5 155.02 956.58C153.47 954.46 154.78 953.02 156.38 951.8C158.94 949.85 161.55 947.98 163.94 946.22C162.43 942.84 160.97 939.91 159.82 936.85C159.3 935.47 159.29 933.85 159.33 932.34C159.35 931.76 160.22 930.69 160.57 930.74C161.27 930.84 162.18 931.43 162.46 932.06C163.93 935.44 165.23 938.89 166.59 942.32C166.94 942.32 167.29 942.32 167.64 942.32C169.19 940.27 170.98 938.35 172.22 936.13C174.44 932.16 176.29 927.98 178.37 923.93C178.68 923.33 179.41 922.95 179.94 922.47C180.32 923.09 181.12 923.81 181 924.33C180.02 928.65 179.23 933.07 177.67 937.2C176.33 940.75 174.07 943.96 172.07 947.58C176.74 951.67 182.37 954.59 188.68 956.23C190.06 956.59 191.6 956.49 192.89 957.02C194.43 957.65 196.41 958.54 195.67 960.68C195.03 962.51 193.16 962.53 191.48 962.04C188.75 961.24 185.89 960.67 183.36 959.44C178.31 956.99 173.45 954.15 168.49 951.46Z" fill="black"/>
<path d="M429.14 965.12C427.8 966.76 429.22 966.82 428.35 967.51C415.05 977.88 401.76 988.27 388.34 998.5C384.73 1001.25 380.76 1003.53 376.88 1005.9C376.3 1006.26 375.29 1005.91 374.48 1005.9C374.71 1005.12 374.69 1004.07 375.2 1003.59C379.07 999.94 382.81 996.11 387.02 992.89C398.95 983.76 411.08 974.89 423.15 965.95C424.37 965.05 425.63 964.04 427.03 963.61C428.03 963.29 427.31 964.85 429.14 965.12Z" fill="black"/>
<path d="M358.06 996.71C358.17 992.91 358.12 993.19 360 991.68C372.91 981.36 386.02 971.29 399.03 961.1C402.22 958.6 405.27 955.94 408.41 953.37C409.1 952.8 409.84 951.99 410.62 951.9C411.62 951.78 412.7 952.29 413.74 952.52C413.47 953.28 413.43 954.28 412.9 954.78C408.75 958.68 404.65 962.66 400.27 966.29C393.37 972.01 386.32 977.54 379.23 983.03C373.56 987.41 367.81 991.69 361.96 995.83C360.29 997.03 360.6 995.6 358.06 996.71Z" fill="black"/>
<path d="M390.86 947.31C388.72 949.29 386.71 951.44 384.42 953.24C373.2 962.04 362 970.87 350.6 979.44C344.4 984.11 337.84 988.31 331.37 992.61C330.46 993.21 329.13 993.19 327.51 993.58C329.94 988.37 334.41 986.3 338.11 983.46C351.66 973.07 365.25 962.73 378.84 952.39C381.55 950.33 384.27 948.25 387.13 946.39C387.94 945.86 389.24 946.1 390.31 945.98C390.5 946.43 390.68 946.87 390.86 947.31Z" fill="black"/>
<path d="M325.6 971.91C327.54 967.94 330.88 965.71 334.09 963.23C343.12 956.23 349.99 950.02 358.95 942.93C360.76 941.49 362.61 939.58 365.33 942.65C363.48 944.46 363.75 945.46 361.71 947.09C352.52 954.4 343.3 961.66 333.98 968.8C331.66 970.59 329.17 972.5 325.6 971.91Z" fill="black"/>
<path d="M346.67 939.38C344.08 941.21 341.63 942.94 339.19 944.68C329.63 951.48 320.1 958.32 310.5 965.04C308.76 966.26 306.76 967.12 304.79 967.97C304.11 968.26 303.19 968.02 301.94 968.02C305.85 962.87 310.54 959.58 315.35 956.4C323.56 950.96 331.67 945.37 339.92 939.99C341.55 938.92 343.24 937.06 345.65 938.43C345.79 938.52 345.9 938.67 346.67 939.38Z" fill="black"/>
<path d="M282.84 964.95C283.73 963.89 284.44 962.59 285.53 961.82C296.28 954.22 307.08 946.68 317.91 939.19C320.04 937.72 320.33 937.46 322.61 936.23C323.31 935.86 324.25 935.95 325.08 935.83C325.24 936.13 325.39 936.44 325.55 936.74C324.17 938.03 324.92 938.51 323.39 939.58C312.01 947.59 300.59 955.55 289.12 963.43C287.45 964.58 285.44 965.22 283.59 966.09C283.34 965.71 283.09 965.33 282.84 964.95Z" fill="black"/>
<path d="M224.93 830.79C223.96 829.71 223.32 829.31 223.17 828.77C221.09 821.45 215.73 816.93 209.88 812.69C208.02 811.34 206.8 809.1 204.84 806.72C212.85 805.24 216.49 810.46 220.18 814.75C223.83 819 227.18 823.81 224.93 830.79Z" fill="black"/>
<path d="M70.8802 60.3C70.9302 58.09 72.7502 56.02 74.6702 56C76.4602 55.99 78.2502 58.64 77.9102 61.33C77.6902 63.07 77.6202 65.32 75.0502 65.5C73.1102 65.63 70.8302 62.68 70.8802 60.3Z" fill="black"/>
<path d="M207.79 910.25C208.45 911.86 209.54 913.2 209.26 914.14C208.79 915.71 207.55 917.11 206.42 918.39C206.16 918.69 204.48 918.38 204.38 918.07C203.9 916.49 203.19 914.65 203.63 913.24C203.98 912.14 205.9 911.53 207.79 910.25Z" fill="black"/>
</g>
<defs>
<clipPath id="clip0_1_130">
<rect width="468" height="1018" fill="white"/>
</clipPath>
</defs>
</svg>
