<svg width="25" height="25" viewBox="0 0 25 25" fill="none" xmlns="http://www.w3.org/2000/svg">
<g clip-path="url(#clip0_3942_64164)">
<path d="M8.48633 8.78516C8.68524 8.78516 8.87601 8.86417 9.01666 9.00483C9.15731 9.14548 9.23633 9.33624 9.23633 9.53516L9.23633 18.5352C9.23633 18.7341 9.15731 18.9248 9.01666 19.0655C8.87601 19.2061 8.68524 19.2852 8.48633 19.2852C8.28742 19.2852 8.09665 19.2061 7.956 19.0655C7.81535 18.9248 7.73633 18.7341 7.73633 18.5352L7.73633 9.53516C7.73633 9.33624 7.81535 9.14548 7.956 9.00483C8.09665 8.86417 8.28742 8.78516 8.48633 8.78516ZM12.2363 8.78516C12.4352 8.78516 12.626 8.86417 12.7667 9.00483C12.9073 9.14548 12.9863 9.33624 12.9863 9.53516L12.9863 18.5352C12.9863 18.7341 12.9073 18.9248 12.7667 19.0655C12.626 19.2061 12.4352 19.2852 12.2363 19.2852C12.0374 19.2852 11.8467 19.2061 11.706 19.0655C11.5653 18.9248 11.4863 18.7341 11.4863 18.5352L11.4863 9.53516C11.4863 9.33624 11.5653 9.14548 11.706 9.00483C11.8467 8.86417 12.0374 8.78516 12.2363 8.78516ZM16.7363 9.53516C16.7363 9.33624 16.6573 9.14548 16.5167 9.00483C16.376 8.86417 16.1852 8.78516 15.9863 8.78516C15.7874 8.78516 15.5966 8.86417 15.456 9.00483C15.3153 9.14548 15.2363 9.33624 15.2363 9.53516L15.2363 18.5352C15.2363 18.7341 15.3153 18.9248 15.456 19.0655C15.5966 19.2061 15.7874 19.2852 15.9863 19.2852C16.1852 19.2852 16.376 19.2061 16.5167 19.0655C16.6573 18.9248 16.7363 18.7341 16.7363 18.5352L16.7363 9.53516Z" fill="black"/>
<path fill-rule="evenodd" clip-rule="evenodd" d="M21.9863 5.03516C21.9863 5.43298 21.8283 5.81451 21.547 6.09582C21.2657 6.37712 20.8842 6.53516 20.4863 6.53516L19.7363 6.53516L19.7363 20.0352C19.7363 20.8308 19.4203 21.5939 18.8576 22.1565C18.295 22.7191 17.532 23.0352 16.7363 23.0352L7.73633 23.0352C6.94068 23.0352 6.17762 22.7191 5.61501 22.1565C5.0524 21.5939 4.73633 20.8308 4.73633 20.0352L4.73633 6.53516L3.98633 6.53516C3.5885 6.53516 3.20697 6.37712 2.92567 6.09582C2.64436 5.81451 2.48633 5.43298 2.48633 5.03516L2.48633 3.53516C2.48633 3.13733 2.64436 2.7558 2.92567 2.4745C3.20697 2.19319 3.5885 2.03516 3.98633 2.03516L9.23633 2.03516C9.23633 1.63733 9.39436 1.2558 9.67567 0.974496C9.95697 0.693192 10.3385 0.535156 10.7363 0.535156L13.7363 0.535156C14.1342 0.535156 14.5157 0.693192 14.797 0.974496C15.0783 1.2558 15.2363 1.63733 15.2363 2.03516L20.4863 2.03516C20.8842 2.03516 21.2657 2.19319 21.547 2.4745C21.8283 2.7558 21.9863 3.13733 21.9863 3.53516L21.9863 5.03516ZM6.41333 6.53516L6.23633 6.62366L6.23633 20.0352C6.23633 20.433 6.39436 20.8145 6.67567 21.0958C6.95697 21.3771 7.3385 21.5352 7.73633 21.5352L16.7363 21.5352C17.1342 21.5352 17.5157 21.3771 17.797 21.0958C18.0783 20.8145 18.2363 20.433 18.2363 20.0352L18.2363 6.62366L18.0593 6.53516L6.41333 6.53516ZM3.98633 5.03516L3.98633 3.53516L20.4863 3.53516L20.4863 5.03516L3.98633 5.03516Z" fill="black"/>
</g>
<defs>
<clipPath id="clip0_3942_64164">
<rect width="24" height="24" fill="white" transform="translate(0.236328 0.535156)"/>
</clipPath>
</defs>
</svg>
