<svg width="159" height="14" viewBox="0 0 159 14" fill="none" xmlns="http://www.w3.org/2000/svg">
<g clip-path="url(#clip0_703_34672)">
<path d="M30.2149 0.688156C30.2393 0.714267 30.2582 0.745009 30.2705 0.778558C30.2827 0.812107 30.2882 0.84778 30.2864 0.883459V13.3114C30.2884 13.3471 30.2831 13.3829 30.2709 13.4165C30.2586 13.4501 30.2395 13.4808 30.2149 13.5067C30.1891 13.5315 30.1584 13.5506 30.1247 13.5629C30.0911 13.5752 30.0553 13.5804 30.0196 13.5782H27.8546C27.7022 13.5782 27.6164 13.4877 27.5879 13.3114L27.5474 12.7613C27.2483 13.0972 26.8814 13.3658 26.4708 13.5493C26.0602 13.7328 25.6153 13.8271 25.1656 13.8259C24.4066 13.8361 23.6612 13.6233 23.022 13.2138C22.3809 12.8032 21.8626 12.2272 21.5215 11.5466C21.166 10.8292 20.981 10.0393 20.981 9.23865C20.981 8.43797 21.166 7.64812 21.5215 6.93073C21.8619 6.24961 22.3804 5.67345 23.022 5.2635C23.6628 4.85906 24.408 4.65123 25.1656 4.66568C25.5765 4.66862 25.9827 4.75332 26.3606 4.91484C26.7384 5.07636 27.0803 5.31147 27.3664 5.60647V0.883459C27.3646 0.84778 27.37 0.812107 27.3823 0.778558C27.3945 0.745009 27.4134 0.714267 27.4378 0.688156C27.4638 0.663546 27.4945 0.64451 27.5281 0.632222C27.5617 0.619933 27.5974 0.614652 27.6331 0.616703H30.0292C30.0633 0.615807 30.0973 0.621657 30.1292 0.633918C30.161 0.646179 30.1902 0.664611 30.2149 0.688156ZM26.7709 10.5772C27.1005 10.2064 27.2782 9.72509 27.2687 9.22912C27.2807 8.73773 27.1024 8.2607 26.7709 7.89772C26.6147 7.72537 26.4245 7.58728 26.2123 7.4922C26 7.39712 25.7703 7.3471 25.5378 7.34531C25.3052 7.34352 25.0748 7.38999 24.8611 7.4818C24.6474 7.5736 24.4551 7.70874 24.2963 7.87867C23.9679 8.24976 23.7971 8.73415 23.8199 9.22912C23.8007 9.72786 23.9709 10.2154 24.2963 10.5939C24.4519 10.7689 24.6432 10.9088 24.8572 11.004C25.0712 11.0993 25.3031 11.1477 25.5374 11.1461C25.7716 11.1446 26.0029 11.093 26.2156 10.9949C26.4283 10.8968 26.6176 10.7544 26.7709 10.5772Z" fill="white"/>
<path d="M38.5034 5.42783C38.4976 5.47679 38.4856 5.5248 38.4677 5.57074L37.8127 7.27607C37.8014 7.34336 37.7663 7.40435 37.7139 7.44803C37.6615 7.49171 37.5951 7.5152 37.5269 7.51425C37.4731 7.51596 37.4193 7.50953 37.3673 7.4952C37.1292 7.40389 36.8768 7.3555 36.6219 7.35229C36.3846 7.33961 36.1475 7.38008 35.9279 7.47073C35.7082 7.56138 35.5116 7.69994 35.3524 7.87628C35.0439 8.24709 34.8828 8.7185 34.8998 9.20053V13.3114C34.9019 13.3471 34.8966 13.3829 34.8843 13.4165C34.872 13.4501 34.853 13.4808 34.8284 13.5067C34.8025 13.5315 34.7718 13.5506 34.7382 13.5629C34.7046 13.5752 34.6688 13.5804 34.6331 13.5782H32.2394C32.2033 13.5829 32.1666 13.5792 32.1321 13.5674C32.0976 13.5557 32.0662 13.5362 32.0405 13.5104C32.0147 13.4846 31.9952 13.4533 31.9834 13.4188C31.9717 13.3843 31.968 13.3476 31.9727 13.3114V5.14441C31.968 5.10827 31.9717 5.07153 31.9834 5.03704C31.9952 5.00255 32.0147 4.97121 32.0405 4.94544C32.0662 4.91967 32.0976 4.90016 32.1321 4.88841C32.1666 4.87666 32.2033 4.87298 32.2394 4.87765H34.5473C34.7022 4.87765 34.7855 4.96816 34.8141 5.14441L34.8856 6.20905C35.3921 5.19125 36.1431 4.68235 37.1387 4.68235C37.3763 4.68033 37.6119 4.72567 37.8318 4.81572C38.0267 4.89469 38.2071 5.00579 38.3653 5.14441C38.4467 5.21715 38.4963 5.31891 38.5034 5.42783Z" fill="white"/>
<path d="M39.5539 4.94909C39.5798 4.92448 39.6106 4.90545 39.6441 4.89316C39.6777 4.88087 39.7135 4.87559 39.7492 4.87764H42.1452C42.1814 4.87296 42.2181 4.87665 42.2526 4.8884C42.2871 4.90015 42.3184 4.91966 42.3442 4.94543C42.37 4.9712 42.3895 5.00254 42.4012 5.03703C42.413 5.07152 42.4167 5.10825 42.412 5.14439V13.3114C42.4167 13.3476 42.413 13.3843 42.4012 13.4188C42.3895 13.4533 42.37 13.4846 42.3442 13.5104C42.3184 13.5362 42.2871 13.5557 42.2526 13.5674C42.2181 13.5792 42.1814 13.5829 42.1452 13.5782H39.7492C39.7131 13.5829 39.6763 13.5792 39.6418 13.5674C39.6073 13.5557 39.576 13.5362 39.5502 13.5104C39.5245 13.4846 39.5049 13.4533 39.4932 13.4188C39.4814 13.3843 39.4778 13.3476 39.4824 13.3114V5.14439C39.4804 5.10869 39.4857 5.07294 39.498 5.03935C39.5102 5.00576 39.5293 4.97504 39.5539 4.94909Z" fill="white"/>
<path d="M51.2529 5.15389C51.7528 5.48476 52.1517 5.94711 52.4057 6.49006C52.7013 7.11308 52.8473 7.79654 52.832 8.48596V13.3114C52.8357 13.3831 52.8109 13.4533 52.763 13.5067C52.7369 13.5311 52.7061 13.55 52.6726 13.5622C52.639 13.5745 52.6033 13.5799 52.5677 13.5782H50.174C50.1379 13.5828 50.1011 13.5791 50.0666 13.5674C50.0322 13.5556 50.0008 13.5361 49.975 13.5104C49.9493 13.4846 49.9298 13.4533 49.918 13.4188C49.9063 13.3843 49.9026 13.3475 49.9073 13.3114V9.10998C49.9073 8.48438 49.7715 8.04693 49.5 7.79764C49.2355 7.55073 48.8852 7.41659 48.5235 7.4237C48.2232 7.41442 47.9289 7.50859 47.6898 7.69046C47.4761 7.85442 47.3053 8.06771 47.1921 8.3121C47.0977 8.49972 47.0433 8.70493 47.0325 8.91468V13.3114C47.0372 13.3475 47.0335 13.3843 47.0217 13.4188C47.01 13.4533 46.9905 13.4846 46.9647 13.5104C46.9389 13.5361 46.9076 13.5556 46.8731 13.5674C46.8386 13.5791 46.8019 13.5828 46.7657 13.5782H44.3649C44.3288 13.5828 44.292 13.5791 44.2576 13.5674C44.2231 13.5556 44.1917 13.5361 44.1659 13.5104C44.1402 13.4846 44.1207 13.4533 44.1089 13.4188C44.0972 13.3843 44.0935 13.3475 44.0982 13.3114V5.14437C44.0935 5.10822 44.0972 5.07149 44.1089 5.037C44.1207 5.00251 44.1402 4.97117 44.1659 4.9454C44.1917 4.91963 44.2231 4.90012 44.2576 4.88837C44.292 4.87662 44.3288 4.87294 44.3649 4.87761H46.6895C46.8443 4.87761 46.9277 4.96812 46.9563 5.14437L47.0277 6.20901C47.295 5.75346 47.6695 5.37003 48.1186 5.09197C48.5963 4.81341 49.1415 4.67182 49.6944 4.68275C50.2474 4.69367 50.7866 4.85668 51.2529 5.15389Z" fill="white"/>
<path d="M63.7331 13.4186C63.7331 13.5234 63.6616 13.5782 63.5187 13.5782H60.9631C60.9007 13.5812 60.8386 13.5681 60.7827 13.5401C60.7268 13.5122 60.679 13.4704 60.6439 13.4186L58.3527 10.3819L57.4476 11.3584V13.3114C57.4513 13.3831 57.4265 13.4533 57.3786 13.5067C57.3525 13.5311 57.3217 13.55 57.2882 13.5623C57.2546 13.5746 57.2189 13.58 57.1833 13.5782H54.7848C54.7487 13.5829 54.712 13.5792 54.6775 13.5674C54.643 13.5557 54.6116 13.5362 54.5859 13.5104C54.5601 13.4846 54.5406 13.4533 54.5288 13.4188C54.5171 13.3843 54.5134 13.3476 54.5181 13.3114V0.883459C54.5163 0.84778 54.5217 0.812107 54.534 0.778558C54.5463 0.745009 54.5652 0.714267 54.5895 0.688156C54.6155 0.663546 54.6462 0.64451 54.6798 0.632222C54.7134 0.619933 54.7491 0.614652 54.7848 0.616703H57.1833C57.2189 0.614929 57.2546 0.620339 57.2882 0.632613C57.3217 0.644887 57.3525 0.663775 57.3786 0.688156C57.426 0.741835 57.4508 0.811864 57.4476 0.883459V7.80721L59.9866 5.02056C60.0258 4.97454 60.0748 4.93783 60.13 4.91312C60.1853 4.8884 60.2453 4.87628 60.3057 4.87766H63.0352C63.0949 4.87531 63.1538 4.89108 63.2043 4.92291C63.2232 4.93542 63.2388 4.95239 63.2496 4.97233C63.2604 4.99227 63.2661 5.01456 63.2663 5.03724C63.2625 5.0685 63.2525 5.0987 63.237 5.12609C63.2215 5.15348 63.2006 5.17752 63.1758 5.19681L60.1462 8.44791L63.6807 13.259C63.7149 13.3052 63.7333 13.3612 63.7331 13.4186Z" fill="white"/>
<path d="M72.9004 4.94907C72.925 4.97502 72.9441 5.00574 72.9563 5.03933C72.9686 5.07292 72.9739 5.10867 72.9719 5.14438V13.3114C72.9765 13.3475 72.9729 13.3843 72.9611 13.4188C72.9494 13.4533 72.9298 13.4846 72.9041 13.5104C72.8783 13.5361 72.847 13.5556 72.8125 13.5674C72.778 13.5792 72.7413 13.5828 72.7051 13.5782H70.5401C70.3853 13.5782 70.3019 13.4877 70.2733 13.3114L70.2186 12.7612C69.9195 13.0971 69.5526 13.3657 69.142 13.5493C68.7314 13.7328 68.2865 13.8271 67.8368 13.8259C67.0819 13.8329 66.3413 13.6202 65.7051 13.2138C65.0652 12.8018 64.5471 12.2262 64.2046 11.5465C63.8491 10.8291 63.6641 10.0393 63.6641 9.23861C63.6641 8.43793 63.8491 7.64808 64.2046 6.93069C64.5464 6.25058 65.0647 5.67477 65.7051 5.26346C66.3413 4.857 67.0819 4.64432 67.8368 4.65135C68.293 4.65357 68.743 4.75657 69.1548 4.95297C69.5665 5.14937 69.9298 5.43432 70.2186 5.78745L70.2733 5.13009C70.2972 4.95384 70.3853 4.86333 70.5401 4.86333H72.7051C72.7419 4.86312 72.7782 4.87065 72.8119 4.88543C72.8455 4.9002 72.8757 4.92188 72.9004 4.94907ZM69.4659 10.5772C69.7945 10.2058 69.9721 9.72485 69.9637 9.22908C69.9757 8.73769 69.7974 8.26066 69.4659 7.89768C69.3095 7.72527 69.1191 7.58715 68.9067 7.49204C68.6942 7.39693 68.4644 7.3469 68.2316 7.34511C67.9988 7.34332 67.7682 7.38981 67.5543 7.48164C67.3405 7.57346 67.1479 7.70864 66.9889 7.87863C66.6563 8.24788 66.481 8.73248 66.5006 9.22908C66.4847 9.72941 66.6592 10.2171 66.9889 10.5938C67.1448 10.769 67.3362 10.9088 67.5504 11.0041C67.7647 11.0993 67.9967 11.1478 68.2312 11.1462C68.4656 11.1446 68.697 11.0931 68.91 10.9949C69.1229 10.8968 69.3124 10.7544 69.4659 10.5772Z" fill="white"/>
<path d="M89.5323 4.95863C89.5523 4.99214 89.5628 5.0304 89.5628 5.06938C89.5628 5.10837 89.5523 5.14663 89.5323 5.18014L86.5242 13.3638C86.5041 13.431 86.4613 13.4891 86.4031 13.5282C86.3448 13.5673 86.2748 13.585 86.205 13.5782H83.9328C83.8635 13.5824 83.7947 13.5637 83.737 13.525C83.6794 13.4862 83.636 13.4296 83.6137 13.3638L81.8202 8.67655L80.0434 13.3638C80.0238 13.4313 79.981 13.4897 79.9227 13.5288C79.8644 13.568 79.7942 13.5855 79.7243 13.5782H77.4354C77.3658 13.5821 77.2969 13.5634 77.2389 13.5247C77.1809 13.486 77.137 13.4296 77.1139 13.3638L74.1153 5.18014C74.1022 5.14017 74.0958 5.09833 74.0962 5.05628C74.0962 4.9372 74.1748 4.87765 74.3344 4.87765H76.678C76.7479 4.87038 76.8181 4.88784 76.8764 4.92701C76.9348 4.96618 76.9775 5.02457 76.9972 5.09201L78.6835 10.1342L80.3888 5.09201C80.3986 5.04878 80.4204 5.00916 80.4515 4.9776C80.4826 4.94604 80.522 4.9238 80.5651 4.91338C80.6092 4.89041 80.6582 4.87817 80.708 4.87765H82.9444C82.9942 4.87817 83.0432 4.89041 83.0873 4.91338C83.1707 4.91338 83.2278 4.98483 83.2636 5.09201L85.0046 10.1342L86.6552 5.09201C86.6782 5.02667 86.7217 4.9705 86.7792 4.93188C86.8367 4.89325 86.9052 4.87423 86.9743 4.87765H89.337C89.3736 4.8752 89.4103 4.88124 89.4442 4.89528C89.4781 4.90933 89.5082 4.93101 89.5323 4.95863Z" fill="white"/>
<path d="M99.0763 4.94909C99.1242 5.0025 99.149 5.07272 99.1453 5.14439V13.3114C99.149 13.3831 99.1242 13.4533 99.0763 13.5067C99.0501 13.5311 99.0194 13.55 98.9859 13.5623C98.9523 13.5745 98.9166 13.58 98.881 13.5782H96.7136C96.5611 13.5782 96.4754 13.4877 96.4492 13.3114L96.3944 12.7612C96.0954 13.0972 95.7284 13.3658 95.3178 13.5493C94.9073 13.7328 94.4624 13.8271 94.0126 13.8259C93.2585 13.8333 92.5185 13.6206 91.8834 13.2138C91.2434 12.8018 90.7253 12.2262 90.3829 11.5465C90.0273 10.8292 89.8423 10.0393 89.8423 9.23863C89.8423 8.43795 90.0273 7.6481 90.3829 6.93071C90.7247 6.2506 91.2429 5.67479 91.8834 5.26348C92.5185 4.8567 93.2585 4.64398 94.0126 4.65137C94.4688 4.65359 94.9189 4.75658 95.3306 4.95298C95.7424 5.14938 96.1056 5.43434 96.3944 5.78747L96.4492 5.1301C96.4706 4.95385 96.5611 4.86335 96.7136 4.86335H98.881C98.9177 4.86343 98.9539 4.8711 98.9875 4.88585C99.0211 4.9006 99.0514 4.92213 99.0763 4.94909ZM95.6322 10.5772C95.9601 10.2056 96.1369 9.72459 96.1276 9.2291C96.1403 8.73803 95.9628 8.26105 95.6322 7.8977C95.4759 7.72528 95.2854 7.58716 95.073 7.49206C94.8605 7.39695 94.6307 7.34692 94.3979 7.34513C94.1651 7.34334 93.9345 7.38982 93.7206 7.48165C93.5068 7.57348 93.3142 7.70866 93.1552 7.87865C92.8269 8.24974 92.656 8.73413 92.6789 9.2291C92.6597 9.72783 92.8298 10.2154 93.1552 10.5938C93.3067 10.7721 93.4961 10.9142 93.7096 11.0098C93.923 11.1054 94.1551 11.152 94.389 11.1464C94.6255 11.1503 94.86 11.1011 95.0751 11.0026C95.2902 10.9041 95.4806 10.7588 95.6322 10.5772Z" fill="white"/>
<path d="M107.367 5.42782C107.361 5.47678 107.349 5.52479 107.331 5.57073L106.674 7.27606C106.663 7.34294 106.628 7.40361 106.576 7.44724C106.524 7.49088 106.459 7.51462 106.391 7.51424C106.336 7.51608 106.281 7.50965 106.229 7.49518C105.991 7.40387 105.738 7.35549 105.483 7.35228C105.246 7.33928 105.009 7.3796 104.79 7.47029C104.571 7.56097 104.375 7.69971 104.216 7.87626C103.909 8.24477 103.747 8.71364 103.764 9.19337V13.3114C103.767 13.3831 103.742 13.4533 103.695 13.5067C103.668 13.5311 103.638 13.55 103.604 13.5623C103.571 13.5745 103.535 13.58 103.499 13.5782H101.098C101.063 13.58 101.027 13.5745 100.994 13.5623C100.96 13.55 100.929 13.5311 100.903 13.5067C100.879 13.4806 100.86 13.4498 100.848 13.4162C100.837 13.3826 100.832 13.347 100.834 13.3114V5.14439C100.832 5.10885 100.837 5.07321 100.848 5.03963C100.86 5.00605 100.879 4.97524 100.903 4.94909C100.929 4.92471 100.96 4.90582 100.994 4.89355C101.027 4.88127 101.063 4.87586 101.098 4.87764H103.406C103.561 4.87764 103.645 4.96814 103.673 5.14439L103.745 6.20904C104.254 5.19124 105.006 4.68233 106 4.68233C106.237 4.68051 106.472 4.72585 106.691 4.81571C106.886 4.89468 107.066 5.00578 107.224 5.14439C107.266 5.17984 107.3 5.22315 107.324 5.2718C107.349 5.32045 107.363 5.37348 107.367 5.42782Z" fill="white"/>
<path d="M116.113 10.0079C116.059 10.1008 115.979 10.1757 115.883 10.2232C115.786 10.2707 115.678 10.2886 115.572 10.2747H110.546C110.598 10.4646 110.686 10.6424 110.807 10.7978C110.928 10.9531 111.078 11.083 111.249 11.1797C111.656 11.3999 112.114 11.5076 112.576 11.4918C112.836 11.4935 113.095 11.4639 113.347 11.4036C113.628 11.3273 113.895 11.2076 114.138 11.0487C114.193 11.0028 114.262 10.9775 114.333 10.9773C114.373 10.9763 114.411 10.9857 114.446 11.0045C114.48 11.0234 114.509 11.0509 114.529 11.0845L115.558 12.0967C115.584 12.1186 115.605 12.1455 115.62 12.1758C115.635 12.2061 115.644 12.2392 115.646 12.273C115.633 12.3575 115.589 12.4341 115.522 12.4873C115.096 12.9009 114.597 13.232 114.05 13.4638C113.5 13.6986 112.907 13.8193 112.309 13.8187C111.459 13.8339 110.621 13.6253 109.877 13.2138C109.186 12.8294 108.615 12.2615 108.227 11.5727C107.842 10.8626 107.641 10.0677 107.641 9.26005C107.641 8.45242 107.842 7.65754 108.227 6.94737C108.601 6.26571 109.151 5.69666 109.82 5.2992C110.501 4.89418 111.281 4.68485 112.073 4.69423C112.829 4.6756 113.575 4.87297 114.223 5.26318C114.871 5.6534 115.394 6.22028 115.732 6.89735C116.079 7.59107 116.256 8.35794 116.246 9.13382C116.263 9.43129 116.217 9.72899 116.113 10.0079ZM111.07 7.46183C110.763 7.70799 110.558 8.05926 110.494 8.44787H113.636C113.584 8.06521 113.394 7.71461 113.102 7.46183C112.817 7.23694 112.462 7.12046 112.099 7.13314C111.729 7.12549 111.367 7.24112 111.07 7.46183Z" fill="white"/>
<path d="M40.9469 3.7868C41.9032 3.7868 42.6784 3.01156 42.6784 2.05526C42.6784 1.09896 41.9032 0.32373 40.9469 0.32373C39.9906 0.32373 39.2153 1.09896 39.2153 2.05526C39.2153 3.01156 39.9906 3.7868 40.9469 3.7868Z" fill="white"/>
<path d="M117.775 13.5591C117.632 13.422 117.541 13.2395 117.518 13.0429C117.495 12.8462 117.541 12.6476 117.647 12.4809C117.754 12.3142 117.916 12.1897 118.104 12.1288C118.293 12.0678 118.496 12.0742 118.68 12.1467C118.865 12.2193 119.018 12.3535 119.114 12.5265C119.211 12.6996 119.244 12.9006 119.208 13.0955C119.173 13.2903 119.071 13.4667 118.92 13.5947C118.769 13.7227 118.578 13.7943 118.38 13.7973C118.268 13.801 118.157 13.7817 118.053 13.7408C117.949 13.6998 117.854 13.638 117.775 13.5591Z" fill="white"/>
<path d="M126.169 12.3087C126.561 12.0882 126.92 11.8131 127.236 11.4918C127.285 11.4332 127.355 11.3957 127.431 11.387C127.507 11.3964 127.577 11.4337 127.626 11.4918L128.069 11.9014C128.097 11.9262 128.119 11.9563 128.134 11.9899C128.149 12.0235 128.157 12.0599 128.157 12.0967C128.158 12.1294 128.152 12.162 128.14 12.1923C128.128 12.2226 128.109 12.2501 128.086 12.273C127.672 12.7462 127.164 13.1289 126.595 13.3972C126.007 13.6751 125.364 13.8152 124.713 13.8068C123.933 13.8159 123.164 13.6104 122.492 13.2126C121.82 12.8149 121.27 12.2402 120.903 11.5513C120.53 10.839 120.336 10.0471 120.336 9.24339C120.336 8.43963 120.53 7.64781 120.903 6.93547C121.27 6.24649 121.82 5.67185 122.492 5.27445C123.164 4.87705 123.933 4.6722 124.713 4.68233C125.349 4.67629 125.978 4.81559 126.552 5.08961C127.118 5.36414 127.622 5.75064 128.034 6.22571C128.057 6.24888 128.076 6.27673 128.088 6.30749C128.101 6.33825 128.106 6.37123 128.105 6.40434C128.102 6.47847 128.071 6.54858 128.017 6.59965L127.581 7.00931C127.556 7.03659 127.526 7.05848 127.493 7.07364C127.459 7.0888 127.423 7.0969 127.386 7.09743C127.314 7.08747 127.246 7.05687 127.19 7.00931C127.143 6.97358 127 6.84258 126.757 6.6187C126.498 6.3847 126.197 6.20346 125.869 6.08519C125.501 5.95275 125.113 5.88662 124.723 5.88988C124.163 5.88129 123.612 6.03248 123.134 6.32574C122.664 6.62009 122.284 7.03775 122.034 7.53329C121.771 8.06622 121.634 8.6526 121.634 9.24696C121.634 9.84133 121.771 10.4277 122.034 10.9606C122.283 11.4559 122.664 11.873 123.134 12.1658C123.612 12.4591 124.163 12.6103 124.723 12.6017C125.222 12.6246 125.718 12.524 126.169 12.3087Z" fill="white"/>
<path d="M131.392 13.2043C130.722 12.8084 130.173 12.2378 129.803 11.5537C129.425 10.8433 129.227 10.0507 129.227 9.24579C129.227 8.44087 129.425 7.64829 129.803 6.93788C130.178 6.2511 130.731 5.678 131.404 5.27874C132.077 4.87948 132.845 4.66879 133.628 4.66879C134.411 4.66879 135.179 4.87948 135.852 5.27874C136.525 5.678 137.078 6.2511 137.453 6.93788C137.833 7.64784 138.032 8.44059 138.032 9.24579C138.032 10.051 137.833 10.8437 137.453 11.5537C137.168 12.0651 136.784 12.5144 136.324 12.8752C135.863 13.236 135.334 13.5011 134.77 13.6549C134.205 13.8086 133.615 13.848 133.035 13.7706C132.455 13.6932 131.896 13.5007 131.392 13.2043ZM135.217 12.1658C135.695 11.8798 136.086 11.4678 136.346 10.9749C136.613 10.4404 136.753 9.8508 136.753 9.25294C136.753 8.65508 136.613 8.06546 136.346 7.53093C136.084 7.03896 135.694 6.62732 135.217 6.34006C134.736 6.05474 134.187 5.90418 133.628 5.90418C133.069 5.90418 132.52 6.05474 132.039 6.34006C131.563 6.62747 131.173 7.03913 130.913 7.53093C130.644 8.06502 130.503 8.65481 130.503 9.25294C130.503 9.85107 130.644 10.4409 130.913 10.9749C131.171 11.4707 131.562 11.8855 132.041 12.1738C132.52 12.4621 133.069 12.6126 133.628 12.6088C134.188 12.612 134.737 12.4585 135.214 12.1658H135.217Z" fill="white"/>
<path d="M139.054 13.5591C138.911 13.422 138.82 13.2395 138.797 13.0429C138.774 12.8462 138.819 12.6476 138.926 12.4809C139.033 12.3142 139.195 12.1897 139.383 12.1288C139.571 12.0678 139.775 12.0742 139.959 12.1467C140.144 12.2193 140.297 12.3535 140.393 12.5265C140.49 12.6996 140.523 12.9006 140.487 13.0955C140.452 13.2903 140.35 13.4667 140.199 13.5947C140.048 13.7227 139.857 13.7943 139.659 13.7973C139.547 13.801 139.436 13.7817 139.332 13.7408C139.228 13.6998 139.133 13.638 139.054 13.5591Z" fill="white"/>
<path d="M149.236 4.94906C149.283 5.00274 149.308 5.07276 149.305 5.14436V13.3114C149.308 13.3831 149.284 13.4533 149.236 13.5067C149.21 13.5311 149.179 13.55 149.145 13.5622C149.112 13.5745 149.076 13.5799 149.04 13.5781H148.302C148.147 13.5781 148.064 13.49 148.035 13.3114L147.964 12.2467C147.656 12.7094 147.25 13.0976 146.773 13.3828C146.29 13.6692 145.737 13.8167 145.175 13.8092C144.159 13.8092 143.369 13.513 142.805 12.9208C142.241 12.3285 141.96 11.4552 141.962 10.3009V5.14436C141.96 5.10868 141.965 5.07301 141.978 5.03946C141.99 5.00591 142.009 4.97517 142.033 4.94906C142.087 4.90113 142.157 4.87629 142.229 4.87999H143.026C143.098 4.87629 143.168 4.90113 143.222 4.94906C143.246 4.97517 143.265 5.00591 143.277 5.03946C143.29 5.07301 143.295 5.10868 143.293 5.14436V10.2223C143.293 10.9924 143.477 11.587 143.843 12.0062C144.034 12.2192 144.27 12.3866 144.535 12.4958C144.799 12.6051 145.085 12.6535 145.37 12.6374C145.848 12.6455 146.318 12.5094 146.718 12.2467C147.086 12.0116 147.398 11.6996 147.633 11.3322C147.814 11.0848 147.928 10.794 147.961 10.489V5.14436C147.96 5.10868 147.965 5.07301 147.977 5.03946C147.99 5.00591 148.008 4.97517 148.033 4.94906C148.086 4.90113 148.156 4.87629 148.228 4.87999H149.028C149.066 4.87681 149.104 4.8813 149.139 4.89318C149.175 4.90505 149.208 4.92407 149.236 4.94906Z" fill="white"/>
<path d="M158.822 13.4186C158.823 13.4414 158.817 13.4638 158.806 13.4838C158.795 13.5038 158.78 13.5207 158.76 13.5329C158.71 13.5658 158.651 13.5816 158.591 13.5782H157.703C157.64 13.5819 157.578 13.5691 157.522 13.5411C157.466 13.5131 157.418 13.4708 157.384 13.4186L154.223 9.38868L152.589 11.0916V13.3114C152.593 13.3831 152.568 13.4533 152.52 13.5067C152.494 13.5311 152.463 13.55 152.43 13.5623C152.396 13.5745 152.361 13.58 152.325 13.5782H151.525C151.488 13.5829 151.452 13.5792 151.417 13.5674C151.383 13.5557 151.351 13.5362 151.326 13.5104C151.3 13.4846 151.28 13.4533 151.269 13.4188C151.257 13.3843 151.253 13.3476 151.258 13.3114V0.883438C151.256 0.847758 151.261 0.812086 151.274 0.778537C151.286 0.744988 151.305 0.714245 151.329 0.688134C151.383 0.640205 151.453 0.615371 151.525 0.619063H152.325C152.361 0.614859 152.397 0.618805 152.431 0.630605C152.465 0.642404 152.496 0.661751 152.521 0.687192C152.547 0.712633 152.566 0.743507 152.578 0.777496C152.589 0.811485 152.593 0.847705 152.589 0.883438V9.53158L156.876 5.02054C156.918 4.97338 156.97 4.93625 157.028 4.91192C157.086 4.88759 157.149 4.87669 157.212 4.88002H158.12C158.272 4.88002 158.358 4.92527 158.358 5.02054C158.344 5.08674 158.314 5.14831 158.27 5.19917L155.04 8.55506L158.751 13.259C158.773 13.2793 158.791 13.3039 158.803 13.3314C158.815 13.3588 158.822 13.3885 158.822 13.4186Z" fill="white"/>
<path d="M6.58794 5.29923C7.23158 5.70144 7.75552 6.26897 8.10512 6.94264C8.46682 7.6548 8.65534 8.44228 8.65534 9.24103C8.65534 10.0398 8.46682 10.8273 8.10512 11.5394C7.75622 12.2148 7.23222 12.7841 6.58794 13.1876C5.92935 13.594 5.16811 13.8031 4.39435 13.7902C3.78697 13.8004 3.18646 13.6605 2.64614 13.3829C2.1259 13.1071 1.67355 12.7191 1.32189 12.2468L1.25282 13.3114C1.229 13.4901 1.13849 13.5782 0.986059 13.5782H0.26677C0.23063 13.5829 0.1939 13.5792 0.159406 13.5674C0.124912 13.5557 0.0935746 13.5362 0.0678068 13.5104C0.042039 13.4846 0.0225274 13.4533 0.0107743 13.4188C-0.000978792 13.3843 -0.00465979 13.3476 1.41289e-05 13.3114V0.883459C-0.00176019 0.84778 0.00364997 0.812107 0.015924 0.778558C0.0281981 0.745009 0.0470858 0.714267 0.0714665 0.688156C0.0974193 0.663546 0.128137 0.64451 0.161725 0.632222C0.195314 0.619933 0.231063 0.614652 0.26677 0.616703H1.06704C1.10272 0.614929 1.13839 0.620339 1.17194 0.632613C1.20549 0.644887 1.23623 0.663775 1.26234 0.688156C1.30983 0.741835 1.33459 0.811864 1.33141 0.883459V6.26384C1.67661 5.78675 2.12631 5.3949 2.64614 5.11822C3.18818 4.83501 3.79239 4.69173 4.40387 4.70141C5.17394 4.68891 5.93159 4.89629 6.58794 5.29923ZM5.87342 12.1491C6.34745 11.8572 6.73092 11.4391 6.98093 10.9416C7.25129 10.4117 7.38862 9.82396 7.38106 9.22912C7.39028 8.63943 7.25278 8.05669 6.98093 7.53331C6.72709 7.0429 6.34414 6.63113 5.87342 6.34244C5.39707 6.05311 4.84923 5.90294 4.29193 5.90896C3.73559 5.90193 3.18956 6.05936 2.72236 6.36149C2.25549 6.66064 1.87526 7.07701 1.61961 7.56904C1.35122 8.08335 1.21455 8.65618 1.22185 9.23627C1.21898 9.81584 1.35539 10.3876 1.61961 10.9035C1.87144 11.4026 2.25218 11.8253 2.72236 12.1277C3.18956 12.4298 3.73559 12.5873 4.29193 12.5802C4.84914 12.5881 5.39728 12.4387 5.87342 12.1491Z" fill="white"/>
<path d="M16.0839 5.26823C16.6918 5.64822 17.1856 6.18564 17.5129 6.82352C17.8508 7.46591 18.0251 8.18173 18.0202 8.90755C18.0342 9.13966 18.0009 9.37219 17.9226 9.59111C17.8815 9.66298 17.8199 9.72089 17.7456 9.7574C17.6713 9.79391 17.5878 9.80733 17.5058 9.79594H10.9964C11.0546 10.6003 11.4254 11.3499 12.0296 11.8842C12.6337 12.4184 13.423 12.6948 14.2285 12.654C15.1017 12.6637 15.9485 12.3546 16.6102 11.7847C16.6364 11.7534 16.6687 11.7277 16.7052 11.7093C16.7416 11.6908 16.7814 11.68 16.8222 11.6775C16.8523 11.6778 16.882 11.6844 16.9094 11.6966C16.9369 11.7089 16.9615 11.7268 16.9818 11.749L17.32 12.0681C17.386 12.1221 17.43 12.1983 17.4438 12.2825C17.435 12.3591 17.3965 12.4292 17.3367 12.4778C16.9227 12.9024 16.4257 13.2373 15.8767 13.4615C15.3078 13.6951 14.6982 13.8134 14.0832 13.8092C13.2813 13.8223 12.4915 13.6128 11.8015 13.2042C11.1404 12.8103 10.6 12.2428 10.239 11.5632C9.86323 10.8493 9.67243 10.0525 9.6841 9.24576C9.67488 8.44376 9.86127 7.65159 10.2271 6.93784C10.5729 6.25099 11.1049 5.67526 11.7623 5.27641C12.4198 4.87756 13.1762 4.67169 13.9451 4.68232C14.6994 4.66893 15.4417 4.87228 16.0839 5.26823ZM11.9277 6.67109C11.3768 7.23819 11.04 7.97907 10.975 8.76703H16.8508C16.8329 8.24614 16.6899 7.73721 16.434 7.2832C16.1848 6.84261 15.8215 6.47734 15.3822 6.22585C14.9429 5.97436 14.444 5.84596 13.9379 5.85415C13.5648 5.84537 13.1938 5.91335 12.848 6.05388C12.5022 6.19441 12.189 6.40449 11.9277 6.67109Z" fill="white"/>
</g>
<defs>
<clipPath id="clip0_703_34672">
<rect width="158.82" height="13.5022" fill="white" transform="translate(0 0.323792)"/>
</clipPath>
</defs>
</svg>
