<svg width="151" height="20" viewBox="0 0 151 20" fill="none" xmlns="http://www.w3.org/2000/svg">
<g clip-path="url(#clip0_1723_11911)">
<path d="M150.5 0.465759H146.924L138.942 10.0064L146.924 19.5503H150.5L142.518 10.0064L150.5 0.465759Z" fill="#CBDB2A"/>
<path d="M146.924 0.46582H0.5V19.5503H146.924L138.942 10.0064L146.924 0.46582Z" fill="#00ACCD"/>
<path d="M11.5789 15.7138H10.3631L5.7998 4.36737H7.75552L10.3631 11.1276C10.6206 11.7795 10.8455 12.4314 11.0672 13.0442H11.0998C11.2888 12.4445 11.5105 11.848 11.8006 11.1635L14.6429 4.36737H16.491L11.5789 15.7138Z" fill="white"/>
<path d="M19.8159 5.03563C19.8211 5.26208 19.7585 5.48492 19.6363 5.6756C19.514 5.86629 19.3377 6.01614 19.1297 6.10597C18.9218 6.19579 18.6918 6.2215 18.4691 6.1798C18.2465 6.1381 18.0414 6.03088 17.8801 5.87189C17.7188 5.7129 17.6086 5.50937 17.5636 5.28736C17.5187 5.06536 17.541 4.835 17.6278 4.62579C17.7146 4.41657 17.8619 4.23802 18.0508 4.11302C18.2397 3.98802 18.4616 3.92225 18.6881 3.92414C18.8358 3.92064 18.9826 3.94687 19.12 4.00128C19.2573 4.05569 19.3823 4.13717 19.4875 4.24086C19.5928 4.34456 19.676 4.46836 19.7324 4.60489C19.7888 4.74143 19.8172 4.88791 19.8159 5.03563ZM17.7982 15.6454V7.55199H19.5779V15.6454H17.7982Z" fill="white"/>
<path d="M23.6686 15.8181C22.6819 15.8565 21.7054 15.6061 20.8589 15.0978L21.4586 13.794C22.0871 14.2139 22.8248 14.4405 23.5806 14.4459C24.4704 14.4459 25.0702 14.0873 25.0702 13.468C25.0702 11.8382 21.3576 12.4575 21.3576 9.6511C21.3576 8.34729 22.3843 7.3401 24.2912 7.3401C25.0624 7.33204 25.8273 7.47948 26.5402 7.77361V9.27951C25.855 8.95456 25.1081 8.78007 24.3498 8.76777C23.6132 8.76777 23.0819 9.00571 23.0819 9.56961C23.0819 11.0266 26.8629 10.5996 26.8629 13.3344C26.8662 15.1141 25.3603 15.8181 23.6686 15.8181Z" fill="white"/>
<path d="M30.4257 5.03563C30.4309 5.26194 30.3685 5.48465 30.2464 5.67526C30.1243 5.86588 29.9481 6.01574 29.7403 6.10566C29.5326 6.19558 29.3028 6.22148 29.0802 6.18005C28.8577 6.13861 28.6526 6.03173 28.4911 5.87306C28.3297 5.7144 28.2192 5.51118 28.1739 5.28939C28.1286 5.06761 28.1505 4.83735 28.2368 4.62807C28.323 4.4188 28.4698 4.24002 28.6583 4.11462C28.8467 3.98922 29.0683 3.9229 29.2947 3.92414C29.4425 3.92064 29.5895 3.94686 29.7271 4.00124C29.8646 4.05561 29.9898 4.13703 30.0953 4.24068C30.2007 4.34433 30.2843 4.4681 30.3411 4.60465C30.3979 4.7412 30.4266 4.88776 30.4257 5.03563ZM28.4048 15.6454V7.55199H30.1845V15.6454H28.4048Z" fill="white"/>
<path d="M34.7121 15.8181C33.3789 15.8181 32.8118 15.0488 32.8118 13.9862V8.93723H31.4102V7.55194H32.8118V5.72009L34.5914 5.17249V7.55194H37.1078L36.5439 8.93723H34.5882V13.3539C34.5882 13.9862 34.8457 14.2959 35.377 14.2959C35.8717 14.2644 36.3469 14.0913 36.746 13.7972L37.2414 14.9608C36.504 15.495 35.6223 15.7938 34.7121 15.8181Z" fill="white"/>
<path d="M46.557 15.8181C44.1776 15.8181 42.2251 14.4295 42.2251 11.6752C42.2251 9.15887 44.0928 7.34658 46.6092 7.34658C46.9873 7.34788 47.3646 7.38168 47.737 7.44762V3.53619H49.5167V15.189C48.5959 15.6361 47.58 15.852 46.557 15.8181ZM47.7272 8.95352C47.3837 8.8512 47.026 8.80498 46.6678 8.81662C45.1619 8.81662 43.9983 9.86293 43.9983 11.5742C43.9983 13.1648 44.9761 14.3285 46.7363 14.3285C47.0681 14.3272 47.3978 14.2755 47.7141 14.1753L47.7272 8.95352Z" fill="white"/>
<path d="M55.7194 9.22736C55.4394 9.08219 55.1287 9.00619 54.8133 9.00571C54.1922 9.07408 53.6152 9.35915 53.1835 9.81082V15.6454H51.4038V7.55197H52.8934L53.1151 8.44182C54.0212 7.60412 54.6536 7.34662 55.3739 7.34662C55.7379 7.3522 56.0932 7.45823 56.4007 7.65301L55.7194 9.22736Z" fill="white"/>
<path d="M59.4615 5.03563C59.4673 5.26284 59.4051 5.48662 59.2829 5.67826C59.1608 5.8699 58.9841 6.02068 58.7757 6.11126C58.5672 6.20183 58.3364 6.22808 58.113 6.18663C57.8895 6.14519 57.6835 6.03793 57.5214 5.87862C57.3593 5.71932 57.2484 5.51522 57.2031 5.29251C57.1578 5.06979 57.18 4.83861 57.2669 4.6286C57.3538 4.4186 57.5015 4.23935 57.691 4.11383C57.8805 3.98832 58.1031 3.92226 58.3304 3.92414C58.4782 3.92064 58.6253 3.94686 58.7628 4.00124C58.9003 4.05561 59.0255 4.13703 59.131 4.24068C59.2365 4.34433 59.3201 4.4681 59.3768 4.60465C59.4336 4.7412 59.4624 4.88776 59.4615 5.03563ZM57.4406 15.6454V7.55199H59.2203V15.6454H57.4406Z" fill="white"/>
<path d="M66.5084 15.6454V10.8017C66.5084 9.93142 66.3389 8.93727 65.2437 8.93727C64.4386 8.93727 63.6694 9.41641 63.0338 9.91512V15.6486H61.2573V7.55197H62.7437L62.949 8.45811C63.8552 7.77361 64.7124 7.34662 65.8239 7.34662C67.0234 7.34662 68.2914 8.13216 68.2914 10.2378V15.6454H66.5084Z" fill="white"/>
<path d="M75.0486 15.6453L71.9684 11.7339H71.9521V15.6453H70.1724V3.52966H71.9521V10.3486H71.9684L74.6901 7.55843H76.8283L73.4221 10.9809L77.1901 15.6518L75.0486 15.6453Z" fill="white"/>
<path d="M82.8325 15.6453L82.4903 14.8924C81.8456 15.5057 80.9841 15.8385 80.0945 15.8181C79.755 15.8339 79.4159 15.7795 79.0984 15.6583C78.7809 15.5371 78.4918 15.3517 78.2492 15.1137C78.0066 14.8757 77.8157 14.5902 77.6885 14.275C77.5612 13.9599 77.5004 13.6219 77.5097 13.2822C77.5097 11.6231 78.7581 10.7006 80.8638 10.6159L82.3697 10.5637V10.3225C82.3697 9.19472 81.6526 8.78402 80.7399 8.78402C79.9895 8.78502 79.2568 9.01221 78.6375 9.43593L78.041 8.26902C78.9353 7.63748 80.0107 7.31373 81.105 7.34657C82.9531 7.34657 84.1689 8.11582 84.1689 10.2215V13.1811C84.1689 14.7229 84.2015 15.3194 84.3221 15.6453H82.8325ZM82.3534 11.8643L81.0496 11.9164C79.8338 11.949 79.3025 12.376 79.3025 13.129C79.3025 13.8819 79.7816 14.3806 80.7073 14.3806C81.3245 14.3896 81.9204 14.1555 82.3664 13.7287L82.3534 11.8643Z" fill="white"/>
<path d="M94.3775 15.6975H92.9759L91.0919 9.83031H91.0397L89.159 15.6975H87.7541L84.8955 7.54865H86.7111L88.5266 13.331H88.5755L90.4269 7.5519H91.8481L93.7321 13.3539H93.7647L95.5639 7.5519H97.2719L94.3775 15.6975Z" fill="white"/>
<path d="M103.087 15.6454L102.761 14.8924C102.117 15.5057 101.255 15.8386 100.365 15.8181C100.025 15.8363 99.6841 15.7836 99.3648 15.6634C99.0455 15.5432 98.7546 15.3581 98.5105 15.1198C98.2664 14.8815 98.0743 14.5952 97.9464 14.2789C97.8186 13.9626 97.7577 13.6232 97.7677 13.2822C97.7677 11.6231 99.0161 10.7007 101.122 10.6159L102.628 10.5638V10.3226C102.628 9.19476 101.907 8.78406 100.998 8.78406C100.246 8.78461 99.5125 9.0118 98.8922 9.43596L98.2924 8.28861C99.1867 7.65707 100.262 7.33333 101.356 7.36616C103.205 7.36616 104.42 8.13541 104.42 10.2411V13.2007C104.42 14.7425 104.453 15.339 104.574 15.6649L103.087 15.6454ZM102.608 11.8643L101.304 11.9165C100.088 11.9491 99.5571 12.3761 99.5571 13.129C99.5571 13.882 100.036 14.3807 100.962 14.3807C101.579 14.3897 102.175 14.1555 102.621 13.7288L102.608 11.8643Z" fill="white"/>
<path d="M110.604 9.22736C110.324 9.08219 110.013 9.00619 109.698 9.00571C109.077 9.07408 108.499 9.35915 108.068 9.81082V15.6454H106.288V7.55197H107.778L107.999 8.44182C108.905 7.60412 109.541 7.34662 110.258 7.34662C110.622 7.3522 110.977 7.45823 111.285 7.65301L110.604 9.22736Z" fill="white"/>
<path d="M113.325 12.0175C113.342 13.3539 114.303 14.3448 115.757 14.3448C116.478 14.3402 117.185 14.1458 117.807 13.7809L118.27 14.9446C117.439 15.5151 116.455 15.8198 115.447 15.8181C112.726 15.8181 111.51 13.7451 111.51 11.5384C111.51 9.22736 112.862 7.34662 115.053 7.34662C117.243 7.34662 118.544 9.00572 118.544 11.5221V12.0175H113.325ZM115.004 8.71888C113.941 8.71888 113.309 9.67718 113.309 10.6746H116.679C116.663 9.75867 116.132 8.71888 115.004 8.71888Z" fill="white"/>
<path d="M120.861 15.867C120.635 15.8715 120.414 15.8089 120.224 15.6869C120.034 15.565 119.884 15.3893 119.795 15.1823C119.705 14.9753 119.679 14.7462 119.719 14.5242C119.76 14.3023 119.866 14.0974 120.023 13.9358C120.181 13.7742 120.383 13.663 120.604 13.6165C120.825 13.57 121.054 13.5902 121.264 13.6746C121.473 13.759 121.652 13.9037 121.779 14.0904C121.906 14.2771 121.974 14.4973 121.976 14.7229C121.982 14.8722 121.957 15.0212 121.903 15.1606C121.85 15.3001 121.768 15.4272 121.664 15.5342C121.56 15.6413 121.435 15.7259 121.297 15.7832C121.159 15.8404 121.01 15.8689 120.861 15.867Z" fill="white"/>
<path d="M125.776 5.03562C125.782 5.2622 125.719 5.48517 125.596 5.67593C125.474 5.86668 125.298 6.01653 125.089 6.10626C124.881 6.19598 124.651 6.2215 124.428 6.17953C124.206 6.13756 124.001 6.03001 123.839 5.87069C123.678 5.71137 123.568 5.50753 123.524 5.28531C123.479 5.0631 123.502 4.83263 123.589 4.62348C123.677 4.41432 123.824 4.23601 124.014 4.11141C124.203 3.9868 124.425 3.92159 124.652 3.92413C124.799 3.92107 124.946 3.94763 125.083 4.00224C125.22 4.05685 125.344 4.1384 125.449 4.24205C125.554 4.3457 125.637 4.46934 125.693 4.60566C125.749 4.74197 125.778 4.88818 125.776 5.03562ZM123.755 15.6454V7.55197H125.535V15.6454H123.755Z" fill="white"/>
<path d="M128.954 12.0175C128.971 13.3539 129.932 14.3448 131.386 14.3448C132.102 14.3374 132.803 14.143 133.42 13.7809L133.883 14.9446C133.052 15.5151 132.068 15.8198 131.06 15.8181C128.338 15.8181 127.123 13.7451 127.123 11.5384C127.123 9.22736 128.475 7.34662 130.666 7.34662C132.856 7.34662 134.157 9.00572 134.157 11.5221V12.0175H128.954ZM130.633 8.71888C129.57 8.71888 128.938 9.67718 128.938 10.6746H132.308C132.292 9.75867 131.761 8.71888 130.633 8.71888Z" fill="white"/>
</g>
<defs>
<clipPath id="clip0_1723_11911">
<rect width="150" height="19.0845" fill="white" transform="translate(0.5 0.46582)"/>
</clipPath>
</defs>
</svg>
