<svg width="35" height="35" viewBox="0 0 35 35" fill="none" xmlns="http://www.w3.org/2000/svg">
<g clip-path="url(#clip0_760_14093)">
<path d="M17.3093 0.193359C12.6614 0.193359 12.077 0.214768 10.2508 0.296123C8.42459 0.381759 7.18073 0.668639 6.09101 1.09254C4.94797 1.52247 3.91263 2.19687 3.05736 3.06859C2.18617 3.9243 1.51186 4.95952 1.08131 6.10224C0.657409 7.18982 0.368387 8.43582 0.284892 10.2556C0.203538 12.0861 0.182129 12.6684 0.182129 17.3227C0.182129 21.9727 0.203538 22.5551 0.284892 24.3812C0.370528 26.2053 0.657409 27.4492 1.08131 28.5389C1.52019 29.665 2.10466 30.6198 3.05736 31.5725C4.00792 32.5252 4.96276 33.1118 6.08887 33.5486C7.18073 33.9725 8.42245 34.2615 10.2465 34.345C12.0748 34.4263 12.6572 34.4478 17.3093 34.4478C21.9615 34.4478 22.5417 34.4263 24.37 34.345C26.1919 34.2594 27.4401 33.9725 28.5298 33.5486C29.6721 33.1184 30.7067 32.444 31.5613 31.5725C32.514 30.6198 33.0985 29.665 33.5373 28.5389C33.9591 27.4492 34.2481 26.2053 34.3338 24.3812C34.4151 22.5551 34.4365 21.9727 34.4365 17.3206C34.4365 12.6684 34.4151 12.0861 34.3338 10.2577C34.2481 8.43582 33.9591 7.18982 33.5373 6.10224C33.1069 4.95948 32.4325 3.92425 31.5613 3.06859C30.7063 2.19655 29.6709 1.5221 28.5276 1.09254C27.4358 0.668639 26.1898 0.379618 24.3679 0.296123C22.5395 0.214768 21.9594 0.193359 17.305 0.193359H17.3115H17.3093ZM15.7743 3.28054H17.3115C21.8844 3.28054 22.4261 3.29552 24.2309 3.37902C25.9008 3.45395 26.8085 3.73441 27.4122 3.96777C28.2108 4.2782 28.7824 4.65071 29.3819 5.25016C29.9813 5.84962 30.3517 6.4191 30.6621 7.21979C30.8976 7.82138 31.1759 8.72913 31.2509 10.399C31.3344 12.2038 31.3515 12.7455 31.3515 17.3163C31.3515 21.8871 31.3344 22.4309 31.2509 24.2357C31.1759 25.9056 30.8955 26.8112 30.6621 27.4149C30.3875 28.1586 29.9493 28.831 29.3797 29.3824C28.7803 29.9818 28.2108 30.3522 27.4101 30.6626C26.8106 30.8981 25.9029 31.1765 24.2309 31.2535C22.4261 31.3349 21.8844 31.3542 17.3115 31.3542C12.7385 31.3542 12.1947 31.3349 10.3899 31.2535C8.72004 31.1765 7.81444 30.8981 7.2107 30.6626C6.46674 30.3884 5.7937 29.951 5.24107 29.3824C4.67106 28.8301 4.23212 28.1571 3.95654 27.4128C3.72318 26.8112 3.44272 25.9034 3.36779 24.2335C3.28643 22.4287 3.26931 21.8871 3.26931 17.312C3.26931 12.739 3.28643 12.1995 3.36779 10.3947C3.44486 8.72484 3.72318 7.8171 3.95868 7.21337C4.26911 6.41481 4.64162 5.84319 5.24107 5.24374C5.84053 4.64429 6.41001 4.27391 7.2107 3.96348C7.81444 3.72798 8.72004 3.44967 10.3899 3.3726C11.9699 3.2998 12.5822 3.2784 15.7743 3.27625V3.28054ZM26.4531 6.12365C26.1832 6.12365 25.9159 6.17681 25.6666 6.2801C25.4172 6.38339 25.1907 6.53478 24.9998 6.72562C24.809 6.91647 24.6576 7.14304 24.5543 7.3924C24.451 7.64176 24.3978 7.90901 24.3978 8.17892C24.3978 8.44882 24.451 8.71607 24.5543 8.96543C24.6576 9.21479 24.809 9.44136 24.9998 9.63221C25.1907 9.82306 25.4172 9.97444 25.6666 10.0777C25.9159 10.181 26.1832 10.2342 26.4531 10.2342C26.9982 10.2342 27.521 10.0176 27.9064 9.63221C28.2918 9.24677 28.5084 8.724 28.5084 8.17892C28.5084 7.63383 28.2918 7.11106 27.9064 6.72562C27.521 6.34019 26.9982 6.12365 26.4531 6.12365ZM17.3115 8.52574C16.1448 8.50754 14.9862 8.7216 13.9031 9.15547C12.82 9.58933 11.834 10.2343 11.0026 11.0529C10.1711 11.8715 9.51081 12.8473 9.0601 13.9235C8.60939 14.9997 8.37728 16.1548 8.37728 17.3216C8.37728 18.4884 8.60939 19.6435 9.0601 20.7197C9.51081 21.796 10.1711 22.7718 11.0026 23.5903C11.834 24.4089 12.82 25.0539 13.9031 25.4878C14.9862 25.9216 16.1448 26.1357 17.3115 26.1175C19.6205 26.0815 21.8228 25.1389 23.443 23.4933C25.0631 21.8477 25.9712 19.631 25.9712 17.3216C25.9712 15.0123 25.0631 12.7956 23.443 11.1499C21.8228 9.50432 19.6205 8.56177 17.3115 8.52574ZM17.3115 11.6108C18.8258 11.6108 20.2781 12.2123 21.3489 13.2831C22.4197 14.3539 23.0212 15.8062 23.0212 17.3206C23.0212 18.8349 22.4197 20.2872 21.3489 21.358C20.2781 22.4288 18.8258 23.0303 17.3115 23.0303C15.7971 23.0303 14.3448 22.4288 13.274 21.358C12.2033 20.2872 11.6017 18.8349 11.6017 17.3206C11.6017 15.8062 12.2033 14.3539 13.274 13.2831C14.3448 12.2123 15.7971 11.6108 17.3115 11.6108Z" fill="#D9C786"/>
</g>
<defs>
<clipPath id="clip0_760_14093">
<rect width="34.2544" height="34.2544" fill="white" transform="translate(0.182129 0.193359)"/>
</clipPath>
</defs>
</svg>
