<svg width="72" height="72" viewBox="0 0 72 72" fill="none" xmlns="http://www.w3.org/2000/svg">
<path d="M72 36C72 55.8823 55.8823 72 36 72C16.1177 72 0 55.8823 0 36C0 16.1177 16.1177 0 36 0C55.8823 0 72 16.1177 72 36Z" fill="#D9C786"/>
<g opacity="0.5">
<path fill-rule="evenodd" clip-rule="evenodd" d="M36.4218 15.3686C38.9016 15.3686 40.9118 17.3789 40.9118 19.8586V31.696H31.9317V19.8586C31.9317 17.3789 33.942 15.3686 36.4218 15.3686ZM31.9317 33.1927V37.8188C31.9317 40.2986 33.942 42.3088 36.4218 42.3088C38.9016 42.3088 40.9118 40.2986 40.9118 37.8188V33.1927H31.9317Z" fill="#545454"/>
<path d="M31.9317 54.2823H40.9118" stroke="#545454" stroke-width="2.30471" stroke-miterlimit="10"/>
<path d="M28.37 33.3288V37.3548C28.37 37.3548 28.37 45.402 36.4221 45.402C44.4743 45.402 44.4743 37.3548 44.4743 37.3548V33.3288" stroke="#545454" stroke-width="2.30471" stroke-miterlimit="10"/>
<path d="M36.4215 45.3022V54.2823" stroke="#545454" stroke-width="2.30471" stroke-miterlimit="10"/>
</g>
<g opacity="0.3">
<path d="M20.1006 52.1381L51.8994 21.8619" stroke="#313131" stroke-width="2"/>
<path d="M21.4751 20.5385L50.5248 53.4615" stroke="#313131" stroke-width="2"/>
</g>
</svg>
