<svg width="21" height="21" viewBox="0 0 21 21" fill="none" xmlns="http://www.w3.org/2000/svg">
<g clip-path="url(#clip0_2001_1139)">
<path d="M15.5204 12.9877C16.7308 11.3361 17.2729 9.28836 17.0383 7.25418C16.8037 5.22 15.8097 3.34942 14.2551 2.01666C12.7006 0.683894 10.7001 -0.0127527 8.65396 0.0660887C6.60782 0.14493 4.6669 0.993446 3.2195 2.44188C1.77211 3.89031 0.924982 5.83184 0.847605 7.87804C0.770228 9.92423 1.46831 11.9242 2.80218 13.4778C4.13605 15.0314 6.00735 16.0241 8.04169 16.2572C10.076 16.4904 12.1234 15.9468 13.7742 14.7352H13.7729C13.8104 14.7852 13.8504 14.8327 13.8954 14.879L18.7079 19.6915C18.9423 19.926 19.2603 20.0579 19.5919 20.058C19.9234 20.0581 20.2415 19.9265 20.476 19.6921C20.7106 19.4577 20.8424 19.1398 20.8425 18.8082C20.8427 18.4766 20.7111 18.1585 20.4767 17.924L15.6642 13.1115C15.6195 13.0663 15.5714 13.0245 15.5204 12.9865V12.9877ZM15.8429 8.18274C15.8429 9.08558 15.6651 9.97958 15.3196 10.8137C14.9741 11.6478 14.4677 12.4057 13.8293 13.0441C13.1909 13.6825 12.433 14.1889 11.5989 14.5344C10.7648 14.8799 9.87076 15.0577 8.96792 15.0577C8.06508 15.0577 7.17108 14.8799 6.33697 14.5344C5.50286 14.1889 4.74496 13.6825 4.10656 13.0441C3.46816 12.4057 2.96175 11.6478 2.61625 10.8137C2.27075 9.97958 2.09292 9.08558 2.09292 8.18274C2.09292 6.35938 2.81725 4.6107 4.10656 3.32138C5.39587 2.03207 7.14456 1.30774 8.96792 1.30774C10.7913 1.30774 12.54 2.03207 13.8293 3.32138C15.1186 4.6107 15.8429 6.35938 15.8429 8.18274Z" fill="black"/>
</g>
<defs>
<clipPath id="clip0_2001_1139">
<rect width="20" height="20" fill="white" transform="translate(0.842773 0.0585938)"/>
</clipPath>
</defs>
</svg>
