<svg width="35" height="35" viewBox="0 0 35 35" fill="none" xmlns="http://www.w3.org/2000/svg">
<path d="M17.6909 0.193359C8.2324 0.193359 0.563721 7.86204 0.563721 17.3206C0.563721 26.7791 8.2324 34.4478 17.6909 34.4478C27.1494 34.4478 34.8181 26.7791 34.8181 17.3206C34.8181 7.86204 27.1515 0.193359 17.6909 0.193359ZM25.5314 24.9238C25.3207 25.2756 24.9484 25.4699 24.5659 25.4699C24.3696 25.4699 24.1691 25.4188 23.9871 25.3083C17.2429 21.2521 9.24698 23.5983 9.16721 23.6228C8.574 23.8028 7.94398 23.4674 7.76398 22.8721C7.58397 22.2769 7.91739 21.6509 8.51059 21.4689C8.8747 21.3584 17.5252 18.7954 25.1469 23.3794C25.6787 23.7006 25.8505 24.3919 25.5314 24.9238ZM27.6588 20.1822C27.4133 20.6098 26.9653 20.8491 26.5051 20.8491C26.2801 20.8491 26.053 20.7918 25.8444 20.6711C17.3718 15.7987 8.83583 18.6358 8.74992 18.6645C8.05444 18.9017 7.29964 18.5336 7.06031 17.8381C6.82303 17.1426 7.19327 16.3878 7.88671 16.1485C8.28149 16.0135 17.6602 12.8981 27.1678 18.3658C27.804 18.732 28.0229 19.544 27.6567 20.1822H27.6588ZM28.6099 15.6085C28.3542 15.6085 28.0924 15.5471 27.851 15.4203C18.0837 10.2901 8.05239 13.3625 7.95216 13.3931C7.091 13.6652 6.17051 13.1865 5.89846 12.3254C5.6264 11.4642 6.10505 10.5437 6.96622 10.2717C7.42851 10.1264 18.4109 6.76564 29.3729 12.5218C30.1727 12.9411 30.4816 13.9311 30.0602 14.7309C29.7677 15.2873 29.1991 15.6064 28.6099 15.6064V15.6085Z" fill="#D9C786"/>
</svg>
