<svg width="23" height="47" viewBox="0 0 23 47" fill="none" xmlns="http://www.w3.org/2000/svg">
<path d="M22.9822 40.2751C22.9822 40.2751 22.9822 40.2739 22.9822 40.2733C22.9822 40.269 22.9837 40.2642 22.9844 40.2599C22.9859 40.2514 22.9874 40.2423 22.9889 40.2338C22.9896 40.2289 22.9904 40.2235 22.9911 40.2186C22.9933 40.204 22.9955 40.1888 22.997 40.1742C22.997 40.1712 22.997 40.1682 22.9978 40.1645C22.9993 40.1493 23 40.1347 23 40.1195C23 40.1171 23 40.1141 23 40.1116C23 40.097 22.9985 40.0825 22.9963 40.0685C22.9963 40.0667 22.9955 40.0642 22.9948 40.0624C22.9918 40.0484 22.9881 40.0345 22.9822 40.0217C22.9822 40.0205 22.9807 40.0193 22.98 40.018C22.9733 40.0047 22.9651 39.9925 22.9547 39.9816C22.9547 38.8281 22.954 37.6746 22.9533 36.521C22.9533 35.1099 22.9518 33.698 22.9518 32.2869C22.9518 30.8757 22.9518 29.4292 22.9503 28.0004C22.9496 26.5357 22.9496 25.071 22.9488 23.6064C22.9488 22.2067 22.9481 20.8071 22.9473 19.4074C22.9473 18.1925 22.9466 16.9776 22.9458 15.7627C22.9458 15.5391 22.9458 15.3154 22.9458 15.0918C22.9458 13.6544 22.9451 12.2177 22.9444 10.7804C22.9444 9.78977 22.9436 8.79913 22.9429 7.8085C22.9429 7.80728 22.9429 7.80607 22.9429 7.80485C22.9429 7.78844 22.9429 7.77203 22.9429 7.75502C22.9429 7.75502 22.9429 7.75502 22.9429 7.75441C22.9429 7.74226 22.9406 7.7301 22.9369 7.71855C22.9369 7.71734 22.9369 7.71551 22.9369 7.7143C22.9369 7.69911 22.9362 7.68452 22.9362 7.66933C22.9362 7.65474 22.9362 7.64015 22.9355 7.62617C22.9347 7.60673 22.9325 7.58667 22.931 7.56722C22.9295 7.55264 22.9288 7.53866 22.9273 7.52468C22.9251 7.50462 22.9221 7.48518 22.9191 7.46573C22.9169 7.45175 22.9154 7.43777 22.9132 7.42379C22.9095 7.40374 22.9058 7.38429 22.9021 7.36423C22.8991 7.35026 22.8969 7.33689 22.8939 7.32291C22.8895 7.30285 22.8843 7.2828 22.8791 7.26335C22.8754 7.24998 22.8724 7.23661 22.8687 7.22324C22.8628 7.20318 22.8568 7.18313 22.8509 7.16307C22.8472 7.15031 22.8435 7.13694 22.839 7.12417C22.8323 7.10351 22.8249 7.08345 22.8175 7.0634C22.813 7.05124 22.8086 7.03848 22.8041 7.02633C22.796 7.00566 22.7878 6.985 22.7797 6.96433C22.7752 6.95279 22.77 6.94063 22.7656 6.92909C22.7567 6.90781 22.747 6.88654 22.7374 6.86527C22.7322 6.85433 22.7277 6.84339 22.7233 6.83245C22.7129 6.80997 22.7025 6.78809 22.6914 6.7656C22.6869 6.75588 22.6825 6.74615 22.6773 6.73704C22.6654 6.71333 22.6535 6.69024 22.6409 6.66654C22.6365 6.65864 22.6328 6.65013 22.6283 6.64223C22.6142 6.61609 22.6001 6.59057 22.586 6.56504C22.5831 6.55957 22.5801 6.5541 22.5771 6.54863C22.5771 6.54742 22.5764 6.54681 22.5756 6.5456C22.5593 6.51642 22.5423 6.48786 22.5259 6.45929C22.5259 6.45808 22.5244 6.45747 22.5244 6.45626C22.5059 6.42465 22.4874 6.39366 22.4681 6.36266C22.4681 6.36266 22.4681 6.36266 22.4681 6.36205C22.431 6.30128 22.3924 6.24172 22.3538 6.18277C22.3219 6.14326 22.2908 6.10315 22.2596 6.06304C22.2433 6.04177 22.2277 6.02111 22.2114 5.99984C22.1906 5.97249 22.1706 5.94514 22.1505 5.91718C22.135 5.89652 22.1201 5.87525 22.1053 5.85398C22.0853 5.82541 22.0645 5.79685 22.0444 5.76828C22.0304 5.74762 22.0155 5.72696 22.0014 5.7069C21.9806 5.67651 21.9599 5.64613 21.9391 5.61574C21.9257 5.59629 21.9124 5.57684 21.899 5.55679C21.8723 5.51789 21.8464 5.47899 21.8204 5.4401C21.8033 5.41457 21.7863 5.38965 21.7692 5.36413C21.747 5.33192 21.7254 5.2991 21.7032 5.26689C21.6987 5.2602 21.6943 5.25413 21.6898 5.24744C21.6861 5.24197 21.6824 5.2365 21.6787 5.23103C21.6676 5.21523 21.6572 5.19943 21.6461 5.18363C21.6312 5.16175 21.6164 5.13987 21.6008 5.11799C21.5704 5.07423 21.54 5.03047 21.5088 4.98732C21.5051 4.98246 21.5014 4.97699 21.4977 4.97213C21.4969 4.97091 21.4955 4.9697 21.4947 4.96848C21.4569 4.92169 21.419 4.87428 21.3819 4.82688C21.3805 4.82445 21.3782 4.82262 21.3768 4.82019C21.3671 4.80804 21.3575 4.79527 21.3478 4.78312C21.3456 4.78069 21.3441 4.77826 21.3419 4.77583C21.3159 4.74179 21.2899 4.70837 21.2647 4.67433C21.2558 4.66279 21.2477 4.65063 21.2388 4.63908C21.2306 4.62754 21.2217 4.61599 21.2135 4.60444C21.1905 4.57223 21.1668 4.54002 21.1445 4.50781C21.1416 4.50355 21.1386 4.49991 21.1356 4.49565C21.1223 4.47621 21.1097 4.45737 21.0963 4.43792C21.0741 4.40449 21.0518 4.37046 21.0295 4.33703C21.0147 4.31333 20.9999 4.28963 20.985 4.26532C20.9724 4.24526 20.9598 4.22521 20.9479 4.20454C20.9286 4.17172 20.9101 4.1389 20.8923 4.10548C20.8841 4.09089 20.876 4.07631 20.8678 4.06111C20.8619 4.04957 20.8559 4.03802 20.85 4.02647C20.83 3.98757 20.8099 3.94807 20.7914 3.90857C20.7914 3.90735 20.7914 3.90553 20.7907 3.90431C20.7892 3.8952 20.7877 3.88608 20.7847 3.87636C20.784 3.87332 20.7832 3.87028 20.7825 3.86724C20.7795 3.85691 20.7766 3.84718 20.7729 3.83685C20.7691 3.8247 20.7647 3.81315 20.7602 3.8016C20.7602 3.80039 20.7595 3.79917 20.7588 3.79796C20.7543 3.7858 20.7506 3.77365 20.7476 3.7621C20.7395 3.73354 20.7306 3.70497 20.7217 3.67641C20.7677 3.64055 20.8137 3.60348 20.8582 3.5664L20.8686 3.55546L20.8812 3.54149L20.893 3.52812L20.9042 3.51475L20.9153 3.50198L20.9361 3.47767L20.9465 3.46613L20.9561 3.45458L20.9754 3.4327L20.9843 3.42237L20.9932 3.41264L20.9947 3.41082L21.0021 3.40292L21.0288 3.37375L21.0325 3.36949L21.0377 3.36402L21.0466 3.35491L21.0852 3.31601L21.0867 3.3148L21.0919 3.30993L21.0948 3.30689L21.0963 3.30507L21.1052 3.29717L21.1119 3.29049L21.1149 3.28745L21.1245 3.27833L21.126 3.27712L21.1371 3.26678L21.1386 3.26557L21.149 3.25645L21.1965 3.21269L21.2061 3.20358L21.2076 3.20175L21.2195 3.19081L21.2217 3.18899L21.2313 3.17988L21.2395 3.17197L21.2469 3.16468L21.2632 3.14888L21.267 3.14584L21.2937 3.11849L21.3129 3.09904L21.3159 3.09601L21.3196 3.09236L21.3293 3.08264L21.3345 3.07717L21.3404 3.07048V3.06987L21.3419 3.06805L21.356 3.05286L21.3604 3.04799L21.3627 3.04617L21.3708 3.03705L21.376 3.03158L21.3864 3.02004L21.3901 3.01578C21.3901 3.01457 21.3901 3.01396 21.3901 3.01274C21.3819 2.9781 21.3745 2.94346 21.3686 2.90882C21.3664 2.89788 21.3649 2.88694 21.3634 2.87539C21.3612 2.86081 21.3604 2.84622 21.3589 2.83163C21.3589 2.82981 21.3589 2.82799 21.3589 2.82556C21.3604 2.80793 21.3612 2.7897 21.3612 2.77207C21.3612 2.76539 21.3619 2.75931 21.3619 2.75263C21.3619 2.7508 21.3619 2.74837 21.3619 2.74655C21.3619 2.72042 21.3597 2.69428 21.3567 2.66876C21.3567 2.66815 21.3567 2.66754 21.3567 2.66633C21.3582 2.6645 21.3597 2.66268 21.3612 2.66086C21.3612 2.65113 21.3597 2.64141 21.3589 2.63168C21.356 2.62135 21.353 2.61102 21.35 2.60069C21.3471 2.59218 21.3441 2.58428 21.3404 2.57638C21.3374 2.56301 21.3337 2.54964 21.33 2.53627C21.33 2.53323 21.3293 2.5308 21.3293 2.52776C21.3293 2.51986 21.3285 2.51196 21.327 2.50466C21.3263 2.50041 21.3241 2.49676 21.3226 2.49312C21.3204 2.48765 21.3189 2.48218 21.3167 2.47732C21.3144 2.47367 21.3122 2.47002 21.3092 2.46698C21.3063 2.46273 21.3033 2.45787 21.3003 2.45422C21.2974 2.45057 21.2937 2.44814 21.2907 2.44511C21.287 2.44146 21.2833 2.43781 21.2796 2.43477C21.2788 2.43417 21.2781 2.43356 21.2773 2.43295C21.2773 2.43295 21.2773 2.43295 21.2773 2.43234C21.2729 2.42383 21.2692 2.41533 21.2647 2.40682C21.2625 2.40256 21.2603 2.39831 21.258 2.39405C21.241 2.36245 21.2224 2.33206 21.2031 2.30168C21.2031 2.30107 21.2024 2.29985 21.2017 2.29925C21.1824 2.27372 21.1623 2.2488 21.1408 2.22449C21.123 2.20747 21.1052 2.19107 21.0867 2.17466C21.0852 2.17283 21.0837 2.17162 21.0822 2.16979C21.0807 2.16797 21.0793 2.16676 21.0778 2.16493C21.0718 2.15825 21.0652 2.15095 21.0585 2.14427C21.0585 2.14427 21.0585 2.14427 21.0577 2.14427C21.0466 2.13272 21.0362 2.12117 21.0244 2.11023C21.0221 2.10841 21.0206 2.10598 21.0184 2.10416C21.0155 2.10173 21.011 2.09808 21.0073 2.09565C20.9932 2.0841 20.9776 2.07195 20.9613 2.05918C20.9576 2.05675 20.9546 2.05432 20.9516 2.05128C20.9301 2.03427 20.9071 2.01725 20.8834 2.00145C20.8834 2.00145 20.8827 2.00084 20.8819 2.00023C20.8819 1.99659 20.8797 1.99233 20.8797 1.98868C20.8797 1.98868 20.8797 1.98868 20.8797 1.98808C20.7172 1.89327 20.5488 1.80514 20.3767 1.72249C20.1052 1.59243 19.8232 1.47817 19.5354 1.37425C19.5354 1.37425 19.5354 1.37425 19.5346 1.37425C19.5213 1.36939 19.5087 1.36513 19.4953 1.36027C19.4197 1.33353 19.344 1.30679 19.2683 1.28126C19.2601 1.27822 19.252 1.27519 19.2438 1.27276C19.1897 1.25452 19.1348 1.23811 19.0806 1.22049C19.0806 1.22049 19.0806 1.22049 19.0806 1.21988C19.0561 1.21198 19.0309 1.20469 19.0064 1.19739C18.9701 1.18585 18.933 1.17491 18.8966 1.16397C18.8402 1.14695 18.7839 1.13054 18.7267 1.11413C18.6911 1.1038 18.6555 1.09347 18.6199 1.08374C18.5583 1.06673 18.4975 1.05032 18.4359 1.0333C18.4047 1.02479 18.3743 1.01628 18.3432 1.00838C18.2564 0.985897 18.1696 0.96341 18.0828 0.941531C18.0776 0.940316 18.0724 0.9391 18.0679 0.937885C17.8639 0.886834 17.6577 0.842468 17.4507 0.799318C17.4492 0.799318 17.4477 0.799318 17.447 0.79871C17.3839 0.78534 17.3216 0.772577 17.2585 0.760422C17.257 0.760422 17.2556 0.760422 17.2541 0.760422C17.1688 0.743405 17.0827 0.726996 16.9966 0.711194C16.9966 0.711194 16.9966 0.711194 16.9966 0.710586C16.9514 0.702078 16.9054 0.694177 16.8601 0.686276C16.8594 0.686276 16.8587 0.686276 16.8572 0.686276C16.0478 0.544671 15.2302 0.438922 14.4067 0.372677C13.5728 0.297924 12.736 0.261459 11.8991 0.257812C11.8383 0.257812 11.7775 0.257812 11.7166 0.257812C11.7166 0.257812 11.7166 0.25842 11.7166 0.259028C11.3613 0.259028 11.0059 0.264498 10.6513 0.276045C10.6513 0.276045 10.6505 0.276045 10.6498 0.276045C10.4858 0.281515 10.3226 0.288808 10.1587 0.296709C10.1134 0.29914 10.0682 0.300355 10.0229 0.302178C9.81443 0.313118 9.60522 0.325881 9.39749 0.340467C8.98797 0.369031 8.57845 0.405496 8.17115 0.451077C7.96861 0.474172 7.76608 0.497874 7.56354 0.524615C7.45449 0.539201 7.34469 0.553787 7.23563 0.569588C7.17999 0.577489 7.12509 0.58539 7.06945 0.593898C7.04793 0.596937 7.02642 0.600584 7.0049 0.603622C7.00342 0.603622 7.00268 0.603622 7.00119 0.603622C6.99303 0.604838 6.98413 0.606053 6.97597 0.607269C6.96632 0.608484 6.95668 0.610308 6.94704 0.611523C6.94629 0.611523 6.94555 0.611523 6.94481 0.611523C6.92404 0.614562 6.90326 0.617601 6.88175 0.621247C6.46852 0.686276 6.05751 0.760422 5.65022 0.845507C5.2815 0.922691 4.91575 1.0096 4.55445 1.10684C4.55445 1.10684 4.55445 1.10684 4.55371 1.10684C4.53516 1.1117 4.51661 1.11656 4.49806 1.12203C4.38678 1.15242 4.2755 1.18402 4.16422 1.21623C4.13083 1.22596 4.09819 1.23568 4.06554 1.24601C3.98319 1.27032 3.90159 1.29585 3.81998 1.32198C3.79921 1.32867 3.77843 1.33414 3.7584 1.34082C3.7584 1.34082 3.7584 1.34082 3.7584 1.34143C3.6308 1.38276 3.50394 1.42469 3.37856 1.46967C3.27692 1.50613 3.17602 1.54381 3.07587 1.58271C3.05435 1.59122 3.03209 1.59972 3.01058 1.60823C2.91117 1.64713 2.8125 1.68724 2.71457 1.72918C2.7027 1.73404 2.69157 1.73951 2.6797 1.74437C2.62554 1.76807 2.57064 1.79117 2.51722 1.81608C2.50535 1.81608 2.49348 1.81791 2.48236 1.81973C2.48087 1.81973 2.47939 1.81973 2.47865 1.81973C2.46232 1.82277 2.44675 1.82702 2.43117 1.83249C2.42671 1.83371 2.423 1.83553 2.41855 1.83736C2.40594 1.84222 2.39407 1.84769 2.3822 1.85376C2.37998 1.85498 2.37701 1.8562 2.37478 1.85741C2.36069 1.86531 2.34659 1.87382 2.33324 1.88233C2.32953 1.88476 2.32656 1.88658 2.32359 1.88901C2.31246 1.89691 2.30134 1.90421 2.29021 1.91211C2.2865 1.91454 2.28279 1.91758 2.27908 1.92001C2.27166 1.92548 2.26424 1.93095 2.25682 1.93642C2.25311 1.93946 2.2494 1.94189 2.24569 1.94493C2.18338 1.97592 2.1218 2.00753 2.06096 2.03974C2.04761 2.05007 2.035 2.05979 2.02164 2.07012C2.012 2.07742 2.00235 2.08532 1.99271 2.09261C1.99271 2.09261 1.99197 2.09383 1.99123 2.09443C1.98974 2.09626 1.98752 2.09808 1.98603 2.0999C1.97861 2.1072 1.9712 2.1151 1.96378 2.12239C1.96155 2.12482 1.95933 2.12725 1.95636 2.12968C1.94894 2.13758 1.94226 2.14548 1.93484 2.15399C1.92668 2.16615 1.91852 2.1783 1.91036 2.18985C1.90813 2.19289 1.90665 2.19593 1.90443 2.19836C1.90443 2.19957 1.90294 2.20079 1.9022 2.20201C1.89923 2.20626 1.89701 2.20991 1.89404 2.21416C1.89181 2.21781 1.88885 2.22206 1.88662 2.22632C1.88662 2.22753 1.88514 2.22814 1.88514 2.22935C1.88291 2.233 1.88069 2.23604 1.87846 2.23969C1.87623 2.24333 1.87327 2.24759 1.87104 2.25123C1.86659 2.25853 1.86214 2.26582 1.85769 2.27311C1.85472 2.27737 1.85249 2.28162 1.84953 2.28587C1.84804 2.2877 1.8473 2.28952 1.84656 2.29074C1.84507 2.29317 1.84359 2.29621 1.84137 2.29864C1.83617 2.30775 1.83024 2.31748 1.82504 2.32659C1.82504 2.32659 1.82504 2.32659 1.82504 2.3272C1.82504 2.3272 1.82504 2.32842 1.8243 2.32842C1.82356 2.32963 1.82282 2.33085 1.82208 2.33206C1.82208 2.33267 1.82133 2.33328 1.82059 2.33389C1.82059 2.33693 1.81911 2.33996 1.81837 2.343C1.81688 2.3503 1.8154 2.35759 1.81317 2.36427C1.81317 2.36488 1.81317 2.3661 1.81317 2.36671C1.81169 2.37157 1.81095 2.37643 1.80946 2.38129C1.80946 2.38251 1.80946 2.38372 1.80946 2.38433C1.80501 2.40499 1.80205 2.42626 1.79982 2.44693C1.79982 2.44814 1.79982 2.44936 1.79982 2.45058C1.79982 2.45361 1.79982 2.45665 1.79982 2.45969C1.79759 2.48096 1.79611 2.50163 1.79463 2.5229C1.79092 2.57881 1.78869 2.63412 1.78869 2.69064C1.78869 2.69671 1.78869 2.70218 1.78869 2.70826C1.78869 2.71252 1.78869 2.71616 1.78869 2.72042C1.78869 2.72406 1.78869 2.7271 1.78943 2.73075C1.79092 2.7581 1.79314 2.78605 1.79685 2.8134C1.79685 2.81705 1.79685 2.82069 1.79759 2.82495C1.79759 2.82495 1.79759 2.82495 1.79759 2.82556C1.79759 2.82738 1.79908 2.8292 1.79908 2.83103C1.8013 2.83832 1.80427 2.845 1.8065 2.8523C1.80872 2.85959 1.81169 2.86628 1.81392 2.87357C1.82133 2.89484 1.82949 2.91611 1.83691 2.93738C1.8384 2.94103 1.83914 2.94407 1.84062 2.94771C1.84285 2.9544 1.84582 2.96109 1.84804 2.96777C1.85175 2.9781 1.8562 2.98783 1.85991 2.99816C1.85991 2.99877 1.85991 2.99998 1.86065 3.00059C1.86065 3.0012 1.86065 3.00241 1.8614 3.00302C1.86362 3.0091 1.86659 3.01517 1.86881 3.02186C1.87178 3.02915 1.87475 3.03584 1.87698 3.04313C1.8792 3.04982 1.88217 3.05589 1.88514 3.06258C1.88514 3.06258 1.88514 3.06379 1.88514 3.0644C1.89552 3.08993 1.90665 3.11606 1.91778 3.14159C1.91778 3.14219 1.91852 3.14341 1.91852 3.14402C1.92223 3.15253 1.92594 3.16043 1.92965 3.16894C1.93188 3.1738 1.9341 3.17805 1.93633 3.18291C1.93707 3.18474 1.93781 3.18595 1.93855 3.18778C1.943 3.19689 1.9482 3.20601 1.95265 3.21512C1.95265 3.21512 1.95265 3.21573 1.95265 3.21634C1.95413 3.21877 1.95562 3.22181 1.9571 3.22424C1.97045 3.23579 1.98158 3.24855 1.99048 3.26192C1.99048 3.26192 1.99048 3.26253 1.99123 3.26314C1.99939 3.26861 2.00829 3.27347 2.01719 3.27712C2.01942 3.27833 2.02239 3.27894 2.02461 3.28015C2.02906 3.28198 2.03351 3.2838 2.03797 3.28562C2.03945 3.28684 2.04019 3.28805 2.04167 3.28927C2.04167 3.28927 2.04242 3.29049 2.04316 3.29109C2.04613 3.29535 2.04984 3.30021 2.0528 3.30446C2.0669 3.32452 2.08099 3.34518 2.09583 3.36524C2.09583 3.36524 2.09583 3.36585 2.09657 3.36645C2.10474 3.37557 2.11141 3.38529 2.11883 3.39441C2.11661 3.40535 2.11512 3.4169 2.1129 3.42784L2.13144 3.44182L2.1537 3.45883L2.17596 3.47524L2.17892 3.47767C2.17892 3.47767 2.18189 3.48253 2.18338 3.48436C2.18634 3.48922 2.18857 3.49408 2.19154 3.49894C2.19895 3.51292 2.20637 3.52629 2.21305 3.54027C2.21602 3.54635 2.21899 3.55243 2.22121 3.5585C2.2264 3.57127 2.2316 3.58342 2.23605 3.59558C2.23827 3.60165 2.2405 3.60773 2.24273 3.6132C2.24718 3.62657 2.25163 3.64055 2.25534 3.65392C2.25608 3.65817 2.25756 3.66182 2.25905 3.66608C2.2635 3.68309 2.26721 3.70011 2.27092 3.71652C2.27166 3.72077 2.2724 3.72503 2.27314 3.72989C2.27463 3.73657 2.27537 3.74326 2.27685 3.74994C2.28205 3.78033 2.28576 3.81011 2.28947 3.83746C2.28798 3.83928 2.28724 3.84171 2.28576 3.84354C2.22047 4.01067 2.13812 4.17172 2.04538 4.32852C2.0439 4.33095 2.04242 4.33338 2.04093 4.33582C1.95858 4.47317 1.86733 4.60687 1.77089 4.73815C1.68557 4.85362 1.59728 4.96788 1.50603 5.08031C1.39104 5.24076 1.28124 5.40424 1.1707 5.56712C1.11654 5.64795 1.06164 5.72817 1.006 5.80839C0.988194 5.83392 0.970389 5.85884 0.952584 5.88436C0.856138 6.02171 0.755983 6.15785 0.649152 6.29034C0.604638 6.3578 0.561609 6.42708 0.519321 6.49637C0.517096 6.49941 0.515612 6.50245 0.513386 6.50548C0.511902 6.50791 0.510419 6.51035 0.508935 6.51278C0.498548 6.52979 0.488162 6.54681 0.478517 6.56383C0.477776 6.56565 0.477034 6.56687 0.47555 6.56869C0.466647 6.58328 0.458487 6.59847 0.449584 6.61306C0.441423 6.62764 0.43252 6.64162 0.42436 6.65621C0.42065 6.66228 0.417683 6.66836 0.413973 6.67444C0.41249 6.67748 0.410264 6.68112 0.40878 6.68416C0.39691 6.70604 0.384298 6.72792 0.373169 6.7498C0.368718 6.7577 0.365009 6.76621 0.360557 6.77411C0.348687 6.7972 0.336075 6.82091 0.324205 6.84461C0.319012 6.85433 0.31456 6.86406 0.310109 6.87378C0.299723 6.89566 0.288594 6.91815 0.278208 6.94002C0.273015 6.95096 0.268563 6.9619 0.26337 6.97284C0.253726 6.99411 0.244081 7.01539 0.235178 7.03666C0.229985 7.0482 0.226276 7.05975 0.221083 7.0713C0.212922 7.09196 0.204019 7.11323 0.1966 7.1339C0.192149 7.14605 0.187698 7.15882 0.183246 7.17097C0.175827 7.19163 0.168408 7.21169 0.161732 7.23235C0.15728 7.24512 0.153571 7.25788 0.149861 7.27064C0.143926 7.2907 0.137249 7.31136 0.131314 7.33142C0.127605 7.34479 0.124637 7.35755 0.120928 7.37092C0.115734 7.39098 0.110541 7.41103 0.10609 7.43109C0.103122 7.44446 0.100897 7.45783 0.0979292 7.4712C0.0942197 7.49125 0.0897684 7.51131 0.086059 7.53137C0.0838333 7.54474 0.0823495 7.55871 0.0801239 7.57209C0.0771563 7.59214 0.0741888 7.6122 0.0719631 7.63225C0.0704793 7.64623 0.0697374 7.66021 0.0682537 7.67419C0.0667699 7.69424 0.0645442 7.7143 0.0638023 7.73435C0.0638023 7.74833 0.0638023 7.76292 0.0630604 7.7769C0.0630604 7.79209 0.0615767 7.80728 0.0623186 7.82248C0.0623186 7.82369 0.0623186 7.82552 0.0623186 7.82673C0.0586091 7.83828 0.0563835 7.84983 0.0563835 7.86259C0.0563835 7.86259 0.0563835 7.8632 0.0563835 7.86381C0.0563835 7.88021 0.0563835 7.89662 0.0563835 7.91364C0.0563835 7.91486 0.0563835 7.91607 0.0563835 7.91729C0.0563835 8.90792 0.0556416 9.89855 0.0548997 10.8892C0.0548997 11.9333 0.0541578 12.9774 0.0534159 14.0215C0.0534159 14.1018 0.0534159 14.1814 0.0534159 14.2616C0.0534159 14.5746 0.0534159 14.8876 0.0534159 15.2006C0.0534159 16.6391 0.052674 18.0777 0.0519321 19.5162C0.0519321 20.9158 0.0511902 22.3155 0.0504484 23.7151C0.0504484 25.1798 0.0504484 26.6445 0.0489646 28.1092C0.0482227 29.538 0.0474808 30.9668 0.0474808 32.3956C0.0474808 33.8245 0.0467389 35.2186 0.045997 36.6298C0.045997 37.4473 0.045997 38.2653 0.0452551 39.0827C0.0452551 39.3708 0.0452551 39.6589 0.0452551 39.9469C0.0452551 39.9949 0.0452551 40.043 0.0452551 40.091C0.0348687 40.1019 0.026708 40.1141 0.020031 40.1274C0.020031 40.1287 0.0185472 40.1305 0.0178053 40.1317C0.0118702 40.1445 0.00816076 40.1578 0.00519321 40.1718C0.00519321 40.1742 0.00445133 40.1761 0.00370944 40.1785C0.00148378 40.1925 0 40.2064 0 40.221C0 40.2241 0 40.2265 0 40.2295C0 40.2441 0.000741888 40.2587 0.00222566 40.2733C0.00222566 40.2769 0.00222566 40.2806 0.00296755 40.2842C0.00445133 40.2982 0.0059351 40.3122 0.00816076 40.3268C0.00890265 40.3341 0.0103864 40.3414 0.0118702 40.3487C0.0118702 40.3499 0.0118702 40.3505 0.0118702 40.3517C0.0192891 40.3979 0.0274498 40.4429 0.0274498 40.4811C0.0578672 40.8798 0.0400619 41.2785 0.0370944 41.6772C0.0259661 41.9179 0.0704793 42.1567 0.066028 42.3974C0.066028 42.3992 0.066028 42.4016 0.066028 42.4035C0.0638023 42.4266 0.0630604 42.4496 0.0615767 42.4727C0.0615767 42.4806 0.0615767 42.4892 0.0615767 42.4971C0.0615767 42.5165 0.0615767 42.536 0.0615767 42.5548C0.0615767 42.5615 0.0615767 42.5688 0.0615767 42.5755C0.0623186 42.6004 0.0645442 42.6253 0.0667699 42.6502C0.0667699 42.6569 0.0682537 42.663 0.0689955 42.6697C0.0712212 42.6891 0.0741888 42.7086 0.0778982 42.728C0.079382 42.7359 0.0808658 42.7438 0.0823495 42.7511C0.0868009 42.7742 0.092736 42.7979 0.0986711 42.821C0.0986711 42.8228 0.0994129 42.8246 0.100155 42.8265C0.106832 42.8508 0.115734 42.8745 0.124637 42.8982C0.127605 42.9055 0.130572 42.9128 0.13354 42.9194C0.140959 42.9377 0.149119 42.9553 0.158022 42.9729C0.16099 42.979 0.163957 42.9851 0.166925 42.9912C0.178795 43.0136 0.192149 43.0355 0.206987 43.0574C0.207729 43.0586 0.20847 43.0604 0.209954 43.0617C0.210696 43.0647 0.212922 43.0677 0.214406 43.0708C0.215889 43.0738 0.216631 43.0762 0.218115 43.0793C0.22405 43.0896 0.230727 43.0999 0.23963 43.1091C0.24779 43.117 0.255951 43.1249 0.264112 43.1322C0.266338 43.1346 0.268563 43.1364 0.270789 43.1388C0.291562 43.1625 0.31456 43.185 0.339043 43.2069C0.343494 43.2106 0.347945 43.2142 0.351655 43.2178C0.376137 43.2385 0.402103 43.2586 0.430295 43.2774C0.43252 43.2792 0.434746 43.2811 0.437714 43.2829C0.439197 43.2841 0.439939 43.2847 0.441423 43.2859C0.508193 43.34 0.576447 43.3923 0.6447 43.4451C0.646184 43.4464 0.64841 43.4476 0.649894 43.4494C0.653603 43.4518 0.657312 43.4549 0.66028 43.4573C0.707761 43.4919 0.753758 43.5266 0.799755 43.5624C0.81756 43.5764 0.835365 43.591 0.853171 43.605C0.88433 43.6299 0.915489 43.6548 0.946649 43.6797C0.96668 43.6961 0.986711 43.7132 1.00674 43.7302C1.03419 43.7539 1.06238 43.777 1.08983 43.8007C1.11061 43.8183 1.13064 43.8365 1.15067 43.8548C1.17663 43.8779 1.2026 43.9016 1.22857 43.9253C1.39475 44.0784 1.55129 44.2377 1.70041 44.4011C1.72415 44.4321 1.74566 44.4637 1.76718 44.4953C1.77163 44.502 1.77534 44.5081 1.77979 44.5148C1.79982 44.5464 1.81985 44.5786 1.83766 44.6114C1.83766 44.6126 1.8384 44.6132 1.83914 44.6145C1.85769 44.6479 1.87549 44.6813 1.89256 44.7147C1.89552 44.7202 1.89775 44.7251 1.90072 44.7305C1.91778 44.7646 1.93484 44.7992 1.95116 44.8339C1.943 44.8375 1.93484 44.8418 1.92742 44.8466C1.95636 44.8873 1.98529 44.9274 2.01497 44.967C2.01793 44.9712 2.0209 44.9748 2.02387 44.9791C2.035 44.9937 2.04613 45.0083 2.05725 45.0229C2.07061 45.0387 2.08396 45.0545 2.09806 45.0703C2.10103 45.0739 2.10474 45.0782 2.1077 45.0818C2.12254 45.0988 2.13738 45.1158 2.15222 45.1335C2.1537 45.1353 2.15518 45.1371 2.15667 45.1389C2.32508 45.1979 2.49571 45.2514 2.66783 45.3006C3.0499 45.41 3.43717 45.503 3.82888 45.5856C3.85411 45.5911 3.88007 45.5966 3.9053 45.6014C3.9053 45.6014 3.9053 45.6014 3.9053 45.6008C4.07964 45.6367 4.25473 45.6701 4.43055 45.7017C4.61677 45.7358 4.80446 45.768 4.99142 45.7965C5.14944 45.8208 5.30672 45.8439 5.46474 45.8664C5.48848 45.8701 5.51223 45.8731 5.53597 45.8768C5.68805 45.898 5.84088 45.9181 5.99371 45.9369C6.00855 45.9387 6.02339 45.9412 6.03897 45.943C6.0909 45.9491 6.14357 45.9558 6.1955 45.9618C6.39581 45.9849 6.59612 46.008 6.79717 46.0281C7.01677 46.0494 7.23563 46.07 7.45523 46.0895C7.85436 46.1247 8.25573 46.1515 8.65634 46.1752C9.06142 46.1989 9.46649 46.2189 9.87156 46.2305C10.4398 46.2469 11.0081 46.2578 11.5764 46.2578C11.8316 46.2578 12.0868 46.2554 12.3413 46.2505C12.7671 46.2426 13.193 46.2305 13.6188 46.2128C14.0091 46.197 14.3993 46.1764 14.7888 46.1484C15.0002 46.1332 15.2117 46.1192 15.4224 46.1004C15.4528 46.0974 15.4839 46.0943 15.5144 46.0919C15.6946 46.0755 15.8757 46.0597 16.0559 46.0421C16.1175 46.036 16.1791 46.0293 16.2407 46.0226C16.3319 46.0129 16.4239 46.0026 16.5152 45.9922C16.7726 45.9624 17.0293 45.9296 17.2852 45.8944C17.2897 45.8944 17.2941 45.8932 17.2979 45.8926C17.4974 45.8652 17.6955 45.8336 17.8943 45.802C18.0805 45.7722 18.2675 45.7394 18.4522 45.7042C18.654 45.6653 18.8558 45.6264 19.0554 45.5802C19.2498 45.5352 19.4441 45.4902 19.6355 45.438C19.6645 45.4301 19.7127 45.4167 19.7617 45.4033C19.9412 45.3541 20.1178 45.2988 20.2921 45.2398C20.3018 45.2319 20.3107 45.224 20.3203 45.2155C20.3285 45.2082 20.3366 45.2015 20.3448 45.1942C20.3529 45.1876 20.3604 45.1803 20.3685 45.173C20.3685 45.173 20.37 45.1718 20.3707 45.1712C20.3863 45.1572 20.4019 45.1432 20.4167 45.1292C20.419 45.1274 20.4205 45.1256 20.4227 45.1237C20.4242 45.1219 20.4264 45.1207 20.4279 45.1189C20.4368 45.111 20.4457 45.1025 20.4538 45.094C20.462 45.0861 20.4702 45.0782 20.4783 45.0703C20.485 45.0642 20.4909 45.0575 20.4976 45.0514C20.5021 45.0472 20.5065 45.0429 20.511 45.0381C20.5154 45.0332 20.5199 45.0289 20.5243 45.0241C20.5273 45.021 20.5303 45.018 20.5332 45.0144C20.5392 45.0089 20.5444 45.0034 20.5495 44.9973C20.5755 44.9682 20.6015 44.9384 20.6267 44.9086C20.6349 44.8989 20.6438 44.8886 20.6519 44.8788C20.6556 44.874 20.6593 44.8697 20.6631 44.8648C20.6705 44.8551 20.6779 44.846 20.6853 44.8363C20.6883 44.8326 20.6912 44.8284 20.6935 44.8247C20.6994 44.8168 20.7053 44.8089 20.7105 44.801C20.7165 44.7931 20.7224 44.7852 20.7283 44.7767C20.7313 44.7725 20.735 44.7676 20.738 44.7634C20.7417 44.7579 20.7454 44.7518 20.7499 44.7463C20.8255 44.5938 20.8552 44.4394 20.9197 44.2942C20.9197 44.2923 20.9212 44.2911 20.922 44.2893C20.9279 44.2765 20.9346 44.2638 20.9405 44.251C20.942 44.2474 20.9435 44.2443 20.9457 44.2407C20.9516 44.2291 20.9583 44.2176 20.965 44.206C20.968 44.2018 20.9702 44.1969 20.9724 44.1927C20.9791 44.1817 20.9865 44.1708 20.9939 44.1599C20.9969 44.155 20.9999 44.1501 21.0036 44.1453C21.011 44.1349 21.0192 44.1246 21.0281 44.1143C21.0318 44.1094 21.0355 44.1039 21.0399 44.0991C21.0481 44.0894 21.0577 44.0796 21.0674 44.0699C21.0726 44.065 21.077 44.0596 21.0822 44.0541C21.0919 44.0444 21.1023 44.0353 21.1134 44.0262C21.1193 44.0213 21.1245 44.0158 21.1304 44.011C21.1416 44.0018 21.1542 43.9927 21.1661 43.9836C21.172 43.9794 21.1772 43.9745 21.1839 43.9702C21.192 43.9678 21.1994 43.9648 21.2054 43.9605C21.2069 43.9593 21.2076 43.9581 21.2091 43.9563C21.2128 43.9526 21.2165 43.949 21.2187 43.9441C21.2187 43.9441 21.2187 43.9435 21.2195 43.9429C21.221 43.9417 21.2224 43.9405 21.2239 43.9392C21.2417 43.9265 21.261 43.9137 21.281 43.9016C21.2944 43.8937 21.307 43.8858 21.3204 43.8773C21.33 43.8712 21.3404 43.8651 21.35 43.859C21.3693 43.8469 21.3871 43.8347 21.4049 43.8219C21.4072 43.8201 21.4087 43.8189 21.4109 43.8171C21.4257 43.8055 21.4383 43.7934 21.4502 43.7806C21.4524 43.7788 21.4546 43.777 21.4569 43.7745C21.4591 43.7733 21.4606 43.7721 21.4628 43.7709C21.4947 43.7527 21.5274 43.7344 21.5607 43.7168C21.5741 43.7095 21.5874 43.7028 21.6008 43.6955C21.6231 43.684 21.6446 43.6724 21.6668 43.6609C21.698 43.6451 21.7284 43.6287 21.7596 43.6129C21.7714 43.6068 21.7833 43.6007 21.7952 43.594C21.8308 43.5758 21.8657 43.557 21.9013 43.5381C21.9065 43.5357 21.9102 43.5321 21.9139 43.5284C21.9146 43.5272 21.9161 43.526 21.9168 43.5248C21.9191 43.5217 21.9206 43.5187 21.922 43.5156C21.922 43.5144 21.9235 43.5126 21.9235 43.5114C21.9243 43.5077 21.925 43.5047 21.9243 43.5011C21.9243 43.4998 21.9243 43.4986 21.9243 43.4974C21.9243 43.4974 21.9243 43.4968 21.9243 43.4962C21.9302 43.4938 21.9361 43.4907 21.9428 43.4877C21.9933 43.4658 22.0422 43.4433 22.0919 43.4202C22.1186 43.4081 22.1453 43.3959 22.1721 43.3832C22.241 43.3497 22.3086 43.3151 22.3761 43.2786C22.3805 43.2762 22.385 43.2738 22.3902 43.2713C22.3902 43.2713 22.3902 43.2713 22.3894 43.2713C22.3909 43.2707 22.3917 43.2701 22.3931 43.2695C22.3931 43.2695 22.3946 43.2689 22.3954 43.2683C22.3954 43.2683 22.3961 43.2683 22.3968 43.2677C22.3968 43.2677 22.3968 43.2677 22.3968 43.2671C22.408 43.261 22.4169 43.2531 22.4258 43.2446C22.4265 43.244 22.428 43.2434 22.4287 43.2422C22.4287 43.2422 22.4295 43.2422 22.4302 43.2422L22.448 43.2519C22.4555 43.2458 22.4636 43.2397 22.471 43.2336C22.4755 43.2324 22.4792 43.23 22.4829 43.2282C22.4866 43.227 22.4896 43.2251 22.4933 43.2233C22.5044 43.2178 22.5148 43.2118 22.5237 43.2039C22.5334 43.196 22.5415 43.1875 22.5489 43.1783C22.5512 43.1759 22.5534 43.1729 22.5549 43.1704C22.5571 43.1668 22.5601 43.1638 22.5623 43.1607C22.5623 43.1607 22.5623 43.1607 22.5623 43.1601C22.5645 43.1589 22.566 43.1571 22.5682 43.1559C22.5972 43.1364 22.6239 43.1163 22.6483 43.0951C22.6528 43.0914 22.6572 43.0884 22.661 43.0847C22.6854 43.0629 22.7084 43.0398 22.7292 43.0161C22.7314 43.0136 22.7337 43.0118 22.7359 43.0094C22.744 43.0015 22.7522 42.9942 22.7604 42.9863C22.77 42.9772 22.7767 42.9668 22.7819 42.9571C22.7834 42.9541 22.7849 42.9517 22.7863 42.9486C22.7878 42.9456 22.7893 42.9425 22.7908 42.9395C22.7915 42.9383 22.7923 42.9371 22.793 42.9358C22.8079 42.914 22.8212 42.8915 22.8331 42.869C22.836 42.8635 22.839 42.8574 22.842 42.852C22.8509 42.8337 22.8598 42.8155 22.8672 42.7973C22.8702 42.79 22.8731 42.7833 22.8761 42.776C22.885 42.7529 22.8932 42.7292 22.9006 42.7049C22.9006 42.7025 22.9021 42.7 22.9028 42.6976C22.9087 42.6751 22.9139 42.6526 22.9191 42.6302C22.9206 42.6216 22.9221 42.6137 22.9236 42.6052C22.9266 42.5864 22.9295 42.5682 22.9317 42.5493C22.9325 42.542 22.934 42.5353 22.9347 42.528C22.9369 42.5037 22.9392 42.4788 22.9399 42.4545C22.9399 42.4466 22.9399 42.4387 22.9399 42.4314C22.9399 42.4132 22.9399 42.395 22.9399 42.3767C22.9399 42.3676 22.9399 42.3591 22.9399 42.35C22.9392 42.3275 22.9377 42.3056 22.9355 42.2831C22.9355 42.2807 22.9355 42.2777 22.9355 42.2752C22.9355 42.2546 22.9355 42.2339 22.9355 42.2132C22.9355 42.1999 22.9355 42.1865 22.9355 42.1737C22.9355 42.1567 22.9369 42.1403 22.9377 42.1233C22.9377 42.1105 22.9384 42.0972 22.9399 42.0844C22.9406 42.0668 22.9421 42.0491 22.9436 42.0315C22.9444 42.0194 22.9451 42.0066 22.9458 41.9938C22.9481 41.9671 22.9496 41.9404 22.9518 41.9136C22.9533 41.899 22.954 41.8844 22.9547 41.8692C22.9562 41.8528 22.957 41.837 22.9585 41.8206C22.9592 41.8042 22.9599 41.7884 22.9614 41.772C22.9614 41.7586 22.9629 41.7453 22.9636 41.7313C22.9644 41.7131 22.9644 41.6942 22.9651 41.676C22.9651 41.6657 22.9651 41.6547 22.9659 41.6444V41.6432C22.9659 41.6158 22.9659 41.5879 22.9644 41.5599C22.9644 41.5581 22.9644 41.5563 22.9644 41.5544C22.9629 41.3551 22.9577 41.1557 22.957 40.9564C22.9562 40.7571 22.9592 40.5577 22.974 40.3584C22.974 40.3444 22.9755 40.3292 22.977 40.3134C22.977 40.3122 22.977 40.3116 22.977 40.3104C22.9792 40.2946 22.9815 40.2782 22.9844 40.2611L22.9822 40.2751Z" fill="#D9C786"/>
</svg>
