<svg width="40" height="40" viewBox="0 0 40 40" fill="none" xmlns="http://www.w3.org/2000/svg">
<path d="M19.3136 2C11.9668 2 6 3.57857 6 5.52449V34.1473C6 36.0932 11.9668 37.6718 19.3136 37.6718C26.6605 37.6718 32.6273 36.0932 32.6273 34.1473V5.52449C32.6273 3.57857 26.6605 2 19.3136 2Z" fill="white" stroke="#231F20" stroke-width="1.98563" stroke-miterlimit="10"/>
<path d="M21.5273 14.7405C21.5273 14.7405 47.1122 49.4692 33.0539 13.1719" stroke="#231F20" stroke-width="1.98563" stroke-miterlimit="10" stroke-linecap="round"/>
<path d="M21.5262 16.3092C22.3925 16.3092 23.0948 15.6069 23.0948 14.7405C23.0948 13.8742 22.3925 13.1719 21.5262 13.1719C20.6598 13.1719 19.9575 13.8742 19.9575 14.7405C19.9575 15.6069 20.6598 16.3092 21.5262 16.3092Z" fill="#231F20"/>
<path d="M15.1537 25.9523C13.7836 25.9523 12.6716 24.8403 12.6716 23.4702V19.6479C12.5326 19.6677 12.3937 19.6876 12.2447 19.6876C10.8746 19.6876 9.7627 18.5756 9.7627 17.2056V8.43901C9.7627 7.06892 10.8746 5.95697 12.2447 5.95697C13.3269 5.95697 14.2502 6.65194 14.5878 7.6249C14.7665 7.58519 14.9551 7.56533 15.1537 7.56533C16.5238 7.56533 17.6357 8.67728 17.6357 10.0474V23.4702C17.6357 24.8403 16.5238 25.9523 15.1537 25.9523Z" fill="#FFE410"/>
<path d="M12.2537 6.95139C13.0777 6.95139 13.7429 7.61657 13.7429 8.44061V9.6022C13.9315 8.99658 14.4875 8.54982 15.1626 8.54982C15.9866 8.54982 16.6518 9.215 16.6518 10.039V23.4619C16.6518 24.2859 15.9866 24.9511 15.1626 24.9511C14.3386 24.9511 13.6734 24.2859 13.6734 23.4619V17.6341C13.4847 18.2397 12.9288 18.6865 12.2537 18.6865C11.4296 18.6865 10.7644 18.0213 10.7644 17.1972V8.44061C10.7644 7.61657 11.4296 6.95139 12.2537 6.95139ZM12.2537 4.96576C10.3375 4.96576 8.77881 6.52448 8.77881 8.44061V17.1972C8.77881 18.9148 10.0397 20.3544 11.6878 20.6224V23.4619C11.6878 25.378 13.2465 26.9367 15.1626 26.9367C17.0787 26.9367 18.6375 25.378 18.6375 23.4619V10.039C18.6375 8.13284 17.0887 6.57412 15.1825 6.56419C14.5669 5.60116 13.4847 4.96576 12.2537 4.96576Z" fill="#231F20"/>
<path d="M19.3136 9.04898C26.6666 9.04898 32.6273 7.47101 32.6273 5.52449C32.6273 3.57797 26.6666 2 19.3136 2C11.9607 2 6 3.57797 6 5.52449C6 7.47101 11.9607 9.04898 19.3136 9.04898Z" fill="#FFE410" stroke="#231F20" stroke-width="1.98563" stroke-miterlimit="10"/>
</svg>
