<svg width="224" height="487" viewBox="0 0 224 487" fill="none" xmlns="http://www.w3.org/2000/svg">
<path d="M152.955 334.436C190.316 310.911 211.695 269.347 219.261 226.821C227.813 178.795 214.649 133.347 208.876 85.9217C205.057 54.5502 204.881 26.998 204.881 19.9037C204.881 18.6867 204.809 17.4936 204.392 16.3406C199.212 1.88793 121.087 2.00003 116.699 2.00003H107.379C102.991 2.00003 24.8666 1.88793 19.6781 16.3326C19.2617 17.4856 19.1896 18.6867 19.1896 19.8957C19.1896 26.99 19.0135 54.5421 15.1941 85.9137C9.42106 133.339 -3.7425 178.787 4.80901 226.813C12.3837 269.339 33.7544 310.903 71.1152 334.428C85.8481 343.7 90.4842 354.886 91.8454 365.255C93.2066 375.624 100.845 427.165 72.4764 448.984C72.4764 448.984 23.6495 452.532 18.1888 463.717C12.736 474.903 31.008 477.906 31.008 477.906C31.008 477.906 52.2827 485 104.12 485H119.942C171.772 485 193.054 477.906 193.054 477.906C193.054 477.906 211.334 474.903 205.874 463.717C200.421 452.532 151.586 448.984 151.586 448.984C123.217 427.157 130.856 375.616 132.217 365.255C133.578 354.886 138.222 343.708 152.947 334.428L152.955 334.436Z" stroke="#D9C786" stroke-width="3"/>
</svg>
