<svg width="74" height="26" viewBox="0 0 74 26" fill="none" xmlns="http://www.w3.org/2000/svg">
<mask id="path-1-inside-1_4229_835" fill="white">
<path d="M0 0.796875H73.219V25.33H0V0.796875Z"/>
</mask>
<path d="M0 1.36741H73.219V0.226337H0V1.36741ZM73.219 24.7595H0V25.9005H73.219V24.7595Z" fill="url(#paint0_linear_4229_835)" mask="url(#path-1-inside-1_4229_835)"/>
<path d="M5.57321 10.8672V8.54647C5.57321 8.23049 5.50511 7.99896 5.36891 7.85187C5.23272 7.69933 5.01208 7.62306 4.707 7.62306H4.0696V11.7907H4.72334C5.01753 11.7907 5.23272 11.7171 5.36891 11.57C5.50511 11.4229 5.57321 11.1887 5.57321 10.8672ZM4.0696 19.8398H2.53331V6.06225H4.707C5.52962 6.06225 6.13433 6.26654 6.52113 6.67513C6.90793 7.07827 7.10133 7.7075 7.10133 8.56281V10.8182C7.10133 11.679 6.90793 12.3082 6.52113 12.7059C6.13978 13.0981 5.54052 13.2943 4.72334 13.2943H4.0696V19.8398ZM12.2087 19.8398H10.6479L10.3945 17.7152H8.71116C8.60765 18.467 8.51777 19.1752 8.4415 19.8398H6.92972L8.72751 6.06225H10.5171L12.2087 19.8398ZM8.85826 16.2933H10.2311C9.96417 13.9616 9.74081 11.8751 9.56103 10.0337C9.33767 12.3218 9.10341 14.4083 8.85826 16.2933ZM14.5785 19.8398H13.0422V6.06225H14.5785V19.8398ZM20.5847 19.8398H19.0811C18.7924 18.5215 18.4247 16.8599 17.9779 14.8551C17.5312 12.8448 17.2234 11.4284 17.0545 10.6058C17.0763 11.8642 17.0872 13.7546 17.0872 16.277V19.8398H15.7716V6.06225H17.5775C18.2531 9.8594 18.8278 12.9783 19.3018 15.4189C19.28 14.3675 19.2691 12.8121 19.2691 10.7528V6.06225H20.5847V19.8398ZM24.3111 19.8398H22.7748V7.62306H21.3284V6.06225H25.7493V7.62306H24.3111V19.8398ZM31.7392 19.8398H30.1702V13.8173L28.3234 6.06225H29.9496C30.0912 6.91211 30.2982 7.99351 30.5706 9.30644C30.8485 10.6139 30.9983 11.3467 31.0201 11.5046C31.0419 11.3358 31.1971 10.5949 31.4859 9.28193C31.7746 7.969 31.9925 6.89577 32.1396 6.06225H33.6514L31.7392 13.8173V19.8398ZM34.1172 17.6498V8.26046C34.1172 7.49231 34.2997 6.90939 34.6647 6.5117C35.0351 6.11401 35.5854 5.91516 36.3154 5.91516C37.7863 5.91516 38.5218 6.69692 38.5218 8.26046V17.6498C38.5218 19.2079 37.7863 19.9869 36.3154 19.9869C35.5854 19.9869 35.0351 19.7908 34.6647 19.3986C34.2997 19.0009 34.1172 18.418 34.1172 17.6498ZM36.9855 17.6498V8.26046C36.9855 7.73746 36.7621 7.47597 36.3154 7.47597C35.8796 7.47597 35.6616 7.73746 35.6616 8.26046V17.6498C35.6616 18.1837 35.8796 18.4506 36.3154 18.4506C36.7621 18.4506 36.9855 18.1837 36.9855 17.6498ZM42.4279 17.6498V6.06225H43.9641V17.6498C43.9641 19.2079 43.2341 19.9869 41.7741 19.9869C40.3141 19.9869 39.5841 19.2079 39.5841 17.6498V6.06225H41.1204V17.6498C41.1204 18.1837 41.3383 18.4506 41.7741 18.4506C42.2099 18.4506 42.4279 18.1837 42.4279 17.6498ZM48.0991 11.3576V8.86517C48.0991 8.41299 48.0446 8.0943 47.9356 7.90907C47.8267 7.71839 47.5979 7.62306 47.2492 7.62306H46.6608V12.2401H47.2655C47.5597 12.2401 47.7722 12.1693 47.9029 12.0276C48.0337 11.886 48.0991 11.6626 48.0991 11.3576ZM49.7906 19.8398H48.0991C47.7722 16.9961 47.5052 14.9313 47.2982 13.6456H46.6608V19.8398H45.1082V6.06225H47.2492C48.0718 6.06225 48.682 6.25565 49.0797 6.64245C49.4774 7.02924 49.6762 7.66392 49.6762 8.54647V11.3412C49.6762 11.8588 49.6027 12.2755 49.4556 12.5915C49.3085 12.9075 49.0797 13.1526 48.7691 13.3269C49.047 14.8306 49.3875 17.0015 49.7906 19.8398ZM55.993 10.8672V8.54647C55.993 8.23049 55.9249 7.99896 55.7887 7.85187C55.6525 7.69933 55.4319 7.62306 55.1268 7.62306H54.4894V11.7907H55.1431C55.4373 11.7907 55.6525 11.7171 55.7887 11.57C55.9249 11.4229 55.993 11.1887 55.993 10.8672ZM54.4894 19.8398H52.9531V6.06225H55.1268C55.9494 6.06225 56.5541 6.26654 56.9409 6.67513C57.3277 7.07827 57.5211 7.7075 57.5211 8.56281V10.8182C57.5211 11.679 57.3277 12.3082 56.9409 12.7059C56.5596 13.0981 55.9603 13.2943 55.1431 13.2943H54.4894V19.8398ZM59.9481 19.8398H58.4118V6.06225H59.9481V19.8398ZM65.9544 19.8398H64.4508C64.162 18.5215 63.7943 16.8599 63.3476 14.8551C62.9009 12.8448 62.593 11.4284 62.4242 10.6058C62.446 11.8642 62.4569 13.7546 62.4569 16.277V19.8398H61.1412V6.06225H62.9472C63.6227 9.8594 64.1974 12.9783 64.6714 15.4189C64.6496 14.3675 64.6387 12.8121 64.6387 10.7528V6.06225H65.9544V19.8398ZM69.6807 19.8398H68.1444V7.62306H66.698V6.06225H71.1189V7.62306H69.6807V19.8398Z" fill="white"/>
<defs>
<linearGradient id="paint0_linear_4229_835" x1="-0.789271" y1="11.6356" x2="73.219" y2="11.6356" gradientUnits="userSpaceOnUse">
<stop stop-color="#E5C888"/>
<stop offset="0.203125" stop-color="#C79807"/>
<stop offset="0.532825" stop-color="#E5C888"/>
<stop offset="0.793894" stop-color="#C79807"/>
<stop offset="1" stop-color="#E5C888"/>
</linearGradient>
</defs>
</svg>
