<svg width="363" height="130" viewBox="0 0 363 130" fill="none" xmlns="http://www.w3.org/2000/svg">
<path d="M32.7199 129.203L64.8637 97.0273V78.0436C64.8637 70.7505 70.7567 64.8516 78.0426 64.8516H362.936L346.864 48.7637L362.936 32.6758L346.864 16.5879L362.936 0.5H51.5597C23.3982 0.5 0.576172 23.3448 0.576172 51.5344V97.0273L32.7199 129.203Z" fill="#F5C242"/>
<path fill-rule="evenodd" clip-rule="evenodd" d="M346.864 48.7642L362.936 64.852H78.0426C70.7567 64.852 64.8637 70.7509 64.8637 78.0441V97.0278L32.7204 129.203L0.576172 97.0278V51.5348C0.576172 23.3453 23.3982 0.500473 51.5597 0.500473H362.936L346.864 16.5884L362.936 32.6763L346.864 48.7642ZM358.695 32.6763L342.623 48.7642L355.698 61.852H78.0426C69.097 61.852 61.8637 69.0969 61.8637 78.0441V95.7861L32.7199 124.959L3.57617 95.7861V51.5348C3.57617 24.9993 25.0579 3.50048 51.5597 3.50048H355.698L342.623 16.5884L358.695 32.6763Z" fill="url(#paint0_linear_251_1574)"/>
<path d="M322.689 39.332V36.7539C322.689 36.3672 322.643 36.0449 322.55 35.7871C322.464 35.5221 322.299 35.2357 322.056 34.9277C321.927 34.763 321.558 34.3226 320.949 33.6064C320.34 32.8903 319.864 32.2887 319.521 31.8018C319.155 31.2933 318.973 30.5306 318.973 29.5137V26.8174C318.973 24.8193 319.932 23.8203 321.852 23.8203C322.847 23.8203 323.563 24.0638 324 24.5508C324.437 25.0306 324.655 25.7861 324.655 26.8174V30.1152H322.754V26.8389C322.754 26.1943 322.471 25.8721 321.905 25.8721C321.612 25.8721 321.393 25.9473 321.25 26.0977C321.114 26.248 321.046 26.488 321.046 26.8174V29.4922C321.046 30.0221 321.16 30.4339 321.39 30.7275C321.612 31.014 322.02 31.5081 322.614 32.21C323.209 32.9046 323.653 33.4525 323.946 33.8535C324.24 34.2689 324.44 34.6914 324.548 35.1211C324.662 35.5508 324.72 36.0879 324.72 36.7324V39.332C324.72 41.3229 323.764 42.3184 321.852 42.3184C319.932 42.3184 318.973 41.3229 318.973 39.332V35.4863H320.928V39.332C320.928 39.6328 320.999 39.8691 321.143 40.041C321.293 40.2129 321.508 40.2988 321.787 40.2988C322.389 40.2988 322.689 39.9766 322.689 39.332Z" fill="white"/>
<path d="M313.041 30.9746V27.6982C313.041 27.1038 312.969 26.6849 312.826 26.4414C312.683 26.1908 312.382 26.0654 311.924 26.0654H311.15V32.1348H311.945C312.332 32.1348 312.611 32.0417 312.783 31.8555C312.955 31.6693 313.041 31.3757 313.041 30.9746ZM315.265 42.125H313.041C312.611 38.3867 312.26 35.6725 311.988 33.9824H311.15V42.125H309.109V24.0137H311.924C313.005 24.0137 313.807 24.2679 314.33 24.7764C314.853 25.2848 315.114 26.1191 315.114 27.2793V30.9531C315.114 31.6335 315.018 32.1813 314.824 32.5967C314.631 33.012 314.33 33.3343 313.922 33.5635C314.287 35.54 314.735 38.3939 315.265 42.125Z" fill="white"/>
<path d="M304.937 42.125H299.941V24.0137H304.818V26.0654H301.961V31.877H303.873V33.918H301.961V40.1055H304.937V42.125Z" fill="white"/>
<path d="M296.093 42.125H293.762C293.633 41.6953 292.781 38.777 291.205 33.3701C291.234 34.3369 291.248 35.9876 291.248 38.3223V42.125H289.207V24.0137H291.248V27.7627C291.248 29.6676 291.234 30.9854 291.205 31.7158C292.222 28.4717 293.049 25.9043 293.687 24.0137H295.867L292.967 32.1777L296.093 42.125Z" fill="white"/>
<path d="M283.05 39.2461V35.4863H284.897V39.2246C284.897 40.2845 284.683 41.0651 284.253 41.5664C283.823 42.0677 283.143 42.3184 282.212 42.3184C280.257 42.3184 279.279 41.3014 279.279 39.2676V26.9463C279.279 24.8623 280.257 23.8203 282.212 23.8203C283.114 23.8203 283.787 24.0745 284.231 24.583C284.675 25.0843 284.897 25.8577 284.897 26.9033V30.1152H283.05V26.9033C283.05 26.5452 282.985 26.2839 282.856 26.1191C282.728 25.9544 282.513 25.8721 282.212 25.8721C281.639 25.8721 281.353 26.2158 281.353 26.9033V39.2461C281.353 39.9479 281.639 40.2988 282.212 40.2988C282.506 40.2988 282.717 40.2129 282.846 40.041C282.982 39.8691 283.05 39.6042 283.05 39.2461Z" fill="white"/>
<path d="M274.785 42.125H272.766V24.0137H274.785V42.125Z" fill="white"/>
<path d="M266.812 42.125H264.792V26.0654H262.891V24.0137H268.702V26.0654H266.812V42.125Z" fill="white"/>
<path d="M257.303 39.332V36.7539C257.303 36.3672 257.256 36.0449 257.163 35.7871C257.077 35.5221 256.912 35.2357 256.669 34.9277C256.54 34.763 256.171 34.3226 255.562 33.6064C254.954 32.8903 254.478 32.2887 254.134 31.8018C253.769 31.2933 253.586 30.5306 253.586 29.5137V26.8174C253.586 24.8193 254.546 23.8203 256.465 23.8203C257.46 23.8203 258.176 24.0638 258.613 24.5508C259.05 25.0306 259.269 25.7861 259.269 26.8174V30.1152H257.367V26.8389C257.367 26.1943 257.084 25.8721 256.519 25.8721C256.225 25.8721 256.007 25.9473 255.863 26.0977C255.727 26.248 255.659 26.488 255.659 26.8174V29.4922C255.659 30.0221 255.774 30.4339 256.003 30.7275C256.225 31.014 256.633 31.5081 257.228 32.21C257.822 32.9046 258.266 33.4525 258.56 33.8535C258.853 34.2689 259.054 34.6914 259.161 35.1211C259.276 35.5508 259.333 36.0879 259.333 36.7324V39.332C259.333 41.3229 258.377 42.3184 256.465 42.3184C254.546 42.3184 253.586 41.3229 253.586 39.332V35.4863H255.541V39.332C255.541 39.6328 255.613 39.8691 255.756 40.041C255.906 40.2129 256.121 40.2988 256.4 40.2988C257.002 40.2988 257.303 39.9766 257.303 39.332Z" fill="white"/>
<path d="M241.367 39.042V27.1182C241.367 26.4163 241.074 26.0654 240.486 26.0654H239.648V40.1055H240.486C241.074 40.1055 241.367 39.751 241.367 39.042ZM240.486 42.125H237.629V24.0137H240.486C241.439 24.0137 242.159 24.2858 242.646 24.8301C243.14 25.3743 243.387 26.137 243.387 27.1182V39.042C243.387 41.0973 242.42 42.125 240.486 42.125Z" fill="white"/>
<path d="M233.069 42.125H231.093C230.713 40.3919 230.23 38.2077 229.643 35.5723C229.055 32.9297 228.651 31.0677 228.429 29.9863C228.457 31.6406 228.472 34.1257 228.472 37.4414V42.125H226.742V24.0137H229.116C230.004 29.0052 230.76 33.1051 231.383 36.3135C231.354 34.9313 231.34 32.8867 231.34 30.1797V24.0137H233.069V42.125Z" fill="white"/>
<path d="M222.756 42.125H220.704L220.371 39.332H218.158C218.022 40.3203 217.904 41.2513 217.804 42.125H215.816L218.18 24.0137H220.532L222.756 42.125ZM218.352 37.4629H220.156C219.805 34.3978 219.512 31.6549 219.275 29.2344C218.982 32.2422 218.674 34.985 218.352 37.4629Z" fill="white"/>
<path d="M204.499 42.125H202.479V26.0654H200.578V24.0137H206.39V26.0654H204.499V42.125Z" fill="white"/>
<path d="M196.601 42.125H194.624C194.244 40.3919 193.761 38.2077 193.174 35.5723C192.587 32.9297 192.182 31.0677 191.96 29.9863C191.989 31.6406 192.003 34.1257 192.003 37.4414V42.125H190.273V24.0137H192.647C193.535 29.0052 194.291 33.1051 194.914 36.3135C194.885 34.9313 194.871 32.8867 194.871 30.1797V24.0137H196.601V42.125Z" fill="white"/>
<path d="M185.703 42.125H183.684V24.0137H185.703V42.125Z" fill="white"/>
<path d="M179.588 42.125H177.536L177.203 39.332H174.99C174.854 40.3203 174.736 41.2513 174.636 42.125H172.648L175.012 24.0137H177.364L179.588 42.125ZM175.184 37.4629H176.988C176.637 34.3978 176.344 31.6549 176.107 29.2344C175.814 32.2422 175.506 34.985 175.184 37.4629Z" fill="white"/>
<path d="M167.867 30.3301V27.2793C167.867 26.8639 167.778 26.5596 167.599 26.3662C167.42 26.1657 167.13 26.0654 166.729 26.0654H165.891V31.5439H166.75C167.137 31.5439 167.42 31.4473 167.599 31.2539C167.778 31.0605 167.867 30.7526 167.867 30.3301ZM165.891 42.125H163.871V24.0137H166.729C167.81 24.0137 168.605 24.2822 169.113 24.8193C169.622 25.3493 169.876 26.1764 169.876 27.3008V30.2656C169.876 31.3971 169.622 32.2243 169.113 32.7471C168.612 33.2627 167.824 33.5205 166.75 33.5205H165.891V42.125Z" fill="white"/>
<path d="M153.69 42.125H148.695V24.0137H153.572V26.0654H150.715V31.877H152.627V33.918H150.715V40.1055H153.69V42.125Z" fill="white"/>
<path d="M144.15 42.125H142.281V36.8398C142.281 34.2116 142.31 31.8519 142.367 29.7607C141.744 34.387 141.203 38.5085 140.745 42.125H138.983L137.394 29.7607C137.458 33.2913 137.49 35.651 137.49 36.8398V42.125H135.621V24.0137H138.317C138.726 27.8809 139.234 32.3424 139.843 37.3984C140.502 31.9486 141.014 27.487 141.379 24.0137H144.15V42.125Z" fill="white"/>
<path d="M125.434 39.2461V26.9033C125.434 25.8936 125.674 25.1273 126.153 24.6045C126.64 24.0817 127.364 23.8203 128.323 23.8203C130.257 23.8203 131.224 24.848 131.224 26.9033V39.2461C131.224 41.2943 130.257 42.3184 128.323 42.3184C127.364 42.3184 126.64 42.0605 126.153 41.5449C125.674 41.0221 125.434 40.2559 125.434 39.2461ZM129.204 39.2461V26.9033C129.204 26.2158 128.91 25.8721 128.323 25.8721C127.75 25.8721 127.464 26.2158 127.464 26.9033V39.2461C127.464 39.9479 127.75 40.2988 128.323 40.2988C128.91 40.2988 129.204 39.9479 129.204 39.2461Z" fill="white"/>
<path d="M119.189 39.332V36.7539C119.189 36.3672 119.143 36.0449 119.05 35.7871C118.964 35.5221 118.799 35.2357 118.556 34.9277C118.427 34.763 118.058 34.3226 117.449 33.6064C116.84 32.8903 116.364 32.2887 116.021 31.8018C115.655 31.2933 115.473 30.5306 115.473 29.5137V26.8174C115.473 24.8193 116.432 23.8203 118.352 23.8203C119.347 23.8203 120.063 24.0638 120.5 24.5508C120.937 25.0306 121.155 25.7861 121.155 26.8174V30.1152H119.254V26.8389C119.254 26.1943 118.971 25.8721 118.405 25.8721C118.112 25.8721 117.893 25.9473 117.75 26.0977C117.614 26.248 117.546 26.488 117.546 26.8174V29.4922C117.546 30.0221 117.66 30.4339 117.89 30.7275C118.112 31.014 118.52 31.5081 119.114 32.21C119.709 32.9046 120.153 33.4525 120.446 33.8535C120.74 34.2689 120.94 34.6914 121.048 35.1211C121.162 35.5508 121.22 36.0879 121.22 36.7324V39.332C121.22 41.3229 120.264 42.3184 118.352 42.3184C116.432 42.3184 115.473 41.3229 115.473 39.332V35.4863H117.428V39.332C117.428 39.6328 117.499 39.8691 117.643 40.041C117.793 40.2129 118.008 40.2988 118.287 40.2988C118.889 40.2988 119.189 39.9766 119.189 39.332Z" fill="white"/>
<path d="M103.295 31.0391V27.0967C103.295 26.7243 103.23 26.4593 103.102 26.3018C102.973 26.1442 102.758 26.0654 102.457 26.0654H101.555V31.9844H102.479C102.765 31.9844 102.973 31.9092 103.102 31.7588C103.23 31.6084 103.295 31.3685 103.295 31.0391ZM103.338 39.042V34.8203C103.338 34.4408 103.273 34.1722 103.145 34.0146C103.016 33.8499 102.794 33.7676 102.479 33.7676H101.555V40.1055H102.457C103.044 40.1055 103.338 39.751 103.338 39.042ZM102.457 42.125H99.5352V24.0137H102.457C103.424 24.0137 104.118 24.2679 104.541 24.7764C104.971 25.2777 105.186 26.0726 105.186 27.1611V30.835C105.186 31.3291 105.1 31.748 104.928 32.0918C104.763 32.4284 104.527 32.6504 104.219 32.7578C104.562 32.8366 104.845 33.0371 105.067 33.3594C105.297 33.6816 105.411 34.1113 105.411 34.6484V39.0635C105.411 40.1162 105.164 40.8896 104.67 41.3838C104.183 41.8779 103.445 42.125 102.457 42.125Z" fill="white"/>
<path d="M95.4824 42.125H93.4307L93.0977 39.332H90.8848C90.7487 40.3203 90.6305 41.2513 90.5303 42.125H88.543L90.9062 24.0137H93.2588L95.4824 42.125ZM91.0781 37.4629H92.8828C92.5319 34.3978 92.2383 31.6549 92.002 29.2344C91.7083 32.2422 91.4004 34.985 91.0781 37.4629Z" fill="white"/>
<path d="M82.7285 30.9746V27.6982C82.7285 27.1038 82.6569 26.6849 82.5137 26.4414C82.3704 26.1908 82.0697 26.0654 81.6113 26.0654H80.8379V32.1348H81.6328C82.0195 32.1348 82.2988 32.0417 82.4707 31.8555C82.6426 31.6693 82.7285 31.3757 82.7285 30.9746ZM84.9521 42.125H82.7285C82.2988 38.3867 81.9479 35.6725 81.6758 33.9824H80.8379V42.125H78.7969V24.0137H81.6113C82.6927 24.0137 83.4948 24.2679 84.0176 24.7764C84.5404 25.2848 84.8018 26.1191 84.8018 27.2793V30.9531C84.8018 31.6335 84.7051 32.1813 84.5117 32.5967C84.3184 33.012 84.0176 33.3343 83.6094 33.5635C83.9746 35.54 84.4222 38.3939 84.9521 42.125Z" fill="white"/>
<path d="M74.3799 42.2324H74.1436L73.4775 41.373C73.277 41.6882 72.9798 41.9245 72.5859 42.082C72.1992 42.2396 71.7695 42.3184 71.2969 42.3184C70.4518 42.3184 69.7822 42.0785 69.2881 41.5986C68.7939 41.1117 68.5469 40.3275 68.5469 39.2461V26.9248C68.5469 25.9294 68.7904 25.1631 69.2773 24.626C69.7715 24.0889 70.4984 23.8203 71.458 23.8203C73.32 23.8203 74.251 24.8551 74.251 26.9248V30.1152H72.4248V26.9033C72.4248 26.2158 72.1025 25.8721 71.458 25.8721C70.8708 25.8721 70.5771 26.2158 70.5771 26.9033V39.2461C70.5771 39.597 70.6523 39.862 70.8027 40.041C70.9603 40.2129 71.1715 40.2988 71.4365 40.2988C72.0524 40.2988 72.3818 39.9909 72.4248 39.375V35.4863H71.3506V33.542H74.3799V42.2324Z" fill="white"/>
<path fill-rule="evenodd" clip-rule="evenodd" d="M31.6452 45.9688C31.6452 38.789 37.4655 32.9688 44.6452 32.9688H52.8061V34.9688H44.6452C38.5701 34.9688 33.6452 39.8936 33.6452 45.9688V97.4886L38.3021 92.8318C38.6926 92.4413 39.3258 92.4413 39.7163 92.8318C40.1068 93.2223 40.1068 93.8555 39.7163 94.246L33.3523 100.61C32.9618 101 32.3286 101 31.9381 100.61L25.5741 94.246C25.1836 93.8555 25.1836 93.2223 25.5741 92.8318C25.9647 92.4413 26.5978 92.4413 26.9884 92.8318L31.6452 97.4886V45.9688Z" fill="white"/>
<defs>
<linearGradient id="paint0_linear_251_1574" x1="-3.32992" y1="72.3422" x2="362.936" y2="72.3422" gradientUnits="userSpaceOnUse">
<stop stop-color="#E5C888"/>
<stop offset="0.203125" stop-color="#C79807"/>
<stop offset="0.532825" stop-color="#E5C888"/>
<stop offset="0.793894" stop-color="#C79807"/>
<stop offset="1" stop-color="#E5C888"/>
</linearGradient>
</defs>
</svg>
