<svg width="363" height="190" viewBox="0 0 363 190" fill="none" xmlns="http://www.w3.org/2000/svg">
<path d="M330.792 189.203L298.648 157.027V78.0436C298.648 70.7505 292.755 64.8516 285.469 64.8516H0.576019L16.6479 48.7637L0.576019 32.6758L16.6479 16.5879L0.576019 0.5H311.952C340.113 0.5 362.936 23.3448 362.936 51.5344V157.027L330.792 189.203Z" fill="#F5C242"/>
<path fill-rule="evenodd" clip-rule="evenodd" d="M16.6479 48.7641L0.576019 64.852H285.469C292.755 64.852 298.648 70.7509 298.648 78.0441V157.028L330.791 189.203L362.936 157.028V51.5348C362.936 23.3453 340.113 0.500473 311.952 0.500473H0.576019L16.6479 16.5884L0.576019 32.6763L16.6479 48.7641ZM4.81656 32.6763L20.8884 48.7641L7.81357 61.852H285.469C294.415 61.852 301.648 69.0969 301.648 78.0441V155.786L330.792 184.959L359.936 155.786V51.5348C359.936 24.9993 338.454 3.50047 311.952 3.50047H7.81357L20.8884 16.5884L4.81656 32.6763Z" fill="url(#paint0_linear_251_1607)"/>
<path fill-rule="evenodd" clip-rule="evenodd" d="M331.867 45.9688C331.867 38.789 326.046 32.9688 318.867 32.9688H310.706V34.9688H318.867C324.942 34.9688 329.867 39.8936 329.867 45.9688V155.209L325.21 150.553C324.819 150.162 324.186 150.162 323.795 150.553C323.405 150.943 323.405 151.576 323.795 151.967L330.159 158.331C330.55 158.721 331.183 158.721 331.574 158.331L337.938 151.967C338.328 151.576 338.328 150.943 337.938 150.553C337.547 150.162 336.914 150.162 336.523 150.553L331.867 155.209V45.9688Z" fill="white"/>
<path d="M290.603 42H285.607V23.8887H290.484V25.9404H287.627V31.752H289.539V33.793H287.627V39.9805H290.603V42Z" fill="white"/>
<path d="M281.05 42H279.073C278.694 40.2669 278.21 38.0827 277.623 35.4473C277.036 32.8047 276.631 30.9427 276.409 29.8613C276.438 31.5156 276.452 34.0007 276.452 37.3164V42H274.723V23.8887H277.097C277.985 28.8802 278.74 32.9801 279.363 36.1885C279.335 34.8063 279.32 32.7617 279.32 30.0547V23.8887H281.05V42Z" fill="white"/>
<path d="M264.535 39.1211V26.7783C264.535 25.7686 264.775 25.0023 265.255 24.4795C265.742 23.9567 266.465 23.6953 267.425 23.6953C269.358 23.6953 270.325 24.723 270.325 26.7783V39.1211C270.325 41.1693 269.358 42.1934 267.425 42.1934C266.465 42.1934 265.742 41.9355 265.255 41.4199C264.775 40.8971 264.535 40.1309 264.535 39.1211ZM268.306 39.1211V26.7783C268.306 26.0908 268.012 25.7471 267.425 25.7471C266.852 25.7471 266.565 26.0908 266.565 26.7783V39.1211C266.565 39.8229 266.852 40.1738 267.425 40.1738C268.012 40.1738 268.306 39.8229 268.306 39.1211Z" fill="white"/>
<path d="M258.195 38.917V26.9932C258.195 26.2913 257.902 25.9404 257.314 25.9404H256.477V39.9805H257.314C257.902 39.9805 258.195 39.626 258.195 38.917ZM257.314 42H254.457V23.8887H257.314C258.267 23.8887 258.987 24.1608 259.474 24.7051C259.968 25.2493 260.215 26.012 260.215 26.9932V38.917C260.215 40.9723 259.248 42 257.314 42Z" fill="white"/>
<path d="M244.278 42H239.283V23.8887H244.16V25.9404H241.303V31.752H243.215V33.793H241.303V39.9805H244.278V42Z" fill="white"/>
<path d="M232.889 30.8496V27.5732C232.889 26.9788 232.817 26.5599 232.674 26.3164C232.531 26.0658 232.23 25.9404 231.771 25.9404H230.998V32.0098H231.793C232.18 32.0098 232.459 31.9167 232.631 31.7305C232.803 31.5443 232.889 31.2507 232.889 30.8496ZM235.112 42H232.889C232.459 38.2617 232.108 35.5475 231.836 33.8574H230.998V42H228.957V23.8887H231.771C232.853 23.8887 233.655 24.1429 234.178 24.6514C234.701 25.1598 234.962 25.9941 234.962 27.1543V30.8281C234.962 31.5085 234.865 32.0563 234.672 32.4717C234.479 32.887 234.178 33.2093 233.77 33.4385C234.135 35.415 234.582 38.2689 235.112 42Z" fill="white"/>
<path d="M223.079 27.9814H222.864V27.1543H223.058C223.215 27.1543 223.323 27.1185 223.38 27.0469C223.444 26.9753 223.477 26.8571 223.477 26.6924V26.1553H222.617V23.8887H224.519V26.5527C224.519 26.9824 224.4 27.3298 224.164 27.5947C223.928 27.8525 223.566 27.9814 223.079 27.9814Z" fill="white"/>
<path d="M216.211 39.1211V23.8887H218.23V39.1211C218.23 41.1693 217.271 42.1934 215.352 42.1934C213.432 42.1934 212.473 41.1693 212.473 39.1211V23.8887H214.492V39.1211C214.492 39.8229 214.779 40.1738 215.352 40.1738C215.924 40.1738 216.211 39.8229 216.211 39.1211Z" fill="white"/>
<path d="M202.285 39.1211V26.7783C202.285 25.7686 202.525 25.0023 203.005 24.4795C203.492 23.9567 204.215 23.6953 205.175 23.6953C207.108 23.6953 208.075 24.723 208.075 26.7783V39.1211C208.075 41.1693 207.108 42.1934 205.175 42.1934C204.215 42.1934 203.492 41.9355 203.005 41.4199C202.525 40.8971 202.285 40.1309 202.285 39.1211ZM206.056 39.1211V26.7783C206.056 26.0908 205.762 25.7471 205.175 25.7471C204.602 25.7471 204.315 26.0908 204.315 26.7783V39.1211C204.315 39.8229 204.602 40.1738 205.175 40.1738C205.762 40.1738 206.056 39.8229 206.056 39.1211Z" fill="white"/>
<path d="M196.16 42H194.098V34.083L191.67 23.8887H193.808C193.994 25.0059 194.266 26.4274 194.624 28.1533C194.989 29.8721 195.186 30.8353 195.215 31.043C195.243 30.821 195.448 29.847 195.827 28.1211C196.207 26.3952 196.493 24.9844 196.687 23.8887H198.674L196.16 34.083V42Z" fill="white"/>
<path d="M181.749 42H179.772C179.393 40.2669 178.91 38.0827 178.322 35.4473C177.735 32.8047 177.33 30.9427 177.108 29.8613C177.137 31.5156 177.151 34.0007 177.151 37.3164V42H175.422V23.8887H177.796C178.684 28.8802 179.439 32.9801 180.062 36.1885C180.034 34.8063 180.02 32.7617 180.02 30.0547V23.8887H181.749V42Z" fill="white"/>
<path d="M171.294 42H166.299V23.8887H171.176V25.9404H168.318V31.752H170.23V33.793H168.318V39.9805H171.294V42Z" fill="white"/>
<path d="M161.709 42H159.689V33.793H157.971V42H155.951V23.8887H157.971V31.7734H159.689V23.8887H161.709V42Z" fill="white"/>
<path d="M149.751 42H147.355C146.625 34.2441 146.253 30.0654 146.238 29.4639C146.231 29.6214 145.812 33.8001 144.981 42H142.564L140.695 23.8887H142.801C142.93 25.7077 143.087 27.6771 143.273 29.7969C143.46 31.9167 143.61 33.6318 143.725 34.9424C143.846 36.2529 143.914 37.0443 143.929 37.3164C143.929 37.3092 144.405 32.8333 145.357 23.8887H147.248C147.406 25.6289 147.585 27.5947 147.785 29.7861C147.993 31.9704 148.154 33.6963 148.269 34.9639C148.39 36.2314 148.462 37.0156 148.483 37.3164C148.498 37.0228 148.569 36.235 148.698 34.9531C148.827 33.6712 148.999 31.9489 149.214 29.7861C149.429 27.6234 149.615 25.6576 149.772 23.8887H151.91L149.751 42Z" fill="white"/>
<path d="M131.063 42H126.068V23.8887H130.945V25.9404H128.088V31.752H130V33.793H128.088V39.9805H131.063V42Z" fill="white"/>
<path d="M119.812 42H117.105L115.043 23.8887H117.148C117.292 25.5 117.478 27.4587 117.707 29.7646C117.936 32.0706 118.122 33.9792 118.266 35.4902C118.409 37.0013 118.491 37.9967 118.513 38.4766C118.541 38.0111 118.638 37.012 118.803 35.4795C118.967 33.9469 119.168 32.0527 119.404 29.7969C119.648 27.5339 119.848 25.5645 120.006 23.8887H122.036L119.812 42Z" fill="white"/>
<path d="M112.076 42H110.024L109.691 39.207H107.479C107.342 40.1953 107.224 41.1263 107.124 42H105.137L107.5 23.8887H109.853L112.076 42ZM107.672 37.3379H109.477C109.126 34.2728 108.832 31.5299 108.596 29.1094C108.302 32.1172 107.994 34.86 107.672 37.3379Z" fill="white"/>
<path d="M99.5488 39.207V36.6289C99.5488 36.2422 99.5023 35.9199 99.4092 35.6621C99.3232 35.3971 99.1585 35.1107 98.915 34.8027C98.7861 34.638 98.4173 34.1976 97.8086 33.4814C97.1999 32.7653 96.7236 32.1637 96.3799 31.6768C96.0146 31.1683 95.832 30.4056 95.832 29.3887V26.6924C95.832 24.6943 96.7917 23.6953 98.7109 23.6953C99.7064 23.6953 100.423 23.9388 100.859 24.4258C101.296 24.9056 101.515 25.6611 101.515 26.6924V29.9902H99.6133V26.7139C99.6133 26.0693 99.3304 25.7471 98.7646 25.7471C98.471 25.7471 98.2526 25.8223 98.1094 25.9727C97.9733 26.123 97.9053 26.363 97.9053 26.6924V29.3672C97.9053 29.8971 98.0199 30.3089 98.249 30.6025C98.471 30.889 98.8792 31.3831 99.4736 32.085C100.068 32.7796 100.512 33.3275 100.806 33.7285C101.099 34.1439 101.3 34.5664 101.407 34.9961C101.522 35.4258 101.579 35.9629 101.579 36.6074V39.207C101.579 41.1979 100.623 42.1934 98.7109 42.1934C96.7917 42.1934 95.832 41.1979 95.832 39.207V35.3613H97.7871V39.207C97.7871 39.5078 97.8587 39.7441 98.002 39.916C98.1523 40.0879 98.3672 40.1738 98.6465 40.1738C99.248 40.1738 99.5488 39.8516 99.5488 39.207Z" fill="white"/>
<path d="M84.1807 42H82.1611V25.9404H80.2598V23.8887H86.0713V25.9404H84.1807V42Z" fill="white"/>
<path d="M76.207 42H74.1875V23.8887H76.207V42Z" fill="white"/>
<path d="M69.5547 42H67.5352V33.793H65.8164V42H63.7969V23.8887H65.8164V31.7734H67.5352V23.8887H69.5547V42Z" fill="white"/>
<defs>
<linearGradient id="paint0_linear_251_1607" x1="366.842" y1="105.834" x2="0.576015" y2="105.834" gradientUnits="userSpaceOnUse">
<stop stop-color="#E5C888"/>
<stop offset="0.203125" stop-color="#C79807"/>
<stop offset="0.532825" stop-color="#E5C888"/>
<stop offset="0.793894" stop-color="#C79807"/>
<stop offset="1" stop-color="#E5C888"/>
</linearGradient>
</defs>
</svg>
