<svg width="40" height="40" viewBox="0 0 40 40" fill="none" xmlns="http://www.w3.org/2000/svg">
<path d="M4 33.2875V7.1625C4 5.4125 5.4125 4 7.1625 4H33.2875C35.0375 4 36.45 5.4125 36.45 7.1625V28.3375L28.3375 36.45H7.1625C5.4125 36.45 4 35.0375 4 33.2875Z" fill="white" stroke="#231F20" stroke-width="1.8" stroke-miterlimit="10"/>
<path d="M27.6865 36.1164V29.6289C27.6865 28.7289 28.4115 28.0039 29.3115 28.0039H35.799" fill="#231F20"/>
<path d="M15.2469 18.6382C16.6207 18.6382 17.7344 17.5245 17.7344 16.1507C17.7344 14.7769 16.6207 13.6632 15.2469 13.6632C13.8731 13.6632 12.7594 14.7769 12.7594 16.1507C12.7594 17.5245 13.8731 18.6382 15.2469 18.6382Z" fill="#231F20"/>
<path d="M25.1981 18.6382C26.5719 18.6382 27.6856 17.5245 27.6856 16.1507C27.6856 14.7769 26.5719 13.6632 25.1981 13.6632C23.8243 13.6632 22.7106 14.7769 22.7106 16.1507C22.7106 17.5245 23.8243 18.6382 25.1981 18.6382Z" fill="#231F20"/>
<path d="M20.2231 27.6232C17.3981 27.6232 14.5606 26.5482 12.4106 24.3857L13.9731 22.8232C17.4231 26.2732 23.0356 26.2732 26.4856 22.8232L28.0481 24.3857C25.8981 26.5357 23.0606 27.6232 20.2356 27.6232H20.2231Z" fill="#231F20"/>
</svg>
