<svg width="110" height="110" viewBox="0 0 110 110" fill="none" xmlns="http://www.w3.org/2000/svg">
<path d="M87.6578 99.0084L78.9846 98.1855L75.1039 105.98L66.945 102.945L61.1754 109.472L54.0779 104.423L46.8214 109.234L41.2715 102.524L33.0144 105.292L29.3909 97.3766L20.699 97.9096L19.2496 89.3253L10.712 87.5953L11.5349 78.9221L3.73602 75.0414L6.77514 66.8825L0.248047 61.1129L5.29299 54.0154L0.481825 46.7589L7.19594 41.209L4.42333 32.9519L12.3437 29.3284L11.8061 20.6365L20.3951 19.1871L22.125 10.6495L30.7935 11.4724L34.6743 3.67352L42.8378 6.71264L48.6028 0.185547L55.7003 5.23049L62.9615 0.419325L68.5114 7.13344L76.7684 4.36083L80.392 12.2812L89.0839 11.7436L90.5333 20.3326L99.0709 22.0625L98.248 30.731L106.042 34.6118L103.008 42.7753L109.535 48.5403L104.485 55.6378L109.296 62.899L102.587 68.4489L105.355 76.7059L97.4391 80.3295L97.9721 89.0214L89.3878 90.4708L87.6578 99.0084Z" fill="#d9c786"/>
</svg>
