<svg width="360" height="211" viewBox="0 0 360 211" fill="none" xmlns="http://www.w3.org/2000/svg">
<path d="M1.94063 201.039V183.086C1.94063 181.617 2.28959 180.503 2.9875 179.742C3.69584 178.982 4.74792 178.602 6.14375 178.602C8.95625 178.602 10.3625 180.096 10.3625 183.086V201.039C10.3625 204.018 8.95625 205.508 6.14375 205.508C4.74792 205.508 3.69584 205.133 2.9875 204.383C2.28959 203.622 1.94063 202.508 1.94063 201.039ZM7.425 201.039V183.086C7.425 182.086 6.99792 181.586 6.14375 181.586C5.31042 181.586 4.89375 182.086 4.89375 183.086V201.039C4.89375 202.06 5.31042 202.57 6.14375 202.57C6.99792 202.57 7.425 202.06 7.425 201.039ZM19.775 189.008V184.242C19.775 183.378 19.6708 182.768 19.4625 182.414C19.2542 182.049 18.8167 181.867 18.15 181.867H17.025V190.695H18.1813C18.7438 190.695 19.15 190.56 19.4 190.289C19.65 190.018 19.775 189.591 19.775 189.008ZM23.0094 205.227H19.775C19.15 199.789 18.6396 195.841 18.2438 193.383H17.025V205.227H14.0563V178.883H18.15C19.7229 178.883 20.8896 179.253 21.65 179.992C22.4104 180.732 22.7906 181.945 22.7906 183.633V188.977C22.7906 189.966 22.65 190.763 22.3688 191.367C22.0875 191.971 21.65 192.44 21.0563 192.773C21.5875 195.648 22.2385 199.799 23.0094 205.227ZM32.0531 201.039V183.086C32.0531 181.617 32.4021 180.503 33.1 179.742C33.8083 178.982 34.8604 178.602 36.2563 178.602C39.0688 178.602 40.475 180.096 40.475 183.086V201.039C40.475 204.018 39.0688 205.508 36.2563 205.508C34.8604 205.508 33.8083 205.133 33.1 204.383C32.4021 203.622 32.0531 202.508 32.0531 201.039ZM37.5375 201.039V183.086C37.5375 182.086 37.1104 181.586 36.2563 181.586C35.4229 181.586 35.0063 182.086 35.0063 183.086V201.039C35.0063 202.06 35.4229 202.57 36.2563 202.57C37.1104 202.57 37.5375 202.06 37.5375 201.039ZM53.3094 205.227H50.4344C49.8823 202.706 49.1792 199.529 48.325 195.695C47.4708 191.852 46.8823 189.143 46.5594 187.57C46.601 189.977 46.6219 193.591 46.6219 198.414V205.227H44.1063V178.883H47.5594C48.851 186.143 49.95 192.107 50.8563 196.773C50.8146 194.763 50.7938 191.789 50.7938 187.852V178.883H53.3094V205.227ZM64.4406 205.227H57.175V178.883H64.2688V181.867H60.1125V190.32H62.8938V193.289H60.1125V202.289H64.4406V205.227ZM73.5156 201.039V183.086C73.5156 181.617 73.8646 180.503 74.5625 179.742C75.2708 178.982 76.3229 178.602 77.7188 178.602C80.5312 178.602 81.9375 180.096 81.9375 183.086V201.039C81.9375 204.018 80.5312 205.508 77.7188 205.508C76.3229 205.508 75.2708 205.133 74.5625 204.383C73.8646 203.622 73.5156 202.508 73.5156 201.039ZM79 201.039V183.086C79 182.086 78.5729 181.586 77.7188 181.586C76.8854 181.586 76.4688 182.086 76.4688 183.086V201.039C76.4688 202.06 76.8854 202.57 77.7188 202.57C78.5729 202.57 79 202.06 79 201.039ZM88.6 205.227H85.6625V178.883H92.9281V181.867H88.6V190.445H91.4125V193.414H88.6V205.227ZM110.269 205.227H107.331V193.289H104.831V205.227H101.894V178.883H104.831V190.352H107.331V178.883H110.269V205.227ZM119.525 201.039V178.883H122.463V201.039C122.463 204.018 121.067 205.508 118.275 205.508C115.483 205.508 114.088 204.018 114.088 201.039V178.883H117.025V201.039C117.025 202.06 117.442 202.57 118.275 202.57C119.108 202.57 119.525 202.06 119.525 201.039ZM135.391 205.227H132.516C131.964 202.706 131.26 199.529 130.406 195.695C129.552 191.852 128.964 189.143 128.641 187.57C128.682 189.977 128.703 193.591 128.703 198.414V205.227H126.188V178.883H129.641C130.932 186.143 132.031 192.107 132.938 196.773C132.896 194.763 132.875 191.789 132.875 187.852V178.883H135.391V205.227ZM144.694 200.742V183.398C144.694 182.378 144.267 181.867 143.413 181.867H142.194V202.289H143.413C144.267 202.289 144.694 201.773 144.694 200.742ZM143.413 205.227H139.256V178.883H143.413C144.798 178.883 145.845 179.279 146.553 180.07C147.272 180.862 147.631 181.971 147.631 183.398V200.742C147.631 203.732 146.225 205.227 143.413 205.227ZM157.044 189.008V184.242C157.044 183.378 156.94 182.768 156.731 182.414C156.523 182.049 156.085 181.867 155.419 181.867H154.294V190.695H155.45C156.012 190.695 156.419 190.56 156.669 190.289C156.919 190.018 157.044 189.591 157.044 189.008ZM160.278 205.227H157.044C156.419 199.789 155.908 195.841 155.512 193.383H154.294V205.227H151.325V178.883H155.419C156.992 178.883 158.158 179.253 158.919 179.992C159.679 180.732 160.059 181.945 160.059 183.633V188.977C160.059 189.966 159.919 190.763 159.637 191.367C159.356 191.971 158.919 192.44 158.325 192.773C158.856 195.648 159.507 199.799 160.278 205.227ZM170.847 205.227H163.581V178.883H170.675V181.867H166.519V190.32H169.3V193.289H166.519V202.289H170.847V205.227ZM179.619 200.742V183.398C179.619 182.378 179.192 181.867 178.338 181.867H177.119V202.289H178.338C179.192 202.289 179.619 201.773 179.619 200.742ZM178.338 205.227H174.181V178.883H178.338C179.723 178.883 180.77 179.279 181.478 180.07C182.197 180.862 182.556 181.971 182.556 183.398V200.742C182.556 203.732 181.15 205.227 178.338 205.227ZM191.328 201.164V197.414C191.328 196.852 191.26 196.383 191.125 196.008C191 195.622 190.76 195.206 190.406 194.758C190.219 194.518 189.682 193.878 188.797 192.836C187.911 191.794 187.219 190.919 186.719 190.211C186.188 189.471 185.922 188.362 185.922 186.883V182.961C185.922 180.055 187.318 178.602 190.109 178.602C191.557 178.602 192.599 178.956 193.234 179.664C193.87 180.362 194.188 181.461 194.188 182.961V187.758H191.422V182.992C191.422 182.055 191.01 181.586 190.188 181.586C189.76 181.586 189.443 181.695 189.234 181.914C189.036 182.133 188.938 182.482 188.938 182.961V186.852C188.938 187.622 189.104 188.221 189.438 188.648C189.76 189.065 190.354 189.784 191.219 190.805C192.083 191.815 192.729 192.612 193.156 193.195C193.583 193.799 193.875 194.414 194.031 195.039C194.198 195.664 194.281 196.445 194.281 197.383V201.164C194.281 204.06 192.891 205.508 190.109 205.508C187.318 205.508 185.922 204.06 185.922 201.164V195.57H188.766V201.164C188.766 201.602 188.87 201.945 189.078 202.195C189.297 202.445 189.609 202.57 190.016 202.57C190.891 202.57 191.328 202.102 191.328 201.164ZM203.591 201.039V183.086C203.591 181.617 203.94 180.503 204.637 179.742C205.346 178.982 206.398 178.602 207.794 178.602C210.606 178.602 212.012 180.096 212.012 183.086V201.039C212.012 204.018 210.606 205.508 207.794 205.508C206.398 205.508 205.346 205.133 204.637 204.383C203.94 203.622 203.591 202.508 203.591 201.039ZM209.075 201.039V183.086C209.075 182.086 208.648 181.586 207.794 181.586C206.96 181.586 206.544 182.086 206.544 183.086V201.039C206.544 202.06 206.96 202.57 207.794 202.57C208.648 202.57 209.075 202.06 209.075 201.039ZM218.675 205.227H215.738V178.883H223.003V181.867H218.675V190.445H221.488V193.414H218.675V205.227ZM231.766 201.039V183.086C231.766 181.617 232.115 180.503 232.812 179.742C233.521 178.982 234.573 178.602 235.969 178.602C238.781 178.602 240.188 180.096 240.188 183.086V201.039C240.188 204.018 238.781 205.508 235.969 205.508C234.573 205.508 233.521 205.133 232.812 204.383C232.115 203.622 231.766 202.508 231.766 201.039ZM237.25 201.039V183.086C237.25 182.086 236.823 181.586 235.969 181.586C235.135 181.586 234.719 182.086 234.719 183.086V201.039C234.719 202.06 235.135 202.57 235.969 202.57C236.823 202.57 237.25 202.06 237.25 201.039ZM248.459 205.227H245.522V181.867H242.756V178.883H251.209V181.867H248.459V205.227ZM262.669 205.227H259.731V193.289H257.231V205.227H254.294V178.883H257.231V190.352H259.731V178.883H262.669V205.227ZM273.847 205.227H266.581V178.883H273.675V181.867H269.519V190.32H272.3V193.289H269.519V202.289H273.847V205.227ZM282.869 189.008V184.242C282.869 183.378 282.765 182.768 282.556 182.414C282.348 182.049 281.91 181.867 281.244 181.867H280.119V190.695H281.275C281.838 190.695 282.244 190.56 282.494 190.289C282.744 190.018 282.869 189.591 282.869 189.008ZM286.103 205.227H282.869C282.244 199.789 281.733 195.841 281.338 193.383H280.119V205.227H277.15V178.883H281.244C282.817 178.883 283.983 179.253 284.744 179.992C285.504 180.732 285.884 181.945 285.884 183.633V188.977C285.884 189.966 285.744 190.763 285.463 191.367C285.181 191.971 284.744 192.44 284.15 192.773C284.681 195.648 285.332 199.799 286.103 205.227ZM301.162 188.07V183.633C301.162 183.029 301.032 182.586 300.772 182.305C300.511 182.013 300.09 181.867 299.506 181.867H298.287V189.836H299.537C300.1 189.836 300.511 189.695 300.772 189.414C301.032 189.133 301.162 188.685 301.162 188.07ZM298.287 205.227H295.35V178.883H299.506C301.079 178.883 302.235 179.273 302.975 180.055C303.715 180.826 304.084 182.029 304.084 183.664V187.977C304.084 189.622 303.715 190.826 302.975 191.586C302.246 192.336 301.1 192.711 299.537 192.711H298.287V205.227ZM313.013 189.008V184.242C313.013 183.378 312.908 182.768 312.7 182.414C312.492 182.049 312.054 181.867 311.388 181.867H310.263V190.695H311.419C311.981 190.695 312.388 190.56 312.638 190.289C312.888 190.018 313.013 189.591 313.013 189.008ZM316.247 205.227H313.013C312.388 199.789 311.877 195.841 311.481 193.383H310.263V205.227H307.294V178.883H311.388C312.96 178.883 314.127 179.253 314.888 179.992C315.648 180.732 316.028 181.945 316.028 183.633V188.977C316.028 189.966 315.888 190.763 315.606 191.367C315.325 191.971 314.888 192.44 314.294 192.773C314.825 195.648 315.476 199.799 316.247 205.227ZM322.55 205.227H319.612V178.883H322.55V205.227ZM334.525 205.227H326.134V202.211L331.572 181.773H326.353V178.883H334.525V181.539L329.213 202.211H334.525V205.227ZM345.266 205.227H338V178.883H345.094V181.867H340.938V190.32H343.719V193.289H340.938V202.289H345.266V205.227ZM353.647 201.164V197.414C353.647 196.852 353.579 196.383 353.444 196.008C353.319 195.622 353.079 195.206 352.725 194.758C352.537 194.518 352.001 193.878 351.116 192.836C350.23 191.794 349.537 190.919 349.037 190.211C348.506 189.471 348.241 188.362 348.241 186.883V182.961C348.241 180.055 349.636 178.602 352.428 178.602C353.876 178.602 354.918 178.956 355.553 179.664C356.189 180.362 356.506 181.461 356.506 182.961V187.758H353.741V182.992C353.741 182.055 353.329 181.586 352.506 181.586C352.079 181.586 351.761 181.695 351.553 181.914C351.355 182.133 351.256 182.482 351.256 182.961V186.852C351.256 187.622 351.423 188.221 351.756 188.648C352.079 189.065 352.673 189.784 353.537 190.805C354.402 191.815 355.048 192.612 355.475 193.195C355.902 193.799 356.194 194.414 356.35 195.039C356.517 195.664 356.6 196.445 356.6 197.383V201.164C356.6 204.06 355.209 205.508 352.428 205.508C349.636 205.508 348.241 204.06 348.241 201.164V195.57H351.084V201.164C351.084 201.602 351.189 201.945 351.397 202.195C351.616 202.445 351.928 202.57 352.334 202.57C353.209 202.57 353.647 202.102 353.647 201.164Z" fill="white"/>
<g clip-path="url(#clip0_7501_5541)">
<path d="M64.3598 147.136C63.8079 142.336 63.2121 136.804 62.5535 130.528C61.895 124.259 61.2364 117.739 60.5842 110.976C59.9256 104.213 59.2734 97.4494 58.6148 90.6861C57.9563 83.9228 57.3856 77.6533 56.8901 71.8714C56.4009 66.0895 55.9556 61.0451 55.5793 56.7384C55.1967 52.4316 54.9458 49.2938 54.8392 47.331C54.7263 49.2938 54.4817 52.4316 54.0991 56.7384C53.7165 61.0451 53.2461 66.0895 52.7005 71.8714C52.1486 77.6533 51.5528 83.9228 50.8942 90.6861C50.2357 97.4494 49.527 104.213 48.7618 110.976C47.9966 117.739 47.2566 124.259 46.5479 130.528C45.8329 136.804 45.1555 142.336 44.497 147.136H29.2314L14.1226 12.477H27.0927C27.7512 18.0401 28.4348 24.2033 29.1436 30.9666C29.8523 37.7299 30.561 44.687 31.276 51.8253C31.9847 58.9699 32.6432 66.0332 33.2453 73.0153C33.8474 79.9974 34.4182 86.4606 34.9701 92.4051C35.5157 98.3495 36.0112 103.613 36.444 108.194C36.8767 112.776 37.2091 116.158 37.4286 118.339C37.6481 116.158 38.0056 112.776 38.4948 108.194C38.984 103.613 39.561 98.3495 40.2196 92.4051C40.8781 86.4606 41.5555 79.9974 42.2705 73.0153C42.9792 66.0332 43.7506 58.9762 44.5722 51.8253C45.3938 44.6807 46.1841 37.7299 46.9492 30.9666C47.7144 24.2033 48.4294 18.0401 49.0817 12.477H61.5563L71.7355 118.333C71.955 116.152 72.3062 112.77 72.8017 108.188C73.2971 103.606 73.8679 98.3433 74.5264 92.3988C75.185 86.4544 75.8686 79.9911 76.5773 73.009C77.286 66.027 78.0575 58.9699 78.8728 51.8191C79.6944 44.6745 80.4846 37.7237 81.2561 30.9604C82.0212 24.1971 82.73 18.0339 83.3885 12.4707H96.5217L79.4498 147.124H64.3473L64.3598 147.136Z" fill="white"/>
<path d="M115.742 12.4766H103.267V147.13H115.742V12.4766Z" fill="white"/>
<path d="M158.096 147.136L134.784 48.8058C134.891 59.057 134.947 69.0144 134.947 78.6656V147.136H124.109V12.4766H139.049L159.733 111.138C159.62 101.868 159.57 92.786 159.57 83.8974V12.4766H170.571V147.13H158.096V147.136Z" fill="white"/>
<mask id="mask0_7501_5541" style="mask-type:luminance" maskUnits="userSpaceOnUse" x="12" y="-1" width="159" height="7">
<path d="M170.986 -0.00292969H12.0078V5.23518H170.986V-0.00292969Z" fill="white"/>
</mask>
<g mask="url(#mask0_7501_5541)">
<path d="M170.986 -0.00292969H12.0078V5.23518H170.986V-0.00292969Z" fill="url(#paint0_linear_7501_5541)"/>
</g>
<mask id="mask1_7501_5541" style="mask-type:luminance" maskUnits="userSpaceOnUse" x="12" y="154" width="159" height="6">
<path d="M170.986 154.762H12.0078V160H170.986V154.762Z" fill="white"/>
</mask>
<g mask="url(#mask1_7501_5541)">
<path d="M170.986 154.762H12.0078V160H170.986V154.762Z" fill="url(#paint1_linear_7501_5541)"/>
</g>
<path d="M202.867 71.8032L201.581 61.9645H192.782L191.496 71.8032H186.203L194.287 13.1338H200.653L208.305 71.8032H202.867ZM200.935 56.9764C200.314 51.9383 199.693 46.9377 199.079 41.9684C198.458 37.0053 197.862 31.9797 197.291 26.8916C196.67 31.9797 196.037 37.0053 195.397 41.9684C194.751 46.9377 194.099 51.9383 193.428 56.9764H200.941H200.935Z" fill="white"/>
<path d="M226.398 71.8032V18.6219H219.813V13.1338H238.415V18.6219H231.836V71.8032H226.398Z" fill="white"/>
<path d="M255.581 71.8032C254.96 67.2901 254.32 62.8334 253.649 58.4328C252.985 54.0386 252.244 49.6068 251.429 45.1375C251.191 45.1875 250.978 45.2063 250.783 45.2063H247.208V71.7969H241.771V13.1338H250.676C254.095 13.1338 256.647 13.9276 258.334 15.5216C260.021 17.1155 260.868 19.8346 260.868 23.685V35.3739C260.868 39.6494 259.432 42.5247 256.566 43.9999C257.506 48.6567 258.378 53.3135 259.175 57.9765C259.971 62.6333 260.73 67.2464 261.439 71.8032H255.575H255.581ZM255.437 24.3976C255.437 22.3099 255.123 20.8222 254.509 19.9408C253.888 19.0595 252.627 18.6219 250.72 18.6219H247.214V40.2932H250.789C252.458 40.2932 253.649 39.8994 254.364 39.1181C255.079 38.3367 255.437 37.1116 255.437 35.4489V24.3976Z" fill="white"/>
<path d="M271.035 13.1338H265.598V71.8032H271.035V13.1338Z" fill="white"/>
<path d="M276.466 71.8032V13.1338H285.654C289.103 13.1338 291.65 13.9901 293.299 15.6966C294.949 17.4093 295.777 20.0909 295.777 23.7538V33.3799C295.777 37.0866 294.961 39.7744 293.331 41.4371C291.7 43.0998 289.16 43.9311 285.71 43.9311H281.897V71.8032H276.459H276.466ZM290.345 23.7538C290.345 21.9973 289.988 20.6972 289.273 19.8658C288.558 19.0345 287.341 18.6157 285.623 18.6157H281.903V38.6493H285.698C287.272 38.6493 288.439 38.243 289.204 37.4366C289.969 36.6303 290.352 35.3239 290.352 33.5174V23.7538H290.345Z" fill="white"/>
<path d="M313.947 71.8032V18.6219H307.368V13.1338H325.964V18.6219H319.384V71.8032H313.947Z" fill="white"/>
<path d="M328.185 22.4687C328.185 19.1871 328.943 16.7056 330.474 15.0179C331.998 13.3302 334.312 12.4863 337.41 12.4863C340.509 12.4863 342.892 13.3302 344.422 15.0179C345.946 16.7056 346.712 19.1871 346.712 22.4687V62.4609C346.712 65.7426 345.946 68.2241 344.422 69.9118C342.898 71.5995 340.559 72.4433 337.41 72.4433C334.262 72.4433 331.998 71.5995 330.474 69.9118C328.95 68.2241 328.185 65.7426 328.185 62.4609V22.4687ZM341.274 22.4687C341.274 19.4746 339.988 17.9745 337.41 17.9745C334.833 17.9745 333.616 19.4684 333.616 22.4687V62.4609C333.616 65.5488 334.877 67.099 337.41 67.099C339.944 67.099 341.274 65.555 341.274 62.4609V22.4687Z" fill="white"/>
<path d="M214.6 147.143V125.759C214.6 120.546 214.612 115.451 214.644 110.47C214.675 105.488 214.713 100.393 214.775 95.1803L207.105 147.143H201.329L193.746 95.1803C193.803 100.393 193.846 105.488 193.878 110.47C193.909 115.451 193.922 120.546 193.922 125.759V147.143H187.888V76.4531H196.681L204.176 131.678L211.671 76.4531H220.721V147.143H214.6Z" fill="white"/>
<path d="M244.85 147.143L243.3 135.291H232.701L231.152 147.143H224.773L234.514 76.4531H242.184L251.404 147.143H244.856H244.85ZM242.523 129.278C241.776 123.209 241.03 117.208 240.284 111.282C239.537 105.357 238.816 99.2746 238.132 93.0301C237.386 99.2746 236.627 105.357 235.849 111.282C235.072 117.208 234.282 123.209 233.479 129.278H242.529H242.523Z" fill="white"/>
<path d="M300.518 147.143C299.771 141.592 298.994 136.191 298.191 130.953C297.388 125.715 296.497 120.402 295.519 115.02C295.23 115.076 294.973 115.108 294.741 115.108H290.433V147.143H283.885V76.4531H294.66C298.799 76.4531 301.885 77.4095 303.923 79.3285C305.962 81.2474 306.984 84.5228 306.984 89.1609V103.244C306.984 108.401 305.234 111.864 301.728 113.639C302.876 119.364 303.942 124.99 304.92 130.516C305.899 136.041 306.815 141.586 307.68 147.136H300.53L300.518 147.143ZM300.348 90.0235C300.348 87.4482 299.972 85.6417 299.226 84.6103C298.479 83.579 296.955 83.0602 294.66 83.0602H290.439V109.169H294.748C296.761 109.169 298.197 108.694 299.056 107.751C299.922 106.807 300.348 105.332 300.348 103.325V90.011V90.0235Z" fill="white"/>
<path d="M319.221 76.4531H312.673V147.143H319.221V76.4531Z" fill="white"/>
<path d="M325.768 147.143V76.4531H336.8C340.594 76.4531 343.404 77.5282 345.248 79.6722C347.085 81.8225 348.007 84.7853 348.007 88.5608V135.116C348.007 143.136 344.269 147.136 336.806 147.136H325.774L325.768 147.143ZM341.453 88.6546C341.453 86.8794 341.065 85.5042 340.287 84.5291C339.515 83.554 338.349 83.0664 336.8 83.0664H332.315V140.698H336.8C339.904 140.698 341.453 138.835 341.453 135.116V88.6483V88.6546Z" fill="white"/>
<path d="M266.695 139.743C274.164 139.743 277.896 136.149 277.896 128.954V87.187C277.896 83.7929 276.974 81.1363 275.137 79.2111C273.299 77.2859 270.483 76.3232 266.688 76.3232H255.656V139.749H266.688L266.695 139.743ZM271.348 128.954C271.348 132.292 269.799 133.961 266.695 133.961H262.217V82.2489H266.695C268.244 82.2489 269.41 82.6865 270.182 83.5616C270.959 84.4367 271.348 85.6681 271.348 87.262V128.954Z" fill="white"/>
<path d="M278.177 142.553H255.667V147.141H278.177V142.553Z" fill="white"/>
</g>
<defs>
<linearGradient id="paint0_linear_7501_5541" x1="12.3375" y1="4.55035" x2="171.315" y2="4.55035" gradientUnits="userSpaceOnUse">
<stop stop-color="#DDC081"/>
<stop offset="0.24" stop-color="#BF911F"/>
<stop offset="0.52" stop-color="#DDC081"/>
<stop offset="0.79" stop-color="#BF911F"/>
<stop offset="1" stop-color="#DDC081"/>
</linearGradient>
<linearGradient id="paint1_linear_7501_5541" x1="8323.71" y1="159.309" x2="8482.69" y2="159.309" gradientUnits="userSpaceOnUse">
<stop stop-color="#DDC081"/>
<stop offset="0.24" stop-color="#BF911F"/>
<stop offset="0.52" stop-color="#DDC081"/>
<stop offset="0.79" stop-color="#BF911F"/>
<stop offset="1" stop-color="#DDC081"/>
</linearGradient>
<clipPath id="clip0_7501_5541">
<rect width="336" height="160" fill="white" transform="translate(12)"/>
</clipPath>
</defs>
</svg>
