<svg width="92" height="131" viewBox="0 0 92 131" fill="none" xmlns="http://www.w3.org/2000/svg">
<path d="M91.7404 8.69611L91.7244 8.60029C91.6406 8.11717 91.4888 7.21881 90.8979 6.2925C89.2849 3.74915 86.8812 1.97639 83.7629 1.02613C82.6729 0.690738 81.5989 0.48711 80.6526 0.307438C80.2893 0.239562 79.9299 0.171686 79.5706 0.0918322L79.1394 0H74.7634L74.2124 0.247548C71.0182 0.535022 68.1834 1.65697 65.7998 2.739C60.9446 4.93898 56.9998 8.25292 53.4583 11.499C51.5857 13.2159 49.6972 14.9686 47.8645 16.6695L44.4707 15.5117C43.3448 15.1284 42.1989 14.9327 41.057 14.9327C38.7173 14.9327 36.8087 15.7472 35.579 16.3581C32.2411 18.0191 30.2128 20.6183 28.2604 23.3533L28.0607 23.6328C27.39 24.5751 26.8629 25.2898 26.3518 25.7969C25.6252 23.7286 24.2637 21.864 22.3272 20.5345C20.6343 19.3686 18.5781 18.7497 16.3901 18.7497C12.3814 18.7497 8.56834 20.8459 6.6758 24.088C6.14078 25.0063 5.71356 25.9047 5.30231 26.7751C4.91103 27.6016 4.5397 28.3801 4.14043 29.0349C2.16804 32.2371 1.07004 35.8904 0.790555 40.1946C0.754621 40.7416 0.582935 41.4443 0.39927 42.1909C0.291467 42.6381 0.179672 43.0893 0.0878395 43.5364L0 43.9597V48.3237L0.223591 48.9825C0.411249 49.5375 0.614876 50.0925 0.814512 50.6435C1.23774 51.8013 1.63302 52.8954 1.88056 53.9295C2.16804 55.1432 2.44753 56.5247 2.34771 57.5868C2.23192 58.8365 1.82467 60.222 1.39345 61.6913C1.28565 62.0626 1.17785 62.4299 1.07404 62.7893C0.0479125 66.3947 -0.0439197 69.4331 0.786563 72.3478C1.1499 73.6295 1.65298 74.983 2.36767 76.612C3.02248 78.0973 3.12229 79.89 3.23808 81.9622L3.26204 82.3775C3.34589 83.8308 3.48164 85.2682 3.6094 86.6577C3.78109 88.5222 3.94878 90.283 3.9967 92.0318C4.07655 94.9425 4.49578 97.8811 5.27836 101.007C5.40612 101.522 5.54187 102.038 5.67763 102.553C6.23261 104.657 6.75566 106.645 6.6758 108.502C6.64386 109.216 6.66782 109.891 6.68778 110.486C6.71174 111.165 6.7317 111.804 6.66782 112.243C6.53206 113.141 6.28052 114.104 6.01301 115.122C5.81737 115.872 5.61374 116.651 5.43407 117.489C5.25839 118.328 4.79524 120.56 6.12481 122.492C7.84566 124.976 10.3571 126.952 13.3955 128.214C15.328 129.016 17.2525 129.435 19.1171 129.847L19.8078 129.998C21.6285 130.402 23.4252 130.609 25.15 130.609C26.6513 130.609 28.1446 130.454 29.6019 130.15C32.305 129.575 34.4451 128.31 36.3336 127.188L36.7888 126.916C38.33 125.998 39.5917 124.417 40.0708 122.804C40.6298 120.943 41.065 119.174 41.3724 117.477C41.6958 117.565 42.0352 117.617 42.3945 117.633C42.8138 117.649 43.237 117.681 43.6602 117.709C44.4548 117.761 45.2773 117.817 46.1477 117.817C47.0181 117.817 47.8685 117.753 48.6311 117.629C54.0093 116.743 59.1958 114.447 64.4822 110.606C67.0056 108.769 69.5529 106.617 71.0781 103.303C72.0284 101.223 72.232 99.4343 71.705 97.8572C71.2538 96.4757 70.579 95.3298 69.9881 94.3197C69.8084 94.0122 69.6248 93.7048 69.4571 93.3934L69.3932 93.2816C68.966 92.5549 68.3431 91.9759 67.6165 91.6006C66.6183 89.6562 65.6201 87.7117 64.6259 85.7673C63.0767 82.7528 61.5316 79.7343 59.9824 76.7078C61.1323 73.7852 61.3 70.8785 61.3 68.5627C61.3 64.0709 59.1879 60.737 55.5066 59.1719C55.1592 56.6245 54.2928 54.4405 53.5222 52.7317C52.1687 49.7411 50.1364 47.6689 47.4613 46.5549C47.7807 44.9818 47.7647 43.2849 47.3934 41.5121C47.3135 41.1249 47.2177 40.7495 47.1059 40.3822C47.4134 40.3263 47.7248 40.2624 48.0362 40.1786C50.5237 39.5278 52.8155 38.0984 54.6681 36.0461C56.0576 34.501 57.8822 32.0614 57.6866 28.7235L57.3312 22.6227C58.0619 22.0038 58.8006 21.3809 59.5352 20.774C61.819 18.8815 64.4422 17.0488 67.325 15.324C70.5152 13.4235 73.865 12.2616 77.2668 11.8783C77.8298 11.8144 78.4087 11.7825 78.9837 11.7825C79.8581 11.7825 80.7085 11.8543 81.5071 11.9981C81.9183 12.0739 82.5931 12.3894 83.2399 12.6928C83.747 12.9324 84.3219 13.1999 84.9528 13.4474C85.8431 13.7908 86.6497 13.8227 87.0809 13.8427L87.3005 13.8587C90.1593 14.1821 92.4591 11.5469 91.7523 8.75999L91.7324 8.68014L91.7404 8.69611Z" fill="white"/>
<path d="M88.3027 8.97161C88.5023 9.28703 88.5103 9.73022 88.6061 10.1095C88.2148 10.0656 87.7876 10.1095 87.4282 9.96978C86.0188 9.42278 84.6733 8.56834 83.2199 8.30482C81.4472 7.98541 79.5586 7.94149 77.7619 8.14112C73.6095 8.61226 69.7006 10.0297 66.1312 12.1538C63.2285 13.8866 60.4096 15.8231 57.8104 17.9791C53.107 21.868 48.6192 26.0165 43.4207 29.2665C39.943 31.4425 36.1659 32.9478 32.1812 33.8661C31.0313 34.1336 29.7656 33.946 28.5598 33.8941C28.2723 33.8821 28.0048 33.5587 27.7613 33.2792C29.7297 33.4389 31.5943 33.1474 33.387 32.4966C38.1782 30.7678 42.67 28.4959 46.4631 25.0183C50.0685 21.6964 53.642 18.3465 57.2554 15.0325C60.6731 11.8983 64.2226 8.93967 68.4908 7.0032C70.9384 5.88924 73.4418 4.93898 76.1808 4.82718C76.3285 4.82718 76.4723 4.70341 76.624 4.63952H79.6505C80.9321 4.91103 82.2377 5.09469 83.4835 5.47799C85.4678 6.08089 87.1607 7.17888 88.2987 8.9756L88.3027 8.97161Z" fill="black"/>
<path d="M68.6745 99.606C68.9021 100.285 68.5507 101.263 68.2193 101.994C67.0934 104.433 65.0931 106.102 62.9729 107.643C58.7287 110.726 54.1171 113.061 48.9106 113.92C47.1618 114.207 45.3252 113.948 43.5285 113.872C43.261 113.86 42.9176 113.545 42.7659 113.277C42.0392 111.987 41.2965 110.694 40.7136 109.336C40.522 108.893 40.8573 108.246 40.8414 107.695C40.8254 107.276 40.6298 106.865 40.498 106.382C39.8272 107.112 39.2563 107.715 38.7093 108.346C38.5975 108.474 38.5296 108.697 38.5496 108.865C39.0566 113.373 38.298 117.741 37.0084 122.025C36.8127 122.684 36.2058 123.375 35.6029 123.734C33.7344 124.836 31.8977 125.998 29.6937 126.465C26.9947 127.032 24.3355 126.912 21.6884 126.325C19.7599 125.894 17.7835 125.511 15.9708 124.76C13.8227 123.87 11.9062 122.484 10.5527 120.532C10.2732 120.129 10.405 119.354 10.5248 118.783C10.9161 116.95 11.519 115.154 11.8024 113.313C12.0101 111.939 11.7944 110.514 11.8543 109.113C11.9861 106.098 11.0438 103.279 10.3331 100.421C9.67033 97.7694 9.2511 95.1062 9.17524 92.3473C9.0874 89.0812 8.62823 85.8312 8.43658 82.5651C8.29684 80.1016 8.209 77.6621 7.19485 75.3503C6.66382 74.1405 6.17272 72.8988 5.80939 71.6291C5.11465 69.1976 5.41011 66.782 6.09686 64.3744C6.65185 62.406 7.32262 60.4256 7.51028 58.4093C7.66599 56.7643 7.3346 55.0235 6.9513 53.3904C6.52009 51.5738 5.78543 49.825 5.18253 48.0522V44.8181C5.45403 43.5165 5.87327 42.2228 5.96111 40.9053C6.17671 37.6033 6.93533 34.5209 8.69611 31.6701C9.68231 30.0691 10.3371 28.2644 11.2834 26.6353C13.12 23.4851 17.9312 22.3751 20.9138 24.4274C23.7646 26.3878 24.5232 30.3046 22.7983 33.1474C22.6386 33.4109 22.7185 33.8941 22.9101 34.2854L22.4989 34.3572C22.3831 34.1736 22.2034 33.8382 21.9399 33.5786C21.6564 33.2992 21.2252 32.8839 20.9457 32.9438C19.4564 33.2672 17.7875 33.1714 16.7015 34.5888C16.3381 35.0639 15.855 35.4472 15.4278 35.8705C14.4775 36.8167 14.3099 36.9844 14.785 37.6911L14.2699 37.8349C13.9745 37.3278 13.6071 36.8407 13.4834 36.3017C13.7189 36.1499 13.9984 36.0381 14.1901 35.8425C15.2681 34.7405 16.2902 33.5866 17.4042 32.5246C17.7595 32.1852 18.3265 31.9776 18.8256 31.9177C19.6401 31.8179 20.4786 31.8897 21.329 31.8897C21.329 31.1391 21.4448 30.3166 21.3011 29.542C21.1294 28.6237 20.9657 27.5417 20.3947 26.8909C18.1189 24.2956 13.9864 25.2139 12.8765 28.5718C11.9062 31.5024 10.6126 34.1696 8.34475 36.3336C7.45438 37.1841 7.34258 38.3978 7.41445 39.5837C7.53423 41.58 7.78977 43.5764 7.77779 45.5687C7.76581 47.5012 8.07724 49.3378 8.74402 51.1306C9.51062 53.1948 10.0616 55.3349 9.99374 57.5349C9.92187 59.7269 9.38286 61.855 8.52442 63.8873C7.2228 66.9856 7.04313 70.0839 8.36072 73.2581C9.04348 74.8951 9.74619 76.604 9.94583 78.3369C10.1814 80.4011 10.8043 82.2657 11.6028 84.1223C12.7966 86.8773 12.5251 89.768 12.4493 92.6627C12.3734 95.3897 12.4093 98.1287 12.6209 100.844C12.8006 103.14 13.4714 105.403 13.6231 107.699C13.8587 111.229 13.6231 114.758 12.5531 118.184C12.4772 118.42 12.5012 118.839 12.6529 118.979C13.5672 119.809 14.4536 120.703 15.4837 121.362C18.7697 123.466 22.5149 124.161 26.3039 124.6C29.2346 124.94 31.8418 123.922 34.3133 122.42C35.0599 121.965 35.5191 121.39 35.6588 120.556C36.0062 118.468 36.4055 116.387 36.653 114.283C36.8527 112.638 36.8606 110.965 36.9565 109.268C34.7964 109.368 32.6683 110.143 31.0313 107.883C34.2055 107.388 36.7768 106.026 39.1565 104.281C37.4516 101.003 35.7627 97.7574 34.0258 94.4195C32.9997 97.1265 30.9315 99.8535 28.8752 101.183C28.48 101.439 27.9489 101.495 27.4818 101.642C28.0288 100.812 28.6077 100.221 29.0988 99.5701C31.8977 95.8329 33.9699 91.8921 33.0556 86.9611C32.5366 84.1622 30.9634 82.1858 28.7075 80.6287C28.0408 82.3974 26.9627 83.7789 25.5693 84.8969C25.3058 85.1085 24.8546 85.0805 24.4314 85.1844C25.8448 82.2976 27.5417 79.7862 27.374 76.604C26.2201 77.171 25.194 77.694 24.1479 78.1692C23.9562 78.253 23.6727 78.1452 23.4372 78.1252C23.513 77.8657 23.513 77.5383 23.6727 77.3586C24.611 76.3046 25.5932 75.2944 26.5475 74.2523C27.921 72.7591 28.8752 71.0661 29.007 68.946C27.5177 69.3932 26.2321 70.5072 24.4314 69.9123C25.4016 69.1297 26.248 68.4389 27.1065 67.7642C29.4861 65.8836 31.6502 63.8234 32.9358 60.9965C34.489 57.5708 34.9242 54.0732 33.4868 50.4957C32.7641 48.695 31.5024 48.0722 29.8614 49.0065C28.7515 49.6373 27.7213 50.6355 27.0266 51.7095C24.6669 55.3788 22.2074 58.9243 18.7418 61.6633C18.1269 62.1504 17.7037 62.7493 17.6837 63.6078C17.6438 65.9195 17.6158 68.2353 17.4761 70.5391C17.3443 72.6433 16.8053 74.6556 15.5156 76.3884C14.4256 77.8577 13.8507 79.4428 14.242 81.2994C14.3099 81.6229 14.206 81.9862 14.1821 82.3256C14.0982 82.3415 14.0104 82.3535 13.9266 82.3655C13.7708 81.9902 13.4834 81.6149 13.4794 81.2396C13.4235 79.1474 13.2358 77.0312 14.6253 75.1906C14.9726 74.7315 15.1403 74.1206 15.34 73.5656C16.1505 71.2937 15.8231 68.934 15.8391 66.6023C15.8391 66.4146 15.4398 66.1431 15.1763 66.0553C14.4536 65.8117 13.699 65.6441 12.9563 65.4484C12.9723 65.3885 12.9843 65.3326 13.0002 65.2727C13.9425 65.3366 14.8848 65.4005 15.859 65.4604C15.5516 63.5798 15.7273 61.9308 16.6017 60.4655C15.312 57.9341 14.2739 55.255 12.6808 52.9592C12.2656 52.3563 12.018 51.7774 11.8903 51.2064L12.6449 51.1785C14.5654 49.4057 16.3541 47.4493 18.4503 45.9121C20.5744 44.347 22.962 43.1132 25.3177 41.8835C27.6295 40.6777 30.0451 39.6595 32.6643 38.4458C31.8258 38.2501 31.2309 38.0185 30.632 37.9826L30.6919 37.2479C31.1271 37.2839 31.5543 37.3238 31.9856 37.3557C32.2571 37.3797 32.5366 37.2759 32.812 37.216C33.7743 37.0004 34.7206 36.669 35.6948 36.5732C39.9071 36.1699 43.3728 38.6174 44.2432 42.8098C44.7542 45.2693 44.3909 47.6729 42.4025 49.5215C43.7161 49.9128 44.9898 50.2721 46.2555 50.6794C48.3996 51.3741 49.7611 52.9353 50.6554 54.9117C51.6257 57.0597 52.3843 59.2757 52.4202 61.6833C52.4282 62.1025 52.5879 62.5218 52.6718 62.925C56.2412 63.3842 58.0579 65.4484 58.0579 69.0059C58.0579 71.7888 57.7625 74.5039 56.381 76.9993C56.2931 77.167 56.4009 77.4984 56.5087 77.706C59.3476 83.2639 62.2023 88.8137 65.0491 94.3636C65.3885 95.0224 65.4085 95.9966 66.5664 95.757C66.6143 95.749 66.7061 95.801 66.7341 95.8449C67.4128 97.0906 68.2473 98.2804 68.6825 99.606H68.6745ZM66.3228 100.892C67.3609 99.5381 67.2451 99.2147 66.0353 97.8013C65.5522 98.6837 65.2128 99.614 64.6179 100.345C61.823 103.79 58.5131 106.661 54.4285 108.45C52.3723 109.348 50.1683 110.043 47.9604 110.406C45.8882 110.746 43.8359 110.111 41.9753 108.897C42.3466 109.887 42.8777 110.79 43.233 111.752C43.5564 112.638 44.1992 112.834 44.9858 112.906C48.0722 113.169 50.9788 112.451 53.7937 111.285C57.0597 109.931 59.8866 107.899 62.374 105.411C63.7835 103.998 65.105 102.477 66.3188 100.888L66.3228 100.892ZM63.6277 98.5759C64.6379 97.2623 64.9094 96.0804 63.9152 94.679C63.5359 94.144 63.2963 93.5091 62.9849 92.9262C60.4775 88.1789 57.9701 83.4316 55.4387 78.6882C55.3109 78.4527 54.9875 78.1931 54.74 78.1851C51.5738 78.0534 49.4057 76.3804 48.5872 73.3021C48.144 71.6451 48.0722 69.8883 47.8126 68.0756C47.9484 68.0916 47.8126 68.0477 47.6889 68.0676C45.7843 68.3511 44.6185 67.3529 43.6882 65.8437C42.5343 63.9631 42.163 61.843 41.6998 59.7428C41.1768 57.3991 40.7655 55.0115 40.0069 52.7436C39.6356 51.6456 39.0926 50.4119 37.5833 49.9966C36.8048 49.785 36.0861 49.0025 35.555 48.3117C34.0178 46.3313 33.367 44.0355 33.411 41.5241C33.4189 40.9691 33.2273 40.4062 33.1195 39.8192C25.4096 42.3626 19.692 47.5292 13.8786 52.536C15.1244 54.8238 16.3581 57.0917 17.6517 59.4633C18.4064 58.8006 19.169 58.2775 19.7439 57.5948C21.7163 55.2471 23.6368 52.8474 25.5493 50.4478C26.6593 49.0623 27.7174 47.6569 29.566 47.1618C31.211 46.7186 33.2512 47.1618 34.0897 48.2758C36.3097 51.2184 36.8127 54.5124 36.102 58.0699C35.3833 61.7033 33.6226 64.7617 31.0193 67.3649C30.8436 67.5406 30.6041 67.8281 30.644 68.0117C31.211 70.6269 30.2208 72.8229 28.8593 74.9351C28.7235 75.1427 28.6037 75.4222 28.6237 75.6538C28.7155 76.6719 28.8353 77.6861 29.007 78.6962C29.0549 78.9957 29.2426 79.4269 29.4821 79.5227C31.1072 80.1775 32.2211 81.3633 33.1195 82.8047C34.8483 85.5676 35.0679 88.5861 34.6966 91.7324C34.6367 92.2514 34.7565 92.8703 34.9961 93.3375C35.8345 94.9545 36.7968 96.5077 37.6472 98.1207C39.2563 101.159 40.8214 104.218 42.4225 107.268C42.5383 107.488 42.714 107.731 42.9256 107.835C46.3553 109.48 49.7531 109.073 53.063 107.504C57.3552 105.463 60.745 102.341 63.6198 98.5879L63.6277 98.5759ZM56.6685 70.9464C57.2753 67.0136 56.0017 65.0372 52.5041 64.031C52.1248 65.7798 51.3701 66.6542 49.2899 67.6723C49.3858 69.2335 49.3059 70.8985 49.6293 72.4836C50.0645 74.5957 51.1705 76.3086 53.5422 76.7478C54.8478 76.9873 55.4587 76.7198 55.814 75.3982C56.2053 73.9409 56.4329 72.4396 56.6685 70.9424V70.9464ZM48.5393 66.4266C50.1084 65.7878 51.4939 65.145 51.1905 62.6815C51.0747 61.7671 51.0188 60.8288 50.7672 59.9505C50.1923 57.9222 49.5774 55.8859 48.164 54.2329C46.499 52.2845 44.0954 51.9611 41.9993 51.434C42.3746 54.1411 42.666 56.8202 43.1492 59.4633C43.4646 61.2042 43.8639 62.9809 44.5785 64.586C45.453 66.5504 46.3433 67.317 48.5393 66.4266ZM42.5622 46.9223C43.7161 44.6824 43.1532 41.6439 41.2806 39.6436C40.0748 38.3539 38.6574 37.735 36.8966 37.9706C35.9783 38.0944 35.0599 38.2541 34.4131 38.3539C34.6407 39.1604 34.9202 39.8632 35.02 40.5978C35.1238 41.3205 35.02 42.0751 35.048 42.8138C35.0999 44.4628 35.5471 46.0079 36.5013 47.3655C38.0944 49.6333 41.2886 49.3898 42.5622 46.9223Z" fill="black"/>
<path d="M66.0353 97.8013C67.2451 99.2147 67.3609 99.5381 66.3228 100.892C65.109 102.481 63.7874 104.002 62.378 105.415C59.8946 107.899 57.0637 109.935 53.7977 111.289C50.9828 112.455 48.0722 113.173 44.9898 112.91C44.1992 112.838 43.5564 112.642 43.237 111.756C42.8816 110.79 42.3506 109.891 41.9793 108.901C43.8359 110.115 45.8882 110.75 47.9644 110.41C50.1723 110.047 52.3803 109.352 54.4325 108.454C58.5171 106.665 61.831 103.794 64.6219 100.349C65.2168 99.618 65.5562 98.6877 66.0393 97.8053L66.0353 97.8013Z" fill="#D9C786"/>
<path d="M63.9152 94.679C64.9054 96.0804 64.6339 97.2663 63.6277 98.5759C60.753 102.329 57.3632 105.451 53.071 107.492C49.7611 109.061 46.3633 109.468 42.9336 107.823C42.7219 107.719 42.5423 107.476 42.4305 107.256C40.8334 104.206 39.2682 101.147 37.6552 98.1087C36.8008 96.4997 35.8425 94.9465 35.004 93.3255C34.7645 92.8583 34.6447 92.2395 34.7046 91.7204C35.0759 88.5742 34.8563 85.5557 33.1275 82.7927C32.2251 81.3514 31.1151 80.1615 29.4901 79.5107C29.2545 79.4149 29.0629 78.9837 29.015 78.6842C28.8433 77.6741 28.7275 76.6599 28.6317 75.6418C28.6117 75.4062 28.7315 75.1307 28.8673 74.9231C30.2288 72.811 31.219 70.615 30.652 67.9997C30.6121 67.8161 30.8516 67.5286 31.0273 67.3529C33.6305 64.7497 35.3913 61.6913 36.11 58.0579C36.8167 54.5004 36.3136 51.2064 34.0977 48.2638C33.2632 47.1538 31.2229 46.7067 29.574 47.1498C27.7253 47.6449 26.6673 49.0544 25.5573 50.4358C23.6448 52.8355 21.7243 55.2351 19.7519 57.5828C19.177 58.2655 18.4144 58.7886 17.6597 59.4514C16.3661 57.0757 15.1323 54.8118 13.8866 52.524C19.7 47.5172 25.4176 42.3546 33.1275 39.8073C33.2353 40.3982 33.4269 40.9572 33.4189 41.5121C33.375 44.0236 34.0258 46.3194 35.563 48.2997C36.094 48.9905 36.8127 49.7731 37.5913 49.9847C39.1006 50.3999 39.6436 51.6337 40.0149 52.7317C40.7735 54.9995 41.1847 57.3871 41.7078 59.7309C42.1709 61.835 42.5423 63.9511 43.6962 65.8317C44.6225 67.341 45.7923 68.3391 47.6968 68.0556C47.8246 68.0357 47.9564 68.0796 47.8206 68.0636C48.0801 69.8763 48.156 71.6331 48.5952 73.2901C49.4137 76.3645 51.5817 78.0374 54.748 78.1732C54.9915 78.1851 55.3189 78.4447 55.4467 78.6762C57.9781 83.4156 60.4855 88.1669 62.9929 92.9142C63.3043 93.5012 63.5439 94.136 63.9232 94.667L63.9152 94.679ZM57.6906 103.044C60.1581 99.7657 60.8768 96.0485 60.4136 91.932C59.7229 93.2057 59.1839 94.4394 58.4332 95.5215C57.6746 96.6155 56.7044 97.5617 55.83 98.5759L55.6184 98.4521C58.1577 93.3734 57.3991 88.3066 55.6783 83.2479C56.9639 88.8297 57.998 94.3915 54.6481 99.7417C56.9879 97.8772 59.0481 95.8608 60.2339 93.1019C60.1221 97.0387 59.6111 100.812 56.5646 103.758C56.9879 103.587 57.4311 103.387 57.6906 103.044Z" fill="#D70321"/>
<path d="M60.4136 91.928C60.8768 96.0445 60.1581 99.7617 57.6906 103.04C57.4311 103.383 56.9839 103.587 56.5646 103.754C59.6111 100.804 60.1221 97.0347 60.2339 93.0979C59.0481 95.8568 56.9879 97.8732 54.6481 99.7378C57.998 94.3835 56.9679 88.8257 55.6783 83.2439C57.3991 88.3027 58.1617 93.3694 55.6184 98.4481L55.83 98.5719C56.7044 97.5577 57.6786 96.6115 58.4332 95.5175C59.1879 94.4354 59.7229 93.1977 60.4136 91.928Z" fill="black"/>
<path d="M52.5001 64.031C55.9977 65.0372 57.2753 67.0136 56.6645 70.9464C56.4289 72.4396 56.2013 73.9449 55.81 75.4022C55.4587 76.7238 54.8438 76.9953 53.5382 76.7518C51.1625 76.3086 50.0605 74.5957 49.6253 72.4876C49.2979 70.9024 49.3818 69.2375 49.2859 67.6763C51.3622 66.6582 52.1208 65.7798 52.5001 64.035V64.031Z" fill="#F5C242"/>
<path d="M54.4485 29.4103C54.5443 31.0632 53.5941 32.4607 52.5001 33.6745C51.2703 35.036 49.7411 36.0741 47.9284 36.5492C46.3074 36.9724 44.7143 36.9285 43.241 35.9743C41.8316 35.0639 40.4142 34.1736 38.5815 34.469C39.7514 33.7184 40.9971 33.5507 42.3067 33.8302C43.233 34.0338 44.1393 34.3532 45.0696 34.5249C47.7607 35.02 50.0406 33.9979 52.0209 32.3289C52.9712 31.5264 53.642 30.3965 54.4485 29.4103Z" fill="black"/>
<path d="M51.1905 62.6815C51.4939 65.145 50.1084 65.7918 48.5393 66.4266C46.3433 67.317 45.453 66.5544 44.5785 64.586C43.8678 62.9809 43.4646 61.2042 43.1492 59.4633C42.666 56.8202 42.3746 54.1411 41.9993 51.434C44.0954 51.9651 46.499 52.2885 48.164 54.2329C49.5774 55.8819 50.1923 57.9182 50.7672 59.9505C51.0188 60.8288 51.0747 61.7631 51.1905 62.6815Z" fill="#F5C242"/>
<path d="M44.0755 19.9276C43.6882 20.0554 43.4845 20.1911 43.2929 20.1751C40.478 19.9595 38.7173 21.6684 37.1002 23.5969C35.3674 25.6571 33.7982 27.8611 31.9257 29.7776C31.0273 30.6919 29.6139 31.1271 28.3841 31.6621C28.0008 31.8258 27.4459 31.5823 26.9667 31.5304C26.9747 31.4026 26.9827 31.2828 26.9907 31.1551C29.7297 30.4803 31.1551 28.3282 32.6483 26.2401C34.2374 24.0121 35.8705 21.8281 38.4178 20.5664C40.1626 19.7 41.9354 19.2009 44.0795 19.9316L44.0755 19.9276Z" fill="black"/>
<path d="M41.2846 39.6436C43.1532 41.6439 43.7161 44.6824 42.5662 46.9223C41.2925 49.3898 38.0984 49.6293 36.5053 47.3655C35.551 46.0079 35.1039 44.4628 35.052 42.8138C35.028 42.0751 35.1318 41.3245 35.024 40.5978C34.9242 39.8632 34.6407 39.1604 34.4171 38.3539C35.0679 38.2541 35.9823 38.0944 36.9006 37.9706C38.6614 37.735 40.0788 38.3539 41.2846 39.6436Z" fill="#F5C242"/>
<path d="M36.9445 109.268C36.8487 110.969 36.8407 112.638 36.641 114.283C36.3935 116.387 35.9942 118.468 35.6469 120.556C35.5071 121.39 35.044 121.965 34.3013 122.42C31.8298 123.922 29.2226 124.94 26.292 124.6C22.5029 124.161 18.7577 123.466 15.4717 121.362C14.4416 120.703 13.5552 119.809 12.6409 118.979C12.4892 118.839 12.4652 118.424 12.5411 118.184C13.6111 114.758 13.8467 111.233 13.6111 107.699C13.4594 105.403 12.7886 103.14 12.609 100.844C12.3973 98.1287 12.3654 95.3857 12.4373 92.6627C12.5171 89.768 12.7846 86.8812 11.5908 84.1223C10.7883 82.2657 10.1654 80.3971 9.93385 78.3369C9.73821 76.604 9.0315 74.8951 8.34874 73.2581C7.03115 70.0839 7.21082 66.9856 8.51245 63.8873C9.37088 61.855 9.90989 59.7269 9.98176 57.5349C10.0496 55.3349 9.49864 53.1988 8.73204 51.1306C8.06526 49.3378 7.75383 47.5012 7.76581 45.5687C7.77779 43.5764 7.52225 41.58 7.40247 39.5837C7.3306 38.3978 7.4424 37.1841 8.33277 36.3336C10.6046 34.1696 11.8943 31.5024 12.8645 28.5718C13.9745 25.2139 18.1109 24.2956 20.3828 26.8909C20.9537 27.5457 21.1174 28.6237 21.2891 29.542C21.4328 30.3166 21.317 31.1391 21.317 31.8897C20.4666 31.8897 19.6281 31.8179 18.8136 31.9177C18.3185 31.9776 17.7476 32.1892 17.3922 32.5246C16.2743 33.5866 15.2561 34.7405 14.1781 35.8425C13.9904 36.0381 13.7109 36.1499 13.4714 36.3017C13.5952 36.8407 13.9625 37.3238 14.2579 37.8349C14.6932 38.5735 14.9806 39.3561 14.1382 40.3942C13.2358 40.0508 12.2576 39.6715 11.2794 39.2962C11.2514 39.3441 11.2235 39.392 11.1995 39.4399C11.8543 39.8073 12.4812 40.2904 13.1839 40.514C13.8986 40.7416 14.2699 41.069 14.6213 41.7597C14.9766 42.4584 14.9966 42.8218 14.4336 43.3528C13.8307 43.9277 13.0122 44.5666 12.8845 45.2813C12.5331 47.2417 11.4391 49.1382 11.8903 51.1865C12.018 51.7574 12.2656 52.3404 12.6808 52.9393C14.2739 55.2351 15.312 57.9182 16.6017 60.4456C15.7273 61.9109 15.5516 63.5599 15.859 65.4404C14.8848 65.3765 13.9425 65.3127 13.0002 65.2528C12.9843 65.3127 12.9723 65.3686 12.9563 65.4284C13.699 65.6241 14.4496 65.7918 15.1763 66.0353C15.4398 66.1232 15.8391 66.3947 15.8391 66.5823C15.8191 68.9101 16.1505 71.2738 15.34 73.5456C15.1403 74.1006 14.9726 74.7115 14.6253 75.1706C13.2358 77.0113 13.4235 79.1274 13.4794 81.2196C13.4874 81.5989 13.7708 81.9742 13.9266 82.3455C14.0104 82.3296 14.0982 82.3176 14.1821 82.3056C14.206 81.9662 14.3099 81.5989 14.242 81.2795C13.8507 79.4229 14.4256 77.8378 15.5156 76.3685C16.8013 74.6356 17.3403 72.6233 17.4761 70.5191C17.6158 68.2114 17.6438 65.8956 17.6837 63.5878C17.7037 62.7294 18.1269 62.1305 18.7418 61.6434C22.2074 58.9044 24.6669 55.3588 27.0266 51.6896C27.7213 50.6155 28.7515 49.6173 29.8614 48.9865C31.5024 48.0522 32.7641 48.6751 33.4868 50.4758C34.9242 54.0572 34.489 57.5508 32.9358 60.9766C31.6542 63.8034 29.4861 65.8637 27.1065 67.7442C26.248 68.419 25.4056 69.1097 24.4314 69.8923C26.2321 70.4872 27.5137 69.3732 29.007 68.9261C28.8752 71.0422 27.921 72.7351 26.5475 74.2324C25.5932 75.2745 24.611 76.2846 23.6727 77.3387C23.509 77.5223 23.509 77.8458 23.4372 78.1053C23.6727 78.1292 23.9562 78.237 24.1479 78.1492C25.194 77.6741 26.2201 77.151 27.374 76.5841C27.5457 79.7662 25.8448 82.2777 24.4314 85.1644C24.8546 85.0646 25.3058 85.0885 25.5693 84.8769C26.9627 83.755 28.0408 82.3775 28.7075 80.6087C30.9634 82.1659 32.5365 84.1383 33.0556 86.9411C33.9699 91.8721 31.8937 95.8129 29.0988 99.5501C28.6037 100.205 28.0288 100.792 27.4818 101.622C27.9489 101.475 28.48 101.419 28.8752 101.163C30.9315 99.8336 32.9957 97.1106 34.0258 94.3995C35.7627 97.7374 37.4516 100.983 39.1565 104.261C36.7768 106.006 34.2095 107.372 31.0313 107.863C32.6683 110.127 34.7964 109.352 36.9565 109.248L36.9445 109.268ZM33.6106 113.201C33.6545 112.998 33.4788 112.75 33.407 112.522C33.2832 112.63 33.0676 112.722 33.0476 112.85C32.6843 114.934 32.3409 117.022 31.9975 119.11L32.0774 119.154C32.289 118.511 32.5405 117.881 32.7042 117.234C33.0396 115.896 33.3391 114.551 33.6146 113.201H33.6106ZM31.8019 111.864C31.8338 111.608 31.6701 111.321 31.5943 111.053C31.5384 111.081 31.4865 111.105 31.4346 111.133C30.9115 114.623 30.3885 118.116 29.8654 121.61C29.9093 121.622 29.9573 121.63 30.0052 121.638C30.3126 120.408 30.6959 119.186 30.9195 117.941C31.2709 115.924 31.5344 113.892 31.8019 111.864Z" fill="#F5C242"/>
<path d="M33.407 112.522C33.4828 112.75 33.6545 112.998 33.6106 113.201C33.3351 114.551 33.0356 115.892 32.7003 117.234C32.5365 117.885 32.285 118.515 32.0734 119.154L31.9935 119.11C32.3369 117.022 32.6803 114.934 33.0436 112.85C33.0676 112.722 33.2792 112.63 33.403 112.522H33.407Z" fill="black"/>
<path d="M31.5943 111.053C31.6701 111.321 31.8338 111.604 31.8019 111.864C31.5344 113.892 31.2709 115.92 30.9195 117.941C30.6959 119.186 30.3166 120.408 30.0052 121.638C29.9573 121.626 29.9093 121.618 29.8654 121.61C30.3885 118.12 30.9115 114.627 31.4346 111.133C31.4865 111.105 31.5384 111.081 31.5943 111.053Z" fill="black"/>
<path d="M30.628 37.9786C31.2309 38.0145 31.8219 38.2461 32.6603 38.4418C30.0411 39.6595 27.6255 40.6737 25.3137 41.8795C22.958 43.1092 20.5744 44.343 18.4463 45.9081C16.3501 47.4493 14.5614 49.4017 12.6409 51.1745C12.4293 48.7629 13.3995 46.8464 14.5694 45.0497C16.0587 42.7738 18.3784 41.4682 20.6543 40.1147C23.7446 38.2741 27.1105 37.763 30.624 37.9746L30.628 37.9786Z" fill="#D9C786"/>
<path d="M30.6879 37.2439L30.628 37.9786C27.1105 37.767 23.7486 38.2781 20.6583 40.1187C18.3824 41.4722 16.0627 42.7778 14.5734 45.0537C13.3995 46.8504 12.4333 48.7669 12.6449 51.1785L11.8903 51.2064C11.4391 49.1582 12.5331 47.2616 12.8845 45.3012C13.0162 44.5865 13.8347 43.9477 14.4336 43.3727C14.9966 42.8377 14.9806 42.4744 14.6213 41.7797C14.2699 41.0889 13.8986 40.7615 13.1839 40.5339C12.4772 40.3064 11.8543 39.8272 11.1995 39.4599C11.2275 39.412 11.2514 39.3641 11.2794 39.3162C12.2576 39.6915 13.2398 40.0708 14.1382 40.4142C14.9806 39.3761 14.6892 38.5935 14.2579 37.8548L14.773 37.7111C14.8728 37.8588 15.0046 38.0385 15.1643 38.2501C17.6318 36.9724 20.0833 35.7107 22.5308 34.4451C22.5149 34.4251 22.5029 34.4051 22.4869 34.3772L22.8982 34.3053C23.0499 34.6247 23.2815 34.8883 23.521 34.9362C24.8187 35.1997 25.2139 35.6309 25.4016 36.7888C27.1943 36.9445 28.9391 37.1082 30.6839 37.2519L30.6879 37.2439ZM24.5951 37.228C24.3715 36.8886 24.2078 36.5652 23.9802 36.3057C23.557 35.8225 23.0259 35.5311 22.3871 35.8665C20.4866 36.8726 18.614 37.9307 16.7015 38.9009C15.1084 39.7114 15.0325 40.478 15.5875 42.0631C18.3185 39.8472 21.1853 38.0944 24.5951 37.228Z" fill="black"/>
<path d="M23.9802 36.3057C24.2118 36.5652 24.3715 36.8886 24.5951 37.228C21.1853 38.0904 18.3185 39.8472 15.5875 42.0631C15.0325 40.478 15.1084 39.7114 16.7015 38.9009C18.614 37.9307 20.4906 36.8726 22.3871 35.8665C23.0259 35.5271 23.557 35.8225 23.9802 36.3057Z" fill="white"/>
<path d="M22.4869 34.3692C22.5029 34.3971 22.5149 34.4171 22.5308 34.4371C20.0833 35.7028 17.6318 36.9685 15.1643 38.2421C15.0046 38.0305 14.8768 37.8508 14.773 37.7031C14.2979 36.9964 14.4656 36.8287 15.4158 35.8824C15.8431 35.4552 16.3262 35.0719 16.6895 34.6008C17.7755 33.1834 19.4405 33.2792 20.9337 32.9558C21.2132 32.8959 21.6445 33.3111 21.9279 33.5906C22.1915 33.8501 22.3711 34.1895 22.4869 34.3692ZM19.6481 34.9761C19.4365 34.6287 19.2209 34.2774 19.0093 33.93C18.7737 34.1097 18.5381 34.2814 18.3026 34.461C18.61 34.7445 18.9174 35.028 19.2249 35.3115L19.6481 34.9761Z" fill="#3E4B58"/>
<path d="M19.0093 33.93C19.2209 34.2774 19.4365 34.6287 19.6481 34.9761L19.2249 35.3115C18.9174 35.028 18.61 34.7445 18.3026 34.461C18.5381 34.2814 18.7737 34.1097 19.0093 33.93Z" fill="black"/>
</svg>
