<svg width="59" height="81" viewBox="0 0 59 81" fill="none" xmlns="http://www.w3.org/2000/svg">
<path d="M58.0097 23.6483C58.0969 23.3974 58.1471 23.1173 58.1471 22.8083C58.155 20.1428 57.0508 18.8985 54.7525 18.6264C54.2215 18.563 53.6879 18.5076 53.1569 18.4547C52.0685 18.3411 51.0409 18.2355 50.0291 18.0637C48.7928 17.8524 47.6885 16.8723 47.6146 15.9292C47.5802 15.4696 47.5247 15.0416 47.4693 14.6295C47.4111 14.1804 47.3557 13.7578 47.3504 13.4381C47.3292 12.0406 47.3292 10.6115 47.3292 9.22721C47.3292 8.17053 47.3292 7.11384 47.3213 6.07565C47.3108 4.62799 47.0783 1.31792 45.694 0.440872C41.8794 -1.96573 39.8347 6.15754 39.7872 8.47433C39.7449 10.4107 39.3486 12.2731 38.6089 14.0061C37.4413 16.7323 35.5551 18.2249 32.6677 18.711C32.253 18.7797 31.8673 18.8695 31.5159 18.9514C31.5107 18.851 31.508 18.7506 31.5027 18.6502C31.4763 18.0611 31.4473 17.472 31.4314 16.8829L31.4129 16.2912C31.3839 15.3771 31.3574 14.5106 31.3997 13.7234C31.4235 13.2928 31.4975 12.8147 31.5741 12.3048C31.6427 11.8584 31.7141 11.3987 31.7643 10.9073C31.8514 10.0805 31.8567 9.28005 31.8514 8.5298C31.8514 8.5298 31.8514 8.48753 31.8514 8.47697C31.8303 7.2248 31.3495 5.48919 30.6363 4.47213C30.1581 3.78792 29.3339 3.28071 28.5123 3.42073C28.0447 3.49998 27.6326 3.77472 27.2681 4.07587C23.8972 6.85495 24.4177 11.8135 23.7308 15.7258L23.6014 16.4761C23.1206 19.2737 22.6239 22.1663 21.9714 24.8688C21.0363 28.7151 19.2373 31.6237 16.4661 33.7582C14.9339 34.939 12.8232 35.5228 10.2158 36.1621L9.96748 36.2229C8.8923 36.4897 7.96242 36.7195 7.05631 36.7195C4.36704 36.7222 1.82307 37.5939 0.319937 39.9662C0.148225 40.2383 -0.00763572 40.5395 0.000289417 40.8591C0.013498 41.3531 0.409755 41.7467 0.798087 42.0532C3.97079 44.5496 8.12092 44.3197 11.7348 45.7489C17.3616 47.9732 19.2584 53.2593 20.2385 58.7409C21.0046 63.0257 21.1974 67.1811 21.2502 72.1C21.2555 72.6627 21.2529 73.2201 21.2502 73.7801C21.245 74.5383 21.2423 75.3229 21.2608 76.1339C21.2793 76.8525 21.4695 77.4284 21.5963 77.8114C21.6148 77.8669 21.6333 77.9197 21.6491 77.9725C22.3413 80.5826 24.3701 80.4452 26.7794 80.9339C27.0726 80.9947 27.4002 81.0475 27.6564 80.889C27.9628 80.6988 28.0315 80.2893 28.0685 79.9301C28.6761 74.0787 29.2837 68.2299 29.8913 62.3785C30.3536 57.9246 30.6257 52.9397 33.8671 49.4764C35.4362 47.7962 36.6594 46.9218 38.0859 46.4569C42.9863 44.8639 48.2459 44.5337 53.2414 43.2763C53.6165 43.1812 54.0207 43.0702 54.2637 42.7664C55.2676 41.5037 51.9707 39.4167 51.2575 38.7035C50.9722 38.4182 50.1057 37.5517 48.769 37.3958C48.3806 37.3483 47.9897 37.2928 47.5961 37.2347C47.2262 37.1818 46.8511 37.129 46.4707 37.0788C46.2488 36.7777 46.1325 36.6192 45.9106 36.318C46.0771 35.3511 46.2409 34.3499 46.328 33.2853C46.4839 31.3938 46.8485 29.859 47.4376 28.5963C48.3357 26.6863 48.7531 26.475 49.2445 26.3825C50.0819 26.2293 50.9986 26.1395 51.9707 26.047C52.5968 25.9862 53.2414 25.9255 53.886 25.8436C53.8886 25.8436 53.8939 25.8436 53.8966 25.8436C55.442 25.6481 57.4708 25.1858 58.0097 23.6404L58.0097 23.6483ZM32.7417 29.114C32.4749 28.1657 32.2583 27.1909 32.0866 26.1606C32.1552 26.1659 32.2266 26.1685 32.3005 26.1685C32.5304 26.1685 32.7602 26.1474 32.9847 26.1025C33.0746 26.084 33.167 26.084 33.2568 26.1051C33.5052 26.1659 33.8724 26.2874 34.0784 26.3561C36.1125 27.0324 37.4413 28.5857 37.7213 30.6119C37.8613 31.6237 37.9432 32.6434 38.0304 33.7212C38.0304 33.7265 38.0304 33.7291 38.0304 33.7344C37.399 34.1095 37.6474 33.9616 37.016 34.3394C34.7045 32.823 33.3017 31.1059 32.7417 29.1114L32.7417 29.114Z" fill="white"/>
<path d="M54.483 21.0938C54.5121 21.2021 54.5438 21.3104 54.5728 21.4187C54.2505 21.5376 53.9494 21.7225 53.598 21.7648C51.9919 21.9682 50.3329 22.0448 48.7663 22.3328C46.4813 22.7528 45.451 24.5095 44.5687 26.3878C43.7392 28.1604 43.3297 30.1205 43.158 32.2101C43.0523 33.5151 42.804 34.7752 42.59 36.0406C42.5557 36.2572 42.3734 36.4105 42.0564 36.5161C41.9137 35.9983 41.6971 35.4647 41.6469 34.9575C41.4435 33.0845 41.3695 31.2301 41.1106 29.3492C40.6748 26.2055 38.6169 23.5347 35.2381 22.412C34.2554 22.0818 33.3731 21.8097 32.4934 22.0448C32.29 22.0976 31.9571 21.8995 31.685 21.8176C31.6586 21.7252 31.6348 21.6301 31.6084 21.5376C32.1843 21.4108 32.747 21.2523 33.3361 21.1546C37.4968 20.4571 40.2151 18.1113 41.7632 14.4948C42.6428 12.4369 43.1553 10.1862 43.2082 7.73465C43.2293 6.80476 43.3561 5.90922 43.4856 5.01896C43.5173 4.81555 43.755 4.69667 43.9029 4.53817C43.9875 4.77857 44.1433 5.0401 44.1433 5.25672C44.1645 7.732 44.1354 10.1941 44.1724 12.6747C44.1883 13.5517 44.3785 14.471 44.4471 15.3613C44.6479 17.966 46.9911 20.0582 49.5985 20.5021C51.2363 20.7821 52.8584 20.8983 54.4883 21.0912L54.483 21.0938ZM49.3739 21.2338C45.1789 20.4043 43.3984 17.7547 43.0206 13.9321C41.8715 17.4245 39.5124 19.699 36.4427 21.4557C40.0698 22.6709 41.1793 25.4949 42.2255 28.5963C43.5886 24.9718 45.0864 21.7489 49.3739 21.2338Z" fill="white"/>
<path d="M48.489 39.8685C48.6369 39.887 48.8007 39.9926 49.0384 40.233C48.5444 40.3757 48.0795 40.6108 47.5512 40.6425C43.9109 40.8485 40.4581 41.4456 37.1824 42.5128C34.8366 43.2763 33.1406 44.7371 31.5714 46.4173C29.1807 48.9692 27.9576 52.2449 27.3843 55.9195C26.9828 58.5058 26.7635 61.166 26.354 63.7469C25.757 67.4876 25.6672 71.3894 25.514 75.2727C25.4981 75.6637 25.366 76.0177 25.2868 76.3902C25.1758 76.3637 25.0675 76.34 24.9566 76.3162C24.8615 75.9543 24.6871 75.5792 24.6765 75.241C24.6475 73.9043 24.6818 72.5887 24.6686 71.2547C24.6184 66.6819 24.4494 62.0747 23.6067 57.3513C23.2553 55.3832 22.8089 53.3835 22.1696 51.4101C20.7193 46.943 15.4728 42.2249 11.6714 41.2448C10.0097 40.8168 8.35075 40.6346 6.68383 40.3281C6.20039 40.2409 5.71432 40.1406 5.23088 39.9953C5.01162 39.9292 4.80293 39.7337 4.59159 39.5937C4.71047 39.459 4.79764 39.2794 4.95615 39.2001C5.14371 39.105 5.37882 39.0205 5.60601 39.0627C7.65069 39.4616 9.38894 38.9861 11.1245 38.5582C13.8138 37.8977 16.4872 37.1924 18.6006 35.5625C22.0533 32.9023 24.2222 29.262 25.2973 24.8371C26.037 21.7833 26.5601 18.6212 27.1016 15.4749C27.49 13.2268 27.7462 10.9285 28.05 8.64868C28.1002 8.28412 28.0738 7.89579 28.1319 7.53916C28.153 7.41236 28.3195 7.34367 28.4199 7.25121C28.507 7.41236 28.6682 7.59463 28.6708 7.73465C28.6735 8.41357 28.6708 9.09249 28.6021 9.75027C28.4991 10.7515 28.2798 11.7184 28.2244 12.7354C28.1662 13.8581 28.2217 15.0179 28.2534 16.167C28.2851 17.3399 28.3617 18.526 28.3961 19.6963C28.4859 22.8162 28.7844 25.9783 29.6852 29.1959C30.6521 32.6381 33.1617 35.0632 36.3054 36.8965C38.8705 38.397 41.4699 39.4167 44.1698 39.4035C45.5672 39.3982 47.0492 39.6941 48.4942 39.8685L48.489 39.8685ZM38.6776 40.9172C37.9564 40.6953 37.2458 40.5685 36.5854 40.2568C32.9953 38.5635 30.491 35.8266 29.0433 32.2709C27.556 28.6253 27.5243 25.1277 27.4583 21.638C27.4477 21.1017 27.49 20.576 27.5137 19.8575C27.3262 20.053 27.2522 20.0873 27.239 20.1507C26.7318 23.3525 25.9472 26.4248 24.703 29.2488C23.044 33.0264 20.5634 36.0882 16.828 37.9189C15.4887 38.5767 13.9723 38.9729 12.5194 39.496C12.6039 39.5567 12.6726 39.636 12.7439 39.6545C15.7449 40.4338 18.2202 42.4098 20.4313 44.7134C22.4971 46.8716 23.7599 49.4235 24.4943 52.052C25.02 53.9329 25.3713 55.8138 25.7861 57.6393C25.7861 57.6366 25.8442 57.5627 25.8653 57.4728C26.8295 53.077 28.0579 48.8371 30.8899 45.5851C32.15 44.1401 33.484 42.7717 35.3517 42.0215C36.4137 41.5961 37.547 41.2871 38.6723 40.9146L38.6776 40.9172Z" fill="white"/>
<path d="M43.0206 13.9321C43.3957 17.7547 45.1789 20.4043 49.3739 21.2338C45.0891 21.7489 43.5886 24.9718 42.2255 28.5963C41.1793 25.4923 40.0698 22.6683 36.4427 21.4557C39.5124 19.699 41.8688 17.4271 43.0206 13.9321ZM43.7312 20.3673C43.8712 20.0662 44.1935 19.7624 44.109 19.4639C43.9426 18.8906 43.5674 18.3147 43.2319 17.7547C43.1633 17.6384 42.8621 17.5037 42.7379 17.5301C42.5425 17.5697 42.3258 17.6992 42.2704 17.8709C42.2017 18.0796 42.2889 18.3781 42.3153 18.7163C42.4923 19.0491 42.6508 19.4639 42.9202 19.8073C43.1131 20.045 43.4565 20.1824 43.7312 20.3673Z" fill="white"/>
<path d="M44.109 19.4639C44.1935 19.7597 43.8712 20.0662 43.7312 20.3673C43.4539 20.185 43.1104 20.0477 42.9202 19.8073C42.6508 19.4639 42.4923 19.0465 42.3153 18.7163C42.2889 18.3781 42.2017 18.0822 42.2704 17.8709C42.3258 17.6992 42.5451 17.5697 42.7379 17.5301C42.8621 17.5037 43.1633 17.6384 43.2319 17.7547C43.5674 18.3147 43.9426 18.8906 44.109 19.4639Z" fill="white"/>
<path d="M36.5828 40.2568C37.2432 40.5685 37.9538 40.6953 38.675 40.9172C37.5496 41.2897 36.4163 41.5988 35.3544 42.0241C33.484 42.7743 32.1526 44.1428 30.8925 45.5878C28.0606 48.8397 26.8322 53.0797 25.868 57.4755C25.8468 57.5653 25.7887 57.6393 25.7887 57.6419C25.3713 55.8165 25.0226 53.9356 24.4969 52.0547C23.7599 49.4262 22.4998 46.8716 20.434 44.716C18.2202 42.4098 15.7476 40.4364 12.7466 39.6571C12.6779 39.6386 12.6066 39.562 12.522 39.4986C13.975 38.9756 15.4913 38.5793 16.8307 37.9215C20.566 36.0908 23.0466 33.0317 24.7056 29.2514C25.9499 26.4274 26.7344 23.3551 27.2417 20.1533C27.2522 20.0899 27.3288 20.0556 27.5164 19.8601C27.4926 20.5787 27.4503 21.107 27.4609 21.6406C27.5243 25.1277 27.556 28.628 29.0459 32.2735C30.4962 35.8293 33.0006 38.5661 36.588 40.2594L36.5828 40.2568ZM33.2991 40.4893C33.3176 40.27 33.418 40.0032 33.315 39.8605C32.2847 38.5159 31.1857 37.2109 30.1687 35.861C29.6298 35.1477 29.075 34.3843 28.7606 33.6102C28.3036 32.4717 28.0553 31.3014 27.7172 30.1417C27.519 29.4733 27.3183 28.805 27.1175 28.1366C27.0092 28.1155 26.9009 28.0996 26.7952 28.0785C26.6341 28.4827 26.3487 28.8525 26.3382 29.3016C26.2642 31.9169 26.0978 34.4609 28.1715 37.2637C29.4079 38.9307 30.8423 39.9371 32.5356 40.7112C32.747 40.8063 33.027 40.5923 33.2833 40.4998C33.2885 40.5051 33.2912 40.5157 33.2991 40.521C33.2991 40.513 33.2991 40.5025 33.3017 40.4945C33.307 40.4919 33.3123 40.4919 33.3202 40.4893C33.315 40.4893 33.3097 40.4919 33.3017 40.4919L33.2991 40.4893Z" fill="white"/>
<path d="M33.315 39.8605C33.4206 40.0032 33.3176 40.27 33.2991 40.4893C33.2912 40.4893 33.2833 40.4919 33.2753 40.4893C32.3296 39.2265 31.4763 37.8845 30.4143 36.7195C28.6814 34.8175 27.8704 32.8045 27.5587 30.6225C27.4715 30.0069 27.2337 29.3756 27.0647 28.7495C26.988 28.7442 26.9141 28.7389 26.8348 28.7336C26.2748 30.8047 26.531 33.0343 27.4873 35.3881C27.5639 35.5783 27.8598 35.7342 28.0553 35.9059C28.4595 36.2652 28.9218 36.5822 29.2599 36.989C29.8939 37.7551 30.4038 38.6189 31.0695 39.356C31.6718 40.019 32.4088 40.5844 33.2753 40.4866C33.2753 40.4893 33.278 40.4919 33.2806 40.4945C33.0244 40.587 32.7443 40.8036 32.533 40.7059C30.8397 39.9319 29.4052 38.928 28.1689 37.2584C26.0925 34.4556 26.2616 31.9116 26.3355 29.2963C26.3461 28.8472 26.6314 28.4774 26.7926 28.0732C26.9009 28.0943 27.0092 28.1102 27.1148 28.1313C27.3156 28.7997 27.5164 29.468 27.7145 30.1364C28.0527 31.2961 28.301 32.4664 28.758 33.605C29.0724 34.379 29.6298 35.1424 30.166 35.8557C31.1857 37.2056 32.282 38.5106 33.3123 39.8553L33.315 39.8605Z" fill="white"/>
<path d="M33.3176 40.4866C33.3176 40.4866 33.307 40.4893 33.2991 40.4919C33.2991 40.4919 33.3097 40.4866 33.3176 40.4866Z" fill="white"/>
<path d="M33.2991 40.4893C33.2991 40.4893 33.2885 40.4945 33.2806 40.4972C33.278 40.4945 33.2753 40.4919 33.2753 40.4893C33.2833 40.4919 33.2912 40.4893 33.2991 40.4893Z" fill="white"/>
<path d="M33.2991 40.4919C33.2991 40.4919 33.2965 40.5104 33.2965 40.5183C33.2912 40.513 33.2885 40.5025 33.2806 40.4972C33.2859 40.4945 33.2912 40.4945 33.2991 40.4919Z" fill="white"/>
<path d="M33.278 40.4893C32.4115 40.587 31.6744 40.0243 31.0721 39.3586C30.4064 38.6216 29.8966 37.7577 29.2626 36.9916C28.9244 36.5848 28.4621 36.2678 28.0579 35.9085C27.8625 35.7368 27.5666 35.5783 27.49 35.3908C26.5363 33.0343 26.2801 30.8047 26.8375 28.7363C26.9167 28.7389 26.9907 28.7442 27.0673 28.7521C27.2364 29.3782 27.4741 30.0096 27.5613 30.6251C27.873 32.8045 28.684 34.8201 30.417 36.7222C31.479 37.8872 32.3322 39.2292 33.278 40.4919L33.278 40.4893Z" fill="white"/>
<path d="M54.483 21.0938C54.5121 21.2021 54.5438 21.3104 54.5728 21.4187C54.2505 21.5376 53.9494 21.7225 53.598 21.7648C51.9919 21.9682 50.3329 22.0448 48.7663 22.3328C46.4813 22.7528 45.451 24.5095 44.5687 26.3878C43.7392 28.1604 43.3297 30.1205 43.158 32.2101C43.0523 33.5151 42.804 34.7752 42.59 36.0406C42.5557 36.2572 42.3734 36.4105 42.0564 36.5161C41.9137 35.9983 41.6971 35.4647 41.6469 34.9575C41.4435 33.0845 41.3695 31.2301 41.1106 29.3492C40.6748 26.2055 38.6169 23.5347 35.2381 22.412C34.2554 22.0818 33.3731 21.8097 32.4934 22.0448C32.29 22.0976 31.9571 21.8995 31.685 21.8176C31.6586 21.7252 31.6348 21.6301 31.6084 21.5376C32.1843 21.4108 32.747 21.2523 33.3361 21.1546C37.4968 20.4571 40.2151 18.1113 41.7632 14.4948C42.6428 12.4369 43.1553 10.1862 43.2082 7.73465C43.2293 6.80476 43.3561 5.90922 43.4856 5.01896C43.5173 4.81555 43.755 4.69667 43.9029 4.53817C43.9875 4.77857 44.1433 5.0401 44.1433 5.25672C44.1645 7.732 44.1354 10.1941 44.1724 12.6747C44.1883 13.5517 44.3785 14.471 44.4471 15.3613C44.6479 17.966 46.9911 20.0582 49.5985 20.5021C51.2363 20.7821 52.8584 20.8983 54.4883 21.0912L54.483 21.0938ZM49.3739 21.2338C45.1789 20.4043 43.3984 17.7547 43.0206 13.9321C41.8715 17.4245 39.5124 19.699 36.4427 21.4557C40.0698 22.6709 41.1793 25.4949 42.2255 28.5963C43.5886 24.9718 45.0864 21.7489 49.3739 21.2338Z" fill="black"/>
<path d="M48.489 39.8685C48.6369 39.887 48.8007 39.9926 49.0384 40.233C48.5444 40.3757 48.0795 40.6108 47.5512 40.6425C43.9109 40.8485 40.4581 41.4456 37.1824 42.5128C34.8366 43.2763 33.1406 44.7371 31.5714 46.4173C29.1807 48.9692 27.9576 52.2449 27.3843 55.9195C26.9828 58.5058 26.7635 61.166 26.354 63.7469C25.757 67.4876 25.6672 71.3894 25.514 75.2727C25.4981 75.6637 25.366 76.0177 25.2868 76.3902C25.1758 76.3637 25.0675 76.34 24.9566 76.3162C24.8615 75.9543 24.6871 75.5792 24.6765 75.241C24.6475 73.9043 24.6818 72.5887 24.6686 71.2547C24.6184 66.6819 24.4494 62.0747 23.6067 57.3513C23.2553 55.3832 22.8089 53.3835 22.1696 51.4101C20.7193 46.943 15.4728 42.2249 11.6714 41.2448C10.0097 40.8168 8.35075 40.6346 6.68383 40.3281C6.20039 40.2409 5.71432 40.1406 5.23088 39.9953C5.01162 39.9292 4.80293 39.7337 4.59159 39.5937C4.71047 39.459 4.79764 39.2794 4.95615 39.2001C5.14371 39.105 5.37882 39.0205 5.60601 39.0627C7.65069 39.4616 9.38894 38.9861 11.1245 38.5582C13.8138 37.8977 16.4872 37.1924 18.6006 35.5625C22.0533 32.9023 24.2222 29.262 25.2973 24.8371C26.037 21.7833 26.5601 18.6212 27.1016 15.4749C27.49 13.2268 27.7462 10.9285 28.05 8.64868C28.1002 8.28412 28.0738 7.89579 28.1319 7.53916C28.153 7.41236 28.3195 7.34367 28.4199 7.25121C28.507 7.41236 28.6682 7.59463 28.6708 7.73465C28.6735 8.41357 28.6708 9.09249 28.6021 9.75027C28.4991 10.7515 28.2798 11.7184 28.2244 12.7354C28.1662 13.8581 28.2217 15.0179 28.2534 16.167C28.2851 17.3399 28.3617 18.526 28.3961 19.6963C28.4859 22.8162 28.7844 25.9783 29.6852 29.1959C30.6521 32.6381 33.1617 35.0632 36.3054 36.8965C38.8705 38.397 41.4699 39.4167 44.1698 39.4035C45.5672 39.3982 47.0492 39.6941 48.4942 39.8685L48.489 39.8685ZM38.6776 40.9172C37.9564 40.6953 37.2458 40.5685 36.5854 40.2568C32.9953 38.5635 30.491 35.8266 29.0433 32.2709C27.556 28.6253 27.5243 25.1277 27.4583 21.638C27.4477 21.1017 27.49 20.576 27.5137 19.8575C27.3262 20.053 27.2522 20.0873 27.239 20.1507C26.7318 23.3525 25.9472 26.4248 24.703 29.2488C23.044 33.0264 20.5634 36.0882 16.828 37.9189C15.4887 38.5767 13.9723 38.9729 12.5194 39.496C12.6039 39.5567 12.6726 39.636 12.7439 39.6545C15.7449 40.4338 18.2202 42.4098 20.4313 44.7134C22.4971 46.8716 23.7599 49.4235 24.4943 52.052C25.02 53.9329 25.3713 55.8138 25.7861 57.6393C25.7861 57.6366 25.8442 57.5627 25.8653 57.4728C26.8295 53.077 28.0579 48.8371 30.8899 45.5851C32.15 44.1401 33.484 42.7717 35.3517 42.0215C36.4137 41.5961 37.547 41.2871 38.6723 40.9146L38.6776 40.9172Z" fill="black"/>
<path d="M43.0206 13.9321C43.3957 17.7547 45.1789 20.4043 49.3739 21.2338C45.0891 21.7489 43.5886 24.9718 42.2255 28.5963C41.1793 25.4923 40.0698 22.6683 36.4427 21.4557C39.5124 19.699 41.8688 17.4271 43.0206 13.9321ZM43.7312 20.3673C43.8712 20.0662 44.1935 19.7624 44.109 19.4639C43.9426 18.8906 43.5674 18.3147 43.2319 17.7547C43.1633 17.6384 42.8621 17.5037 42.7379 17.5301C42.5425 17.5697 42.3258 17.6992 42.2704 17.8709C42.2017 18.0796 42.2889 18.3781 42.3153 18.7163C42.4923 19.0491 42.6508 19.4639 42.9202 19.8073C43.1131 20.045 43.4565 20.1824 43.7312 20.3673Z" fill="#D9C786"/>
<path d="M44.109 19.4639C44.1935 19.7597 43.8712 20.0662 43.7312 20.3673C43.4539 20.185 43.1104 20.0477 42.9202 19.8073C42.6508 19.4639 42.4923 19.0465 42.3153 18.7163C42.2889 18.3781 42.2017 18.0822 42.2704 17.8709C42.3258 17.6992 42.5451 17.5697 42.7379 17.5301C42.8621 17.5037 43.1633 17.6384 43.2319 17.7547C43.5674 18.3147 43.9426 18.8906 44.109 19.4639Z" fill="black"/>
<path d="M36.5828 40.2568C37.2432 40.5685 37.9538 40.6953 38.675 40.9172C37.5496 41.2897 36.4163 41.5988 35.3544 42.0241C33.484 42.7743 32.1526 44.1428 30.8925 45.5878C28.0606 48.8397 26.8322 53.0797 25.868 57.4755C25.8468 57.5653 25.7887 57.6393 25.7887 57.6419C25.3713 55.8165 25.0226 53.9356 24.4969 52.0547C23.7599 49.4262 22.4998 46.8716 20.434 44.716C18.2202 42.4098 15.7476 40.4364 12.7466 39.6571C12.6779 39.6386 12.6066 39.562 12.522 39.4986C13.975 38.9756 15.4913 38.5793 16.8307 37.9215C20.566 36.0908 23.0466 33.0317 24.7056 29.2514C25.9499 26.4274 26.7344 23.3551 27.2417 20.1533C27.2522 20.0899 27.3288 20.0556 27.5164 19.8601C27.4926 20.5787 27.4503 21.107 27.4609 21.6406C27.5243 25.1277 27.556 28.628 29.0459 32.2735C30.4962 35.8293 33.0006 38.5661 36.588 40.2594L36.5828 40.2568ZM33.2991 40.4893C33.3176 40.27 33.418 40.0032 33.315 39.8605C32.2847 38.5159 31.1857 37.2109 30.1687 35.861C29.6298 35.1477 29.075 34.3843 28.7606 33.6102C28.3036 32.4717 28.0553 31.3014 27.7172 30.1417C27.519 29.4733 27.3183 28.805 27.1175 28.1366C27.0092 28.1155 26.9009 28.0996 26.7952 28.0785C26.6341 28.4827 26.3487 28.8525 26.3382 29.3016C26.2642 31.9169 26.0978 34.4609 28.1715 37.2637C29.4079 38.9307 30.8423 39.9371 32.5356 40.7112C32.747 40.8063 33.027 40.5923 33.2833 40.4998C33.2885 40.5051 33.2912 40.5157 33.2991 40.521C33.2991 40.513 33.2991 40.5025 33.3017 40.4945C33.307 40.4919 33.3123 40.4919 33.3202 40.4893C33.315 40.4893 33.3097 40.4919 33.3017 40.4919L33.2991 40.4893Z" fill="#D9C786"/>
<path d="M33.315 39.8605C33.4206 40.0032 33.3176 40.27 33.2991 40.4893C33.2912 40.4893 33.2833 40.4919 33.2753 40.4893C32.3296 39.2265 31.4763 37.8845 30.4143 36.7195C28.6814 34.8175 27.8704 32.8045 27.5587 30.6225C27.4715 30.0069 27.2337 29.3756 27.0647 28.7495C26.988 28.7442 26.9141 28.7389 26.8348 28.7336C26.2748 30.8047 26.531 33.0343 27.4873 35.3881C27.5639 35.5783 27.8598 35.7342 28.0553 35.9059C28.4595 36.2652 28.9218 36.5822 29.2599 36.989C29.8939 37.7551 30.4038 38.6189 31.0695 39.356C31.6718 40.019 32.4088 40.5844 33.2753 40.4866C33.2753 40.4893 33.278 40.4919 33.2806 40.4945C33.0244 40.587 32.7443 40.8036 32.533 40.7059C30.8397 39.9319 29.4052 38.928 28.1689 37.2584C26.0925 34.4556 26.2616 31.9116 26.3355 29.2963C26.3461 28.8472 26.6314 28.4774 26.7926 28.0732C26.9009 28.0943 27.0092 28.1102 27.1148 28.1313C27.3156 28.7997 27.5164 29.468 27.7145 30.1364C28.0527 31.2961 28.301 32.4664 28.758 33.605C29.0724 34.379 29.6298 35.1424 30.166 35.8557C31.1857 37.2056 32.282 38.5106 33.3123 39.8553L33.315 39.8605Z" fill="black"/>
<path d="M33.3176 40.4866C33.3176 40.4866 33.307 40.4893 33.2991 40.4919C33.2991 40.4919 33.3097 40.4866 33.3176 40.4866Z" fill="black"/>
<path d="M33.2991 40.4893C33.2991 40.4893 33.2885 40.4945 33.2806 40.4972C33.278 40.4945 33.2753 40.4919 33.2753 40.4893C33.2833 40.4919 33.2912 40.4893 33.2991 40.4893Z" fill="black"/>
<path d="M33.2991 40.4919C33.2991 40.4919 33.2965 40.5104 33.2965 40.5183C33.2912 40.513 33.2885 40.5025 33.2806 40.4972C33.2859 40.4945 33.2912 40.4945 33.2991 40.4919Z" fill="black"/>
<path d="M33.278 40.4893C32.4115 40.587 31.6744 40.0243 31.0721 39.3586C30.4064 38.6216 29.8966 37.7577 29.2626 36.9916C28.9244 36.5848 28.4621 36.2678 28.0579 35.9085C27.8625 35.7368 27.5666 35.5783 27.49 35.3908C26.5363 33.0343 26.2801 30.8047 26.8375 28.7363C26.9167 28.7389 26.9907 28.7442 27.0673 28.7521C27.2364 29.3782 27.4741 30.0096 27.5613 30.6251C27.873 32.8045 28.684 34.8201 30.417 36.7222C31.479 37.8872 32.3322 39.2292 33.278 40.4919L33.278 40.4893Z" fill="white"/>
</svg>
