<svg width="155" height="137" viewBox="0 0 155 137" fill="none" xmlns="http://www.w3.org/2000/svg">
<path d="M73.5928 120.997C73.5418 120.839 73.501 120.67 73.4602 120.507C73.246 119.655 72.9145 118.375 72.1035 117.064C70.1909 113.973 67.5999 111.969 65.1109 110.612C65.5699 109.011 66.0136 107.394 66.4268 105.757C71.8791 103.36 75.6177 99.3098 78.2291 95.5865C79.3818 96.372 80.6875 96.9126 82.085 97.1472C82.6766 99.5495 83.8905 101.585 85.5686 103.023C86.1092 106.598 88.1647 109.557 91.2504 111.296C91.9645 113.535 93.4742 115.493 95.6572 116.937C95.6164 116.962 95.5756 116.993 95.5348 117.018C93.0713 118.63 91.6687 121.068 91.684 123.715C91.6993 126.342 93.1121 128.744 95.5603 130.31C97.0241 131.238 98.5287 131.713 100.038 131.713C100.212 131.713 100.385 131.708 100.559 131.692C100.559 131.692 101.079 131.651 101.308 131.636C102.706 131.534 104.45 131.402 106.251 130.835C109.352 129.856 112.463 128.816 115.472 127.811C116.676 127.408 117.88 127.005 119.099 126.602C119.435 126.49 119.777 126.378 120.114 126.265C122.694 127.495 125.163 129.213 127.632 131.493C129.646 133.355 132.1 134.339 134.726 134.339C136.165 134.339 137.623 134.038 139.082 133.442C145.968 130.596 150.767 125.368 153.348 117.891C155.118 112.744 155.041 107.557 154.735 103.115C154.495 100.019 152.21 97.7491 150.323 96.7494C149.421 96.2751 148.569 95.9333 147.819 95.6324C147.329 95.4386 146.865 95.255 146.544 95.0867L146.483 95.0561C146.391 95.0102 146.345 94.9796 146.299 94.949C146.238 94.9082 146.177 94.8674 146.11 94.8266C145.988 93.1638 145.82 91.4501 145.463 89.6853C143.989 82.2643 140.224 75.7918 134.272 70.4364C133.568 69.8091 132.89 68.9522 132.334 68.0035C132.151 67.6873 131.998 67.4017 131.86 67.1212C131.814 66.8508 131.783 66.2694 131.768 65.8716C131.732 65.1983 131.697 64.4383 131.579 63.6223C130.881 58.5321 126.912 54.9771 121.919 54.9771C121.832 54.9771 121.741 54.9771 121.654 54.9771C120.619 53.1512 119.542 51.2895 118.369 49.4585C117.946 48.8005 117.517 48.1426 117.084 47.4897C115.263 44.7304 113.544 42.1241 112.708 39.4005C112.499 38.7221 112.295 38.0387 112.091 37.3552C111.468 35.2742 110.821 33.127 110.045 30.944C109.877 30.4799 109.709 30.0718 109.546 29.7403C108.102 26.7056 105.424 24.9612 102.191 24.9612C101.451 24.9612 100.681 25.0479 99.8395 25.2316L99.0999 25.3897C97.3964 25.7569 95.6623 26.1292 93.9179 26.5424C94.0301 26.4659 94.1373 26.3944 94.2495 26.3179C97.6514 23.9412 98.8908 19.6262 97.2485 15.7958C95.9581 12.8274 93.1223 10.9861 89.8529 10.9861C89.0623 10.9861 88.2514 11.0932 87.4812 11.2922L87.4149 11.3075C86.9967 11.4095 86.4356 11.5523 85.8134 11.7818C85.6859 8.71136 84.6352 5.82963 82.7429 3.42734C80.8966 1.05565 78.0149 0.208984 75.9288 0.208984C73.1644 0.208984 70.757 1.6626 69.6196 4.03939C68.5485 6.31927 68.9209 8.52774 69.1198 9.71613L69.1657 10.0069C69.4309 11.7818 70.3541 12.9753 70.9661 13.6179L71.0324 13.7251C71.619 14.689 72.1698 15.602 72.6034 16.4691C72.736 16.7292 72.8992 17.2239 73.0573 17.6983C73.1746 18.0451 73.2868 18.3919 73.4143 18.7336L73.6183 19.2998C72.486 18.9275 71.2926 18.7336 70.0532 18.7336C69.6553 18.7336 69.2524 18.754 68.8393 18.7948C65.932 19.0907 63.0656 21.1767 61.8517 23.8749C60.9693 25.8538 61.0254 27.7308 61.6426 29.3578C61.5406 29.3578 61.4386 29.3527 61.3417 29.3527C59.8983 29.3527 58.4497 29.4445 57.0318 29.6179C49.927 30.4952 47.7134 35.3916 47.035 38.2223C45.3111 45.3271 42.3376 51.9118 39.2773 58.0271C39.1651 58.0679 39.058 58.1087 38.9407 58.1547C38.0583 58.4862 37.0535 58.8687 35.9825 59.4349C32.6978 61.1894 30.979 63.964 29.7294 65.994C29.5049 66.3561 29.2856 66.7131 29.0612 67.0549L28.6073 67.7383C27.322 69.6816 26.2152 71.3647 24.8126 72.2981C21.7472 74.3331 19.5541 77.373 18.3045 81.285C18.1617 81.7236 18.029 82.1878 17.9066 82.6621C17.5445 84.0902 17.0294 85.5642 16.4887 87.13L16.3102 87.6401C15.6982 89.3946 15.0147 90.5779 14.1476 91.3634C11.0976 94.1431 7.90984 96.9177 4.8241 99.6056L3.17157 101.044C0.315345 103.523 -0.393611 107.343 1.41193 110.556C1.93217 111.484 2.44221 112.423 2.94715 113.356C4.29876 115.85 5.69627 118.426 7.3947 120.93C10.2611 125.143 14.3772 130.346 20.819 133.192C21.8033 133.63 22.9254 133.86 24.0577 133.86C25.598 133.86 27.0364 133.426 28.2401 132.585C29.9946 131.345 31.6063 130.05 33.0752 128.698C35.4265 131.019 38.344 132.845 41.9601 134.258C45.8262 135.767 49.9219 136.527 54.1399 136.527C56.6187 136.527 59.1995 136.262 61.8058 135.742C66.5492 134.793 70.1348 132.376 72.486 128.525C73.501 126.847 73.6489 125.179 73.7356 124.184C73.7458 124.057 73.756 123.935 73.7662 123.833" fill="white"/>
<path d="M148.747 103.579C149.038 107.741 149.053 111.923 147.671 115.937C145.764 121.456 142.29 125.623 136.792 127.892C134.971 128.637 133.227 128.479 131.712 127.081C128.59 124.2 125.143 121.808 121.205 120.181C120.746 119.992 120.103 119.951 119.639 120.104C118.828 120.369 118.012 120.635 117.201 120.905L116.905 120.007C120.42 118.855 123.878 117.539 127.157 115.784C128.468 115.09 129.641 114.147 130.881 113.316C130.794 113.173 130.712 113.035 130.626 112.892L131.003 111.969C131.365 112.122 131.661 112.408 131.829 112.938C132.273 114.305 131.365 114.978 130.309 115.483C127.678 116.728 125.035 117.952 122.337 119.212C126.673 121.048 130.794 123.098 133.961 126.954C134.191 126.903 134.665 126.842 135.104 126.689C140.939 124.644 144.682 120.527 146.238 114.657C147.003 111.796 147.079 108.73 147.273 105.747C147.329 104.834 147.008 103.456 146.37 103.033C145.406 102.396 144.386 101.845 143.341 101.314L143.8 100.427C144.988 101.034 146.319 101.421 147.513 102.054C148.054 102.339 148.706 103.023 148.747 103.569V103.579Z" fill="black"/>
<path d="M146.37 103.043C147.008 103.467 147.329 104.844 147.273 105.757C147.085 108.74 147.003 111.806 146.238 114.667C144.682 120.538 140.933 124.654 135.104 126.699C134.665 126.852 134.186 126.913 133.961 126.964C130.794 123.108 126.673 121.058 122.337 119.222C125.035 117.962 127.678 116.738 130.309 115.493C131.365 114.988 132.273 114.315 131.829 112.948C131.661 112.418 131.365 112.132 131.003 111.979C130.539 111.785 129.947 111.801 129.35 111.796C126.642 111.76 123.913 111.75 121.231 111.439C119.609 111.255 118.058 110.52 116.87 108.97C118.849 108.613 120.46 107.904 121.634 106.384C122.791 104.879 123.062 103.125 122.235 101.85C121.088 100.065 119.323 99.4322 117.303 99.9627C116.967 100.054 116.334 99.7994 116.115 99.5036C115.156 98.1673 114.243 96.8361 112.611 96.1935C112.376 96.0965 112.101 95.5916 112.167 95.357C112.555 93.8779 112.835 92.3274 113.524 90.9859C115.416 87.2933 117.466 83.6873 118.41 79.5508C120.583 80.8973 121.501 82.8253 121.736 85.2837H119.063C119.027 85.4061 118.986 85.5336 118.951 85.656C121.516 87.3851 124.072 89.109 126.637 90.838C126.719 90.8176 126.79 90.7972 126.872 90.7768C126.397 89.9812 126.066 89.0274 125.413 88.4153C123.786 86.875 123.041 85.0848 123.021 82.8355C123.006 81.336 122.342 79.9742 121.159 78.9388C119.675 77.6433 119.068 76.2152 119.343 74.0526C119.675 71.4463 119.272 68.738 119.145 66.0807C119.068 64.4996 119.971 63.3826 121.618 63.1581C122.776 62.9949 123.643 63.6988 123.98 65.1524C124.327 66.6366 124.332 68.2841 125.005 69.5847C125.26 70.0794 125.53 70.569 125.811 71.0587C126.657 72.5225 127.637 73.9251 128.815 75.0727C133.446 79.6018 136.516 84.8298 137.679 91.2665C138.429 95.4233 138.659 99.4067 136.481 103.217C134.124 107.333 131.212 108.491 126.703 107.124C126.443 107.042 126.178 106.981 125.617 106.828C126.912 108.832 129.498 109.71 131.457 109.25C136.083 108.154 138.541 105.002 139.852 100.697C139.949 100.386 140.015 100.06 140.102 99.7433C141.178 100.294 142.275 100.809 143.346 101.345C144.392 101.875 145.412 102.426 146.376 103.064L146.37 103.043Z" fill="#B28C62"/>
<path d="M143.8 100.437L143.341 101.324C142.27 100.789 141.173 100.274 140.097 99.7229C140.01 100.039 139.944 100.366 139.847 100.677C138.531 104.981 136.078 108.133 131.452 109.23C129.498 109.689 126.912 108.812 125.612 106.807C126.173 106.96 126.438 107.027 126.698 107.103C131.207 108.47 134.119 107.312 136.476 103.196C138.654 99.3863 138.424 95.4029 137.674 91.2461C136.517 84.8094 133.441 79.5814 128.81 75.0523C127.632 73.9047 126.652 72.497 125.806 71.0383L127.127 71.0077C127.978 72.4613 129.044 73.8282 130.263 74.9146C135.104 79.2703 138.307 84.4931 139.572 90.8584C139.969 92.8425 140.097 94.898 140.235 96.9279C140.357 98.7131 141.887 99.2384 142.999 99.9678C143.254 100.136 143.524 100.289 143.8 100.427V100.437Z" fill="black"/>
<path d="M131.003 111.974L130.626 112.897C128.672 112.897 126.708 112.836 124.76 112.913C121.093 113.06 117.839 112.219 115.365 109.317C114.819 108.674 114.269 108.338 113.468 108.858C113.437 108.878 113.325 108.781 113.279 108.751C113.452 108.394 113.626 108.047 113.891 107.496C113.238 107.72 112.84 107.863 112.208 108.077C112.754 107.414 113.121 106.976 113.621 106.359C111.688 106.445 110.061 106.517 108.327 106.593C109.066 109.312 110.01 111.826 108.704 114.432C109.189 114.57 109.551 114.677 110.112 114.835C109.26 115.172 108.643 115.417 107.74 115.784C108.515 116.131 108.893 116.299 109.158 116.417C108.434 116.763 107.643 116.988 107.026 117.442C105.649 118.467 104.394 119.655 103.022 120.686C101.676 121.695 100.242 122.593 98.8449 123.537C98.8857 123.72 98.9367 123.909 98.9775 124.088C100.018 124.159 101.115 124.47 102.079 124.235C105.445 123.44 108.786 122.537 112.091 121.522C113.702 121.027 115.304 120.538 116.905 120.012L117.201 120.91C112.953 122.318 108.719 123.771 104.45 125.118C103.078 125.551 101.574 125.592 100.12 125.715C99.6865 125.745 99.1765 125.5 98.7837 125.256C97.2893 124.302 97.3505 123.022 98.8194 122.058C100.538 120.93 102.216 119.742 103.879 118.533C104.292 118.237 104.588 117.773 104.868 117.467C104.119 115.856 103.124 114.616 101.839 113.637L102.369 112.964C103.573 113.907 104.807 114.82 106.062 115.784C107.485 114.458 108.133 111.943 106.949 111.551C108.872 110.046 106.735 108.485 107.179 106.899H104.012V106.032C106.327 105.65 109.132 105.328 111.871 104.691C113.396 104.334 114.564 103.242 114.799 101.498C114.998 99.978 113.978 99.0752 112.978 98.3101C112.335 97.8154 111.412 97.6012 110.581 97.4737C110.163 97.4124 109.495 97.7083 109.24 98.0551C108.123 99.5954 106.659 100.565 104.792 100.57C102.905 100.575 101.023 100.549 99.1356 100.493L99.1458 99.978C100.477 100.014 101.803 99.978 103.114 99.8351C104.715 99.6617 106.388 99.065 107.76 98.2183C108.76 97.5961 109.056 96.474 108.775 95.4794L109.688 95.3825C109.704 95.6171 110.377 95.8109 110.831 96.0761C110.831 95.2397 110.724 94.699 110.851 94.2145C111.576 91.3634 112.167 88.4561 113.172 85.6968C114.427 82.2592 115.365 78.7858 116.018 75.1747C116.569 72.1145 115.319 70.0692 113.152 68.3963C112.228 67.6822 110.984 67.2844 109.821 66.9988C108.209 66.6009 106.536 66.453 104.889 66.1776C104.098 66.045 103.298 65.688 102.527 65.7441C100.584 65.8716 98.6613 66.2184 96.7181 66.402C94.076 66.6468 91.4187 66.861 88.7716 67.0804L88.741 66.657C91.6075 66.4377 94.4841 66.1521 97.2689 65.54C100.446 64.8464 103.486 63.6172 106.791 64.8158C107.444 65.0504 108.214 65.0861 108.923 65.0249C110.647 64.8668 112.249 65.1167 113.769 65.9736C114.651 66.4734 115.605 65.9736 115.437 65.1728C114.988 63.0663 114.182 61.0313 113.478 58.9809C113.401 58.7667 113.039 58.5729 112.779 58.527C110.351 58.1036 107.924 57.4304 105.486 57.3947C103.206 57.3692 100.921 58.0628 98.6307 58.3689C97.1363 58.5627 95.6317 58.6341 94.1321 58.7616C94.1168 58.5882 94.1066 58.4097 94.0913 58.2414C100.339 58.0832 106.419 56.1706 113.259 57.0887C108.474 49.3259 105.562 41.3233 103.808 32.4894L104.129 32.3415C104.226 32.5353 104.313 32.7598 104.404 33.0097C105.358 35.7027 106.139 38.4569 106.975 41.1856C108.296 45.47 110.943 49.0147 113.32 52.7227C115.192 55.6453 116.834 58.7208 118.619 61.7963C119.18 61.628 120.098 61.2608 121.047 61.0874C123.439 60.6385 125.301 62.0208 125.632 64.4587C125.872 66.1674 125.658 68.0698 126.356 69.5541C126.591 70.0539 126.851 70.5384 127.132 71.0281L125.811 71.0587C125.53 70.569 125.26 70.0794 125.005 69.5847C124.327 68.2841 124.321 66.6315 123.98 65.1524C123.643 63.6988 122.776 62.9949 121.618 63.1581C119.971 63.3877 119.068 64.5047 119.145 66.0807C119.277 68.738 119.68 71.4463 119.343 74.0526C119.068 76.2152 119.675 77.6382 121.159 78.9388C122.342 79.9793 123 81.336 123.021 82.8355C123.041 85.0797 123.791 86.8699 125.413 88.4153C126.066 89.0274 126.392 89.9812 126.872 90.7768C126.79 90.7972 126.719 90.8176 126.637 90.838C124.072 89.109 121.516 87.3851 118.951 85.656C118.986 85.5336 119.027 85.4061 119.063 85.2837H121.736C121.496 82.8253 120.583 80.8973 118.41 79.5508C117.466 83.6873 115.416 87.2933 113.524 90.9859C112.835 92.3274 112.555 93.8779 112.167 95.357C112.106 95.5916 112.381 96.0965 112.611 96.1935C114.243 96.8361 115.156 98.1673 116.115 99.5036C116.334 99.7994 116.962 100.054 117.303 99.9627C119.323 99.4322 121.088 100.065 122.235 101.85C123.062 103.125 122.791 104.879 121.634 106.384C120.46 107.904 118.854 108.613 116.87 108.97C118.058 110.52 119.609 111.255 121.231 111.439C123.919 111.745 126.642 111.755 129.35 111.796C129.947 111.801 130.539 111.785 131.003 111.979V111.974ZM121.435 104.987C122.45 103.14 121.292 101.054 119.18 101.069C118.334 101.075 117.487 101.253 116.9 101.33C116.334 102.63 116.003 103.676 115.452 104.584C114.824 105.609 115.36 107.975 116.477 108.445C116.625 108.516 116.865 108.501 117.013 108.434C118.742 107.613 120.445 106.777 121.43 104.987H121.435Z" fill="black"/>
<path d="M130.626 112.892C130.712 113.035 130.794 113.173 130.881 113.316C129.641 114.147 128.463 115.09 127.157 115.784C123.878 117.539 120.42 118.849 116.905 120.007C115.304 120.533 113.702 121.022 112.091 121.517C108.786 122.527 105.445 123.435 102.079 124.23C101.115 124.465 100.018 124.149 98.9775 124.082C98.9367 123.904 98.8857 123.715 98.8449 123.532C100.242 122.588 101.681 121.695 103.022 120.68C104.394 119.655 105.649 118.467 107.026 117.437C107.638 116.983 108.429 116.753 109.158 116.411C108.893 116.294 108.51 116.126 107.74 115.779C108.648 115.412 109.26 115.172 110.112 114.83C109.551 114.672 109.183 114.565 108.704 114.427C110.015 111.821 109.071 109.307 108.327 106.588C110.061 106.512 111.683 106.44 113.621 106.353C113.116 106.966 112.754 107.409 112.208 108.072C112.846 107.853 113.243 107.71 113.891 107.491C113.621 108.042 113.452 108.394 113.279 108.746C113.325 108.776 113.437 108.873 113.468 108.853C114.269 108.332 114.819 108.674 115.365 109.312C117.839 112.214 121.098 113.055 124.76 112.907C126.708 112.826 128.667 112.892 130.626 112.892ZM115.166 116.095C113.075 116.529 110.989 116.957 108.898 117.391C111.157 117.768 113.254 117.37 115.166 116.095Z" fill="#F5C242"/>
<path d="M119.18 101.069C121.292 101.054 122.455 103.135 121.435 104.987C120.45 106.777 118.742 107.613 117.018 108.434C116.87 108.506 116.63 108.516 116.482 108.445C115.365 107.975 114.83 105.609 115.457 104.584C116.008 103.676 116.334 102.635 116.905 101.33C117.487 101.253 118.334 101.075 119.185 101.069L119.18 101.069Z" fill="#B28C62"/>
<path d="M113.157 68.3963C115.324 70.0692 116.574 72.1145 116.023 75.1747C115.37 78.7807 114.432 82.2592 113.177 85.6968C112.172 88.4561 111.581 91.3634 110.856 94.2145C110.729 94.699 110.836 95.2346 110.836 96.0761C110.382 95.8109 109.709 95.6171 109.693 95.3825C109.597 94.0156 108.556 93.4596 107.709 92.6946C107.403 92.4192 107.24 91.9907 107 91.6184C100.824 92.1488 94.6626 92.0162 89.5877 87.3392C86.2316 84.2381 84.064 80.4179 82.8399 76.0418C82.6511 75.3532 82.4828 74.6545 82.2941 73.9659C81.6311 71.5228 82.8807 68.6768 85.1605 67.5241C85.4513 67.3762 85.8032 67.3303 86.1296 67.2997C87.012 67.2232 87.8944 67.1518 88.7767 67.0753C91.4238 66.8559 94.0811 66.6417 96.7232 66.3969C98.6664 66.2184 100.589 65.8665 102.533 65.739C103.308 65.688 104.103 66.0399 104.894 66.1725C106.541 66.4479 108.214 66.5958 109.826 66.9937C110.989 67.2793 112.239 67.6771 113.157 68.3912V68.3963ZM87.9556 77.9697C88.0015 83.1619 92.7907 88.3082 97.6004 88.1501C97.1363 87.9155 96.6773 87.6809 96.2131 87.4616C94.8462 86.8138 93.7292 85.9365 92.8928 84.6206C91.4901 82.4173 89.9549 80.2904 88.4554 78.1431C88.3789 78.0309 88.1494 78.0309 87.9556 77.9697Z" fill="#F5C242"/>
<path d="M108.898 117.391C110.984 116.957 113.07 116.529 115.166 116.095C113.254 117.37 111.162 117.768 108.898 117.391Z" fill="black"/>
<path d="M112.988 98.2999C113.988 99.0701 115.013 99.9678 114.809 101.488C114.569 103.237 113.407 104.329 111.882 104.681C109.143 105.318 106.337 105.639 104.022 106.022C101.308 105.864 99.0897 105.792 96.8762 105.588C94.4127 105.354 92.8519 103.742 92.6326 101.33C92.5459 100.345 93.0407 100.233 93.9689 100.279C95.6929 100.366 97.4168 100.437 99.1458 100.488C101.033 100.539 102.915 100.57 104.802 100.565C106.674 100.559 108.133 99.5903 109.25 98.05C109.505 97.6981 110.173 97.4023 110.591 97.4686C111.423 97.5961 112.351 97.8154 112.988 98.305V98.2999Z" fill="#B28C62"/>
<path d="M109.693 95.3825L108.781 95.4794C108.571 94.7704 108.072 94.1278 107.317 93.7912C105.511 92.9751 103.593 92.6997 101.614 92.8017C98.1972 92.9853 94.8105 92.7813 91.7299 91.1492C90.4548 90.4708 89.9702 91.0267 89.5826 92.006C89.3837 92.5161 89.4092 93.1179 89.3276 93.679C89.4653 95.5967 89.5673 97.5859 91.5411 98.5141C92.9642 99.1823 94.5708 99.6311 96.1417 99.7841C97.1312 99.8811 98.1411 99.9474 99.1458 99.9729L99.1356 100.488C97.4066 100.442 95.6827 100.366 93.9587 100.279C93.0305 100.233 92.5408 100.34 92.6224 101.33C92.8418 103.742 94.4025 105.354 96.866 105.588C99.0795 105.798 101.298 105.864 104.012 106.022V106.889H98.4777C98.4777 109.684 100.033 111.097 101.691 112.418C101.915 112.596 102.14 112.78 102.369 112.953L101.839 113.627C101.257 113.183 100.61 112.795 99.8905 112.443C97.8758 111.474 96.3253 109.761 96.917 107.103C96.6824 106.981 96.5293 106.853 96.3559 106.823C93.1682 106.236 91.3014 104.053 91.434 100.784C91.4748 99.8351 91.2198 99.3506 90.4395 99.0395C87.267 97.795 86.8182 91.7306 89.2154 89.9863C88.6339 89.4405 88.0576 88.8948 87.4965 88.3745C87.3435 88.4459 87.2109 88.4663 87.1905 88.5224C86.5785 90.2209 85.436 91.3073 83.5794 91.2614C81.7229 91.2206 80.1979 89.8026 79.7592 87.7217C79.4634 86.3395 79.443 84.9012 79.29 83.4934C79.2492 83.0854 79.1676 82.6825 79.0707 82.0653C77.7293 84.5441 76.5766 86.8291 75.2811 89.0325C72.4197 93.9136 68.9209 98.2591 63.5399 100.447C61.7548 101.177 61.1223 102.146 60.7143 103.798C59.9442 106.915 59.0363 109.99 58.1284 113.071C57.8989 113.856 58.0774 114.137 58.8527 114.412C62.1118 115.565 65.1058 117.171 66.9878 120.216C67.4571 120.981 67.5795 121.956 67.86 122.828C67.8549 122.818 67.8447 122.802 67.8396 122.792C67.6407 122.425 67.4163 122.073 67.2479 121.701C65.6311 118.166 61.4386 115.662 57.5827 115.876C57.1899 116.651 56.8125 117.375 56.4402 118.1L55.8383 117.972C55.8383 117.279 55.6853 116.549 55.8587 115.901C57.144 111.204 58.5058 106.522 59.7962 101.819C59.9493 101.273 59.7809 100.636 59.7554 100.044C59.6993 99.7892 60.0156 99.5291 60.3777 99.4628C63.2237 98.9069 65.4679 97.29 67.4877 95.3519C73.6438 89.4354 77.6273 82.2642 79.1472 73.869C79.5093 71.9002 78.9075 69.7428 78.6422 67.6873C78.5963 67.3252 78.0608 66.9222 77.663 66.7386C76.3369 66.1266 74.9699 65.6063 73.5112 64.9994C75.9084 64.1425 78.5351 65.994 81.1822 64.2853C76.245 61.5413 71.211 62.8776 66.3248 62.9439C66.3197 62.8062 66.3197 62.6685 66.3197 62.5308C69.5992 62.0259 72.8788 61.5311 76.2042 61.0211C76.2348 60.8783 76.2501 60.7457 76.2501 60.6232L77.3671 60.6641V60.7253C77.3569 60.9548 77.6783 61.3475 77.9129 61.4036C79.0503 61.6841 80.2183 61.8728 81.2332 62.0769C82.4063 57.257 83.5539 52.5289 84.6811 47.8824C76.4899 47.5152 68.6811 45.5822 61.2397 42.0017L61.5508 41.3539C65.5801 43.3074 70.7468 44.9701 73.2868 45.2863C72.6187 43.083 71.8944 40.8541 74.72 39.5229C73.654 38.8292 72.1647 38.2274 70.4867 37.7377L70.7621 36.7789C72.3177 37.2226 73.8683 37.7683 75.3984 38.3906C75.8013 38.5487 76.3369 38.6558 76.7194 38.5232C81.1108 36.9778 85.4258 35.2232 89.8682 33.841C93.5456 32.7036 97.3352 31.9131 101.104 31.1021C102.726 30.7502 103.522 31.046 104.124 32.316L103.803 32.4639C101.059 35.7078 97.8503 37.5337 94.4688 38.972C91.0872 40.4104 87.5679 41.5171 84.0385 42.7922C84.5689 43.3482 85.033 43.8888 85.5584 44.3734C86.604 45.3322 86.7213 46.5563 86.4918 47.8161C85.64 52.3708 84.7525 56.9102 83.8804 61.4597C83.6508 62.643 83.4264 63.8212 83.202 65.0045C83.1153 65.4329 83.1459 65.8767 83.1459 65.9073C84.625 66.2643 85.844 66.8559 87.012 66.7692C87.5883 66.7284 88.1596 66.6825 88.741 66.6417L88.7716 67.0651C87.8893 67.1416 87.0069 67.213 86.1245 67.2895C85.7981 67.315 85.4462 67.366 85.1555 67.5139C82.8756 68.6666 81.626 71.5126 82.289 73.9557C82.4777 74.6443 82.6461 75.343 82.8348 76.0316C84.0589 80.4077 86.2265 84.233 89.5826 87.3289C94.6575 92.006 100.819 92.1386 106.995 91.6082C107.235 91.9805 107.398 92.4089 107.704 92.6844C108.551 93.4494 109.597 94.0054 109.688 95.3723L109.693 95.3825ZM101.829 32.8312C101.737 32.7036 101.645 32.571 101.553 32.4384C93.0254 32.3313 85.7063 36.5442 77.4385 39.0893C79.4685 40.2012 81.0649 41.0989 82.6869 41.9558C82.845 42.0425 83.1357 41.8946 83.3652 41.8436C89.5622 40.5532 95.2644 38.1509 100.273 34.2338C100.824 33.8053 101.314 33.3004 101.824 32.8312H101.829ZM85.9256 89.5068C86.3642 89.0019 86.7213 87.8492 86.4407 87.3953C85.2524 85.4673 83.814 83.6924 82.2635 81.5859C81.8606 83.422 81.3965 85.0695 81.1618 86.7526C80.8915 88.6602 82.1105 90.4249 83.8038 90.5065C84.5128 90.5371 85.4462 90.0628 85.9256 89.5119V89.5068ZM85.2677 45.8066C84.2323 44.5621 83.5692 43.1646 81.9422 43.1085C79.3563 43.0218 76.7653 43.0881 74.0417 43.0881C73.9295 44.0112 73.4806 45.4598 74.8934 45.8117C78.2393 46.6277 81.6566 46.4849 85.2677 45.8066ZM74.2916 41.3233C76.041 42.5015 79.1166 42.833 80.815 42.0068C79.6317 41.4508 78.5045 40.951 77.4181 40.3849C76.0308 39.6606 75.1332 40.2777 74.2916 41.3233Z" fill="black"/>
<path d="M108.781 95.4794C109.061 96.474 108.765 97.5961 107.766 98.2183C106.394 99.065 104.721 99.6566 103.119 99.8351C101.808 99.978 100.482 100.014 99.151 99.978C98.1462 99.9525 97.1363 99.881 96.1468 99.7892C94.581 99.6362 92.9744 99.1874 91.5462 98.5192C89.5724 97.591 89.4704 95.6018 89.3327 93.6841C89.4143 93.123 89.3837 92.5212 89.5877 92.0111C89.9753 91.0318 90.4548 90.4759 91.735 91.1543C94.8156 92.7864 98.2023 92.9904 101.62 92.8068C103.593 92.7048 105.511 92.9802 107.322 93.7963C108.072 94.1329 108.576 94.7755 108.786 95.4845L108.781 95.4794Z" fill="#B28C62"/>
<path d="M107.184 106.894C106.745 108.48 108.877 110.041 106.955 111.546C108.138 111.938 107.49 114.453 106.067 115.779C104.812 114.815 103.578 113.902 102.374 112.958C102.145 112.785 101.92 112.601 101.696 112.423C100.038 111.097 98.4828 109.689 98.4828 106.894H107.184Z" fill="#B28C62"/>
<path d="M97.6055 88.1501C92.7958 88.3082 88.0066 83.1619 87.9607 77.9697C88.1494 78.0309 88.384 78.0309 88.4605 78.1431C89.96 80.2955 91.4952 82.4173 92.8979 84.6206C93.7343 85.9365 94.8513 86.8138 96.2182 87.4616C96.6824 87.6809 97.1414 87.9155 97.6055 88.1501Z" fill="black"/>
<path d="M91.7503 18.2032C92.2807 19.4375 91.8727 20.6667 90.8169 21.4012C89.2205 22.5181 87.471 23.4056 85.8236 24.4512C83.8395 25.711 81.8861 27.0371 79.6113 28.5417C80.5804 26.5271 81.2434 24.5634 82.3808 22.9313C83.6508 21.1155 85.2983 19.5497 86.8947 17.989C87.3945 17.4993 88.231 17.3055 88.9501 17.127C90.0977 16.8312 91.2351 17.0097 91.7503 18.2032ZM90.0212 20.1924C90.5058 19.7639 90.6282 18.9326 90.924 18.2797C90.1844 18.0961 89.45 17.8666 88.7053 17.7442C88.4656 17.7034 88.1749 17.9227 87.9199 18.0553C85.0075 19.565 83.4417 22.2274 82.0493 25.0326C83.7834 24.0075 85.5125 22.9823 87.2415 21.952C88.1851 21.3859 89.2154 20.9115 90.0212 20.1924Z" fill="black"/>
<path d="M92.806 58.8585C91.9543 59.088 91.1076 59.343 90.2456 59.5318C89.2715 59.7562 88.2361 59.7868 87.3231 60.1387C86.4867 60.4651 85.7777 61.1129 84.9259 61.6739C85.5788 59.1849 88.5472 59.1288 92.806 58.8534V58.8585Z" fill="black"/>
<path d="M90.924 18.2797C90.6333 18.9326 90.5058 19.7639 90.0212 20.1924C89.2154 20.9115 88.1851 21.3859 87.2415 21.952C85.5125 22.9874 83.7834 24.0075 82.0493 25.0326C83.4417 22.2325 85.0075 19.565 87.9199 18.0553C88.1749 17.9227 88.4656 17.6983 88.7053 17.7442C89.45 17.8666 90.1844 18.0961 90.924 18.2797Z" fill="#F5C242"/>
<path d="M86.4407 87.3953C86.7213 87.8492 86.3642 89.007 85.9256 89.5068C85.4411 90.0577 84.5128 90.532 83.8038 90.5014C82.1105 90.4147 80.8915 88.6551 81.1618 86.7475C81.3964 85.0695 81.8606 83.4221 82.2635 81.5808C83.814 83.6873 85.2574 85.4622 86.4407 87.3902L86.4407 87.3953Z" fill="#B28C62"/>
<path d="M78.0098 7.12513C79.2645 8.72156 79.8765 10.5883 79.8357 12.5979C79.8102 13.9699 79.5297 15.3368 79.3614 16.7037H79.0656C78.7136 15.7397 78.4433 14.7349 77.9894 13.8169C77.3416 12.5163 76.5664 11.2718 75.8115 10.0222C75.6228 9.70083 75.1638 9.46111 75.1178 9.13979C74.9903 8.29822 74.7404 7.29854 75.0668 6.60999C75.4137 5.89083 77.3467 6.27336 78.0098 7.13023V7.12513ZM78.9228 13.8322C79.0809 9.96095 77.9384 7.73718 75.2097 7.23734C75.6381 10.0783 78.7952 11.134 78.9228 13.8322Z" fill="black"/>
<path d="M78.6473 67.6975C78.9125 69.753 79.5093 71.9104 79.1523 73.8792C77.6323 82.2694 73.6489 89.4405 67.4927 95.3621C65.473 97.3002 63.2288 98.9171 60.3828 99.473C60.0207 99.5444 59.7044 99.7994 59.7605 100.054C59.786 100.646 59.9544 101.284 59.8013 101.829C58.516 106.527 57.1542 111.209 55.8638 115.912C55.6904 116.559 55.8434 117.289 55.8434 117.982L56.4453 118.11C56.8227 117.386 57.195 116.656 57.5878 115.886C61.4437 115.672 65.6413 118.181 67.253 121.711C67.4213 122.083 67.6458 122.435 67.8447 122.797C67.0592 125.623 65.32 127.648 62.5301 128.525C60.9489 129.015 59.2352 129.244 57.5776 129.259C53.5329 129.285 49.5801 128.576 45.8007 127.097C42.5977 125.847 39.6752 124.108 37.3647 121.512C35.6356 119.574 35.8447 117.483 37.9512 115.978C38.6704 115.463 39.5629 115.152 40.4096 114.841C41.2512 114.535 42.4855 114.295 43.7504 114.162C45.1275 114.019 46.5403 113.994 47.54 114.132C47.2084 114.948 46.9534 115.769 46.5454 116.508C45.8619 117.758 46.4383 118.61 47.4635 119.099C48.5397 119.615 49.7535 119.834 50.9062 120.191C50.9572 120.058 51.0133 119.931 51.0644 119.798C49.8403 119.089 48.6111 118.375 47.6216 117.799C49.1262 113.693 50.6002 109.863 51.9314 105.986C52.7118 103.732 53.3085 101.411 53.8951 99.1007C54.1654 98.0398 53.8492 97.1676 52.7475 96.6015C48.7233 94.546 46.0966 91.2104 44.4389 87.0943C43.9493 85.8804 43.8167 84.5237 43.5617 83.3965C46.168 82.351 48.6519 81.5145 50.9878 80.3822C53.5431 79.1479 55.4252 77.2353 56.1393 74.4198C56.1801 74.2668 56.2209 74.1138 56.2515 73.9557C56.7207 71.6401 55.6802 70.5282 53.3442 70.5894C50.0596 70.6812 46.7698 70.6098 43.3066 70.6098C43.3933 70.1151 43.4699 69.6357 43.5617 69.1307C45.7089 69.9213 47.6165 69.1154 49.524 68.6411C52.8036 67.8352 56.0576 66.9376 58.8731 66.1929C56.4759 65.6727 53.8288 66.8406 51.1001 67.519C49.1466 68.0035 47.3054 69.2174 45.1479 68.5646C44.9745 68.5085 44.8113 68.4116 44.648 68.3402C45.0255 65.3003 46.1731 64.3312 49.4424 64.7903C51.8396 65.1218 54.1705 65.2085 56.5524 64.7546C59.4443 64.1986 62.3566 63.7549 65.2129 62.949L66.3146 62.9592C71.2058 62.8878 76.2348 61.5566 81.172 64.3006C78.5249 66.0093 75.9033 64.1578 73.501 65.0147C74.9648 65.6165 76.3317 66.1368 77.6527 66.7539C78.0506 66.9375 78.5861 67.3405 78.632 67.7026L78.6473 67.6975ZM74.3834 78.5461C74.4752 78.3523 74.2202 77.9901 74.1233 77.7045C73.8479 77.8269 73.4092 77.883 73.3327 78.0819C73.0828 78.7399 72.9706 79.4437 72.8023 80.1272C72.9553 80.1986 73.1032 80.2598 73.2562 80.3261C73.6438 79.7396 74.0723 79.1734 74.3783 78.5461H74.3834ZM71.8179 65.4533C71.8128 65.3207 71.8128 65.1881 71.8128 65.0555C70.6193 65.2085 69.436 65.3615 68.2425 65.5196C68.268 65.6828 68.2935 65.8512 68.3241 66.0195C69.487 65.8359 70.655 65.642 71.8179 65.4533ZM59.4188 124.74C59.378 124.572 59.3321 124.394 59.2913 124.22C58.006 124.526 56.7105 124.832 55.4252 125.143C55.4813 125.368 55.5476 125.592 55.6037 125.817C56.8737 125.454 58.1488 125.103 59.4188 124.74ZM54.0328 126.112C54.0685 125.893 54.1093 125.679 54.145 125.465C52.6302 125.108 51.1205 124.761 49.6107 124.409C46.1935 123.608 42.9598 122.527 41.0982 119.186C41.0268 119.059 40.8227 119.008 40.6799 118.916C40.7003 119.645 40.8227 120.354 41.2359 120.788C42.5722 122.165 44.0003 123.45 45.4335 124.735C45.6477 124.924 46.0354 124.96 46.3567 124.98C46.882 125.021 47.4227 124.929 47.9276 125.011C49.9729 125.347 52.0028 125.74 54.0379 126.112H54.0328ZM46.4434 121.655C45.7446 120.706 44.8011 119.859 44.4389 118.809C44.0921 117.809 44.3624 116.6 44.3624 115.453C42.9241 115.917 42.2968 116.809 42.5008 117.977C42.7711 119.523 44.8368 121.415 46.4383 121.655H46.4434Z" fill="#F5C242"/>
<path d="M78.9228 13.8322C79.0809 9.96095 77.9384 7.73718 75.2097 7.23734C75.6381 10.0783 78.7952 11.134 78.9228 13.8322Z" fill="#F5C242"/>
<path d="M74.8424 57.8792C76.1226 58.3026 77.4181 58.9452 77.3722 60.6794L76.2552 60.6385C76.2552 59.9143 75.7197 59.4451 74.924 59.2767C72.838 58.8534 70.6907 58.0832 68.6403 58.2618C64.4631 58.6137 60.3012 59.3685 56.1852 60.2101C54.3235 60.5926 52.5945 61.577 50.5543 62.388C53.181 63.2857 55.3487 64.3057 57.9448 63.7549C60.3216 63.25 62.7902 63.1989 65.2231 62.949C62.3668 63.7549 59.4545 64.1986 56.5626 64.7546C54.1858 65.2085 51.8549 65.1269 49.4526 64.7903C46.1833 64.3312 45.0357 65.3003 44.6583 68.3402C44.8164 68.4116 44.9796 68.5034 45.1581 68.5646C47.3207 69.2225 49.1568 68.0035 51.1103 67.519C53.839 66.8406 56.481 65.6778 58.8833 66.1929C56.0628 66.9325 52.8138 67.8352 49.5342 68.6411C47.6216 69.1103 45.714 69.9162 43.5719 69.1307C43.4801 69.6357 43.4035 70.1151 43.3168 70.6098C46.78 70.6098 50.0698 70.6812 53.3544 70.5894C55.6904 70.5282 56.736 71.6401 56.2617 73.9557C56.2311 74.1138 56.1903 74.2668 56.1495 74.4198L55.1549 74.1852C55.3079 73.6038 55.2824 72.8132 54.9866 72.4205C54.7111 72.0533 53.7166 71.9971 53.13 72.1553C49.9627 73.0019 46.7749 72.9662 43.5617 72.6092C40.9095 72.3134 38.4001 72.242 36.0896 74.1138C33.5751 76.154 30.7698 77.8524 28.1482 79.7702C26.7558 80.7851 25.7715 81.9786 25.3634 83.5751L24.0118 83.167C24.7718 80.7953 26.0061 78.7297 28.1329 77.3118C30.7852 75.547 32.3663 72.9407 34.0596 70.3956C35.4265 68.33 36.5027 65.9838 38.8132 64.7495C40.073 64.0813 41.4756 63.6937 42.7762 63.0969C43.2454 62.8776 43.7606 62.4951 43.985 62.0463C47.6369 54.8598 50.9623 47.5407 52.875 39.6555C53.5074 37.039 55.0988 35.9271 57.7714 35.5956C62.2648 35.0396 66.5747 35.5752 70.7774 36.7942L70.502 37.753C65.1568 36.2025 57.8938 35.8557 56.3484 37.7734C57.1389 38.921 59.1485 40.2012 61.5661 41.3692L61.255 42.017C59.0261 40.951 56.838 39.732 54.6754 38.3651C53.5176 46.7808 50.2993 54.1712 46.7596 61.4852C48.5346 61.0313 50.1106 60.3784 51.7478 59.9041C55.0274 58.9503 58.3222 58.022 61.6477 57.2468C62.882 56.9612 64.2234 57.1907 65.5036 57.0785C68.6658 56.8183 71.8128 56.8694 74.8424 57.8741V57.8792ZM41.4603 69.906C41.7204 68.5799 41.8785 67.2334 42.0723 65.8461C39.3181 66.504 38.1297 68.7635 36.6149 70.7016C38.0532 70.5639 39.3283 70.467 40.5983 70.314C40.9044 70.2732 41.4195 70.0896 41.4552 69.9009L41.4603 69.906Z" fill="black"/>
<path d="M76.7449 31.8774C76.8469 32.1834 76.6021 32.5965 76.4083 33.4279C74.8781 30.0361 71.8995 29.8933 69.3646 28.9906C69.1351 28.9089 68.9209 28.8069 68.7066 28.6947C67.7478 28.1847 66.8858 27.3788 67.3499 26.3332C67.6662 25.6243 68.6862 24.8643 69.4564 24.7878C72.0525 24.5277 73.9601 25.9507 75.2607 28.047C75.9747 29.1895 76.3215 30.5768 76.7449 31.8825V31.8774ZM74.7863 29.5312C74.0519 27.4349 71.4405 25.5427 69.4819 25.8538C68.8954 25.9507 68.3955 26.5628 67.8549 26.9453C68.2884 27.3278 68.6658 27.9042 69.1708 28.0572C71.0171 28.6233 72.9094 29.0518 74.7863 29.5312Z" fill="black"/>
<path d="M76.2552 60.6385C76.2552 60.761 76.2399 60.8936 76.2093 61.0364C72.8839 61.5464 69.6043 62.0412 66.3248 62.5461C66.3248 62.6838 66.3248 62.8215 66.3299 62.9592L65.2282 62.949C62.7953 63.1989 60.3267 63.25 57.9499 63.7549C55.3538 64.3057 53.1861 63.2857 50.5594 62.388C52.5996 61.577 54.3286 60.5926 56.1903 60.2101C60.3063 59.3685 64.4631 58.6086 68.6454 58.2618C70.6958 58.0883 72.8431 58.8534 74.9291 59.2767C75.7248 59.4451 76.2603 59.9143 76.2603 60.6385H76.2552Z" fill="#D9C786"/>
<path d="M74.1233 77.7045C74.2202 77.9901 74.4752 78.3523 74.3834 78.5461C74.0774 79.1734 73.6489 79.7396 73.2613 80.3261C73.1083 80.2547 72.9604 80.1935 72.8074 80.1272C72.9757 79.4437 73.0879 78.7399 73.3378 78.0819C73.4143 77.8881 73.8529 77.8269 74.1284 77.7045H74.1233Z" fill="black"/>
<path d="M71.8128 65.0555C71.8128 65.1881 71.8128 65.3207 71.8179 65.4533C70.655 65.642 69.487 65.8359 68.3241 66.0195C68.2986 65.8563 68.2731 65.6879 68.2425 65.5196C69.436 65.3615 70.6193 65.2085 71.8128 65.0555Z" fill="black"/>
<path d="M69.487 25.8538C71.4405 25.5427 74.0519 27.4349 74.7914 29.5312C72.9145 29.0569 71.0273 28.6233 69.1759 28.0572C68.6709 27.9042 68.2986 27.3278 67.86 26.9453C68.4006 26.5628 68.9005 25.9507 69.487 25.8538Z" fill="#F5C242"/>
<path d="M67.86 122.802C67.7019 123.69 67.7784 124.725 67.3448 125.444C65.8249 127.933 63.5348 129.29 60.6276 129.871C54.9917 130.999 49.4934 130.769 44.1431 128.678C41.4093 127.607 38.8897 126.169 36.8342 123.965C34.7227 121.695 34.3401 119.013 35.503 116.988C36.2222 115.743 37.5228 114.749 39.364 114.249C40.7666 113.866 42.2356 113.698 43.7096 113.555L43.7657 114.157C42.5008 114.29 41.2665 114.529 40.4249 114.835C39.5782 115.147 38.6857 115.463 37.9665 115.973C35.8601 117.477 35.6509 119.569 37.38 121.507C39.6956 124.103 42.613 125.842 45.816 127.092C49.5954 128.571 53.5431 129.28 57.5929 129.254C59.2505 129.239 60.9693 129.004 62.5454 128.52C65.3302 127.648 67.0745 125.618 67.86 122.797V122.802Z" fill="black"/>
<path d="M59.2913 124.22C59.3321 124.394 59.378 124.572 59.4188 124.74C58.1488 125.103 56.8737 125.454 55.6037 125.817C55.5476 125.592 55.4813 125.368 55.4252 125.143C56.7105 124.837 58.006 124.531 59.2913 124.22Z" fill="black"/>
<path d="M55.1549 74.1801L56.1495 74.4147C55.4405 77.2353 53.5534 79.1428 50.9981 80.3771C48.6621 81.5094 46.1782 82.3459 43.5719 83.3915C43.832 84.5186 43.9646 85.8753 44.4491 87.0892C46.1017 91.2053 48.7284 94.5409 52.7577 96.5964C53.8594 97.1625 54.1756 98.0347 53.9053 99.0956C53.3187 101.406 52.7169 103.727 51.9416 105.981C50.6053 109.857 49.1364 113.688 47.6318 117.794C48.6213 118.365 49.8505 119.079 51.0746 119.793C51.0236 119.926 50.9674 120.053 50.9164 120.186C49.7638 119.829 48.5499 119.609 47.4737 119.094C46.4536 118.605 45.8721 117.753 46.5556 116.503C46.9636 115.764 47.2187 114.943 47.5502 114.126C46.5556 113.989 45.1377 114.014 43.7606 114.157L43.7045 113.555C44.796 113.448 45.8925 113.361 46.9738 113.203C47.3564 113.152 47.9378 112.892 48.0296 112.596C48.9273 109.832 49.728 107.027 50.5543 104.242C50.4472 104.191 50.335 104.14 50.2279 104.089C49.3149 105.4 48.4274 106.726 47.489 108.016C45.8874 110.209 44.1023 112.239 41.4399 113.111C40.3433 113.474 39.109 113.657 37.9716 113.555C37.2117 113.484 36.8495 113.611 36.5384 114.081L35.248 113.367L35.3092 113.254C33.7638 111.938 32.2031 110.878 30.9943 109.506C29.7753 108.128 28.3727 107.695 26.6742 107.736C26.3223 107.746 25.9755 107.69 25.2767 107.629C27.9901 105.522 30.4995 105.645 32.5652 107.649C33.3609 108.414 34.2024 109.148 35.1256 109.745C36.4976 110.633 37.9716 111.337 39.7109 110.954C41.7612 110.505 43.3933 109.398 44.7093 107.797C46.8718 105.185 49.0191 102.559 51.1766 99.9423C51.6815 99.3353 51.6713 98.861 50.9011 98.458C47.5298 96.7035 44.8827 94.2298 43.2199 90.7666C43.1179 90.5575 42.8629 90.4198 42.6487 90.2158C41.5827 93.1332 40.8942 96.1118 38.4154 98.1469C38.905 93.5259 40.3076 89.0121 38.8387 84.182C35.6101 85.9263 33.8658 89.0886 31.3666 91.4603C31.285 91.1798 31.3207 90.9961 31.4074 90.8533C32.8202 88.6347 34.3707 86.4925 35.6254 84.1922C37.3596 81.0045 40.1597 80.0456 43.4852 79.8212C45.3774 79.6937 47.3258 79.6426 49.116 79.1122C51.6611 78.3522 54.0583 77.1282 55.0937 74.3994C55.1192 74.328 55.1396 74.2617 55.1651 74.1801H55.1549Z" fill="black"/>
<path d="M54.9866 72.4205C55.2824 72.8132 55.3079 73.6038 55.1549 74.1852C55.1345 74.2668 55.1141 74.3331 55.0835 74.4045C54.0481 77.1333 51.6509 78.3625 49.1058 79.1173C47.3156 79.6478 45.3672 79.6988 43.475 79.8263C40.1495 80.0507 37.3443 81.0096 35.6152 84.1973C34.3605 86.4976 32.8151 88.6347 31.3972 90.8584C31.3054 91.0013 31.2748 91.1849 31.3564 91.4654C33.8556 89.0937 35.605 85.9314 38.8285 84.1871C40.2974 89.0172 38.8897 93.531 38.4052 98.152C40.884 96.1169 41.5725 93.1383 42.6385 90.2209C42.8578 90.43 43.1077 90.5677 43.2097 90.7717C44.8725 94.2349 47.5196 96.7086 50.8909 98.4631C51.6611 98.8661 51.6713 99.3353 51.1664 99.9474C49.0089 102.564 46.8616 105.191 44.6991 107.802C43.378 109.403 41.7459 110.51 39.7007 110.959C37.9563 111.342 36.4874 110.643 35.1154 109.75C34.1922 109.154 33.3507 108.414 32.555 107.654C30.4893 105.645 27.9799 105.522 25.2665 107.634C25.9653 107.69 26.3172 107.751 26.664 107.741C28.3625 107.7 29.7702 108.133 30.9841 109.511C32.198 110.883 33.7536 111.949 35.299 113.259L35.2378 113.372C32.6162 118.207 29.2907 122.593 24.6137 125.822C24.2566 126.061 23.4304 125.862 22.9509 125.623C20.2171 124.23 18.1005 122.109 16.1623 119.757C13.4081 116.411 11.0823 112.805 9.41446 108.791C9.12374 108.088 8.70551 107.44 8.43009 106.93C12.1024 104.017 15.7084 101.151 19.3194 98.2795C19.4674 99.0089 19.6459 99.9014 19.8499 100.886C20.161 100.712 20.365 100.656 20.3752 100.58C20.7986 97.1268 22.5684 94.2145 23.9914 91.1339C24.7871 89.4099 25.19 87.3443 25.1543 85.452C25.1441 84.7686 25.2104 84.1514 25.3634 83.5802C25.7715 81.9837 26.7558 80.7953 28.1482 79.7753C30.7698 77.8575 33.5751 76.1591 36.0896 74.1189C38.4052 72.2471 40.9095 72.3185 43.5617 72.6143C46.7698 72.9713 49.9627 73.007 53.13 72.1604C53.7115 72.0022 54.7111 72.0584 54.9866 72.4256V72.4205Z" fill="#D9C786"/>
<path d="M54.145 125.465C54.1093 125.679 54.0685 125.893 54.0328 126.112C51.9977 125.74 49.9678 125.347 47.9225 125.011C47.4125 124.924 46.8718 125.021 46.3516 124.98C46.0354 124.96 45.6426 124.929 45.4284 124.735C44.0003 123.455 42.5671 122.165 41.2308 120.788C40.8176 120.359 40.6952 119.65 40.6748 118.916C40.8176 119.008 41.0268 119.059 41.0931 119.186C42.9547 122.527 46.1884 123.608 49.6056 124.409C51.1154 124.761 52.6251 125.108 54.1399 125.465H54.145Z" fill="black"/>
<path d="M44.4389 118.814C44.8011 119.864 45.7395 120.711 46.4434 121.66C44.8419 121.42 42.7762 119.528 42.5059 117.982C42.2968 116.809 42.9241 115.922 44.3675 115.458C44.3675 116.605 44.0972 117.814 44.444 118.814H44.4389Z" fill="black"/>
<path d="M42.0774 65.8512C41.8836 67.2334 41.7204 68.585 41.4654 69.9111C41.4297 70.0998 40.9146 70.2834 40.6085 70.3242C39.3385 70.4772 38.0634 70.5741 36.6251 70.7119C38.1399 68.7737 39.3283 66.5091 42.0825 65.8563L42.0774 65.8512Z" fill="#D9C786"/>
<path d="M35.2429 113.367L36.5333 114.081C36.4466 114.208 36.365 114.361 36.2783 114.54C35.9162 115.305 35.5285 116.044 35.1052 116.758C32.5499 121.17 28.9745 124.72 24.7718 127.694C24.4199 127.938 23.6854 127.908 23.257 127.714C18.4575 125.597 15.1983 121.736 12.3625 117.564C10.2203 114.412 8.52189 110.954 6.64494 107.623C6.21141 106.848 6.42053 106.19 7.10908 105.588C10.8222 102.35 14.5506 99.1313 18.1923 95.816C20.0284 94.1431 21.1709 91.955 21.9819 89.6241C22.6092 87.8186 23.2519 86.008 23.7262 84.1565C23.8129 83.825 23.9047 83.4884 24.0118 83.167L25.3634 83.5751C25.2155 84.1412 25.1441 84.7635 25.1543 85.4469C25.1849 87.3443 24.782 89.4099 23.9914 91.1288C22.5684 94.2043 20.7986 97.1217 20.3752 100.575C20.365 100.656 20.161 100.707 19.8499 100.881C19.651 99.8963 19.4674 99.0038 19.3194 98.2744C15.7084 101.146 12.0973 104.012 8.43009 106.925C8.70551 107.435 9.12374 108.077 9.41446 108.786C11.0823 112.8 13.4081 116.406 16.1623 119.752C18.1005 122.103 20.2222 124.225 22.9509 125.618C23.4355 125.862 24.2617 126.056 24.6137 125.817C29.2907 122.588 32.6162 118.207 35.2378 113.367H35.2429Z" fill="black"/>
</svg>
