<svg width="125" height="135" viewBox="0 0 125 135" fill="none" xmlns="http://www.w3.org/2000/svg">
<path d="M124.725 73.9758C124.678 69.9816 123.002 66.8224 119.738 64.5333C119.697 60.6092 118.295 56.7201 115.539 52.9361C115.37 52.7026 115.27 52.5391 115.212 52.4339C115.224 52.3989 115.241 52.358 115.259 52.3113C116.654 48.8368 116.649 45.701 115.247 43.0032C114.383 41.3389 113.069 40.0075 111.323 39.0265C110.85 34.9213 108.783 31.2833 105.279 28.5271C103.953 27.4818 102.862 26.022 101.758 23.8205C100.549 21.3971 98.5403 19.2365 96.2512 17.8993C94.1023 16.6438 91.7782 16.0073 89.3373 16.0073C87.784 16.0073 86.2073 16.2642 84.5723 16.7956C82.7679 14.7868 79.9649 13.0408 75.6612 13.0408C74.1605 13.0408 72.6714 13.2394 71.4042 13.4321C70.248 13.6131 69.1444 13.8817 68.0991 14.2437C66.7969 9.42617 64.0757 6.79841 61.9092 5.42029L53.9675 0.369141L51.8887 9.53712C51.7427 10.1678 51.6434 10.7634 51.55 11.2831C51.4682 11.7561 51.3573 12.4101 51.2989 12.5678C50.8376 13.5547 49.8857 14.9386 47.001 15.5401C45.3193 15.8963 43.4214 16.0365 41.4127 16.1883C40.6594 16.2467 39.9119 16.2992 39.1528 16.3693C38.1309 16.4627 37.0623 16.5153 35.9352 16.5679C35.2695 16.6029 34.6038 16.6321 33.9206 16.673C29.5235 16.9533 27.6549 19.7037 27.0534 20.8716C26.522 21.9051 25.5643 24.4745 26.9833 27.6453C23.7658 28.095 20.7701 30.676 19.9876 33.7768C19.8475 34.3199 19.6372 34.6469 19.2343 34.9622C17.681 36.1535 16.1452 37.2455 14.662 38.2031C11.1233 40.4864 6.04878 44.2178 2.77867 50.2033C1.42975 52.6734 0.641419 55.1259 0.437038 57.4909C0.00491621 62.4486 2.9013 68.9071 7.58456 72.4692C4.16847 76.5393 3.00641 81.3861 4.3962 85.8533C5.49987 89.3978 8.0634 92.2183 11.6313 93.9234C10.7729 96.6797 10.3758 99.6637 10.4342 102.916C10.5802 111.016 17.6752 120.073 26.9424 120.073C26.9775 120.073 27.0125 120.073 27.0475 120.073C27.2227 120.312 27.4096 120.546 27.6023 120.779C29.1089 122.624 30.5863 124.079 32.1045 125.206C35.5148 127.752 39.1061 129.042 42.7733 129.042C45.5178 129.042 48.204 128.318 50.7967 126.893C52.5836 129.171 54.896 131.355 58.0902 132.849C58.5924 133.083 59.1004 133.311 59.6026 133.544L61.4187 134.368H65.372L66.7735 133.661C67.1239 133.486 67.4801 133.317 67.8305 133.147C68.7823 132.692 69.8568 132.172 70.9371 131.524C71.3926 131.249 71.8072 130.969 72.175 130.695C73.4481 131.279 74.8554 131.582 76.362 131.582C77.0744 131.582 77.7985 131.512 78.5459 131.384C80.7124 131.01 82.616 130.338 84.2277 129.375C84.6365 129.451 85.0745 129.503 85.5358 129.527C85.7694 129.538 86.0029 129.544 86.2307 129.544C92.1169 129.544 97.3315 125.795 99.5097 119.991C101.507 114.659 101.793 109.34 100.391 104.312C102.067 104.686 103.942 105.065 106.05 105.065C107.294 105.065 108.508 104.925 109.665 104.656C114.576 103.506 118.587 99.7337 120.672 94.2972C122.027 90.7643 122.365 87.027 121.741 83.6518C123.446 81.5145 124.736 78.4196 124.689 73.9466L124.725 73.9758Z" fill="white"/>
<path d="M111.288 72.8196C111.954 74.3145 110.616 76.6035 109.186 77.3393C108.491 77.6955 107.749 77.9817 107.019 78.2678C106.348 78.5306 105.664 78.7466 104.981 78.9861C104.987 79.132 104.999 79.278 105.005 79.424C106.243 79.7277 107.486 80.0313 108.993 80.3992C108.876 81.2868 109.01 82.4372 108.567 83.2839C106.891 86.4839 104.765 89.1176 100.771 89.7307C97.9096 90.1745 95.0191 90.8811 92.3446 91.9731C88.0584 93.7249 86.6044 97.4505 86.3007 101.848C86.108 104.639 86.5927 107.588 84.8409 110.11C84.5139 110.578 84.1518 111.01 83.6379 111.681C83.2817 110.005 83.054 108.586 82.6803 107.214C81.8394 104.137 79.4919 102.216 77.2379 100.213C76.5138 99.5644 75.9532 98.741 75.2875 98.0286C74.9955 97.7133 74.6276 97.468 74.3006 97.1877C74.0787 97.6023 73.5824 98.1045 73.6816 98.4257C74.213 100.207 74.7152 102.029 75.5619 103.675C76.6598 105.813 77.7868 107.921 77.5415 110.373C77.162 114.157 76.1868 117.713 72.6889 120.084C71.4276 118.519 69.7984 118.099 68.0582 118.379C63.4041 119.138 60.8348 116.738 59.188 112.779C58.791 111.81 58.2128 110.905 57.88 109.918C57.2727 108.119 55.9997 106.986 54.3588 106.286C53.4887 105.918 53.2435 105.486 53.1325 104.563C52.8055 101.818 52.3033 99.0914 51.8595 96.3643C51.585 94.6884 51.2931 93.0242 50.9427 90.9745C50.5164 91.5117 49.9208 91.9439 49.7865 92.4928C49.3135 94.414 48.7354 96.376 48.677 98.3322C48.531 103.056 47.1937 107.313 44.3733 111.08C42.855 113.112 40.4608 114.385 37.9557 111.792C36.8754 110.683 35.6666 109.509 35.106 108.125C34.5046 106.648 34.5396 104.89 34.4286 103.243C34.4053 102.899 34.9425 102.496 35.2579 102.151C38.4053 98.6885 38.2126 91.4241 34.8199 88.557C33.5469 87.4825 32.0403 87.0037 30.1308 87.6285C30.9542 88.154 31.5965 88.5745 32.2564 88.9832C35.5206 91.0154 34.1016 96.5103 32.1863 98.3147C30.5979 99.8155 29.0797 101.451 27.795 103.214C25.8855 105.836 22.8139 105.766 21.2898 102.823C19.8416 100.026 20.5482 97.4505 22.3876 95.0738C24.3497 92.5278 25.8388 89.7716 25.8096 86.4606C25.7804 82.6941 22.4168 80.2007 18.7613 81.1408C18.1015 81.316 17.4416 81.497 16.7876 81.6897C15.573 82.0459 14.4751 81.9875 13.7569 80.7613C13.0562 79.5758 13.4883 78.6065 14.2766 77.6196C15.4153 76.1948 16.6182 74.77 17.4883 73.1816C18.446 71.4356 19.0591 69.5203 18.3993 67.4297C18.3 67.1202 18.5978 66.4545 18.9015 66.291C21.2081 65.0589 23.1001 65.3917 24.7818 67.2195C25.0738 65.4268 23.6898 64.0837 21.3541 63.9728C20.1394 63.9144 18.919 63.9844 17.7044 63.9494C15.281 63.8735 12.6007 62.0107 12.0109 59.7041C11.7481 58.6763 11.7831 57.3449 12.2211 56.3989C14.0722 52.3931 17.1555 49.4033 20.5424 46.6353C23.8942 43.8966 26.9716 40.8718 28.0987 36.4805C29.2957 37.5257 30.306 38.6294 31.5147 39.4177C35.0943 41.7594 39.0535 39.5696 39.4097 35.2834C39.655 32.2702 38.9718 29.4965 37.8272 26.6234C43.5733 27.2483 48.7179 25.9811 53.4829 22.2789C52.3325 27.1081 54.061 30.9388 56.899 34.2498C59.6727 37.4849 63.7954 38.4834 66.4524 33.8235C67.6611 31.6979 68.3151 29.257 69.3955 27.0497C70.4466 24.9008 71.5736 22.7519 72.9926 20.8424C73.4831 20.1825 74.9897 19.8964 75.9415 20.0423C77.0569 20.2117 77.781 21.111 77.3196 22.5358C76.578 24.8366 75.9065 27.1548 76.2627 29.6483C76.4846 31.1607 76.8758 31.7855 78.2831 32.1943C77.5007 29.3038 77.7809 27.9432 80.3678 26.4132C81.9387 25.4789 83.5387 24.5621 85.2146 23.8614C85.9095 23.5694 86.8789 23.7095 87.6497 23.9198C88.0526 24.0307 88.6424 24.819 88.5489 25.1402C87.9475 27.2716 88.6891 29.2162 89.6935 30.8746C91.3519 33.5958 93.3256 36.1476 95.3344 38.6294C96.0585 39.5228 96.0936 40.2002 95.3403 40.755C94.1724 41.6134 92.8994 42.3725 91.568 42.9565C88.7358 44.1944 87.4862 46.0397 87.7139 48.9419C87.8073 50.1741 88.4438 50.9449 89.3957 51.377C89.5533 50.4427 89.4365 49.3624 89.9212 48.7609C90.3942 48.1711 91.4512 47.9259 92.2921 47.774C94.8614 47.2952 97.4483 46.9273 100.029 46.5302C100.386 46.4777 100.759 46.5244 101.104 46.5244C101.151 46.7054 101.226 46.828 101.191 46.8864C98.587 51.5989 101.191 55.1143 103.854 58.6355C104.736 59.7975 105.822 60.9362 106.26 62.2735C106.99 64.4691 105.816 66.4896 103.317 67.7626C100.917 68.983 99.6556 70.986 100.689 74.4429C101.448 70.2677 104.946 70.4429 107.58 69.3276C107.761 69.2516 108.088 69.1816 108.175 69.275C109.262 70.4254 110.681 71.4473 111.288 72.8196ZM87.4745 71.4765C92.73 71.9612 96.7067 67.7159 95.7198 62.5888C95.6439 62.1976 95.2877 61.8705 95.0658 61.5143C94.7505 61.9464 94.7446 62.2092 94.7505 62.4662C94.8497 66.9042 92.0059 69.7655 87.5329 69.8005C85.8569 69.8122 84.181 69.9874 82.4992 70.0925C79.6905 70.2677 77.67 71.6984 76.2685 74.0692C76.1225 74.3145 76.216 74.7057 76.2043 75.0327C76.4787 74.986 76.8466 75.0444 77.016 74.8809C78.3474 73.6137 79.6145 74.3612 80.7532 75.0853C81.9328 75.8386 82.1372 76.9656 81.8394 78.4138C81.6292 79.424 81.8394 80.7262 82.3591 81.6255C82.8671 82.5365 83.9766 83.1029 84.8876 83.8679C84.4204 86.5599 83.965 86.9453 81.0978 86.9394C80.6715 86.9394 80.251 86.9511 79.8248 86.9336C77.2846 86.846 75.0247 87.4241 73.3546 89.5438C73.1619 89.7949 72.7298 89.8592 72.3677 89.9701C72.3152 89.9876 72.2626 90.0052 72.2159 90.0227C72.2568 89.6431 72.1809 89.1935 72.3561 88.8898C73.4772 86.9336 73.1386 85.0066 72.5663 82.9627C72.2802 81.9525 72.5663 80.7671 72.6831 79.6693C72.8115 78.3846 73.232 77.1057 73.1736 75.8386C73.1152 74.5714 72.1575 73.6663 70.867 73.6488C69.5531 73.6371 68.8524 74.5305 68.6013 75.8444C68.0874 78.4605 67.048 80.7262 64.5954 82.1686C62.5049 83.4007 61.1326 85.2051 60.9924 87.7336C60.934 88.8957 60.9808 90.0636 60.9808 91.2314C60.3209 90.373 59.7019 89.4329 59.4391 88.411C59.0129 86.7467 58.8785 85.0124 58.5107 83.3365C57.9909 80.989 57.1559 78.805 54.6741 77.8298C55.6435 73.2867 54.9661 70.0692 52.6829 69.129C52.8405 69.637 52.9748 69.9991 53.0799 70.3787C54.3004 74.805 52.5544 78.1977 48.0405 79.1496C45.4244 79.7043 42.6156 80.154 40.4141 82.846C40.3148 81.8124 40.0929 81.1934 40.2448 80.6853C40.7236 79.0853 41.3835 77.532 41.9032 75.9437C42.7966 73.2166 43.2638 70.5538 41.0214 68.1363C40.4842 67.5524 40.1864 66.6881 39.9236 65.9056C39.6667 65.1406 39.6083 64.364 39.7017 63.6341C39.9878 61.4793 41.6404 59.7274 43.7017 59.8618C44.1806 59.8909 44.6653 59.6924 45.1499 59.599C44.8521 59.1377 44.601 58.6355 44.239 58.2325C44.0054 57.9756 43.62 57.8179 43.2755 57.7187C40.1455 56.8252 37.1907 57.0646 34.9834 61.1464C33.8272 63.2837 32.344 65.3334 29.2607 64.037C29.8271 66.4137 32.2856 67.1553 34.2243 65.5085C35.398 64.5041 36.3557 63.1961 37.2433 61.9056C38.0608 60.7202 38.9075 59.6807 40.3849 59.2486C39.7776 60.1829 39.0243 60.9654 38.7148 61.8997C38.5455 62.4136 38.4287 62.9333 38.3645 63.4472C38.125 65.3625 38.6272 67.2312 39.7659 68.7962C41.4886 71.167 41.1557 73.386 40.017 75.6634C38.5338 78.6357 38.1951 81.6138 39.4389 84.7263C39.69 85.3511 39.9762 85.9701 40.4024 86.9511C40.8229 86.3847 40.9805 86.2737 41.0039 86.1394C41.4068 83.1671 43.5908 82.2386 46.0959 81.789C48.5835 81.3452 51.1179 81.1408 53.2376 79.5116C53.477 79.3247 54.1486 79.4007 54.4055 79.6109C55.1121 80.2007 55.9997 80.8255 56.2858 81.6255C56.9106 83.3773 57.3369 85.2285 57.6114 87.0796C57.9034 89.0124 58.4523 90.811 59.8771 92.1599C60.9574 93.1877 62.1545 94.2446 64.1166 94.0811C63.5209 92.8665 62.8961 91.9322 62.5925 90.9103C61.8742 88.4927 63.0479 85.9642 65.7107 84.4576C68.6305 82.8109 70.3006 80.6328 69.6407 77.1291C69.6115 76.9773 69.629 76.8138 69.6232 76.6561C69.594 75.9378 69.6115 75.0269 70.575 75.2955C71.1064 75.4473 71.7312 76.3349 71.778 76.9247C71.8364 77.7131 71.2349 78.5247 71.1531 79.3481C71.0247 80.5744 70.7385 81.9642 71.1648 83.0328C71.9415 85.0007 72.1692 86.7876 71.1823 88.703C70.7327 89.573 70.9371 90.4665 71.848 90.7935C71.9882 90.8402 72.1517 90.8694 72.3327 90.8752C72.8524 90.9044 73.4656 90.7643 73.7575 90.4781C75.5269 88.7438 77.559 88.7205 79.7897 89.1234C81.1737 89.3687 82.6686 89.7424 83.9942 89.4738C86.692 88.9307 86.9956 86.5891 87.1592 84.2416C89.5942 85.2343 87.0774 87.5642 88.7358 89.1292C89.057 88.0139 89.4949 87.1613 89.5125 86.2971C89.5475 84.2065 88.1168 82.7876 85.5533 82.1043C83.1357 81.462 82.6511 80.7496 83.1766 78.3028C83.4628 76.9656 83.1065 75.8678 82.1197 75.0502C81.1737 74.2678 80.0759 73.6663 79.0014 72.9539C79.1824 72.8254 79.3751 72.6502 79.6029 72.5334C82.0963 71.2312 84.7766 71.2254 87.4745 71.4765ZM95.0658 77.9933C95.5271 76.2882 94.5578 75.4356 93.6643 74.6824C91.7548 73.059 89.4891 72.8254 88.0176 74.1101C90.7796 74.659 93.6527 74.6824 95.0658 77.9933ZM86.3767 67.3772C88.5022 64.1771 90.1081 60.9421 94.3184 61.3158C92.8059 58.834 89.8161 59.78 86.9431 63.529C85.2321 60.4165 83.3168 60.691 80.9459 62.4486C81.7518 62.4486 82.3065 62.472 82.8555 62.4428C85.6526 62.3143 86.0905 62.799 85.8861 65.6487C85.8511 66.0691 86.1197 66.5071 86.3767 67.3772ZM85.4832 39.1783C85.9095 37.8002 85.6759 36.0308 88.2511 36.2294C86.1723 35.2016 85.1971 35.7155 84.8175 37.5841C84.6248 38.5593 84.8993 39.844 83.6087 40.2469C82.108 40.7141 81.2087 41.6426 80.8058 43.1433C80.4554 44.428 79.562 44.6324 78.4875 44.0484C78.0087 43.7915 77.5882 43.3711 77.232 42.9448C76.3152 41.8586 75.2466 41.5258 74.0086 41.9988C75.1298 43.0324 76.1634 44.0192 77.232 44.9536C79.235 46.7054 81.197 46.139 82.2014 43.739C82.5868 42.8105 83.5328 42.1214 84.1635 41.2805C84.6599 40.6207 85.2496 39.9433 85.4832 39.1783ZM78.9021 59.5172C81.5708 55.7274 81.3839 51.4529 77.5182 48.5156C76.8408 48.0018 75.9181 47.8091 75.1065 47.4704C75.0597 47.6164 75.013 47.7624 74.9663 47.9142C75.0831 48.0135 75.1824 48.1361 75.3167 48.212C79.4686 50.723 80.2861 54.3493 77.6934 58.361C76.5605 60.1187 75.5853 61.9757 74.7094 63.4998C74.6451 62.4954 74.5926 61.0705 74.4466 59.6515C74.1838 57.0062 72.3035 55.2661 69.5823 54.904C68.064 54.6997 66.2655 56.2062 66.5283 57.3975C66.8845 59.0442 67.4042 60.6618 67.8305 62.1917C68.8057 61.3683 68.8641 60.6734 67.9414 58.5479C67.3983 57.2865 67.7312 56.5041 68.9575 56.1654C70.8904 55.634 73.2553 57.2982 73.4656 59.307C73.6408 61.0355 73.7809 62.7698 74.0904 64.4749C74.2539 65.3567 74.7503 66.1742 75.0948 67.021L75.743 66.8633C75.7838 63.9436 77.3138 61.7771 78.9021 59.5172ZM72.1867 34.4717C72.7532 35.7622 75.2233 37.0878 76.5547 36.8484C74.9313 35.3067 72.5546 34.4308 72.4787 31.6629C71.6145 32.6031 71.7955 33.5783 72.1867 34.4717ZM70.6451 43.8791C70.8845 42.5535 70.6568 41.1054 70.4174 39.7506C70.3298 39.2484 69.629 38.8572 69.2086 38.4134C69.1093 38.5185 69.01 38.6236 68.9108 38.7345C69.9385 40.1418 69.8976 41.6835 69.4772 43.2601C69.2378 44.1477 68.7414 44.5798 67.6962 44.6791C66.6567 44.7784 65.3137 45.0937 64.7239 45.812C63.0947 47.7857 61.5297 46.9215 59.8245 46.2324C60.3384 44.9886 60.9457 43.8382 61.2844 42.6119C61.845 40.6148 61.4421 39.7389 60.1399 39.5462C60.2917 40.136 60.6421 40.7608 60.5545 41.3097C60.2041 43.447 59.0129 45.0996 57.1384 46.1623C55.55 47.0675 54.5165 46.5069 53.8624 44.8076C53.3778 43.5521 52.7938 42.2674 51.9588 41.2338C50.7325 39.7331 49.1208 38.6703 47.0828 38.5769C50.9018 41.3973 50.9661 41.3681 51.8653 43.3769C52.6829 45.2163 53.2843 47.2018 52.2624 49.123C51.4157 50.6996 50.2712 52.1244 49.2317 53.6719C48.8346 53.304 48.3091 52.6909 47.6609 52.2529C45.804 51.0091 43.8536 49.8938 41.547 51.0266C40.3382 51.6223 39.2404 52.4339 38.1075 53.1288C39.5265 54.4953 40.2564 54.5653 41.8681 53.269C42.9484 52.4047 44.0579 52.177 45.3835 52.6617C46.9718 53.2398 47.9587 54.396 48.8463 55.7449C49.2609 56.3698 49.9033 56.8427 50.4463 57.38C50.5923 57.2982 50.7383 57.2106 50.8785 57.123C50.9077 56.6208 50.8493 56.0953 50.9719 55.6165C51.258 54.5245 51.3515 53.2223 52.023 52.4339C53.2259 51.0266 54.5515 49.7945 54.4055 47.7682C55.1354 47.8675 55.7661 48.1594 56.1515 47.9609C58.1778 46.9156 60.0464 47.628 61.9268 48.3346C63.1706 48.7959 64.1049 48.3054 65.1034 47.593C65.9268 46.9974 66.9429 46.2674 67.8597 46.2908C69.6991 46.3375 70.4115 45.193 70.6451 43.8791ZM66.7794 66.9567C66.3881 66.6823 66.0378 66.3085 65.6056 66.1509C63.0947 65.2458 61.553 62.3552 62.1837 59.7216C62.7268 57.4325 63.3574 55.1551 63.6903 52.831C64.029 50.4777 62.791 49.012 60.5778 49.1755C62.6742 50.4018 62.7209 52.0427 62.0552 53.8821C61.7165 54.8223 61.4654 55.7975 61.1735 56.7493C60.1224 60.2004 60.4786 63.2954 63.4333 65.7363C62.645 66.5772 61.8275 67.1903 61.3895 68.0078C60.6713 69.3568 59.8771 69.2458 58.8669 68.4867C56.7763 66.9217 54.6624 65.6253 51.8303 65.8531C49.9792 65.9991 49.0157 64.9538 48.5777 63.1611C48.4492 62.618 48.2273 62.0983 47.9762 61.345C46.2945 63.9377 47.3339 66.8107 50.0668 67.4356C50.9953 67.6516 52.0113 67.5582 52.9865 67.5115C55.1997 67.4122 56.8464 68.6327 58.5515 69.783C60.6888 71.2254 61.5297 71.0911 62.8903 68.9246C63.5326 67.9027 64.2684 67.4472 65.4596 67.4823C65.8918 67.494 66.3356 67.1436 66.7794 66.9567ZM61.9151 103.95C61.5647 103.197 61.0625 102.496 60.934 101.737C60.7355 100.58 60.8173 99.3834 60.7472 98.2096C60.5954 95.5527 58.5399 93.8709 55.8187 94.3731C56.0756 94.6826 56.169 94.8986 56.3325 94.9804C59.5851 96.6038 59.6786 96.7614 59.2289 100.242C59.0537 101.614 60.4085 103.512 61.9151 103.95ZM36.0403 79.9671C37.1148 78.1335 36.8637 74.6473 35.4506 73.3101C34.7849 72.6794 33.8856 71.8852 32.3907 72.7962C36.3498 73.9349 34.1717 77.8532 36.0403 79.9671ZM33.3367 56.4807C35.398 54.9683 36.0345 49.7478 34.2768 47.8324C33.7805 47.2952 32.7761 47.231 32.0111 46.9507C31.906 47.1784 31.8009 47.412 31.6958 47.6397C33.5994 48.1828 33.9907 49.5726 33.8038 51.1901C33.6929 52.1653 33.4067 53.123 33.1264 54.0632C32.887 54.8807 32.5425 55.6749 32.1513 56.7435C32.7819 56.6092 33.1206 56.6325 33.3367 56.4807Z" fill="#D70321"/>
<path d="M116.584 71.9203C116.619 75.0561 115.796 78.0109 112.38 79.3364C115.959 84.4635 113.063 94.6067 106.675 96.1016C104.129 96.6972 101.67 96.0315 99.206 95.4826C97.5768 95.1205 95.93 94.776 94.2775 94.6008C93.5417 94.5249 92.7067 94.7702 92.0118 95.0797C89.565 96.1716 89.2147 97.1644 90.6044 99.5118C93.6585 104.68 93.8921 110.04 91.8249 115.559C90.5577 118.934 87.6789 120.966 84.3796 120.803C83.3752 120.75 82.4 120.236 81.197 119.868C80.0292 121.556 78.1021 122.373 75.9357 122.747C74.686 122.969 73.5064 122.893 72.5663 121.918C71.3926 120.703 70.1079 120.873 68.8465 121.678C67.8772 122.297 67.0421 123.138 66.0553 123.728C64.8582 124.446 63.5677 125.001 62.3122 125.632H61.3603C60.7063 125.334 60.0523 125.042 59.4041 124.738C55.55 122.94 53.5062 119.495 51.5033 116.02C51.2172 115.524 51.0011 114.986 50.7383 114.438C49.7222 115.652 48.9339 117.048 47.7543 117.918C43.3689 121.153 39.001 121.095 34.5688 117.784C33.3191 116.855 32.2155 115.681 31.2286 114.473C30.2651 113.305 29.5352 111.95 28.7001 110.665C21.4416 113.626 15.6489 106.075 15.5496 100.674C15.4679 96.1424 16.4781 92.049 19.2168 88.4051C19.5088 88.0197 19.6606 87.5292 19.9526 86.9394C18.1832 86.8226 16.6241 86.9394 15.1759 86.5949C8.69406 85.0299 6.97725 79.2547 11.4211 74.2911C13.1788 72.329 14.3116 70.1392 13.3656 67.418C13.208 66.9509 12.7817 66.3377 12.3671 66.2268C8.18603 65.1348 5.25461 59.1026 5.52906 55.9376C5.66921 54.3376 6.30571 52.6792 7.0882 51.2427C9.34224 47.1083 12.8401 44.1594 16.7467 41.6367C18.4694 40.5272 20.1453 39.3301 21.7687 38.0805C23.3395 36.86 24.3906 35.2775 24.8986 33.2863C25.0329 32.7549 25.8972 32.095 26.4461 32.0717C26.9424 32.0542 27.8184 32.7491 27.9293 33.2629C28.3381 35.1374 28.7235 36.9418 30.487 38.0805C31.8476 38.9564 33.2666 39.7856 34.9075 39.0966C36.7411 38.3316 37.6462 36.6849 37.6812 34.8162C37.7455 31.7797 36.9805 28.8833 35.1995 26.3607C34.7381 25.7066 33.9323 25.2979 33.3075 24.749C32.7644 24.2701 32.1221 23.8322 31.7483 23.2365C30.9542 21.9694 31.3688 21.2453 32.8345 21.1518C34.633 21.0409 36.4433 20.9942 38.2418 20.8307C41.1207 20.5737 44.0404 20.4803 46.8492 19.8905C50.7617 19.073 54.0143 17.0058 55.7778 13.251C56.3968 11.9255 56.4902 10.3605 56.8289 8.87142C59.0129 10.2612 60.0172 12.597 60.4494 15.0262C60.8289 17.1109 60.4669 19.3241 60.5194 21.4789C60.572 23.3533 60.7413 25.2278 60.864 27.1023C61.0508 27.1432 61.2377 27.1782 61.4304 27.2132C61.6348 26.7402 61.8859 26.2848 62.0319 25.8001C63.3866 21.3562 66.3005 18.5533 70.8962 17.8409C74.8495 17.2336 77.2612 17.2628 78.9021 20.1767C79.4978 21.2394 79.5211 22.6292 79.8131 23.8906C80.5781 23.3708 81.4598 22.6468 82.4467 22.1154C85.3197 20.5679 88.3621 19.7095 91.3928 21.4789C92.584 22.1738 93.6935 23.3884 94.3125 24.6322C95.6614 27.3242 97.2965 29.7242 99.6556 31.587C102.459 33.7943 103.662 36.644 103.183 40.171C103.043 41.2338 103.358 41.6426 104.485 41.9054C107.918 42.7112 108.917 44.4105 107.591 47.7098C106.517 50.4018 107.031 52.4573 108.672 54.7055C110.71 57.5085 112.053 60.6618 111.451 64.2998C111.352 64.9071 111.148 65.4969 110.967 66.1976C113.811 67.1261 116.543 68.4458 116.584 71.9203ZM109.186 77.3393C110.616 76.6035 111.954 74.3145 111.288 72.8196C110.681 71.4473 109.262 70.4254 108.175 69.275C108.088 69.1816 107.761 69.2516 107.58 69.3276C104.946 70.4429 101.448 70.2677 100.689 74.4429C99.6556 70.986 100.917 68.983 103.317 67.7626C105.816 66.4896 106.99 64.4691 106.26 62.2735C105.822 60.9362 104.736 59.7975 103.854 58.6355C101.191 55.1143 98.587 51.5989 101.191 46.8864C101.226 46.828 101.151 46.7054 101.104 46.5244C100.759 46.5244 100.386 46.4777 100.029 46.5302C97.4483 46.9273 94.8614 47.2952 92.2921 47.774C91.4512 47.9259 90.3942 48.1711 89.9212 48.7609C89.4365 49.3624 89.5533 50.4427 89.3957 51.377C88.4438 50.9449 87.8073 50.1741 87.7139 48.9419C87.4862 46.0397 88.7358 44.1944 91.568 42.9565C92.8994 42.3725 94.1724 41.6134 95.3403 40.755C96.0936 40.2002 96.0585 39.5228 95.3344 38.6294C93.3256 36.1476 91.3519 33.5958 89.6935 30.8746C88.6891 29.2162 87.9475 27.2716 88.5489 25.1402C88.6424 24.819 88.0526 24.0307 87.6497 23.9198C86.8789 23.7095 85.9095 23.5694 85.2146 23.8614C83.5387 24.5621 81.9387 25.4789 80.3678 26.4132C77.7809 27.9432 77.5007 29.3038 78.2831 32.1943C76.8758 31.7855 76.4846 31.1607 76.2627 29.6483C75.9065 27.1548 76.578 24.8366 77.3196 22.5358C77.781 21.111 77.0569 20.2117 75.9415 20.0423C74.9897 19.8964 73.4831 20.1825 72.9926 20.8424C71.5736 22.7519 70.4466 24.9008 69.3955 27.0497C68.3151 29.257 67.6611 31.6979 66.4524 33.8235C63.7954 38.4834 59.6727 37.4849 56.899 34.2498C54.061 30.9388 52.3325 27.1081 53.4829 22.2789C48.7179 25.9811 43.5733 27.2483 37.8272 26.6234C38.9718 29.4965 39.655 32.2702 39.4097 35.2834C39.0535 39.5696 35.0943 41.7594 31.5147 39.4177C30.306 38.6294 29.2957 37.5257 28.0987 36.4805C26.9716 40.8718 23.8942 43.8966 20.5424 46.6353C17.1555 49.4033 14.0722 52.3931 12.2211 56.3989C11.7831 57.3449 11.7481 58.6763 12.0109 59.7041C12.6007 62.0107 15.281 63.8735 17.7044 63.9494C18.919 63.9844 20.1394 63.9144 21.3541 63.9728C23.6898 64.0837 25.0738 65.4268 24.7818 67.2195C23.1001 65.3917 21.2081 65.0589 18.9015 66.291C18.5978 66.4545 18.3 67.1202 18.3993 67.4297C19.0591 69.5203 18.446 71.4356 17.4883 73.1816C16.6182 74.77 15.4153 76.1948 14.2766 77.6196C13.4883 78.6065 13.0562 79.5758 13.7569 80.7613C14.4751 81.9875 15.573 82.0459 16.7876 81.6897C17.4416 81.497 18.1015 81.316 18.7613 81.1408C22.4168 80.2007 25.7804 82.6941 25.8096 86.4606C25.8388 89.7716 24.3497 92.5278 22.3876 95.0738C20.5482 97.4505 19.8416 100.026 21.2898 102.823C22.8139 105.766 25.8855 105.836 27.795 103.214C29.0797 101.451 30.5979 99.8155 32.1863 98.3147C34.1016 96.5103 35.5206 91.0154 32.2564 88.9832C31.5965 88.5745 30.9542 88.154 30.1308 87.6285C32.0403 87.0037 33.5469 87.4825 34.8199 88.557C38.2126 91.4241 38.4053 98.6885 35.2579 102.151C34.9425 102.496 34.4053 102.899 34.4286 103.243C34.5396 104.89 34.5046 106.648 35.106 108.125C35.6666 109.509 36.8754 110.683 37.9557 111.792C40.4608 114.385 42.855 113.112 44.3733 111.08C47.1937 107.313 48.531 103.056 48.677 98.3322C48.7354 96.376 49.3135 94.414 49.7865 92.4928C49.9208 91.9439 50.5164 91.5117 50.9427 90.9745C51.2931 93.0242 51.585 94.6884 51.8595 96.3643C52.3033 99.0914 52.8055 101.818 53.1325 104.563C53.2435 105.486 53.4887 105.918 54.3588 106.286C55.9997 106.986 57.2727 108.119 57.88 109.918C58.2128 110.905 58.791 111.81 59.188 112.779C60.8348 116.738 63.4041 119.138 68.0582 118.379C69.7984 118.099 71.4276 118.519 72.6889 120.084C76.1868 117.713 77.162 114.157 77.5415 110.373C77.7868 107.921 76.6598 105.813 75.5619 103.675C74.7152 102.029 74.213 100.207 73.6816 98.4257C73.5824 98.1045 74.0787 97.6023 74.3006 97.1877C74.6276 97.468 74.9955 97.7133 75.2875 98.0286C75.9532 98.741 76.5138 99.5644 77.2379 100.213C79.4919 102.216 81.8394 104.137 82.6803 107.214C83.054 108.586 83.2817 110.005 83.6379 111.681C84.1518 111.01 84.5139 110.578 84.8409 110.11C86.5927 107.588 86.108 104.639 86.3007 101.848C86.6044 97.4505 88.0584 93.7249 92.3446 91.9731C95.0191 90.8811 97.9096 90.1745 100.771 89.7307C104.765 89.1176 106.891 86.4839 108.567 83.2839C109.01 82.4372 108.876 81.2868 108.993 80.3992C107.486 80.0313 106.243 79.7277 105.005 79.424C105.005 79.278 104.987 79.132 104.981 78.9861C105.664 78.7466 106.348 78.5306 107.019 78.2678C107.749 77.9817 108.491 77.6955 109.186 77.3393Z" fill="#D70321"/>
<path d="M95.7198 62.5888C96.7067 67.7159 92.73 71.9612 87.4745 71.4765C84.7766 71.2254 82.0963 71.2312 79.6029 72.5334C79.3751 72.6502 79.1824 72.8254 79.0014 72.9539C80.0759 73.6663 81.1737 74.2678 82.1197 75.0502C83.1065 75.8678 83.4628 76.9656 83.1766 78.3028C82.6511 80.7496 83.1357 81.462 85.5533 82.1043C88.1168 82.7876 89.5475 84.2065 89.5125 86.2971C89.4949 87.1613 89.057 88.0139 88.7358 89.1292C87.0774 87.5642 89.5942 85.2343 87.1592 84.2416C86.9956 86.5891 86.692 88.9307 83.9942 89.4738C82.6686 89.7424 81.1737 89.3687 79.7897 89.1234C77.559 88.7205 75.5269 88.7438 73.7575 90.4781C73.4656 90.7643 72.8524 90.9044 72.3327 90.8752L72.3677 89.9701C72.7298 89.8592 73.1619 89.7949 73.3546 89.5438C75.0247 87.4241 77.2846 86.846 79.8248 86.9336C80.251 86.9511 80.6715 86.9394 81.0978 86.9394C83.965 86.9394 84.4204 86.5599 84.8876 83.8679C83.9766 83.1029 82.8671 82.5365 82.3591 81.6255C81.8452 80.7262 81.6292 79.424 81.8394 78.4138C82.1372 76.9656 81.9328 75.8386 80.7532 75.0853C79.6145 74.3612 78.3474 73.6137 77.016 74.8809C76.8466 75.0444 76.4787 74.986 76.2043 75.0327C76.216 74.7057 76.1225 74.3145 76.2685 74.0692C77.67 71.6984 79.6905 70.2677 82.4992 70.0925C84.181 69.9874 85.8569 69.8122 87.5329 69.8005C92.0059 69.7655 94.8497 66.9042 94.7505 62.4662C94.7446 62.2092 94.7505 61.9464 95.0658 61.5143C95.2877 61.8705 95.6439 62.1976 95.7198 62.5888Z" fill="#D70321"/>
<path d="M93.6643 74.6824C94.5578 75.4356 95.5271 76.2882 95.0658 77.9933C93.6527 74.6824 90.7796 74.659 88.0176 74.1101C89.4891 72.8254 91.7548 73.059 93.6643 74.6824Z" fill="#D70321"/>
<path d="M94.3184 61.3158C90.1081 60.9421 88.5022 64.1771 86.3767 67.3772C86.1197 66.5071 85.8511 66.0691 85.8861 65.6487C86.0905 62.799 85.6526 62.3143 82.8555 62.4428C82.3065 62.472 81.7518 62.4486 80.9459 62.4486C83.3168 60.691 85.2321 60.4165 86.9431 63.529C89.8161 59.78 92.8059 58.834 94.3184 61.3158Z" fill="#D70321"/>
<path d="M88.2511 36.2294C85.6759 36.0308 85.9095 37.8002 85.4832 39.1783C85.2496 39.9433 84.6599 40.6207 84.1635 41.2805C83.5328 42.1214 82.5868 42.8105 82.2014 43.739C81.197 46.139 79.235 46.7054 77.232 44.9536C76.1634 44.0192 75.1298 43.0324 74.0086 41.9988C75.2466 41.5258 76.3152 41.8586 77.232 42.9448C77.5882 43.3711 78.0087 43.7915 78.4875 44.0484C79.562 44.6324 80.4554 44.428 80.8058 43.1433C81.2087 41.6426 82.108 40.7141 83.6087 40.2469C84.8993 39.844 84.6248 38.5593 84.8175 37.5841C85.1971 35.7155 86.1723 35.2016 88.2511 36.2294Z" fill="#D70321"/>
<path d="M77.5182 48.5156C81.3839 51.4529 81.5708 55.7274 78.9021 59.5172C77.3138 61.7771 75.7838 63.9436 75.743 66.8633L75.0948 67.021C74.7503 66.1742 74.2539 65.3567 74.0904 64.4749C73.7809 62.7698 73.6408 61.0355 73.4656 59.307C73.2553 57.2982 70.8904 55.634 68.9575 56.1654C67.7312 56.5041 67.3983 57.2865 67.9414 58.5479C68.8641 60.6734 68.8057 61.3683 67.8305 62.1917C67.4042 60.6618 66.8845 59.0442 66.5283 57.3975C66.2655 56.2062 68.064 54.6997 69.5823 54.904C72.3035 55.2661 74.1838 57.0062 74.4466 59.6515C74.5926 61.0705 74.6451 62.4954 74.7094 63.4998C75.5853 61.9757 76.5605 60.1187 77.6934 58.361C80.2861 54.3493 79.4686 50.723 75.3167 48.212C75.1824 48.1361 75.0831 48.0135 74.9663 47.9142C75.013 47.7624 75.0597 47.6164 75.1065 47.4704C75.9181 47.8091 76.8408 48.0018 77.5182 48.5156Z" fill="#D70321"/>
<path d="M76.5547 36.8484C75.2233 37.0878 72.7532 35.7622 72.1867 34.4717C71.7955 33.5783 71.6145 32.6031 72.4787 31.6629C72.5546 34.4308 74.9313 35.3067 76.5547 36.8484Z" fill="#D70321"/>
<path d="M73.1736 75.8386C73.232 77.1057 72.8115 78.3846 72.6831 79.6693C72.5663 80.7671 72.2802 81.9525 72.5663 82.9627C73.1386 85.0066 73.4772 86.9336 72.3561 88.8898C72.1809 89.1935 72.2568 89.6431 72.2159 90.0227C72.2626 90.0052 72.3152 89.9876 72.3677 89.9701L72.3327 90.8752C72.1517 90.8694 71.9882 90.8402 71.848 90.7935C70.9371 90.4665 70.7327 89.573 71.1823 88.703C72.1692 86.7876 71.9415 85.0007 71.1648 83.0328C70.7385 81.9642 71.0247 80.5744 71.1531 79.3481C71.2349 78.5247 71.8364 77.7131 71.778 76.9247C71.7312 76.3349 71.1064 75.4473 70.575 75.2955C69.6115 75.0269 69.594 75.9378 69.6232 76.6561C69.6232 76.8138 69.6115 76.9773 69.6407 77.1291C70.3006 80.6328 68.6305 82.8109 65.7107 84.4576C63.0479 85.9642 61.8742 88.4927 62.5925 90.9103C62.8961 91.9322 63.5209 92.8665 64.1166 94.0811C62.1545 94.2446 60.9574 93.1877 59.8771 92.1599C58.4523 90.811 57.9034 89.0124 57.6114 87.0796C57.3369 85.2285 56.9106 83.3773 56.2858 81.6255C55.9997 80.8255 55.1121 80.2007 54.4055 79.6109C54.1486 79.4007 53.477 79.3247 53.2376 79.5116C51.1179 81.1408 48.5835 81.3452 46.0959 81.789C43.5908 82.2386 41.4068 83.1671 41.0039 86.1394C40.9805 86.2737 40.8229 86.3847 40.4024 86.9511C39.9762 85.9701 39.69 85.3511 39.4389 84.7263C38.1951 81.6138 38.5338 78.6357 40.017 75.6634C41.1557 73.386 41.4886 71.167 39.7659 68.7962C38.6272 67.2312 38.125 65.3625 38.3645 63.4472L39.7017 63.6341C39.6083 64.364 39.6667 65.1406 39.9236 65.9056C40.1864 66.6881 40.4842 67.5524 41.0214 68.1363C43.2638 70.5538 42.7966 73.2166 41.9032 75.9437C41.3835 77.532 40.7236 79.0853 40.2448 80.6853C40.0929 81.1934 40.3148 81.8124 40.4141 82.846C42.6156 80.154 45.4244 79.7043 48.0405 79.1496C52.5544 78.1977 54.3004 74.805 53.0799 70.3787C52.9748 69.9991 52.8405 69.637 52.6829 69.129C54.9661 70.0692 55.6435 73.2867 54.6741 77.8298C57.1559 78.805 57.9909 80.989 58.5107 83.3365C58.8785 85.0124 59.0129 86.7467 59.4391 88.411C59.7019 89.4329 60.3209 90.373 60.9808 91.2314C60.9808 90.0636 60.934 88.8957 60.9924 87.7336C61.1326 85.2051 62.5049 83.4007 64.5954 82.1686C67.048 80.7262 68.0874 78.4605 68.6013 75.8444C68.8524 74.5305 69.5531 73.6371 70.867 73.6488C72.1575 73.6663 73.1152 74.5714 73.1736 75.8386Z" fill="#D70321"/>
<path d="M70.4174 39.7506C70.6568 41.1054 70.8845 42.5535 70.6451 43.8791C70.4115 45.193 69.6991 46.3375 67.8597 46.2908C66.9429 46.2674 65.9268 46.9974 65.1034 47.593C64.1049 48.3054 63.1706 48.7959 61.9268 48.3346C60.0464 47.628 58.1778 46.9156 56.1515 47.9609C55.7661 48.1594 55.1354 47.8675 54.4055 47.7682C54.5515 49.7945 53.2259 51.0266 52.023 52.4339C51.3515 53.2223 51.258 54.5245 50.9719 55.6165C50.8493 56.0953 50.9077 56.6208 50.8785 57.123C50.7383 57.2106 50.5923 57.2982 50.4463 57.38C49.9033 56.8427 49.2609 56.3698 48.8463 55.7449C47.9587 54.396 46.9718 53.2398 45.3835 52.6617C44.0579 52.177 42.9484 52.4047 41.8681 53.269C40.2564 54.5653 39.5265 54.4953 38.1075 53.1288C39.2404 52.4339 40.3382 51.6223 41.547 51.0266C43.8536 49.8938 45.804 51.0091 47.6609 52.2529C48.3091 52.6909 48.8346 53.304 49.2317 53.6719C50.2712 52.1244 51.4157 50.6996 52.2624 49.123C53.2843 47.2018 52.6829 45.2163 51.8653 43.3769C50.9661 41.3681 50.9018 41.3973 47.0828 38.5769C49.1208 38.6703 50.7325 39.7331 51.9588 41.2338C52.7938 42.2674 53.3778 43.5521 53.8624 44.8076C54.5165 46.5069 55.55 47.0675 57.1384 46.1623C59.0129 45.0996 60.2041 43.447 60.5545 41.3097C60.6421 40.7608 60.2917 40.136 60.1399 39.5462C61.4421 39.7389 61.845 40.6148 61.2844 42.6119C60.9457 43.8382 60.3384 44.9886 59.8245 46.2324C61.5297 46.9215 63.0947 47.7857 64.7239 45.812C65.3137 45.0937 66.6567 44.7784 67.6962 44.6791C68.7414 44.5798 69.2378 44.1477 69.4772 43.2601C69.8976 41.6835 69.9385 40.1418 68.9108 38.7345C69.01 38.6236 69.1093 38.5185 69.2086 38.4134C69.629 38.8572 70.3298 39.2484 70.4174 39.7506Z" fill="#D70321"/>
<path d="M65.6056 66.1509C66.0378 66.3085 66.3881 66.6823 66.7794 66.9567C66.3356 67.1436 65.8918 67.494 65.4596 67.4823C64.2684 67.4472 63.5326 67.9027 62.8903 68.9246C61.5297 71.0911 60.6888 71.2254 58.5515 69.783C56.8464 68.6327 55.1997 67.4122 52.9865 67.5115C52.0113 67.5582 50.9953 67.6516 50.0668 67.4356C47.3339 66.8107 46.2945 63.9377 47.9762 61.345C48.2273 62.0983 48.4492 62.618 48.5777 63.1611C49.0157 64.9538 49.9792 65.9991 51.8303 65.8531C54.6624 65.6253 56.7763 66.9217 58.8669 68.4867C59.8771 69.2458 60.6713 69.3568 61.3895 68.0078C61.8275 67.1903 62.645 66.5772 63.4333 65.7363C63.4392 65.7363 63.4392 65.7421 63.4392 65.748C63.4859 65.8005 63.4742 65.9173 63.4392 65.748V65.7304H63.4333C60.4786 63.2954 60.1224 60.2004 61.1735 56.7493C61.4654 55.7975 61.7165 54.8223 62.0552 53.8821C62.7209 52.0427 62.6742 50.4018 60.5778 49.1755C62.791 49.012 64.029 50.4777 63.6903 52.831C63.3574 55.1551 62.7268 57.4325 62.1837 59.7216C61.553 62.3552 63.0947 65.2458 65.6056 66.1509Z" fill="#D70321"/>
<path d="M63.4392 65.7304V65.748C63.4392 65.748 63.4392 65.7363 63.4333 65.7363H63.4392V65.7304Z" fill="#D70321"/>
<path d="M60.934 101.737C61.0625 102.496 61.5647 103.197 61.9151 103.95C60.4085 103.512 59.0537 101.614 59.2289 100.242C59.6786 96.7614 59.5851 96.6038 56.3325 94.9804C56.169 94.8986 56.0756 94.6826 55.8187 94.3731C58.5399 93.8709 60.5954 95.5527 60.7472 98.2096C60.8173 99.3834 60.7355 100.58 60.934 101.737Z" fill="#D70321"/>
<path d="M44.239 58.2325C44.601 58.6355 44.8521 59.1377 45.1499 59.599C44.6653 59.6924 44.1806 59.8909 43.7017 59.8618C41.6404 59.7274 39.9878 61.4793 39.7017 63.6341L38.3645 63.4472C38.4287 62.9333 38.5455 62.4136 38.7148 61.8997C39.0243 60.9654 39.7776 60.1829 40.3849 59.2486C38.9075 59.6807 38.0608 60.7202 37.2433 61.9056C36.3557 63.1961 35.398 64.5041 34.2243 65.5085C32.2856 67.1553 29.8271 66.4137 29.2607 64.037C32.344 65.3334 33.8272 63.2837 34.9834 61.1464C37.1907 57.0646 40.1455 56.8252 43.2755 57.7187C43.62 57.8179 44.0054 57.9756 44.239 58.2325Z" fill="#D70321"/>
<path d="M35.4506 73.3101C36.8637 74.6473 37.1148 78.1335 36.0403 79.9671C34.1717 77.8532 36.3498 73.9349 32.3907 72.7962C33.8856 71.8852 34.7849 72.6794 35.4506 73.3101Z" fill="#D70321"/>
<path d="M34.2768 47.8324C36.0345 49.7478 35.398 54.9683 33.3367 56.4807C33.1206 56.6325 32.7819 56.6092 32.1513 56.7435C32.5425 55.6749 32.887 54.8807 33.1264 54.0632C33.4067 53.123 33.6929 52.1653 33.8038 51.1901C33.9907 49.5726 33.5994 48.1828 31.6958 47.6397C31.8009 47.412 31.906 47.1784 32.0111 46.9507C32.7761 47.231 33.7805 47.2952 34.2768 47.8324Z" fill="#D70321"/>
<path d="M116.584 71.9203C116.619 75.0561 115.796 78.0109 112.38 79.3364C115.959 84.4635 113.063 94.6067 106.675 96.1016C104.129 96.6972 101.67 96.0315 99.206 95.4826C97.5768 95.1205 95.93 94.776 94.2775 94.6008C93.5417 94.5249 92.7067 94.7702 92.0118 95.0797C89.565 96.1716 89.2147 97.1644 90.6044 99.5118C93.6585 104.68 93.8921 110.04 91.8249 115.559C90.5577 118.934 87.6789 120.966 84.3796 120.803C83.3752 120.75 82.4 120.236 81.197 119.868C80.0292 121.556 78.1021 122.373 75.9357 122.747C74.686 122.969 73.5064 122.893 72.5663 121.918C71.3926 120.703 70.1079 120.873 68.8465 121.678C67.8772 122.297 67.0421 123.138 66.0553 123.728C64.8582 124.446 63.5677 125.001 62.3122 125.632H61.3603C60.7063 125.334 60.0523 125.042 59.4041 124.738C55.55 122.94 53.5062 119.495 51.5033 116.02C51.2172 115.524 51.0011 114.986 50.7383 114.438C49.7222 115.652 48.9339 117.048 47.7543 117.918C43.3689 121.153 39.001 121.095 34.5688 117.784C33.3191 116.855 32.2155 115.681 31.2286 114.473C30.2651 113.305 29.5352 111.95 28.7001 110.665C21.4416 113.626 15.6489 106.075 15.5496 100.674C15.4679 96.1424 16.4781 92.049 19.2168 88.4051C19.5088 88.0197 19.6606 87.5292 19.9526 86.9394C18.1832 86.8226 16.6241 86.9394 15.1759 86.5949C8.69406 85.0299 6.97725 79.2547 11.4211 74.2911C13.1788 72.329 14.3116 70.1392 13.3656 67.418C13.208 66.9509 12.7817 66.3377 12.3671 66.2268C8.18603 65.1348 5.25461 59.1026 5.52906 55.9376C5.66921 54.3376 6.30571 52.6792 7.0882 51.2427C9.34224 47.1083 12.8401 44.1594 16.7467 41.6367C18.4694 40.5272 20.1453 39.3301 21.7687 38.0805C23.3395 36.86 24.3906 35.2775 24.8986 33.2863C25.0329 32.7549 25.8972 32.095 26.4461 32.0717C26.9424 32.0542 27.8184 32.7491 27.9293 33.2629C28.3381 35.1374 28.7235 36.9418 30.487 38.0805C31.8476 38.9564 33.2666 39.7856 34.9075 39.0966C36.7411 38.3316 37.6462 36.6849 37.6812 34.8162C37.7455 31.7797 36.9805 28.8833 35.1995 26.3607C34.7381 25.7066 33.9323 25.2979 33.3075 24.749C32.7644 24.2701 32.1221 23.8322 31.7483 23.2365C30.9542 21.9694 31.3688 21.2453 32.8345 21.1518C34.633 21.0409 36.4433 20.9942 38.2418 20.8307C41.1207 20.5737 44.0404 20.4803 46.8492 19.8905C50.7617 19.073 54.0143 17.0058 55.7778 13.251C56.3968 11.9255 56.4902 10.3605 56.8289 8.87142C59.0129 10.2612 60.0172 12.597 60.4494 15.0262C60.8289 17.1109 60.4669 19.3241 60.5194 21.4789C60.572 23.3533 60.7413 25.2278 60.864 27.1023C61.0508 27.1432 61.2377 27.1782 61.4304 27.2132C61.6348 26.7402 61.8859 26.2848 62.0319 25.8001C63.3866 21.3562 66.3005 18.5533 70.8962 17.8409C74.8495 17.2336 77.2612 17.2628 78.9021 20.1767C79.4978 21.2394 79.5211 22.6292 79.8131 23.8906C80.5781 23.3708 81.4598 22.6468 82.4467 22.1154C85.3197 20.5679 88.3621 19.7095 91.3928 21.4789C92.584 22.1738 93.6935 23.3884 94.3125 24.6322C95.6614 27.3242 97.2965 29.7242 99.6556 31.587C102.459 33.7943 103.662 36.644 103.183 40.171C103.043 41.2338 103.358 41.6426 104.485 41.9054C107.918 42.7112 108.917 44.4105 107.591 47.7098C106.517 50.4018 107.031 52.4573 108.672 54.7055C110.71 57.5085 112.053 60.6618 111.451 64.2998C111.352 64.9071 111.148 65.4969 110.967 66.1976C113.811 67.1261 116.543 68.4458 116.584 71.9203ZM109.186 77.3393C110.616 76.6035 111.954 74.3145 111.288 72.8196C110.681 71.4473 109.262 70.4254 108.175 69.275C108.088 69.1816 107.761 69.2516 107.58 69.3276C104.946 70.4429 101.448 70.2677 100.689 74.4429C99.6556 70.986 100.917 68.983 103.317 67.7626C105.816 66.4896 106.99 64.4691 106.26 62.2735C105.822 60.9362 104.736 59.7975 103.854 58.6355C101.191 55.1143 98.587 51.5989 101.191 46.8864C101.226 46.828 101.151 46.7054 101.104 46.5244C100.759 46.5244 100.386 46.4777 100.029 46.5302C97.4483 46.9273 94.8614 47.2952 92.2921 47.774C91.4512 47.9259 90.3942 48.1711 89.9212 48.7609C89.4365 49.3624 89.5533 50.4427 89.3957 51.377C88.4438 50.9449 87.8073 50.1741 87.7139 48.9419C87.4862 46.0397 88.7358 44.1944 91.568 42.9565C92.8994 42.3725 94.1724 41.6134 95.3403 40.755C96.0936 40.2002 96.0585 39.5228 95.3344 38.6294C93.3256 36.1476 91.3519 33.5958 89.6935 30.8746C88.6891 29.2162 87.9475 27.2716 88.5489 25.1402C88.6424 24.819 88.0526 24.0307 87.6497 23.9198C86.8789 23.7095 85.9095 23.5694 85.2146 23.8614C83.5387 24.5621 81.9387 25.4789 80.3678 26.4132C77.7809 27.9432 77.5007 29.3038 78.2831 32.1943C76.8758 31.7855 76.4846 31.1607 76.2627 29.6483C75.9065 27.1548 76.578 24.8366 77.3196 22.5358C77.781 21.111 77.0569 20.2117 75.9415 20.0423C74.9897 19.8964 73.4831 20.1825 72.9926 20.8424C71.5736 22.7519 70.4466 24.9008 69.3955 27.0497C68.3151 29.257 67.6611 31.6979 66.4524 33.8235C63.7954 38.4834 59.6727 37.4849 56.899 34.2498C54.061 30.9388 52.3325 27.1081 53.4829 22.2789C48.7179 25.9811 43.5733 27.2483 37.8272 26.6234C38.9718 29.4965 39.655 32.2702 39.4097 35.2834C39.0535 39.5696 35.0943 41.7594 31.5147 39.4177C30.306 38.6294 29.2957 37.5257 28.0987 36.4805C26.9716 40.8718 23.8942 43.8966 20.5424 46.6353C17.1555 49.4033 14.0722 52.3931 12.2211 56.3989C11.7831 57.3449 11.7481 58.6763 12.0109 59.7041C12.6007 62.0107 15.281 63.8735 17.7044 63.9494C18.919 63.9844 20.1394 63.9144 21.3541 63.9728C23.6898 64.0837 25.0738 65.4268 24.7818 67.2195C23.1001 65.3917 21.2081 65.0589 18.9015 66.291C18.5978 66.4545 18.3 67.1202 18.3993 67.4297C19.0591 69.5203 18.446 71.4356 17.4883 73.1816C16.6182 74.77 15.4153 76.1948 14.2766 77.6196C13.4883 78.6065 13.0562 79.5758 13.7569 80.7613C14.4751 81.9875 15.573 82.0459 16.7876 81.6897C17.4416 81.497 18.1015 81.316 18.7613 81.1408C22.4168 80.2007 25.7804 82.6941 25.8096 86.4606C25.8388 89.7716 24.3497 92.5278 22.3876 95.0738C20.5482 97.4505 19.8416 100.026 21.2898 102.823C22.8139 105.766 25.8855 105.836 27.795 103.214C29.0797 101.451 30.5979 99.8155 32.1863 98.3147C34.1016 96.5103 35.5206 91.0154 32.2564 88.9832C31.5965 88.5745 30.9542 88.154 30.1308 87.6285C32.0403 87.0037 33.5469 87.4825 34.8199 88.557C38.2126 91.4241 38.4053 98.6885 35.2579 102.151C34.9425 102.496 34.4053 102.899 34.4286 103.243C34.5396 104.89 34.5046 106.648 35.106 108.125C35.6666 109.509 36.8754 110.683 37.9557 111.792C40.4608 114.385 42.855 113.112 44.3733 111.08C47.1937 107.313 48.531 103.056 48.677 98.3322C48.7354 96.376 49.3135 94.414 49.7865 92.4928C49.9208 91.9439 50.5164 91.5117 50.9427 90.9745C51.2931 93.0242 51.585 94.6884 51.8595 96.3643C52.3033 99.0914 52.8055 101.818 53.1325 104.563C53.2435 105.486 53.4887 105.918 54.3588 106.286C55.9997 106.986 57.2727 108.119 57.88 109.918C58.2128 110.905 58.791 111.81 59.188 112.779C60.8348 116.738 63.4041 119.138 68.0582 118.379C69.7984 118.099 71.4276 118.519 72.6889 120.084C76.1868 117.713 77.162 114.157 77.5415 110.373C77.7868 107.921 76.6598 105.813 75.5619 103.675C74.7152 102.029 74.213 100.207 73.6816 98.4257C73.5824 98.1045 74.0787 97.6023 74.3006 97.1877C74.6276 97.468 74.9955 97.7133 75.2875 98.0286C75.9532 98.741 76.5138 99.5644 77.2379 100.213C79.4919 102.216 81.8394 104.137 82.6803 107.214C83.054 108.586 83.2817 110.005 83.6379 111.681C84.1518 111.01 84.5139 110.578 84.8409 110.11C86.5927 107.588 86.108 104.639 86.3007 101.848C86.6044 97.4505 88.0584 93.7249 92.3446 91.9731C95.0191 90.8811 97.9096 90.1745 100.771 89.7307C104.765 89.1176 106.891 86.4839 108.567 83.2839C109.01 82.4372 108.876 81.2868 108.993 80.3992C107.486 80.0313 106.243 79.7277 105.005 79.424C105.005 79.278 104.987 79.132 104.981 78.9861C105.664 78.7466 106.348 78.5306 107.019 78.2678C107.749 77.9817 108.491 77.6955 109.186 77.3393Z" fill="black"/>
<path d="M95.7198 62.5888C96.7067 67.7159 92.73 71.9612 87.4745 71.4765C84.7766 71.2254 82.0963 71.2312 79.6029 72.5334C79.3751 72.6502 79.1824 72.8254 79.0014 72.9539C80.0759 73.6663 81.1737 74.2678 82.1197 75.0502C83.1065 75.8678 83.4628 76.9656 83.1766 78.3028C82.6511 80.7496 83.1357 81.462 85.5533 82.1043C88.1168 82.7876 89.5475 84.2065 89.5125 86.2971C89.4949 87.1613 89.057 88.0139 88.7358 89.1292C87.0774 87.5642 89.5942 85.2343 87.1592 84.2416C86.9956 86.5891 86.692 88.9307 83.9942 89.4738C82.6686 89.7424 81.1737 89.3687 79.7897 89.1234C77.559 88.7205 75.5269 88.7438 73.7575 90.4781C73.4656 90.7643 72.8524 90.9044 72.3327 90.8752L72.3677 89.9701C72.7298 89.8592 73.1619 89.7949 73.3546 89.5438C75.0247 87.4241 77.2846 86.846 79.8248 86.9336C80.251 86.9511 80.6715 86.9394 81.0978 86.9394C83.965 86.9394 84.4204 86.5599 84.8876 83.8679C83.9766 83.1029 82.8671 82.5365 82.3591 81.6255C81.8452 80.7262 81.6292 79.424 81.8394 78.4138C82.1372 76.9656 81.9328 75.8386 80.7532 75.0853C79.6145 74.3612 78.3474 73.6137 77.016 74.8809C76.8466 75.0444 76.4787 74.986 76.2043 75.0327C76.216 74.7057 76.1225 74.3145 76.2685 74.0692C77.67 71.6984 79.6905 70.2677 82.4992 70.0925C84.181 69.9874 85.8569 69.8122 87.5329 69.8005C92.0059 69.7655 94.8497 66.9042 94.7505 62.4662C94.7446 62.2092 94.7505 61.9464 95.0658 61.5143C95.2877 61.8705 95.6439 62.1976 95.7198 62.5888Z" fill="black"/>
<path d="M93.6643 74.6824C94.5578 75.4356 95.5271 76.2882 95.0658 77.9933C93.6527 74.6824 90.7796 74.659 88.0176 74.1101C89.4891 72.8254 91.7548 73.059 93.6643 74.6824Z" fill="black"/>
<path d="M94.3184 61.3158C90.1081 60.9421 88.5022 64.1771 86.3767 67.3772C86.1197 66.5071 85.8511 66.0691 85.8861 65.6487C86.0905 62.799 85.6526 62.3143 82.8555 62.4428C82.3065 62.472 81.7518 62.4486 80.9459 62.4486C83.3168 60.691 85.2321 60.4165 86.9431 63.529C89.8161 59.78 92.8059 58.834 94.3184 61.3158Z" fill="black"/>
<path d="M88.2511 36.2294C85.6759 36.0308 85.9095 37.8002 85.4832 39.1783C85.2496 39.9433 84.6599 40.6207 84.1635 41.2805C83.5328 42.1214 82.5868 42.8105 82.2014 43.739C81.197 46.139 79.235 46.7054 77.232 44.9536C76.1634 44.0192 75.1298 43.0324 74.0086 41.9988C75.2466 41.5258 76.3152 41.8586 77.232 42.9448C77.5882 43.3711 78.0087 43.7915 78.4875 44.0484C79.562 44.6324 80.4554 44.428 80.8058 43.1433C81.2087 41.6426 82.108 40.7141 83.6087 40.2469C84.8993 39.844 84.6248 38.5593 84.8175 37.5841C85.1971 35.7155 86.1723 35.2016 88.2511 36.2294Z" fill="black"/>
<path d="M77.5182 48.5156C81.3839 51.4529 81.5708 55.7274 78.9021 59.5172C77.3138 61.7771 75.7838 63.9436 75.743 66.8633L75.0948 67.021C74.7503 66.1742 74.2539 65.3567 74.0904 64.4749C73.7809 62.7698 73.6408 61.0355 73.4656 59.307C73.2553 57.2982 70.8904 55.634 68.9575 56.1654C67.7312 56.5041 67.3983 57.2865 67.9414 58.5479C68.8641 60.6734 68.8057 61.3683 67.8305 62.1917C67.4042 60.6618 66.8845 59.0442 66.5283 57.3975C66.2655 56.2062 68.064 54.6997 69.5823 54.904C72.3035 55.2661 74.1838 57.0062 74.4466 59.6515C74.5926 61.0705 74.6451 62.4954 74.7094 63.4998C75.5853 61.9757 76.5605 60.1187 77.6934 58.361C80.2861 54.3493 79.4686 50.723 75.3167 48.212C75.1824 48.1361 75.0831 48.0135 74.9663 47.9142C75.013 47.7624 75.0597 47.6164 75.1065 47.4704C75.9181 47.8091 76.8408 48.0018 77.5182 48.5156Z" fill="black"/>
<path d="M76.5547 36.8484C75.2233 37.0878 72.7532 35.7622 72.1867 34.4717C71.7955 33.5783 71.6145 32.6031 72.4787 31.6629C72.5546 34.4308 74.9313 35.3067 76.5547 36.8484Z" fill="black"/>
<path d="M73.1736 75.8386C73.232 77.1057 72.8115 78.3846 72.6831 79.6693C72.5663 80.7671 72.2802 81.9525 72.5663 82.9627C73.1386 85.0066 73.4772 86.9336 72.3561 88.8898C72.1809 89.1935 72.2568 89.6431 72.2159 90.0227C72.2626 90.0052 72.3152 89.9876 72.3677 89.9701L72.3327 90.8752C72.1517 90.8694 71.9882 90.8402 71.848 90.7935C70.9371 90.4665 70.7327 89.573 71.1823 88.703C72.1692 86.7876 71.9415 85.0007 71.1648 83.0328C70.7385 81.9642 71.0247 80.5744 71.1531 79.3481C71.2349 78.5247 71.8364 77.7131 71.778 76.9247C71.7312 76.3349 71.1064 75.4473 70.575 75.2955C69.6115 75.0269 69.594 75.9378 69.6232 76.6561C69.6232 76.8138 69.6115 76.9773 69.6407 77.1291C70.3006 80.6328 68.6305 82.8109 65.7107 84.4576C63.0479 85.9642 61.8742 88.4927 62.5925 90.9103C62.8961 91.9322 63.5209 92.8665 64.1166 94.0811C62.1545 94.2446 60.9574 93.1877 59.8771 92.1599C58.4523 90.811 57.9034 89.0124 57.6114 87.0796C57.3369 85.2285 56.9106 83.3773 56.2858 81.6255C55.9997 80.8255 55.1121 80.2007 54.4055 79.6109C54.1486 79.4007 53.477 79.3247 53.2376 79.5116C51.1179 81.1408 48.5835 81.3452 46.0959 81.789C43.5908 82.2386 41.4068 83.1671 41.0039 86.1394C40.9805 86.2737 40.8229 86.3847 40.4024 86.9511C39.9762 85.9701 39.69 85.3511 39.4389 84.7263C38.1951 81.6138 38.5338 78.6357 40.017 75.6634C41.1557 73.386 41.4886 71.167 39.7659 68.7962C38.6272 67.2312 38.125 65.3625 38.3645 63.4472L39.7017 63.6341C39.6083 64.364 39.6667 65.1406 39.9236 65.9056C40.1864 66.6881 40.4842 67.5524 41.0214 68.1363C43.2638 70.5538 42.7966 73.2166 41.9032 75.9437C41.3835 77.532 40.7236 79.0853 40.2448 80.6853C40.0929 81.1934 40.3148 81.8124 40.4141 82.846C42.6156 80.154 45.4244 79.7043 48.0405 79.1496C52.5544 78.1977 54.3004 74.805 53.0799 70.3787C52.9748 69.9991 52.8405 69.637 52.6829 69.129C54.9661 70.0692 55.6435 73.2867 54.6741 77.8298C57.1559 78.805 57.9909 80.989 58.5107 83.3365C58.8785 85.0124 59.0129 86.7467 59.4391 88.411C59.7019 89.4329 60.3209 90.373 60.9808 91.2314C60.9808 90.0636 60.934 88.8957 60.9924 87.7336C61.1326 85.2051 62.5049 83.4007 64.5954 82.1686C67.048 80.7262 68.0874 78.4605 68.6013 75.8444C68.8524 74.5305 69.5531 73.6371 70.867 73.6488C72.1575 73.6663 73.1152 74.5714 73.1736 75.8386Z" fill="black"/>
<path d="M70.4174 39.7506C70.6568 41.1054 70.8845 42.5535 70.6451 43.8791C70.4115 45.193 69.6991 46.3375 67.8597 46.2908C66.9429 46.2674 65.9268 46.9974 65.1034 47.593C64.1049 48.3054 63.1706 48.7959 61.9268 48.3346C60.0464 47.628 58.1778 46.9156 56.1515 47.9609C55.7661 48.1594 55.1354 47.8675 54.4055 47.7682C54.5515 49.7945 53.2259 51.0266 52.023 52.4339C51.3515 53.2223 51.258 54.5245 50.9719 55.6165C50.8493 56.0953 50.9077 56.6208 50.8785 57.123C50.7383 57.2106 50.5923 57.2982 50.4463 57.38C49.9033 56.8427 49.2609 56.3698 48.8463 55.7449C47.9587 54.396 46.9718 53.2398 45.3835 52.6617C44.0579 52.177 42.9484 52.4047 41.8681 53.269C40.2564 54.5653 39.5265 54.4953 38.1075 53.1288C39.2404 52.4339 40.3382 51.6223 41.547 51.0266C43.8536 49.8938 45.804 51.0091 47.6609 52.2529C48.3091 52.6909 48.8346 53.304 49.2317 53.6719C50.2712 52.1244 51.4157 50.6996 52.2624 49.123C53.2843 47.2018 52.6829 45.2163 51.8653 43.3769C50.9661 41.3681 50.9018 41.3973 47.0828 38.5769C49.1208 38.6703 50.7325 39.7331 51.9588 41.2338C52.7938 42.2674 53.3778 43.5521 53.8624 44.8076C54.5165 46.5069 55.55 47.0675 57.1384 46.1623C59.0129 45.0996 60.2041 43.447 60.5545 41.3097C60.6421 40.7608 60.2917 40.136 60.1399 39.5462C61.4421 39.7389 61.845 40.6148 61.2844 42.6119C60.9457 43.8382 60.3384 44.9886 59.8245 46.2324C61.5297 46.9215 63.0947 47.7857 64.7239 45.812C65.3137 45.0937 66.6567 44.7784 67.6962 44.6791C68.7414 44.5798 69.2378 44.1477 69.4772 43.2601C69.8976 41.6835 69.9385 40.1418 68.9108 38.7345C69.01 38.6236 69.1093 38.5185 69.2086 38.4134C69.629 38.8572 70.3298 39.2484 70.4174 39.7506Z" fill="black"/>
<path d="M65.6056 66.1509C66.0378 66.3085 66.3881 66.6823 66.7794 66.9567C66.3356 67.1436 65.8918 67.494 65.4596 67.4823C64.2684 67.4472 63.5326 67.9027 62.8903 68.9246C61.5297 71.0911 60.6888 71.2254 58.5515 69.783C56.8464 68.6327 55.1997 67.4122 52.9865 67.5115C52.0113 67.5582 50.9953 67.6516 50.0668 67.4356C47.3339 66.8107 46.2945 63.9377 47.9762 61.345C48.2273 62.0983 48.4492 62.618 48.5777 63.1611C49.0157 64.9538 49.9792 65.9991 51.8303 65.8531C54.6624 65.6253 56.7763 66.9217 58.8669 68.4867C59.8771 69.2458 60.6713 69.3568 61.3895 68.0078C61.8275 67.1903 62.645 66.5772 63.4333 65.7363C63.4392 65.7363 63.4392 65.7421 63.4392 65.748C63.4859 65.8005 63.4742 65.9173 63.4392 65.748V65.7304H63.4333C60.4786 63.2954 60.1224 60.2004 61.1735 56.7493C61.4654 55.7975 61.7165 54.8223 62.0552 53.8821C62.7209 52.0427 62.6742 50.4018 60.5778 49.1755C62.791 49.012 64.029 50.4777 63.6903 52.831C63.3574 55.1551 62.7268 57.4325 62.1837 59.7216C61.553 62.3552 63.0947 65.2458 65.6056 66.1509Z" fill="black"/>
<path d="M63.4392 65.7304V65.748C63.4392 65.748 63.4392 65.7363 63.4333 65.7363H63.4392V65.7304Z" fill="black"/>
<path d="M60.934 101.737C61.0625 102.496 61.5647 103.197 61.9151 103.95C60.4085 103.512 59.0537 101.614 59.2289 100.242C59.6786 96.7614 59.5851 96.6038 56.3325 94.9804C56.169 94.8986 56.0756 94.6826 55.8187 94.3731C58.5399 93.8709 60.5954 95.5527 60.7472 98.2096C60.8173 99.3834 60.7355 100.58 60.934 101.737Z" fill="black"/>
<path d="M44.239 58.2325C44.601 58.6355 44.8521 59.1377 45.1499 59.599C44.6653 59.6924 44.1806 59.8909 43.7017 59.8618C41.6404 59.7274 39.9878 61.4793 39.7017 63.6341L38.3645 63.4472C38.4287 62.9333 38.5455 62.4136 38.7148 61.8997C39.0243 60.9654 39.7776 60.1829 40.3849 59.2486C38.9075 59.6807 38.0608 60.7202 37.2433 61.9056C36.3557 63.1961 35.398 64.5041 34.2243 65.5085C32.2856 67.1553 29.8271 66.4137 29.2607 64.037C32.344 65.3334 33.8272 63.2837 34.9834 61.1464C37.1907 57.0646 40.1455 56.8252 43.2755 57.7187C43.62 57.8179 44.0054 57.9756 44.239 58.2325Z" fill="black"/>
<path d="M35.4506 73.3101C36.8637 74.6473 37.1148 78.1335 36.0403 79.9671C34.1717 77.8532 36.3498 73.9349 32.3907 72.7962C33.8856 71.8852 34.7849 72.6794 35.4506 73.3101Z" fill="black"/>
<path d="M34.2768 47.8324C36.0345 49.7478 35.398 54.9683 33.3367 56.4807C33.1206 56.6325 32.7819 56.6092 32.1513 56.7435C32.5425 55.6749 32.887 54.8807 33.1264 54.0632C33.4067 53.123 33.6929 52.1653 33.8038 51.1901C33.9907 49.5726 33.5994 48.1828 31.6958 47.6397C31.8009 47.412 31.906 47.1784 32.0111 46.9507C32.7761 47.231 33.7805 47.2952 34.2768 47.8324Z" fill="black"/>
</svg>
