<svg width="112" height="158" viewBox="0 0 112 158" fill="none" xmlns="http://www.w3.org/2000/svg">
<path d="M111.225 11.2951L111.206 11.1798C111.105 10.5989 110.923 9.5186 110.212 8.40471C108.272 5.34629 105.382 3.21452 101.632 2.07182C100.322 1.66851 99.03 1.42365 97.8921 1.20759C97.4552 1.12597 97.0231 1.04435 96.5909 0.94832L96.0724 0.837891H90.8102L90.1476 1.13557C86.3066 1.48126 82.8977 2.83042 80.0313 4.13157C74.193 6.77707 69.4493 10.7621 65.1906 14.6656C62.9388 16.7301 60.6678 18.8379 58.464 20.8832L54.3829 19.4909C53.0289 19.0299 51.651 18.7947 50.2778 18.7947C47.4643 18.7947 45.1692 19.7741 43.6905 20.5087C39.6766 22.5061 37.2375 25.6317 34.8897 28.9206L34.6496 29.2567C33.843 30.3898 33.2093 31.2492 32.5947 31.859C31.7209 29.3719 30.0836 27.1297 27.755 25.5309C25.7193 24.1289 23.2466 23.3847 20.6155 23.3847C15.795 23.3847 11.2098 25.9054 8.93399 29.804C8.29062 30.9083 7.77688 31.9886 7.28235 33.0353C6.81182 34.0291 6.3653 34.9654 5.88518 35.7528C3.51334 39.6034 2.19299 43.9966 1.8569 49.1724C1.81369 49.8301 1.60724 50.6752 1.38638 51.573C1.25674 52.1108 1.12231 52.6533 1.01188 53.191L0.90625 53.7V58.9478L1.17512 59.74C1.40078 60.4074 1.64565 61.0747 1.88571 61.7373C2.39465 63.1297 2.86997 64.4452 3.16765 65.6888C3.51334 67.1484 3.84943 68.8096 3.7294 70.0867C3.59017 71.5895 3.10043 73.2556 2.5819 75.0225C2.45226 75.469 2.32263 75.9107 2.19779 76.3428C0.963865 80.6784 0.853436 84.3321 1.8521 87.8371C2.28902 89.3783 2.89398 91.0059 3.75341 92.9648C4.54082 94.7509 4.66085 96.9067 4.80009 99.3986L4.8289 99.8979C4.92972 101.646 5.09297 103.374 5.24661 105.045C5.45306 107.287 5.65471 109.404 5.71233 111.507C5.80836 115.008 6.31249 118.541 7.25354 122.301C7.40718 122.92 7.57043 123.539 7.73367 124.159C8.40105 126.689 9.03002 129.08 8.93399 131.313C8.89558 132.172 8.92439 132.984 8.94839 133.699C8.9772 134.515 9.00121 135.283 8.92439 135.811C8.76114 136.892 8.45866 138.049 8.13698 139.273C7.90171 140.176 7.65685 141.112 7.44079 142.12C7.22953 143.129 6.67259 145.813 8.27141 148.136C10.3408 151.123 13.3608 153.499 17.0145 155.017C19.3384 155.982 21.6526 156.486 23.8948 156.98L24.7254 157.163C26.9148 157.648 29.0754 157.897 31.1495 157.897C32.9548 157.897 34.7505 157.71 36.5029 157.345C39.7534 156.654 42.3269 155.132 44.5979 153.783L45.1452 153.456C46.9985 152.352 48.5157 150.451 49.0919 148.511C49.7641 146.273 50.2874 144.146 50.6571 142.106C51.046 142.212 51.4541 142.274 51.8862 142.293C52.3904 142.312 52.8993 142.351 53.4082 142.384C54.3637 142.447 55.3528 142.514 56.3994 142.514C57.4461 142.514 58.4688 142.437 59.3858 142.288C65.8532 141.222 72.09 138.462 78.4469 133.843C81.4813 131.634 84.5445 129.046 86.3786 125.061C87.5213 122.56 87.7662 120.409 87.1324 118.512C86.5899 116.851 85.7785 115.473 85.0679 114.259C84.8518 113.889 84.631 113.519 84.4293 113.145L84.3525 113.01C83.8387 112.136 83.0898 111.44 82.2159 110.989C81.0156 108.651 79.8153 106.312 78.6198 103.974C76.7569 100.349 74.8988 96.7194 73.0359 93.0801C74.4186 89.5655 74.6203 86.0702 74.6203 83.2855C74.6203 77.884 72.0804 73.875 67.6536 71.9928C67.2359 68.9296 66.194 66.3033 65.2674 64.2484C63.6398 60.6522 61.1959 58.1604 57.9791 56.8208C58.3632 54.9291 58.344 52.8886 57.8974 50.7568C57.8014 50.2911 57.6862 49.8397 57.5517 49.398C57.9214 49.3308 58.2959 49.254 58.6704 49.1532C61.6616 48.3706 64.4176 46.6517 66.6454 44.1838C68.3162 42.3257 70.5104 39.3922 70.2751 35.3783L69.8478 28.0419C70.7265 27.2977 71.6147 26.5487 72.4981 25.8189C75.2445 23.5431 78.3989 21.3394 81.8654 19.2652C85.7016 16.9798 89.7299 15.5826 93.8206 15.1217C94.4976 15.0449 95.1938 15.0065 95.8852 15.0065C96.9366 15.0065 97.9593 15.0929 98.9196 15.2657C99.4141 15.357 100.226 15.7363 101.003 16.1012C101.613 16.3892 102.304 16.7109 103.063 17.0086C104.134 17.4215 105.104 17.4599 105.622 17.4839L105.886 17.5031C109.324 17.892 112.089 14.7232 111.24 11.3719L111.216 11.2759L111.225 11.2951Z" fill="white"/>
<path d="M107.091 11.6264C107.331 12.0057 107.341 12.5386 107.456 12.9947C106.986 12.9419 106.472 12.9947 106.04 12.8267C104.345 12.1689 102.727 11.1414 100.979 10.8246C98.8475 10.4404 96.5765 10.3876 94.416 10.6277C89.4226 11.1942 84.7222 12.8987 80.4298 15.453C76.9393 17.5367 73.5496 19.8654 70.424 22.4581C64.7681 27.1345 59.3714 32.123 53.1202 36.0313C48.9382 38.648 44.3962 40.458 39.6046 41.5623C38.2218 41.884 36.6998 41.6584 35.2498 41.596C34.9041 41.5815 34.5824 41.1926 34.2895 40.8566C36.6566 41.0486 38.8988 40.6981 41.0545 39.9155C46.8161 37.8365 52.2175 35.1046 56.7787 30.9227C61.1143 26.928 65.4114 22.8998 69.7566 18.9147C73.8665 15.1457 78.1348 11.588 83.2674 9.25933C86.2106 7.91978 89.221 6.77707 92.5147 6.64264C92.6923 6.64264 92.8652 6.4938 93.0476 6.41698H96.687C98.2282 6.74346 99.7982 6.96432 101.296 7.42525C103.682 8.15024 105.718 9.47059 107.087 11.6312L107.091 11.6264Z" fill="black"/>
<path d="M83.4883 120.615C83.7619 121.432 83.3394 122.608 82.9409 123.487C81.5869 126.42 79.1815 128.427 76.632 130.28C71.5283 133.987 65.9828 136.796 59.7219 137.828C57.619 138.174 55.4104 137.862 53.2498 137.77C52.9281 137.756 52.5152 137.377 52.3328 137.055C51.4589 135.504 50.5659 133.949 49.8649 132.316C49.6344 131.783 50.0377 131.005 50.0185 130.343C49.9993 129.839 49.7641 129.344 49.6056 128.763C48.799 129.642 48.1124 130.367 47.4547 131.125C47.3202 131.279 47.2386 131.548 47.2626 131.75C47.8724 137.17 46.9601 142.423 45.4093 147.575C45.1741 148.367 44.4443 149.197 43.7193 149.63C41.4723 150.955 39.2637 152.352 36.6134 152.914C33.3677 153.595 30.17 153.451 26.9868 152.746C24.6678 152.227 22.2911 151.766 20.1114 150.863C17.5283 149.793 15.2237 148.127 13.596 145.779C13.2599 145.294 13.4184 144.363 13.5624 143.676C14.0329 141.472 14.7579 139.312 15.0988 137.098C15.3485 135.447 15.0892 133.732 15.1612 132.047C15.3197 128.422 14.1866 125.033 13.332 121.595C12.5349 118.407 12.0308 115.204 11.9396 111.887C11.834 107.959 11.2818 104.051 11.0514 100.124C10.8833 97.1612 10.7777 94.2276 9.55816 91.4476C8.91959 89.9928 8.32903 88.4996 7.89211 86.9728C7.05669 84.0489 7.41198 81.1441 8.2378 78.2489C8.90518 75.8819 9.7118 73.5004 9.93746 71.0758C10.1247 69.0977 9.7262 67.0043 9.26528 65.0406C8.74674 62.856 7.8633 60.7531 7.13831 58.6213V54.7323C7.4648 53.167 7.96893 51.6114 8.07456 50.027C8.33383 46.0563 9.24607 42.3498 11.3634 38.9216C12.5494 36.9963 13.3368 34.8261 14.4747 32.8672C16.6833 29.079 22.4688 27.7443 26.0553 30.2121C29.4835 32.5695 30.3957 37.2796 28.3216 40.6981C28.1295 41.015 28.2255 41.596 28.456 42.0665L27.9615 42.1529C27.8222 41.932 27.6062 41.5287 27.2893 41.2166C26.9484 40.8806 26.4299 40.3812 26.0938 40.4532C24.3029 40.8422 22.2959 40.7269 20.99 42.4314C20.5531 43.0027 19.9721 43.4636 19.4584 43.9726C18.3157 45.1105 18.114 45.3121 18.6854 46.162L18.066 46.3348C17.7107 45.7251 17.269 45.1393 17.1202 44.4911C17.4034 44.3087 17.7395 44.1742 17.97 43.939C19.2663 42.6138 20.4955 41.2263 21.835 39.9491C22.2623 39.541 22.9441 39.2913 23.5443 39.2193C24.5237 39.0993 25.532 39.1857 26.5547 39.1857C26.5547 38.2831 26.6939 37.294 26.5211 36.3626C26.3146 35.2583 26.1178 33.9571 25.4312 33.1745C22.6945 30.0537 17.7251 31.158 16.3904 35.1958C15.2237 38.72 13.6681 41.9272 10.9409 44.5295C9.87024 45.5522 9.7358 47.0118 9.82223 48.4378C9.96626 50.8384 10.2735 53.2391 10.2591 55.6349C10.2447 57.9587 10.6192 60.1673 11.4211 62.3231C12.3429 64.8053 13.0055 67.3788 12.9239 70.0243C12.8374 72.6602 12.1893 75.2193 11.157 77.6632C9.59176 81.389 9.37571 85.1147 10.9601 88.9318C11.7811 90.9003 12.6262 92.9552 12.8662 95.039C13.1495 97.5213 13.8985 99.7635 14.8588 101.996C16.2944 105.309 15.9679 108.785 15.8766 112.266C15.7854 115.545 15.8286 118.839 16.0831 122.104C16.2992 124.865 17.1058 127.587 17.2882 130.348C17.5715 134.592 17.2882 138.836 16.0015 142.956C15.9102 143.239 15.9391 143.743 16.1215 143.911C17.221 144.91 18.2869 145.985 19.5256 146.778C23.4771 149.308 27.9807 150.143 32.5371 150.671C36.0612 151.08 39.1965 149.855 42.1684 148.05C43.0663 147.503 43.6184 146.811 43.7865 145.808C44.2042 143.297 44.6843 140.795 44.982 138.265C45.2221 136.287 45.2317 134.275 45.3469 132.235C42.7494 132.355 40.1903 133.286 38.2218 130.568C42.0388 129.973 45.1308 128.336 47.9924 126.238C45.9423 122.296 43.9113 118.392 41.8228 114.379C40.5888 117.634 38.1018 120.913 35.6291 122.512C35.1538 122.819 34.5152 122.886 33.9535 123.064C34.6112 122.065 35.3074 121.355 35.898 120.572C39.2637 116.078 41.7555 111.339 40.656 105.41C40.0319 102.044 38.1402 99.6674 35.4274 97.7949C34.6256 99.9219 33.3293 101.583 31.6536 102.927C31.3368 103.182 30.7942 103.148 30.2853 103.273C31.9849 99.8019 34.0255 96.7819 33.8238 92.9552C32.4362 93.637 31.2023 94.266 29.9444 94.8373C29.7139 94.9382 29.373 94.8085 29.0898 94.7845C29.181 94.4724 29.181 94.0787 29.373 93.8627C30.5013 92.5951 31.6824 91.3804 32.83 90.1273C34.4816 88.3316 35.6291 86.2959 35.7875 83.7464C33.9967 84.2841 32.4507 85.6237 30.2853 84.9083C31.452 83.9672 32.4699 83.1366 33.5021 82.3252C36.3637 80.0638 38.966 77.5863 40.512 74.187C42.3797 70.0675 42.903 65.8616 41.1746 61.5597C40.3055 59.3943 38.7883 58.6453 36.815 59.7688C35.4803 60.5274 34.2415 61.7277 33.4061 63.0193C30.5686 67.4316 27.611 71.6952 23.4435 74.9888C22.7041 75.5746 22.1951 76.2948 22.1711 77.3271C22.1231 80.107 22.0895 82.8918 21.9214 85.6621C21.763 88.1924 21.1148 90.6122 19.564 92.696C18.2533 94.4628 17.5619 96.3689 18.0324 98.6015C18.114 98.9904 17.9892 99.4274 17.9604 99.8355C17.8596 99.8547 17.7539 99.8691 17.6531 99.8835C17.4659 99.4322 17.1202 98.9808 17.1154 98.5295C17.0482 96.0137 16.8225 93.469 18.4933 91.2556C18.911 90.7034 19.1127 89.9688 19.3528 89.3015C20.3274 86.5695 19.9337 83.732 19.9529 80.928C19.9529 80.7024 19.4728 80.3759 19.1559 80.2703C18.2869 79.9774 17.3794 79.7757 16.4864 79.5405C16.5056 79.4684 16.52 79.4012 16.5392 79.3292C17.6723 79.406 18.8054 79.4828 19.9769 79.5549C19.6072 77.2935 19.8185 75.3105 20.87 73.5485C19.3192 70.5045 18.0708 67.2828 16.1551 64.5221C15.6558 63.7971 15.3581 63.1009 15.2045 62.4143L16.1119 62.3807C18.4213 60.2489 20.5723 57.8963 23.093 56.0478C25.6472 54.1657 28.5184 52.6821 31.3512 51.2033C34.1311 49.7533 37.0359 48.529 40.1855 47.0694C39.1772 46.8341 38.4619 46.5557 37.7417 46.5125L37.8137 45.629C38.337 45.6722 38.8508 45.7202 39.3693 45.7587C39.6958 45.7875 40.0319 45.6626 40.3632 45.5906C41.5203 45.3313 42.6582 44.9328 43.8297 44.8176C48.895 44.3327 53.0625 47.2759 54.1092 52.3172C54.7238 55.2748 54.2869 58.1652 51.8958 60.3882C53.4755 60.8587 55.0071 61.2908 56.5291 61.7805C59.1074 62.6159 60.7446 64.4933 61.8201 66.8699C62.9868 69.453 63.899 72.1177 63.9422 75.0129C63.9518 75.517 64.1439 76.0211 64.2447 76.5061C68.5371 77.0582 70.7217 79.5405 70.7217 83.8184C70.7217 87.1649 70.3664 90.4298 68.7051 93.4306C68.5995 93.6322 68.7291 94.0307 68.8588 94.2804C72.2725 100.964 75.7054 107.638 79.1287 114.311C79.5368 115.104 79.5608 116.275 80.9532 115.987C81.0108 115.977 81.1212 116.04 81.1548 116.093C81.971 117.591 82.9745 119.021 83.4979 120.615H83.4883ZM80.6603 122.161C81.9086 120.534 81.7694 120.145 80.3146 118.445C79.7337 119.506 79.3255 120.625 78.6102 121.504C75.2493 125.647 71.269 129.099 66.3573 131.25C63.8846 132.331 61.2343 133.166 58.5792 133.603C56.0874 134.011 53.6195 133.248 51.3821 131.788C51.8286 132.979 52.4672 134.064 52.8945 135.221C53.2834 136.287 54.0564 136.522 55.0023 136.608C58.7137 136.925 62.209 136.061 65.5939 134.659C69.5213 133.032 72.9206 130.588 75.9118 127.596C77.6067 125.897 79.1959 124.068 80.6555 122.157L80.6603 122.161ZM77.4194 119.377C78.6342 117.797 78.9606 116.376 77.7651 114.691C77.309 114.047 77.0209 113.284 76.6464 112.583C73.6312 106.874 70.616 101.165 67.572 95.4615C67.4184 95.1782 67.0295 94.8661 66.7318 94.8565C62.9244 94.6981 60.3173 92.6864 59.333 88.9846C58.8001 86.992 58.7137 84.8795 58.4016 82.6997C58.5648 82.7189 58.4016 82.6661 58.2527 82.6901C55.9625 83.031 54.5605 81.8307 53.4419 80.0158C52.0543 77.7544 51.6078 75.2049 51.0508 72.6794C50.4218 69.8611 49.9273 66.9899 49.0151 64.2628C48.5686 62.9424 47.9156 61.4588 46.1007 60.9595C45.1644 60.705 44.3002 59.764 43.6616 58.9334C41.8132 56.5519 41.0305 53.7912 41.0834 50.7712C41.093 50.1038 40.8625 49.4268 40.7329 48.7211C31.4616 51.7795 24.5862 57.9923 17.5955 64.0131C19.0935 66.7643 20.5771 69.4914 22.1327 72.3433C23.0401 71.5463 23.9572 70.9174 24.6486 70.0963C27.0204 67.2732 29.3298 64.3876 31.6296 61.5021C32.9644 59.836 34.2367 58.146 36.4597 57.5506C38.4378 57.0177 40.8913 57.5506 41.8996 58.8902C44.5691 62.4287 45.174 66.3898 44.3194 70.6677C43.4552 75.0369 41.3378 78.7146 38.2074 81.8451C37.9961 82.0563 37.7081 82.402 37.7561 82.6229C38.4379 85.7677 37.2471 88.4084 35.6099 90.9483C35.4467 91.198 35.3026 91.5341 35.3266 91.8125C35.4371 93.0369 35.5811 94.2564 35.7875 95.4711C35.8452 95.8312 36.0708 96.3497 36.3589 96.465C38.313 97.2524 39.6526 98.6784 40.7329 100.412C42.8118 103.734 43.0759 107.364 42.6294 111.147C42.5574 111.771 42.7014 112.516 42.9895 113.077C43.9977 115.022 45.1548 116.89 46.1775 118.829C48.1124 122.483 49.9945 126.161 51.9198 129.829C52.0591 130.093 52.2703 130.386 52.5248 130.511C56.6491 132.489 60.735 131.999 64.7152 130.112C69.8766 127.659 73.9529 123.904 77.4098 119.391L77.4194 119.377ZM69.0508 86.1518C69.7806 81.4226 68.249 79.0459 64.0431 77.836C63.587 79.939 62.6795 80.9905 60.178 82.2148C60.2933 84.0921 60.1972 86.0942 60.5862 88.0003C61.1095 90.5402 62.4394 92.5999 65.2914 93.1281C66.8614 93.4162 67.596 93.0945 68.0233 91.5052C68.4939 89.7528 68.7675 87.9475 69.0508 86.147V86.1518ZM59.2754 80.7168C61.1623 79.9486 62.8283 79.1756 62.4634 76.2132C62.3242 75.1137 62.257 73.9854 61.9545 72.9291C61.2631 70.49 60.5237 68.0414 58.8241 66.0537C56.822 63.7106 53.9316 63.3217 51.4109 62.688C51.8622 65.9432 52.2127 69.1649 52.7937 72.3433C53.173 74.4367 53.6531 76.5733 54.5125 78.5034C55.564 80.8656 56.6347 81.7875 59.2754 80.7168ZM52.0879 57.2625C53.4755 54.569 52.7985 50.9152 50.5467 48.5098C49.0967 46.959 47.3922 46.2148 45.2749 46.4981C44.1706 46.6469 43.0663 46.8389 42.2885 46.959C42.5622 47.9288 42.8982 48.7739 43.0183 49.6573C43.1431 50.5263 43.0183 51.4338 43.0519 52.322C43.1143 54.3049 43.652 56.163 44.7995 57.7955C46.7153 60.5226 50.5563 60.2297 52.0879 57.2625Z" fill="black"/>
<path d="M80.3146 118.445C81.7694 120.145 81.9086 120.534 80.6603 122.161C79.2007 124.072 77.6115 125.902 75.9166 127.601C72.9302 130.588 69.5261 133.036 65.5987 134.664C62.2138 136.066 58.7137 136.93 55.0071 136.613C54.0564 136.527 53.2834 136.292 52.8993 135.226C52.472 134.064 51.8334 132.984 51.3869 131.793C53.6195 133.252 56.0874 134.016 58.584 133.608C61.2391 133.171 63.8942 132.335 66.3621 131.255C71.2738 129.104 75.2589 125.652 78.615 121.508C79.3303 120.63 79.7385 119.511 80.3194 118.45L80.3146 118.445Z" fill="#D9C786"/>
<path d="M77.7651 114.691C78.9558 116.376 78.6294 117.802 77.4194 119.377C73.9625 123.89 69.8862 127.644 64.7249 130.098C60.7446 131.985 56.6587 132.475 52.5344 130.496C52.2799 130.372 52.0639 130.079 51.9294 129.815C50.0089 126.146 48.1268 122.469 46.1871 118.815C45.1596 116.88 44.0073 115.012 42.9991 113.063C42.711 112.501 42.5669 111.757 42.639 111.133C43.0855 107.349 42.8214 103.72 40.7425 100.397C39.6574 98.664 38.3226 97.2332 36.3685 96.4506C36.0852 96.3353 35.8548 95.8168 35.7971 95.4567C35.5907 94.242 35.4515 93.0225 35.3362 91.7981C35.3122 91.5149 35.4563 91.1836 35.6195 90.9339C37.2567 88.394 38.4475 85.7533 37.7657 82.6085C37.7177 82.3876 38.0057 82.0419 38.217 81.8307C41.3474 78.7002 43.4648 75.0225 44.329 70.6533C45.1788 66.3754 44.5739 62.4143 41.9092 58.8758C40.9057 57.541 38.4523 57.0033 36.4693 57.5362C34.2463 58.1316 32.974 59.8264 31.6392 61.4877C29.3394 64.3732 27.03 67.2588 24.6582 70.0819C23.9668 70.903 23.0497 71.5319 22.1423 72.3289C20.5867 69.4722 19.1031 66.7499 17.6051 63.9987C24.5958 57.9779 31.4712 51.7699 40.7425 48.7066C40.8721 49.4172 41.1026 50.0894 41.093 50.7568C41.0401 53.7768 41.8228 56.5375 43.6712 58.919C44.3098 59.7496 45.174 60.6906 46.1103 60.9451C47.9252 61.4444 48.5782 62.928 49.0247 64.2484C49.9369 66.9755 50.4314 69.8467 51.0604 72.665C51.6174 75.1953 52.0639 77.74 53.4515 80.0014C54.5653 81.8163 55.9721 83.0166 58.2623 82.6757C58.416 82.6517 58.5744 82.7045 58.4112 82.6853C58.7233 84.8651 58.8145 86.9776 59.3426 88.9702C60.3269 92.6672 62.934 94.6789 66.7414 94.8421C67.0343 94.8565 67.428 95.1686 67.5816 95.4471C70.6256 101.146 73.6408 106.86 76.656 112.568C77.0305 113.274 77.3186 114.038 77.7747 114.676L77.7651 114.691ZM70.2799 124.749C73.2471 120.807 74.1114 116.337 73.5544 111.387C72.7238 112.919 72.0756 114.403 71.173 115.704C70.2607 117.019 69.094 118.157 68.0425 119.377L67.7881 119.228C70.8417 113.121 69.9294 107.028 67.8601 100.945C69.4061 107.657 70.6496 114.345 66.6214 120.779C69.4349 118.536 71.9124 116.112 73.3383 112.794C73.2039 117.528 72.5893 122.065 68.926 125.609C69.4349 125.402 69.9679 125.162 70.2799 124.749Z" fill="#D70321"/>
<path d="M73.5544 111.383C74.1114 116.333 73.2471 120.803 70.2799 124.745C69.9679 125.157 69.4301 125.402 68.926 125.604C72.5893 122.056 73.2039 117.523 73.3383 112.789C71.9124 116.107 69.4349 118.532 66.6214 120.774C70.6496 114.335 69.4109 107.652 67.8601 100.94C69.9294 107.023 70.8465 113.116 67.7881 119.223L68.0425 119.372C69.094 118.152 70.2655 117.014 71.173 115.699C72.0804 114.398 72.7238 112.909 73.5544 111.383Z" fill="black"/>
<path d="M64.0383 77.836C68.2442 79.0459 69.7806 81.4226 69.046 86.1518C68.7627 87.9475 68.4891 89.7576 68.0185 91.5101C67.596 93.0993 66.8566 93.4258 65.2866 93.1329C62.4298 92.5999 61.1047 90.5402 60.5814 88.0051C60.1876 86.099 60.2885 84.0969 60.1732 82.2196C62.6699 80.9952 63.5822 79.939 64.0383 77.8408V77.836Z" fill="#F5C242"/>
<path d="M66.3813 36.2041C66.4965 38.1918 65.3538 39.8723 64.0383 41.3319C62.5595 42.9691 60.7206 44.2174 58.5408 44.7888C56.5915 45.2977 54.6758 45.2449 52.9041 44.0974C51.2093 43.0027 49.5048 41.932 47.301 42.2873C48.7078 41.3847 50.2058 41.183 51.7806 41.5191C52.8945 41.764 53.9844 42.1481 55.1031 42.3546C58.3392 42.9499 61.0807 41.7208 63.4621 39.7138C64.6048 38.7488 65.4114 37.39 66.3813 36.2041Z" fill="black"/>
<path d="M62.4634 76.2132C62.8283 79.1756 61.1623 79.9534 59.2754 80.7168C56.6347 81.7875 55.564 80.8704 54.5125 78.5034C53.6579 76.5733 53.173 74.4367 52.7937 72.3433C52.2127 69.1649 51.8622 65.9432 51.4109 62.688C53.9316 63.3265 56.822 63.7154 58.8241 66.0537C60.5237 68.0366 61.2631 70.4852 61.9545 72.9291C62.257 73.9854 62.3242 75.1089 62.4634 76.2132Z" fill="#F5C242"/>
<path d="M53.9076 24.8011C53.4418 24.9547 53.197 25.118 52.9665 25.0988C49.5816 24.8395 47.4643 26.8944 45.5197 29.2135C43.436 31.6909 41.5491 34.3412 39.2973 36.6458C38.217 37.7453 36.5173 38.2687 35.0385 38.912C34.5776 39.1089 33.9102 38.816 33.3341 38.7536C33.3437 38.6 33.3533 38.4559 33.3629 38.3023C36.6566 37.4909 38.3706 34.903 40.1663 32.3919C42.0772 29.7128 44.0409 27.0865 47.1042 25.5693C49.2023 24.5274 51.3341 23.9272 53.9124 24.8059L53.9076 24.8011Z" fill="black"/>
<path d="M50.5515 48.5098C52.7985 50.9152 53.4755 54.569 52.0927 57.2625C50.5611 60.2297 46.7201 60.5178 44.8043 57.7955C43.6568 56.163 43.1191 54.3049 43.0567 52.322C43.0279 51.4338 43.1527 50.5311 43.0231 49.6573C42.903 48.7739 42.5621 47.9288 42.2933 46.959C43.0759 46.8389 44.1754 46.6469 45.2797 46.4981C47.397 46.2148 49.1015 46.959 50.5515 48.5098Z" fill="#F5C242"/>
<path d="M45.3325 132.235C45.2173 134.28 45.2077 136.287 44.9676 138.265C44.6699 140.795 44.1898 143.297 43.7721 145.808C43.604 146.811 43.0471 147.503 42.154 148.05C39.182 149.855 36.0468 151.08 32.5227 150.671C27.9663 150.143 23.4627 149.308 19.5112 146.778C18.2725 145.985 17.2066 144.91 16.1071 143.911C15.9247 143.743 15.8958 143.244 15.9871 142.956C17.2738 138.836 17.5571 134.597 17.2738 130.348C17.0914 127.587 16.2847 124.865 16.0687 122.104C15.8142 118.839 15.7758 115.54 15.8622 112.266C15.9583 108.785 16.2799 105.314 14.8444 101.996C13.8793 99.7635 13.1303 97.5164 12.8518 95.039C12.6166 92.9552 11.7667 90.9003 10.9457 88.9318C9.3613 85.1147 9.57736 81.389 11.1426 77.6632C12.1749 75.2193 12.823 72.6602 12.9094 70.0243C12.9911 67.3788 12.3285 64.8101 11.4066 62.3231C10.6048 60.1673 10.2303 57.9587 10.2447 55.6349C10.2591 53.2391 9.95186 50.8384 9.80782 48.4378C9.7214 47.0118 9.85584 45.5522 10.9265 44.5295C13.6584 41.9272 15.2093 38.72 16.376 35.1958C17.7107 31.158 22.6849 30.0537 25.4168 33.1745C26.1034 33.9619 26.3002 35.2583 26.5067 36.3626C26.6795 37.294 26.5403 38.2831 26.5403 39.1857C25.5176 39.1857 24.5093 39.0993 23.5299 39.2193C22.9345 39.2913 22.2479 39.5458 21.8206 39.9491C20.4763 41.2263 19.2519 42.6138 17.9556 43.939C17.7299 44.1742 17.3938 44.3087 17.1058 44.4911C17.2546 45.1393 17.6963 45.7203 18.0516 46.3348C18.575 47.2231 18.9206 48.1641 17.9076 49.4124C16.8225 48.9995 15.6462 48.5434 14.4699 48.0921C14.4363 48.1497 14.4026 48.2073 14.3738 48.2649C15.1612 48.7066 15.915 49.2876 16.7601 49.5565C17.6195 49.8301 18.066 50.2238 18.4885 51.0545C18.9158 51.8947 18.9399 52.3316 18.2629 52.9702C17.5379 53.6616 16.5536 54.4298 16.4 55.2892C15.9775 57.6466 14.6619 59.9272 15.2045 62.3903C15.3581 63.0769 15.6558 63.7779 16.1551 64.4981C18.0708 67.2588 19.3192 70.4852 20.87 73.5245C19.8185 75.2865 19.6072 77.2695 19.9769 79.5309C18.8054 79.454 17.6723 79.3772 16.5392 79.3052C16.52 79.3772 16.5056 79.4444 16.4864 79.5165C17.3794 79.7517 18.2821 79.9534 19.1559 80.2462C19.4728 80.3519 19.9529 80.6784 19.9529 80.904C19.9289 83.7032 20.3274 86.5455 19.3528 89.2775C19.1127 89.9448 18.911 90.6794 18.4933 91.2316C16.8225 93.445 17.0482 95.9896 17.1154 98.5055C17.125 98.9616 17.4659 99.413 17.6531 99.8595C17.7539 99.8403 17.8596 99.8259 17.9604 99.8115C17.9892 99.4034 18.114 98.9616 18.0324 98.5775C17.5619 96.3449 18.2533 94.4388 19.564 92.672C21.11 90.5882 21.7582 88.1684 21.9214 85.6381C22.0895 82.8629 22.1231 80.0782 22.1711 77.3031C22.1951 76.2708 22.7041 75.5506 23.4435 74.9648C27.611 71.6712 30.5686 67.4076 33.4061 62.9953C34.2415 61.7037 35.4803 60.5034 36.815 59.7448C38.7883 58.6213 40.3055 59.3703 41.1746 61.5357C42.903 65.8424 42.3797 70.0435 40.512 74.163C38.9708 77.5623 36.3637 80.0398 33.5021 82.3012C32.4699 83.1126 31.4568 83.9432 30.2853 84.8843C32.4507 85.5997 33.9919 84.2601 35.7875 83.7224C35.6291 86.2671 34.4816 88.3028 32.83 90.1033C31.6824 91.3564 30.5013 92.5711 29.373 93.8387C29.1762 94.0595 29.1762 94.4484 29.0898 94.7605C29.373 94.7893 29.7139 94.919 29.9444 94.8133C31.2023 94.242 32.4362 93.613 33.8238 92.9312C34.0303 96.7578 31.9849 99.7779 30.2853 103.249C30.7942 103.129 31.3368 103.158 31.6536 102.903C33.3293 101.554 34.6256 99.8979 35.4274 97.7709C38.1402 99.6434 40.0319 102.015 40.656 105.386C41.7555 111.315 39.2589 116.054 35.898 120.548C35.3026 121.336 34.6112 122.041 33.9535 123.04C34.5152 122.862 35.1538 122.795 35.6291 122.488C38.1018 120.889 40.584 117.615 41.8228 114.355C43.9113 118.368 45.9422 122.272 47.9924 126.214C45.1308 128.312 42.0436 129.954 38.2218 130.544C40.1903 133.267 42.7494 132.335 45.3469 132.21L45.3325 132.235ZM41.3234 136.964C41.3762 136.719 41.165 136.421 41.0786 136.148C40.9297 136.277 40.6704 136.388 40.6464 136.541C40.2095 139.048 39.7966 141.559 39.3837 144.07L39.4797 144.122C39.7342 143.349 40.0367 142.591 40.2335 141.813C40.6368 140.205 40.9969 138.587 41.3282 136.964H41.3234ZM39.1484 135.355C39.1869 135.048 38.99 134.702 38.8988 134.381C38.8316 134.414 38.7691 134.443 38.7067 134.477C38.0778 138.673 37.4488 142.874 36.8198 147.075C36.8726 147.09 36.9302 147.099 36.9879 147.109C37.3576 145.63 37.8185 144.161 38.0874 142.663C38.5099 140.238 38.8268 137.794 39.1484 135.355Z" fill="#F5C242"/>
<path d="M41.0786 136.148C41.1698 136.421 41.3762 136.719 41.3234 136.964C40.9921 138.587 40.632 140.2 40.2287 141.813C40.0319 142.596 39.7294 143.354 39.4749 144.122L39.3789 144.07C39.7918 141.559 40.2047 139.048 40.6416 136.541C40.6704 136.388 40.9249 136.277 41.0738 136.148H41.0786Z" fill="black"/>
<path d="M38.8988 134.381C38.99 134.702 39.1869 135.043 39.1484 135.355C38.8268 137.794 38.5099 140.233 38.0874 142.663C37.8185 144.161 37.3624 145.63 36.9879 147.109C36.9302 147.094 36.8726 147.085 36.8198 147.075C37.4488 142.879 38.0778 138.678 38.7067 134.477C38.7691 134.443 38.8316 134.414 38.8988 134.381Z" fill="black"/>
<path d="M37.7369 46.5077C38.4619 46.5509 39.1724 46.8293 40.1807 47.0646C37.0311 48.529 34.1263 49.7485 31.3464 51.1985C28.5136 52.6773 25.6472 54.1609 23.0882 56.043C20.5675 57.8963 18.4165 60.2441 16.1071 62.3759C15.8526 59.4759 17.0193 57.1713 18.4261 55.0107C20.217 52.274 23.0065 50.704 25.7433 49.0763C29.4595 46.863 33.5069 46.2484 37.7321 46.5029L37.7369 46.5077Z" fill="#D9C786"/>
<path d="M37.8089 45.6242L37.7369 46.5077C33.5069 46.2532 29.4643 46.8678 25.7481 49.0811C23.0113 50.7088 20.2218 52.2788 18.4309 55.0155C17.0193 57.1761 15.8574 59.4807 16.1119 62.3807L15.2045 62.4143C14.6619 59.9512 15.9775 57.6706 16.4 55.3132C16.5584 54.4538 17.5427 53.6856 18.2629 52.9942C18.9399 52.3508 18.9206 51.9139 18.4885 51.0785C18.066 50.2479 17.6195 49.8541 16.7601 49.5805C15.9102 49.3068 15.1612 48.7307 14.3738 48.2889C14.4074 48.2313 14.4363 48.1737 14.4699 48.1161C15.6462 48.5674 16.8273 49.0235 17.9076 49.4364C18.9206 48.1881 18.5702 47.2471 18.0516 46.3588L18.671 46.186C18.791 46.3636 18.9495 46.5797 19.1415 46.8341C22.1087 45.2977 25.0567 43.7805 27.9999 42.2585C27.9807 42.2345 27.9663 42.2105 27.9471 42.1769L28.4416 42.0905C28.624 42.4746 28.9025 42.7915 29.1906 42.8491C30.751 43.166 31.2263 43.6845 31.452 45.0769C33.6078 45.2641 35.7059 45.461 37.8041 45.6338L37.8089 45.6242ZM30.4821 45.605C30.2133 45.1969 30.0164 44.808 29.7427 44.4959C29.2338 43.915 28.5952 43.5645 27.827 43.9678C25.5416 45.1777 23.2898 46.45 20.99 47.6168C19.0743 48.5914 18.9831 49.5133 19.6504 51.4194C22.9345 48.7547 26.3818 46.6469 30.4821 45.605Z" fill="black"/>
<path d="M29.7427 44.4959C30.0212 44.808 30.2133 45.1969 30.4821 45.605C26.3818 46.6421 22.9345 48.7547 19.6504 51.4194C18.9831 49.5133 19.0743 48.5914 20.99 47.6168C23.2898 46.45 25.5464 45.1777 27.827 43.9678C28.5952 43.5597 29.2338 43.915 29.7427 44.4959Z" fill="white"/>
<path d="M27.9471 42.1673C27.9663 42.2009 27.9807 42.2249 27.9999 42.2489C25.0567 43.7709 22.1087 45.2929 19.1415 46.8245C18.9495 46.5701 18.7958 46.354 18.671 46.1764C18.0996 45.3265 18.3013 45.1249 19.444 43.987C19.9577 43.4733 20.5387 43.0123 20.9756 42.4458C22.2815 40.7413 24.2837 40.8566 26.0794 40.4677C26.4154 40.3956 26.934 40.895 27.2749 41.2311C27.5918 41.5431 27.8078 41.9512 27.9471 42.1673ZM24.5333 42.8971C24.2789 42.4794 24.0196 42.0569 23.7651 41.6392C23.4819 41.8552 23.1986 42.0617 22.9153 42.2777C23.285 42.6186 23.6547 42.9595 24.0244 43.3004L24.5333 42.8971Z" fill="#3E4B58"/>
<path d="M23.7651 41.6392C24.0196 42.0569 24.2789 42.4794 24.5333 42.8971L24.0244 43.3004C23.6547 42.9595 23.285 42.6186 22.9153 42.2777C23.1986 42.0617 23.4819 41.8552 23.7651 41.6392Z" fill="black"/>
</svg>
