<svg width="117" height="163" viewBox="0 0 117 163" fill="none" xmlns="http://www.w3.org/2000/svg">
<path d="M116.609 47.9496C116.783 47.4488 116.883 46.89 116.883 46.2732C116.899 40.9538 114.695 38.4707 110.108 37.9277C109.049 37.8012 107.984 37.6904 106.924 37.585C104.752 37.3583 102.701 37.1474 100.682 36.8048C98.215 36.383 96.0113 34.4271 95.8637 32.545C95.7952 31.6277 95.6845 30.7737 95.5738 29.9512C95.4578 29.055 95.3471 28.2115 95.3365 27.5736C95.2944 24.7848 95.2944 21.9326 95.2944 19.1701C95.2944 17.0614 95.2944 14.9526 95.2785 12.8807C95.2575 9.9917 94.7935 3.38597 92.031 1.63568C84.4184 -3.16705 80.3379 13.0442 80.243 17.6676C80.1586 21.532 79.3678 25.2487 77.8917 28.7071C75.5615 34.1477 71.7973 37.1264 66.0351 38.0964C65.2074 38.2335 64.4377 38.4127 63.7366 38.5761C63.726 38.3758 63.7207 38.1755 63.7102 37.9751C63.6575 36.7995 63.5995 35.6239 63.5679 34.4482L63.531 33.2673C63.473 31.4432 63.4202 29.714 63.5046 28.143C63.552 27.2836 63.6997 26.3294 63.8525 25.3119C63.9896 24.421 64.132 23.5037 64.2321 22.5231C64.4061 20.873 64.4166 19.2756 64.4061 17.7784C64.4061 17.7784 64.4061 17.694 64.4061 17.6729C64.3639 15.174 63.4044 11.7104 61.981 9.68066C61.0268 8.31523 59.3819 7.30301 57.7424 7.58243C56.8092 7.74058 55.9868 8.28887 55.2593 8.88987C48.5323 14.4359 49.5709 24.3314 48.2002 32.1391L47.9418 33.6363C46.9823 39.2193 45.9912 44.9921 44.6891 50.3853C42.8228 58.0612 39.2326 63.8656 33.7023 68.1253C30.6446 70.4819 26.4323 71.647 21.2289 72.9228L20.7334 73.044C18.5877 73.5765 16.732 74.0352 14.9237 74.0352C9.55688 74.0404 4.48001 75.7802 1.48028 80.5144C1.1376 81.0574 0.826559 81.6584 0.842375 82.2963C0.868735 83.2821 1.65952 84.0677 2.4345 84.6792C8.76609 89.6612 17.0483 89.2025 24.2603 92.0546C35.4895 96.4936 39.2748 107.043 41.2307 117.982C42.7595 126.533 43.1444 134.826 43.2498 144.642C43.2604 145.765 43.2551 146.878 43.2498 147.995C43.2393 149.508 43.234 151.074 43.2709 152.692C43.3078 154.126 43.6874 155.276 43.9404 156.04C43.9773 156.151 44.0142 156.256 44.0459 156.362C45.4271 161.57 49.476 161.296 54.284 162.272C54.8692 162.393 55.5229 162.498 56.0343 162.182C56.6458 161.802 56.7829 160.985 56.8567 160.268C58.0692 148.591 59.2818 136.919 60.4943 125.241C61.4169 116.353 61.9599 106.405 68.4286 99.4933C71.5601 96.1404 74.001 94.3954 76.8479 93.4675C86.6273 90.2886 97.1237 89.6296 107.093 87.1201C107.842 86.9303 108.648 86.7089 109.133 86.1026C111.137 83.5826 104.557 79.4178 103.134 77.9944C102.564 77.425 100.835 75.6958 98.1676 75.3848C97.3926 75.2899 96.6123 75.1792 95.8268 75.0632C95.0888 74.9578 94.3401 74.8523 93.581 74.7522C93.1381 74.1512 92.9062 73.8348 92.4633 73.2338C92.7955 71.3043 93.1223 69.3062 93.2963 67.1817C93.6073 63.4069 94.3349 60.344 95.5105 57.824C97.303 54.0124 98.1359 53.5906 99.1165 53.4061C100.788 53.1003 102.617 52.9211 104.557 52.7366C105.807 52.6153 107.093 52.494 108.379 52.3306C108.385 52.3306 108.395 52.3306 108.4 52.3306C111.484 51.9405 115.533 51.0179 116.609 47.9338V47.9496ZM66.1827 58.8573C65.6503 56.9646 65.218 55.0193 64.8753 52.9632C65.0124 52.9738 65.1547 52.9791 65.3023 52.9791C65.761 52.9791 66.2196 52.9369 66.6678 52.8473C66.847 52.8104 67.0315 52.8104 67.2108 52.8525C67.7063 52.9738 68.4391 53.2163 68.8503 53.3534C72.9097 54.703 75.5615 57.8029 76.1203 61.8465C76.3997 63.8656 76.5632 65.9006 76.7372 68.0515C76.7372 68.0621 76.7372 68.0673 76.7372 68.0779C75.4772 68.8265 75.9727 68.5313 74.7127 69.2852C70.0998 66.2591 67.3004 62.8323 66.1827 58.852V58.8573Z" fill="white"/>
<path d="M109.571 42.8517C109.629 43.0678 109.692 43.284 109.75 43.5001C109.107 43.7374 108.506 44.1064 107.805 44.1907C104.599 44.5967 101.289 44.7496 98.1623 45.3242C93.6021 46.1625 91.546 49.6683 89.7852 53.4166C88.1298 56.9541 87.3126 60.8659 86.97 65.036C86.7591 67.6403 86.2635 70.155 85.8365 72.6803C85.768 73.1126 85.4042 73.4184 84.7716 73.6292C84.4869 72.5959 84.0546 71.531 83.9544 70.5188C83.5485 66.781 83.4009 63.0801 82.8842 59.3265C82.0144 53.0529 77.9075 47.7229 71.1647 45.4824C69.2036 44.8234 67.4427 44.2804 65.6872 44.7496C65.2812 44.855 64.617 44.4596 64.074 44.2962C64.0212 44.1117 63.9738 43.9219 63.9211 43.7374C65.0704 43.4843 66.1933 43.168 67.3689 42.9729C75.6722 41.5811 81.097 36.8997 84.1864 29.6824C85.9419 25.5755 86.9647 21.0839 87.0701 16.1915C87.1123 14.3358 87.3654 12.5486 87.6237 10.7719C87.687 10.366 88.1614 10.1288 88.4567 9.81246C88.6254 10.2922 88.9364 10.8141 88.9364 11.2464C88.9786 16.1862 88.9206 21.0997 88.9944 26.05C89.026 27.8003 89.4056 29.6349 89.5427 31.4116C89.9433 36.6097 94.6196 40.7851 99.823 41.6708C103.092 42.2296 106.329 42.4616 109.581 42.8464L109.571 42.8517ZM99.3748 43.1311C91.003 41.4757 87.4497 36.1879 86.6958 28.5595C84.4025 35.529 79.6947 40.0681 73.5687 43.5739C80.8071 45.999 83.0213 51.6347 85.109 57.824C87.8293 50.5909 90.8185 44.1591 99.3748 43.1311Z" fill="white"/>
<path d="M97.6087 80.3193C97.904 80.3562 98.2308 80.5671 98.7053 81.0468C97.7195 81.3315 96.7916 81.8007 95.7372 81.864C88.4725 82.2752 81.5821 83.4667 75.0449 85.5965C70.3634 87.1201 66.9788 90.0355 63.8473 93.3884C59.0762 98.4811 56.6353 105.018 55.4913 112.352C54.6899 117.513 54.2523 122.822 53.4352 127.972C52.2437 135.437 52.0645 143.224 51.7587 150.974C51.7271 151.754 51.4635 152.46 51.3053 153.204C51.0839 153.151 50.8678 153.104 50.6463 153.056C50.4566 152.334 50.1086 151.585 50.0875 150.911C50.0295 148.243 50.0981 145.618 50.0717 142.955C49.9715 133.829 49.6341 124.635 47.9524 115.209C47.2512 111.281 46.3603 107.291 45.0845 103.352C42.1902 94.4376 31.7201 85.0219 24.1338 83.066C20.8177 82.2119 17.507 81.8482 14.1804 81.2366C13.2156 81.0627 12.2456 80.8623 11.2808 80.5724C10.8432 80.4406 10.4268 80.0504 10.005 79.771C10.2422 79.5022 10.4162 79.1437 10.7325 78.9855C11.1068 78.7957 11.576 78.627 12.0294 78.7114C16.1099 79.5074 19.5788 78.5585 23.0425 77.7044C28.4093 76.3865 33.7445 74.9788 37.9621 71.7261C44.8525 66.4172 49.1807 59.1525 51.3264 50.322C52.8026 44.2276 53.8464 37.9171 54.9272 31.6383C55.7021 27.1519 56.2135 22.5653 56.8198 18.0156C56.9199 17.2881 56.8672 16.5131 56.9832 15.8014C57.0254 15.5483 57.3575 15.4113 57.5579 15.2267C57.7318 15.5483 58.0534 15.9121 58.0587 16.1915C58.064 17.5464 58.0587 18.9013 57.9216 20.214C57.716 22.212 57.2784 24.1416 57.1677 26.1713C57.0517 28.4118 57.1625 30.7262 57.2257 33.0195C57.289 35.3603 57.4419 37.7274 57.5104 40.0628C57.6896 46.289 58.2854 52.5995 60.0831 59.0207C62.0126 65.89 67.021 70.7297 73.2946 74.3884C78.4136 77.3829 83.6012 79.4178 88.9891 79.3915C91.778 79.3809 94.7355 79.9714 97.6193 80.3193H97.6087ZM78.0288 82.4123C76.5895 81.9694 75.1714 81.7164 73.8534 81.0943C66.6888 77.715 61.691 72.2533 58.802 65.1572C55.8339 57.882 55.7707 50.9019 55.6389 43.9377C55.6178 42.8675 55.7021 41.8184 55.7496 40.3844C55.3753 40.7745 55.2277 40.8431 55.2013 40.9696C54.1891 47.3592 52.6233 53.4904 50.1402 59.1261C46.8295 66.665 41.8791 72.7752 34.4246 76.4286C31.7517 77.7413 28.7256 78.5321 25.8261 79.576C25.9948 79.6972 26.1318 79.8554 26.2742 79.8923C32.2631 81.4475 37.2029 85.3909 41.6155 89.988C45.7382 94.2952 48.2582 99.3879 49.7238 104.633C50.7729 108.387 51.474 112.141 52.3017 115.784C52.3017 115.778 52.4177 115.631 52.4599 115.451C54.3841 106.679 56.8356 98.2175 62.4871 91.7278C65.0018 88.844 67.6642 86.1132 71.3914 84.6159C73.5107 83.7672 75.7724 83.1503 78.0182 82.407L78.0288 82.4123Z" fill="white"/>
<path d="M86.6958 28.5595C87.4445 36.1879 91.003 41.4757 99.3748 43.1311C90.8238 44.1591 87.8293 50.5909 85.109 57.824C83.0213 51.6294 80.8071 45.9938 73.5687 43.5739C79.6947 40.0681 84.3973 35.5342 86.6958 28.5595ZM88.114 41.4019C88.3934 40.8009 89.0366 40.1946 88.8679 39.5989C88.5357 38.4549 87.7871 37.3056 87.1176 36.1879C86.9805 35.956 86.3795 35.6871 86.1317 35.7398C85.7416 35.8189 85.3093 36.0772 85.1986 36.4199C85.0615 36.8364 85.2355 37.4321 85.2882 38.1069C85.6414 38.7712 85.9578 39.5989 86.4955 40.2842C86.8804 40.7587 87.5657 41.0329 88.114 41.4019Z" fill="white"/>
<path d="M88.8679 39.5989C89.0366 40.1893 88.3934 40.8009 88.114 41.4019C87.5604 41.0381 86.8751 40.764 86.4955 40.2842C85.9578 39.5989 85.6414 38.7659 85.2882 38.1069C85.2355 37.4321 85.0615 36.8417 85.1986 36.4199C85.3093 36.0772 85.7469 35.8189 86.1317 35.7398C86.3795 35.6871 86.9805 35.956 87.1176 36.1879C87.7871 37.3056 88.5357 38.4549 88.8679 39.5989Z" fill="white"/>
<path d="M73.8481 81.0943C75.1661 81.7164 76.5843 81.9694 78.0235 82.4123C75.7777 83.1556 73.516 83.7724 71.3967 84.6212C67.6642 86.1185 65.0071 88.8493 62.4924 91.7331C56.8409 98.2228 54.3894 106.684 52.4652 115.457C52.423 115.636 52.307 115.784 52.307 115.789C51.474 112.146 50.7781 108.392 49.729 104.639C48.2582 99.3932 45.7434 94.2952 41.6208 89.9933C37.2029 85.3909 32.2684 81.4528 26.2795 79.8976C26.1424 79.8607 26.0001 79.7078 25.8313 79.5812C28.7309 78.5374 31.757 77.7466 34.4299 76.4339C41.8844 72.7804 46.8347 66.6756 50.1455 59.1314C52.6286 53.4957 54.1944 47.3644 55.2066 40.9749C55.2277 40.8483 55.3805 40.7798 55.7549 40.3897C55.7074 41.8236 55.623 42.878 55.6441 43.943C55.7707 50.9019 55.8339 57.8872 58.8073 65.1625C61.7016 72.2585 66.6994 77.7203 73.8587 81.0996L73.8481 81.0943ZM67.2951 81.5582C67.332 81.1207 67.5324 80.5882 67.3267 80.3035C65.2707 77.6201 63.0776 75.0158 61.0479 72.3218C59.9724 70.8984 58.8653 69.3748 58.2379 67.8301C57.3259 65.5579 56.8303 63.2224 56.1555 60.9081C55.7601 59.5743 55.3595 58.2405 54.9588 56.9067C54.7426 56.8645 54.5265 56.8328 54.3156 56.7907C53.994 57.5973 53.4247 58.3354 53.4036 59.2316C53.256 64.4508 52.9238 69.5277 57.0623 75.1212C59.5296 78.4478 62.3922 80.4564 65.7715 82.0011C66.1933 82.1909 66.7521 81.7638 67.2635 81.5793C67.274 81.5899 67.2793 81.6109 67.2951 81.6215C67.2951 81.6057 67.2951 81.5846 67.3004 81.5688C67.3109 81.5635 67.3215 81.5635 67.3373 81.5582C67.3267 81.5582 67.3162 81.5635 67.3004 81.5635L67.2951 81.5582Z" fill="white"/>
<path d="M67.3267 80.3035C67.5376 80.5882 67.332 81.1207 67.2951 81.5582C67.2793 81.5582 67.2635 81.5635 67.2477 81.5582C65.3603 79.0382 63.6575 76.3601 61.5382 74.0352C58.0798 70.2394 56.4613 66.2222 55.8392 61.8675C55.6652 60.6392 55.1907 59.3792 54.8533 58.1297C54.7005 58.1192 54.5528 58.1087 54.3947 58.0981C53.277 62.2313 53.7884 66.6808 55.6969 71.3781C55.8497 71.7577 56.4402 72.0687 56.8303 72.4114C57.6369 73.1284 58.5595 73.761 59.2343 74.5729C60.4996 76.1018 61.5171 77.8257 62.8456 79.2966C64.0476 80.6198 65.5185 81.748 67.2477 81.553C67.2477 81.5582 67.2529 81.5635 67.2582 81.5688C66.7468 81.7533 66.188 82.1856 65.7663 81.9905C62.3869 80.4458 59.5243 78.4425 57.057 75.1106C52.9133 69.5171 53.2507 64.4402 53.3983 59.221C53.4194 58.3248 53.9887 57.5867 54.3103 56.7801C54.5265 56.8223 54.7426 56.8539 54.9535 56.8961C55.3542 58.2299 55.7549 59.5637 56.1502 60.8975C56.8251 63.2119 57.3206 65.5474 58.2327 67.8196C58.86 69.3642 59.9724 70.8878 61.0426 72.3112C63.0776 75.0052 65.2654 77.6095 67.3215 80.293L67.3267 80.3035Z" fill="white"/>
<path d="M67.332 81.553C67.332 81.553 67.3109 81.5582 67.2951 81.5635C67.2951 81.5635 67.3162 81.553 67.332 81.553Z" fill="white"/>
<path d="M67.2951 81.5582C67.2951 81.5582 67.274 81.5688 67.2582 81.574C67.2529 81.5688 67.2477 81.5635 67.2477 81.5582C67.2635 81.5635 67.2793 81.5582 67.2951 81.5582Z" fill="white"/>
<path d="M67.2951 81.5635C67.2951 81.5635 67.2898 81.6004 67.2898 81.6162C67.2793 81.6057 67.274 81.5846 67.2582 81.574C67.2688 81.5688 67.2793 81.5688 67.2951 81.5635Z" fill="white"/>
<path d="M67.2529 81.5582C65.5237 81.7533 64.0529 80.6304 62.8509 79.3018C61.5223 77.831 60.5049 76.107 59.2396 74.5782C58.5648 73.7663 57.6422 73.1337 56.8356 72.4167C56.4455 72.074 55.855 71.7577 55.7021 71.3834C53.799 66.6808 53.2876 62.2313 54.4 58.1034C54.5581 58.1087 54.7057 58.1192 54.8586 58.135C55.196 59.3845 55.6705 60.6445 55.8445 61.8728C56.4666 66.2222 58.085 70.2447 61.5434 74.0404C63.6628 76.3654 65.3656 79.0435 67.2529 81.5635V81.5582Z" fill="white"/>
<path d="M109.571 42.8517C109.629 43.0678 109.692 43.284 109.75 43.5001C109.107 43.7374 108.506 44.1064 107.805 44.1907C104.599 44.5967 101.289 44.7496 98.1623 45.3242C93.6021 46.1625 91.546 49.6683 89.7852 53.4166C88.1298 56.9541 87.3126 60.8659 86.97 65.036C86.7591 67.6403 86.2635 70.155 85.8365 72.6803C85.768 73.1126 85.4042 73.4184 84.7716 73.6292C84.4869 72.5959 84.0546 71.531 83.9544 70.5188C83.5485 66.781 83.4009 63.0801 82.8842 59.3265C82.0144 53.0529 77.9075 47.7229 71.1647 45.4824C69.2036 44.8234 67.4427 44.2804 65.6872 44.7496C65.2812 44.855 64.617 44.4596 64.074 44.2962C64.0212 44.1117 63.9738 43.9219 63.9211 43.7374C65.0704 43.4843 66.1933 43.168 67.3689 42.9729C75.6722 41.5811 81.097 36.8997 84.1864 29.6824C85.9419 25.5755 86.9647 21.0839 87.0701 16.1915C87.1123 14.3358 87.3654 12.5486 87.6237 10.7719C87.687 10.366 88.1614 10.1288 88.4567 9.81246C88.6254 10.2922 88.9364 10.8141 88.9364 11.2464C88.9786 16.1862 88.9206 21.0997 88.9944 26.05C89.026 27.8003 89.4056 29.6349 89.5427 31.4116C89.9433 36.6097 94.6196 40.7851 99.823 41.6708C103.092 42.2296 106.329 42.4616 109.581 42.8464L109.571 42.8517ZM99.3748 43.1311C91.003 41.4757 87.4497 36.1879 86.6958 28.5595C84.4025 35.529 79.6947 40.0681 73.5687 43.5739C80.8071 45.999 83.0213 51.6347 85.109 57.824C87.8293 50.5909 90.8185 44.1591 99.3748 43.1311Z" fill="black"/>
<path d="M97.6087 80.3193C97.904 80.3562 98.2308 80.5671 98.7053 81.0468C97.7195 81.3315 96.7916 81.8007 95.7372 81.864C88.4725 82.2752 81.5821 83.4667 75.0449 85.5965C70.3634 87.1201 66.9788 90.0355 63.8473 93.3884C59.0762 98.4811 56.6353 105.018 55.4913 112.352C54.6899 117.513 54.2523 122.822 53.4352 127.972C52.2437 135.437 52.0645 143.224 51.7587 150.974C51.7271 151.754 51.4635 152.46 51.3053 153.204C51.0839 153.151 50.8678 153.104 50.6463 153.056C50.4566 152.334 50.1086 151.585 50.0875 150.911C50.0295 148.243 50.0981 145.618 50.0717 142.955C49.9715 133.829 49.6341 124.635 47.9524 115.209C47.2512 111.281 46.3603 107.291 45.0845 103.352C42.1902 94.4376 31.7201 85.0219 24.1338 83.066C20.8177 82.2119 17.507 81.8482 14.1804 81.2366C13.2156 81.0627 12.2456 80.8623 11.2808 80.5724C10.8432 80.4406 10.4268 80.0504 10.005 79.771C10.2422 79.5022 10.4162 79.1437 10.7325 78.9855C11.1068 78.7957 11.576 78.627 12.0294 78.7114C16.1099 79.5074 19.5788 78.5585 23.0425 77.7044C28.4093 76.3865 33.7445 74.9788 37.9621 71.7261C44.8525 66.4172 49.1807 59.1525 51.3264 50.322C52.8026 44.2276 53.8464 37.9171 54.9272 31.6383C55.7021 27.1519 56.2135 22.5653 56.8198 18.0156C56.9199 17.2881 56.8672 16.5131 56.9832 15.8014C57.0254 15.5483 57.3575 15.4113 57.5579 15.2267C57.7318 15.5483 58.0534 15.9121 58.0587 16.1915C58.064 17.5464 58.0587 18.9013 57.9216 20.214C57.716 22.212 57.2784 24.1416 57.1677 26.1713C57.0517 28.4118 57.1625 30.7262 57.2257 33.0195C57.289 35.3603 57.4419 37.7274 57.5104 40.0628C57.6896 46.289 58.2854 52.5995 60.0831 59.0207C62.0126 65.89 67.021 70.7297 73.2946 74.3884C78.4136 77.3829 83.6012 79.4178 88.9891 79.3915C91.778 79.3809 94.7355 79.9714 97.6193 80.3193H97.6087ZM78.0288 82.4123C76.5895 81.9694 75.1714 81.7164 73.8534 81.0943C66.6888 77.715 61.691 72.2533 58.802 65.1572C55.8339 57.882 55.7707 50.9019 55.6389 43.9377C55.6178 42.8675 55.7021 41.8184 55.7496 40.3844C55.3753 40.7745 55.2277 40.8431 55.2013 40.9696C54.1891 47.3592 52.6233 53.4904 50.1402 59.1261C46.8295 66.665 41.8791 72.7752 34.4246 76.4286C31.7517 77.7413 28.7256 78.5321 25.8261 79.576C25.9948 79.6972 26.1318 79.8554 26.2742 79.8923C32.2631 81.4475 37.2029 85.3909 41.6155 89.988C45.7382 94.2952 48.2582 99.3879 49.7238 104.633C50.7729 108.387 51.474 112.141 52.3017 115.784C52.3017 115.778 52.4177 115.631 52.4599 115.451C54.3841 106.679 56.8356 98.2175 62.4871 91.7278C65.0018 88.844 67.6642 86.1132 71.3914 84.6159C73.5107 83.7672 75.7724 83.1503 78.0182 82.407L78.0288 82.4123Z" fill="black"/>
<path d="M86.6958 28.5595C87.4445 36.1879 91.003 41.4757 99.3748 43.1311C90.8238 44.1591 87.8293 50.5909 85.109 57.824C83.0213 51.6294 80.8071 45.9938 73.5687 43.5739C79.6947 40.0681 84.3973 35.5342 86.6958 28.5595ZM88.114 41.4019C88.3934 40.8009 89.0366 40.1946 88.8679 39.5989C88.5357 38.4549 87.7871 37.3056 87.1176 36.1879C86.9805 35.956 86.3795 35.6871 86.1317 35.7398C85.7416 35.8189 85.3093 36.0772 85.1986 36.4199C85.0615 36.8364 85.2355 37.4321 85.2882 38.1069C85.6414 38.7712 85.9578 39.5989 86.4955 40.2842C86.8804 40.7587 87.5657 41.0329 88.114 41.4019Z" fill="#D9C786"/>
<path d="M88.8679 39.5989C89.0366 40.1893 88.3934 40.8009 88.114 41.4019C87.5604 41.0381 86.8751 40.764 86.4955 40.2842C85.9578 39.5989 85.6414 38.7659 85.2882 38.1069C85.2355 37.4321 85.0615 36.8417 85.1986 36.4199C85.3093 36.0772 85.7469 35.8189 86.1317 35.7398C86.3795 35.6871 86.9805 35.956 87.1176 36.1879C87.7871 37.3056 88.5357 38.4549 88.8679 39.5989Z" fill="black"/>
<path d="M73.8481 81.0943C75.1661 81.7164 76.5843 81.9694 78.0235 82.4123C75.7777 83.1556 73.516 83.7724 71.3967 84.6212C67.6642 86.1185 65.0071 88.8493 62.4924 91.7331C56.8409 98.2228 54.3894 106.684 52.4652 115.457C52.423 115.636 52.307 115.784 52.307 115.789C51.474 112.146 50.7781 108.392 49.729 104.639C48.2582 99.3932 45.7434 94.2952 41.6208 89.9933C37.2029 85.3909 32.2684 81.4528 26.2795 79.8976C26.1424 79.8607 26.0001 79.7078 25.8313 79.5812C28.7309 78.5374 31.757 77.7466 34.4299 76.4339C41.8844 72.7804 46.8347 66.6756 50.1455 59.1314C52.6286 53.4957 54.1944 47.3644 55.2066 40.9749C55.2277 40.8483 55.3805 40.7798 55.7549 40.3897C55.7074 41.8236 55.623 42.878 55.6441 43.943C55.7707 50.9019 55.8339 57.8872 58.8073 65.1625C61.7016 72.2585 66.6994 77.7203 73.8587 81.0996L73.8481 81.0943ZM67.2951 81.5582C67.332 81.1207 67.5324 80.5882 67.3267 80.3035C65.2707 77.6201 63.0776 75.0158 61.0479 72.3218C59.9724 70.8984 58.8653 69.3748 58.2379 67.8301C57.3259 65.5579 56.8303 63.2224 56.1555 60.9081C55.7601 59.5743 55.3595 58.2405 54.9588 56.9067C54.7426 56.8645 54.5265 56.8328 54.3156 56.7907C53.994 57.5973 53.4247 58.3354 53.4036 59.2316C53.256 64.4508 52.9238 69.5277 57.0623 75.1212C59.5296 78.4478 62.3922 80.4564 65.7715 82.0011C66.1933 82.1909 66.7521 81.7638 67.2635 81.5793C67.274 81.5899 67.2793 81.6109 67.2951 81.6215C67.2951 81.6057 67.2951 81.5846 67.3004 81.5688C67.3109 81.5635 67.3215 81.5635 67.3373 81.5582C67.3267 81.5582 67.3162 81.5635 67.3004 81.5635L67.2951 81.5582Z" fill="#D9C786"/>
<path d="M67.3267 80.3035C67.5376 80.5882 67.332 81.1207 67.2951 81.5582C67.2793 81.5582 67.2635 81.5635 67.2477 81.5582C65.3603 79.0382 63.6575 76.3601 61.5382 74.0352C58.0798 70.2394 56.4613 66.2222 55.8392 61.8675C55.6652 60.6392 55.1907 59.3792 54.8533 58.1297C54.7005 58.1192 54.5528 58.1087 54.3947 58.0981C53.277 62.2313 53.7884 66.6808 55.6969 71.3781C55.8497 71.7577 56.4402 72.0687 56.8303 72.4114C57.6369 73.1284 58.5595 73.761 59.2343 74.5729C60.4996 76.1018 61.5171 77.8257 62.8456 79.2966C64.0476 80.6198 65.5185 81.748 67.2477 81.553C67.2477 81.5582 67.2529 81.5635 67.2582 81.5688C66.7468 81.7533 66.188 82.1856 65.7663 81.9905C62.3869 80.4458 59.5243 78.4425 57.057 75.1106C52.9133 69.5171 53.2507 64.4402 53.3983 59.221C53.4194 58.3248 53.9887 57.5867 54.3103 56.7801C54.5265 56.8223 54.7426 56.8539 54.9535 56.8961C55.3542 58.2299 55.7549 59.5637 56.1502 60.8975C56.8251 63.2119 57.3206 65.5474 58.2327 67.8196C58.86 69.3642 59.9724 70.8878 61.0426 72.3112C63.0776 75.0052 65.2654 77.6095 67.3215 80.293L67.3267 80.3035Z" fill="black"/>
<path d="M67.332 81.553C67.332 81.553 67.3109 81.5582 67.2951 81.5635C67.2951 81.5635 67.3162 81.553 67.332 81.553Z" fill="black"/>
<path d="M67.2951 81.5582C67.2951 81.5582 67.274 81.5688 67.2582 81.574C67.2529 81.5688 67.2477 81.5635 67.2477 81.5582C67.2635 81.5635 67.2793 81.5582 67.2951 81.5582Z" fill="black"/>
<path d="M67.2951 81.5635C67.2951 81.5635 67.2898 81.6004 67.2898 81.6162C67.2793 81.6057 67.274 81.5846 67.2582 81.574C67.2688 81.5688 67.2793 81.5688 67.2951 81.5635Z" fill="black"/>
<path d="M67.2529 81.5582C65.5237 81.7533 64.0529 80.6304 62.8509 79.3018C61.5223 77.831 60.5049 76.107 59.2396 74.5782C58.5648 73.7663 57.6422 73.1337 56.8356 72.4167C56.4455 72.074 55.855 71.7577 55.7021 71.3834C53.799 66.6808 53.2876 62.2313 54.4 58.1034C54.5581 58.1087 54.7057 58.1192 54.8586 58.135C55.196 59.3845 55.6705 60.6445 55.8445 61.8728C56.4666 66.2222 58.085 70.2447 61.5434 74.0404C63.6628 76.3654 65.3656 79.0435 67.2529 81.5635V81.5582Z" fill="white"/>
</svg>
