<svg width="129" height="121" viewBox="0 0 129 121" fill="none" xmlns="http://www.w3.org/2000/svg">
<g filter="url(#filter0_d_3942_64163)">
<rect x="40.2363" y="36.5352" width="48" height="40" rx="8" fill="white" shape-rendering="crispEdges"/>
<g clip-path="url(#clip0_3942_64163)">
<path d="M60.4863 52.7852C60.6852 52.7852 60.876 52.8642 61.0167 53.0048C61.1573 53.1455 61.2363 53.3362 61.2363 53.5352L61.2363 62.5352C61.2363 62.7341 61.1573 62.9248 61.0167 63.0655C60.876 63.2061 60.6852 63.2852 60.4863 63.2852C60.2874 63.2852 60.0967 63.2061 59.956 63.0655C59.8153 62.9248 59.7363 62.7341 59.7363 62.5352L59.7363 53.5352C59.7363 53.3362 59.8153 53.1455 59.956 53.0048C60.0967 52.8642 60.2874 52.7852 60.4863 52.7852ZM64.2363 52.7852C64.4352 52.7852 64.626 52.8642 64.7667 53.0048C64.9073 53.1455 64.9863 53.3362 64.9863 53.5352L64.9863 62.5352C64.9863 62.7341 64.9073 62.9248 64.7667 63.0655C64.626 63.2061 64.4352 63.2852 64.2363 63.2852C64.0374 63.2852 63.8467 63.2061 63.706 63.0655C63.5653 62.9248 63.4863 62.7341 63.4863 62.5352L63.4863 53.5352C63.4863 53.3362 63.5653 53.1455 63.706 53.0048C63.8467 52.8642 64.0374 52.7852 64.2363 52.7852ZM68.7363 53.5352C68.7363 53.3362 68.6573 53.1455 68.5167 53.0048C68.376 52.8642 68.1852 52.7852 67.9863 52.7852C67.7874 52.7852 67.5966 52.8642 67.456 53.0048C67.3153 53.1455 67.2363 53.3362 67.2363 53.5352L67.2363 62.5352C67.2363 62.7341 67.3153 62.9248 67.456 63.0655C67.5966 63.2061 67.7874 63.2852 67.9863 63.2852C68.1852 63.2852 68.376 63.2061 68.5167 63.0655C68.6573 62.9248 68.7363 62.7341 68.7363 62.5352L68.7363 53.5352Z" fill="black"/>
<path fill-rule="evenodd" clip-rule="evenodd" d="M73.9863 49.0352C73.9863 49.433 73.8283 49.8145 73.547 50.0958C73.2657 50.3771 72.8842 50.5352 72.4863 50.5352L71.7363 50.5352L71.7363 64.0352C71.7363 64.8308 71.4203 65.5939 70.8576 66.1565C70.295 66.7191 69.532 67.0352 68.7363 67.0352L59.7363 67.0352C58.9407 67.0352 58.1776 66.7191 57.615 66.1565C57.0524 65.5939 56.7363 64.8308 56.7363 64.0352L56.7363 50.5352L55.9863 50.5352C55.5885 50.5352 55.207 50.3771 54.9257 50.0958C54.6444 49.8145 54.4863 49.433 54.4863 49.0352L54.4863 47.5352C54.4863 47.1373 54.6444 46.7558 54.9257 46.4745C55.207 46.1932 55.5885 46.0352 55.9863 46.0352L61.2363 46.0352C61.2363 45.6373 61.3944 45.2558 61.6757 44.9745C61.957 44.6932 62.3385 44.5352 62.7363 44.5352L65.7363 44.5352C66.1342 44.5352 66.5157 44.6932 66.797 44.9745C67.0783 45.2558 67.2363 45.6373 67.2363 46.0352L72.4863 46.0352C72.8842 46.0352 73.2657 46.1932 73.547 46.4745C73.8283 46.7558 73.9863 47.1373 73.9863 47.5352L73.9863 49.0352ZM58.4133 50.5352L58.2363 50.6237L58.2363 64.0352C58.2363 64.433 58.3944 64.8145 58.6757 65.0958C58.957 65.3771 59.3385 65.5352 59.7363 65.5352L68.7363 65.5352C69.1342 65.5352 69.5157 65.3771 69.797 65.0958C70.0783 64.8145 70.2363 64.433 70.2363 64.0352L70.2363 50.6237L70.0593 50.5352L58.4133 50.5352ZM55.9863 49.0352L55.9863 47.5352L72.4863 47.5352L72.4863 49.0352L55.9863 49.0352Z" fill="black"/>
</g>
</g>
<defs>
<filter id="filter0_d_3942_64163" x="0.236328" y="0.535156" width="128" height="120" filterUnits="userSpaceOnUse" color-interpolation-filters="sRGB">
<feFlood flood-opacity="0" result="BackgroundImageFix"/>
<feColorMatrix in="SourceAlpha" type="matrix" values="0 0 0 0 0 0 0 0 0 0 0 0 0 0 0 0 0 0 127 0" result="hardAlpha"/>
<feOffset dy="4"/>
<feGaussianBlur stdDeviation="20"/>
<feComposite in2="hardAlpha" operator="out"/>
<feColorMatrix type="matrix" values="0 0 0 0 0 0 0 0 0 0 0 0 0 0 0 0 0 0 0.25 0"/>
<feBlend mode="normal" in2="BackgroundImageFix" result="effect1_dropShadow_3942_64163"/>
<feBlend mode="normal" in="SourceGraphic" in2="effect1_dropShadow_3942_64163" result="shape"/>
</filter>
<clipPath id="clip0_3942_64163">
<rect width="24" height="24" fill="white" transform="translate(52.2363 44.5352)"/>
</clipPath>
</defs>
</svg>
